<svg xmlns="http://www.w3.org/2000/svg">
<defs>
<font id="9feba3e8ebddcfb0805a142fc74fbb05" horiz-adv-x='1024' >
  <font-face 
    font-family="GTPressuraMono-BoldItalic"
    font-weight="700"
    font-style="italic"
    font-stretch="normal"
    units-per-em="1000"
    panose-1="2 0 8 6 0 0 0 9 0 4"
    ascent="750"
    descent="-250"
    x-height="500"
    cap-height="700"
    bbox="-341 -305 729.571 1080"
    underline-thickness="50"
    underline-position="-50"
    slope="-12"
    unicode-range="U+0020-FB02"
  />
<missing-glyph 
d="M184 120q-14 0 -19 -9t-9.5 -19.5t-12.5 -19.5t-27 -9q-21 0 -36.5 13.5t-15.5 31.5t6.5 27t14.5 17t14.5 19t6.5 34q0 17 -8.5 27.5t-19.5 10.5q-12 0 -15.5 -3.5t-14.5 -3.5q-15 0 -22.5 16t-7.5 36q0 14 9.5 26.5t23.5 12.5q10 0 14.5 -5.5t12.5 -5.5q15 0 21 15t6 25
q0 12 -5 24.5t-5 24.5q0 20 11.5 28.5t28.5 8.5q9 0 9 8q0 5 -4 10.5t-4 13.5q0 5 5.5 9.5t10.5 4.5q8 0 13 -5.5t9 -12t8.5 -12t11.5 -5.5q12 0 15 8.5t5 19t7 19t22 8.5q16 0 23.5 -7.5t13.5 -16.5t13.5 -16.5t21.5 -7.5q21 0 28 11.5t7 36.5q0 28 15 40.5t38 12.5
q22 0 34.5 -13t12.5 -35q0 -16 -7.5 -26t-16.5 -16.5t-16.5 -12.5t-7.5 -14q0 -14 12 -22t27 -16.5t27 -21t12 -36.5q0 -14 -5 -22.5t-11 -15t-11 -14t-5 -20.5q0 -10 9.5 -18t34.5 -8q22 0 31 -13t9 -32q0 -22 -15 -37t-37 -15q-12 0 -19.5 8t-15 17t-16 17t-21.5 8
q-11 0 -18 -5.5t-7 -15.5q0 -8 3 -12.5t7 -8.5t7 -10t3 -18q0 -13 -8.5 -23t-26.5 -10q-9 0 -17.5 4.5t-18 10.5t-20.5 10.5t-24 4.5q-9 0 -17.5 -7t-8.5 -24q0 -12 -6.5 -19.5t-17.5 -7.5q-9 0 -12.5 7.5t-7.5 16.5t-11 16.5t-23 7.5zM298 340q0 -17 11.5 -28.5t28.5 -11.5
t30 11.5t13 28.5t-13 32t-30 15t-28.5 -15t-11.5 -32zM281 226q-14 0 -26 5.5t-22 14.5q-5 4 -7 1t2 -8q8 -12 20 -20.5t33 -8.5q20 0 29.5 11.5t14.5 22.5q2 5 -1 6.5t-5 -2.5q-12 -22 -38 -22zM214 335q0 9 4 15t10 6t10 -6t4 -15t-4 -15t-10 -6t-10 6t-4 15zM310 340
q0 9 4 15t10 6t10 -6t4 -15t-4 -15t-10 -6t-10 6t-4 15zM178 340q0 -21 9.5 -35.5t26.5 -14.5t28.5 14.5t11.5 35.5t-11.5 35.5t-28.5 14.5t-26.5 -14.5t-9.5 -35.5zM85 520q0 14 8.5 24t20.5 10q10 0 17 -10t7 -24t-7 -24t-17 -10q-12 0 -20.5 10t-8.5 24z" />
    <glyph glyph-name="IJ" unicode="IJ" 
d="M-22 0q-8 0 -13 6t-3 14l21 95q2 8 9 14t15 6h39q10 0 12 10l87 410q2 10 -8 10h-30q-8 0 -13 6t-3 14l21 95q2 8 9 14t15 6h220q8 0 13 -6t3 -14l-21 -95q-2 -8 -9 -14t-15 -6h-30q-10 0 -12 -10l-87 -410q-2 -10 8 -10h39q28 0 46.5 6.5t31 18t19.5 28.5t12 38l97 454
q2 8 9 14t15 6h101q8 0 13 -6t3 -14l-98 -458q-26 -120 -89.5 -171t-168.5 -51h-258z" />
    <glyph glyph-name="ij" unicode="ij" 
d="M121 -210q-8 0 -13 6t-3 14l19 90q2 8 9 14t15 6h42q32 0 49 12.5t22 37.5l85 401q2 10 -8 10h-90l-77 -365q-4 -16 -20 -16h-98q-16 0 -12 16l74 347q2 10 -8 10h-60q-8 0 -13 6t-3 14l18 87q2 8 9.5 14t15.5 6h414q7 0 10.5 -5t1.5 -11l-109 -516q-18 -86 -74 -132
t-134 -46h-62zM528 586q-4 -16 -19 -16h-108q-7 0 -11 4.5t-2 11.5l23 108q2 6 7 11t12 5h108q7 0 11 -5t2 -11zM298 586q-4 -16 -19 -16h-108q-7 0 -11 4.5t-2 11.5l23 108q2 6 7 11t12 5h108q7 0 11 -5t2 -11z" />
    <glyph glyph-name="napostrophe" unicode="&#x22;n" 
d="M222 476q11 0 21.5 5.5t23.5 12t29 12t39 5.5q39 0 71 -14.5t52 -39.5t28 -59t-1 -73l-65 -305q-2 -8 -9 -14t-15 -6h-90q-8 0 -13 6t-3 14l65 306q5 25 -10.5 42t-51.5 17q-35 0 -58.5 -16t-28.5 -39l-66 -310q-2 -8 -9 -14t-15 -6h-90q-8 0 -13 6t-3 14l98 460
q2 8 9 14t15 6h50q9 0 13.5 -3.5t7.5 -8.5t7 -8.5t12 -3.5zM17 560q-8 0 -13.5 6t-3.5 14l20 100q2 8 9 14t15 6h100q8 0 13 -6t3 -14l-19 -97q-4 -20 -14 -37.5t-21 -31.5l-45 -54q-6 -7 -14.5 -13.5t-23.5 -6.5h-10q-15 0 -19 12t6 26l47 69q4 5 1.5 9t-7.5 4h-24z" />
    <glyph glyph-name="f_f" unicode="ff" 
d="M549 590q-35 0 -56.5 -20t-26.5 -45l-4 -18q-2 -10 8 -10h60q8 0 12.5 -6t2.5 -14l-17 -80q-2 -8 -9 -14t-15 -6h-60q-10 0 -12 -10l-74 -347q-2 -8 -9 -14t-15 -6h-80q-8 0 -13 6t-3 14l74 347q2 10 -8 10h-78q-10 0 -12 -10l-74 -347q-2 -8 -9 -14t-15 -6h-80
q-8 0 -13 6t-3 14l74 347q2 10 -8 10h-30q-8 0 -13 6t-3 14l17 80q2 8 9.5 14t15.5 6h30q10 0 12 10l4 20q8 39 30.5 72.5t53.5 58t68.5 38.5t76.5 14q8 0 13 -6t3 -14l-17 -80q-2 -8 -9.5 -14t-15.5 -6q-36 0 -57 -20t-26 -45l-4 -18q-2 -10 5 -10h83q8 0 10 10l4 20
q8 39 30.5 72.5t53.5 58t68.5 38.5t76.5 14q8 0 13 -6t3 -14l-17 -80q-2 -8 -9.5 -14t-15.5 -6z" />
    <glyph glyph-name="fi" unicode="fi" 
d="M373 367q2 10 -6 10h-112q-10 0 -12 -10l-74 -347q-2 -8 -9 -14t-15 -6h-90q-8 0 -13 6t-3 14l74 347q2 10 -8 10h-50q-8 0 -13 6t-3 14l17 80q2 8 9.5 14t15.5 6h50q10 0 12 10l4 20q8 39 30.5 72.5t53.5 58t68.5 38.5t76.5 14h186q8 0 13 -6t3 -14l-19 -90
q-2 -8 -9.5 -14t-15.5 -6h-186q-25 0 -45.5 -15t-25.5 -40l-4 -18q-2 -10 8 -10h234q7 0 10.5 -5t1.5 -11l-98 -461q-2 -8 -9 -14t-15 -6h-90q-8 0 -13 6t-3 14z" />
    <glyph glyph-name="fl" unicode="fl" 
d="M234 377q-10 0 -12 -10l-74 -347q-2 -8 -9 -14t-15 -6h-90q-8 0 -13 6t-3 14l74 347q2 10 -8 10h-40q-8 0 -13 6t-3 14l17 80q2 8 9.5 14t15.5 6h40q10 0 12 10l4 20q8 39 30.5 72.5t53.5 58t68.5 38.5t76.5 14q8 0 13 -6t3 -14l-19 -90q-2 -8 -9.5 -14t-15.5 -6
q-25 0 -45.5 -15t-25.5 -40l-4 -18q-2 -10 8 -10h120q10 0 12 10l38 179q2 8 9 14t15 6h80q8 0 13 -6t3 -14l-142 -666q-2 -8 -9 -14t-15 -6h-80q-8 0 -13 6t-3 14l74 347q2 10 -8 10h-120z" />
    <glyph glyph-name=".notdef" 
d="M184 120q-14 0 -19 -9t-9.5 -19.5t-12.5 -19.5t-27 -9q-21 0 -36.5 13.5t-15.5 31.5t6.5 27t14.5 17t14.5 19t6.5 34q0 17 -8.5 27.5t-19.5 10.5q-12 0 -15.5 -3.5t-14.5 -3.5q-15 0 -22.5 16t-7.5 36q0 14 9.5 26.5t23.5 12.5q10 0 14.5 -5.5t12.5 -5.5q15 0 21 15t6 25
q0 12 -5 24.5t-5 24.5q0 20 11.5 28.5t28.5 8.5q9 0 9 8q0 5 -4 10.5t-4 13.5q0 5 5.5 9.5t10.5 4.5q8 0 13 -5.5t9 -12t8.5 -12t11.5 -5.5q12 0 15 8.5t5 19t7 19t22 8.5q16 0 23.5 -7.5t13.5 -16.5t13.5 -16.5t21.5 -7.5q21 0 28 11.5t7 36.5q0 28 15 40.5t38 12.5
q22 0 34.5 -13t12.5 -35q0 -16 -7.5 -26t-16.5 -16.5t-16.5 -12.5t-7.5 -14q0 -14 12 -22t27 -16.5t27 -21t12 -36.5q0 -14 -5 -22.5t-11 -15t-11 -14t-5 -20.5q0 -10 9.5 -18t34.5 -8q22 0 31 -13t9 -32q0 -22 -15 -37t-37 -15q-12 0 -19.5 8t-15 17t-16 17t-21.5 8
q-11 0 -18 -5.5t-7 -15.5q0 -8 3 -12.5t7 -8.5t7 -10t3 -18q0 -13 -8.5 -23t-26.5 -10q-9 0 -17.5 4.5t-18 10.5t-20.5 10.5t-24 4.5q-9 0 -17.5 -7t-8.5 -24q0 -12 -6.5 -19.5t-17.5 -7.5q-9 0 -12.5 7.5t-7.5 16.5t-11 16.5t-23 7.5zM298 340q0 -17 11.5 -28.5t28.5 -11.5
t30 11.5t13 28.5t-13 32t-30 15t-28.5 -15t-11.5 -32zM281 226q-14 0 -26 5.5t-22 14.5q-5 4 -7 1t2 -8q8 -12 20 -20.5t33 -8.5q20 0 29.5 11.5t14.5 22.5q2 5 -1 6.5t-5 -2.5q-12 -22 -38 -22zM214 335q0 9 4 15t10 6t10 -6t4 -15t-4 -15t-10 -6t-10 6t-4 15zM310 340
q0 9 4 15t10 6t10 -6t4 -15t-4 -15t-10 -6t-10 6t-4 15zM178 340q0 -21 9.5 -35.5t26.5 -14.5t28.5 14.5t11.5 35.5t-11.5 35.5t-28.5 14.5t-26.5 -14.5t-9.5 -35.5zM85 520q0 14 8.5 24t20.5 10q10 0 17 -10t7 -24t-7 -24t-17 -10q-12 0 -20.5 10t-8.5 24z" />
    <glyph glyph-name=".null" horiz-adv-x="0" 
 />
    <glyph glyph-name="nonmarkingreturn" horiz-adv-x="333" 
 />
    <glyph glyph-name="space" unicode=" " 
 />
    <glyph glyph-name="exclam" unicode="!" 
d="M325 233q-2 -6 -7.5 -11t-12.5 -5h-108q-7 0 -10.5 5t-1.5 11l95 451q2 6 7.5 11t12.5 5h108q7 0 10.5 -5t1.5 -11zM288 20q-2 -8 -9 -14t-15 -6h-119q-8 0 -13 6t-3 14l25 120q2 8 9 14t15 6h120q8 0 13 -6t3 -14z" />
    <glyph glyph-name="quotedbl" unicode="&#x22;" 
d="M318 540q-8 0 -12.5 6t-2.5 14l25 120q2 8 9 14t15 6h120q8 0 13 -6t3 -14l-25 -117q-4 -20 -14 -38t-22 -31l-82 -84q-6 -7 -14.5 -13.5t-23.5 -6.5h-20q-15 0 -19 12t6 26l75 99q4 5 1 9t-8 4h-24zM105 540q-8 0 -12.5 6t-2.5 14l25 120q2 8 9 14t15 6h120q8 0 13 -6
t3 -14l-25 -117q-4 -20 -14 -38t-22 -31l-82 -84q-6 -7 -14.5 -13.5t-23.5 -6.5h-20q-15 0 -19 12t6 26l75 99q4 5 1 9t-8 4h-24z" />
    <glyph glyph-name="numbersign" unicode="#" 
d="M358 420q5 10 -5 10h-86q-10 0 -15 -10l-59 -153q-3 -10 6 -10h86q11 0 14 10zM145 420q5 10 -5 10h-50q-8 0 -12.5 6t-0.5 14l25 66q3 8 11.5 14t16.5 6h50q11 0 14 10l53 134q3 8 11 14t16 6h67q8 0 12 -6t1 -14l-53 -134q-3 -10 6 -10h86q11 0 14 10l53 134q3 8 11 14
t16 6h67q8 0 12 -6t1 -14l-53 -134q-3 -10 6 -10h50q8 0 11.5 -6t0.5 -14l-25 -66q-4 -8 -11.5 -14t-15.5 -6h-50q-10 0 -15 -10l-59 -153q-3 -10 6 -10h50q8 0 11.5 -6t-0.5 -14l-25 -69q-4 -8 -11.5 -14t-15.5 -6h-50q-10 0 -15 -10l-47 -118q-3 -8 -11 -14t-16 -6h-67
q-8 0 -12 6t-1 14l47 118q5 10 -5 10h-86q-10 0 -15 -10l-47 -118q-3 -8 -11 -14t-16 -6h-67q-8 0 -12 6t-1 14l47 118q5 10 -5 10h-50q-8 0 -12 6t0 14l24 69q4 8 12.5 14t16.5 6h50q11 0 14 10z" />
    <glyph glyph-name="dollar" unicode="$" 
d="M414 700q34 -11 60.5 -30t43.5 -45t23 -58t-1 -67l-3 -15q-2 -8 -9 -14t-15 -6h-101q-8 0 -13 6t-3 14l3 15q7 30 -11.5 52.5t-61.5 22.5q-48 0 -75.5 -22t-27.5 -53q0 -30 18.5 -44.5t56.5 -22.5q45 -9 81.5 -24.5t63 -38t41 -52.5t14.5 -68q0 -47 -14 -87.5t-40 -73.5
t-62 -56.5t-81 -34.5q-8 -2 -12 -5t-6 -10l-6 -33q-2 -8 -9.5 -14t-15.5 -6h-85q-8 0 -12.5 6t-2.5 14l7 34q2 7 -1.5 10t-10.5 5q-36 10 -65 30.5t-47.5 48t-25.5 60.5t1 70l7 30q2 8 9 14t15 6h101q8 0 13 -6t3 -14l-7 -30q-8 -35 12.5 -58.5t67.5 -23.5q21 0 42.5 6
t38 17t27 28t10.5 40q0 32 -20 46t-69 25q-40 9 -73.5 24t-58 36.5t-38.5 51.5t-14 70q0 46 13.5 84t37.5 67t57.5 49.5t73.5 30.5q8 2 12.5 5t6.5 10l8 34q2 8 9 14t15 6h85q8 0 13 -6t3 -14l-8 -34q-2 -11 12 -16z" />
    <glyph glyph-name="percent" unicode="%" 
d="M63 15q-11 -15 -24 -15h-47q-9 0 -13 8.5t4 19.5l463 657q10 15 25 15h48q10 0 14 -8.5t-4 -19.5zM194 609q-13 0 -21.5 -10t-14 -24t-7.5 -29t-2 -26q0 -12 4 -20.5t15 -8.5q13 0 21.5 10t13.5 24t7.5 29t2.5 26q0 12 -4 20.5t-15 8.5zM67 491q0 31 7.5 66t25 64.5
t45 49t66.5 19.5q47 0 65.5 -23.5t18.5 -56.5q0 -32 -8 -67t-25.5 -64.5t-44.5 -49t-66 -19.5q-47 0 -65.5 24t-18.5 57zM343 209q-13 0 -21.5 -10t-14 -24t-7.5 -29t-2 -26q0 -12 4 -20.5t15 -8.5q13 0 21.5 10t13.5 24t7.5 29t2.5 26q0 12 -4 20.5t-15 8.5zM216 91
q0 31 7.5 66t25 64.5t45 49t66.5 19.5q47 0 65.5 -23.5t18.5 -56.5q0 -32 -8 -67t-25.5 -64.5t-44.5 -49t-66 -19.5q-47 0 -65.5 24t-18.5 57z" />
    <glyph glyph-name="ampersand" unicode="&#x26;" 
d="M242 117q17 0 26 3.5t22 11.5q5 3 3 6l-88 137q-2 3 -3.5 2t-2.5 -2q-19 -14 -30 -33t-11 -42q0 -20 7 -35.5t19 -26t27 -16t31 -5.5zM380 262q2 4 7.5 21.5t5.5 36.5q0 8 6 14t14 6h80q19 0 19 -20q0 -44 -8 -77t-17 -55q-11 -26 -24 -44q-3 -4 -3.5 -6t1.5 -6l60 -95
q6 -10 -1.5 -23.5t-24.5 -13.5h-79q-11 0 -14.5 3t-5.5 7l-17 23q-5 7 -10 4.5l-9 -4.5q-34 -23 -64.5 -33.5t-70.5 -10.5q-46 0 -83 15.5t-63 41.5t-40 60.5t-14 73.5q0 65 31.5 111.5t79.5 71.5q8 4 8.5 10t-2.5 12q-14 26 -18.5 52.5t-4.5 58.5q0 42 15 79.5t42 65
t65 43.5t84 16q42 0 77 -14t60 -39t39 -58.5t14 -72.5q0 -20 -11.5 -25t-24.5 -5h-74q-25 0 -25 29q0 23 -13.5 38.5t-48.5 15.5q-36 0 -51.5 -23.5t-15.5 -53.5q0 -24 10 -47.5t16 -32.5l95 -151q1 -2 3.5 -2.5t4.5 3.5z" />
    <glyph glyph-name="quotesingle" unicode="'" 
d="M215 540q-8 0 -12.5 6t-2.5 14l25 120q2 8 9 14t15 6h120q8 0 13 -6t3 -14l-25 -117q-4 -20 -14 -38t-22 -31l-82 -84q-6 -7 -14.5 -13.5t-23.5 -6.5h-20q-15 0 -19 12t6 26l75 99q4 5 1 9t-8 4h-24z" />
    <glyph glyph-name="parenleft" unicode="(" 
d="M350 38q8 0 12.5 -6t2.5 -14l-18 -88q-2 -8 -9.5 -14t-15.5 -6h-72q-97 0 -142.5 56.5t-37.5 153.5q2 20 7 51.5t12 68t15 76t17 76t17 67.5t15 51q13 41 33.5 79t52 67t76.5 46.5t108 17.5h72q8 0 12.5 -6t2.5 -14l-18 -88q-2 -8 -9.5 -14t-15.5 -6h-72q-34 0 -63.5 -17
t-48.5 -65q-12 -31 -26.5 -84t-26.5 -111t-20.5 -111t-9.5 -84q-1 -36 16.5 -59t61.5 -23h72z" />
    <glyph glyph-name="parenright" unicode=")" 
d="M199 592q-8 0 -12.5 6t-2.5 14l18 88q2 8 9.5 14t15.5 6h72q49 0 85 -17.5t58.5 -46.5t31.5 -67t5 -79q-2 -20 -7 -51t-12 -67.5t-15 -76t-17 -76t-17 -68t-15 -51.5q-16 -48 -36 -87t-50.5 -66.5t-74.5 -42t-108 -14.5h-72q-8 0 -12.5 6t-2.5 14l18 88q2 8 9.5 14
t15.5 6h71q44 0 71 23t41 59q12 31 26.5 84t27 111t21 111t8.5 84q1 48 -19.5 65t-58.5 17h-72z" />
    <glyph glyph-name="asterisk" unicode="*" 
d="M307 490l-3 -30q-2 -13 -13 -21.5t-24 -8.5h-49q-13 0 -19.5 8.5t-3.5 21.5l8 30l-29 -17q-11 -7 -22.5 -3.5t-15.5 14.5l-14 42q-4 11 1 23t18 18l30 13l-25 13q-10 5 -10.5 17.5t8.5 23.5l34 42q8 11 21 15t22 -4l20 -17l5 30q2 13 12.5 21.5t23.5 8.5h49q13 0 20.5 -9
t3.5 -21l-10 -30l30 17q11 7 23 3.5t16 -14.5l14 -42q4 -11 -1 -23t-19 -18l-30 -13l25 -13q11 -5 11 -17.5t-8 -23.5l-34 -42q-8 -11 -21.5 -15t-22.5 4z" />
    <glyph glyph-name="plus" unicode="+" 
d="M213 315q10 0 12 10l27 125q2 8 9 14t15 6h89q8 0 13 -6t3 -14l-27 -125q-2 -10 8 -10h126q8 0 13 -6t3 -14l-19 -89q-2 -8 -9 -14t-15 -6h-126q-10 0 -12 -10l-27 -126q-2 -8 -9 -14t-15 -6h-89q-8 0 -13 6t-3 14l27 126q2 10 -8 10h-125q-8 0 -13 6t-3 14l19 89
q2 8 9 14t15 6h125z" />
    <glyph glyph-name="comma" unicode="," 
d="M215 0q-8 0 -12.5 6t-2.5 14l25 120q2 8 9 14t15 6h120q8 0 13 -6t3 -14l-25 -117q-4 -20 -14 -38t-22 -31l-82 -84q-6 -7 -14.5 -13.5t-23.5 -6.5h-20q-15 0 -19 12t6 26l75 99q4 5 1 9t-8 4h-24z" />
    <glyph glyph-name="hyphen" unicode="-" 
d="M426 337q8 0 13 -6t3 -14l-21 -99q-2 -8 -9 -14t-15 -6h-273q-8 0 -13 6t-3 14l21 99q2 8 9 14t15 6h273z" />
    <glyph glyph-name="period" unicode="." 
d="M342 20q-2 -8 -9.5 -14t-15.5 -6h-120q-8 0 -12.5 6t-2.5 14l25 120q2 8 9.5 14t15.5 6h120q8 0 12.5 -6t2.5 -14z" />
    <glyph glyph-name="slash" unicode="/" 
d="M137 3q-8 -15 -24 -15h-99q-10 0 -13 8.5t3 19.5l410 679q8 15 22 15h99q10 0 13.5 -8.5t-3.5 -19.5z" />
    <glyph glyph-name="zero" unicode="0" 
d="M81 490q15 45 38 85t55 70.5t73.5 48t93.5 17.5q46 0 82.5 -17.5t61 -48t35.5 -70.5t7 -85q-3 -32 -8.5 -67.5t-13.5 -72.5t-17.5 -73t-19.5 -67q-15 -45 -38 -85t-55 -70.5t-73.5 -48t-93.5 -17.5q-46 0 -82.5 17.5t-61 48t-36 70.5t-6.5 85q3 31 8.5 67t13.5 73
t17 72.5t20 67.5zM322 575q-35 0 -62.5 -23.5t-38.5 -57.5q-21 -66 -37.5 -144t-23.5 -144q-4 -34 14 -57.5t53 -23.5t62.5 23.5t38.5 57.5q21 66 37.5 144t23.5 144q4 34 -14 57.5t-53 23.5z" />
    <glyph glyph-name="one" unicode="1" 
d="M280 500q2 10 -5 11.5t-12 -3.5l-145 -113q-11 -9 -22.5 -4t-8.5 20l21 96q2 12 7 22.5t18 21.5l143 125q8 8 22 16t33 8h111q8 0 13 -6t3 -14l-114 -535q-2 -10 8 -10h111q8 0 13 -6t3 -14l-21 -95q-2 -8 -9 -14t-15 -6h-410q-8 0 -12.5 6t-2.5 14l20 95q2 8 9 14t15 6
h140q10 0 12 10z" />
    <glyph glyph-name="two" unicode="2" 
d="M397 520q0 23 -14 39.5t-45 16.5q-38 0 -65 -22t-36 -68q-2 -8 -9 -14t-15 -6h-95q-8 0 -13 6t-3 14q18 103 77.5 164t163.5 61q44 0 79.5 -14t60 -37.5t38 -54.5t13.5 -65q0 -45 -12.5 -78.5t-31 -59.5t-40 -45.5t-40.5 -36.5l-184 -165q-5 -5 -6 -12.5t12 -7.5h206
q8 0 12.5 -6t2.5 -14l-20 -95q-2 -8 -9 -14t-15 -6h-397q-8 0 -13 6t-3 14l24 106q2 11 6.5 16.5t8.5 8.5l318 287q17 15 30.5 37t13.5 45z" />
    <glyph glyph-name="three" unicode="3" 
d="M232 125q45 0 75.5 28t30.5 76q0 29 -19 45.5t-52 16.5h-12q-8 0 -13 6t-3 14l20 94q2 8 9 14t15 6h19q38 0 64 25t26 66q0 25 -17.5 42t-47.5 17q-34 0 -60.5 -21t-36.5 -68q-2 -8 -9 -14t-15 -6h-94q-8 0 -13 6t-3 14q8 54 30 95.5t54 70.5t72 44t84 15q46 0 82 -14
t60.5 -38t37.5 -57t13 -72q0 -58 -25 -95t-60 -65q-12 -9 -4 -18q20 -25 28 -52t8 -60q0 -56 -20.5 -102.5t-55 -79.5t-80.5 -51t-97 -18q-46 0 -86.5 17t-68.5 48t-40 72.5t0 91.5q2 8 9.5 14t15.5 6h96q8 0 12.5 -6t2.5 -14q-12 -46 8 -69.5t60 -23.5z" />
    <glyph glyph-name="four" unicode="4" 
d="M464 251q8 0 13 -6t3 -14l-18 -86q-2 -8 -9 -14t-15 -6h-37q-10 0 -12 -10l-21 -95q-2 -8 -9 -14t-15 -6h-90q-8 0 -13 6t-3 14l21 95q2 10 -8 10h-235q-8 0 -12.5 6t-2.5 14l18 96q2 11 9 19.5t15 18.5l319 407q6 8 11 11t13 3h107q8 0 13 -6t3 -14l-89 -419
q-2 -10 7 -10h37zM169 263q-9 -12 3 -12h110q10 0 13 10l52 218q2 5 -3 6t-8 -3z" />
    <glyph glyph-name="five" unicode="5" 
d="M256 564q-10 0 -12 -10l-20 -93q-2 -10 3.5 -12t13.5 3q11 7 28 12t28 5q40 0 73 -14t57 -40.5t37 -64t13 -83.5q0 -58 -21 -108.5t-56 -88t-82.5 -59.5t-99.5 -22q-44 0 -84 12t-68.5 37t-42 62t-4.5 88q5 20 24 20h94q8 0 13 -6t3 -14q-4 -17 1 -29t16 -19.5t26 -11
t31 -3.5q25 0 46.5 11.5t36.5 30.5t23.5 43.5t8.5 49.5q0 37 -21 60t-54 23q-22 0 -36.5 -7t-25.5 -19q-6 -7 -11.5 -12t-19.5 -5h-97q-8 0 -13 6t-3 14l77 360q2 8 9 14t15 6h356q8 0 13 -6t3 -14l-21 -96q-2 -8 -9 -14t-15 -6h-233z" />
    <glyph glyph-name="six" unicode="6" 
d="M298 466q44 0 77 -16t55 -42.5t33 -61.5t11 -73q0 -61 -21 -113t-56.5 -90t-82 -59.5t-97.5 -21.5q-46 0 -81.5 16t-60 45t-37 69t-12.5 87q0 34 3.5 73.5t11 81.5t19.5 84t29 81t40 73t52 58.5t65 39t79 14.5q44 0 82 -16t65 -42.5t40 -62t9 -74.5q-1 -8 -8.5 -14
t-15.5 -6h-85q-24 0 -24 20q-1 25 -17 44.5t-54 19.5q-34 0 -59 -17.5t-40 -48.5q-10 -21 -16 -51q-2 -11 4 -14.5t16 1.5q11 5 32 10.5t44 5.5zM154 206q0 -39 16 -62.5t55 -23.5q31 0 52.5 13.5t35.5 34t20.5 45t6.5 47.5q0 75 -70 75q-27 0 -48.5 -11t-36.5 -29.5
t-23 -41.5t-8 -47z" />
    <glyph glyph-name="seven" unicode="7" 
d="M371 555q2 4 1 7t-6 3h-255q-8 0 -13 6t-3 14l21 95q2 8 9 14t15 6h394q8 0 13 -6t3 -14l-26 -120q-1 -5 -3 -9t-6 -11l-300 -525q-8 -15 -22 -15h-117q-14 0 -15.5 8.5t2.5 15.5z" />
    <glyph glyph-name="eight" unicode="8" 
d="M228 120q25 0 46 8.5t36 23t23.5 34t8.5 40.5q0 37 -22.5 54.5t-54.5 17.5q-22 0 -43 -8t-38 -22t-27.5 -33.5t-10.5 -41.5q0 -32 21 -52.5t61 -20.5zM290 420q21 0 39.5 7t33 19.5t23 30t8.5 37.5q0 32 -20 50t-52 18q-20 0 -39 -7.5t-33 -21t-22.5 -31t-8.5 -37.5
q0 -31 19.5 -48t51.5 -17zM117 371q7 5 7.5 9t-4.5 13q-13 25 -22 48t-9 53q0 40 18 79t50 69.5t76 49.5t95 19q44 0 80.5 -14t63 -39t41 -59.5t14.5 -75.5q0 -31 -8 -55t-19.5 -42.5t-25 -32t-25.5 -23.5q-9 -8 -8.5 -11.5t4.5 -10.5q14 -24 23 -47t9 -61
q0 -54 -19.5 -99.5t-53.5 -79.5t-81 -53t-101 -19q-45 0 -83.5 13.5t-66.5 39t-44 61t-16 79.5q0 61 29 108t76 81z" />
    <glyph glyph-name="nine" unicode="9" 
d="M395 507q0 76 -67 76q-28 0 -49.5 -14t-35.5 -35.5t-21.5 -48t-7.5 -50.5q0 -69 62 -69q29 0 51 13t37 33t23 45.5t8 49.5zM223 120q35 0 62.5 13.5t46.5 46.5q13 24 20 54q2 10 -1.5 17t-18.5 2q-6 -2 -15.5 -4.5t-21.5 -5t-24.5 -4t-23.5 -1.5q-39 0 -70.5 13t-54 36.5
t-34.5 55t-12 68.5q0 56 16.5 110t49.5 96t82 68t114 26q47 0 82 -16t58 -45t34.5 -69t11.5 -87q0 -37 -5 -82t-13.5 -89.5t-19 -85.5t-22.5 -71q-14 -35 -37.5 -67t-55 -56.5t-71 -39t-85.5 -14.5q-44 0 -83 15t-67 41.5t-41 62.5t-4 78q2 8 9 14t15 6h81q24 0 24 -20
q0 -26 16.5 -46t57.5 -20z" />
    <glyph glyph-name="colon" unicode=":" 
d="M306 20q-2 -8 -9.5 -14t-15.5 -6h-120q-8 0 -12.5 6t-2.5 14l25 120q2 8 9 14t15 6h120q8 0 13 -6t3 -14zM378 360q-2 -8 -9 -14t-15 -6h-120q-8 0 -13 6t-3 14l25 120q2 8 9.5 14t15.5 6h120q8 0 12.5 -6t2.5 -14z" />
    <glyph glyph-name="semicolon" unicode=";" 
d="M396 360q-2 -8 -9 -14t-15 -6h-120q-8 0 -13 6t-3 14l25 120q2 8 9.5 14t15.5 6h120q8 0 12.5 -6t2.5 -14zM179 0q-8 0 -12.5 6t-2.5 14l25 120q2 8 9 14t15 6h120q8 0 13 -6t3 -14l-25 -117q-4 -20 -14 -38t-22 -31l-82 -84q-6 -7 -14.5 -13.5t-23.5 -6.5h-20
q-15 0 -19 12t6 26l75 99q4 5 1 9t-8 4h-24z" />
    <glyph glyph-name="less" unicode="&#x3c;" 
d="M415 136q13 -7 10 -21l-21 -97q-2 -12 -11.5 -17.5t-15.5 -1.5l-319 204q-6 4 -8.5 11t0.5 21l6 29q3 14 8.5 21t13.5 11l405 203q8 4 14.5 -1.5t4.5 -17.5l-23 -113q-3 -12 -20 -21l-223 -101q-3 -2 -3.5 -4.5t1.5 -3.5z" />
    <glyph glyph-name="equal" unicode="=" 
d="M83 286q-8 0 -13 6t-3 14l18 87q2 8 9.5 14t15.5 6h400q8 0 12.5 -6t2.5 -14l-18 -87q-2 -8 -9 -14t-15 -6h-400zM40 87q-8 0 -12.5 6t-2.5 14l18 87q2 8 9 14t15 6h400q8 0 13 -6t3 -14l-18 -87q-2 -8 -9.5 -14t-15.5 -6h-400z" />
    <glyph glyph-name="greater" unicode="&#x3e;" 
d="M315 255q10 4 2 8l-181 101q-13 7 -10 21l20 96q3 12 12 17.5t15 1.5l319 -203q6 -4 8.5 -11t-0.5 -21l-6 -29q-3 -14 -8.5 -21t-13.5 -11l-405 -204q-8 -4 -14.5 1.5t-4.5 17.5l24 114q3 13 20 21z" />
    <glyph glyph-name="question" unicode="?" 
d="M247 20q-2 -8 -9 -14t-15 -6h-120q-8 0 -13 6t-3 14l25 120q2 8 9.5 14t15.5 6h120q8 0 12.5 -6t2.5 -14zM345 524q0 25 -18 40.5t-48 15.5q-41 0 -59.5 -27t-23.5 -67q-1 -11 -14.5 -16t-32.5 -6t-39 0t-34 1q-8 0 -12 6t-4 14q0 49 18 91t49 73t72.5 48.5t89.5 17.5
q39 0 75 -12t64 -34t44.5 -54.5t16.5 -72.5t-12.5 -71t-32 -55t-43.5 -42.5t-46 -34.5t-39 -31t-23 -31l-4 -14t-4 -16l-2 -10q-2 -8 -9 -14t-15 -6h-100q-8 0 -13 6t-3 14l2 10q3 12 6 27t8.5 31.5t15 33.5t24.5 32q24 24 49.5 39.5t47 30.5t35.5 34t14 49z" />
    <glyph glyph-name="at" unicode="@" 
d="M220 40q29 0 61.5 5t58.5 16q11 5 17 0t4 -15l-10 -46q-2 -12 -10.5 -17.5t-19.5 -10.5q-17 -9 -44.5 -15.5t-56.5 -6.5q-51 0 -96.5 15t-76 46t-43.5 77.5t0 109.5l31 144q11 53 38 98.5t66 78.5t87.5 52t102.5 19q47 0 92 -13.5t77.5 -41.5t47.5 -71t2 -102l-30 -142
q-11 -53 -41.5 -86.5t-78.5 -33.5q-14 0 -22.5 3t-15 7t-12 7t-11.5 3q-10 0 -20 -4t-21 -8q-12 -5 -25.5 -7.5t-27.5 -2.5q-56 0 -78 28.5t-22 75.5q0 38 9.5 81t30 79t53.5 60t80 24q28 0 49 -9t34.5 -24t18 -36t-0.5 -45l-24 -110q-5 -22 15 -22t25 22l30 140
q7 36 -1.5 62t-28 43t-47.5 25t-59 8q-77 0 -131.5 -42.5t-69.5 -115.5l-31 -144q-9 -44 -0.5 -74.5t27.5 -49t45.5 -26.5t52.5 -8zM332 326q3 14 -5.5 23t-29.5 9t-34.5 -14t-22 -35t-11.5 -44.5t-3 -41.5q0 -15 7 -26t28 -11t33.5 9t14.5 23z" />
    <glyph glyph-name="A" unicode="A" 
d="M90 15q-7 -15 -22 -15h-110q-12 0 -15.5 6.5t-0.5 13.5l320 665q7 15 22 15h134q16 0 16 -15l36 -665q0 -7 -6 -13.5t-18 -6.5h-99q-16 0 -16 15l-4 103q0 6 -2.5 10.5t-9.5 4.5h-157q-11 0 -18 -15zM211 284q-4 -11 6 -11h97q10 0 10 11v240q0 4 -4 4h-2q-5 0 -6 -4z
" />
    <glyph glyph-name="B" unicode="B" 
d="M473 370q-13 -9 -4 -18q16 -17 25 -44t9 -58q0 -51 -17.5 -96.5t-50.5 -79.5t-80.5 -54t-106.5 -20h-236q-8 0 -13 6t-3 14l141 660q2 8 9 14t15 6h236q36 0 65.5 -12t50.5 -33t32 -50.5t11 -64.5q0 -57 -24 -98.5t-59 -71.5zM258 560q-10 0 -12 -10l-23 -109
q-2 -10 8 -10h109q35 0 55.5 23t20.5 56q0 21 -13 35.5t-36 14.5h-109zM278 140q17 0 32 7t26.5 19t18 28.5t6.5 35.5q0 25 -12 43t-39 18h-109q-10 0 -12 -10l-28 -131q-2 -10 8 -10h109z" />
    <glyph glyph-name="C" unicode="C" 
d="M481 205q-11 -45 -33.5 -84.5t-55.5 -69t-77 -46t-98 -16.5q-56 0 -98 17.5t-68.5 48t-38 70.5t-6.5 85q3 31 8.5 67t13.5 73t17 72.5t20 67.5q15 45 36.5 85t52.5 70.5t74 48t102 17.5q52 0 94.5 -17.5t71 -47t41 -68.5t5.5 -83q-5 -30 -37 -30h-81q-14 0 -20 7t-4 18
q4 33 -12 56.5t-68 23.5q-46 0 -74.5 -23.5t-39.5 -56.5q-11 -32 -20 -67.5t-17 -72.5t-13.5 -73t-8.5 -67q-4 -33 15 -56.5t65 -23.5q49 0 76 23.5t38 56.5q3 11 12 18t23 7h81q31 0 24 -30z" />
    <glyph glyph-name="D" unicode="D" 
d="M249 560q-15 0 -18 -15l-83 -390q-3 -15 12 -15h63q49 0 76 18.5t38 51.5q10 31 19.5 67t17.5 73t13.5 72.5t8.5 67.5q4 33 -15 51.5t-65 18.5h-67zM326 700q53 0 94 -16t68.5 -44t40 -66.5t8.5 -83.5q-3 -32 -8.5 -67.5t-13.5 -72.5t-17.5 -73t-19.5 -67
q-15 -45 -36.5 -83.5t-52.5 -66.5t-74.5 -44t-101.5 -16h-208q-13 0 -19.5 8.5t-3.5 21.5l136 640q2 13 12.5 21.5t23.5 8.5h172z" />
    <glyph glyph-name="E" unicode="E" 
d="M229 430q-2 -10 7 -10h245q8 0 13 -6t3 -14l-21 -100q-2 -8 -9 -14t-15 -6h-245q-11 0 -13 -10l-25 -120q-2 -10 8 -10h257q8 0 13 -6t3 -14l-22 -100q-2 -8 -9 -14t-15 -6h-387q-8 0 -12.5 6t-2.5 14l140 660q2 8 9 14t15 6h383q8 0 13 -6t3 -14l-22 -100q-2 -8 -9 -14
t-15 -6h-253q-10 0 -12 -10z" />
    <glyph glyph-name="F" unicode="F" 
d="M149 20q-2 -8 -9 -14t-15 -6h-100q-8 0 -12.5 6t-2.5 14l140 660q2 8 9 14t15 6h370q8 0 13 -6t3 -14l-22 -100q-2 -8 -9 -14t-15 -6h-240q-10 0 -12 -10l-25 -120q-2 -10 7 -10h230q8 0 13 -6t3 -14l-21 -100q-2 -8 -9 -14t-15 -6h-230q-11 0 -13 -10z" />
    <glyph glyph-name="G" unicode="G" 
d="M354 251q2 10 -7 10h-68q-8 0 -13 6t-3 14l20 95q2 8 9 14t15 6h195q8 0 13 -6t3 -14l-37 -171q-10 -46 -32 -85.5t-55.5 -68.5t-78 -45.5t-98.5 -16.5q-56 0 -98 17.5t-68.5 48t-38 70.5t-6.5 85q3 31 8.5 67t13.5 73t17 72.5t20 67.5q15 45 37 85t53.5 70.5t74.5 48
t100 17.5q52 0 94.5 -17.5t71 -47t41 -68.5t5.5 -83q-5 -30 -37 -30h-81q-14 0 -20 7t-4 18q4 33 -12 56.5t-68 23.5q-46 0 -74.5 -23.5t-39.5 -56.5q-11 -32 -20 -67.5t-17 -72.5t-13.5 -73t-8.5 -67q-4 -33 15 -56.5t65 -23.5q54 0 82 23.5t36 56.5z" />
    <glyph glyph-name="H" unicode="H" 
d="M206 430q-2 -10 7 -10h152q11 0 13 10l53 250q2 8 9 14t15 6h100q8 0 13 -6t3 -14l-141 -660q-2 -8 -9 -14t-15 -6h-100q-8 0 -13 6t-3 14l53 250q2 10 -7 10h-152q-11 0 -13 -10l-53 -250q-2 -8 -11.5 -14t-17.5 -6h-95q-8 0 -12.5 6t-2.5 14l140 660q2 8 9 14t15 6h100
q8 0 13 -6t3 -14z" />
    <glyph glyph-name="I" unicode="I" 
d="M258 555q2 10 -8 10h-100q-8 0 -13 6t-3 14l21 95q2 8 9 14t15 6h360q8 0 13 -6t3 -14l-21 -95q-2 -8 -9 -14t-15 -6h-100q-10 0 -12 -10l-87 -410q-2 -10 8 -10h110q8 0 13 -6t3 -14l-21 -95q-2 -8 -9 -14t-15 -6h-380q-8 0 -12.5 6t-2.5 14l20 95q2 8 9 14t15 6h110
q10 0 12 10z" />
    <glyph glyph-name="J" unicode="J" 
d="M124 211q-7 -34 12 -57.5t65 -23.5q27 0 46 8t32.5 21.5t21 31.5t12.5 39l95 450q2 8 9 14t15 6h101q8 0 13 -6t3 -14l-100 -469q-10 -46 -30.5 -86.5t-52 -70.5t-73 -47.5t-92.5 -17.5q-55 0 -99 17.5t-73 47.5t-41 70.5t-2 86.5l6 28q2 8 9 14t15 6h98q8 0 13 -6t3 -14
z" />
    <glyph glyph-name="K" unicode="K" 
d="M456 690q3 3 8 6.5t16 3.5h100q14 0 19 -12.5t-6 -23.5l-272 -291q-9 -10 -10.5 -17t3.5 -16l144 -302q6 -13 -1 -25.5t-28 -12.5h-92q-11 0 -14.5 4t-5.5 8l-119 273q-2 3 -6 2.5t-5 -5.5l-56 -262q-2 -8 -9 -14t-15 -6h-99q-8 0 -13 6t-3 14l141 660q2 8 9 14t15 6h99
q8 0 13 -6t3 -14l-49 -230q-1 -5 2.5 -5.5t6.5 2.5z" />
    <glyph glyph-name="L" unicode="L" 
d="M201 150q-2 -10 8 -10h270q8 0 13 -6t3 -14l-22 -100q-2 -8 -9 -14t-15 -6h-400q-8 0 -12.5 6t-2.5 14l140 660q2 8 9 14t15 6h100q8 0 13 -6t3 -14z" />
    <glyph glyph-name="M" unicode="M" 
d="M295 488q1 -8 7.5 -8t10.5 8l97 195q8 17 25 17h141q8 0 13 -6t3 -14l-141 -660q-2 -8 -9 -14t-15 -6h-98q-8 0 -13 6t-3 14l85 396q1 4 -2.5 4.5t-5.5 -3.5l-79 -150q-9 -17 -25 -17h-59q-16 0 -17 17l-16 150q-1 4 -4 3.5t-4 -4.5l-85 -396q-2 -8 -9 -14t-15 -6h-97
q-8 0 -13 6t-3 14l140 660q2 8 9 14t15 6h135q17 0 17 -17z" />
    <glyph glyph-name="N" unicode="N" 
d="M340 302q1 -5 5 -4t5 6l80 376q2 8 9 14t15 6h100q8 0 13 -6t3 -14l-141 -660q-2 -8 -9 -14t-15 -6h-108q-13 0 -17.5 5.5t-5.5 11.5l-72 351q-1 5 -4.5 4t-4.5 -6l-74 -346q-2 -8 -9 -14t-15 -6h-100q-8 0 -12.5 6t-2.5 14l140 660q2 8 9 14t15 6h109q11 0 15.5 -5.5
t5.5 -12.5z" />
    <glyph glyph-name="O" unicode="O" 
d="M321 570q-46 0 -74.5 -23.5t-39.5 -56.5q-11 -32 -20 -67.5t-17 -72.5t-13.5 -73t-8.5 -67q-4 -33 15 -56.5t65 -23.5q49 0 76 23.5t38 56.5q10 31 19.5 67t17.5 73t13.5 72.5t8.5 67.5q4 33 -15 56.5t-65 23.5zM331 711q53 0 94 -17.5t68.5 -48t40 -70.5t8.5 -85
q-3 -32 -8.5 -67.5t-13.5 -72.5t-17.5 -73t-19.5 -67q-15 -45 -36.5 -85t-52.5 -70.5t-74.5 -48t-101.5 -17.5q-56 0 -98 17.5t-68.5 48t-38 70.5t-6.5 85q3 31 8.5 67t13.5 73t17 72.5t20 67.5q15 45 36.5 85t52.5 70.5t74 48t102 17.5z" />
    <glyph glyph-name="P" unicode="P" 
d="M138 20q-2 -8 -9 -14t-15 -6h-100q-8 0 -13 6t-3 14l141 660q2 8 9 14t15 6h210q38 0 71 -13.5t57 -36.5t38 -54t14 -66q0 -61 -21.5 -107.5t-57.5 -78t-82.5 -48t-97.5 -16.5h-90q-11 0 -13 -10zM263 560q-10 0 -12 -10l-25 -120q-2 -10 7 -10h90q18 0 33.5 6.5t27 17.5
t18.5 25.5t7 31.5q0 25 -13 42t-43 17h-90z" />
    <glyph glyph-name="Q" unicode="Q" 
d="M321 570q-46 0 -74.5 -23.5t-39.5 -56.5q-11 -32 -20 -67.5t-17 -72.5t-13.5 -73t-8.5 -67q-4 -33 15 -56.5t65 -23.5q49 0 76 23.5t38 56.5q10 31 19.5 67t17.5 73t13.5 72.5t8.5 67.5q4 33 -15 56.5t-65 23.5zM404 -51q3 -5 3.5 -11.5t-1.5 -12.5t-9 -10.5t-19 -4.5
h-76q-13 0 -19 7t-11 17l-25 43q-4 7 -7.5 9.5t-11.5 2.5h-10q-56 0 -98 17.5t-68.5 48t-38 70.5t-6.5 85q3 31 8.5 67t13.5 73t17 72.5t20 67.5q15 45 36.5 85t52.5 70.5t74 48t102 17.5q53 0 94 -17.5t68.5 -48t40 -70.5t8.5 -85q-3 -32 -8.5 -67.5t-13.5 -72.5t-17.5 -73
t-19.5 -67q-17 -51 -42 -95.5t-64 -74.5q-6 -5 -9.5 -10t0.5 -12z" />
    <glyph glyph-name="R" unicode="R" 
d="M399 299q-13 -5 -15 -13.5t2 -19.5l86 -236q4 -11 -3 -20.5t-22 -9.5h-95q-12 0 -17 5.5t-8 14.5l-82 247q-1 4 -4 8.5t-11 4.5h-26q-11 0 -13 -10l-53 -250q-2 -8 -9 -14t-15 -6h-100q-8 0 -13 6t-3 14l141 660q2 8 9 14t15 6h210q38 0 71 -13.5t57 -36.5t38 -54t14 -66
q0 -89 -43.5 -146.5t-110.5 -84.5zM263 560q-10 0 -12 -10l-25 -120q-2 -10 7 -10h90q18 0 33.5 6.5t27 17.5t18.5 25.5t7 31.5q0 25 -13 42t-43 17h-90z" />
    <glyph glyph-name="S" unicode="S" 
d="M148 238q-9 -26 -5.5 -46.5t16 -35t31.5 -22.5t41 -8q21 0 40.5 6.5t34.5 18.5t24 29t9 37q0 32 -24.5 48t-73.5 28q-93 22 -134 68.5t-41 123.5q0 50 20.5 91.5t56.5 71.5t84 46.5t103 16.5q43 0 80.5 -13.5t65.5 -37.5t43.5 -57t14.5 -72q0 -8 -1 -19.5t-4.5 -22
t-9.5 -17.5t-16 -7h-101q-8 0 -13 6t-3 14l3 15q7 30 -11.5 52.5t-61.5 22.5q-48 0 -75.5 -22t-27.5 -53q0 -21 10 -33.5t25.5 -20.5t35 -13t37.5 -11q37 -11 68 -27t53 -37.5t34 -50.5t12 -67q0 -52 -19 -97.5t-53.5 -79.5t-83.5 -54t-109 -20q-53 0 -96.5 15t-74 41.5
t-45.5 64t-10 82.5q1 8 3 19.5t5.5 22t9.5 17.5t16 7h101q8 0 13.5 -6t2.5 -14z" />
    <glyph glyph-name="T" unicode="T" 
d="M85 560q-8 0 -13 6t-3 14l22 100q2 8 9 14t15 6h450q8 0 13 -6t3 -14l-22 -100q-2 -8 -9 -14t-15 -6h-140q-10 0 -12 -10l-113 -530q-2 -8 -9 -14t-15 -6h-100q-8 0 -13 6t-3 14l113 530q2 10 -8 10h-150z" />
    <glyph glyph-name="U" unicode="U" 
d="M156 210q-7 -33 13 -56.5t65 -23.5q51 0 79 23.5t35 56.5l100 470q2 8 9 14t15 6h101q8 0 13 -6t3 -14l-100 -470q-10 -45 -31 -85.5t-54 -70.5t-78 -47.5t-102 -17.5q-51 0 -93.5 17.5t-71.5 47.5t-41.5 70.5t-2.5 85.5l100 470q2 8 9 14t15 6h101q8 0 13 -6t3 -14z" />
    <glyph glyph-name="V" unicode="V" 
d="M465 685q7 15 22 15h110q12 0 15 -8t-1 -16l-314 -661q-8 -15 -22 -15h-151q-16 0 -16 15l-22 661q0 8 6 16t18 8h100q16 0 16 -15l10 -469q0 -7 6 -7h6q4 0 8 7z" />
    <glyph glyph-name="W" unicode="W" 
d="M349 285q0 -7 6 -7t8 7l123 400q2 8 8.5 11.5t13.5 3.5h93q12 0 15 -6t1 -14l-213 -665q-2 -8 -8.5 -11.5t-13.5 -3.5h-118q-16 0 -16 15l4 181q0 5 -5 5t-7 -5l-74 -181q-6 -15 -22 -15h-122q-7 0 -12 3.5t-4 11.5l71 665q1 8 6.5 14t17.5 6h93q7 0 12 -3.5t4 -11.5
l-46 -400q-1 -7 5 -7t9 7l78 200q6 15 22 15h60q16 0 16 -15z" />
    <glyph glyph-name="X" unicode="X" 
d="M276 232q-2 6 -5 6h-2q-3 0 -6 -4l-140 -219q-10 -15 -24 -15h-127q-10 0 -13.5 8.5t3.5 19.5l228 329q5 8 6 12t-1 10l-100 293q-4 11 4 19.5t18 8.5h105q12 0 16 -15l65 -195q2 -4 5 -4h2q2 0 5 4l121 195q10 15 22 15h121q10 0 14 -8.5t-4 -19.5l-207 -292
q-5 -8 -5.5 -11.5t1.5 -10.5l121 -330q4 -10 -4 -19t-18 -9h-108q-13 0 -18 15z" />
    <glyph glyph-name="Y" unicode="Y" 
d="M449 685q8 15 22 15h109q10 0 13.5 -8.5t-3.5 -19.5l-272 -446l-44 -206q-2 -8 -9 -14t-15 -6h-100q-8 0 -13 6t-3 14l44 206l-82 446q-2 11 5 19.5t17 8.5h100q13 0 16 -15l43 -277q0 -4 4 -4h2q3 0 6 4z" />
    <glyph glyph-name="Z" unicode="Z" 
d="M179 147q-3 -4 -2 -7t6 -3h263q8 0 13 -6t3 -14l-21 -97q-2 -8 -9 -14t-15 -6h-418q-8 0 -13 6t-3 14l23 109q1 8 8 16l360 408q3 4 2 7t-6 3h-237q-8 0 -13 6t-3 14l21 97q2 8 9 14t15 6h389q8 0 13 -6t3 -14l-25 -116q-1 -8 -8 -16z" />
    <glyph glyph-name="bracketleft" unicode="[" 
d="M197 42q-2 -10 8 -10h130q8 0 13 -6t3 -14l-17 -82q-2 -8 -9.5 -14t-15.5 -6h-242q-8 0 -12 6t-2 14l162 770q2 8 9.5 14t15.5 6h242q8 0 12.5 -6t2.5 -14l-17 -82q-2 -8 -9 -14t-15 -6h-130q-10 0 -12 -10z" />
    <glyph glyph-name="backslash" unicode="\" 
d="M152 682q-2 11 5 19.5t17 8.5h85q13 0 16 -15l122 -679q2 -11 -5 -19.5t-17 -8.5h-85q-15 0 -18 15z" />
    <glyph glyph-name="bracketright" unicode="]" 
d="M342 588q2 10 -8 10h-130q-8 0 -13 6t-3 14l17 82q2 8 9.5 14t15.5 6h242q8 0 12.5 -6t2.5 -14l-163 -770q-2 -8 -9.5 -14t-15.5 -6h-241q-8 0 -12.5 6t-2.5 14l17 82q2 8 9 14t15 6h129q10 0 12 10z" />
    <glyph glyph-name="asciicircum" unicode="^" 
d="M233 586q-5 -5 -14.5 -10.5t-20.5 -5.5h-95q-12 0 -11 10t6 15l145 123q5 5 12 8.5t21 3.5h62q13 0 17.5 -3.5t8.5 -8.5l93 -123q4 -5 -0.5 -15t-18.5 -10h-85q-11 0 -17.5 5.5t-9.5 10.5l-30 44q-6 7 -14 0z" />
    <glyph glyph-name="underscore" unicode="_" 
d="M564 0q8 0 13 -6t3 -14l-13 -59q-2 -8 -9 -14t-15 -6h-557q-8 0 -13 6t-3 14l13 59q2 8 9 14t15 6h557z" />
    <glyph glyph-name="grave" unicode="`" 
d="M295 730q11 0 15.5 -5.5t6.5 -10.5l58 -114q6 -12 -2 -21t-18 -9h-63q-14 0 -18.5 3.5t-8.5 8.5l-89 121q-7 9 -1.5 18t19.5 9h101z" />
    <glyph glyph-name="a" unicode="a" 
d="M339 304q0 34 -16 55t-51 21t-57.5 -18t-36 -44t-19 -57t-5.5 -56q0 -41 17.5 -63t49.5 -22q33 0 55.5 18t36.5 45.5t20 59.5t6 61zM183 -10q-33 0 -63 14.5t-52.5 40t-35.5 61.5t-13 80q0 64 17.5 122.5t50 103t78.5 71t104 26.5q37 0 61 -14.5t37 -31.5q4 -5 7 -9t8 -4
q6 0 10 8l12 29q6 13 15 13h74q8 0 13 -6t3 -14l-99 -460q-2 -8 -9 -14t-15 -6h-61q-11 0 -13 10q-1 4 -0.5 9.5t0 10t-2.5 7.5t-6 3q-7 0 -14.5 -8t-20.5 -17t-33 -17t-52 -8z" />
    <glyph glyph-name="b" unicode="b" 
d="M242 117q38 0 59.5 16.5t30.5 41.5q5 15 10.5 34.5t9.5 40.5t7 40.5t4 34.5q2 25 -13 41.5t-53 16.5t-58 -14.5t-31 -43.5q-6 -15 -11 -34.5t-9 -40.5t-7 -40.5t-4 -34.5q-2 -26 12.5 -42t52.5 -16zM126 23q-10 0 -16.5 -5.5t-11.5 -10.5q-6 -7 -15 -7h-50q-8 0 -13 6
t-3 14l143 670q2 8 8.5 14t15.5 6h90q9 0 13.5 -6t2.5 -14l-36 -170q-4 -17 4.5 -21.5t20.5 0.5q10 4 25.5 7.5t30.5 3.5q38 1 69 -14t52 -40.5t30.5 -59.5t6.5 -71q-1 -15 -4 -34.5t-7 -40.5t-8.5 -40.5t-9.5 -34.5q-14 -39 -32 -73t-44.5 -59t-61.5 -39.5t-81 -14.5
q-28 0 -46 5.5t-30.5 11.5t-22 11.5t-20.5 5.5z" />
    <glyph glyph-name="c" unicode="c" 
d="M231 117q38 0 60 16.5t30 41.5q10 30 37 30h72q32 0 23 -30q-12 -40 -30 -74t-45.5 -59t-65.5 -39t-88 -14q-46 0 -82.5 14t-60.5 39t-35.5 59t-8.5 73q1 15 3.5 35t6.5 40.5t8.5 40.5t9.5 35q13 39 31 73t44.5 59t63.5 39.5t90 14.5q46 0 83.5 -14.5t62.5 -39.5
t36.5 -59t5.5 -73q-5 -30 -36 -30h-69q-30 0 -25 30q4 26 -12 42t-54 16t-58 -14.5t-31 -43.5q-6 -15 -11 -34.5t-9 -40.5t-7 -40.5t-4 -34.5q-2 -26 12.5 -42t52.5 -16z" />
    <glyph glyph-name="d" unicode="d" 
d="M219 117q38 0 59.5 16.5t30.5 41.5q5 15 10.5 34.5t9.5 40.5t7 40.5t4 34.5q2 25 -13 41.5t-53 16.5t-58 -14.5t-31 -43.5q-6 -15 -11 -34.5t-9 -40.5t-7 -40.5t-4 -34.5q-2 -26 12.5 -42t52.5 -16zM293 23q-10 0 -19.5 -5t-21.5 -11.5t-28.5 -11.5t-40.5 -5
q-42 0 -73.5 15t-51.5 40t-28.5 58.5t-5.5 71.5q1 15 4 34.5t7 40.5t8.5 40.5t9.5 34.5q13 39 34 73t48 59t61 39.5t75 14.5q20 0 32.5 -3t20.5 -7l14 -7t14 -3q11 0 16.5 5.5t7.5 14.5l41 179q2 8 7.5 14t16.5 6h88q11 0 14.5 -6t1.5 -14l-143 -670q-2 -8 -9 -14t-15 -6
h-50q-10 0 -13 7q-3 6 -7 11t-15 5z" />
    <glyph glyph-name="e" unicode="e" 
d="M156 195q-9 -42 12.5 -63.5t57.5 -21.5q29 0 51.5 8.5t36.5 33.5q5 10 12 13.5t14 3.5h83q8 0 12.5 -4.5t0.5 -15.5q-26 -71 -79.5 -115.5t-136.5 -44.5q-50 0 -87 14.5t-60 39.5t-33 59t-7 73q1 15 4 34.5t7.5 40.5t9.5 40.5t10 34.5q13 39 34 73t49.5 59t64 39.5
t79.5 14.5q45 0 83 -13t63.5 -38.5t35.5 -62t0 -84.5l-18 -83q-2 -8 -9 -14t-15 -6h-257q-15 0 -18 -15zM186 330q-3 -9 8 -9h152q9 0 12 9q16 63 -72 63q-43 0 -67.5 -17.5t-32.5 -45.5z" />
    <glyph glyph-name="f" unicode="f" 
d="M69 377q-8 0 -13 6t-3 14l17 80q2 8 9.5 14t15.5 6h110q10 0 12 10l4 20q19 93 67 138t142 45h110q8 0 13 -6t3 -14l-19 -90q-2 -8 -9.5 -14t-15.5 -6h-90q-34 0 -50 -15t-21 -40l-4 -18q-2 -10 8 -10h150q8 0 12.5 -6t2.5 -14l-17 -80q-2 -8 -9 -14t-15 -6h-150
q-10 0 -12 -10l-74 -347q-2 -8 -9 -14t-15 -6h-90q-8 0 -13 6t-3 14l74 347q2 10 -8 10h-110z" />
    <glyph glyph-name="g" unicode="g" 
d="M271 -47q9 16 9 37q0 14 -10.5 15t-22.5 -4q-10 -4 -25.5 -7.5t-30.5 -3.5q-38 -1 -69 14t-52 40.5t-30.5 59.5t-6.5 71q1 15 4 34.5t7 40.5t8.5 40.5t9.5 34.5q13 39 31.5 73t45 59t61 39.5t81.5 14.5q28 0 46 -5.5t30.5 -11.5t22 -11.5t20.5 -5.5q10 0 16.5 5.5
t11.5 10.5q6 7 15 7h50q8 0 13 -6t3 -14l-109 -510q-21 -98 -78 -141.5t-142 -43.5q-97 0 -142 46.5t-36 118.5q1 8 8.5 14t15.5 6h75q18 0 19.5 -6.5t1.5 -16.5q0 -18 11.5 -30.5t49.5 -12.5q27 0 51.5 13t36.5 36zM229 117q38 0 58 14.5t31 43.5q6 15 11 34.5t9 40.5
t7 40.5t4 34.5q2 26 -12.5 42t-52.5 16t-59.5 -16.5t-30.5 -41.5q-5 -15 -10.5 -34.5t-9.5 -40.5t-7 -40.5t-4 -34.5q-2 -25 13 -41.5t53 -16.5z" />
    <glyph glyph-name="h" unicode="h" 
d="M51 0q-8 0 -12.5 6t-2.5 14l142 670q2 8 9 14t15 6h90q8 0 13 -6t3 -14l-36 -170q-3 -13 3.5 -19.5t21.5 -1.5q11 4 25.5 8t37.5 4q39 0 70.5 -14.5t52 -39.5t28 -59t-0.5 -73l-65 -305q-2 -8 -9 -14t-15 -6h-90q-8 0 -13 6t-3 14l65 305q5 25 -10.5 42.5t-51.5 17.5
t-59.5 -17.5t-28.5 -42.5l-65 -305q-2 -8 -9 -14t-15 -6h-90z" />
    <glyph glyph-name="i" unicode="i" 
d="M415 586q-4 -16 -20 -16h-108q-16 0 -12 16l23 108q2 6 7 11t12 5h108q7 0 11 -5t2 -11zM123 373q-8 0 -12.5 6t-2.5 14l18 87q2 8 9 14t15 6h224q7 0 11 -5t2 -11l-73 -344q-2 -10 8 -10h110q8 0 12.5 -6t2.5 -14l-19 -90q-2 -8 -9 -14t-15 -6h-370q-8 0 -13 6t-3 14
l19 90q2 8 9.5 14t15.5 6h110q10 0 12 10l47 223q2 10 -8 10h-100z" />
    <glyph glyph-name="j" unicode="j" 
d="M471 586q-4 -16 -19 -16h-108q-7 0 -11 4.5t-2 11.5l23 108q2 6 7 11t12 5h108q7 0 11 -5t2 -11zM334 -32q-8 -39 -27 -72t-46 -56.5t-61.5 -37t-73.5 -13.5t-73.5 13.5t-59 38t-35.5 57.5t-3 72q2 8 8.5 14t14.5 6h90q8 0 13 -6t3 -14q-5 -25 9.5 -38t39.5 -13
q35 0 53.5 23t23.5 48l77 371q2 10 -8 10h-120q-8 0 -12.5 6t-2.5 14l18 89q2 8 9.5 14t15.5 6h244q7 0 10.5 -5t1.5 -11z" />
    <glyph glyph-name="k" unicode="k" 
d="M207 188q-2 3 -6 2.5t-5 -5.5l-35 -165q-2 -8 -9 -14t-15 -6h-90q-8 0 -13 6t-3 14l143 670q2 8 9 14t15 6h90q8 0 13 -6t3 -14l-72 -343q-1 -5 2.5 -5.5t6.5 2.5l136 143q4 5 10 9t17 4h94q16 0 19.5 -11t-4.5 -20l-193 -200q-8 -8 -9.5 -14t4.5 -16l135 -206
q7 -10 0.5 -21.5t-23.5 -11.5h-89q-11 0 -15.5 5.5t-7.5 9.5z" />
    <glyph glyph-name="l" unicode="l" 
d="M168 583q-8 0 -13 6t-3 14l19 87q2 8 9 14t15 6h224q7 0 11 -5t2 -11l-118 -554q-2 -10 8 -10h120q8 0 12.5 -6t2.5 -14l-19 -90q-2 -8 -9 -14t-15 -6h-380q-8 0 -13 6t-3 14l19 90q2 8 9.5 14t15.5 6h110q10 0 12 10l92 433q2 10 -8 10h-100z" />
    <glyph glyph-name="m" unicode="m" 
d="M335 484q12 8 21.5 13t19.5 8t21.5 4t25.5 1q34 0 58 -13t37.5 -34.5t16.5 -50.5t-4 -62l-70 -330q-2 -8 -9.5 -14t-15.5 -6h-80q-8 0 -12.5 6t-2.5 14l72 340q3 14 -4 24.5t-26 10.5q-14 0 -25.5 -10.5t-14.5 -24.5l-72 -340q-2 -8 -9.5 -14t-15.5 -6h-75q-8 0 -12.5 6
t-2.5 14l72 340q3 14 -3.5 24.5t-26.5 10.5q-14 0 -25.5 -10.5t-14.5 -24.5l-72 -340q-2 -8 -9.5 -14t-15.5 -6h-79q-8 0 -12.5 6t-2.5 14l96 460q2 8 9.5 14t15.5 6h30q9 0 11.5 -3t4.5 -7t4.5 -7t12.5 -3q6 0 13 4.5t16.5 10.5t22.5 10.5t32 4.5q20 0 38.5 -4.5
t36.5 -20.5q7 -6 13 -6q5 0 12 5z" />
    <glyph glyph-name="n" unicode="n" 
d="M222 476q11 0 21.5 5.5t23.5 12t29 12t39 5.5q39 0 71 -14.5t52 -39.5t28 -59t-1 -73l-65 -305q-2 -8 -9 -14t-15 -6h-90q-8 0 -13 6t-3 14l65 306q5 25 -10.5 42t-51.5 17q-35 0 -58.5 -16t-28.5 -39l-66 -310q-2 -8 -9 -14t-15 -6h-90q-8 0 -13 6t-3 14l98 460
q2 8 9 14t15 6h50q9 0 13.5 -3.5t7.5 -8.5t7 -8.5t12 -3.5z" />
    <glyph glyph-name="o" unicode="o" 
d="M295 511q46 0 82.5 -14.5t61 -39.5t36 -59t8.5 -73q-1 -15 -4 -34.5t-7 -40.5t-8.5 -40.5t-9.5 -34.5q-14 -39 -32.5 -73t-45.5 -59t-64 -39.5t-87 -14.5q-46 0 -82.5 14.5t-61 39.5t-36 59t-8.5 73q1 15 4 34.5t7 40.5t8.5 40.5t9.5 34.5q13 39 32.5 73t46.5 59t64 39.5
t86 14.5zM232 117q38 0 59.5 16.5t30.5 41.5q5 15 10.5 34.5t9.5 40.5t7 40.5t4 34.5q2 25 -13 41.5t-53 16.5t-58 -14.5t-31 -43.5q-6 -15 -11 -34.5t-9 -40.5t-7 -40.5t-4 -34.5q-2 -26 12.5 -42t52.5 -16z" />
    <glyph glyph-name="p" unicode="p" 
d="M299 383q-38 0 -59.5 -16.5t-30.5 -41.5q-5 -15 -10.5 -34.5t-9.5 -40.5t-7 -40.5t-4 -34.5q-2 -25 13 -41.5t53 -16.5t58 14.5t31 43.5q6 15 11 34.5t9 40.5t7 40.5t4 34.5q2 26 -12.5 42t-52.5 16zM225 477q10 0 19.5 5t21.5 11.5t28.5 11.5t40.5 5q42 0 73.5 -15
t51.5 -40t28.5 -59t5.5 -71q-1 -15 -4 -34.5t-7 -40.5t-8.5 -40.5t-9.5 -34.5q-14 -39 -34.5 -73t-47.5 -59t-61.5 -39.5t-74.5 -14.5q-20 0 -32.5 3t-20.5 7t-14.5 7t-13.5 3q-11 0 -16.5 -5.5t-7.5 -14.5l-39 -169q-2 -8 -7.5 -14t-16.5 -6h-88q-11 0 -14.5 6t-1.5 14
l141 660q2 8 9 14t15 6h50q9 0 13 -7q3 -6 7 -11t15 -5z" />
    <glyph glyph-name="q" unicode="q" 
d="M278 383q-38 0 -59.5 -16.5t-30.5 -41.5q-5 -15 -10.5 -34.5t-9.5 -40.5t-7 -40.5t-4 -34.5q-2 -25 13 -41.5t53 -16.5t58 14.5t31 43.5q6 15 11 34.5t9 40.5t7 40.5t4 34.5q2 26 -12.5 42t-52.5 16zM394 477q10 0 16.5 5.5t11.5 10.5q6 7 15 7h50q8 0 13 -6t3 -14
l-141 -660q-2 -8 -8 -14t-16 -6h-90q-10 0 -14 6t-2 14l34 160q4 17 -4.5 21.5t-20.5 -0.5q-10 -4 -25.5 -7.5t-30.5 -3.5q-38 -1 -69 14t-52 40.5t-30.5 59.5t-6.5 71q1 15 4 34.5t7 40.5t8.5 40.5t9.5 34.5q13 39 31.5 73t45 59t61 39.5t81.5 14.5q28 0 46 -5.5
t30.5 -11.5t22 -11.5t20.5 -5.5z" />
    <glyph glyph-name="r" unicode="r" 
d="M379 336q5 25 -14 38t-51 13t-58 -12.5t-34 -47.5l-66 -307q-2 -8 -9 -14t-15 -6h-90q-8 0 -13 6t-3 14l98 460q2 8 9 14t15 6h50q9 0 13 -3.5t7 -7.5q4 -5 8.5 -8.5t15.5 -3.5q12 0 22 5.5t23.5 11.5t32 11.5t46.5 5.5q39 0 69.5 -12.5t49.5 -35.5t25.5 -55.5
t-1.5 -71.5q-2 -8 -9.5 -14t-15.5 -6h-90q-8 0 -12.5 6t-2.5 14z" />
    <glyph glyph-name="s" unicode="s" 
d="M22 154q2 13 10.5 21.5t25.5 8.5h65q18 0 22.5 -6t2.5 -19q-3 -29 19.5 -40.5t57.5 -11.5q20 0 38.5 3.5t32.5 10t22.5 16.5t8.5 23t-11.5 21t-28 12.5t-33.5 7t-29 4.5q-25 4 -52 12.5t-49 24.5t-36 42t-14 66q0 32 17.5 61t47.5 51.5t69 35.5t83 13q39 0 75 -11
t63 -30.5t41 -47.5t7 -62q-4 -19 -11 -24.5t-21 -5.5h-69q-8 0 -14 4.5t-4 20.5q1 25 -20.5 35.5t-49.5 10.5q-34 0 -61.5 -12.5t-27.5 -38.5q0 -12 10.5 -20t25.5 -12.5t31 -7.5t27 -4q19 -3 46 -9t52 -20.5t42.5 -40t17.5 -66.5t-18.5 -74t-50.5 -57t-74 -37t-88 -13
q-43 0 -82 10.5t-66.5 31t-41.5 51.5t-8 72z" />
    <glyph glyph-name="t" unicode="t" 
d="M244 170q-5 -25 9.5 -38t39.5 -13t45.5 13t25.5 38q2 8 9 14t15 6h90q8 0 13 -6t3 -14q-9 -39 -27.5 -72t-46 -57.5t-63 -38t-77.5 -13.5q-37 0 -72 10t-59.5 33t-35 60.5t1.5 91.5l40 183q2 10 -7 10h-98q-8 0 -13 6t-3 14l17 80q2 8 9 14t15 6h98q10 0 12 10l33 153
q2 8 9 14t15 6h90q8 0 13 -6t3 -14l-33 -153q-2 -10 8 -10h170q8 0 13 -6t3 -14l-17 -80q-2 -8 -9 -14t-15 -6h-170q-10 0 -13 -10z" />
    <glyph glyph-name="u" unicode="u" 
d="M302 24q-11 0 -21.5 -5.5t-23.5 -12t-29.5 -12t-38.5 -5.5q-39 0 -71 14.5t-52 39.5t-28 59t1 73l65 305q2 8 9 14t15 6h90q8 0 13 -6t3 -14l-65 -306q-5 -25 10.5 -42t51.5 -17q35 0 58.5 16t28.5 39l66 310q2 8 9 14t15 6h90q8 0 13 -6t3 -14l-98 -460q-2 -8 -9 -14
t-15 -6h-50q-9 0 -13 3.5t-8 8.5q-3 5 -7 8.5t-12 3.5z" />
    <glyph glyph-name="v" unicode="v" 
d="M237 200q1 -5 5.5 -5t6.5 5l160 285q8 15 23 15h101q12 0 15.5 -7.5t-1.5 -15.5l-268 -462q-8 -15 -23 -15h-106q-12 0 -15 15l-74 462q-2 8 5 15.5t19 7.5h96q14 0 15 -15z" />
    <glyph glyph-name="w" unicode="w" 
d="M318 390q15 0 16 -15l5 -150q1 -5 5.5 -4.5t6.5 4.5l88 260q3 8 9.5 11.5t13.5 3.5h94q12 0 14.5 -7.5t-0.5 -15.5l-177 -462q-8 -15 -23 -15h-109q-7 0 -11.5 3.5t-3.5 11.5l-1 153q0 5 -6 5.5t-8 -5.5l-60 -153q-8 -15 -23 -15h-109q-7 0 -11.5 3.5t-3.5 11.5l17 462
q0 8 6 15.5t18 7.5h94q16 0 15 -15l-22 -260q0 -5 5 -4.5t7 4.5l64 150q3 8 9 11.5t13 3.5h68z" />
    <glyph glyph-name="x" unicode="x" 
d="M159 10q-3 -4 -8 -7t-16 -3h-107q-14 0 -16.5 10t7.5 23l168 216q10 11 5 22l-84 196q-5 13 2 23t21 10h87q11 0 14.5 -3t5.5 -7l52 -125q4 -11 12 0l96 125q3 4 8 7t16 3h99q14 0 16.5 -10t-7.5 -23l-160 -196q-6 -7 -6.5 -11.5t1.5 -10.5l96 -216q5 -13 -2 -23t-21 -10
h-94q-11 0 -14.5 3t-5.5 7l-54 142q-5 12 -12 0z" />
    <glyph glyph-name="y" unicode="y" 
d="M255 -53q-17 -31 -40 -58t-53.5 -46.5t-69 -31t-85.5 -11.5h-28q-8 0 -13 6t-3 14l17 79q2 8 9 14t15 6h38q58 0 85 48l24 43q4 7 5 10.5t-1 11.5l-71 445q-2 8 5 15.5t19 7.5h94q15 0 16 -15l36 -284q1 -6 5 -6t7 6l142 284q7 15 22 15h101q12 0 15.5 -7.5t-1.5 -15.5z
" />
    <glyph glyph-name="z" unicode="z" 
d="M318 370q4 4 3 7t-6 3h-202q-8 0 -13 6t-3 14l17 80q2 8 9.5 14t15.5 6h348q8 0 12.5 -6t2.5 -14l-18 -87q-3 -14 -11.5 -23.5t-17.5 -17.5l-250 -222q-4 -4 -3 -7t6 -3h213q8 0 13 -6t3 -14l-17 -80q-2 -8 -9.5 -14t-15.5 -6h-372q-8 0 -12.5 6t-2.5 14l16 83
q2 10 4.5 15.5t13.5 15.5z" />
    <glyph glyph-name="braceleft" unicode="{" 
d="M104 255q2 8 -3 12.5t-11 7.5l-10 5q-7 3 -12.5 7.5t-3.5 12.5l9 40q2 8 9 12.5t15 7.5l12 5q8 3 14 7.5t8 12.5l27 125q9 41 26 79t48 67t78.5 46.5t117.5 17.5h72q8 0 12.5 -6t2.5 -14l-18 -88q-2 -8 -9.5 -14t-15.5 -6h-72q-43 0 -71.5 -17t-39.5 -65l-28 -125
q-3 -13 -10 -23.5t-15 -19t-16 -14t-13 -8.5q4 -3 10 -9t10.5 -14t7 -18.5t-0.5 -23.5l-29 -135q-8 -37 9.5 -59.5t68.5 -22.5h72q8 0 12.5 -6t2.5 -14l-18 -88q-2 -8 -9.5 -14t-15.5 -6h-72q-106 0 -153.5 56t-26.5 154z" />
    <glyph glyph-name="bar" unicode="|" 
d="M257 -50q-2 -8 -9 -14t-15 -6h-85q-8 0 -13 6t-3 14l160 750q2 8 9 14t15 6h85q8 0 13 -6t3 -14z" />
    <glyph glyph-name="braceright" unicode="}" 
d="M390 120q-21 -98 -90 -154t-180 -56h-71q-8 0 -12.5 6t-2.5 14l18 88q2 8 9 14t15 6h72q51 0 77.5 22.5t34.5 59.5l29 135q3 13 9.5 23.5t15 18.5t16.5 14t14 9q-9 6 -21 22.5t-7 42.5l26 125q5 25 0 41t-16.5 25t-28 12.5t-32.5 3.5h-72q-8 0 -12.5 6t-2.5 14l18 88
q2 8 9.5 14t15.5 6h72q48 0 86 -16t62 -44.5t33 -66.5t-1 -83l-27 -125q-2 -8 3 -12.5t11 -7.5l10 -5q7 -3 12.5 -7.5t3.5 -12.5l-9 -40q-2 -8 -9 -12.5t-15 -7.5l-12 -5q-8 -3 -14 -7.5t-8 -12.5z" />
    <glyph glyph-name="asciitilde" unicode="~" 
d="M152 220q-8 0 -21 -2t-25.5 -5.5t-24 -8.5t-16.5 -10q-10 -10 -20.5 -8t-7.5 17l17 80q3 13 15.5 24.5t30.5 19.5t38.5 12.5t39.5 4.5q39 0 63 -7t45 -15.5t45.5 -15.5t65.5 -7q8 0 21 2t25.5 5.5t24 8.5t16.5 10q10 10 20.5 8t7.5 -17l-17 -80q-3 -14 -15.5 -25
t-30.5 -19t-38.5 -12.5t-39.5 -4.5q-39 0 -63 7t-45 15.5t-46 15.5t-65 7z" />
    <glyph glyph-name="exclamdown" unicode="&#xa1;" 
d="M224 267q2 6 7.5 11t12.5 5h108q7 0 10.5 -5t1.5 -11l-95 -451q-2 -6 -7.5 -11t-12.5 -5h-108q-7 0 -10.5 5t-1.5 11zM261 480q2 8 9 14t15 6h119q8 0 13 -6t3 -14l-25 -120q-2 -8 -9 -14t-15 -6h-120q-8 0 -13 6t-3 14z" />
    <glyph glyph-name="cent" unicode="&#xa2;" 
d="M385 499q59 -20 90 -66.5t22 -107.5q-5 -30 -36 -30h-69q-30 0 -25 30q4 26 -12 42t-54 16t-58 -14.5t-31 -43.5q-6 -15 -11 -34.5t-9 -40.5t-7 -40.5t-4 -34.5q-2 -26 12.5 -42t52.5 -16t60 16.5t30 41.5q10 30 37 30h72q32 0 23 -30q-18 -61 -52.5 -106.5t-93.5 -66.5
q-15 -6 -18 -18l-7 -34q-2 -8 -9.5 -14t-15.5 -6h-85q-8 0 -12.5 6t-2.5 14l8 34q2 7 -2.5 10t-10.5 5q-60 19 -90 66t-25 109q1 15 3.5 35t6.5 40.5t8.5 40.5t9.5 35q10 31 23.5 58.5t31 50.5t41 40t54.5 26q8 2 12.5 5t6.5 10l7 35q2 8 9.5 14t15.5 6h85q8 0 12.5 -6
t2.5 -14l-7 -34q-3 -12 11 -17z" />
    <glyph glyph-name="sterling" unicode="&#xa3;" 
d="M554 510q-2 -8 -9 -14t-15 -6h-68q-6 0 -13.5 -0.5t-13.5 1t-10 6t-2 13.5l4 20q4 20 -6 35.5t-37 15.5t-43 -15.5t-21 -35.5l-22 -106q-2 -10 8 -10h120q8 0 12.5 -6t2.5 -14l-15 -75q-2 -8 -9.5 -14t-15.5 -6h-119q-5 0 -8 -3.5t-4 -8.5l-9 -43q-12 -45 -20 -66
t-19 -35q-9 -11 5 -11h237q8 0 13 -6t3 -14l-20 -92q-2 -8 -9 -14t-15 -6h-429q-9 0 -14 6t-3 14l15 69q3 13 7 28t22 15q23 0 38 7t25 19t15.5 27t9.5 32l15 70q1 5 -1 8.5t-7 3.5h-41q-8 0 -12.5 6t-2.5 14l15 75q2 8 9.5 14t15.5 6h41q10 0 12 10l22 106q8 38 27.5 71.5
t47 58t62 39t72.5 14.5q42 0 75.5 -14.5t55 -39t30 -58t0.5 -71.5z" />
    <glyph glyph-name="currency" unicode="&#xa4;" 
d="M504 575q7 6 15 5.5t13 -5.5l52 -65q5 -6 3.5 -14t-8.5 -14l-94 -79q5 -14 6.5 -28t1.5 -31q0 -35 -12 -68.5t-34 -66.5l64 -80q5 -6 3 -14t-9 -13l-78 -65q-6 -6 -14 -6.5t-13 5.5l-65 79q-25 -11 -50.5 -17.5t-52.5 -6.5q-53 0 -93 23l-92 -77q-7 -6 -15 -5.5t-13 5.5
l-52 65q-5 6 -3.5 14t8.5 14l91 76q-9 25 -9 54q0 38 11 72.5t36 72.5l-61 78q-5 6 -3 14t9 13l78 65q7 5 14.5 6t12.5 -5l61 -77q24 11 50.5 17.5t53.5 6.5q54 0 96 -25zM171 288q0 -35 23.5 -58.5t59.5 -23.5q23 0 45 9.5t39.5 26.5t28.5 39.5t11 48.5q0 35 -24 57t-60 22
q-28 0 -50.5 -10t-38.5 -27t-25 -39t-9 -45z" />
    <glyph glyph-name="yen" unicode="&#xa5;" 
d="M363 363q-2 -4 -4.5 -7t-4.5 -7l-8 -14q-2 -4 -4.5 -7t-4.5 -7h96q8 0 13 -6t3 -14l-14 -67q-2 -8 -9 -14t-15 -6h-134q-2 -5 -2.5 -11t-2.5 -11l-37 -172q-2 -8 -9 -14t-15 -6h-94q-8 0 -13 6t-3 14l37 172q2 5 2.5 11t2.5 11h-22h-113q-8 0 -13 6t-3 14l14 67q2 8 9 14
t15 6h77h19q-2 5 -2.5 10.5t-1.5 10.5l-4 21h-20h-59q-8 0 -12.5 6t-2.5 14l14 67q2 8 9 14t15 6h18h18l-38 202q-2 11 5 19.5t17 8.5h97q13 0 16 -15l50 -277q0 -4 6 -4q3 0 6 4l158 277q8 15 22 15h107q10 0 13.5 -8.5t-3.5 -19.5l-114 -184q-3 -5 -5.5 -9t-5.5 -9h36
q8 0 13 -6t3 -14l-14 -67q-2 -8 -9.5 -14t-15.5 -6h-79z" />
    <glyph glyph-name="brokenbar" unicode="&#xa6;" 
d="M347 420q-2 -8 -9.5 -14t-15.5 -6h-76q-8 0 -12.5 6t-2.5 14l56 267q2 8 9.5 14t15.5 6h76q8 0 12.5 -6t2.5 -14zM262 20q-2 -8 -9.5 -14t-15.5 -6h-76q-8 0 -12 6t-2 14l55 267q2 8 9.5 14t15.5 6h76q8 0 12.5 -6t2.5 -14z" />
    <glyph glyph-name="section" unicode="&#xa7;" 
d="M311 147q7 -7 11.5 -4.5t7.5 4.5q11 10 20 21t9 25q0 8 -3 17.5t-11 18.5l-103 111q-7 8 -12 5t-7 -5q-12 -11 -20.5 -24t-8.5 -27q0 -8 3 -16t11 -17zM31 -11q2 9 9 15t15 6h84q8 0 13 -6t3 -15l-5 -24q-6 -26 11.5 -39t44.5 -13q23 0 40.5 13t17.5 34q0 14 -5.5 24.5
t-14.5 20.5l-145 156q-20 22 -29 47t-9 52q0 30 8.5 54.5t23.5 45.5t35 38.5t43 32.5q-11 23 -16.5 39.5t-5.5 39.5q0 43 15.5 78.5t42.5 60.5t63.5 39t78.5 14q41 0 76.5 -12.5t60 -35.5t35.5 -56t2 -73l-3 -14q-2 -9 -9.5 -15t-15.5 -6h-84q-8 0 -12.5 6t-2.5 15l3 14
q5 22 -5 37t-45 15q-30 0 -47.5 -17.5t-17.5 -39.5q0 -15 4.5 -22.5t14.5 -17.5l146 -155q21 -22 30 -48.5t9 -57.5q0 -27 -9 -51.5t-23.5 -46t-33 -39.5t-38.5 -32q7 -12 11 -30t4 -34q0 -43 -15.5 -79t-42.5 -62.5t-63 -41t-76 -14.5q-37 0 -72.5 11t-61.5 32.5
t-38.5 54.5t-3.5 78z" />
    <glyph glyph-name="dieresis" unicode="&#xa8;" 
d="M230 600q-2 -8 -9 -14t-15 -6h-90q-8 0 -13 6t-3 14l19 90q2 8 9 14t15 6h90q8 0 13 -6t3 -14zM430 600q-2 -8 -9 -14t-15 -6h-90q-8 0 -13 6t-3 14l19 90q2 8 9 14t15 6h90q8 0 13 -6t3 -14z" />
    <glyph glyph-name="copyright" unicode="&#xa9;" 
d="M15 299q0 60 22.5 115.5t63 98t96.5 68t122 25.5q47 0 86.5 -15.5t68.5 -42.5t45 -65t16 -83q0 -59 -23 -114t-63 -98t-95.5 -69t-119.5 -26q-51 0 -91.5 16t-69 43.5t-43.5 65t-15 81.5zM314 530q-45 0 -85.5 -17.5t-71 -48.5t-48 -72t-17.5 -89q0 -29 11 -53.5
t30 -42.5t45.5 -28t58.5 -10q45 0 85.5 18t71 49t48 72.5t17.5 88.5q0 29 -11 53.5t-30.5 42t-46 27.5t-57.5 10zM366 305q-9 -43 -38 -71.5t-77 -28.5q-53 0 -75 32t-16 79q2 17 5.5 34t8.5 34q13 46 42 75.5t83 29.5q24 0 41 -8.5t27.5 -22.5t14.5 -32t2 -37
q-2 -11 -11 -11h-44q-4 0 -7.5 1.5t-2.5 6.5q5 21 -3.5 30.5t-24.5 9.5q-41 0 -55 -48q-6 -19 -9 -31t-5 -31q-6 -48 33 -48q15 0 28 9t18 30q3 9 14 9h41q5 0 8 -3t2 -8z" />
    <glyph glyph-name="ordfeminine" unicode="&#xaa;" 
d="M252 602q0 17 -8.5 27.5t-25.5 10.5t-28.5 -9t-18.5 -22.5t-9.5 -28.5t-2.5 -28q0 -42 34 -42q16 0 27.5 9t18.5 22.5t10 30t3 30.5zM169 445q-33 0 -57.5 27t-24.5 71q0 32 8.5 61t25 51.5t39.5 35.5t52 13q18 0 30 -7t19 -16q4 -6 7 -6t5 4t3.5 8t2.5 6q3 7 8 7h47
q10 0 8 -10l-50 -230q-2 -10 -12 -10h-40q-5 0 -7 5q-1 4 0 9.5t-4 5.5q-3 0 -7 -4t-10.5 -8.5t-16.5 -8.5t-26 -4z" />
    <glyph glyph-name="guillemotleft" unicode="&#xab;" 
d="M181 435q3 4 10.5 9.5t18.5 5.5h80q14 0 17.5 -9t-8.5 -24l-116 -145q-6 -7 -7 -11.5t2 -12.5l54 -145q6 -16 -1.5 -24.5t-21.5 -8.5h-80q-11 0 -15.5 5.5t-6.5 9.5l-62 161q-4 8 -2.5 14t8.5 14zM379 435q3 4 10.5 9.5t18.5 5.5h80q14 0 17.5 -9t-8.5 -24l-116 -145
q-6 -7 -7 -11.5t2 -12.5l54 -145q6 -16 -1.5 -24.5t-21.5 -8.5h-80q-11 0 -15.5 5.5t-6.5 9.5l-62 161q-4 8 -2.5 14t8.5 14z" />
    <glyph glyph-name="logicalnot" unicode="&#xac;" 
d="M334 160q2 10 -8 10h-270q-8 0 -12.5 6t-2.5 14l19 90q2 8 9 14t15 6h390q8 0 13 -6t3 -14l-41 -190q-2 -8 -9 -14t-15 -6h-90q-8 0 -13 6t-3 14z" />
    <glyph glyph-name="registered" unicode="&#xae;" 
d="M15 299q0 60 22.5 115.5t63 98t96.5 68t122 25.5q47 0 86.5 -15.5t68.5 -42.5t45 -65t16 -83q0 -59 -23 -114t-63 -98t-95.5 -69t-119.5 -26q-51 0 -91.5 16t-69 43.5t-43.5 65t-15 81.5zM314 530q-45 0 -85.5 -17.5t-71 -48.5t-48 -72t-17.5 -89q0 -29 11 -53.5
t30 -42.5t45.5 -28t58.5 -10q45 0 85.5 18t71 49t48 72.5t17.5 88.5q0 29 -11 53.5t-30.5 42t-46 27.5t-57.5 10zM271 430q-2 0 -4.5 -1.5t-3.5 -4.5l-11 -54q-1 -2 1 -3t4 -1h33q16 0 26 9.5t13 22.5q2 12 -3.5 22t-21.5 10h-33zM336 324q-8 -5 -11.5 -6.5t-1.5 -9.5
l27 -76q2 -6 -1.5 -11t-11.5 -5h-36q-11 0 -14 11l-24 76q-2 7 -8 7h-10q-5 0 -7 -5l-17 -78q-2 -11 -12 -11h-42q-3 0 -5.5 3t-1.5 8l53 247q1 5 4.5 8t6.5 3h101q36 0 55.5 -26t12.5 -61q-5 -23 -21 -43t-36 -31z" />
    <glyph glyph-name="macron" unicode="&#xaf;" 
d="M122 596q-8 0 -13 6t-3 14l11 58q2 8 9 14t15 6h262q8 0 13 -6t3 -14l-11 -58q-2 -8 -9 -14t-15 -6h-262z" />
    <glyph glyph-name="degree" unicode="&#xb0;" 
d="M285 634q-21 0 -38.5 -14.5t-21.5 -34.5q-5 -20 7 -35t32 -15t37.5 15t22.5 35q4 17 -6 33t-33 16zM291 733q27 0 51 -9t42 -26.5t28.5 -42.5t10.5 -56q0 -36 -14 -66t-37.5 -51.5t-53.5 -33.5t-62 -12q-57 0 -93.5 35.5t-36.5 93.5q0 36 14 66.5t37 53t52.5 35.5
t61.5 13z" />
    <glyph glyph-name="plusminus" unicode="&#xb1;" 
d="M251 483q10 0 12 10l27 125q2 8 9 14t15 6h89q8 0 13 -6t3 -14l-27 -125q-2 -10 8 -10h126q8 0 13 -6t3 -14l-19 -89q-2 -8 -9 -14t-15 -6h-126q-10 0 -12 -10l-27 -126q-2 -8 -9 -14t-15 -6h-89q-8 0 -13 6t-3 14l27 126q2 10 -8 10h-125q-8 0 -13 6t-3 14l19 89
q2 8 9 14t15 6h125zM448 129q8 0 13 -6t3 -14l-19 -89q-2 -8 -9 -14t-15 -6h-394q-8 0 -12.5 6t-2.5 14l18 89q2 8 9 14t15 6h394z" />
    <glyph glyph-name="twosuperior" unicode="&#xb2;" 
d="M334 604q0 11 -8 18.5t-21 7.5q-30 0 -39 -42q-2 -10 -12 -10h-60q-8 0 -8 10q0 23 8 44.5t23.5 38t37.5 26t51 9.5q22 0 42 -7.5t35 -20.5t24 -30.5t9 -37.5q0 -21 -5.5 -36t-13.5 -26t-18.5 -19.5t-20.5 -16.5l-86 -70q-2 -2 -3 -6.5t7 -4.5h99q10 0 8 -10l-13 -61
q-2 -10 -12 -10h-216q-10 0 -8 10l15 65q2 5 3.5 7.5t3.5 4.5l161 138q2 2 9.5 10t7.5 19z" />
    <glyph glyph-name="threesuperior" unicode="&#xb3;" 
d="M259 424q17 0 27.5 10.5t10.5 25.5t-7.5 24.5t-20.5 9.5h-6q-11 0 -9 10l9 46q2 10 12 10h11q16 0 27.5 10t11.5 27q0 15 -10.5 22t-21.5 7q-12 0 -22 -8t-15 -30q-2 -10 -12 -10h-59q-8 0 -8 10q0 29 10.5 51t27.5 37t39 22.5t45 7.5q48 0 77 -25.5t29 -67.5
q0 -29 -13 -46t-36 -32q-4 -4 -1 -7q14 -14 19 -34t5 -34q0 -29 -10.5 -50.5t-28.5 -36t-41.5 -22t-49.5 -7.5q-24 0 -45 8.5t-35.5 24.5t-21 38t-0.5 48q2 10 12 10h60q9 0 7 -10q-5 -22 6 -30.5t27 -8.5z" />
    <glyph glyph-name="acute" unicode="&#xb4;" 
d="M393 730q14 0 15 -9t-9 -18l-141 -121q-5 -5 -12 -8.5t-21 -3.5h-69q-10 0 -14 9t8 21l106 114q5 5 12 10.5t18 5.5h107z" />
    <glyph glyph-name="uni00B5" unicode="&#xb5;" 
d="M141 480q2 8 9 14t15 6h60q7 0 16 0.5t16 -1t11.5 -6t2.5 -13.5l-65 -306q-5 -25 10.5 -42t51.5 -17q35 0 58.5 16t28.5 39l66 310q2 8 9 14t15 6h90q8 0 13 -6t3 -14l-98 -460q-2 -8 -9 -14t-15 -6h-50q-9 0 -13.5 3.5t-7.5 8t-7 8.5t-12 4q-9 0 -18 -4.5t-19.5 -10
t-23.5 -10t-30 -4.5q-21 1 -32.5 7.5t-24.5 6.5q-9 0 -16.5 -7t-10.5 -21l-34 -161q-2 -8 -9 -14t-15 -6h-90q-8 0 -13 6t-3 14z" />
    <glyph glyph-name="paragraph" unicode="&#xb6;" 
d="M159 360q-28 0 -51.5 11t-40.5 30.5t-26.5 44.5t-9.5 54q0 41 17.5 77.5t46.5 63.5t67.5 43t79.5 16h260q8 0 12.5 -6t2.5 -14l-161 -760q-2 -8 -9.5 -14t-15.5 -6h-60q-8 0 -12.5 6t-2.5 14l143 675q2 10 -8 10h-60q-10 0 -12 -10l-143 -675q-2 -8 -9.5 -14t-15.5 -6
h-60q-8 0 -12.5 6t-2.5 14l91 430q2 10 -8 10z" />
    <glyph glyph-name="periodcentered" unicode="&#xb7;" 
d="M351 183q-2 -8 -9 -14t-15 -6h-143q-8 0 -13 6t-3 14l31 143q2 8 9 14t15 6h143q8 0 13 -6t3 -14z" />
    <glyph glyph-name="cedilla" unicode="&#xb8;" 
d="M315 -176q-10 -24 -37 -24h-62q-12 0 -18 4t-8 10t-0.5 12.5t4.5 12.5l49 92q11 24 37 24h54q12 0 18 -4t7.5 -9.5t0.5 -12.5t-4 -13z" />
    <glyph glyph-name="onesuperior" unicode="&#xb9;" 
d="M282 586q2 6 -2.5 6.5t-8.5 -1.5l-63 -43q-7 -5 -14 -2t-5 13l11 53q2 6 3 10.5t9 11.5l61 50q5 5 14 10.5t23 5.5h70q9 0 7 -10l-53 -254q-2 -5 3 -5h53q10 0 8 -10l-13 -61q-2 -10 -12 -10h-214q-9 0 -7 10l13 61q2 10 12 10h68q4 0 6 5z" />
    <glyph glyph-name="ordmasculine" unicode="&#xba;" 
d="M226 634q-20 0 -31.5 -10t-18.5 -27q-4 -10 -6.5 -21t-2.5 -19q0 -16 10 -25.5t27 -9.5t31 9.5t20 24.5q2 5 5.5 18.5t3.5 24.5q0 15 -9 25t-29 10zM232 711q48 0 77 -25.5t27 -67.5q-1 -15 -5 -38t-9 -37q-13 -42 -45 -67.5t-82 -25.5q-21 0 -40 5.5t-32.5 16.5t-21 29
t-6.5 42q1 15 4 35.5t9 39.5q14 42 45.5 67.5t78.5 25.5z" />
    <glyph glyph-name="guillemotright" unicode="&#xbb;" 
d="M504 274q4 -8 2.5 -14t-8.5 -14l-130 -161q-3 -4 -10 -9.5t-18 -5.5h-80q-14 0 -17.5 9t8.5 24l116 145q6 8 7 12.5t-2 11.5l-54 145q-6 16 1.5 24.5t21.5 8.5h80q11 0 15 -5.5t6 -9.5zM306 274q4 -8 2.5 -14t-8.5 -14l-130 -161q-3 -4 -10 -9.5t-18 -5.5h-80
q-14 0 -17.5 9t8.5 24l116 145q6 8 7 12.5t-2 11.5l-54 145q-6 16 1.5 24.5t21.5 8.5h80q11 0 15 -5.5t6 -9.5z" />
    <glyph glyph-name="onequarter" unicode="&#xbc;" 
d="M492 135q10 0 8 -10l-13 -60q-2 -10 -12 -10h-22q-4 0 -6 -5l-8 -40q-2 -10 -12 -10h-60q-10 0 -8 10l8 40q2 5 -4 5h-136q-10 0 -8 10l15 69q2 5 5 9.5t7 9.5l169 190q7 7 12 7h74q10 0 8 -10l-43 -200q0 -5 4 -5h22zM334 141q-6 -6 1 -6h45q6 0 6 5l16 75q1 3 -1 3.5
t-4 -1.5zM170 688q5 4 12 8t16 4h68q10 0 8 -10l-71 -330q-2 -10 -12 -10h-72q-10 0 -8 10l46 214q1 5 -2 5.5t-6 -1.5l-79 -54q-6 -5 -12 -2.5t-4 10.5l13 63q2 6 4 11t9 11zM64 15q-12 -15 -24 -15h-49q-10 0 -14 8.5t4 19.5l519 657q12 15 25 15h48q10 0 14 -9t-4 -19z
" />
    <glyph glyph-name="onehalf" unicode="&#xbd;" 
d="M64 15q-12 -15 -24 -15h-49q-10 0 -14 8.5t4 19.5l519 657q12 15 25 15h48q10 0 14 -9t-4 -19zM447 258q0 11 -8.5 15.5t-16.5 4.5q-11 0 -22 -6t-14 -21l-4 -18q-2 -10 -12 -10h-53q-3 0 -8 -0.5t-9 0t-7 3t-2 7.5l4 18q11 49 47 76.5t84 27.5t80 -24.5t32 -66.5
q0 -36 -21.5 -65t-50.5 -52q-19 -15 -38 -28t-33 -24q-3 -2 -3.5 -6t6.5 -4h97q10 0 8 -10l-14 -65q-2 -10 -12 -10h-219q-10 0 -8 10l9 40q1 8 3 17t8 15q58 50 93 79t54 47q19 17 24.5 27.5t5.5 22.5zM170 688q5 4 12 8t16 4h68q10 0 8 -10l-71 -330q-2 -10 -12 -10h-72
q-10 0 -8 10l46 214q1 5 -2 5.5t-6 -1.5l-79 -54q-6 -5 -12 -2.5t-4 10.5l13 63q2 6 4 11t9 11z" />
    <glyph glyph-name="threequarters" unicode="&#xbe;" 
d="M492 135q10 0 8 -10l-13 -60q-2 -10 -12 -10h-22q-4 0 -6 -5l-8 -40q-3 -10 -12 -10h-60q-11 0 -8 10l8 40q2 5 -4 5h-136q-10 0 -8 10l15 69q2 5 5 9.5t7 9.5l169 190q7 7 12 7h74q10 0 8 -10l-43 -200q0 -5 4 -5h22zM334 141q-6 -6 1 -6h45q6 0 6 5l16 75q1 3 -1 3.5
t-4 -1.5zM64 15q-12 -15 -24 -15h-49q-10 0 -14 8.5t4 19.5l519 657q12 15 25 15h48q10 0 14 -9t-4 -19zM172 460q0 14 -6 23t-24 9h-6q-10 0 -8 10l11 54q2 10 12 10h6q20 0 31 12.5t11 31.5q0 11 -8.5 15.5t-19.5 4.5q-13 0 -25 -8.5t-14 -21.5l-2 -7q-2 -10 -12 -10h-64
q-10 0 -8 10l2 7q9 45 40.5 75t88.5 30q20 0 39 -5.5t34 -16t24 -26.5t9 -37q0 -30 -15 -52t-37 -33q-4 -2 -4 -4.5t2 -4.5q11 -8 19.5 -20.5t8.5 -35.5q0 -28 -10.5 -51.5t-29 -40t-43.5 -25.5t-54 -9q-62 0 -89.5 31.5t-18.5 78.5l1 5q2 10 12 10h63q10 0 8 -10l-1 -5
q-3 -14 6 -23.5t26 -9.5q18 0 31.5 11t13.5 28z" />
    <glyph glyph-name="questiondown" unicode="&#xbf;" 
d="M303 480q2 8 9 14t15 6h120q8 0 13 -6t3 -14l-25 -120q-2 -8 -9.5 -14t-15.5 -6h-120q-8 0 -12.5 6t-2.5 14zM205 -24q0 -25 18 -40.5t48 -15.5q41 0 59.5 26.5t23.5 67.5q1 11 14.5 16t32.5 6t39 0t34 -1q8 0 12 -6t4 -14q0 -49 -18 -91t-49 -73t-72.5 -48.5
t-89.5 -17.5q-39 0 -75 12t-64 34t-44.5 54t-16.5 73q0 40 12.5 70.5t32 54t43 42t45.5 34.5t39 31t24 33l4 14t4 16l2 10q2 8 9 14t15 6h100q8 0 13 -6t3 -14l-2 -10q-3 -12 -6 -27.5t-8.5 -32t-15 -33t-24.5 -31.5q-24 -24 -49.5 -40t-47 -31t-35.5 -33.5t-14 -48.5z" />
    <glyph glyph-name="Agrave" unicode="&#xc0;" 
d="M90 15q-7 -15 -22 -15h-110q-12 0 -15.5 6.5t-0.5 13.5l320 665q7 15 22 15h134q16 0 16 -15l36 -665q0 -7 -6 -13.5t-18 -6.5h-99q-16 0 -16 15l-4 103q0 6 -2.5 10.5t-9.5 4.5h-157q-11 0 -18 -15zM211 284q-4 -11 6 -11h97q10 0 10 11v240q0 4 -4 4h-2q-5 0 -6 -4z
M326 910q11 0 15.5 -5.5t6.5 -10.5l58 -114q6 -12 -2 -21t-18 -9h-63q-14 0 -18.5 3.5t-8.5 8.5l-89 121q-7 9 -1.5 18t19.5 9h101z" />
    <glyph glyph-name="Aacute" unicode="&#xc1;" 
d="M90 15q-7 -15 -22 -15h-110q-12 0 -15.5 6.5t-0.5 13.5l320 665q7 15 22 15h134q16 0 16 -15l36 -665q0 -7 -6 -13.5t-18 -6.5h-99q-16 0 -16 15l-4 103q0 6 -2.5 10.5t-9.5 4.5h-157q-11 0 -18 -15zM211 284q-4 -11 6 -11h97q10 0 10 11v240q0 4 -4 4h-2q-5 0 -6 -4z
M534 910q14 0 15 -9t-9 -18l-141 -121q-5 -5 -12 -8.5t-21 -3.5h-69q-10 0 -14 9t8 21l106 114q5 5 12 10.5t18 5.5h107z" />
    <glyph glyph-name="Acircumflex" unicode="&#xc2;" 
d="M90 15q-7 -15 -22 -15h-110q-12 0 -15.5 6.5t-0.5 13.5l320 665q7 15 22 15h134q16 0 16 -15l36 -665q0 -7 -6 -13.5t-18 -6.5h-99q-16 0 -16 15l-4 103q0 6 -2.5 10.5t-9.5 4.5h-157q-11 0 -18 -15zM211 284q-4 -11 6 -11h97q10 0 10 11v240q0 4 -4 4h-2q-5 0 -6 -4z
M325 766q-5 -5 -14.5 -10.5t-20.5 -5.5h-95q-12 0 -11 10t6 15l145 123q5 5 12 8.5t21 3.5h62q13 0 17.5 -3.5t8.5 -8.5l93 -123q4 -5 -0.5 -15t-18.5 -10h-85q-11 0 -17.5 5.5t-9.5 10.5l-30 44q-6 7 -14 0z" />
    <glyph glyph-name="Atilde" unicode="&#xc3;" 
d="M90 15q-7 -15 -22 -15h-110q-12 0 -15.5 6.5t-0.5 13.5l320 665q7 15 22 15h134q16 0 16 -15l36 -665q0 -7 -6 -13.5t-18 -6.5h-99q-16 0 -16 15l-4 103q0 6 -2.5 10.5t-9.5 4.5h-157q-11 0 -18 -15zM211 284q-4 -11 6 -11h97q10 0 10 11v240q0 4 -4 4h-2q-5 0 -6 -4z
M474 864q19 0 30.5 6.5t19.5 14.5t16.5 4t5.5 -18l-12 -60q-4 -20 -28 -35.5t-54 -15.5q-24 0 -45 4t-41 8.5t-42 8.5t-47 4q-17 0 -28.5 -5.5t-21.5 -15.5q-8 -7 -16.5 -3.5t-5.5 17.5l12 60q4 20 28 35.5t54 15.5q24 0 45 -4t41 -8.5t41.5 -8.5t47.5 -4z" />
    <glyph glyph-name="Adieresis" unicode="&#xc4;" 
d="M90 15q-7 -15 -22 -15h-110q-12 0 -15.5 6.5t-0.5 13.5l320 665q7 15 22 15h134q16 0 16 -15l36 -665q0 -7 -6 -13.5t-18 -6.5h-99q-16 0 -16 15l-4 103q0 6 -2.5 10.5t-9.5 4.5h-157q-11 0 -18 -15zM211 284q-4 -11 6 -11h97q10 0 10 11v240q0 4 -4 4h-2q-5 0 -6 -4z
M332 780q-2 -8 -9 -14t-15 -6h-90q-8 0 -13 6t-3 14l19 90q2 8 9 14t15 6h90q8 0 13 -6t3 -14zM532 780q-2 -8 -9 -14t-15 -6h-90q-8 0 -13 6t-3 14l19 90q2 8 9 14t15 6h90q8 0 13 -6t3 -14z" />
    <glyph glyph-name="Aring" unicode="&#xc5;" 
d="M90 15q-7 -15 -22 -15h-110q-12 0 -15.5 6.5t-0.5 13.5l320 665q7 15 22 15h134q16 0 16 -15l36 -665q0 -7 -6 -13.5t-18 -6.5h-99q-16 0 -16 15l-4 103q0 6 -2.5 10.5t-9.5 4.5h-157q-11 0 -18 -15zM211 284q-4 -11 6 -11h97q10 0 10 11v240q0 4 -4 4h-2q-5 0 -6 -4z
M266 830q0 28 10 53t27.5 43.5t41.5 29t53 10.5q24 0 43 -8t32.5 -21t20.5 -30.5t7 -36.5q0 -34 -12 -59t-31 -42t-42 -25.5t-44 -8.5q-24 0 -43.5 8t-33.5 21t-21.5 30.5t-7.5 35.5zM390 883q-14 0 -24.5 -9t-13.5 -23t4 -23t21 -9t25 9t14 23t-4.5 23t-21.5 9z" />
    <glyph glyph-name="AE" unicode="&#xc6;" 
d="M234 118q2 6 -1.5 10.5t-10.5 4.5h-87q-11 0 -18 -15l-50 -103q-7 -15 -22 -15h-94q-12 0 -15.5 6.5t-0.5 13.5l314 654q3 7 13.5 16.5t26.5 9.5h297q8 0 13 -6t3 -14l-22 -100q-2 -8 -9 -14t-15 -6h-88q-10 0 -12 -10l-25 -120q-2 -10 7 -10h91q8 0 13 -6t3 -14
l-21 -100q-2 -8 -9 -14t-15 -6h-91q-11 0 -13 -10l-25 -120q-2 -10 8 -10h103q8 0 13 -6t3 -14l-22 -100q-2 -8 -9 -14t-15 -6h-223q-8 0 -13 6t-3 14zM257 273q9 0 12 11l57 266q2 10 -8 10h-2q-7 0 -10 -3.5t-5 -6.5l-111 -266q-4 -11 6 -11h61z" />
    <glyph glyph-name="Ccedilla" unicode="&#xc7;" 
d="M481 205q-11 -45 -33.5 -84.5t-55.5 -69t-77 -46t-98 -16.5q-56 0 -98 17.5t-68.5 48t-38 70.5t-6.5 85q3 31 8.5 67t13.5 73t17 72.5t20 67.5q15 45 36.5 85t52.5 70.5t74 48t102 17.5q52 0 94.5 -17.5t71 -47t41 -68.5t5.5 -83q-5 -30 -37 -30h-81q-14 0 -20 7t-4 18
q4 33 -12 56.5t-68 23.5q-46 0 -74.5 -23.5t-39.5 -56.5q-11 -32 -20 -67.5t-17 -72.5t-13.5 -73t-8.5 -67q-4 -33 15 -56.5t65 -23.5q49 0 76 23.5t38 56.5q3 11 12 18t23 7h81q31 0 24 -30zM225 -176q-10 -24 -37 -24h-62q-12 0 -18 4t-8 10t-0.5 12.5t4.5 12.5l49 92
q11 24 37 24h54q12 0 18 -4t7.5 -9.5t0.5 -12.5t-4 -13z" />
    <glyph glyph-name="Egrave" unicode="&#xc8;" 
d="M229 430q-2 -10 7 -10h245q8 0 13 -6t3 -14l-21 -100q-2 -8 -9 -14t-15 -6h-245q-11 0 -13 -10l-25 -120q-2 -10 8 -10h257q8 0 13 -6t3 -14l-22 -100q-2 -8 -9 -14t-15 -6h-387q-8 0 -12.5 6t-2.5 14l140 660q2 8 9 14t15 6h383q8 0 13 -6t3 -14l-22 -100q-2 -8 -9 -14
t-15 -6h-253q-10 0 -12 -10zM326 910q11 0 15.5 -5.5t6.5 -10.5l58 -114q6 -12 -2 -21t-18 -9h-63q-14 0 -18.5 3.5t-8.5 8.5l-89 121q-7 9 -1.5 18t19.5 9h101z" />
    <glyph glyph-name="Eacute" unicode="&#xc9;" 
d="M229 430q-2 -10 7 -10h245q8 0 13 -6t3 -14l-21 -100q-2 -8 -9 -14t-15 -6h-245q-11 0 -13 -10l-25 -120q-2 -10 8 -10h257q8 0 13 -6t3 -14l-22 -100q-2 -8 -9 -14t-15 -6h-387q-8 0 -12.5 6t-2.5 14l140 660q2 8 9 14t15 6h383q8 0 13 -6t3 -14l-22 -100q-2 -8 -9 -14
t-15 -6h-253q-10 0 -12 -10zM534 910q14 0 15 -9t-9 -18l-141 -121q-5 -5 -12 -8.5t-21 -3.5h-69q-10 0 -14 9t8 21l106 114q5 5 12 10.5t18 5.5h107z" />
    <glyph glyph-name="Ecircumflex" unicode="&#xca;" 
d="M229 430q-2 -10 7 -10h245q8 0 13 -6t3 -14l-21 -100q-2 -8 -9 -14t-15 -6h-245q-11 0 -13 -10l-25 -120q-2 -10 8 -10h257q8 0 13 -6t3 -14l-22 -100q-2 -8 -9 -14t-15 -6h-387q-8 0 -12.5 6t-2.5 14l140 660q2 8 9 14t15 6h383q8 0 13 -6t3 -14l-22 -100q-2 -8 -9 -14
t-15 -6h-253q-10 0 -12 -10zM325 766q-5 -5 -14.5 -10.5t-20.5 -5.5h-95q-12 0 -11 10t6 15l145 123q5 5 12 8.5t21 3.5h62q13 0 17.5 -3.5t8.5 -8.5l93 -123q4 -5 -0.5 -15t-18.5 -10h-85q-11 0 -17.5 5.5t-9.5 10.5l-30 44q-6 7 -14 0z" />
    <glyph glyph-name="Edieresis" unicode="&#xcb;" 
d="M229 430q-2 -10 7 -10h245q8 0 13 -6t3 -14l-21 -100q-2 -8 -9 -14t-15 -6h-245q-11 0 -13 -10l-25 -120q-2 -10 8 -10h257q8 0 13 -6t3 -14l-22 -100q-2 -8 -9 -14t-15 -6h-387q-8 0 -12.5 6t-2.5 14l140 660q2 8 9 14t15 6h383q8 0 13 -6t3 -14l-22 -100q-2 -8 -9 -14
t-15 -6h-253q-10 0 -12 -10zM332 780q-2 -8 -9 -14t-15 -6h-90q-8 0 -13 6t-3 14l19 90q2 8 9 14t15 6h90q8 0 13 -6t3 -14zM532 780q-2 -8 -9 -14t-15 -6h-90q-8 0 -13 6t-3 14l19 90q2 8 9 14t15 6h90q8 0 13 -6t3 -14z" />
    <glyph glyph-name="Igrave" unicode="&#xcc;" 
d="M258 555q2 10 -8 10h-100q-8 0 -13 6t-3 14l21 95q2 8 9 14t15 6h360q8 0 13 -6t3 -14l-21 -95q-2 -8 -9 -14t-15 -6h-100q-10 0 -12 -10l-87 -410q-2 -10 8 -10h110q8 0 13 -6t3 -14l-21 -95q-2 -8 -9 -14t-15 -6h-380q-8 0 -12.5 6t-2.5 14l20 95q2 8 9 14t15 6h110
q10 0 12 10zM326 910q11 0 15.5 -5.5t6.5 -10.5l58 -114q6 -12 -2 -21t-18 -9h-63q-14 0 -18.5 3.5t-8.5 8.5l-89 121q-7 9 -1.5 18t19.5 9h101z" />
    <glyph glyph-name="Iacute" unicode="&#xcd;" 
d="M258 555q2 10 -8 10h-100q-8 0 -13 6t-3 14l21 95q2 8 9 14t15 6h360q8 0 13 -6t3 -14l-21 -95q-2 -8 -9 -14t-15 -6h-100q-10 0 -12 -10l-87 -410q-2 -10 8 -10h110q8 0 13 -6t3 -14l-21 -95q-2 -8 -9 -14t-15 -6h-380q-8 0 -12.5 6t-2.5 14l20 95q2 8 9 14t15 6h110
q10 0 12 10zM534 910q14 0 15 -9t-9 -18l-141 -121q-5 -5 -12 -8.5t-21 -3.5h-69q-10 0 -14 9t8 21l106 114q5 5 12 10.5t18 5.5h107z" />
    <glyph glyph-name="Icircumflex" unicode="&#xce;" 
d="M258 555q2 10 -8 10h-100q-8 0 -13 6t-3 14l21 95q2 8 9 14t15 6h360q8 0 13 -6t3 -14l-21 -95q-2 -8 -9 -14t-15 -6h-100q-10 0 -12 -10l-87 -410q-2 -10 8 -10h110q8 0 13 -6t3 -14l-21 -95q-2 -8 -9 -14t-15 -6h-380q-8 0 -12.5 6t-2.5 14l20 95q2 8 9 14t15 6h110
q10 0 12 10zM325 766q-5 -5 -14.5 -10.5t-20.5 -5.5h-95q-12 0 -11 10t6 15l145 123q5 5 12 8.5t21 3.5h62q13 0 17.5 -3.5t8.5 -8.5l93 -123q4 -5 -0.5 -15t-18.5 -10h-85q-11 0 -17.5 5.5t-9.5 10.5l-30 44q-6 7 -14 0z" />
    <glyph glyph-name="Idieresis" unicode="&#xcf;" 
d="M258 555q2 10 -8 10h-100q-8 0 -13 6t-3 14l21 95q2 8 9 14t15 6h360q8 0 13 -6t3 -14l-21 -95q-2 -8 -9 -14t-15 -6h-100q-10 0 -12 -10l-87 -410q-2 -10 8 -10h110q8 0 13 -6t3 -14l-21 -95q-2 -8 -9 -14t-15 -6h-380q-8 0 -12.5 6t-2.5 14l20 95q2 8 9 14t15 6h110
q10 0 12 10zM339 780q-2 -8 -9 -14t-15 -6h-90q-8 0 -13 6t-3 14l19 90q2 8 9 14t15 6h90q8 0 13 -6t3 -14zM539 780q-2 -8 -9 -14t-15 -6h-90q-8 0 -13 6t-3 14l19 90q2 8 9 14t15 6h90q8 0 13 -6t3 -14z" />
    <glyph glyph-name="Eth" unicode="&#xd0;" 
d="M148 155q-3 -15 12 -15h63q49 0 76 18.5t38 51.5q10 31 19.5 67t17.5 73t13.5 72.5t8.5 67.5q4 33 -15 51.5t-65 18.5h-67q-15 0 -18 -15l-24 -115q-2 -10 7 -10h80q8 0 13 -6t3 -14l-21 -100q-2 -8 -9 -14t-15 -6h-80q-10 0 -12 -10zM33 270q2 10 -8 10h-27q-8 0 -13 6
t-3 14l21 100q2 8 9 14t15 6h27q11 0 13 10l51 240q3 13 13 21.5t23 8.5h172q53 0 94 -16t68.5 -44t40 -66.5t8.5 -83.5q-3 -32 -8.5 -67.5t-13.5 -72.5t-17.5 -73t-19.5 -67q-15 -45 -36.5 -83.5t-52.5 -66.5t-74.5 -44t-101.5 -16h-208q-13 0 -19.5 8.5t-3.5 21.5z" />
    <glyph glyph-name="Ntilde" unicode="&#xd1;" 
d="M340 302q1 -5 5 -4t5 6l80 376q2 8 9 14t15 6h100q8 0 13 -6t3 -14l-141 -660q-2 -8 -9 -14t-15 -6h-108q-13 0 -17.5 5.5t-5.5 11.5l-72 351q-1 5 -4.5 4t-4.5 -6l-74 -346q-2 -8 -9 -14t-15 -6h-100q-8 0 -12.5 6t-2.5 14l140 660q2 8 9 14t15 6h109q11 0 15.5 -5.5
t5.5 -12.5zM474 864q19 0 30.5 6.5t19.5 14.5t16.5 4t5.5 -18l-12 -60q-4 -20 -28 -35.5t-54 -15.5q-24 0 -45 4t-41 8.5t-42 8.5t-47 4q-17 0 -28.5 -5.5t-21.5 -15.5q-8 -7 -16.5 -3.5t-5.5 17.5l12 60q4 20 28 35.5t54 15.5q24 0 45 -4t41 -8.5t41.5 -8.5t47.5 -4z" />
    <glyph glyph-name="Ograve" unicode="&#xd2;" 
d="M321 570q-46 0 -74.5 -23.5t-39.5 -56.5q-11 -32 -20 -67.5t-17 -72.5t-13.5 -73t-8.5 -67q-4 -33 15 -56.5t65 -23.5q49 0 76 23.5t38 56.5q10 31 19.5 67t17.5 73t13.5 72.5t8.5 67.5q4 33 -15 56.5t-65 23.5zM331 711q53 0 94 -17.5t68.5 -48t40 -70.5t8.5 -85
q-3 -32 -8.5 -67.5t-13.5 -72.5t-17.5 -73t-19.5 -67q-15 -45 -36.5 -85t-52.5 -70.5t-74.5 -48t-101.5 -17.5q-56 0 -98 17.5t-68.5 48t-38 70.5t-6.5 85q3 31 8.5 67t13.5 73t17 72.5t20 67.5q15 45 36.5 85t52.5 70.5t74 48t102 17.5zM326 910q11 0 15.5 -5.5t6.5 -10.5
l58 -114q6 -12 -2 -21t-18 -9h-63q-14 0 -18.5 3.5t-8.5 8.5l-89 121q-7 9 -1.5 18t19.5 9h101z" />
    <glyph glyph-name="Oacute" unicode="&#xd3;" 
d="M321 570q-46 0 -74.5 -23.5t-39.5 -56.5q-11 -32 -20 -67.5t-17 -72.5t-13.5 -73t-8.5 -67q-4 -33 15 -56.5t65 -23.5q49 0 76 23.5t38 56.5q10 31 19.5 67t17.5 73t13.5 72.5t8.5 67.5q4 33 -15 56.5t-65 23.5zM331 711q53 0 94 -17.5t68.5 -48t40 -70.5t8.5 -85
q-3 -32 -8.5 -67.5t-13.5 -72.5t-17.5 -73t-19.5 -67q-15 -45 -36.5 -85t-52.5 -70.5t-74.5 -48t-101.5 -17.5q-56 0 -98 17.5t-68.5 48t-38 70.5t-6.5 85q3 31 8.5 67t13.5 73t17 72.5t20 67.5q15 45 36.5 85t52.5 70.5t74 48t102 17.5zM534 910q14 0 15 -9t-9 -18
l-141 -121q-5 -5 -12 -8.5t-21 -3.5h-69q-10 0 -14 9t8 21l106 114q5 5 12 10.5t18 5.5h107z" />
    <glyph glyph-name="Ocircumflex" unicode="&#xd4;" 
d="M321 570q-46 0 -74.5 -23.5t-39.5 -56.5q-11 -32 -20 -67.5t-17 -72.5t-13.5 -73t-8.5 -67q-4 -33 15 -56.5t65 -23.5q49 0 76 23.5t38 56.5q10 31 19.5 67t17.5 73t13.5 72.5t8.5 67.5q4 33 -15 56.5t-65 23.5zM331 711q53 0 94 -17.5t68.5 -48t40 -70.5t8.5 -85
q-3 -32 -8.5 -67.5t-13.5 -72.5t-17.5 -73t-19.5 -67q-15 -45 -36.5 -85t-52.5 -70.5t-74.5 -48t-101.5 -17.5q-56 0 -98 17.5t-68.5 48t-38 70.5t-6.5 85q3 31 8.5 67t13.5 73t17 72.5t20 67.5q15 45 36.5 85t52.5 70.5t74 48t102 17.5zM325 766q-5 -5 -14.5 -10.5
t-20.5 -5.5h-95q-12 0 -11 10t6 15l145 123q5 5 12 8.5t21 3.5h62q13 0 17.5 -3.5t8.5 -8.5l93 -123q4 -5 -0.5 -15t-18.5 -10h-85q-11 0 -17.5 5.5t-9.5 10.5l-30 44q-6 7 -14 0z" />
    <glyph glyph-name="Otilde" unicode="&#xd5;" 
d="M321 570q-46 0 -74.5 -23.5t-39.5 -56.5q-11 -32 -20 -67.5t-17 -72.5t-13.5 -73t-8.5 -67q-4 -33 15 -56.5t65 -23.5q49 0 76 23.5t38 56.5q10 31 19.5 67t17.5 73t13.5 72.5t8.5 67.5q4 33 -15 56.5t-65 23.5zM331 711q53 0 94 -17.5t68.5 -48t40 -70.5t8.5 -85
q-3 -32 -8.5 -67.5t-13.5 -72.5t-17.5 -73t-19.5 -67q-15 -45 -36.5 -85t-52.5 -70.5t-74.5 -48t-101.5 -17.5q-56 0 -98 17.5t-68.5 48t-38 70.5t-6.5 85q3 31 8.5 67t13.5 73t17 72.5t20 67.5q15 45 36.5 85t52.5 70.5t74 48t102 17.5zM476 864q19 0 30.5 6.5t19.5 14.5
t16.5 4t5.5 -18l-12 -60q-4 -20 -28 -35.5t-54 -15.5q-24 0 -45 4t-41 8.5t-42 8.5t-47 4q-17 0 -28.5 -5.5t-21.5 -15.5q-8 -7 -16.5 -3.5t-5.5 17.5l12 60q4 20 28 35.5t54 15.5q24 0 45 -4t41 -8.5t41.5 -8.5t47.5 -4z" />
    <glyph glyph-name="Odieresis" unicode="&#xd6;" 
d="M321 570q-46 0 -74.5 -23.5t-39.5 -56.5q-11 -32 -20 -67.5t-17 -72.5t-13.5 -73t-8.5 -67q-4 -33 15 -56.5t65 -23.5q49 0 76 23.5t38 56.5q10 31 19.5 67t17.5 73t13.5 72.5t8.5 67.5q4 33 -15 56.5t-65 23.5zM331 711q53 0 94 -17.5t68.5 -48t40 -70.5t8.5 -85
q-3 -32 -8.5 -67.5t-13.5 -72.5t-17.5 -73t-19.5 -67q-15 -45 -36.5 -85t-52.5 -70.5t-74.5 -48t-101.5 -17.5q-56 0 -98 17.5t-68.5 48t-38 70.5t-6.5 85q3 31 8.5 67t13.5 73t17 72.5t20 67.5q15 45 36.5 85t52.5 70.5t74 48t102 17.5zM332 780q-2 -8 -9 -14t-15 -6h-90
q-8 0 -13 6t-3 14l19 90q2 8 9 14t15 6h90q8 0 13 -6t3 -14zM532 780q-2 -8 -9 -14t-15 -6h-90q-8 0 -13 6t-3 14l19 90q2 8 9 14t15 6h90q8 0 13 -6t3 -14z" />
    <glyph glyph-name="multiply" unicode="&#xd7;" 
d="M175 250q8 7 3 14l-67 85q-5 6 -3.5 14.5t9.5 14.5l73 59q7 5 15 5t13 -5l69 -89q5 -7 14 0l108 89q8 6 16 6t13 -6l53 -67q4 -5 2.5 -13.5t-8.5 -14.5l-112 -92q-10 -7 -3 -14l67 -85q4 -6 2.5 -14.5t-8.5 -13.5l-72 -60q-8 -6 -16 -6t-13 6l-70 89q-5 7 -14 0l-107 -89
q-7 -6 -15.5 -5.5t-12.5 5.5l-52 66q-5 6 -3 14.5t9 14.5z" />
    <glyph glyph-name="Oslash" unicode="&#xd8;" 
d="M95 12q-9 -12 -22 -12h-69q-10 0 -15 7t3 18l35 49q4 5 2.5 8l-2.5 5q-29 56 -22 123q3 31 8.5 67t13.5 73t17 72.5t20 67.5q15 45 36.5 85t52.5 70.5t74 48t102 17.5q72 0 122 -32q2 -1 4.5 -2t6.5 5l2 3q10 15 22 15h69q10 0 14 -8.5t-4 -19.5l-43 -60q-3 -5 -2.5 -7
t1.5 -4q25 -51 19 -111q-3 -32 -8.5 -67.5t-13.5 -72.5t-17.5 -73t-19.5 -67q-15 -45 -36.5 -85t-52.5 -70.5t-74.5 -48t-101.5 -17.5q-34 0 -64 5t-50 20q-2 2 -3.5 1t-3.5 -3zM319 570q-46 0 -74.5 -23.5t-39.5 -56.5q-17 -53 -33.5 -114t-20.5 -120q0 -9 6 -1l209 293
q5 6 3 8.5t-4 3.5q-20 10 -46 10zM226 130q49 0 76 23.5t38 56.5q15 46 28.5 101.5t20.5 106.5q0 7 -4 1l-197 -276q-3 -5 -1 -6.5t4 -2.5q13 -4 35 -4z" />
    <glyph glyph-name="Ugrave" unicode="&#xd9;" 
d="M156 210q-7 -33 13 -56.5t65 -23.5q51 0 79 23.5t35 56.5l100 470q2 8 9 14t15 6h101q8 0 13 -6t3 -14l-100 -470q-10 -45 -31 -85.5t-54 -70.5t-78 -47.5t-102 -17.5q-51 0 -93.5 17.5t-71.5 47.5t-41.5 70.5t-2.5 85.5l100 470q2 8 9 14t15 6h101q8 0 13 -6t3 -14z
M341 910q11 0 15.5 -5.5t6.5 -10.5l58 -114q6 -12 -2 -21t-18 -9h-63q-14 0 -18.5 3.5t-8.5 8.5l-89 121q-7 9 -1.5 18t19.5 9h101z" />
    <glyph glyph-name="Uacute" unicode="&#xda;" 
d="M156 210q-7 -33 13 -56.5t65 -23.5q51 0 79 23.5t35 56.5l100 470q2 8 9 14t15 6h101q8 0 13 -6t3 -14l-100 -470q-10 -45 -31 -85.5t-54 -70.5t-78 -47.5t-102 -17.5q-51 0 -93.5 17.5t-71.5 47.5t-41.5 70.5t-2.5 85.5l100 470q2 8 9 14t15 6h101q8 0 13 -6t3 -14z
M549 910q14 0 15 -9t-9 -18l-141 -121q-5 -5 -12 -8.5t-21 -3.5h-69q-10 0 -14 9t8 21l106 114q5 5 12 10.5t18 5.5h107z" />
    <glyph glyph-name="Ucircumflex" unicode="&#xdb;" 
d="M156 210q-7 -33 13 -56.5t65 -23.5q51 0 79 23.5t35 56.5l100 470q2 8 9 14t15 6h101q8 0 13 -6t3 -14l-100 -470q-10 -45 -31 -85.5t-54 -70.5t-78 -47.5t-102 -17.5q-51 0 -93.5 17.5t-71.5 47.5t-41.5 70.5t-2.5 85.5l100 470q2 8 9 14t15 6h101q8 0 13 -6t3 -14z
M320 766q-5 -5 -14.5 -10.5t-20.5 -5.5h-95q-12 0 -11 10t6 15l145 123q5 5 12 8.5t21 3.5h62q13 0 17.5 -3.5t8.5 -8.5l93 -123q4 -5 -0.5 -15t-18.5 -10h-85q-11 0 -17.5 5.5t-9.5 10.5l-30 44q-6 7 -14 0z" />
    <glyph glyph-name="Udieresis" unicode="&#xdc;" 
d="M156 210q-7 -33 13 -56.5t65 -23.5q51 0 79 23.5t35 56.5l100 470q2 8 9 14t15 6h101q8 0 13 -6t3 -14l-100 -470q-10 -45 -31 -85.5t-54 -70.5t-78 -47.5t-102 -17.5q-51 0 -93.5 17.5t-71.5 47.5t-41.5 70.5t-2.5 85.5l100 470q2 8 9 14t15 6h101q8 0 13 -6t3 -14z
M337 780q-2 -8 -9 -14t-15 -6h-90q-8 0 -13 6t-3 14l19 90q2 8 9 14t15 6h90q8 0 13 -6t3 -14zM537 780q-2 -8 -9 -14t-15 -6h-90q-8 0 -13 6t-3 14l19 90q2 8 9 14t15 6h90q8 0 13 -6t3 -14z" />
    <glyph glyph-name="Yacute" unicode="&#xdd;" 
d="M449 685q8 15 22 15h109q10 0 13.5 -8.5t-3.5 -19.5l-272 -446l-44 -206q-2 -8 -9 -14t-15 -6h-100q-8 0 -13 6t-3 14l44 206l-82 446q-2 11 5 19.5t17 8.5h100q13 0 16 -15l43 -277q0 -4 4 -4h2q3 0 6 4zM544 910q14 0 15 -9t-9 -18l-141 -121q-5 -5 -12 -8.5t-21 -3.5
h-69q-10 0 -14 9t8 21l106 114q5 5 12 10.5t18 5.5h107z" />
    <glyph glyph-name="Thorn" unicode="&#xde;" 
d="M386 380q6 29 -10 49.5t-45 20.5h-70q-10 0 -12 -10l-37 -170q-2 -10 8 -10h70q33 0 55.5 20.5t29.5 49.5zM515 330q-9 -44 -30 -82t-53 -66.5t-75 -45t-96 -16.5h-70q-10 0 -13 -10l-19 -90q-2 -8 -9 -14t-15 -6h-100q-8 0 -12.5 6t-2.5 14l140 660q2 8 9 14t15 6h100
q8 0 13 -6t3 -14l-17 -80q-3 -10 8 -10h70q41 0 75.5 -16.5t57.5 -45t32 -67t0 -81.5z" />
    <glyph glyph-name="germandbls" unicode="&#xdf;" 
d="M111 501q9 44 29.5 82t50.5 66t70 44t88 16q42 0 77 -12t61 -33.5t40.5 -53t14.5 -70.5q0 -32 -7 -55.5t-18 -43t-26.5 -35.5t-31.5 -33q-5 -6 -6.5 -11t3.5 -11q15 -20 24.5 -45.5t9.5 -55.5q0 -66 -22 -113t-59.5 -77.5t-87 -45t-103.5 -14.5h-16q-8 0 -13 6t-3 14
l20 91q2 8 9 14t15 6h16q48 0 79 25.5t31 73.5q0 31 -20 47t-56 16h-12q-8 0 -12.5 6t-2.5 14l19 89q2 8 9 14t15 6h12q20 0 38.5 7t32.5 19.5t22.5 31t8.5 41.5q0 26 -18.5 41.5t-50.5 15.5q-38 0 -64.5 -20.5t-34.5 -56.5l-103 -481q-2 -8 -9 -14t-15 -6h-91q-8 0 -12.5 6
t-2.5 14z" />
    <glyph glyph-name="agrave" unicode="&#xe0;" 
d="M339 304q0 34 -16 55t-51 21t-57.5 -18t-36 -44t-19 -57t-5.5 -56q0 -41 17.5 -63t49.5 -22q33 0 55.5 18t36.5 45.5t20 59.5t6 61zM183 -10q-33 0 -63 14.5t-52.5 40t-35.5 61.5t-13 80q0 64 17.5 122.5t50 103t78.5 71t104 26.5q37 0 61 -14.5t37 -31.5q4 -5 7 -9t8 -4
q6 0 10 8l12 29q6 13 15 13h74q8 0 13 -6t3 -14l-99 -460q-2 -8 -9 -14t-15 -6h-61q-11 0 -13 10q-1 4 -0.5 9.5t0 10t-2.5 7.5t-6 3q-7 0 -14.5 -8t-20.5 -17t-33 -17t-52 -8zM315 730q11 0 15.5 -5.5t6.5 -10.5l58 -114q6 -12 -2 -21t-18 -9h-63q-14 0 -18.5 3.5t-8.5 8.5
l-89 121q-7 9 -1.5 18t19.5 9h101z" />
    <glyph glyph-name="aacute" unicode="&#xe1;" 
d="M339 304q0 34 -16 55t-51 21t-57.5 -18t-36 -44t-19 -57t-5.5 -56q0 -41 17.5 -63t49.5 -22q33 0 55.5 18t36.5 45.5t20 59.5t6 61zM183 -10q-33 0 -63 14.5t-52.5 40t-35.5 61.5t-13 80q0 64 17.5 122.5t50 103t78.5 71t104 26.5q37 0 61 -14.5t37 -31.5q4 -5 7 -9t8 -4
q6 0 10 8l12 29q6 13 15 13h74q8 0 13 -6t3 -14l-99 -460q-2 -8 -9 -14t-15 -6h-61q-11 0 -13 10q-1 4 -0.5 9.5t0 10t-2.5 7.5t-6 3q-7 0 -14.5 -8t-20.5 -17t-33 -17t-52 -8zM475 730q14 0 15 -9t-9 -18l-141 -121q-5 -5 -12 -8.5t-21 -3.5h-69q-10 0 -14 9t8 21l106 114
q5 5 12 10.5t18 5.5h107z" />
    <glyph glyph-name="acircumflex" unicode="&#xe2;" 
d="M339 304q0 34 -16 55t-51 21t-57.5 -18t-36 -44t-19 -57t-5.5 -56q0 -41 17.5 -63t49.5 -22q33 0 55.5 18t36.5 45.5t20 59.5t6 61zM183 -10q-33 0 -63 14.5t-52.5 40t-35.5 61.5t-13 80q0 64 17.5 122.5t50 103t78.5 71t104 26.5q37 0 61 -14.5t37 -31.5q4 -5 7 -9t8 -4
q6 0 10 8l12 29q6 13 15 13h74q8 0 13 -6t3 -14l-99 -460q-2 -8 -9 -14t-15 -6h-61q-11 0 -13 10q-1 4 -0.5 9.5t0 10t-2.5 7.5t-6 3q-7 0 -14.5 -8t-20.5 -17t-33 -17t-52 -8zM273 586q-5 -5 -14.5 -10.5t-20.5 -5.5h-95q-12 0 -11 10t6 15l145 123q5 5 12 8.5t21 3.5h62
q13 0 17.5 -3.5t8.5 -8.5l93 -123q4 -5 -0.5 -15t-18.5 -10h-85q-11 0 -17.5 5.5t-9.5 10.5l-30 44q-6 7 -14 0z" />
    <glyph glyph-name="atilde" unicode="&#xe3;" 
d="M339 304q0 34 -16 55t-51 21t-57.5 -18t-36 -44t-19 -57t-5.5 -56q0 -41 17.5 -63t49.5 -22q33 0 55.5 18t36.5 45.5t20 59.5t6 61zM183 -10q-33 0 -63 14.5t-52.5 40t-35.5 61.5t-13 80q0 64 17.5 122.5t50 103t78.5 71t104 26.5q37 0 61 -14.5t37 -31.5q4 -5 7 -9t8 -4
q6 0 10 8l12 29q6 13 15 13h74q8 0 13 -6t3 -14l-99 -460q-2 -8 -9 -14t-15 -6h-61q-11 0 -13 10q-1 4 -0.5 9.5t0 10t-2.5 7.5t-6 3q-7 0 -14.5 -8t-20.5 -17t-33 -17t-52 -8zM443 684q19 0 30.5 6.5t19.5 14.5t16.5 4t5.5 -18l-12 -60q-4 -20 -28 -35.5t-54 -15.5
q-24 0 -45 4t-41 8.5t-42 8.5t-47 4q-17 0 -28.5 -5.5t-21.5 -15.5q-8 -7 -16.5 -3.5t-5.5 17.5l12 60q4 20 28 35.5t54 15.5q24 0 45 -4t41 -8.5t41.5 -8.5t47.5 -4z" />
    <glyph glyph-name="adieresis" unicode="&#xe4;" 
d="M339 304q0 34 -16 55t-51 21t-57.5 -18t-36 -44t-19 -57t-5.5 -56q0 -41 17.5 -63t49.5 -22q33 0 55.5 18t36.5 45.5t20 59.5t6 61zM183 -10q-33 0 -63 14.5t-52.5 40t-35.5 61.5t-13 80q0 64 17.5 122.5t50 103t78.5 71t104 26.5q37 0 61 -14.5t37 -31.5q4 -5 7 -9t8 -4
q6 0 10 8l12 29q6 13 15 13h74q8 0 13 -6t3 -14l-99 -460q-2 -8 -9 -14t-15 -6h-61q-11 0 -13 10q-1 4 -0.5 9.5t0 10t-2.5 7.5t-6 3q-7 0 -14.5 -8t-20.5 -17t-33 -17t-52 -8zM280 600q-2 -8 -9 -14t-15 -6h-90q-8 0 -13 6t-3 14l19 90q2 8 9 14t15 6h90q8 0 13 -6t3 -14z
M480 600q-2 -8 -9 -14t-15 -6h-90q-8 0 -13 6t-3 14l19 90q2 8 9 14t15 6h90q8 0 13 -6t3 -14z" />
    <glyph glyph-name="aring" unicode="&#xe5;" 
d="M339 304q0 34 -16 55t-51 21t-57.5 -18t-36 -44t-19 -57t-5.5 -56q0 -41 17.5 -63t49.5 -22q33 0 55.5 18t36.5 45.5t20 59.5t6 61zM183 -10q-33 0 -63 14.5t-52.5 40t-35.5 61.5t-13 80q0 64 17.5 122.5t50 103t78.5 71t104 26.5q37 0 61 -14.5t37 -31.5q4 -5 7 -9t8 -4
q6 0 10 8l12 29q6 13 15 13h74q8 0 13 -6t3 -14l-99 -460q-2 -8 -9 -14t-15 -6h-61q-11 0 -13 10q-1 4 -0.5 9.5t0 10t-2.5 7.5t-6 3q-7 0 -14.5 -8t-20.5 -17t-33 -17t-52 -8zM207 649q0 28 10 53t27.5 43.5t41.5 29t53 10.5q24 0 43 -8t32.5 -21t20.5 -30.5t7 -36.5
q0 -34 -12 -59t-31 -42t-42 -25.5t-44 -8.5q-24 0 -43.5 8t-33.5 21t-21.5 30.5t-7.5 35.5zM331 702q-14 0 -24.5 -9t-13.5 -23t4 -23t21 -9t25 9t14 23t-4.5 23t-21.5 9z" />
    <glyph glyph-name="ae" unicode="&#xe6;" 
d="M249 24q-17 15 -38 0q-23 -17 -44.5 -26t-51.5 -9q-23 0 -46.5 9t-42.5 26.5t-31 41.5t-12 54q0 39 14 74t39.5 60.5t61.5 40.5t80 15h36q10 0 12 10l4 16q8 30 -2.5 45.5t-25.5 15.5q-20 0 -32.5 -9t-20.5 -29q-5 -13 -11 -16t-20 -3h-62q-8 0 -13 6t-3 14q6 27 20.5 54
t37 48.5t50.5 35t61 13.5q41 0 62.5 -9t40.5 -29q5 -5 13 -6t17 6q22 16 41 27t52 11q45 0 73.5 -17.5t42.5 -50t14 -79t-12 -104.5l-7 -30q-2 -8 -9 -14t-15 -6h-183q-15 0 -18 -15q-9 -42 2 -65.5t40 -23.5q42 0 62 46q4 10 11.5 13.5t14.5 3.5h63q17 0 13 -20
q-6 -26 -20 -54t-35.5 -51.5t-50 -39t-61.5 -15.5q-48 0 -73.5 12t-37.5 23zM165 204q-19 0 -32 -6t-21.5 -15t-12 -20.5t-3.5 -22.5q0 -20 11 -29t28 -9q26 0 42.5 20t24.5 58l3 14q2 10 -8 10h-32zM342 319q-2 -9 8 -9h101q10 0 12 9q8 36 -4 55t-38 19q-32 0 -52.5 -22.5
t-26.5 -51.5z" />
    <glyph glyph-name="ccedilla" unicode="&#xe7;" 
d="M231 117q38 0 60 16.5t30 41.5q10 30 37 30h72q32 0 23 -30q-12 -40 -30 -74t-45.5 -59t-65.5 -39t-88 -14q-46 0 -82.5 14t-60.5 39t-35.5 59t-8.5 73q1 15 3.5 35t6.5 40.5t8.5 40.5t9.5 35q13 39 31 73t44.5 59t63.5 39.5t90 14.5q46 0 83.5 -14.5t62.5 -39.5
t36.5 -59t5.5 -73q-5 -30 -36 -30h-69q-30 0 -25 30q4 26 -12 42t-54 16t-58 -14.5t-31 -43.5q-6 -15 -11 -34.5t-9 -40.5t-7 -40.5t-4 -34.5q-2 -26 12.5 -42t52.5 -16zM230 -176q-10 -24 -37 -24h-62q-12 0 -18 4t-8 10t-0.5 12.5t4.5 12.5l49 92q11 24 37 24h54
q12 0 18 -4t7.5 -9.5t0.5 -12.5t-4 -13z" />
    <glyph glyph-name="egrave" unicode="&#xe8;" 
d="M156 195q-9 -42 12.5 -63.5t57.5 -21.5q29 0 51.5 8.5t36.5 33.5q5 10 12 13.5t14 3.5h83q8 0 12.5 -4.5t0.5 -15.5q-26 -71 -79.5 -115.5t-136.5 -44.5q-50 0 -87 14.5t-60 39.5t-33 59t-7 73q1 15 4 34.5t7.5 40.5t9.5 40.5t10 34.5q13 39 34 73t49.5 59t64 39.5
t79.5 14.5q45 0 83 -13t63.5 -38.5t35.5 -62t0 -84.5l-18 -83q-2 -8 -9 -14t-15 -6h-257q-15 0 -18 -15zM186 330q-3 -9 8 -9h152q9 0 12 9q16 63 -72 63q-43 0 -67.5 -17.5t-32.5 -45.5zM295 730q11 0 15.5 -5.5t6.5 -10.5l58 -114q6 -12 -2 -21t-18 -9h-63
q-14 0 -18.5 3.5t-8.5 8.5l-89 121q-7 9 -1.5 18t19.5 9h101z" />
    <glyph glyph-name="eacute" unicode="&#xe9;" 
d="M156 195q-9 -42 12.5 -63.5t57.5 -21.5q29 0 51.5 8.5t36.5 33.5q5 10 12 13.5t14 3.5h83q8 0 12.5 -4.5t0.5 -15.5q-26 -71 -79.5 -115.5t-136.5 -44.5q-50 0 -87 14.5t-60 39.5t-33 59t-7 73q1 15 4 34.5t7.5 40.5t9.5 40.5t10 34.5q13 39 34 73t49.5 59t64 39.5
t79.5 14.5q45 0 83 -13t63.5 -38.5t35.5 -62t0 -84.5l-18 -83q-2 -8 -9 -14t-15 -6h-257q-15 0 -18 -15zM186 330q-3 -9 8 -9h152q9 0 12 9q16 63 -72 63q-43 0 -67.5 -17.5t-32.5 -45.5zM505 730q14 0 15 -9t-9 -18l-141 -121q-5 -5 -12 -8.5t-21 -3.5h-69q-10 0 -14 9
t8 21l106 114q5 5 12 10.5t18 5.5h107z" />
    <glyph glyph-name="ecircumflex" unicode="&#xea;" 
d="M156 195q-9 -42 12.5 -63.5t57.5 -21.5q29 0 51.5 8.5t36.5 33.5q5 10 12 13.5t14 3.5h83q8 0 12.5 -4.5t0.5 -15.5q-26 -71 -79.5 -115.5t-136.5 -44.5q-50 0 -87 14.5t-60 39.5t-33 59t-7 73q1 15 4 34.5t7.5 40.5t9.5 40.5t10 34.5q13 39 34 73t49.5 59t64 39.5
t79.5 14.5q45 0 83 -13t63.5 -38.5t35.5 -62t0 -84.5l-18 -83q-2 -8 -9 -14t-15 -6h-257q-15 0 -18 -15zM186 330q-3 -9 8 -9h152q9 0 12 9q16 63 -72 63q-43 0 -67.5 -17.5t-32.5 -45.5zM293 586q-5 -5 -14.5 -10.5t-20.5 -5.5h-95q-12 0 -11 10t6 15l145 123q5 5 12 8.5
t21 3.5h62q13 0 17.5 -3.5t8.5 -8.5l93 -123q4 -5 -0.5 -15t-18.5 -10h-85q-11 0 -17.5 5.5t-9.5 10.5l-30 44q-6 7 -14 0z" />
    <glyph glyph-name="edieresis" unicode="&#xeb;" 
d="M156 195q-9 -42 12.5 -63.5t57.5 -21.5q29 0 51.5 8.5t36.5 33.5q5 10 12 13.5t14 3.5h83q8 0 12.5 -4.5t0.5 -15.5q-26 -71 -79.5 -115.5t-136.5 -44.5q-50 0 -87 14.5t-60 39.5t-33 59t-7 73q1 15 4 34.5t7.5 40.5t9.5 40.5t10 34.5q13 39 34 73t49.5 59t64 39.5
t79.5 14.5q45 0 83 -13t63.5 -38.5t35.5 -62t0 -84.5l-18 -83q-2 -8 -9 -14t-15 -6h-257q-15 0 -18 -15zM186 330q-3 -9 8 -9h152q9 0 12 9q16 63 -72 63q-43 0 -67.5 -17.5t-32.5 -45.5zM290 600q-2 -8 -9 -14t-15 -6h-90q-8 0 -13 6t-3 14l19 90q2 8 9 14t15 6h90
q8 0 13 -6t3 -14zM490 600q-2 -8 -9 -14t-15 -6h-90q-8 0 -13 6t-3 14l19 90q2 8 9 14t15 6h90q8 0 13 -6t3 -14z" />
    <glyph glyph-name="igrave" unicode="&#xec;" 
d="M262 730q11 0 15.5 -5.5t6.5 -10.5l58 -114q6 -12 -2 -21t-18 -9h-63q-14 0 -18.5 3.5t-8.5 8.5l-89 121q-7 9 -1.5 18t19.5 9h101zM123 373q-8 0 -13 6t-3 14l18 87q2 8 9.5 14t15.5 6h224q7 0 10.5 -5t1.5 -11l-73 -344q-2 -10 8 -10h110q8 0 13 -6t3 -14l-19 -90
q-2 -8 -9.5 -14t-15.5 -6h-370q-8 0 -12.5 6t-2.5 14l19 90q2 8 9 14t15 6h110q10 0 12 10l48 223q2 10 -8 10h-100z" />
    <glyph glyph-name="iacute" unicode="&#xed;" 
d="M492 730q14 0 15 -9t-9 -18l-141 -121q-5 -5 -12 -8.5t-21 -3.5h-69q-10 0 -14 9t8 21l106 114q5 5 12 10.5t18 5.5h107zM123 373q-8 0 -13 6t-3 14l18 87q2 8 9.5 14t15.5 6h224q7 0 10.5 -5t1.5 -11l-73 -344q-2 -10 8 -10h110q8 0 13 -6t3 -14l-19 -90q-2 -8 -9.5 -14
t-15.5 -6h-370q-8 0 -12.5 6t-2.5 14l19 90q2 8 9 14t15 6h110q10 0 12 10l48 223q2 10 -8 10h-100z" />
    <glyph glyph-name="icircumflex" unicode="&#xee;" 
d="M123 373q-8 0 -13 6t-3 14l18 87q2 8 9.5 14t15.5 6h224q7 0 10.5 -5t1.5 -11l-73 -344q-2 -10 8 -10h110q8 0 13 -6t3 -14l-19 -90q-2 -8 -9.5 -14t-15.5 -6h-370q-8 0 -12.5 6t-2.5 14l19 90q2 8 9 14t15 6h110q10 0 12 10l48 223q2 10 -8 10h-100zM260 586
q-5 -5 -14.5 -10.5t-20.5 -5.5h-95q-12 0 -11 10t6 15l145 123q5 5 12 8.5t21 3.5h62q13 0 17.5 -3.5t8.5 -8.5l93 -123q4 -5 -0.5 -15t-18.5 -10h-85q-11 0 -17.5 5.5t-9.5 10.5l-30 44q-6 7 -14 0z" />
    <glyph glyph-name="idieresis" unicode="&#xef;" 
d="M257 600q-2 -8 -9 -14t-15 -6h-90q-8 0 -13 6t-3 14l19 90q2 8 9 14t15 6h90q8 0 13 -6t3 -14zM457 600q-2 -8 -9 -14t-15 -6h-90q-8 0 -13 6t-3 14l19 90q2 8 9 14t15 6h90q8 0 13 -6t3 -14zM123 373q-8 0 -13 6t-3 14l18 87q2 8 9.5 14t15.5 6h224q7 0 10.5 -5t1.5 -11
l-73 -344q-2 -10 8 -10h110q8 0 13 -6t3 -14l-19 -90q-2 -8 -9.5 -14t-15.5 -6h-370q-8 0 -12.5 6t-2.5 14l19 90q2 8 9 14t15 6h110q10 0 12 10l48 223q2 10 -8 10h-100z" />
    <glyph glyph-name="eth" unicode="&#xf0;" 
d="M212 118q23 0 44 11t36.5 30.5t25 45.5t9.5 55q1 30 -15 52.5t-55 22.5q-27 0 -48.5 -12t-37.5 -31t-24.5 -43.5t-8.5 -48.5q0 -39 21 -60.5t53 -21.5zM278 580h-70q-8 0 -12.5 6t-2.5 14l16 80q3 17 18 18.5t28 1.5h44q76 0 124 -39q2 -1 3.5 -1t5.5 2l85 43q8 5 16 0.5
t6 -14.5l-11 -61q-2 -10 -6 -14.5t-12 -9.5l-27 -16q-4 -2 -6.5 -5t-0.5 -5q10 -20 12 -45.5t2 -54.5q0 -26 -2.5 -60.5t-8 -71.5t-13.5 -74t-18 -68l-10 -27q-16 -40 -38 -75t-51 -60.5t-65.5 -40t-79.5 -14.5q-47 0 -83.5 16t-61 42.5t-37 62t-12.5 74.5q0 67 22.5 119
t58.5 86.5t81.5 52.5t91.5 18q35 0 51 -6.5t25 -11.5q8 -5 16 -1.5t10 14.5q3 16 4 29.5t-3 25.5q-2 5 -4.5 5.5t-4.5 -1.5l-73 -36q-9 -5 -18 -1t-7 15l9 51q1 10 15 16q13 6 12.5 13.5t-12.5 7.5h-6z" />
    <glyph glyph-name="ntilde" unicode="&#xf1;" 
d="M222 476q11 0 21.5 5.5t23.5 12t29 12t39 5.5q39 0 71 -14.5t52 -39.5t28 -59t-1 -73l-65 -305q-2 -8 -9 -14t-15 -6h-90q-8 0 -13 6t-3 14l65 306q5 25 -10.5 42t-51.5 17q-35 0 -58.5 -16t-28.5 -39l-66 -310q-2 -8 -9 -14t-15 -6h-90q-8 0 -13 6t-3 14l98 460
q2 8 9 14t15 6h50q9 0 13.5 -3.5t7.5 -8.5t7 -8.5t12 -3.5zM438 684q19 0 30.5 6.5t19.5 14.5t16.5 4t5.5 -18l-12 -60q-4 -20 -28 -35.5t-54 -15.5q-24 0 -45 4t-41 8.5t-42 8.5t-47 4q-17 0 -28.5 -5.5t-21.5 -15.5q-8 -7 -16.5 -3.5t-5.5 17.5l12 60q4 20 28 35.5
t54 15.5q24 0 45 -4t41 -8.5t41.5 -8.5t47.5 -4z" />
    <glyph glyph-name="ograve" unicode="&#xf2;" 
d="M295 511q46 0 82.5 -14.5t61 -39.5t36 -59t8.5 -73q-1 -15 -4 -34.5t-7 -40.5t-8.5 -40.5t-9.5 -34.5q-14 -39 -32.5 -73t-45.5 -59t-64 -39.5t-87 -14.5q-46 0 -82.5 14.5t-61 39.5t-36 59t-8.5 73q1 15 4 34.5t7 40.5t8.5 40.5t9.5 34.5q13 39 32.5 73t46.5 59t64 39.5
t86 14.5zM232 117q38 0 59.5 16.5t30.5 41.5q5 15 10.5 34.5t9.5 40.5t7 40.5t4 34.5q2 25 -13 41.5t-53 16.5t-58 -14.5t-31 -43.5q-6 -15 -11 -34.5t-9 -40.5t-7 -40.5t-4 -34.5q-2 -26 12.5 -42t52.5 -16zM300 730q11 0 15.5 -5.5t6.5 -10.5l58 -114q6 -12 -2 -21t-18 -9
h-63q-14 0 -18.5 3.5t-8.5 8.5l-89 121q-7 9 -1.5 18t19.5 9h101z" />
    <glyph glyph-name="oacute" unicode="&#xf3;" 
d="M295 511q46 0 82.5 -14.5t61 -39.5t36 -59t8.5 -73q-1 -15 -4 -34.5t-7 -40.5t-8.5 -40.5t-9.5 -34.5q-14 -39 -32.5 -73t-45.5 -59t-64 -39.5t-87 -14.5q-46 0 -82.5 14.5t-61 39.5t-36 59t-8.5 73q1 15 4 34.5t7 40.5t8.5 40.5t9.5 34.5q13 39 32.5 73t46.5 59t64 39.5
t86 14.5zM232 117q38 0 59.5 16.5t30.5 41.5q5 15 10.5 34.5t9.5 40.5t7 40.5t4 34.5q2 25 -13 41.5t-53 16.5t-58 -14.5t-31 -43.5q-6 -15 -11 -34.5t-9 -40.5t-7 -40.5t-4 -34.5q-2 -26 12.5 -42t52.5 -16zM500 730q14 0 15 -9t-9 -18l-141 -121q-5 -5 -12 -8.5t-21 -3.5
h-69q-10 0 -14 9t8 21l106 114q5 5 12 10.5t18 5.5h107z" />
    <glyph glyph-name="ocircumflex" unicode="&#xf4;" 
d="M295 511q46 0 82.5 -14.5t61 -39.5t36 -59t8.5 -73q-1 -15 -4 -34.5t-7 -40.5t-8.5 -40.5t-9.5 -34.5q-14 -39 -32.5 -73t-45.5 -59t-64 -39.5t-87 -14.5q-46 0 -82.5 14.5t-61 39.5t-36 59t-8.5 73q1 15 4 34.5t7 40.5t8.5 40.5t9.5 34.5q13 39 32.5 73t46.5 59t64 39.5
t86 14.5zM232 117q38 0 59.5 16.5t30.5 41.5q5 15 10.5 34.5t9.5 40.5t7 40.5t4 34.5q2 25 -13 41.5t-53 16.5t-58 -14.5t-31 -43.5q-6 -15 -11 -34.5t-9 -40.5t-7 -40.5t-4 -34.5q-2 -26 12.5 -42t52.5 -16zM288 586q-5 -5 -14.5 -10.5t-20.5 -5.5h-95q-12 0 -11 10t6 15
l145 123q5 5 12 8.5t21 3.5h62q13 0 17.5 -3.5t8.5 -8.5l93 -123q4 -5 -0.5 -15t-18.5 -10h-85q-11 0 -17.5 5.5t-9.5 10.5l-30 44q-6 7 -14 0z" />
    <glyph glyph-name="otilde" unicode="&#xf5;" 
d="M295 511q46 0 82.5 -14.5t61 -39.5t36 -59t8.5 -73q-1 -15 -4 -34.5t-7 -40.5t-8.5 -40.5t-9.5 -34.5q-14 -39 -32.5 -73t-45.5 -59t-64 -39.5t-87 -14.5q-46 0 -82.5 14.5t-61 39.5t-36 59t-8.5 73q1 15 4 34.5t7 40.5t8.5 40.5t9.5 34.5q13 39 32.5 73t46.5 59t64 39.5
t86 14.5zM232 117q38 0 59.5 16.5t30.5 41.5q5 15 10.5 34.5t9.5 40.5t7 40.5t4 34.5q2 25 -13 41.5t-53 16.5t-58 -14.5t-31 -43.5q-6 -15 -11 -34.5t-9 -40.5t-7 -40.5t-4 -34.5q-2 -26 12.5 -42t52.5 -16zM428 684q19 0 30.5 6.5t19.5 14.5t16.5 4t5.5 -18l-12 -60
q-4 -20 -28 -35.5t-54 -15.5q-24 0 -45 4t-41 8.5t-42 8.5t-47 4q-17 0 -28.5 -5.5t-21.5 -15.5q-8 -7 -16.5 -3.5t-5.5 17.5l12 60q4 20 28 35.5t54 15.5q24 0 45 -4t41 -8.5t41.5 -8.5t47.5 -4z" />
    <glyph glyph-name="odieresis" unicode="&#xf6;" 
d="M295 511q46 0 82.5 -14.5t61 -39.5t36 -59t8.5 -73q-1 -15 -4 -34.5t-7 -40.5t-8.5 -40.5t-9.5 -34.5q-14 -39 -32.5 -73t-45.5 -59t-64 -39.5t-87 -14.5q-46 0 -82.5 14.5t-61 39.5t-36 59t-8.5 73q1 15 4 34.5t7 40.5t8.5 40.5t9.5 34.5q13 39 32.5 73t46.5 59t64 39.5
t86 14.5zM232 117q38 0 59.5 16.5t30.5 41.5q5 15 10.5 34.5t9.5 40.5t7 40.5t4 34.5q2 25 -13 41.5t-53 16.5t-58 -14.5t-31 -43.5q-6 -15 -11 -34.5t-9 -40.5t-7 -40.5t-4 -34.5q-2 -26 12.5 -42t52.5 -16zM295 600q-2 -8 -9 -14t-15 -6h-90q-8 0 -13 6t-3 14l19 90
q2 8 9 14t15 6h90q8 0 13 -6t3 -14zM495 600q-2 -8 -9 -14t-15 -6h-90q-8 0 -13 6t-3 14l19 90q2 8 9 14t15 6h90q8 0 13 -6t3 -14z" />
    <glyph glyph-name="divide" unicode="&#xf7;" 
d="M492 311q8 0 13 -6t3 -14l-17 -79q-2 -8 -9 -14t-15 -6h-410q-8 0 -13 6t-3 14l17 79q2 8 9 14t15 6h410zM297 20q-2 -8 -9.5 -14t-15.5 -6h-103q-8 0 -12.5 6t-2.5 14l22 103q2 8 9 14t15 6h103q8 0 13 -6t3 -14zM372 377q-2 -8 -9 -14t-15 -6h-103q-8 0 -13 6t-3 14
l22 103q2 8 9.5 14t15.5 6h103q8 0 12.5 -6t2.5 -14z" />
    <glyph glyph-name="oslash" unicode="&#xf8;" 
d="M479 407q-5 -5 -5 -8t1 -5q5 -16 7 -33.5t0 -35.5q-1 -15 -4 -34.5t-7 -40.5t-8.5 -40.5t-9.5 -34.5q-14 -39 -32.5 -73t-45.5 -59t-64 -39.5t-87 -14.5q-35 0 -64 8.5t-52 22.5q-2 1 -5 2t-8 -4l-3 -3q-7 -7 -12 -11t-12 -4h-71q-10 0 -14.5 9.5t4.5 18.5l56 56q5 5 4 8
t-2 5q-14 35 -9 78q1 15 4 34.5t7 40.5t8.5 40.5t9.5 34.5q13 39 32.5 73t46.5 59t64 39.5t86 14.5q74 0 124 -36q2 -2 4.5 -3t7.5 4l9 9l11 11t11 4h71q10 0 14.5 -9.5t-4.5 -18.5zM197 325q-8 -20 -14 -47.5t-11 -53.5q-1 -3 0 -5.5t6 2.5l143 145q6 6 4 8.5t-4 3.5
q-13 5 -35 5q-38 0 -58 -14.5t-31 -43.5zM321 175q6 17 11.5 39.5t10.5 45.5q1 3 -0.5 5.5t-6.5 -2.5l-133 -135q-5 -5 -2.5 -6t4.5 -2q10 -3 26 -3q38 0 59.5 16.5t30.5 41.5z" />
    <glyph glyph-name="ugrave" unicode="&#xf9;" 
d="M302 24q-11 0 -21.5 -5.5t-23.5 -12t-29.5 -12t-38.5 -5.5q-39 0 -71 14.5t-52 39.5t-28 59t1 73l65 305q2 8 9 14t15 6h90q8 0 13 -6t3 -14l-65 -306q-5 -25 10.5 -42t51.5 -17q35 0 58.5 16t28.5 39l66 310q2 8 9 14t15 6h90q8 0 13 -6t3 -14l-98 -460q-2 -8 -9 -14
t-15 -6h-50q-9 0 -13 3.5t-8 8.5q-3 5 -7 8.5t-12 3.5zM295 730q11 0 15.5 -5.5t6.5 -10.5l58 -114q6 -12 -2 -21t-18 -9h-63q-14 0 -18.5 3.5t-8.5 8.5l-89 121q-7 9 -1.5 18t19.5 9h101z" />
    <glyph glyph-name="uacute" unicode="&#xfa;" 
d="M302 24q-11 0 -21.5 -5.5t-23.5 -12t-29.5 -12t-38.5 -5.5q-39 0 -71 14.5t-52 39.5t-28 59t1 73l65 305q2 8 9 14t15 6h90q8 0 13 -6t3 -14l-65 -306q-5 -25 10.5 -42t51.5 -17q35 0 58.5 16t28.5 39l66 310q2 8 9 14t15 6h90q8 0 13 -6t3 -14l-98 -460q-2 -8 -9 -14
t-15 -6h-50q-9 0 -13 3.5t-8 8.5q-3 5 -7 8.5t-12 3.5zM485 730q14 0 15 -9t-9 -18l-141 -121q-5 -5 -12 -8.5t-21 -3.5h-69q-10 0 -14 9t8 21l106 114q5 5 12 10.5t18 5.5h107z" />
    <glyph glyph-name="ucircumflex" unicode="&#xfb;" 
d="M302 24q-11 0 -21.5 -5.5t-23.5 -12t-29.5 -12t-38.5 -5.5q-39 0 -71 14.5t-52 39.5t-28 59t1 73l65 305q2 8 9 14t15 6h90q8 0 13 -6t3 -14l-65 -306q-5 -25 10.5 -42t51.5 -17q35 0 58.5 16t28.5 39l66 310q2 8 9 14t15 6h90q8 0 13 -6t3 -14l-98 -460q-2 -8 -9 -14
t-15 -6h-50q-9 0 -13 3.5t-8 8.5q-3 5 -7 8.5t-12 3.5zM289 586q-5 -5 -14.5 -10.5t-20.5 -5.5h-95q-12 0 -11 10t6 15l145 123q5 5 12 8.5t21 3.5h62q13 0 17.5 -3.5t8.5 -8.5l93 -123q4 -5 -0.5 -15t-18.5 -10h-85q-11 0 -17.5 5.5t-9.5 10.5l-30 44q-6 7 -14 0z" />
    <glyph glyph-name="udieresis" unicode="&#xfc;" 
d="M302 24q-11 0 -21.5 -5.5t-23.5 -12t-29.5 -12t-38.5 -5.5q-39 0 -71 14.5t-52 39.5t-28 59t1 73l65 305q2 8 9 14t15 6h90q8 0 13 -6t3 -14l-65 -306q-5 -25 10.5 -42t51.5 -17q35 0 58.5 16t28.5 39l66 310q2 8 9 14t15 6h90q8 0 13 -6t3 -14l-98 -460q-2 -8 -9 -14
t-15 -6h-50q-9 0 -13 3.5t-8 8.5q-3 5 -7 8.5t-12 3.5zM295 600q-2 -8 -9 -14t-15 -6h-90q-8 0 -13 6t-3 14l19 90q2 8 9 14t15 6h90q8 0 13 -6t3 -14zM495 600q-2 -8 -9 -14t-15 -6h-90q-8 0 -13 6t-3 14l19 90q2 8 9 14t15 6h90q8 0 13 -6t3 -14z" />
    <glyph glyph-name="yacute" unicode="&#xfd;" 
d="M255 -53q-17 -31 -40 -58t-53.5 -46.5t-69 -31t-85.5 -11.5h-28q-8 0 -13 6t-3 14l17 79q2 8 9 14t15 6h38q58 0 85 48l24 43q4 7 5 10.5t-1 11.5l-71 445q-2 8 5 15.5t19 7.5h94q15 0 16 -15l36 -284q1 -6 5 -6t7 6l142 284q7 15 22 15h101q12 0 15.5 -7.5t-1.5 -15.5z
M485 730q14 0 15 -9t-9 -18l-141 -121q-5 -5 -12 -8.5t-21 -3.5h-69q-10 0 -14 9t8 21l106 114q5 5 12 10.5t18 5.5h107z" />
    <glyph glyph-name="thorn" unicode="&#xfe;" 
d="M284 117q38 0 58 14.5t31 43.5q6 15 11 34.5t9 40.5t7 40.5t4 34.5q2 26 -12.5 42t-52.5 16t-59.5 -16.5t-30.5 -41.5q-5 -15 -10.5 -34.5t-9.5 -40.5t-7 -40.5t-4 -34.5q-2 -25 13 -41.5t53 -16.5zM200 690q2 8 9 14t15 6h90q8 0 13 -6t3 -14l-36 -170q-4 -17 4.5 -21.5
t20.5 0.5q10 4 25.5 7.5t30.5 3.5q42 0 73.5 -15t51.5 -40t28.5 -59t5.5 -71q-1 -15 -4 -34.5t-7 -40.5t-8.5 -40.5t-9.5 -34.5q-14 -39 -34 -73t-48 -59t-63.5 -39.5t-78.5 -14.5q-16 0 -27 3t-19 7t-15 7t-14 3q-9 0 -16.5 -7t-10.5 -21l-34 -161q-2 -8 -9 -14t-15 -6h-90
q-8 0 -13 6t-3 14z" />
    <glyph glyph-name="ydieresis" unicode="&#xff;" 
d="M255 -53q-17 -31 -40 -58t-53.5 -46.5t-69 -31t-85.5 -11.5h-28q-8 0 -13 6t-3 14l17 79q2 8 9 14t15 6h38q58 0 85 48l24 43q4 7 5 10.5t-1 11.5l-71 445q-2 8 5 15.5t19 7.5h94q15 0 16 -15l36 -284q1 -6 5 -6t7 6l142 284q7 15 22 15h101q12 0 15.5 -7.5t-1.5 -15.5z
M290 600q-2 -8 -9 -14t-15 -6h-90q-8 0 -13 6t-3 14l19 90q2 8 9 14t15 6h90q8 0 13 -6t3 -14zM490 600q-2 -8 -9 -14t-15 -6h-90q-8 0 -13 6t-3 14l19 90q2 8 9 14t15 6h90q8 0 13 -6t3 -14z" />
    <glyph glyph-name="Amacron" unicode="&#x100;" 
d="M90 15q-7 -15 -22 -15h-110q-12 0 -15.5 6.5t-0.5 13.5l320 665q7 15 22 15h134q16 0 16 -15l36 -665q0 -7 -6 -13.5t-18 -6.5h-99q-16 0 -16 15l-4 103q0 6 -2.5 10.5t-9.5 4.5h-157q-11 0 -18 -15zM211 284q-4 -11 6 -11h97q10 0 10 11v240q0 4 -4 4h-2q-5 0 -6 -4z
M231 760q-8 0 -13 6t-3 14l11 58q2 8 9 14t15 6h262q8 0 13 -6t3 -14l-11 -58q-2 -8 -9 -14t-15 -6h-262z" />
    <glyph glyph-name="amacron" unicode="&#x101;" 
d="M339 304q0 34 -16 55t-51 21t-57.5 -18t-36 -44t-19 -57t-5.5 -56q0 -41 17.5 -63t49.5 -22q33 0 55.5 18t36.5 45.5t20 59.5t6 61zM183 -10q-33 0 -63 14.5t-52.5 40t-35.5 61.5t-13 80q0 64 17.5 122.5t50 103t78.5 71t104 26.5q37 0 61 -14.5t37 -31.5q4 -5 7 -9t8 -4
q6 0 10 8l12 29q6 13 15 13h74q8 0 13 -6t3 -14l-99 -460q-2 -8 -9 -14t-15 -6h-61q-11 0 -13 10q-1 4 -0.5 9.5t0 10t-2.5 7.5t-6 3q-7 0 -14.5 -8t-20.5 -17t-33 -17t-52 -8zM194 596q-8 0 -13 6t-3 14l11 58q2 8 9 14t15 6h262q8 0 13 -6t3 -14l-11 -58q-2 -8 -9 -14
t-15 -6h-262z" />
    <glyph glyph-name="Abreve" unicode="&#x102;" 
d="M90 15q-7 -15 -22 -15h-110q-12 0 -15.5 6.5t-0.5 13.5l320 665q7 15 22 15h134q16 0 16 -15l36 -665q0 -7 -6 -13.5t-18 -6.5h-99q-16 0 -16 15l-4 103q0 6 -2.5 10.5t-9.5 4.5h-157q-11 0 -18 -15zM211 284q-4 -11 6 -11h97q10 0 10 11v240q0 4 -4 4h-2q-5 0 -6 -4z
M437 886q2 7 7.5 12t13.5 5h63q7 0 11 -5t2 -12q-6 -29 -19 -55.5t-34 -46.5t-50.5 -32t-68.5 -12q-36 0 -65 12t-48.5 32t-27.5 46.5t-2 55.5q2 7 8 12t13 5h63q8 0 11.5 -5t1.5 -12q-5 -23 10.5 -39.5t38.5 -16.5q30 0 48.5 16.5t23.5 39.5z" />
    <glyph glyph-name="abreve" unicode="&#x103;" 
d="M339 304q0 34 -16 55t-51 21t-57.5 -18t-36 -44t-19 -57t-5.5 -56q0 -41 17.5 -63t49.5 -22q33 0 55.5 18t36.5 45.5t20 59.5t6 61zM183 -10q-33 0 -63 14.5t-52.5 40t-35.5 61.5t-13 80q0 64 17.5 122.5t50 103t78.5 71t104 26.5q37 0 61 -14.5t37 -31.5q4 -5 7 -9t8 -4
q6 0 10 8l12 29q6 13 15 13h74q8 0 13 -6t3 -14l-99 -460q-2 -8 -9 -14t-15 -6h-61q-11 0 -13 10q-1 4 -0.5 9.5t0 10t-2.5 7.5t-6 3q-7 0 -14.5 -8t-20.5 -17t-33 -17t-52 -8zM393 713q2 7 7.5 12t13.5 5h63q7 0 11 -5t2 -12q-6 -29 -19 -55.5t-34 -46.5t-50.5 -32
t-68.5 -12q-36 0 -65 12t-48.5 32t-27.5 46.5t-2 55.5q2 7 8 12t13 5h63q8 0 11.5 -5t1.5 -12q-5 -23 10.5 -39.5t38.5 -16.5q30 0 48.5 16.5t23.5 39.5z" />
    <glyph glyph-name="Aogonek" unicode="&#x104;" 
d="M446 0q-32 0 -52 -21t-20 -51q0 -20 13.5 -34t35.5 -14q8 0 13 -6t3 -14l-12 -60q-2 -8 -9 -14t-15 -6q-29 0 -55.5 8t-46.5 25t-32 42t-12 60q0 41 22.5 74.5t50.5 52.5l-3 76q0 6 -2.5 10.5t-9.5 4.5h-157q-11 0 -18 -15l-50 -103q-7 -15 -22 -15h-110q-12 0 -15.5 6.5
t-0.5 13.5l320 665q7 15 22 15h134q16 0 16 -15l36 -665q0 -7 -6 -13.5t-18 -6.5zM324 524q0 4 -4 4h-2q-5 0 -6 -4l-101 -240q-4 -11 6 -11h97q10 0 10 11v240z" />
    <glyph glyph-name="aogonek" unicode="&#x105;" 
d="M411 20q-2 -9 -8 -13.5t-14 -6t-16.5 -2.5t-14.5 -3q-20 -8 -32.5 -26t-12.5 -41q0 -20 13.5 -34t35.5 -14q8 0 13 -6t3 -14l-12 -60q-2 -8 -9 -14t-15 -6q-29 0 -55.5 8t-46.5 25t-32 42t-12 60q0 47 26 79q-8 -2 -17.5 -3t-20.5 -1q-33 0 -63 14.5t-52.5 40t-35.5 61.5
t-13 80q0 64 17.5 122.5t50 103t78.5 71t104 26.5q9 0 17.5 -1t16.5 -3q23 -6 38.5 -17.5t25.5 -24.5q4 -5 7 -9t8 -4q6 0 10 8l12 29q6 13 15 13h74q8 0 13 -6t3 -14zM340 304q0 34 -16 55t-51 21t-57.5 -18t-36 -44t-19 -57t-5.5 -56q0 -41 17.5 -63t49.5 -22
q33 0 55.5 18t36.5 45.5t20 59.5t6 61z" />
    <glyph glyph-name="Cacute" unicode="&#x106;" 
d="M481 205q-11 -45 -33.5 -84.5t-55.5 -69t-77 -46t-98 -16.5q-56 0 -98 17.5t-68.5 48t-38 70.5t-6.5 85q3 31 8.5 67t13.5 73t17 72.5t20 67.5q15 45 36.5 85t52.5 70.5t74 48t102 17.5q52 0 94.5 -17.5t71 -47t41 -68.5t5.5 -83q-5 -30 -37 -30h-81q-14 0 -20 7t-4 18
q4 33 -12 56.5t-68 23.5q-46 0 -74.5 -23.5t-39.5 -56.5q-11 -32 -20 -67.5t-17 -72.5t-13.5 -73t-8.5 -67q-4 -33 15 -56.5t65 -23.5q49 0 76 23.5t38 56.5q3 11 12 18t23 7h81q31 0 24 -30zM534 910q14 0 15 -9t-9 -18l-141 -121q-5 -5 -12 -8.5t-21 -3.5h-69q-10 0 -14 9
t8 21l106 114q5 5 12 10.5t18 5.5h107z" />
    <glyph glyph-name="cacute" unicode="&#x107;" 
d="M231 117q38 0 60 16.5t30 41.5q10 30 37 30h72q32 0 23 -30q-12 -40 -30 -74t-45.5 -59t-65.5 -39t-88 -14q-46 0 -82.5 14t-60.5 39t-35.5 59t-8.5 73q1 15 3.5 35t6.5 40.5t8.5 40.5t9.5 35q13 39 31 73t44.5 59t63.5 39.5t90 14.5q46 0 83.5 -14.5t62.5 -39.5
t36.5 -59t5.5 -73q-5 -30 -36 -30h-69q-30 0 -25 30q4 26 -12 42t-54 16t-58 -14.5t-31 -43.5q-6 -15 -11 -34.5t-9 -40.5t-7 -40.5t-4 -34.5q-2 -26 12.5 -42t52.5 -16zM510 730q14 0 15 -9t-9 -18l-141 -121q-5 -5 -12 -8.5t-21 -3.5h-69q-10 0 -14 9t8 21l106 114
q5 5 12 10.5t18 5.5h107z" />
    <glyph glyph-name="Ccircumflex" unicode="&#x108;" 
d="M481 205q-11 -45 -33.5 -84.5t-55.5 -69t-77 -46t-98 -16.5q-56 0 -98 17.5t-68.5 48t-38 70.5t-6.5 85q3 31 8.5 67t13.5 73t17 72.5t20 67.5q15 45 36.5 85t52.5 70.5t74 48t102 17.5q52 0 94.5 -17.5t71 -47t41 -68.5t5.5 -83q-5 -30 -37 -30h-81q-14 0 -20 7t-4 18
q4 33 -12 56.5t-68 23.5q-46 0 -74.5 -23.5t-39.5 -56.5q-11 -32 -20 -67.5t-17 -72.5t-13.5 -73t-8.5 -67q-4 -33 15 -56.5t65 -23.5q49 0 76 23.5t38 56.5q3 11 12 18t23 7h81q31 0 24 -30zM325 766q-5 -5 -14.5 -10.5t-20.5 -5.5h-95q-12 0 -11 10t6 15l145 123
q5 5 12 8.5t21 3.5h62q13 0 17.5 -3.5t8.5 -8.5l93 -123q4 -5 -0.5 -15t-18.5 -10h-85q-11 0 -17.5 5.5t-9.5 10.5l-30 44q-6 7 -14 0z" />
    <glyph glyph-name="ccircumflex" unicode="&#x109;" 
d="M231 117q38 0 60 16.5t30 41.5q10 30 37 30h72q32 0 23 -30q-12 -40 -30 -74t-45.5 -59t-65.5 -39t-88 -14q-46 0 -82.5 14t-60.5 39t-35.5 59t-8.5 73q1 15 3.5 35t6.5 40.5t8.5 40.5t9.5 35q13 39 31 73t44.5 59t63.5 39.5t90 14.5q46 0 83.5 -14.5t62.5 -39.5
t36.5 -59t5.5 -73q-5 -30 -36 -30h-69q-30 0 -25 30q4 26 -12 42t-54 16t-58 -14.5t-31 -43.5q-6 -15 -11 -34.5t-9 -40.5t-7 -40.5t-4 -34.5q-2 -26 12.5 -42t52.5 -16zM278 586q-5 -5 -14.5 -10.5t-20.5 -5.5h-95q-12 0 -11 10t6 15l145 123q5 5 12 8.5t21 3.5h62
q13 0 17.5 -3.5t8.5 -8.5l93 -123q4 -5 -0.5 -15t-18.5 -10h-85q-11 0 -17.5 5.5t-9.5 10.5l-30 44q-6 7 -14 0z" />
    <glyph glyph-name="Cdotaccent" unicode="&#x10a;" 
d="M481 205q-11 -45 -33.5 -84.5t-55.5 -69t-77 -46t-98 -16.5q-56 0 -98 17.5t-68.5 48t-38 70.5t-6.5 85q3 31 8.5 67t13.5 73t17 72.5t20 67.5q15 45 36.5 85t52.5 70.5t74 48t102 17.5q52 0 94.5 -17.5t71 -47t41 -68.5t5.5 -83q-5 -30 -37 -30h-81q-14 0 -20 7t-4 18
q4 33 -12 56.5t-68 23.5q-46 0 -74.5 -23.5t-39.5 -56.5q-11 -32 -20 -67.5t-17 -72.5t-13.5 -73t-8.5 -67q-4 -33 15 -56.5t65 -23.5q49 0 76 23.5t38 56.5q3 11 12 18t23 7h81q31 0 24 -30zM425 766q-4 -16 -19 -16h-108q-7 0 -11 4.5t-2 11.5l23 108q2 6 7 11t12 5h108
q7 0 11 -5t2 -11z" />
    <glyph glyph-name="cdotaccent" unicode="&#x10b;" 
d="M231 117q38 0 60 16.5t30 41.5q10 30 37 30h72q32 0 23 -30q-12 -40 -30 -74t-45.5 -59t-65.5 -39t-88 -14q-46 0 -82.5 14t-60.5 39t-35.5 59t-8.5 73q1 15 3.5 35t6.5 40.5t8.5 40.5t9.5 35q13 39 31 73t44.5 59t63.5 39.5t90 14.5q46 0 83.5 -14.5t62.5 -39.5
t36.5 -59t5.5 -73q-5 -30 -36 -30h-69q-30 0 -25 30q4 26 -12 42t-54 16t-58 -14.5t-31 -43.5q-6 -15 -11 -34.5t-9 -40.5t-7 -40.5t-4 -34.5q-2 -26 12.5 -42t52.5 -16zM388 586q-4 -16 -19 -16h-108q-7 0 -11 4.5t-2 11.5l23 108q2 6 7 11t12 5h108q7 0 11 -5t2 -11z" />
    <glyph glyph-name="Ccaron" unicode="&#x10c;" 
d="M481 205q-11 -45 -33.5 -84.5t-55.5 -69t-77 -46t-98 -16.5q-56 0 -98 17.5t-68.5 48t-38 70.5t-6.5 85q3 31 8.5 67t13.5 73t17 72.5t20 67.5q15 45 36.5 85t52.5 70.5t74 48t102 17.5q52 0 94.5 -17.5t71 -47t41 -68.5t5.5 -83q-5 -30 -37 -30h-81q-14 0 -20 7t-4 18
q4 33 -12 56.5t-68 23.5q-46 0 -74.5 -23.5t-39.5 -56.5q-11 -32 -20 -67.5t-17 -72.5t-13.5 -73t-8.5 -67q-4 -33 15 -56.5t65 -23.5q49 0 76 23.5t38 56.5q3 11 12 18t23 7h81q31 0 24 -30zM366 850q6 -8 14 0l44 44q5 5 14.5 10.5t20.5 5.5h94q7 0 10 -3t3 -7t-1.5 -8.5
t-4.5 -6.5l-145 -123q-5 -5 -12 -8.5t-20 -3.5h-62q-14 0 -18.5 3.5t-8.5 8.5l-93 123q-4 5 0 15t17 10h87q11 0 17 -5.5t10 -10.5z" />
    <glyph glyph-name="ccaron" unicode="&#x10d;" 
d="M231 117q38 0 60 16.5t30 41.5q10 30 37 30h72q32 0 23 -30q-12 -40 -30 -74t-45.5 -59t-65.5 -39t-88 -14q-46 0 -82.5 14t-60.5 39t-35.5 59t-8.5 73q1 15 3.5 35t6.5 40.5t8.5 40.5t9.5 35q13 39 31 73t44.5 59t63.5 39.5t90 14.5q46 0 83.5 -14.5t62.5 -39.5
t36.5 -59t5.5 -73q-5 -30 -36 -30h-69q-30 0 -25 30q4 26 -12 42t-54 16t-58 -14.5t-31 -43.5q-6 -15 -11 -34.5t-9 -40.5t-7 -40.5t-4 -34.5q-2 -26 12.5 -42t52.5 -16zM323 670q6 -8 14 0l44 44q5 5 14.5 10.5t20.5 5.5h94q7 0 10 -3t3 -7t-1.5 -8.5t-4.5 -6.5l-145 -123
q-5 -5 -12 -8.5t-20 -3.5h-62q-14 0 -18.5 3.5t-8.5 8.5l-93 123q-4 5 0 15t17 10h87q11 0 17 -5.5t10 -10.5z" />
    <glyph glyph-name="Dcaron" unicode="&#x10e;" 
d="M249 560q-15 0 -18 -15l-83 -390q-3 -15 12 -15h63q49 0 76 18.5t38 51.5q10 31 19.5 67t17.5 73t13.5 72.5t8.5 67.5q4 33 -15 51.5t-65 18.5h-67zM326 700q53 0 94 -16t68.5 -44t40 -66.5t8.5 -83.5q-3 -32 -8.5 -67.5t-13.5 -72.5t-17.5 -73t-19.5 -67
q-15 -45 -36.5 -83.5t-52.5 -66.5t-74.5 -44t-101.5 -16h-208q-13 0 -19.5 8.5t-3.5 21.5l136 640q2 13 12.5 21.5t23.5 8.5h172zM331 850q6 -8 14 0l44 44q5 5 14.5 10.5t20.5 5.5h94q7 0 10 -3t3 -7t-1.5 -8.5t-4.5 -6.5l-145 -123q-5 -5 -12 -8.5t-20 -3.5h-62
q-14 0 -18.5 3.5t-8.5 8.5l-93 123q-4 5 0 15t17 10h87q11 0 17 -5.5t10 -10.5z" />
    <glyph glyph-name="dcaron" unicode="&#x10f;" 
d="M219 117q38 0 59.5 16.5t30.5 41.5q5 15 10.5 34.5t9.5 40.5t7 40.5t4 34.5q2 25 -13 41.5t-53 16.5t-58 -14.5t-31 -43.5q-6 -15 -11 -34.5t-9 -40.5t-7 -40.5t-4 -34.5q-2 -26 12.5 -42t52.5 -16zM293 23q-10 0 -19.5 -5t-21.5 -11.5t-28.5 -11.5t-40.5 -5
q-42 0 -73.5 15t-51.5 40t-28.5 58.5t-5.5 71.5q1 15 4 34.5t7 40.5t8.5 40.5t9.5 34.5q13 39 34 73t48 59t61 39.5t75 14.5q20 0 32.5 -3t20.5 -7l14 -7t14 -3q11 0 16.5 5.5t7.5 14.5l41 179q2 8 7.5 14t16.5 6h88q11 0 14.5 -6t1.5 -14l-143 -670q-2 -8 -9 -14t-15 -6
h-50q-10 0 -13 7q-3 6 -7 11t-15 5zM586 559q-8 0 -13.5 6t-3.5 14l20 100q2 8 9 14t15 6h100q8 0 13 -6t3 -14l-19 -97q-4 -20 -14 -37.5t-21 -31.5l-45 -54q-6 -7 -14.5 -13.5t-23.5 -6.5h-10q-15 0 -19 12t6 26l47 69q4 5 1.5 9t-7.5 4h-24z" />
    <glyph glyph-name="Dcroat" unicode="&#x110;" 
d="M148 155q-3 -15 12 -15h63q49 0 76 18.5t38 51.5q10 31 19.5 67t17.5 73t13.5 72.5t8.5 67.5q4 33 -15 51.5t-65 18.5h-67q-15 0 -18 -15l-24 -115q-2 -10 7 -10h80q8 0 13 -6t3 -14l-21 -100q-2 -8 -9 -14t-15 -6h-80q-10 0 -12 -10zM33 270q2 10 -8 10h-27q-8 0 -13 6
t-3 14l21 100q2 8 9 14t15 6h27q11 0 13 10l51 240q3 13 13 21.5t23 8.5h172q53 0 94 -16t68.5 -44t40 -66.5t8.5 -83.5q-3 -32 -8.5 -67.5t-13.5 -72.5t-17.5 -73t-19.5 -67q-15 -45 -36.5 -83.5t-52.5 -66.5t-74.5 -44t-101.5 -16h-208q-13 0 -19.5 8.5t-3.5 21.5z" />
    <glyph glyph-name="dcroat" unicode="&#x111;" 
d="M219 117q38 0 59.5 16.5t30.5 41.5q5 15 10.5 34.5t9.5 40.5t7 40.5t4 34.5q2 25 -13 41.5t-53 16.5t-58 -14.5t-31 -43.5q-6 -15 -11 -34.5t-9 -40.5t-7 -40.5t-4 -34.5q-2 -26 12.5 -42t52.5 -16zM384 547q2 10 -7 10h-60q-8 0 -13 6t-3 14l10 50q2 8 9.5 14t15.5 6h61
q10 0 12 10l8 33q2 8 7.5 14t16.5 6h88q11 0 14.5 -6t1.5 -14l-7 -33q-2 -10 8 -10h15q8 0 12.5 -6t2.5 -14l-10 -50q-2 -8 -9 -14t-15 -6h-15q-11 0 -13 -10l-112 -527q-2 -8 -9 -14t-15 -6h-50q-10 0 -13 7q-3 6 -7 11t-15 5q-10 0 -19.5 -5t-21.5 -11.5t-28.5 -11.5
t-40.5 -5q-42 0 -73.5 15t-51.5 40t-28.5 58.5t-5.5 71.5q1 15 4 34.5t7 40.5t8.5 40.5t9.5 34.5q13 39 34 73t48 59t61 39.5t75 14.5q20 0 32.5 -3t20.5 -7l14 -7t14 -3q11 0 16.5 5.5t7.5 14.5z" />
    <glyph glyph-name="Emacron" unicode="&#x112;" 
d="M229 430q-2 -10 7 -10h245q8 0 13 -6t3 -14l-21 -100q-2 -8 -9 -14t-15 -6h-245q-11 0 -13 -10l-25 -120q-2 -10 8 -10h257q8 0 13 -6t3 -14l-22 -100q-2 -8 -9 -14t-15 -6h-387q-8 0 -12.5 6t-2.5 14l140 660q2 8 9 14t15 6h383q8 0 13 -6t3 -14l-22 -100q-2 -8 -9 -14
t-15 -6h-253q-10 0 -12 -10zM231 760q-8 0 -13 6t-3 14l11 58q2 8 9 14t15 6h262q8 0 13 -6t3 -14l-11 -58q-2 -8 -9 -14t-15 -6h-262z" />
    <glyph glyph-name="emacron" unicode="&#x113;" 
d="M156 195q-9 -42 12.5 -63.5t57.5 -21.5q29 0 51.5 8.5t36.5 33.5q5 10 12 13.5t14 3.5h83q8 0 12.5 -4.5t0.5 -15.5q-26 -71 -79.5 -115.5t-136.5 -44.5q-50 0 -87 14.5t-60 39.5t-33 59t-7 73q1 15 4 34.5t7.5 40.5t9.5 40.5t10 34.5q13 39 34 73t49.5 59t64 39.5
t79.5 14.5q45 0 83 -13t63.5 -38.5t35.5 -62t0 -84.5l-18 -83q-2 -8 -9 -14t-15 -6h-257q-15 0 -18 -15zM186 330q-3 -9 8 -9h152q9 0 12 9q16 63 -72 63q-43 0 -67.5 -17.5t-32.5 -45.5zM194 596q-8 0 -13 6t-3 14l11 58q2 8 9 14t15 6h262q8 0 13 -6t3 -14l-11 -58
q-2 -8 -9 -14t-15 -6h-262z" />
    <glyph glyph-name="Ebreve" unicode="&#x114;" 
d="M229 430q-2 -10 7 -10h245q8 0 13 -6t3 -14l-21 -100q-2 -8 -9 -14t-15 -6h-245q-11 0 -13 -10l-25 -120q-2 -10 8 -10h257q8 0 13 -6t3 -14l-22 -100q-2 -8 -9 -14t-15 -6h-387q-8 0 -12.5 6t-2.5 14l140 660q2 8 9 14t15 6h383q8 0 13 -6t3 -14l-22 -100q-2 -8 -9 -14
t-15 -6h-253q-10 0 -12 -10zM437 886q2 7 7.5 12t13.5 5h63q7 0 11 -5t2 -12q-6 -29 -19 -55.5t-34 -46.5t-50.5 -32t-68.5 -12q-36 0 -65 12t-48.5 32t-27.5 46.5t-2 55.5q2 7 8 12t13 5h63q8 0 11.5 -5t1.5 -12q-5 -23 10.5 -39.5t38.5 -16.5q30 0 48.5 16.5t23.5 39.5z
" />
    <glyph glyph-name="ebreve" unicode="&#x115;" 
d="M156 195q-9 -42 12.5 -63.5t57.5 -21.5q29 0 51.5 8.5t36.5 33.5q5 10 12 13.5t14 3.5h83q8 0 12.5 -4.5t0.5 -15.5q-26 -71 -79.5 -115.5t-136.5 -44.5q-50 0 -87 14.5t-60 39.5t-33 59t-7 73q1 15 4 34.5t7.5 40.5t9.5 40.5t10 34.5q13 39 34 73t49.5 59t64 39.5
t79.5 14.5q45 0 83 -13t63.5 -38.5t35.5 -62t0 -84.5l-18 -83q-2 -8 -9 -14t-15 -6h-257q-15 0 -18 -15zM186 330q-3 -9 8 -9h152q9 0 12 9q16 63 -72 63q-43 0 -67.5 -17.5t-32.5 -45.5zM393 713q2 7 7.5 12t13.5 5h63q7 0 11 -5t2 -12q-6 -29 -19 -55.5t-34 -46.5
t-50.5 -32t-68.5 -12q-36 0 -65 12t-48.5 32t-27.5 46.5t-2 55.5q2 7 8 12t13 5h63q8 0 11.5 -5t1.5 -12q-5 -23 10.5 -39.5t38.5 -16.5q30 0 48.5 16.5t23.5 39.5z" />
    <glyph glyph-name="Edotaccent" unicode="&#x116;" 
d="M229 430q-2 -10 7 -10h245q8 0 13 -6t3 -14l-21 -100q-2 -8 -9 -14t-15 -6h-245q-11 0 -13 -10l-25 -120q-2 -10 8 -10h257q8 0 13 -6t3 -14l-22 -100q-2 -8 -9 -14t-15 -6h-387q-8 0 -12.5 6t-2.5 14l140 660q2 8 9 14t15 6h383q8 0 13 -6t3 -14l-22 -100q-2 -8 -9 -14
t-15 -6h-253q-10 0 -12 -10zM425 766q-4 -16 -19 -16h-108q-7 0 -11 4.5t-2 11.5l23 108q2 6 7 11t12 5h108q7 0 11 -5t2 -11z" />
    <glyph glyph-name="edotaccent" unicode="&#x117;" 
d="M156 195q-9 -42 12.5 -63.5t57.5 -21.5q29 0 51.5 8.5t36.5 33.5q5 10 12 13.5t14 3.5h83q8 0 12.5 -4.5t0.5 -15.5q-26 -71 -79.5 -115.5t-136.5 -44.5q-50 0 -87 14.5t-60 39.5t-33 59t-7 73q1 15 4 34.5t7.5 40.5t9.5 40.5t10 34.5q13 39 34 73t49.5 59t64 39.5
t79.5 14.5q45 0 83 -13t63.5 -38.5t35.5 -62t0 -84.5l-18 -83q-2 -8 -9 -14t-15 -6h-257q-15 0 -18 -15zM186 330q-3 -9 8 -9h152q9 0 12 9q16 63 -72 63q-43 0 -67.5 -17.5t-32.5 -45.5zM383 586q-4 -16 -19 -16h-108q-7 0 -11 4.5t-2 11.5l23 108q2 6 7 11t12 5h108
q7 0 11 -5t2 -11z" />
    <glyph glyph-name="Eogonek" unicode="&#x118;" 
d="M403 0q-30 0 -51 -20t-21 -52q0 -20 13.5 -34t35.5 -14q8 0 13 -6t3 -14l-12 -60q-2 -8 -9 -14t-15 -6q-29 0 -55.5 7.5t-46.5 23t-32 39t-12 55.5q0 26 7.5 50.5t22.5 44.5h-228q-8 0 -12.5 6t-2.5 14l140 660q2 8 9 14t15 6h383q8 0 13 -6t3 -14l-22 -100q-2 -8 -9 -14
t-15 -6h-253q-10 0 -12 -10l-25 -120q-2 -10 7 -10h245q8 0 13 -6t3 -14l-21 -100q-2 -8 -9 -14t-15 -6h-245q-11 0 -13 -10l-25 -120q-2 -10 8 -10h257q8 0 13 -6t3 -14l-22 -100q-2 -8 -9 -14t-15 -6z" />
    <glyph glyph-name="eogonek" unicode="&#x119;" 
d="M383 56q-12 -12 -27.5 -25.5t-29 -29t-22.5 -33.5t-9 -40q0 -20 13.5 -34t35.5 -14q8 0 13 -6t3 -14l-12 -60q-2 -8 -9 -14t-15 -6q-29 0 -55.5 7.5t-46.5 22.5t-32 38t-12 53q0 21 7 46.5t19 42.5q-46 2 -80 17t-55 40t-30 57.5t-6 70.5q1 15 4 34.5t7.5 40.5t9.5 40.5
t10 34.5q13 39 34 73t49.5 59t64 39.5t79.5 14.5q45 0 83 -13t63.5 -38.5t35.5 -62t0 -84.5l-18 -83q-2 -8 -9 -14t-15 -6h-257q-15 0 -18 -15q-9 -42 12.5 -63.5t57.5 -21.5q29 0 51.5 8.5t36.5 33.5q5 10 12 13.5t14 3.5h83q8 0 12.5 -4.5t0.5 -15.5q-9 -23 -18 -45
t-35 -48zM286 393q-43 0 -67.5 -17.5t-32.5 -45.5q-3 -9 8 -9h152q9 0 12 9q16 63 -72 63z" />
    <glyph glyph-name="Ecaron" unicode="&#x11a;" 
d="M229 430q-2 -10 7 -10h245q8 0 13 -6t3 -14l-21 -100q-2 -8 -9 -14t-15 -6h-245q-11 0 -13 -10l-25 -120q-2 -10 8 -10h257q8 0 13 -6t3 -14l-22 -100q-2 -8 -9 -14t-15 -6h-387q-8 0 -12.5 6t-2.5 14l140 660q2 8 9 14t15 6h383q8 0 13 -6t3 -14l-22 -100q-2 -8 -9 -14
t-15 -6h-253q-10 0 -12 -10zM366 850q6 -8 14 0l44 44q5 5 14.5 10.5t20.5 5.5h94q7 0 10 -3t3 -7t-1.5 -8.5t-4.5 -6.5l-145 -123q-5 -5 -12 -8.5t-20 -3.5h-62q-14 0 -18.5 3.5t-8.5 8.5l-93 123q-4 5 0 15t17 10h87q11 0 17 -5.5t10 -10.5z" />
    <glyph glyph-name="ecaron" unicode="&#x11b;" 
d="M156 195q-9 -42 12.5 -63.5t57.5 -21.5q29 0 51.5 8.5t36.5 33.5q5 10 12 13.5t14 3.5h83q8 0 12.5 -4.5t0.5 -15.5q-26 -71 -79.5 -115.5t-136.5 -44.5q-50 0 -87 14.5t-60 39.5t-33 59t-7 73q1 15 4 34.5t7.5 40.5t9.5 40.5t10 34.5q13 39 34 73t49.5 59t64 39.5
t79.5 14.5q45 0 83 -13t63.5 -38.5t35.5 -62t0 -84.5l-18 -83q-2 -8 -9 -14t-15 -6h-257q-15 0 -18 -15zM186 330q-3 -9 8 -9h152q9 0 12 9q16 63 -72 63q-43 0 -67.5 -17.5t-32.5 -45.5zM318 670q6 -8 14 0l44 44q5 5 14.5 10.5t20.5 5.5h94q7 0 10 -3t3 -7t-1.5 -8.5
t-4.5 -6.5l-145 -123q-5 -5 -12 -8.5t-20 -3.5h-62q-14 0 -18.5 3.5t-8.5 8.5l-93 123q-4 5 0 15t17 10h87q11 0 17 -5.5t10 -10.5z" />
    <glyph glyph-name="Gcircumflex" unicode="&#x11c;" 
d="M354 251q2 10 -7 10h-68q-8 0 -13 6t-3 14l20 95q2 8 9 14t15 6h195q8 0 13 -6t3 -14l-37 -171q-10 -46 -32 -85.5t-55.5 -68.5t-78 -45.5t-98.5 -16.5q-56 0 -98 17.5t-68.5 48t-38 70.5t-6.5 85q3 31 8.5 67t13.5 73t17 72.5t20 67.5q15 45 37 85t53.5 70.5t74.5 48
t100 17.5q52 0 94.5 -17.5t71 -47t41 -68.5t5.5 -83q-5 -30 -37 -30h-81q-14 0 -20 7t-4 18q4 33 -12 56.5t-68 23.5q-46 0 -74.5 -23.5t-39.5 -56.5q-11 -32 -20 -67.5t-17 -72.5t-13.5 -73t-8.5 -67q-4 -33 15 -56.5t65 -23.5q54 0 82 23.5t36 56.5zM325 766
q-5 -5 -14.5 -10.5t-20.5 -5.5h-95q-12 0 -11 10t6 15l145 123q5 5 12 8.5t21 3.5h62q13 0 17.5 -3.5t8.5 -8.5l93 -123q4 -5 -0.5 -15t-18.5 -10h-85q-11 0 -17.5 5.5t-9.5 10.5l-30 44q-6 7 -14 0z" />
    <glyph glyph-name="gcircumflex" unicode="&#x11d;" 
d="M271 -47q9 16 9 37q0 14 -10.5 15t-22.5 -4q-10 -4 -25.5 -7.5t-30.5 -3.5q-38 -1 -69 14t-52 40.5t-30.5 59.5t-6.5 71q1 15 4 34.5t7 40.5t8.5 40.5t9.5 34.5q13 39 31.5 73t45 59t61 39.5t81.5 14.5q28 0 46 -5.5t30.5 -11.5t22 -11.5t20.5 -5.5q10 0 16.5 5.5
t11.5 10.5q6 7 15 7h50q8 0 13 -6t3 -14l-109 -510q-21 -98 -78 -141.5t-142 -43.5q-97 0 -142 46.5t-36 118.5q1 8 8.5 14t15.5 6h75q18 0 19.5 -6.5t1.5 -16.5q0 -18 11.5 -30.5t49.5 -12.5q27 0 51.5 13t36.5 36zM229 117q38 0 58 14.5t31 43.5q6 15 11 34.5t9 40.5
t7 40.5t4 34.5q2 26 -12.5 42t-52.5 16t-59.5 -16.5t-30.5 -41.5q-5 -15 -10.5 -34.5t-9.5 -40.5t-7 -40.5t-4 -34.5q-2 -25 13 -41.5t53 -16.5zM283 586q-5 -5 -14.5 -10.5t-20.5 -5.5h-95q-12 0 -11 10t6 15l145 123q5 5 12 8.5t21 3.5h62q13 0 17.5 -3.5t8.5 -8.5
l93 -123q4 -5 -0.5 -15t-18.5 -10h-85q-11 0 -17.5 5.5t-9.5 10.5l-30 44q-6 7 -14 0z" />
    <glyph glyph-name="Gbreve" unicode="&#x11e;" 
d="M354 251q2 10 -7 10h-68q-8 0 -13 6t-3 14l20 95q2 8 9 14t15 6h195q8 0 13 -6t3 -14l-37 -171q-10 -46 -32 -85.5t-55.5 -68.5t-78 -45.5t-98.5 -16.5q-56 0 -98 17.5t-68.5 48t-38 70.5t-6.5 85q3 31 8.5 67t13.5 73t17 72.5t20 67.5q15 45 37 85t53.5 70.5t74.5 48
t100 17.5q52 0 94.5 -17.5t71 -47t41 -68.5t5.5 -83q-5 -30 -37 -30h-81q-14 0 -20 7t-4 18q4 33 -12 56.5t-68 23.5q-46 0 -74.5 -23.5t-39.5 -56.5q-11 -32 -20 -67.5t-17 -72.5t-13.5 -73t-8.5 -67q-4 -33 15 -56.5t65 -23.5q54 0 82 23.5t36 56.5zM437 886q2 7 7.5 12
t13.5 5h63q7 0 11 -5t2 -12q-6 -29 -19 -55.5t-34 -46.5t-50.5 -32t-68.5 -12q-36 0 -65 12t-48.5 32t-27.5 46.5t-2 55.5q2 7 8 12t13 5h63q8 0 11.5 -5t1.5 -12q-5 -23 10.5 -39.5t38.5 -16.5q30 0 48.5 16.5t23.5 39.5z" />
    <glyph glyph-name="gbreve" unicode="&#x11f;" 
d="M271 -47q9 16 9 37q0 14 -10.5 15t-22.5 -4q-10 -4 -25.5 -7.5t-30.5 -3.5q-38 -1 -69 14t-52 40.5t-30.5 59.5t-6.5 71q1 15 4 34.5t7 40.5t8.5 40.5t9.5 34.5q13 39 31.5 73t45 59t61 39.5t81.5 14.5q28 0 46 -5.5t30.5 -11.5t22 -11.5t20.5 -5.5q10 0 16.5 5.5
t11.5 10.5q6 7 15 7h50q8 0 13 -6t3 -14l-109 -510q-21 -98 -78 -141.5t-142 -43.5q-97 0 -142 46.5t-36 118.5q1 8 8.5 14t15.5 6h75q18 0 19.5 -6.5t1.5 -16.5q0 -18 11.5 -30.5t49.5 -12.5q27 0 51.5 13t36.5 36zM229 117q38 0 58 14.5t31 43.5q6 15 11 34.5t9 40.5
t7 40.5t4 34.5q2 26 -12.5 42t-52.5 16t-59.5 -16.5t-30.5 -41.5q-5 -15 -10.5 -34.5t-9.5 -40.5t-7 -40.5t-4 -34.5q-2 -25 13 -41.5t53 -16.5zM403 713q2 7 7.5 12t13.5 5h63q7 0 11 -5t2 -12q-6 -29 -19 -55.5t-34 -46.5t-50.5 -32t-68.5 -12q-36 0 -65 12t-48.5 32
t-27.5 46.5t-2 55.5q2 7 8 12t13 5h63q8 0 11.5 -5t1.5 -12q-5 -23 10.5 -39.5t38.5 -16.5q30 0 48.5 16.5t23.5 39.5z" />
    <glyph glyph-name="Gdotaccent" unicode="&#x120;" 
d="M354 251q2 10 -7 10h-68q-8 0 -13 6t-3 14l20 95q2 8 9 14t15 6h195q8 0 13 -6t3 -14l-37 -171q-10 -46 -32 -85.5t-55.5 -68.5t-78 -45.5t-98.5 -16.5q-56 0 -98 17.5t-68.5 48t-38 70.5t-6.5 85q3 31 8.5 67t13.5 73t17 72.5t20 67.5q15 45 37 85t53.5 70.5t74.5 48
t100 17.5q52 0 94.5 -17.5t71 -47t41 -68.5t5.5 -83q-5 -30 -37 -30h-81q-14 0 -20 7t-4 18q4 33 -12 56.5t-68 23.5q-46 0 -74.5 -23.5t-39.5 -56.5q-11 -32 -20 -67.5t-17 -72.5t-13.5 -73t-8.5 -67q-4 -33 15 -56.5t65 -23.5q54 0 82 23.5t36 56.5zM425 766
q-4 -16 -19 -16h-108q-7 0 -11 4.5t-2 11.5l23 108q2 6 7 11t12 5h108q7 0 11 -5t2 -11z" />
    <glyph glyph-name="gdotaccent" unicode="&#x121;" 
d="M271 -47q9 16 9 37q0 14 -10.5 15t-22.5 -4q-10 -4 -25.5 -7.5t-30.5 -3.5q-38 -1 -69 14t-52 40.5t-30.5 59.5t-6.5 71q1 15 4 34.5t7 40.5t8.5 40.5t9.5 34.5q13 39 31.5 73t45 59t61 39.5t81.5 14.5q28 0 46 -5.5t30.5 -11.5t22 -11.5t20.5 -5.5q10 0 16.5 5.5
t11.5 10.5q6 7 15 7h50q8 0 13 -6t3 -14l-109 -510q-21 -98 -78 -141.5t-142 -43.5q-97 0 -142 46.5t-36 118.5q1 8 8.5 14t15.5 6h75q18 0 19.5 -6.5t1.5 -16.5q0 -18 11.5 -30.5t49.5 -12.5q27 0 51.5 13t36.5 36zM229 117q38 0 58 14.5t31 43.5q6 15 11 34.5t9 40.5
t7 40.5t4 34.5q2 26 -12.5 42t-52.5 16t-59.5 -16.5t-30.5 -41.5q-5 -15 -10.5 -34.5t-9.5 -40.5t-7 -40.5t-4 -34.5q-2 -25 13 -41.5t53 -16.5zM383 586q-4 -16 -19 -16h-108q-7 0 -11 4.5t-2 11.5l23 108q2 6 7 11t12 5h108q7 0 11 -5t2 -11z" />
    <glyph glyph-name="Gcommaaccent" unicode="&#x122;" 
d="M354 251q2 10 -7 10h-68q-8 0 -13 6t-3 14l20 95q2 8 9 14t15 6h195q8 0 13 -6t3 -14l-37 -171q-10 -46 -32 -85.5t-55.5 -68.5t-78 -45.5t-98.5 -16.5q-56 0 -98 17.5t-68.5 48t-38 70.5t-6.5 85q3 31 8.5 67t13.5 73t17 72.5t20 67.5q15 45 37 85t53.5 70.5t74.5 48
t100 17.5q52 0 94.5 -17.5t71 -47t41 -68.5t5.5 -83q-5 -30 -37 -30h-81q-14 0 -20 7t-4 18q4 33 -12 56.5t-68 23.5q-46 0 -74.5 -23.5t-39.5 -56.5q-11 -32 -20 -67.5t-17 -72.5t-13.5 -73t-8.5 -67q-4 -33 15 -56.5t65 -23.5q54 0 82 23.5t36 56.5zM117 -185
q-8 0 -13.5 6t-3.5 14l20 100q2 8 9 14t15 6h100q8 0 13 -6t3 -14l-19 -97q-4 -20 -14 -37.5t-21 -31.5l-45 -54q-6 -7 -14.5 -13.5t-23.5 -6.5h-10q-15 0 -19 12t6 26l47 69q4 5 1.5 9t-7.5 4h-24z" />
    <glyph glyph-name="gcommaaccent" unicode="&#x123;" 
d="M271 -47q9 16 9 37q0 14 -10.5 15t-22.5 -4q-10 -4 -25.5 -7.5t-30.5 -3.5q-38 -1 -69 14t-52 40.5t-30.5 59.5t-6.5 71q1 15 4 34.5t7 40.5t8.5 40.5t9.5 34.5q13 39 31.5 73t45 59t61 39.5t81.5 14.5q28 0 46 -5.5t30.5 -11.5t22 -11.5t20.5 -5.5q10 0 16.5 5.5
t11.5 10.5q6 7 15 7h50q8 0 13 -6t3 -14l-109 -510q-21 -98 -78 -141.5t-142 -43.5q-97 0 -142 46.5t-36 118.5q1 8 8.5 14t15.5 6h75q18 0 19.5 -6.5t1.5 -16.5q0 -18 11.5 -30.5t49.5 -12.5q27 0 51.5 13t36.5 36zM229 117q38 0 58 14.5t31 43.5q6 15 11 34.5t9 40.5
t7 40.5t4 34.5q2 26 -12.5 42t-52.5 16t-59.5 -16.5t-30.5 -41.5q-5 -15 -10.5 -34.5t-9.5 -40.5t-7 -40.5t-4 -34.5q-2 -25 13 -41.5t53 -16.5zM403 716q8 0 13.5 -6t3.5 -14l-20 -100q-2 -8 -9 -14t-15 -6h-100q-8 0 -13 6t-3 14l19 97q4 20 14 37.5t21 31.5l45 54
q6 7 14.5 13.5t23.5 6.5h10q15 0 19 -12t-6 -26l-47 -69q-4 -5 -1.5 -9t7.5 -4h24z" />
    <glyph glyph-name="Hcircumflex" unicode="&#x124;" 
d="M206 430q-2 -10 7 -10h152q11 0 13 10l53 250q2 8 9 14t15 6h100q8 0 13 -6t3 -14l-141 -660q-2 -8 -9 -14t-15 -6h-100q-8 0 -13 6t-3 14l53 250q2 10 -7 10h-152q-11 0 -13 -10l-53 -250q-2 -8 -11.5 -14t-17.5 -6h-95q-8 0 -12.5 6t-2.5 14l140 660q2 8 9 14t15 6h100
q8 0 13 -6t3 -14zM315 766q-5 -5 -14.5 -10.5t-20.5 -5.5h-95q-12 0 -11 10t6 15l145 123q5 5 12 8.5t21 3.5h62q13 0 17.5 -3.5t8.5 -8.5l93 -123q4 -5 -0.5 -15t-18.5 -10h-85q-11 0 -17.5 5.5t-9.5 10.5l-30 44q-6 7 -14 0z" />
    <glyph glyph-name="hcircumflex" unicode="&#x125;" 
d="M51 0q-8 0 -12.5 6t-2.5 14l142 670q2 8 9 14t15 6h90q8 0 13 -6t3 -14l-36 -170q-3 -13 3.5 -19.5t21.5 -1.5q11 4 25.5 8t37.5 4q39 0 70.5 -14.5t52 -39.5t28 -59t-0.5 -73l-65 -305q-2 -8 -9 -14t-15 -6h-90q-8 0 -13 6t-3 14l65 305q5 25 -10.5 42.5t-51.5 17.5
t-59.5 -17.5t-28.5 -42.5l-65 -305q-2 -8 -9 -14t-15 -6h-90zM325 766q-5 -5 -14.5 -10.5t-20.5 -5.5h-95q-12 0 -11 10t6 15l145 123q5 5 12 8.5t21 3.5h62q13 0 17.5 -3.5t8.5 -8.5l93 -123q4 -5 -0.5 -15t-18.5 -10h-85q-11 0 -17.5 5.5t-9.5 10.5l-30 44q-6 7 -14 0z
" />
    <glyph glyph-name="Hbar" unicode="&#x126;" 
d="M246 620q-2 -10 8 -10h152q10 0 12 10l13 60q2 8 9 14t15 6h100q8 0 13 -6t3 -14l-141 -660q-2 -8 -9 -14t-15 -6h-100q-8 0 -13 6t-3 14l53 250q2 10 -7 10h-152q-11 0 -13 -10l-53 -250q-2 -8 -11.5 -14t-17.5 -6h-95q-8 0 -12.5 6t-2.5 14l140 660q2 8 9 14t15 6h100
q8 0 13 -6t3 -14zM203 420q-2 -10 8 -10h152q10 0 12 10l15 70q2 10 -8 10h-152q-10 0 -12 -10z" />
    <glyph glyph-name="hbar" unicode="&#x127;" 
d="M302 657q-2 -10 8 -10h55q8 0 12.5 -6t2.5 -14l-10 -50q-2 -8 -9 -14t-15 -6h-55q-11 0 -13 -10l-5 -27q-2 -13 4 -19.5t21 -1.5q11 4 25.5 8t37.5 4q39 0 70.5 -14.5t52 -39.5t28 -59t-0.5 -73l-65 -305q-2 -8 -9 -14t-15 -6h-90q-8 0 -13 6t-3 14l65 305
q5 25 -10.5 42.5t-51.5 17.5t-59.5 -17.5t-28.5 -42.5l-65 -305q-2 -8 -9 -14t-15 -6h-90q-8 0 -12.5 6t-2.5 14l111 527q2 10 -7 10h-20q-8 0 -13 6t-3 14l10 50q2 8 9.5 14t15.5 6h21q10 0 12 10l8 33q2 8 7.5 14t16.5 6h88q11 0 14.5 -6t1.5 -14z" />
    <glyph glyph-name="Itilde" unicode="&#x128;" 
d="M258 555q2 10 -8 10h-100q-8 0 -13 6t-3 14l21 95q2 8 9 14t15 6h360q8 0 13 -6t3 -14l-21 -95q-2 -8 -9 -14t-15 -6h-100q-10 0 -12 -10l-87 -410q-2 -10 8 -10h110q8 0 13 -6t3 -14l-21 -95q-2 -8 -9 -14t-15 -6h-380q-8 0 -12.5 6t-2.5 14l20 95q2 8 9 14t15 6h110
q10 0 12 10zM484 864q19 0 30.5 6.5t19.5 14.5t16.5 4t5.5 -18l-12 -60q-4 -20 -28 -35.5t-54 -15.5q-24 0 -45 4t-41 8.5t-42 8.5t-47 4q-17 0 -28.5 -5.5t-21.5 -15.5q-8 -7 -16.5 -3.5t-5.5 17.5l12 60q4 20 28 35.5t54 15.5q24 0 45 -4t41 -8.5t41.5 -8.5t47.5 -4z" />
    <glyph glyph-name="itilde" unicode="&#x129;" 
d="M400 684q19 0 30.5 6.5t19.5 14.5t16.5 4t5.5 -18l-12 -60q-4 -20 -28 -35.5t-54 -15.5q-24 0 -45 4t-41 8.5t-42 8.5t-47 4q-17 0 -28.5 -5.5t-21.5 -15.5q-8 -7 -16.5 -3.5t-5.5 17.5l12 60q4 20 28 35.5t54 15.5q24 0 45 -4t41 -8.5t41.5 -8.5t47.5 -4zM123 373
q-8 0 -13 6t-3 14l18 87q2 8 9.5 14t15.5 6h224q7 0 10.5 -5t1.5 -11l-73 -344q-2 -10 8 -10h110q8 0 13 -6t3 -14l-19 -90q-2 -8 -9.5 -14t-15.5 -6h-370q-8 0 -12.5 6t-2.5 14l19 90q2 8 9 14t15 6h110q10 0 12 10l48 223q2 10 -8 10h-100z" />
    <glyph glyph-name="Imacron" unicode="&#x12a;" 
d="M258 555q2 10 -8 10h-100q-8 0 -13 6t-3 14l21 95q2 8 9 14t15 6h360q8 0 13 -6t3 -14l-21 -95q-2 -8 -9 -14t-15 -6h-100q-10 0 -12 -10l-87 -410q-2 -10 8 -10h110q8 0 13 -6t3 -14l-21 -95q-2 -8 -9 -14t-15 -6h-380q-8 0 -12.5 6t-2.5 14l20 95q2 8 9 14t15 6h110
q10 0 12 10zM231 760q-8 0 -13 6t-3 14l11 58q2 8 9 14t15 6h262q8 0 13 -6t3 -14l-11 -58q-2 -8 -9 -14t-15 -6h-262z" />
    <glyph glyph-name="imacron" unicode="&#x12b;" 
d="M161 596q-8 0 -13 6t-3 14l11 58q2 8 9 14t15 6h262q8 0 13 -6t3 -14l-11 -58q-2 -8 -9 -14t-15 -6h-262zM123 373q-8 0 -13 6t-3 14l18 87q2 8 9.5 14t15.5 6h224q7 0 10.5 -5t1.5 -11l-73 -344q-2 -10 8 -10h110q8 0 13 -6t3 -14l-19 -90q-2 -8 -9.5 -14t-15.5 -6h-370
q-8 0 -12.5 6t-2.5 14l19 90q2 8 9 14t15 6h110q10 0 12 10l48 223q2 10 -8 10h-100z" />
    <glyph glyph-name="Ibreve" unicode="&#x12c;" 
d="M258 555q2 10 -8 10h-100q-8 0 -13 6t-3 14l21 95q2 8 9 14t15 6h360q8 0 13 -6t3 -14l-21 -95q-2 -8 -9 -14t-15 -6h-100q-10 0 -12 -10l-87 -410q-2 -10 8 -10h110q8 0 13 -6t3 -14l-21 -95q-2 -8 -9 -14t-15 -6h-380q-8 0 -12.5 6t-2.5 14l20 95q2 8 9 14t15 6h110
q10 0 12 10zM437 886q2 7 7.5 12t13.5 5h63q7 0 11 -5t2 -12q-6 -29 -19 -55.5t-34 -46.5t-50.5 -32t-68.5 -12q-36 0 -65 12t-48.5 32t-27.5 46.5t-2 55.5q2 7 8 12t13 5h63q8 0 11.5 -5t1.5 -12q-5 -23 10.5 -39.5t38.5 -16.5q30 0 48.5 16.5t23.5 39.5z" />
    <glyph glyph-name="ibreve" unicode="&#x12d;" 
d="M370 713q2 7 7.5 12t13.5 5h63q7 0 11 -5t2 -12q-6 -29 -19 -55.5t-34 -46.5t-50.5 -32t-68.5 -12q-36 0 -65 12t-48.5 32t-27.5 46.5t-2 55.5q2 7 8 12t13 5h63q8 0 11.5 -5t1.5 -12q-5 -23 10.5 -39.5t38.5 -16.5q30 0 48.5 16.5t23.5 39.5zM123 373q-8 0 -13 6t-3 14
l18 87q2 8 9.5 14t15.5 6h224q7 0 10.5 -5t1.5 -11l-73 -344q-2 -10 8 -10h110q8 0 13 -6t3 -14l-19 -90q-2 -8 -9.5 -14t-15.5 -6h-370q-8 0 -12.5 6t-2.5 14l19 90q2 8 9 14t15 6h110q10 0 12 10l48 223q2 10 -8 10h-100z" />
    <glyph glyph-name="Iogonek" unicode="&#x12e;" 
d="M127 -220q-38 0 -67.5 9.5t-48.5 29t-26 50t2 71.5l37 175q2 8 9 14t15 6h110q10 0 12 10l87 410q2 10 -7 10h-100q-8 0 -13 6t-3 14l20 95q2 8 9 14t15 6h360q8 0 13 -6t3 -14l-20 -95q-2 -8 -9 -14t-15 -6h-100q-11 0 -13 -10l-87 -410q-2 -10 8 -10h110q8 0 13 -6
t3 -14l-20 -95q-2 -8 -9.5 -14t-15.5 -6h-286l-12 -60q-5 -25 5 -42.5t42 -17.5h94q8 0 13 -6t3 -14l-13 -60q-2 -8 -9 -14t-15 -6h-94z" />
    <glyph glyph-name="iogonek" unicode="&#x12f;" 
d="M115 -60q-5 -25 5 -42.5t42 -17.5h94q8 0 13 -6t3 -14l-13 -60q-2 -8 -9 -14t-15 -6h-94q-38 0 -67.5 9.5t-49 29t-26 50t2.5 71.5l36 170q2 8 9 14t15 6h110q10 0 12 10l48 223q2 10 -8 10h-100q-8 0 -13 6t-3 14l18 87q2 8 9.5 14t15.5 6h224q7 0 10.5 -5t1.5 -11
l-73 -344q-2 -10 8 -10h110q8 0 13 -6t3 -14l-19 -90q-2 -8 -9.5 -14t-15.5 -6h-276zM415 586q-4 -16 -20 -16h-108q-16 0 -12 16l23 108q2 6 7 11t12 5h108q7 0 11 -5t2 -11z" />
    <glyph glyph-name="Idotaccent" unicode="&#x130;" 
d="M258 555q2 10 -8 10h-100q-8 0 -13 6t-3 14l21 95q2 8 9 14t15 6h360q8 0 13 -6t3 -14l-21 -95q-2 -8 -9 -14t-15 -6h-100q-10 0 -12 -10l-87 -410q-2 -10 8 -10h110q8 0 13 -6t3 -14l-21 -95q-2 -8 -9 -14t-15 -6h-380q-8 0 -12.5 6t-2.5 14l20 95q2 8 9 14t15 6h110
q10 0 12 10zM442 766q-4 -16 -19 -16h-108q-7 0 -11 4.5t-2 11.5l23 108q2 6 7 11t12 5h108q7 0 11 -5t2 -11z" />
    <glyph glyph-name="dotlessi" unicode="&#x131;" 
d="M156 373q-8 0 -13 6t-3 14l18 87q2 8 9.5 14t15.5 6h224q7 0 10.5 -5t1.5 -11l-73 -344q-2 -10 8 -10h110q8 0 13 -6t3 -14l-19 -90q-2 -8 -9.5 -14t-15.5 -6h-370q-8 0 -12.5 6t-2.5 14l19 90q2 8 9 14t15 6h110q10 0 12 10l48 223q2 10 -8 10h-100z" />
    <glyph glyph-name="Jcircumflex" unicode="&#x134;" 
d="M124 211q-7 -34 12 -57.5t65 -23.5q27 0 46 8t32.5 21.5t21 31.5t12.5 39l95 450q2 8 9 14t15 6h101q8 0 13 -6t3 -14l-100 -469q-10 -46 -30.5 -86.5t-52 -70.5t-73 -47.5t-92.5 -17.5q-55 0 -99 17.5t-73 47.5t-41 70.5t-2 86.5l6 28q2 8 9 14t15 6h98q8 0 13 -6t3 -14
zM325 766q-5 -5 -14.5 -10.5t-20.5 -5.5h-95q-12 0 -11 10t6 15l145 123q5 5 12 8.5t21 3.5h62q13 0 17.5 -3.5t8.5 -8.5l93 -123q4 -5 -0.5 -15t-18.5 -10h-85q-11 0 -17.5 5.5t-9.5 10.5l-30 44q-6 7 -14 0z" />
    <glyph glyph-name="jcircumflex" unicode="&#x135;" 
d="M334 -32q-8 -39 -27 -72t-46 -56.5t-61.5 -37t-73.5 -13.5t-73.5 13.5t-59 38t-35.5 57.5t-3 72q2 8 8.5 14t14.5 6h90q8 0 13 -6t3 -14q-5 -25 9.5 -38t39.5 -13q35 0 53.5 23t23.5 48l77 371q2 10 -8 10h-120q-8 0 -12.5 6t-2.5 14l18 89q2 8 9.5 14t15.5 6h244
q7 0 10.5 -5t1.5 -11zM283 586q-5 -5 -14.5 -10.5t-20.5 -5.5h-95q-12 0 -11 10t6 15l145 123q5 5 12 8.5t21 3.5h62q13 0 17.5 -3.5t8.5 -8.5l93 -123q4 -5 -0.5 -15t-18.5 -10h-85q-11 0 -17.5 5.5t-9.5 10.5l-30 44q-6 7 -14 0z" />
    <glyph glyph-name="Kcommaaccent" unicode="&#x136;" 
d="M456 690q3 3 8 6.5t16 3.5h100q14 0 19 -12.5t-6 -23.5l-272 -291q-9 -10 -10.5 -17t3.5 -16l144 -302q6 -13 -1 -25.5t-28 -12.5h-92q-11 0 -14.5 4t-5.5 8l-119 273q-2 3 -6 2.5t-5 -5.5l-56 -262q-2 -8 -9 -14t-15 -6h-99q-8 0 -13 6t-3 14l141 660q2 8 9 14t15 6h99
q8 0 13 -6t3 -14l-49 -230q-1 -5 2.5 -5.5t6.5 2.5zM127 -185q-8 0 -13.5 6t-3.5 14l20 100q2 8 9 14t15 6h100q8 0 13 -6t3 -14l-19 -97q-4 -20 -14 -37.5t-21 -31.5l-45 -54q-6 -7 -14.5 -13.5t-23.5 -6.5h-10q-15 0 -19 12t6 26l47 69q4 5 1.5 9t-7.5 4h-24z" />
    <glyph glyph-name="kcommaaccent" unicode="&#x137;" 
d="M207 188q-2 3 -6 2.5t-5 -5.5l-35 -165q-2 -8 -9 -14t-15 -6h-90q-8 0 -13 6t-3 14l143 670q2 8 9 14t15 6h90q8 0 13 -6t3 -14l-72 -343q-1 -5 2.5 -5.5t6.5 2.5l136 143q4 5 10 9t17 4h94q16 0 19.5 -11t-4.5 -20l-193 -200q-8 -8 -9.5 -14t4.5 -16l135 -206
q7 -10 0.5 -21.5t-23.5 -11.5h-89q-11 0 -15.5 5.5t-7.5 9.5zM147 -185q-8 0 -13.5 6t-3.5 14l20 100q2 8 9 14t15 6h100q8 0 13 -6t3 -14l-19 -97q-4 -20 -14 -37.5t-21 -31.5l-45 -54q-6 -7 -14.5 -13.5t-23.5 -6.5h-10q-15 0 -19 12t6 26l47 69q4 5 1.5 9t-7.5 4h-24z
" />
    <glyph glyph-name="kgreenlandic" unicode="&#x138;" 
d="M218 188q-2 3 -6 2.5t-5 -5.5l-35 -165q-2 -8 -9 -14t-15 -6h-90q-8 0 -13 6t-3 14l98 460q2 8 9 14t15 6h90q8 0 13 -6t3 -14l-30 -141q-1 -5 2.5 -5.5t6.5 2.5l139 151q4 5 10 9t17 4h94q16 0 19.5 -11t-4.5 -20l-193 -200q-8 -8 -9.5 -14t4.5 -16l135 -206
q7 -10 0.5 -21.5t-23.5 -11.5h-89q-11 0 -15.5 5.5t-7.5 9.5z" />
    <glyph glyph-name="Lacute" unicode="&#x139;" 
d="M201 150q-2 -10 8 -10h270q8 0 13 -6t3 -14l-22 -100q-2 -8 -9 -14t-15 -6h-400q-8 0 -12.5 6t-2.5 14l140 660q2 8 9 14t15 6h100q8 0 13 -6t3 -14zM454 910q14 0 15 -9t-9 -18l-141 -121q-5 -5 -12 -8.5t-21 -3.5h-69q-10 0 -14 9t8 21l106 114q5 5 12 10.5t18 5.5h107
z" />
    <glyph glyph-name="lacute" unicode="&#x13a;" 
d="M168 583q-8 0 -13 6t-3 14l19 87q2 8 9 14t15 6h224q7 0 11 -5t2 -11l-118 -554q-2 -10 8 -10h120q8 0 12.5 -6t2.5 -14l-19 -90q-2 -8 -9 -14t-15 -6h-380q-8 0 -13 6t-3 14l19 90q2 8 9.5 14t15.5 6h110q10 0 12 10l92 433q2 10 -8 10h-100zM514 910q14 0 15 -9t-9 -18
l-141 -121q-5 -5 -12 -8.5t-21 -3.5h-69q-10 0 -14 9t8 21l106 114q5 5 12 10.5t18 5.5h107z" />
    <glyph glyph-name="Lcommaaccent" unicode="&#x13b;" 
d="M201 150q-2 -10 8 -10h270q8 0 13 -6t3 -14l-22 -100q-2 -8 -9 -14t-15 -6h-400q-8 0 -12.5 6t-2.5 14l140 660q2 8 9 14t15 6h100q8 0 13 -6t3 -14zM167 -185q-8 0 -13.5 6t-3.5 14l20 100q2 8 9 14t15 6h100q8 0 13 -6t3 -14l-19 -97q-4 -20 -14 -37.5t-21 -31.5
l-45 -54q-6 -7 -14.5 -13.5t-23.5 -6.5h-10q-15 0 -19 12t6 26l47 69q4 5 1.5 9t-7.5 4h-24z" />
    <glyph glyph-name="lcommaaccent" unicode="&#x13c;" 
d="M168 583q-8 0 -13 6t-3 14l19 87q2 8 9 14t15 6h224q7 0 11 -5t2 -11l-118 -554q-2 -10 8 -10h120q8 0 12.5 -6t2.5 -14l-19 -90q-2 -8 -9 -14t-15 -6h-380q-8 0 -13 6t-3 14l19 90q2 8 9.5 14t15.5 6h110q10 0 12 10l92 433q2 10 -8 10h-100zM137 -185q-8 0 -13.5 6
t-3.5 14l20 100q2 8 9 14t15 6h100q8 0 13 -6t3 -14l-19 -97q-4 -20 -14 -37.5t-21 -31.5l-45 -54q-6 -7 -14.5 -13.5t-23.5 -6.5h-10q-15 0 -19 12t6 26l47 69q4 5 1.5 9t-7.5 4h-24z" />
    <glyph glyph-name="Lcaron" unicode="&#x13d;" 
d="M201 150q-2 -10 8 -10h270q8 0 13 -6t3 -14l-22 -100q-2 -8 -9 -14t-15 -6h-400q-8 0 -12.5 6t-2.5 14l140 660q2 8 9 14t15 6h100q8 0 13 -6t3 -14zM403 560q-8 0 -13.5 6t-3.5 14l20 100q2 8 9 14t15 6h100q8 0 13 -6t3 -14l-19 -97q-4 -20 -14 -37.5t-21 -31.5
l-45 -54q-6 -7 -14.5 -13.5t-23.5 -6.5h-10q-15 0 -19 12t6 26l47 69q4 5 1.5 9t-7.5 4h-24z" />
    <glyph glyph-name="lcaron" unicode="&#x13e;" 
d="M168 583q-8 0 -13 6t-3 14l19 87q2 8 9 14t15 6h224q7 0 11 -5t2 -11l-118 -554q-2 -10 8 -10h120q8 0 12.5 -6t2.5 -14l-19 -90q-2 -8 -9 -14t-15 -6h-380q-8 0 -13 6t-3 14l19 90q2 8 9.5 14t15.5 6h110q10 0 12 10l92 433q2 10 -8 10h-100zM476 559q-8 0 -13.5 6
t-3.5 14l20 100q2 8 9 14t15 6h100q8 0 13 -6t3 -14l-19 -97q-4 -20 -14 -37.5t-21 -31.5l-45 -54q-6 -7 -14.5 -13.5t-23.5 -6.5h-10q-15 0 -19 12t6 26l47 69q4 5 1.5 9t-7.5 4h-24z" />
    <glyph glyph-name="Ldot" unicode="&#x13f;" 
d="M201 150q-2 -10 8 -10h270q8 0 13 -6t3 -14l-22 -100q-2 -8 -9 -14t-15 -6h-400q-8 0 -12.5 6t-2.5 14l140 660q2 8 9 14t15 6h100q8 0 13 -6t3 -14zM459 256q-4 -16 -19 -16h-108q-7 0 -11 4.5t-2 11.5l23 108q2 6 7 11t12 5h108q7 0 11 -5t2 -11z" />
    <glyph glyph-name="ldot" unicode="&#x140;" 
d="M168 583q-8 0 -13 6t-3 14l19 87q2 8 9 14t15 6h224q7 0 11 -5t2 -11l-118 -554q-2 -10 8 -10h120q8 0 12.5 -6t2.5 -14l-19 -90q-2 -8 -9 -14t-15 -6h-380q-8 0 -13 6t-3 14l19 90q2 8 9.5 14t15.5 6h110q10 0 12 10l92 433q2 10 -8 10h-100zM529 256q-4 -16 -19 -16
h-108q-7 0 -11 4.5t-2 11.5l23 108q2 6 7 11t12 5h108q7 0 11 -5t2 -11z" />
    <glyph glyph-name="Lslash" unicode="&#x141;" 
d="M213 155q-3 -15 12 -15h265q8 0 13 -6t3 -14l-22 -100q-2 -8 -9 -14t-15 -6h-400q-8 0 -13 6t-3 14l37 172q1 4 -1.5 5t-4.5 -1l-33 -16q-11 -5 -19 -2.5t-5 17.5l16 79q2 10 7 15.5t18 12.5l44 23q6 3 8 10l74 345q2 8 9 14t15 6h100q8 0 13 -6t3 -14l-56 -261
q0 -2 2 -4.5t7 0.5l109 57q13 7 21.5 4t6.5 -16l-17 -79q-3 -13 -9 -19.5t-19 -13.5l-122 -63q-7 -3 -9 -10z" />
    <glyph glyph-name="lslash" unicode="&#x142;" 
d="M276 573q2 10 -8 10h-100q-8 0 -13 6t-3 14l19 87q2 8 9 14t15 6h224q7 0 10.5 -5t2.5 -11l-55 -255q-2 -11 10 -4l58 34q13 7 21 1.5t5 -18.5l-16 -74q-2 -13 -8.5 -19.5t-19.5 -13.5l-71 -40q-8 -4 -10 -12l-32 -153q-2 -10 8 -10h120q8 0 12.5 -6t2.5 -14l-19 -90
q-2 -8 -9 -14t-15 -6h-380q-8 0 -13 6t-3 14l19 90q2 8 9.5 14t15.5 6h110q10 0 12 10l15 72q1 4 -1.5 5t-4.5 -1l-26 -13q-11 -6 -22 -0.5t-8 20.5l15 68q3 13 11.5 20.5t21.5 14.5l36 19q7 2 9 10z" />
    <glyph glyph-name="Nacute" unicode="&#x143;" 
d="M340 302q1 -5 5 -4t5 6l80 376q2 8 9 14t15 6h100q8 0 13 -6t3 -14l-141 -660q-2 -8 -9 -14t-15 -6h-108q-13 0 -17.5 5.5t-5.5 11.5l-72 351q-1 5 -4.5 4t-4.5 -6l-74 -346q-2 -8 -9 -14t-15 -6h-100q-8 0 -12.5 6t-2.5 14l140 660q2 8 9 14t15 6h109q11 0 15.5 -5.5
t5.5 -12.5zM534 910q14 0 15 -9t-9 -18l-141 -121q-5 -5 -12 -8.5t-21 -3.5h-69q-10 0 -14 9t8 21l106 114q5 5 12 10.5t18 5.5h107z" />
    <glyph glyph-name="nacute" unicode="&#x144;" 
d="M222 476q11 0 21.5 5.5t23.5 12t29 12t39 5.5q39 0 71 -14.5t52 -39.5t28 -59t-1 -73l-65 -305q-2 -8 -9 -14t-15 -6h-90q-8 0 -13 6t-3 14l65 306q5 25 -10.5 42t-51.5 17q-35 0 -58.5 -16t-28.5 -39l-66 -310q-2 -8 -9 -14t-15 -6h-90q-8 0 -13 6t-3 14l98 460
q2 8 9 14t15 6h50q9 0 13.5 -3.5t7.5 -8.5t7 -8.5t12 -3.5zM490 730q14 0 15 -9t-9 -18l-141 -121q-5 -5 -12 -8.5t-21 -3.5h-69q-10 0 -14 9t8 21l106 114q5 5 12 10.5t18 5.5h107z" />
    <glyph glyph-name="Ncommaaccent" unicode="&#x145;" 
d="M340 302q1 -5 5 -4t5 6l80 376q2 8 9 14t15 6h100q8 0 13 -6t3 -14l-141 -660q-2 -8 -9 -14t-15 -6h-108q-13 0 -17.5 5.5t-5.5 11.5l-72 351q-1 5 -4.5 4t-4.5 -6l-74 -346q-2 -8 -9 -14t-15 -6h-100q-8 0 -12.5 6t-2.5 14l140 660q2 8 9 14t15 6h109q11 0 15.5 -5.5
t5.5 -12.5zM147 -185q-8 0 -13.5 6t-3.5 14l20 100q2 8 9 14t15 6h100q8 0 13 -6t3 -14l-19 -97q-4 -20 -14 -37.5t-21 -31.5l-45 -54q-6 -7 -14.5 -13.5t-23.5 -6.5h-10q-15 0 -19 12t6 26l47 69q4 5 1.5 9t-7.5 4h-24z" />
    <glyph glyph-name="ncommaaccent" unicode="&#x146;" 
d="M222 476q11 0 21.5 5.5t23.5 12t29 12t39 5.5q39 0 71 -14.5t52 -39.5t28 -59t-1 -73l-65 -305q-2 -8 -9 -14t-15 -6h-90q-8 0 -13 6t-3 14l65 306q5 25 -10.5 42t-51.5 17q-35 0 -58.5 -16t-28.5 -39l-66 -310q-2 -8 -9 -14t-15 -6h-90q-8 0 -13 6t-3 14l98 460
q2 8 9 14t15 6h50q9 0 13.5 -3.5t7.5 -8.5t7 -8.5t12 -3.5zM122 -185q-8 0 -13.5 6t-3.5 14l20 100q2 8 9 14t15 6h100q8 0 13 -6t3 -14l-19 -97q-4 -20 -14 -37.5t-21 -31.5l-45 -54q-6 -7 -14.5 -13.5t-23.5 -6.5h-10q-15 0 -19 12t6 26l47 69q4 5 1.5 9t-7.5 4h-24z" />
    <glyph glyph-name="Ncaron" unicode="&#x147;" 
d="M340 302q1 -5 5 -4t5 6l80 376q2 8 9 14t15 6h100q8 0 13 -6t3 -14l-141 -660q-2 -8 -9 -14t-15 -6h-108q-13 0 -17.5 5.5t-5.5 11.5l-72 351q-1 5 -4.5 4t-4.5 -6l-74 -346q-2 -8 -9 -14t-15 -6h-100q-8 0 -12.5 6t-2.5 14l140 660q2 8 9 14t15 6h109q11 0 15.5 -5.5
t5.5 -12.5zM366 850q6 -8 14 0l44 44q5 5 14.5 10.5t20.5 5.5h94q7 0 10 -3t3 -7t-1.5 -8.5t-4.5 -6.5l-145 -123q-5 -5 -12 -8.5t-20 -3.5h-62q-14 0 -18.5 3.5t-8.5 8.5l-93 123q-4 5 0 15t17 10h87q11 0 17 -5.5t10 -10.5z" />
    <glyph glyph-name="ncaron" unicode="&#x148;" 
d="M222 476q11 0 21.5 5.5t23.5 12t29 12t39 5.5q39 0 71 -14.5t52 -39.5t28 -59t-1 -73l-65 -305q-2 -8 -9 -14t-15 -6h-90q-8 0 -13 6t-3 14l65 306q5 25 -10.5 42t-51.5 17q-35 0 -58.5 -16t-28.5 -39l-66 -310q-2 -8 -9 -14t-15 -6h-90q-8 0 -13 6t-3 14l98 460
q2 8 9 14t15 6h50q9 0 13.5 -3.5t7.5 -8.5t7 -8.5t12 -3.5zM323 670q6 -8 14 0l44 44q5 5 14.5 10.5t20.5 5.5h94q7 0 10 -3t3 -7t-1.5 -8.5t-4.5 -6.5l-145 -123q-5 -5 -12 -8.5t-20 -3.5h-62q-14 0 -18.5 3.5t-8.5 8.5l-93 123q-4 5 0 15t17 10h87q11 0 17 -5.5t10 -10.5z
" />
    <glyph glyph-name="Eng" unicode="&#x14a;" 
d="M289 30l-84 348q-2 5 -5.5 4t-4.5 -6l-75 -356q-2 -8 -9.5 -14t-15.5 -6h-100q-8 0 -12.5 6t-2.5 14l140 660q2 8 9 14t15 6h119q11 0 15 -5.5t6 -12.5l65 -340q1 -5 5 -4t5 6l71 336q2 8 9 14t15 6h100q8 0 13 -6t3 -14l-142 -669q-12 -59 -37.5 -101t-61.5 -68.5
t-81.5 -39t-97.5 -12.5q-8 0 -13 6t-3 14l21 100q2 8 9.5 14t15.5 6q18 0 34 2.5t29.5 10t23.5 21.5t15 36z" />
    <glyph glyph-name="eng" unicode="&#x14b;" 
d="M409 -30q-8 -38 -30.5 -71.5t-54 -59t-71 -40t-81.5 -14.5q-8 0 -12.5 6t-2.5 14l16 79q2 8 9.5 14t15.5 6q28 0 50.5 16.5t30.5 49.5l76 356q5 25 -10.5 42t-51.5 17q-29 0 -46 -8.5t-27 -22t-14.5 -31.5t-8.5 -37l-57 -266q-2 -8 -9 -14t-15 -6h-90q-8 0 -13 6t-3 14
l98 460q2 8 9 14t15 6h50q9 0 13.5 -4t7.5 -8.5t7 -8t12 -3.5q11 0 21.5 5.5t23.5 12t29 12t39 5.5q39 0 70.5 -14.5t52 -39.5t28 -59t-0.5 -73z" />
    <glyph glyph-name="Omacron" unicode="&#x14c;" 
d="M321 570q-46 0 -74.5 -23.5t-39.5 -56.5q-11 -32 -20 -67.5t-17 -72.5t-13.5 -73t-8.5 -67q-4 -33 15 -56.5t65 -23.5q49 0 76 23.5t38 56.5q10 31 19.5 67t17.5 73t13.5 72.5t8.5 67.5q4 33 -15 56.5t-65 23.5zM331 711q53 0 94 -17.5t68.5 -48t40 -70.5t8.5 -85
q-3 -32 -8.5 -67.5t-13.5 -72.5t-17.5 -73t-19.5 -67q-15 -45 -36.5 -85t-52.5 -70.5t-74.5 -48t-101.5 -17.5q-56 0 -98 17.5t-68.5 48t-38 70.5t-6.5 85q3 31 8.5 67t13.5 73t17 72.5t20 67.5q15 45 36.5 85t52.5 70.5t74 48t102 17.5zM231 760q-8 0 -13 6t-3 14l11 58
q2 8 9 14t15 6h262q8 0 13 -6t3 -14l-11 -58q-2 -8 -9 -14t-15 -6h-262z" />
    <glyph glyph-name="omacron" unicode="&#x14d;" 
d="M295 511q46 0 82.5 -14.5t61 -39.5t36 -59t8.5 -73q-1 -15 -4 -34.5t-7 -40.5t-8.5 -40.5t-9.5 -34.5q-14 -39 -32.5 -73t-45.5 -59t-64 -39.5t-87 -14.5q-46 0 -82.5 14.5t-61 39.5t-36 59t-8.5 73q1 15 4 34.5t7 40.5t8.5 40.5t9.5 34.5q13 39 32.5 73t46.5 59t64 39.5
t86 14.5zM232 117q38 0 59.5 16.5t30.5 41.5q5 15 10.5 34.5t9.5 40.5t7 40.5t4 34.5q2 25 -13 41.5t-53 16.5t-58 -14.5t-31 -43.5q-6 -15 -11 -34.5t-9 -40.5t-7 -40.5t-4 -34.5q-2 -26 12.5 -42t52.5 -16zM189 596q-8 0 -13 6t-3 14l11 58q2 8 9 14t15 6h262q8 0 13 -6
t3 -14l-11 -58q-2 -8 -9 -14t-15 -6h-262z" />
    <glyph glyph-name="Obreve" unicode="&#x14e;" 
d="M321 570q-46 0 -74.5 -23.5t-39.5 -56.5q-11 -32 -20 -67.5t-17 -72.5t-13.5 -73t-8.5 -67q-4 -33 15 -56.5t65 -23.5q49 0 76 23.5t38 56.5q10 31 19.5 67t17.5 73t13.5 72.5t8.5 67.5q4 33 -15 56.5t-65 23.5zM331 711q53 0 94 -17.5t68.5 -48t40 -70.5t8.5 -85
q-3 -32 -8.5 -67.5t-13.5 -72.5t-17.5 -73t-19.5 -67q-15 -45 -36.5 -85t-52.5 -70.5t-74.5 -48t-101.5 -17.5q-56 0 -98 17.5t-68.5 48t-38 70.5t-6.5 85q3 31 8.5 67t13.5 73t17 72.5t20 67.5q15 45 36.5 85t52.5 70.5t74 48t102 17.5zM437 886q2 7 7.5 12t13.5 5h63
q7 0 11 -5t2 -12q-6 -29 -19 -55.5t-34 -46.5t-50.5 -32t-68.5 -12q-36 0 -65 12t-48.5 32t-27.5 46.5t-2 55.5q2 7 8 12t13 5h63q8 0 11.5 -5t1.5 -12q-5 -23 10.5 -39.5t38.5 -16.5q30 0 48.5 16.5t23.5 39.5z" />
    <glyph glyph-name="obreve" unicode="&#x14f;" 
d="M295 511q46 0 82.5 -14.5t61 -39.5t36 -59t8.5 -73q-1 -15 -4 -34.5t-7 -40.5t-8.5 -40.5t-9.5 -34.5q-14 -39 -32.5 -73t-45.5 -59t-64 -39.5t-87 -14.5q-46 0 -82.5 14.5t-61 39.5t-36 59t-8.5 73q1 15 4 34.5t7 40.5t8.5 40.5t9.5 34.5q13 39 32.5 73t46.5 59t64 39.5
t86 14.5zM232 117q38 0 59.5 16.5t30.5 41.5q5 15 10.5 34.5t9.5 40.5t7 40.5t4 34.5q2 25 -13 41.5t-53 16.5t-58 -14.5t-31 -43.5q-6 -15 -11 -34.5t-9 -40.5t-7 -40.5t-4 -34.5q-2 -26 12.5 -42t52.5 -16zM408 713q2 7 7.5 12t13.5 5h63q7 0 11 -5t2 -12
q-6 -29 -19 -55.5t-34 -46.5t-50.5 -32t-68.5 -12q-36 0 -65 12t-48.5 32t-27.5 46.5t-2 55.5q2 7 8 12t13 5h63q8 0 11.5 -5t1.5 -12q-5 -23 10.5 -39.5t38.5 -16.5q30 0 48.5 16.5t23.5 39.5z" />
    <glyph glyph-name="Ohungarumlaut" unicode="&#x150;" 
d="M321 570q-46 0 -74.5 -23.5t-39.5 -56.5q-11 -32 -20 -67.5t-17 -72.5t-13.5 -73t-8.5 -67q-4 -33 15 -56.5t65 -23.5q49 0 76 23.5t38 56.5q10 31 19.5 67t17.5 73t13.5 72.5t8.5 67.5q4 33 -15 56.5t-65 23.5zM331 711q53 0 94 -17.5t68.5 -48t40 -70.5t8.5 -85
q-3 -32 -8.5 -67.5t-13.5 -72.5t-17.5 -73t-19.5 -67q-15 -45 -36.5 -85t-52.5 -70.5t-74.5 -48t-101.5 -17.5q-56 0 -98 17.5t-68.5 48t-38 70.5t-6.5 85q3 31 8.5 67t13.5 73t17 72.5t20 67.5q15 45 36.5 85t52.5 70.5t74 48t102 17.5zM455 910q14 0 15 -9t-9 -18
l-141 -121q-5 -5 -12 -8.5t-21 -3.5h-69q-10 0 -14 9t8 21l106 114q5 5 12 10.5t18 5.5h107zM662 910q14 0 15 -9t-9 -18l-141 -121q-5 -5 -12 -8.5t-21 -3.5h-69q-10 0 -14 9t8 21l106 114q5 5 12 10.5t18 5.5h107z" />
    <glyph glyph-name="ohungarumlaut" unicode="&#x151;" 
d="M295 511q46 0 82.5 -14.5t61 -39.5t36 -59t8.5 -73q-1 -15 -4 -34.5t-7 -40.5t-8.5 -40.5t-9.5 -34.5q-14 -39 -32.5 -73t-45.5 -59t-64 -39.5t-87 -14.5q-46 0 -82.5 14.5t-61 39.5t-36 59t-8.5 73q1 15 4 34.5t7 40.5t8.5 40.5t9.5 34.5q13 39 32.5 73t46.5 59t64 39.5
t86 14.5zM232 117q38 0 59.5 16.5t30.5 41.5q5 15 10.5 34.5t9.5 40.5t7 40.5t4 34.5q2 25 -13 41.5t-53 16.5t-58 -14.5t-31 -43.5q-6 -15 -11 -34.5t-9 -40.5t-7 -40.5t-4 -34.5q-2 -26 12.5 -42t52.5 -16zM397 730q14 0 15 -9t-9 -18l-141 -121q-5 -5 -12 -8.5t-21 -3.5
h-69q-10 0 -14 9t8 21l106 114q5 5 12 10.5t18 5.5h107zM604 730q14 0 15 -9t-9 -18l-141 -121q-5 -5 -12 -8.5t-21 -3.5h-69q-10 0 -14 9t8 21l106 114q5 5 12 10.5t18 5.5h107z" />
    <glyph glyph-name="OE" unicode="&#x152;" 
d="M566 700q8 0 13 -6t3 -14l-22 -100q-2 -8 -9 -14t-15 -6h-111q-10 0 -12 -10l-25 -120q-2 -10 7 -10h103q8 0 13 -6t3 -14l-21 -100q-2 -8 -9 -14t-15 -6h-103q-11 0 -13 -10l-25 -120q-2 -10 8 -10h115q8 0 13 -6t3 -14l-22 -100q-2 -8 -9 -14t-15 -6h-244
q-54 0 -94 17.5t-65.5 48t-37 70.5t-8.5 85q4 63 17 129t34 129q15 45 37 85t53.5 70.5t71.5 48t91 17.5h290zM177 140q10 0 12 10l85 400q2 10 -8 10q-39 0 -63.5 -24t-35.5 -57q-21 -63 -35 -129t-20 -129q-3 -33 10.5 -56.5t54.5 -24.5z" />
    <glyph glyph-name="oe" unicode="&#x153;" 
d="M253 28q-5 8 -15 7t-18 -8q-19 -15 -44.5 -26.5t-70.5 -11.5q-25 0 -46 12.5t-36.5 34t-24 51t-8.5 63.5q0 64 17 128t47 116t71 84.5t90 32.5q38 0 61.5 -11t38.5 -28q5 -6 14.5 -7.5t17.5 6.5q13 14 34.5 27t53.5 13q36 0 63 -17.5t42 -50t17.5 -79t-9.5 -104.5l-7 -30
q-2 -8 -9 -14t-15 -6h-183q-15 0 -18 -15q-9 -42 2 -65.5t40 -23.5q42 0 62 46q4 10 11.5 13.5t14.5 3.5h63q17 0 13 -20q-6 -26 -20 -54t-36 -51.5t-51 -39t-64 -15.5q-37 0 -63.5 13t-34.5 26zM337 319q-2 -9 8 -9h101q10 0 12 9q8 36 -4 55t-38 19q-32 0 -52.5 -22.5
t-26.5 -51.5zM198 381q-22 0 -40 -23t-31 -56t-20 -69t-7 -63q0 -26 9.5 -40.5t32.5 -14.5q24 0 42 19t30.5 48.5t19 64t6.5 64.5q0 37 -10 53.5t-32 16.5z" />
    <glyph glyph-name="Racute" unicode="&#x154;" 
d="M399 299q-13 -5 -15 -13.5t2 -19.5l86 -236q4 -11 -3 -20.5t-22 -9.5h-95q-12 0 -17 5.5t-8 14.5l-82 247q-1 4 -4 8.5t-11 4.5h-26q-11 0 -13 -10l-53 -250q-2 -8 -9 -14t-15 -6h-100q-8 0 -13 6t-3 14l141 660q2 8 9 14t15 6h210q38 0 71 -13.5t57 -36.5t38 -54t14 -66
q0 -89 -43.5 -146.5t-110.5 -84.5zM263 560q-10 0 -12 -10l-25 -120q-2 -10 7 -10h90q18 0 33.5 6.5t27 17.5t18.5 25.5t7 31.5q0 25 -13 42t-43 17h-90zM534 910q14 0 15 -9t-9 -18l-141 -121q-5 -5 -12 -8.5t-21 -3.5h-69q-10 0 -14 9t8 21l106 114q5 5 12 10.5t18 5.5
h107z" />
    <glyph glyph-name="racute" unicode="&#x155;" 
d="M379 336q5 25 -14 38t-51 13t-58 -12.5t-34 -47.5l-66 -307q-2 -8 -9 -14t-15 -6h-90q-8 0 -13 6t-3 14l98 460q2 8 9 14t15 6h50q9 0 13 -3.5t7 -7.5q4 -5 8.5 -8.5t15.5 -3.5q12 0 22 5.5t23.5 11.5t32 11.5t46.5 5.5q39 0 69.5 -12.5t49.5 -35.5t25.5 -55.5
t-1.5 -71.5q-2 -8 -9.5 -14t-15.5 -6h-90q-8 0 -12.5 6t-2.5 14zM495 730q14 0 15 -9t-9 -18l-141 -121q-5 -5 -12 -8.5t-21 -3.5h-69q-10 0 -14 9t8 21l106 114q5 5 12 10.5t18 5.5h107z" />
    <glyph glyph-name="Rcommaaccent" unicode="&#x156;" 
d="M399 299q-13 -5 -15 -13.5t2 -19.5l86 -236q4 -11 -3 -20.5t-22 -9.5h-95q-12 0 -17 5.5t-8 14.5l-82 247q-1 4 -4 8.5t-11 4.5h-26q-11 0 -13 -10l-53 -250q-2 -8 -9 -14t-15 -6h-100q-8 0 -13 6t-3 14l141 660q2 8 9 14t15 6h210q38 0 71 -13.5t57 -36.5t38 -54t14 -66
q0 -89 -43.5 -146.5t-110.5 -84.5zM263 560q-10 0 -12 -10l-25 -120q-2 -10 7 -10h90q18 0 33.5 6.5t27 17.5t18.5 25.5t7 31.5q0 25 -13 42t-43 17h-90zM147 -185q-8 0 -13.5 6t-3.5 14l20 100q2 8 9 14t15 6h100q8 0 13 -6t3 -14l-19 -97q-4 -20 -14 -37.5t-21 -31.5
l-45 -54q-6 -7 -14.5 -13.5t-23.5 -6.5h-10q-15 0 -19 12t6 26l47 69q4 5 1.5 9t-7.5 4h-24z" />
    <glyph glyph-name="rcommaaccent" unicode="&#x157;" 
d="M379 336q5 25 -14 38t-51 13t-58 -12.5t-34 -47.5l-66 -307q-2 -8 -9 -14t-15 -6h-90q-8 0 -13 6t-3 14l98 460q2 8 9 14t15 6h50q9 0 13 -3.5t7 -7.5q4 -5 8.5 -8.5t15.5 -3.5q12 0 22 5.5t23.5 11.5t32 11.5t46.5 5.5q39 0 69.5 -12.5t49.5 -35.5t25.5 -55.5
t-1.5 -71.5q-2 -8 -9.5 -14t-15.5 -6h-90q-8 0 -12.5 6t-2.5 14zM4 -185q-8 0 -13.5 6t-3.5 14l20 100q2 8 9 14t15 6h100q8 0 13 -6t3 -14l-19 -97q-4 -20 -14 -37.5t-21 -31.5l-45 -54q-6 -7 -14.5 -13.5t-23.5 -6.5h-10q-15 0 -19 12t6 26l47 69q4 5 1.5 9t-7.5 4h-24z
" />
    <glyph glyph-name="Rcaron" unicode="&#x158;" 
d="M399 299q-13 -5 -15 -13.5t2 -19.5l86 -236q4 -11 -3 -20.5t-22 -9.5h-95q-12 0 -17 5.5t-8 14.5l-82 247q-1 4 -4 8.5t-11 4.5h-26q-11 0 -13 -10l-53 -250q-2 -8 -9 -14t-15 -6h-100q-8 0 -13 6t-3 14l141 660q2 8 9 14t15 6h210q38 0 71 -13.5t57 -36.5t38 -54t14 -66
q0 -89 -43.5 -146.5t-110.5 -84.5zM263 560q-10 0 -12 -10l-25 -120q-2 -10 7 -10h90q18 0 33.5 6.5t27 17.5t18.5 25.5t7 31.5q0 25 -13 42t-43 17h-90zM346 850q6 -8 14 0l44 44q5 5 14.5 10.5t20.5 5.5h94q7 0 10 -3t3 -7t-1.5 -8.5t-4.5 -6.5l-145 -123q-5 -5 -12 -8.5
t-20 -3.5h-62q-14 0 -18.5 3.5t-8.5 8.5l-93 123q-4 5 0 15t17 10h87q11 0 17 -5.5t10 -10.5z" />
    <glyph glyph-name="rcaron" unicode="&#x159;" 
d="M379 336q5 25 -14 38t-51 13t-58 -12.5t-34 -47.5l-66 -307q-2 -8 -9 -14t-15 -6h-90q-8 0 -13 6t-3 14l98 460q2 8 9 14t15 6h50q9 0 13 -3.5t7 -7.5q4 -5 8.5 -8.5t15.5 -3.5q12 0 22 5.5t23.5 11.5t32 11.5t46.5 5.5q39 0 69.5 -12.5t49.5 -35.5t25.5 -55.5
t-1.5 -71.5q-2 -8 -9.5 -14t-15.5 -6h-90q-8 0 -12.5 6t-2.5 14zM328 670q6 -8 14 0l44 44q5 5 14.5 10.5t20.5 5.5h94q7 0 10 -3t3 -7t-1.5 -8.5t-4.5 -6.5l-145 -123q-5 -5 -12 -8.5t-20 -3.5h-62q-14 0 -18.5 3.5t-8.5 8.5l-93 123q-4 5 0 15t17 10h87q11 0 17 -5.5
t10 -10.5z" />
    <glyph glyph-name="Sacute" unicode="&#x15a;" 
d="M148 238q-9 -26 -5.5 -46.5t16 -35t31.5 -22.5t41 -8q21 0 40.5 6.5t34.5 18.5t24 29t9 37q0 32 -24.5 48t-73.5 28q-93 22 -134 68.5t-41 123.5q0 50 20.5 91.5t56.5 71.5t84 46.5t103 16.5q43 0 80.5 -13.5t65.5 -37.5t43.5 -57t14.5 -72q0 -8 -1 -19.5t-4.5 -22
t-9.5 -17.5t-16 -7h-101q-8 0 -13 6t-3 14l3 15q7 30 -11.5 52.5t-61.5 22.5q-48 0 -75.5 -22t-27.5 -53q0 -21 10 -33.5t25.5 -20.5t35 -13t37.5 -11q37 -11 68 -27t53 -37.5t34 -50.5t12 -67q0 -52 -19 -97.5t-53.5 -79.5t-83.5 -54t-109 -20q-53 0 -96.5 15t-74 41.5
t-45.5 64t-10 82.5q1 8 3 19.5t5.5 22t9.5 17.5t16 7h101q8 0 13.5 -6t2.5 -14zM524 910q14 0 15 -9t-9 -18l-141 -121q-5 -5 -12 -8.5t-21 -3.5h-69q-10 0 -14 9t8 21l106 114q5 5 12 10.5t18 5.5h107z" />
    <glyph glyph-name="sacute" unicode="&#x15b;" 
d="M22 154q2 13 10.5 21.5t25.5 8.5h65q18 0 22.5 -6t2.5 -19q-3 -29 19.5 -40.5t57.5 -11.5q20 0 38.5 3.5t32.5 10t22.5 16.5t8.5 23t-11.5 21t-28 12.5t-33.5 7t-29 4.5q-25 4 -52 12.5t-49 24.5t-36 42t-14 66q0 32 17.5 61t47.5 51.5t69 35.5t83 13q39 0 75 -11
t63 -30.5t41 -47.5t7 -62q-4 -19 -11 -24.5t-21 -5.5h-69q-8 0 -14 4.5t-4 20.5q1 25 -20.5 35.5t-49.5 10.5q-34 0 -61.5 -12.5t-27.5 -38.5q0 -12 10.5 -20t25.5 -12.5t31 -7.5t27 -4q19 -3 46 -9t52 -20.5t42.5 -40t17.5 -66.5t-18.5 -74t-50.5 -57t-74 -37t-88 -13
q-43 0 -82 10.5t-66.5 31t-41.5 51.5t-8 72zM470 730q14 0 15 -9t-9 -18l-141 -121q-5 -5 -12 -8.5t-21 -3.5h-69q-10 0 -14 9t8 21l106 114q5 5 12 10.5t18 5.5h107z" />
    <glyph glyph-name="Scircumflex" unicode="&#x15c;" 
d="M148 238q-9 -26 -5.5 -46.5t16 -35t31.5 -22.5t41 -8q21 0 40.5 6.5t34.5 18.5t24 29t9 37q0 32 -24.5 48t-73.5 28q-93 22 -134 68.5t-41 123.5q0 50 20.5 91.5t56.5 71.5t84 46.5t103 16.5q43 0 80.5 -13.5t65.5 -37.5t43.5 -57t14.5 -72q0 -8 -1 -19.5t-4.5 -22
t-9.5 -17.5t-16 -7h-101q-8 0 -13 6t-3 14l3 15q7 30 -11.5 52.5t-61.5 22.5q-48 0 -75.5 -22t-27.5 -53q0 -21 10 -33.5t25.5 -20.5t35 -13t37.5 -11q37 -11 68 -27t53 -37.5t34 -50.5t12 -67q0 -52 -19 -97.5t-53.5 -79.5t-83.5 -54t-109 -20q-53 0 -96.5 15t-74 41.5
t-45.5 64t-10 82.5q1 8 3 19.5t5.5 22t9.5 17.5t16 7h101q8 0 13.5 -6t2.5 -14zM305 766q-5 -5 -14.5 -10.5t-20.5 -5.5h-95q-12 0 -11 10t6 15l145 123q5 5 12 8.5t21 3.5h62q13 0 17.5 -3.5t8.5 -8.5l93 -123q4 -5 -0.5 -15t-18.5 -10h-85q-11 0 -17.5 5.5t-9.5 10.5
l-30 44q-6 7 -14 0z" />
    <glyph glyph-name="scircumflex" unicode="&#x15d;" 
d="M22 154q2 13 10.5 21.5t25.5 8.5h65q18 0 22.5 -6t2.5 -19q-3 -29 19.5 -40.5t57.5 -11.5q20 0 38.5 3.5t32.5 10t22.5 16.5t8.5 23t-11.5 21t-28 12.5t-33.5 7t-29 4.5q-25 4 -52 12.5t-49 24.5t-36 42t-14 66q0 32 17.5 61t47.5 51.5t69 35.5t83 13q39 0 75 -11
t63 -30.5t41 -47.5t7 -62q-4 -19 -11 -24.5t-21 -5.5h-69q-8 0 -14 4.5t-4 20.5q1 25 -20.5 35.5t-49.5 10.5q-34 0 -61.5 -12.5t-27.5 -38.5q0 -12 10.5 -20t25.5 -12.5t31 -7.5t27 -4q19 -3 46 -9t52 -20.5t42.5 -40t17.5 -66.5t-18.5 -74t-50.5 -57t-74 -37t-88 -13
q-43 0 -82 10.5t-66.5 31t-41.5 51.5t-8 72zM278 586q-5 -5 -14.5 -10.5t-20.5 -5.5h-95q-12 0 -11 10t6 15l145 123q5 5 12 8.5t21 3.5h62q13 0 17.5 -3.5t8.5 -8.5l93 -123q4 -5 -0.5 -15t-18.5 -10h-85q-11 0 -17.5 5.5t-9.5 10.5l-30 44q-6 7 -14 0z" />
    <glyph glyph-name="Scedilla" unicode="&#x15e;" 
d="M148 238q-9 -26 -5.5 -46.5t16 -35t31.5 -22.5t41 -8q21 0 40.5 6.5t34.5 18.5t24 29t9 37q0 32 -24.5 48t-73.5 28q-93 22 -134 68.5t-41 123.5q0 50 20.5 91.5t56.5 71.5t84 46.5t103 16.5q43 0 80.5 -13.5t65.5 -37.5t43.5 -57t14.5 -72q0 -8 -1 -19.5t-4.5 -22
t-9.5 -17.5t-16 -7h-101q-8 0 -13 6t-3 14l3 15q7 30 -11.5 52.5t-61.5 22.5q-48 0 -75.5 -22t-27.5 -53q0 -21 10 -33.5t25.5 -20.5t35 -13t37.5 -11q37 -11 68 -27t53 -37.5t34 -50.5t12 -67q0 -52 -19 -97.5t-53.5 -79.5t-83.5 -54t-109 -20q-53 0 -96.5 15t-74 41.5
t-45.5 64t-10 82.5q1 8 3 19.5t5.5 22t9.5 17.5t16 7h101q8 0 13.5 -6t2.5 -14zM225 -176q-10 -24 -37 -24h-62q-12 0 -18 4t-8 10t-0.5 12.5t4.5 12.5l49 92q11 24 37 24h54q12 0 18 -4t7.5 -9.5t0.5 -12.5t-4 -13z" />
    <glyph glyph-name="scedilla" unicode="&#x15f;" 
d="M22 154q2 13 10.5 21.5t25.5 8.5h65q18 0 22.5 -6t2.5 -19q-3 -29 19.5 -40.5t57.5 -11.5q20 0 38.5 3.5t32.5 10t22.5 16.5t8.5 23t-11.5 21t-28 12.5t-33.5 7t-29 4.5q-25 4 -52 12.5t-49 24.5t-36 42t-14 66q0 32 17.5 61t47.5 51.5t69 35.5t83 13q39 0 75 -11
t63 -30.5t41 -47.5t7 -62q-4 -19 -11 -24.5t-21 -5.5h-69q-8 0 -14 4.5t-4 20.5q1 25 -20.5 35.5t-49.5 10.5q-34 0 -61.5 -12.5t-27.5 -38.5q0 -12 10.5 -20t25.5 -12.5t31 -7.5t27 -4q19 -3 46 -9t52 -20.5t42.5 -40t17.5 -66.5t-18.5 -74t-50.5 -57t-74 -37t-88 -13
q-43 0 -82 10.5t-66.5 31t-41.5 51.5t-8 72zM230 -176q-10 -24 -37 -24h-62q-12 0 -18 4t-8 10t-0.5 12.5t4.5 12.5l49 92q11 24 37 24h54q12 0 18 -4t7.5 -9.5t0.5 -12.5t-4 -13z" />
    <glyph glyph-name="Scaron" unicode="&#x160;" 
d="M148 238q-9 -26 -5.5 -46.5t16 -35t31.5 -22.5t41 -8q21 0 40.5 6.5t34.5 18.5t24 29t9 37q0 32 -24.5 48t-73.5 28q-93 22 -134 68.5t-41 123.5q0 50 20.5 91.5t56.5 71.5t84 46.5t103 16.5q43 0 80.5 -13.5t65.5 -37.5t43.5 -57t14.5 -72q0 -8 -1 -19.5t-4.5 -22
t-9.5 -17.5t-16 -7h-101q-8 0 -13 6t-3 14l3 15q7 30 -11.5 52.5t-61.5 22.5q-48 0 -75.5 -22t-27.5 -53q0 -21 10 -33.5t25.5 -20.5t35 -13t37.5 -11q37 -11 68 -27t53 -37.5t34 -50.5t12 -67q0 -52 -19 -97.5t-53.5 -79.5t-83.5 -54t-109 -20q-53 0 -96.5 15t-74 41.5
t-45.5 64t-10 82.5q1 8 3 19.5t5.5 22t9.5 17.5t16 7h101q8 0 13.5 -6t2.5 -14zM356 850q6 -8 14 0l44 44q5 5 14.5 10.5t20.5 5.5h94q7 0 10 -3t3 -7t-1.5 -8.5t-4.5 -6.5l-145 -123q-5 -5 -12 -8.5t-20 -3.5h-62q-14 0 -18.5 3.5t-8.5 8.5l-93 123q-4 5 0 15t17 10h87
q11 0 17 -5.5t10 -10.5z" />
    <glyph glyph-name="scaron" unicode="&#x161;" 
d="M22 154q2 13 10.5 21.5t25.5 8.5h65q18 0 22.5 -6t2.5 -19q-3 -29 19.5 -40.5t57.5 -11.5q20 0 38.5 3.5t32.5 10t22.5 16.5t8.5 23t-11.5 21t-28 12.5t-33.5 7t-29 4.5q-25 4 -52 12.5t-49 24.5t-36 42t-14 66q0 32 17.5 61t47.5 51.5t69 35.5t83 13q39 0 75 -11
t63 -30.5t41 -47.5t7 -62q-4 -19 -11 -24.5t-21 -5.5h-69q-8 0 -14 4.5t-4 20.5q1 25 -20.5 35.5t-49.5 10.5q-34 0 -61.5 -12.5t-27.5 -38.5q0 -12 10.5 -20t25.5 -12.5t31 -7.5t27 -4q19 -3 46 -9t52 -20.5t42.5 -40t17.5 -66.5t-18.5 -74t-50.5 -57t-74 -37t-88 -13
q-43 0 -82 10.5t-66.5 31t-41.5 51.5t-8 72zM313 670q6 -8 14 0l44 44q5 5 14.5 10.5t20.5 5.5h94q7 0 10 -3t3 -7t-1.5 -8.5t-4.5 -6.5l-145 -123q-5 -5 -12 -8.5t-20 -3.5h-62q-14 0 -18.5 3.5t-8.5 8.5l-93 123q-4 5 0 15t17 10h87q11 0 17 -5.5t10 -10.5z" />
    <glyph glyph-name="Tcommaaccent" unicode="&#x162;" 
d="M85 560q-8 0 -13 6t-3 14l22 100q2 8 9 14t15 6h450q8 0 13 -6t3 -14l-22 -100q-2 -8 -9 -14t-15 -6h-140q-10 0 -12 -10l-113 -530q-2 -8 -9 -14t-15 -6h-100q-8 0 -13 6t-3 14l113 530q2 10 -8 10h-150zM117 -185q-8 0 -13.5 6t-3.5 14l20 100q2 8 9 14t15 6h100
q8 0 13 -6t3 -14l-19 -97q-4 -20 -14 -37.5t-21 -31.5l-45 -54q-6 -7 -14.5 -13.5t-23.5 -6.5h-10q-15 0 -19 12t6 26l47 69q4 5 1.5 9t-7.5 4h-24z" />
    <glyph glyph-name="tcommaaccent" unicode="&#x163;" 
d="M244 170q-5 -25 9.5 -38t39.5 -13t45.5 13t25.5 38q2 8 9 14t15 6h90q8 0 13 -6t3 -14q-9 -39 -27.5 -72t-46 -57.5t-63 -38t-77.5 -13.5q-37 0 -72 10t-59.5 33t-35 60.5t1.5 91.5l40 183q2 10 -7 10h-98q-8 0 -13 6t-3 14l17 80q2 8 9 14t15 6h98q10 0 12 10l33 153
q2 8 9 14t15 6h90q8 0 13 -6t3 -14l-33 -153q-2 -10 8 -10h170q8 0 13 -6t3 -14l-17 -80q-2 -8 -9 -14t-15 -6h-170q-10 0 -13 -10zM177 -185q-8 0 -13.5 6t-3.5 14l20 100q2 8 9 14t15 6h100q8 0 13 -6t3 -14l-19 -97q-4 -20 -14 -37.5t-21 -31.5l-45 -54
q-6 -7 -14.5 -13.5t-23.5 -6.5h-10q-15 0 -19 12t6 26l47 69q4 5 1.5 9t-7.5 4h-24z" />
    <glyph glyph-name="Tcaron" unicode="&#x164;" 
d="M85 560q-8 0 -13 6t-3 14l22 100q2 8 9 14t15 6h450q8 0 13 -6t3 -14l-22 -100q-2 -8 -9 -14t-15 -6h-140q-10 0 -12 -10l-113 -530q-2 -8 -9 -14t-15 -6h-100q-8 0 -13 6t-3 14l113 530q2 10 -8 10h-150zM356 850q6 -8 14 0l44 44q5 5 14.5 10.5t20.5 5.5h94q7 0 10 -3
t3 -7t-1.5 -8.5t-4.5 -6.5l-145 -123q-5 -5 -12 -8.5t-20 -3.5h-62q-14 0 -18.5 3.5t-8.5 8.5l-93 123q-4 5 0 15t17 10h87q11 0 17 -5.5t10 -10.5z" />
    <glyph glyph-name="tcaron" unicode="&#x165;" 
d="M285 367q-10 -46 -20 -95.5t-21 -101.5q-5 -25 9.5 -38t39.5 -13t45.5 13t25.5 38q2 8 9 14t15 6h90q8 0 13 -6t3 -14q-9 -39 -27.5 -72t-46 -57.5t-63 -38t-77.5 -13.5q-37 0 -72 10t-59.5 33t-35 60.5t1.5 91.5q11 48 20.5 92.5t19.5 90.5q2 10 -7 10h-98q-8 0 -13 6
t-3 14q4 19 8.5 40.5t8.5 39.5q2 8 9 14t15 6h98q10 0 12 10q8 35 16.5 76.5t16.5 76.5q2 8 9 14t15 6h90q8 0 13 -6t3 -14q-9 -41 -17 -78t-16 -75q-2 -10 8 -10h80q8 0 13 -6t3 -14q-4 -19 -8.5 -40.5t-8.5 -39.5q-2 -8 -9 -14t-15 -6h-80q-10 0 -13 -10zM466 559
q-8 0 -13.5 6t-3.5 14l20 100q2 8 9 14t15 6h100q8 0 13 -6t3 -14l-19 -97q-4 -20 -14 -37.5t-21 -31.5l-45 -54q-6 -7 -14.5 -13.5t-23.5 -6.5h-10q-15 0 -19 12t6 26l47 69q4 5 1.5 9t-7.5 4h-24z" />
    <glyph glyph-name="Tbar" unicode="&#x166;" 
d="M205 370q2 10 -8 10h-138q-8 0 -13 6t-3 14l17 80q2 8 9 14t15 6h138q11 0 13 10l10 50q2 10 -8 10h-150q-8 0 -12.5 6t-2.5 14l19 90q2 8 9 14t15 6h450q8 0 13 -6t3 -14l-19 -90q-2 -8 -9.5 -14t-15.5 -6h-140q-10 0 -12 -10l-10 -50q-2 -10 7 -10h127q8 0 13 -6t3 -14
l-17 -80q-2 -8 -9 -14t-15 -6h-127q-10 0 -12 -10l-75 -350q-2 -8 -9 -14t-15 -6h-100q-8 0 -13 6t-3 14z" />
    <glyph glyph-name="tbar" unicode="&#x167;" 
d="M244 170q-5 -25 9.5 -38t39.5 -13t45.5 13t25.5 38q2 8 9 14t15 6h90q8 0 13 -6t3 -14q-9 -39 -27.5 -72t-46 -57.5t-63 -38t-77.5 -13.5q-37 0 -72.5 10t-60.5 33.5t-35 60.5t3 91l10 41q2 10 -8 10h-88q-8 0 -12.5 6t-2.5 14l14 70q2 8 9.5 14t15.5 6h88q10 0 12 10
l5 22q2 10 -8 10h-98q-8 0 -13 6t-3 14l15 70q2 8 9 14t15 6h98q10 0 12 10l33 153q2 8 9 14t15 6h90q8 0 13 -6t3 -14l-33 -153q-2 -10 8 -10h170q8 0 13 -6t3 -14l-15 -70q-2 -8 -9 -14t-15 -6h-170q-10 0 -12 -10l-5 -22q-2 -10 8 -10h130q8 0 12.5 -6t2.5 -14l-14 -70
q-2 -8 -9.5 -14t-15.5 -6h-130q-10 0 -12 -10z" />
    <glyph glyph-name="Utilde" unicode="&#x168;" 
d="M156 210q-7 -33 13 -56.5t65 -23.5q51 0 79 23.5t35 56.5l100 470q2 8 9 14t15 6h101q8 0 13 -6t3 -14l-100 -470q-10 -45 -31 -85.5t-54 -70.5t-78 -47.5t-102 -17.5q-51 0 -93.5 17.5t-71.5 47.5t-41.5 70.5t-2.5 85.5l100 470q2 8 9 14t15 6h101q8 0 13 -6t3 -14z
M489 864q19 0 30.5 6.5t19.5 14.5t16.5 4t5.5 -18l-12 -60q-4 -20 -28 -35.5t-54 -15.5q-24 0 -45 4t-41 8.5t-42 8.5t-47 4q-17 0 -28.5 -5.5t-21.5 -15.5q-8 -7 -16.5 -3.5t-5.5 17.5l12 60q4 20 28 35.5t54 15.5q24 0 45 -4t41 -8.5t41.5 -8.5t47.5 -4z" />
    <glyph glyph-name="utilde" unicode="&#x169;" 
d="M302 24q-11 0 -21.5 -5.5t-23.5 -12t-29.5 -12t-38.5 -5.5q-39 0 -71 14.5t-52 39.5t-28 59t1 73l65 305q2 8 9 14t15 6h90q8 0 13 -6t3 -14l-65 -306q-5 -25 10.5 -42t51.5 -17q35 0 58.5 16t28.5 39l66 310q2 8 9 14t15 6h90q8 0 13 -6t3 -14l-98 -460q-2 -8 -9 -14
t-15 -6h-50q-9 0 -13 3.5t-8 8.5q-3 5 -7 8.5t-12 3.5zM443 684q19 0 30.5 6.5t19.5 14.5t16.5 4t5.5 -18l-12 -60q-4 -20 -28 -35.5t-54 -15.5q-24 0 -45 4t-41 8.5t-42 8.5t-47 4q-17 0 -28.5 -5.5t-21.5 -15.5q-8 -7 -16.5 -3.5t-5.5 17.5l12 60q4 20 28 35.5t54 15.5
q24 0 45 -4t41 -8.5t41.5 -8.5t47.5 -4z" />
    <glyph glyph-name="Umacron" unicode="&#x16a;" 
d="M156 210q-7 -33 13 -56.5t65 -23.5q51 0 79 23.5t35 56.5l100 470q2 8 9 14t15 6h101q8 0 13 -6t3 -14l-100 -470q-10 -45 -31 -85.5t-54 -70.5t-78 -47.5t-102 -17.5q-51 0 -93.5 17.5t-71.5 47.5t-41.5 70.5t-2.5 85.5l100 470q2 8 9 14t15 6h101q8 0 13 -6t3 -14z
M236 760q-8 0 -13 6t-3 14l11 58q2 8 9 14t15 6h262q8 0 13 -6t3 -14l-11 -58q-2 -8 -9 -14t-15 -6h-262z" />
    <glyph glyph-name="umacron" unicode="&#x16b;" 
d="M302 24q-11 0 -21.5 -5.5t-23.5 -12t-29.5 -12t-38.5 -5.5q-39 0 -71 14.5t-52 39.5t-28 59t1 73l65 305q2 8 9 14t15 6h90q8 0 13 -6t3 -14l-65 -306q-5 -25 10.5 -42t51.5 -17q35 0 58.5 16t28.5 39l66 310q2 8 9 14t15 6h90q8 0 13 -6t3 -14l-98 -460q-2 -8 -9 -14
t-15 -6h-50q-9 0 -13 3.5t-8 8.5q-3 5 -7 8.5t-12 3.5zM194 596q-8 0 -13 6t-3 14l11 58q2 8 9 14t15 6h262q8 0 13 -6t3 -14l-11 -58q-2 -8 -9 -14t-15 -6h-262z" />
    <glyph glyph-name="Ubreve" unicode="&#x16c;" 
d="M156 210q-7 -33 13 -56.5t65 -23.5q51 0 79 23.5t35 56.5l100 470q2 8 9 14t15 6h101q8 0 13 -6t3 -14l-100 -470q-10 -45 -31 -85.5t-54 -70.5t-78 -47.5t-102 -17.5q-51 0 -93.5 17.5t-71.5 47.5t-41.5 70.5t-2.5 85.5l100 470q2 8 9 14t15 6h101q8 0 13 -6t3 -14z
M442 886q2 7 7.5 12t13.5 5h63q7 0 11 -5t2 -12q-6 -29 -19 -55.5t-34 -46.5t-50.5 -32t-68.5 -12q-36 0 -65 12t-48.5 32t-27.5 46.5t-2 55.5q2 7 8 12t13 5h63q8 0 11.5 -5t1.5 -12q-5 -23 10.5 -39.5t38.5 -16.5q30 0 48.5 16.5t23.5 39.5z" />
    <glyph glyph-name="ubreve" unicode="&#x16d;" 
d="M302 24q-11 0 -21.5 -5.5t-23.5 -12t-29.5 -12t-38.5 -5.5q-39 0 -71 14.5t-52 39.5t-28 59t1 73l65 305q2 8 9 14t15 6h90q8 0 13 -6t3 -14l-65 -306q-5 -25 10.5 -42t51.5 -17q35 0 58.5 16t28.5 39l66 310q2 8 9 14t15 6h90q8 0 13 -6t3 -14l-98 -460q-2 -8 -9 -14
t-15 -6h-50q-9 0 -13 3.5t-8 8.5q-3 5 -7 8.5t-12 3.5zM403 713q2 7 7.5 12t13.5 5h63q7 0 11 -5t2 -12q-6 -29 -19 -55.5t-34 -46.5t-50.5 -32t-68.5 -12q-36 0 -65 12t-48.5 32t-27.5 46.5t-2 55.5q2 7 8 12t13 5h63q8 0 11.5 -5t1.5 -12q-5 -23 10.5 -39.5t38.5 -16.5
q30 0 48.5 16.5t23.5 39.5z" />
    <glyph glyph-name="Uring" unicode="&#x16e;" 
d="M156 210q-7 -33 13 -56.5t65 -23.5q51 0 79 23.5t35 56.5l100 470q2 8 9 14t15 6h101q8 0 13 -6t3 -14l-100 -470q-10 -45 -31 -85.5t-54 -70.5t-78 -47.5t-102 -17.5q-51 0 -93.5 17.5t-71.5 47.5t-41.5 70.5t-2.5 85.5l100 470q2 8 9 14t15 6h101q8 0 13 -6t3 -14z
M266 830q0 28 10 53t27.5 43.5t41.5 29t53 10.5q24 0 43 -8t32.5 -21t20.5 -30.5t7 -36.5q0 -34 -12 -59t-31 -42t-42 -25.5t-44 -8.5q-24 0 -43.5 8t-33.5 21t-21.5 30.5t-7.5 35.5zM390 883q-14 0 -24.5 -9t-13.5 -23t4 -23t21 -9t25 9t14 23t-4.5 23t-21.5 9z" />
    <glyph glyph-name="uring" unicode="&#x16f;" 
d="M302 24q-11 0 -21.5 -5.5t-23.5 -12t-29.5 -12t-38.5 -5.5q-39 0 -71 14.5t-52 39.5t-28 59t1 73l65 305q2 8 9 14t15 6h90q8 0 13 -6t3 -14l-65 -306q-5 -25 10.5 -42t51.5 -17q35 0 58.5 16t28.5 39l66 310q2 8 9 14t15 6h90q8 0 13 -6t3 -14l-98 -460q-2 -8 -9 -14
t-15 -6h-50q-9 0 -13 3.5t-8 8.5q-3 5 -7 8.5t-12 3.5zM217 649q0 28 10 53t27.5 43.5t41.5 29t53 10.5q24 0 43 -8t32.5 -21t20.5 -30.5t7 -36.5q0 -34 -12 -59t-31 -42t-42 -25.5t-44 -8.5q-24 0 -43.5 8t-33.5 21t-21.5 30.5t-7.5 35.5zM341 702q-14 0 -24.5 -9
t-13.5 -23t4 -23t21 -9t25 9t14 23t-4.5 23t-21.5 9z" />
    <glyph glyph-name="Uhungarumlaut" unicode="&#x170;" 
d="M156 210q-7 -33 13 -56.5t65 -23.5q51 0 79 23.5t35 56.5l100 470q2 8 9 14t15 6h101q8 0 13 -6t3 -14l-100 -470q-10 -45 -31 -85.5t-54 -70.5t-78 -47.5t-102 -17.5q-51 0 -93.5 17.5t-71.5 47.5t-41.5 70.5t-2.5 85.5l100 470q2 8 9 14t15 6h101q8 0 13 -6t3 -14z
M450 910q14 0 15 -9t-9 -18l-141 -121q-5 -5 -12 -8.5t-21 -3.5h-69q-10 0 -14 9t8 21l106 114q5 5 12 10.5t18 5.5h107zM657 910q14 0 15 -9t-9 -18l-141 -121q-5 -5 -12 -8.5t-21 -3.5h-69q-10 0 -14 9t8 21l106 114q5 5 12 10.5t18 5.5h107z" />
    <glyph glyph-name="uhungarumlaut" unicode="&#x171;" 
d="M302 24q-11 0 -21.5 -5.5t-23.5 -12t-29.5 -12t-38.5 -5.5q-39 0 -71 14.5t-52 39.5t-28 59t1 73l65 305q2 8 9 14t15 6h90q8 0 13 -6t3 -14l-65 -306q-5 -25 10.5 -42t51.5 -17q35 0 58.5 16t28.5 39l66 310q2 8 9 14t15 6h90q8 0 13 -6t3 -14l-98 -460q-2 -8 -9 -14
t-15 -6h-50q-9 0 -13 3.5t-8 8.5q-3 5 -7 8.5t-12 3.5zM412 730q14 0 15 -9t-9 -18l-141 -121q-5 -5 -12 -8.5t-21 -3.5h-69q-10 0 -14 9t8 21l106 114q5 5 12 10.5t18 5.5h107zM619 730q14 0 15 -9t-9 -18l-141 -121q-5 -5 -12 -8.5t-21 -3.5h-69q-10 0 -14 9t8 21l106 114
q5 5 12 10.5t18 5.5h107z" />
    <glyph glyph-name="Uogonek" unicode="&#x172;" 
d="M447 680q2 8 9 14t15 6h101q8 0 13 -6t3 -14l-100 -470q-8 -36 -22 -69.5t-37 -60.5q-24 -29 -44.5 -46t-34.5 -31t-22 -30.5t-8 -44.5q0 -20 13.5 -34t35.5 -14q8 0 13 -6t3 -14l-12 -60q-2 -8 -9 -14t-15 -6q-29 0 -55.5 8t-46.5 25t-32 42t-12 60q0 40 14 74
q-50 0 -91 18t-69 48.5t-40 70.5t-3 84l100 470q2 8 9 14t15 6h101q8 0 13 -6t3 -14l-100 -470q-7 -33 13 -56.5t65 -23.5q51 0 79 23.5t35 56.5z" />
    <glyph glyph-name="uogonek" unicode="&#x173;" 
d="M392 0q-32 0 -52 -21t-20 -51q0 -20 13.5 -34t35.5 -14q8 0 13 -6t3 -14l-12 -60q-2 -8 -9 -14t-15 -6q-29 0 -55.5 8t-46.5 25t-32 42t-12 60q0 22 8.5 42.5t22.5 39.5q-10 -4 -20.5 -6t-24.5 -2q-39 0 -71 14.5t-52 39.5t-28 59t1 73l65 305q2 8 9 14t15 6h60
q7 0 16 0.5t16 -1t11.5 -6t2.5 -13.5l-65 -306q-5 -25 10.5 -42t51.5 -17q35 0 58.5 16t28.5 39l66 310q2 8 9 14t15 6h90q8 0 13 -6t3 -14l-90 -422q-2 -8 -3.5 -18t-4.5 -19t-8.5 -15t-15.5 -6z" />
    <glyph glyph-name="Wcircumflex" unicode="&#x174;" 
d="M349 285q0 -7 6 -7t8 7l123 400q2 8 8.5 11.5t13.5 3.5h93q12 0 15 -6t1 -14l-213 -665q-2 -8 -8.5 -11.5t-13.5 -3.5h-118q-16 0 -16 15l4 181q0 5 -5 5t-7 -5l-74 -181q-6 -15 -22 -15h-122q-7 0 -12 3.5t-4 11.5l71 665q1 8 6.5 14t17.5 6h93q7 0 12 -3.5t4 -11.5
l-46 -400q-1 -7 5 -7t9 7l78 200q6 15 22 15h60q16 0 16 -15zM320 766q-5 -5 -14.5 -10.5t-20.5 -5.5h-95q-12 0 -11 10t6 15l145 123q5 5 12 8.5t21 3.5h62q13 0 17.5 -3.5t8.5 -8.5l93 -123q4 -5 -0.5 -15t-18.5 -10h-85q-11 0 -17.5 5.5t-9.5 10.5l-30 44q-6 7 -14 0z
" />
    <glyph glyph-name="wcircumflex" unicode="&#x175;" 
d="M318 390q15 0 16 -15l5 -150q1 -5 5.5 -4.5t6.5 4.5l88 260q3 8 9.5 11.5t13.5 3.5h94q12 0 14.5 -7.5t-0.5 -15.5l-177 -462q-8 -15 -23 -15h-109q-7 0 -11.5 3.5t-3.5 11.5l-1 153q0 5 -6 5.5t-8 -5.5l-60 -153q-8 -15 -23 -15h-109q-7 0 -11.5 3.5t-3.5 11.5l17 462
q0 8 6 15.5t18 7.5h94q16 0 15 -15l-22 -260q0 -5 5 -4.5t7 4.5l64 150q3 8 9 11.5t13 3.5h68zM293 586q-5 -5 -14.5 -10.5t-20.5 -5.5h-95q-12 0 -11 10t6 15l145 123q5 5 12 8.5t21 3.5h62q13 0 17.5 -3.5t8.5 -8.5l93 -123q4 -5 -0.5 -15t-18.5 -10h-85q-11 0 -17.5 5.5
t-9.5 10.5l-30 44q-6 7 -14 0z" />
    <glyph glyph-name="Ycircumflex" unicode="&#x176;" 
d="M449 685q8 15 22 15h109q10 0 13.5 -8.5t-3.5 -19.5l-272 -446l-44 -206q-2 -8 -9 -14t-15 -6h-100q-8 0 -13 6t-3 14l44 206l-82 446q-2 11 5 19.5t17 8.5h100q13 0 16 -15l43 -277q0 -4 4 -4h2q3 0 6 4zM315 766q-5 -5 -14.5 -10.5t-20.5 -5.5h-95q-12 0 -11 10t6 15
l145 123q5 5 12 8.5t21 3.5h62q13 0 17.5 -3.5t8.5 -8.5l93 -123q4 -5 -0.5 -15t-18.5 -10h-85q-11 0 -17.5 5.5t-9.5 10.5l-30 44q-6 7 -14 0z" />
    <glyph glyph-name="ycircumflex" unicode="&#x177;" 
d="M255 -53q-17 -31 -40 -58t-53.5 -46.5t-69 -31t-85.5 -11.5h-28q-8 0 -13 6t-3 14l17 79q2 8 9 14t15 6h38q58 0 85 48l24 43q4 7 5 10.5t-1 11.5l-71 445q-2 8 5 15.5t19 7.5h94q15 0 16 -15l36 -284q1 -6 5 -6t7 6l142 284q7 15 22 15h101q12 0 15.5 -7.5t-1.5 -15.5z
M293 586q-5 -5 -14.5 -10.5t-20.5 -5.5h-95q-12 0 -11 10t6 15l145 123q5 5 12 8.5t21 3.5h62q13 0 17.5 -3.5t8.5 -8.5l93 -123q4 -5 -0.5 -15t-18.5 -10h-85q-11 0 -17.5 5.5t-9.5 10.5l-30 44q-6 7 -14 0z" />
    <glyph glyph-name="Ydieresis" unicode="&#x178;" 
d="M449 685q8 15 22 15h109q10 0 13.5 -8.5t-3.5 -19.5l-272 -446l-44 -206q-2 -8 -9 -14t-15 -6h-100q-8 0 -13 6t-3 14l44 206l-82 446q-2 11 5 19.5t17 8.5h100q13 0 16 -15l43 -277q0 -4 4 -4h2q3 0 6 4zM329 780q-2 -8 -9 -14t-15 -6h-90q-8 0 -13 6t-3 14l19 90
q2 8 9 14t15 6h90q8 0 13 -6t3 -14zM529 780q-2 -8 -9 -14t-15 -6h-90q-8 0 -13 6t-3 14l19 90q2 8 9 14t15 6h90q8 0 13 -6t3 -14z" />
    <glyph glyph-name="Zacute" unicode="&#x179;" 
d="M179 147q-3 -4 -2 -7t6 -3h263q8 0 13 -6t3 -14l-21 -97q-2 -8 -9 -14t-15 -6h-418q-8 0 -13 6t-3 14l23 109q1 8 8 16l360 408q3 4 2 7t-6 3h-237q-8 0 -13 6t-3 14l21 97q2 8 9 14t15 6h389q8 0 13 -6t3 -14l-25 -116q-1 -8 -8 -16zM534 910q14 0 15 -9t-9 -18
l-141 -121q-5 -5 -12 -8.5t-21 -3.5h-69q-10 0 -14 9t8 21l106 114q5 5 12 10.5t18 5.5h107z" />
    <glyph glyph-name="zacute" unicode="&#x17a;" 
d="M318 370q4 4 3 7t-6 3h-202q-8 0 -13 6t-3 14l17 80q2 8 9.5 14t15.5 6h348q8 0 12.5 -6t2.5 -14l-18 -87q-3 -14 -11.5 -23.5t-17.5 -17.5l-250 -222q-4 -4 -3 -7t6 -3h213q8 0 13 -6t3 -14l-17 -80q-2 -8 -9.5 -14t-15.5 -6h-372q-8 0 -12.5 6t-2.5 14l16 83
q2 10 4.5 15.5t13.5 15.5zM475 730q14 0 15 -9t-9 -18l-141 -121q-5 -5 -12 -8.5t-21 -3.5h-69q-10 0 -14 9t8 21l106 114q5 5 12 10.5t18 5.5h107z" />
    <glyph glyph-name="Zdotaccent" unicode="&#x17b;" 
d="M179 147q-3 -4 -2 -7t6 -3h263q8 0 13 -6t3 -14l-21 -97q-2 -8 -9 -14t-15 -6h-418q-8 0 -13 6t-3 14l23 109q1 8 8 16l360 408q3 4 2 7t-6 3h-237q-8 0 -13 6t-3 14l21 97q2 8 9 14t15 6h389q8 0 13 -6t3 -14l-25 -116q-1 -8 -8 -16zM425 766q-4 -16 -19 -16h-108
q-7 0 -11 4.5t-2 11.5l23 108q2 6 7 11t12 5h108q7 0 11 -5t2 -11z" />
    <glyph glyph-name="zdotaccent" unicode="&#x17c;" 
d="M318 370q4 4 3 7t-6 3h-202q-8 0 -13 6t-3 14l17 80q2 8 9.5 14t15.5 6h348q8 0 12.5 -6t2.5 -14l-18 -87q-3 -14 -11.5 -23.5t-17.5 -17.5l-250 -222q-4 -4 -3 -7t6 -3h213q8 0 13 -6t3 -14l-17 -80q-2 -8 -9.5 -14t-15.5 -6h-372q-8 0 -12.5 6t-2.5 14l16 83
q2 10 4.5 15.5t13.5 15.5zM373 586q-4 -16 -19 -16h-108q-7 0 -11 4.5t-2 11.5l23 108q2 6 7 11t12 5h108q7 0 11 -5t2 -11z" />
    <glyph glyph-name="Zcaron" unicode="&#x17d;" 
d="M179 147q-3 -4 -2 -7t6 -3h263q8 0 13 -6t3 -14l-21 -97q-2 -8 -9 -14t-15 -6h-418q-8 0 -13 6t-3 14l23 109q1 8 8 16l360 408q3 4 2 7t-6 3h-237q-8 0 -13 6t-3 14l21 97q2 8 9 14t15 6h389q8 0 13 -6t3 -14l-25 -116q-1 -8 -8 -16zM366 850q6 -8 14 0l44 44
q5 5 14.5 10.5t20.5 5.5h94q7 0 10 -3t3 -7t-1.5 -8.5t-4.5 -6.5l-145 -123q-5 -5 -12 -8.5t-20 -3.5h-62q-14 0 -18.5 3.5t-8.5 8.5l-93 123q-4 5 0 15t17 10h87q11 0 17 -5.5t10 -10.5z" />
    <glyph glyph-name="zcaron" unicode="&#x17e;" 
d="M318 370q4 4 3 7t-6 3h-202q-8 0 -13 6t-3 14l17 80q2 8 9.5 14t15.5 6h348q8 0 12.5 -6t2.5 -14l-18 -87q-3 -14 -11.5 -23.5t-17.5 -17.5l-250 -222q-4 -4 -3 -7t6 -3h213q8 0 13 -6t3 -14l-17 -80q-2 -8 -9.5 -14t-15.5 -6h-372q-8 0 -12.5 6t-2.5 14l16 83
q2 10 4.5 15.5t13.5 15.5zM328 670q6 -8 14 0l44 44q5 5 14.5 10.5t20.5 5.5h94q7 0 10 -3t3 -7t-1.5 -8.5t-4.5 -6.5l-145 -123q-5 -5 -12 -8.5t-20 -3.5h-62q-14 0 -18.5 3.5t-8.5 8.5l-93 123q-4 5 0 15t17 10h87q11 0 17 -5.5t10 -10.5z" />
    <glyph glyph-name="longs" unicode="&#x17f;" 
d="M243 20q-2 -8 -9 -14t-15 -6h-90q-8 0 -13 6t-3 14l74 347q2 10 -8 10h-110q-8 0 -13 6t-3 14l17 80q2 8 9.5 14t15.5 6h110q10 0 12 10l4 20q19 93 67 138t142 45h110q8 0 13 -6t3 -14l-19 -90q-2 -8 -9.5 -14t-15.5 -6h-90q-34 0 -50 -15t-21 -40z" />
    <glyph glyph-name="florin" unicode="&#x192;" 
d="M203 367q2 10 -8 10h-120q-8 0 -12.5 6t-2.5 14l17 80q2 8 9 14t15 6h120q10 0 12 10l4 20q20 88 78 135.5t151 47.5h60q8 0 13 -6t3 -14l-19 -90q-2 -8 -9 -14t-15 -6h-60q-29 0 -48 -15t-24 -40l-4 -18q-2 -10 8 -10h130q8 0 13 -6t3 -14l-17 -80q-2 -8 -9.5 -14
t-15.5 -6h-130q-10 0 -12 -10l-80 -377q-10 -47 -25 -82.5t-38 -59.5t-55 -36t-75 -12h-41q-8 0 -13 6t-3 14l19 90q2 8 8.5 14t14.5 6h22q20 0 34.5 14t21.5 46z" />
    <glyph glyph-name="Aringacute" unicode="&#x1fa;" 
d="M266 834q0 22 8 44t23 40.5t36.5 31t47.5 15.5l71 99q5 6 12 11t18 5h107q14 0 15 -9t-9 -18l-128 -110q20 -17 27 -36t7 -40q0 -32 -12 -57t-31 -41.5t-42.5 -25t-45.5 -8.5q-20 0 -38.5 6.5t-33 19.5t-23.5 31.5t-9 41.5zM390 883q-14 0 -24.5 -9t-13.5 -23t4 -23
t21 -9t25 9t14 23t-4.5 23t-21.5 9zM90 15q-7 -15 -22 -15h-110q-12 0 -15.5 6.5t-0.5 13.5l320 665q7 15 22 15h134q16 0 16 -15l36 -665q0 -7 -6 -13.5t-18 -6.5h-99q-16 0 -16 15l-4 103q0 6 -2.5 10.5t-9.5 4.5h-157q-11 0 -18 -15zM211 284q-4 -11 6 -11h97q10 0 10 11
v240q0 4 -4 4h-2q-5 0 -6 -4z" />
    <glyph glyph-name="aringacute" unicode="&#x1fb;" 
d="M207 653q0 22 8 44t23 40.5t36.5 31t47.5 15.5l71 99q5 6 12 11t18 5h107q14 0 15 -9t-9 -18l-128 -110q20 -17 27 -36t7 -40q0 -32 -12 -57t-31 -41.5t-42.5 -25t-45.5 -8.5q-20 0 -38.5 6.5t-33 19.5t-23.5 31.5t-9 41.5zM331 702q-14 0 -24.5 -9t-13.5 -23t4 -23
t21 -9t25 9t14 23t-4.5 23t-21.5 9zM339 304q0 34 -16 55t-51 21t-57.5 -18t-36 -44t-19 -57t-5.5 -56q0 -41 17.5 -63t49.5 -22q33 0 55.5 18t36.5 45.5t20 59.5t6 61zM183 -10q-33 0 -63 14.5t-52.5 40t-35.5 61.5t-13 80q0 64 17.5 122.5t50 103t78.5 71t104 26.5
q37 0 61 -14.5t37 -31.5q4 -5 7 -9t8 -4q6 0 10 8l12 29q6 13 15 13h74q8 0 13 -6t3 -14l-99 -460q-2 -8 -9 -14t-15 -6h-61q-11 0 -13 10q-1 4 -0.5 9.5t0 10t-2.5 7.5t-6 3q-7 0 -14.5 -8t-20.5 -17t-33 -17t-52 -8z" />
    <glyph glyph-name="AEacute" unicode="&#x1fc;" 
d="M234 118q2 6 -1.5 10.5t-10.5 4.5h-87q-11 0 -18 -15l-50 -103q-7 -15 -22 -15h-94q-12 0 -15.5 6.5t-0.5 13.5l314 654q3 7 13.5 16.5t26.5 9.5h297q8 0 13 -6t3 -14l-22 -100q-2 -8 -9 -14t-15 -6h-88q-10 0 -12 -10l-25 -120q-2 -10 7 -10h91q8 0 13 -6t3 -14
l-21 -100q-2 -8 -9 -14t-15 -6h-91q-11 0 -13 -10l-25 -120q-2 -10 8 -10h103q8 0 13 -6t3 -14l-22 -100q-2 -8 -9 -14t-15 -6h-223q-8 0 -13 6t-3 14zM257 273q9 0 12 11l57 266q2 10 -8 10h-2q-7 0 -10 -3.5t-5 -6.5l-111 -266q-4 -11 6 -11h61zM604 910q14 0 15 -9
t-9 -18l-141 -121q-5 -5 -12 -8.5t-21 -3.5h-69q-10 0 -14 9t8 21l106 114q5 5 12 10.5t18 5.5h107z" />
    <glyph glyph-name="aeacute" unicode="&#x1fd;" 
d="M249 24q-17 15 -38 0q-23 -17 -44.5 -26t-51.5 -9q-23 0 -46.5 9t-42.5 26.5t-31 41.5t-12 54q0 39 14 74t39.5 60.5t61.5 40.5t80 15h36q10 0 12 10l4 16q8 30 -2.5 45.5t-25.5 15.5q-20 0 -32.5 -9t-20.5 -29q-5 -13 -11 -16t-20 -3h-62q-8 0 -13 6t-3 14q6 27 20.5 54
t37 48.5t50.5 35t61 13.5q41 0 62.5 -9t40.5 -29q5 -5 13 -6t17 6q22 16 41 27t52 11q45 0 73.5 -17.5t42.5 -50t14 -79t-12 -104.5l-7 -30q-2 -8 -9 -14t-15 -6h-183q-15 0 -18 -15q-9 -42 2 -65.5t40 -23.5q42 0 62 46q4 10 11.5 13.5t14.5 3.5h63q17 0 13 -20
q-6 -26 -20 -54t-35.5 -51.5t-50 -39t-61.5 -15.5q-48 0 -73.5 12t-37.5 23zM165 204q-19 0 -32 -6t-21.5 -15t-12 -20.5t-3.5 -22.5q0 -20 11 -29t28 -9q26 0 42.5 20t24.5 58l3 14q2 10 -8 10h-32zM342 319q-2 -9 8 -9h101q10 0 12 9q8 36 -4 55t-38 19q-32 0 -52.5 -22.5
t-26.5 -51.5zM545 730q14 0 15 -9t-9 -18l-141 -121q-5 -5 -12 -8.5t-21 -3.5h-69q-10 0 -14 9t8 21l106 114q5 5 12 10.5t18 5.5h107z" />
    <glyph glyph-name="Oslashacute" unicode="&#x1fe;" 
d="M534 910q14 0 15 -9t-9 -18l-141 -121q-5 -5 -12 -8.5t-21 -3.5h-69q-10 0 -14 9t8 21l106 114q5 5 12 10.5t18 5.5h107zM95 12q-9 -12 -22 -12h-69q-10 0 -15 7t3 18l35 49q4 5 2.5 8l-2.5 5q-29 56 -22 123q3 31 8.5 67t13.5 73t17 72.5t20 67.5q15 45 36.5 85
t52.5 70.5t74 48t102 17.5q72 0 122 -32q2 -1 4.5 -2t6.5 5l2 3q10 15 22 15h69q10 0 14 -8.5t-4 -19.5l-43 -60q-3 -5 -2.5 -7t1.5 -4q25 -51 19 -111q-3 -32 -8.5 -67.5t-13.5 -72.5t-17.5 -73t-19.5 -67q-15 -45 -36.5 -85t-52.5 -70.5t-74.5 -48t-101.5 -17.5
q-34 0 -64 5t-50 20q-2 2 -3.5 1t-3.5 -3zM319 570q-46 0 -74.5 -23.5t-39.5 -56.5q-17 -53 -33.5 -114t-20.5 -120q0 -9 6 -1l209 293q5 6 3 8.5t-4 3.5q-20 10 -46 10zM226 130q49 0 76 23.5t38 56.5q15 46 28.5 101.5t20.5 106.5q0 7 -4 1l-197 -276q-3 -5 -1 -6.5
t4 -2.5q13 -4 35 -4z" />
    <glyph glyph-name="oslashacute" unicode="&#x1ff;" 
d="M500 730q14 0 15 -9t-9 -18l-141 -121q-5 -5 -12 -8.5t-21 -3.5h-69q-10 0 -14 9t8 21l106 114q5 5 12 10.5t18 5.5h107zM479 407q-5 -5 -5 -8t1 -5q5 -16 7 -33.5t0 -35.5q-1 -15 -4 -34.5t-7 -40.5t-8.5 -40.5t-9.5 -34.5q-14 -39 -32.5 -73t-45.5 -59t-64 -39.5
t-87 -14.5q-35 0 -64 8.5t-52 22.5q-2 1 -5 2t-8 -4l-3 -3q-7 -7 -12 -11t-12 -4h-71q-10 0 -14.5 9.5t4.5 18.5l56 56q5 5 4 8t-2 5q-14 35 -9 78q1 15 4 34.5t7 40.5t8.5 40.5t9.5 34.5q13 39 32.5 73t46.5 59t64 39.5t86 14.5q74 0 124 -36q2 -2 4.5 -3t7.5 4l9 9l11 11
t11 4h71q10 0 14.5 -9.5t-4.5 -18.5zM197 325q-8 -20 -14 -47.5t-11 -53.5q-1 -3 0 -5.5t6 2.5l143 145q6 6 4 8.5t-4 3.5q-13 5 -35 5q-38 0 -58 -14.5t-31 -43.5zM321 175q6 17 11.5 39.5t10.5 45.5q1 3 -0.5 5.5t-6.5 -2.5l-133 -135q-5 -5 -2.5 -6t4.5 -2q10 -3 26 -3
q38 0 59.5 16.5t30.5 41.5z" />
    <glyph glyph-name="Scommaaccent" unicode="&#x218;" 
d="M148 238q-9 -26 -5.5 -46.5t16 -35t31.5 -22.5t41 -8q21 0 40.5 6.5t34.5 18.5t24 29t9 37q0 32 -24.5 48t-73.5 28q-93 22 -134 68.5t-41 123.5q0 50 20.5 91.5t56.5 71.5t84 46.5t103 16.5q43 0 80.5 -13.5t65.5 -37.5t43.5 -57t14.5 -72q0 -8 -1 -19.5t-4.5 -22
t-9.5 -17.5t-16 -7h-101q-8 0 -13 6t-3 14l3 15q7 30 -11.5 52.5t-61.5 22.5q-48 0 -75.5 -22t-27.5 -53q0 -21 10 -33.5t25.5 -20.5t35 -13t37.5 -11q37 -11 68 -27t53 -37.5t34 -50.5t12 -67q0 -52 -19 -97.5t-53.5 -79.5t-83.5 -54t-109 -20q-53 0 -96.5 15t-74 41.5
t-45.5 64t-10 82.5q1 8 3 19.5t5.5 22t9.5 17.5t16 7h101q8 0 13.5 -6t2.5 -14zM117 -185q-8 0 -13.5 6t-3.5 14l20 100q2 8 9 14t15 6h100q8 0 13 -6t3 -14l-19 -97q-4 -20 -14 -37.5t-21 -31.5l-45 -54q-6 -7 -14.5 -13.5t-23.5 -6.5h-10q-15 0 -19 12t6 26l47 69
q4 5 1.5 9t-7.5 4h-24z" />
    <glyph glyph-name="scommaaccent" unicode="&#x219;" 
d="M22 154q2 13 10.5 21.5t25.5 8.5h65q18 0 22.5 -6t2.5 -19q-3 -29 19.5 -40.5t57.5 -11.5q20 0 38.5 3.5t32.5 10t22.5 16.5t8.5 23t-11.5 21t-28 12.5t-33.5 7t-29 4.5q-25 4 -52 12.5t-49 24.5t-36 42t-14 66q0 32 17.5 61t47.5 51.5t69 35.5t83 13q39 0 75 -11
t63 -30.5t41 -47.5t7 -62q-4 -19 -11 -24.5t-21 -5.5h-69q-8 0 -14 4.5t-4 20.5q1 25 -20.5 35.5t-49.5 10.5q-34 0 -61.5 -12.5t-27.5 -38.5q0 -12 10.5 -20t25.5 -12.5t31 -7.5t27 -4q19 -3 46 -9t52 -20.5t42.5 -40t17.5 -66.5t-18.5 -74t-50.5 -57t-74 -37t-88 -13
q-43 0 -82 10.5t-66.5 31t-41.5 51.5t-8 72zM142 -185q-8 0 -13.5 6t-3.5 14l20 100q2 8 9 14t15 6h100q8 0 13 -6t3 -14l-19 -97q-4 -20 -14 -37.5t-21 -31.5l-45 -54q-6 -7 -14.5 -13.5t-23.5 -6.5h-10q-15 0 -19 12t6 26l47 69q4 5 1.5 9t-7.5 4h-24z" />
    <glyph glyph-name="uni021A" unicode="&#x21a;" 
d="M85 560q-8 0 -13 6t-3 14l22 100q2 8 9 14t15 6h450q8 0 13 -6t3 -14l-22 -100q-2 -8 -9 -14t-15 -6h-140q-10 0 -12 -10l-113 -530q-2 -8 -9 -14t-15 -6h-100q-8 0 -13 6t-3 14l113 530q2 10 -8 10h-150zM117 -185q-8 0 -13.5 6t-3.5 14l20 100q2 8 9 14t15 6h100
q8 0 13 -6t3 -14l-19 -97q-4 -20 -14 -37.5t-21 -31.5l-45 -54q-6 -7 -14.5 -13.5t-23.5 -6.5h-10q-15 0 -19 12t6 26l47 69q4 5 1.5 9t-7.5 4h-24z" />
    <glyph glyph-name="uni021B" unicode="&#x21b;" 
d="M244 170q-5 -25 9.5 -38t39.5 -13t45.5 13t25.5 38q2 8 9 14t15 6h90q8 0 13 -6t3 -14q-9 -39 -27.5 -72t-46 -57.5t-63 -38t-77.5 -13.5q-37 0 -72 10t-59.5 33t-35 60.5t1.5 91.5l40 183q2 10 -7 10h-98q-8 0 -13 6t-3 14l17 80q2 8 9 14t15 6h98q10 0 12 10l33 153
q2 8 9 14t15 6h90q8 0 13 -6t3 -14l-33 -153q-2 -10 8 -10h170q8 0 13 -6t3 -14l-17 -80q-2 -8 -9 -14t-15 -6h-170q-10 0 -13 -10zM177 -185q-8 0 -13.5 6t-3.5 14l20 100q2 8 9 14t15 6h100q8 0 13 -6t3 -14l-19 -97q-4 -20 -14 -37.5t-21 -31.5l-45 -54
q-6 -7 -14.5 -13.5t-23.5 -6.5h-10q-15 0 -19 12t6 26l47 69q4 5 1.5 9t-7.5 4h-24z" />
    <glyph glyph-name="hsuperior" unicode="&#x2b0;" 
d="M160 350q-9 0 -7 10l71 336q2 10 12 10h57q10 0 8 -10l-17 -87q-2 -8 2 -11.5t12 1.5q5 2 10 4.5t12 2.5q17 0 32.5 -7t26.5 -19.5t15.5 -29.5t0.5 -36l-33 -154q-2 -10 -12 -10h-57q-10 0 -8 10l33 154q2 7 -4 12.5t-20 5.5q-28 0 -33 -19l-32 -153q-2 -10 -12 -10h-57z
" />
    <glyph glyph-name="jsuperior" unicode="&#x2b2;" 
d="M404 632q-2 -7 -9 -7h-66q-3 0 -5.5 2t-1.5 5l14 66q2 8 10 8h65q9 0 7 -8zM338 338q-4 -18 -14 -35t-24.5 -30t-32.5 -21t-37 -8q-21 0 -40.5 7t-34 20t-21.5 31t-2 39q2 10 11 10h57q10 0 8 -10q-2 -12 7.5 -16t14.5 -4q18 0 26.5 11.5t10.5 23.5l33 162q2 5 -4 5h-53
q-9 0 -7 10l12 57q2 10 12 10h127q7 0 5 -7z" />
    <glyph glyph-name="wsuperior" unicode="&#x2b7;" 
d="M280 545q8 0 8 -8l10 -78q0 -2 2.5 -1.5t2.5 2.5l40 133q1 7 11 7h60q6 0 7.5 -4t-0.5 -8l-87 -230q-3 -8 -11 -8h-60q-8 0 -8 8l-5 74q0 2 -3 2.5t-5 -2.5l-34 -75q-3 -7 -12 -7h-60q-8 0 -8 8l10 231q0 3 3 7t9 4h60q9 0 8 -7l-13 -134q0 -2 2.5 -1.5t2.5 2.5l36 78
q3 7 10 7h24z" />
    <glyph glyph-name="ysuperior" unicode="&#x2b8;" 
d="M290 328q-8 -16 -18.5 -30.5t-26 -25t-38 -16.5t-55.5 -6h-19q-10 0 -8 10l10 48q4 11 12 11h26q7 0 16 0.5t16.5 3t13 8.5t5.5 17q0 5 -0.5 8t-1.5 8l-34 225q-1 4 2.5 7.5t9.5 3.5h58q8 0 8 -7l13 -130q1 -4 3 -4.5t4 3.5l58 130q4 8 12 8h61q6 0 7.5 -3.5t-0.5 -7.5z
" />
    <glyph glyph-name="apostrophemod" unicode="&#x2bc;" 
d="M215 540q-8 0 -12.5 6t-2.5 14l25 120q2 8 9 14t15 6h120q8 0 13 -6t3 -14l-25 -117q-4 -20 -14 -38t-22 -31l-82 -84q-6 -7 -14.5 -13.5t-23.5 -6.5h-20q-15 0 -19 12t6 26l75 99q4 5 1 9t-8 4h-24z" />
    <glyph glyph-name="circumflex" unicode="&#x2c6;" 
d="M233 586q-5 -5 -14.5 -10.5t-20.5 -5.5h-95q-12 0 -11 10t6 15l145 123q5 5 12 8.5t21 3.5h62q13 0 17.5 -3.5t8.5 -8.5l93 -123q4 -5 -0.5 -15t-18.5 -10h-85q-11 0 -17.5 5.5t-9.5 10.5l-30 44q-6 7 -14 0z" />
    <glyph glyph-name="caron" unicode="&#x2c7;" 
d="M258 670q6 -8 14 0l44 44q5 5 14.5 10.5t20.5 5.5h94q7 0 10 -3t3 -7t-1.5 -8.5t-4.5 -6.5l-145 -123q-5 -5 -12 -8.5t-20 -3.5h-62q-14 0 -18.5 3.5t-8.5 8.5l-93 123q-4 5 0 15t17 10h87q11 0 17 -5.5t10 -10.5z" />
    <glyph glyph-name="breve" unicode="&#x2d8;" 
d="M357 713q2 7 7.5 12t13.5 5h63q7 0 11 -5t2 -12q-6 -29 -19 -55.5t-34 -46.5t-50.5 -32t-68.5 -12q-36 0 -65 12t-48.5 32t-27.5 46.5t-2 55.5q2 7 8 12t13 5h63q8 0 11.5 -5t1.5 -12q-5 -23 10.5 -39.5t38.5 -16.5q30 0 48.5 16.5t23.5 39.5z" />
    <glyph glyph-name="dotaccent" unicode="&#x2d9;" 
d="M333 586q-4 -16 -19 -16h-108q-7 0 -11 4.5t-2 11.5l23 108q2 6 7 11t12 5h108q7 0 11 -5t2 -11z" />
    <glyph glyph-name="ring" unicode="&#x2da;" 
d="M157 649q0 28 10 53t27.5 43.5t41.5 29t53 10.5q24 0 43 -8t32.5 -21t20.5 -30.5t7 -36.5q0 -34 -12 -59t-31 -42t-42 -25.5t-44 -8.5q-24 0 -43.5 8t-33.5 21t-21.5 30.5t-7.5 35.5zM281 702q-14 0 -24.5 -9t-13.5 -23t4 -23t21 -9t25 9t14 23t-4.5 23t-21.5 9z" />
    <glyph glyph-name="ogonek" unicode="&#x2db;" 
d="M405 0q-30 0 -51 -20t-21 -52q0 -20 13.5 -34t35.5 -14q8 0 13 -6t3 -14l-12 -60q-2 -8 -9 -14t-15 -6q-29 0 -55.5 8t-46.5 25t-32 42t-12 60q0 43 16.5 77.5t45 58.5t66.5 36.5t81 12.5q8 0 13 -6t3 -14l-12 -60q-2 -8 -9 -14t-15 -6z" />
    <glyph glyph-name="tilde" unicode="&#x2dc;" 
d="M372 684q19 0 30.5 6.5t19.5 14.5t16.5 4t5.5 -18l-12 -60q-4 -20 -28 -35.5t-54 -15.5q-24 0 -45 4t-41 8.5t-42 8.5t-47 4q-17 0 -28.5 -5.5t-21.5 -15.5q-8 -7 -16.5 -3.5t-5.5 17.5l12 60q4 20 28 35.5t54 15.5q24 0 45 -4t41 -8.5t41.5 -8.5t47.5 -4z" />
    <glyph glyph-name="hungarumlaut" unicode="&#x2dd;" 
d="M292 730q14 0 15 -9t-9 -18l-141 -121q-5 -5 -12 -8.5t-21 -3.5h-69q-10 0 -14 9t8 21l106 114q5 5 12 10.5t18 5.5h107zM499 730q14 0 15 -9t-9 -18l-141 -121q-5 -5 -12 -8.5t-21 -3.5h-69q-10 0 -14 9t8 21l106 114q5 5 12 10.5t18 5.5h107z" />
    <glyph glyph-name="xsuperior" unicode="&#x2e3;" 
d="M225 355q-3 -5 -12 -5h-66q-8 0 -9 5t4 11l78 105q3 4 3.5 6t-1.5 7l-38 99q-2 7 1.5 12t9.5 5h55q6 0 7.5 -1.5t2.5 -3.5l22 -59q1 -6 7 1l42 58q2 2 4 3.5t8 1.5h60q8 0 8.5 -5t-4.5 -11l-77 -99q-6 -6 -3 -13l42 -105q2 -7 -1 -12t-10 -5h-60q-8 0 -10 5l-19 63
q-2 9 -7 -1z" />
    <glyph glyph-name="Delta" unicode="&#x394;" 
d="M25 0q-8 0 -13 6t-3 14l11 51q2 8 6.5 16.5t6.5 12.5l324 585q7 15 22 15h64q14 0 16 -15l75 -585q1 -4 2 -12.5t-1 -16.5l-11 -51q-2 -8 -9 -14t-15 -6h-475zM403 118q8 0 6 10l-35 373q0 4 -4 4h-2q-2 0 -4 -4l-195 -373q-2 -4 -2.5 -7t4.5 -3h232z" />
    <glyph glyph-name="Omega" unicode="&#x3a9;" 
d="M421 142q-10 -11 -11 -16.5t13 -5.5h27q8 0 13 -6t3 -14l-17 -80q-2 -8 -9 -14t-15 -6h-156q-8 0 -13 6t-3 14l23 109q4 16 11.5 25t23.5 21q69 54 99 122t30 142q0 30 -5 55.5t-17 43.5t-31.5 28t-48.5 10q-48 0 -81 -26t-53.5 -65t-29.5 -85.5t-9 -86.5
q0 -51 11.5 -86.5t27.5 -51.5q8 -8 13.5 -18t1.5 -28l-23 -109q-2 -8 -9 -14t-15 -6h-155q-8 0 -13 6t-3 14l17 80q2 8 9 14t15 6h26q8 0 13.5 5t-0.5 16q-17 31 -29 66.5t-12 94.5q0 77 23 149.5t65.5 128.5t102.5 89.5t134 33.5q53 0 91.5 -17.5t64 -50t37.5 -78.5
t12 -103q0 -71 -16.5 -121t-40 -85.5t-49 -60t-43.5 -45.5z" />
    <glyph glyph-name="mu" unicode="&#x3bc;" 
d="M141 480q2 8 9 14t15 6h60q7 0 16 0.5t16 -1t11.5 -6t2.5 -13.5l-65 -306q-5 -25 10.5 -42t51.5 -17q35 0 58.5 16t28.5 39l66 310q2 8 9 14t15 6h90q8 0 13 -6t3 -14l-98 -460q-2 -8 -9 -14t-15 -6h-50q-9 0 -13.5 3.5t-7.5 8t-7 8.5t-12 4q-9 0 -18 -4.5t-19.5 -10
t-23.5 -10t-30 -4.5q-21 1 -32.5 7.5t-24.5 6.5q-9 0 -16.5 -7t-10.5 -21l-34 -161q-2 -8 -9 -14t-15 -6h-90q-8 0 -13 6t-3 14z" />
    <glyph glyph-name="pi" unicode="&#x3c0;" 
d="M433 370q-10 0 -12 -10l-36 -170q-8 -37 4.5 -54t56.5 -17q8 0 12.5 -6t2.5 -14l-16 -79q-2 -8 -9.5 -14t-15.5 -6q-100 0 -140 45t-19 145l36 170q2 10 -6 10h-67q-10 0 -12 -10l-72 -340q-2 -8 -9.5 -14t-15.5 -6h-85q-8 0 -12.5 6t-2.5 14l72 340q2 10 -8 10h-45
q-8 0 -13 6t-3 14l19 90q2 8 9.5 14t15.5 6h460q8 0 12.5 -6t2.5 -14l-19 -90q-2 -8 -9 -14t-15 -6h-61z" />
    <glyph glyph-name="Wgrave" unicode="&#x1e80;" 
d="M349 285q0 -7 6 -7t8 7l123 400q2 8 8.5 11.5t13.5 3.5h93q12 0 15 -6t1 -14l-213 -665q-2 -8 -8.5 -11.5t-13.5 -3.5h-118q-16 0 -16 15l4 181q0 5 -5 5t-7 -5l-74 -181q-6 -15 -22 -15h-122q-7 0 -12 3.5t-4 11.5l71 665q1 8 6.5 14t17.5 6h93q7 0 12 -3.5t4 -11.5
l-46 -400q-1 -7 5 -7t9 7l78 200q6 15 22 15h60q16 0 16 -15zM341 910q11 0 15.5 -5.5t6.5 -10.5l58 -114q6 -12 -2 -21t-18 -9h-63q-14 0 -18.5 3.5t-8.5 8.5l-89 121q-7 9 -1.5 18t19.5 9h101z" />
    <glyph glyph-name="wgrave" unicode="&#x1e81;" 
d="M318 390q15 0 16 -15l5 -150q1 -5 5.5 -4.5t6.5 4.5l88 260q3 8 9.5 11.5t13.5 3.5h94q12 0 14.5 -7.5t-0.5 -15.5l-177 -462q-8 -15 -23 -15h-109q-7 0 -11.5 3.5t-3.5 11.5l-1 153q0 5 -6 5.5t-8 -5.5l-60 -153q-8 -15 -23 -15h-109q-7 0 -11.5 3.5t-3.5 11.5l17 462
q0 8 6 15.5t18 7.5h94q16 0 15 -15l-22 -260q0 -5 5 -4.5t7 4.5l64 150q3 8 9 11.5t13 3.5h68zM315 730q11 0 15.5 -5.5t6.5 -10.5l58 -114q6 -12 -2 -21t-18 -9h-63q-14 0 -18.5 3.5t-8.5 8.5l-89 121q-7 9 -1.5 18t19.5 9h101z" />
    <glyph glyph-name="Wacute" unicode="&#x1e82;" 
d="M349 285q0 -7 6 -7t8 7l123 400q2 8 8.5 11.5t13.5 3.5h93q12 0 15 -6t1 -14l-213 -665q-2 -8 -8.5 -11.5t-13.5 -3.5h-118q-16 0 -16 15l4 181q0 5 -5 5t-7 -5l-74 -181q-6 -15 -22 -15h-122q-7 0 -12 3.5t-4 11.5l71 665q1 8 6.5 14t17.5 6h93q7 0 12 -3.5t4 -11.5
l-46 -400q-1 -7 5 -7t9 7l78 200q6 15 22 15h60q16 0 16 -15zM539 910q14 0 15 -9t-9 -18l-141 -121q-5 -5 -12 -8.5t-21 -3.5h-69q-10 0 -14 9t8 21l106 114q5 5 12 10.5t18 5.5h107z" />
    <glyph glyph-name="wacute" unicode="&#x1e83;" 
d="M318 390q15 0 16 -15l5 -150q1 -5 5.5 -4.5t6.5 4.5l88 260q3 8 9.5 11.5t13.5 3.5h94q12 0 14.5 -7.5t-0.5 -15.5l-177 -462q-8 -15 -23 -15h-109q-7 0 -11.5 3.5t-3.5 11.5l-1 153q0 5 -6 5.5t-8 -5.5l-60 -153q-8 -15 -23 -15h-109q-7 0 -11.5 3.5t-3.5 11.5l17 462
q0 8 6 15.5t18 7.5h94q16 0 15 -15l-22 -260q0 -5 5 -4.5t7 4.5l64 150q3 8 9 11.5t13 3.5h68zM485 730q14 0 15 -9t-9 -18l-141 -121q-5 -5 -12 -8.5t-21 -3.5h-69q-10 0 -14 9t8 21l106 114q5 5 12 10.5t18 5.5h107z" />
    <glyph glyph-name="Wdieresis" unicode="&#x1e84;" 
d="M349 285q0 -7 6 -7t8 7l123 400q2 8 8.5 11.5t13.5 3.5h93q12 0 15 -6t1 -14l-213 -665q-2 -8 -8.5 -11.5t-13.5 -3.5h-118q-16 0 -16 15l4 181q0 5 -5 5t-7 -5l-74 -181q-6 -15 -22 -15h-122q-7 0 -12 3.5t-4 11.5l71 665q1 8 6.5 14t17.5 6h93q7 0 12 -3.5t4 -11.5
l-46 -400q-1 -7 5 -7t9 7l78 200q6 15 22 15h60q16 0 16 -15zM327 780q-2 -8 -9 -14t-15 -6h-90q-8 0 -13 6t-3 14l19 90q2 8 9 14t15 6h90q8 0 13 -6t3 -14zM527 780q-2 -8 -9 -14t-15 -6h-90q-8 0 -13 6t-3 14l19 90q2 8 9 14t15 6h90q8 0 13 -6t3 -14z" />
    <glyph glyph-name="wdieresis" unicode="&#x1e85;" 
d="M319 390q15 0 16 -15l5 -150q1 -5 5.5 -4.5t6.5 4.5l88 260q3 8 9.5 11.5t13.5 3.5h94q12 0 14.5 -7.5t-0.5 -15.5l-177 -462q-8 -15 -23 -15h-109q-7 0 -11.5 3.5t-3.5 11.5l-1 153q0 5 -6 5.5t-8 -5.5l-60 -153q-8 -15 -23 -15h-109q-7 0 -11.5 3.5t-3.5 11.5l17 462
q0 8 6 15.5t18 7.5h94q16 0 15 -15l-22 -260q0 -5 5 -4.5t7 4.5l64 150q3 8 9 11.5t13 3.5h68zM291 600q-2 -8 -9 -14t-15 -6h-90q-8 0 -13 6t-3 14l19 90q2 8 9 14t15 6h90q8 0 13 -6t3 -14zM491 600q-2 -8 -9 -14t-15 -6h-90q-8 0 -13 6t-3 14l19 90q2 8 9 14t15 6h90
q8 0 13 -6t3 -14z" />
    <glyph glyph-name="Ygrave" unicode="&#x1ef2;" 
d="M449 685q8 15 22 15h109q10 0 13.5 -8.5t-3.5 -19.5l-272 -446l-44 -206q-2 -8 -9 -14t-15 -6h-100q-8 0 -13 6t-3 14l44 206l-82 446q-2 11 5 19.5t17 8.5h100q13 0 16 -15l43 -277q0 -4 4 -4h2q3 0 6 4zM346 910q11 0 15.5 -5.5t6.5 -10.5l58 -114q6 -12 -2 -21t-18 -9
h-63q-14 0 -18.5 3.5t-8.5 8.5l-89 121q-7 9 -1.5 18t19.5 9h101z" />
    <glyph glyph-name="ygrave" unicode="&#x1ef3;" 
d="M255 -53q-17 -31 -40 -58t-53.5 -46.5t-69 -31t-85.5 -11.5h-28q-8 0 -13 6t-3 14l17 79q2 8 9 14t15 6h38q58 0 85 48l24 43q4 7 5 10.5t-1 11.5l-71 445q-2 8 5 15.5t19 7.5h94q15 0 16 -15l36 -284q1 -6 5 -6t7 6l142 284q7 15 22 15h101q12 0 15.5 -7.5t-1.5 -15.5z
M275 730q11 0 15.5 -5.5t6.5 -10.5l58 -114q6 -12 -2 -21t-18 -9h-63q-14 0 -18.5 3.5t-8.5 8.5l-89 121q-7 9 -1.5 18t19.5 9h101z" />
    <glyph glyph-name="endash" unicode="&#x2013;" 
d="M493 325q8 0 13 -6t3 -14l-19 -89q-2 -8 -9 -14t-15 -6h-410q-8 0 -13 6t-3 14l19 89q2 8 9 14t15 6h410z" />
    <glyph glyph-name="emdash" unicode="&#x2014;" 
d="M567 325q8 0 13 -6t3 -14l-19 -89q-2 -8 -9 -14t-15 -6h-557q-8 0 -13 6t-3 14l19 89q2 8 9 14t15 6h557z" />
    <glyph glyph-name="quoteleft" unicode="&#x2018;" 
d="M336 560q8 0 12.5 -6t2.5 -14l-25 -120q-2 -8 -9 -14t-15 -6h-120q-8 0 -13 6t-3 14l25 117q4 20 14 38t22 31l82 84q6 7 14.5 13.5t23.5 6.5h20q15 0 19 -12t-6 -26l-75 -99q-4 -5 -1 -9t8 -4h24z" />
    <glyph glyph-name="quoteright" unicode="&#x2019;" 
d="M215 540q-8 0 -12.5 6t-2.5 14l25 120q2 8 9 14t15 6h120q8 0 13 -6t3 -14l-25 -117q-4 -20 -14 -38t-22 -31l-82 -84q-6 -7 -14.5 -13.5t-23.5 -6.5h-20q-15 0 -19 12t6 26l75 99q4 5 1 9t-8 4h-24z" />
    <glyph glyph-name="quotesinglbase" unicode="&#x201a;" 
d="M215 0q-8 0 -12.5 6t-2.5 14l25 120q2 8 9 14t15 6h120q8 0 13 -6t3 -14l-25 -117q-4 -20 -14 -38t-22 -31l-82 -84q-6 -7 -14.5 -13.5t-23.5 -6.5h-20q-15 0 -19 12t6 26l75 99q4 5 1 9t-8 4h-24z" />
    <glyph glyph-name="quotedblleft" unicode="&#x201c;" 
d="M228 560q8 0 12.5 -6t2.5 -14l-25 -120q-2 -8 -9 -14t-15 -6h-120q-8 0 -13 6t-3 14l25 117q4 20 14 38t22 31l82 84q6 7 14.5 13.5t23.5 6.5h20q15 0 19 -12t-6 -26l-75 -99q-4 -5 -1 -9t8 -4h24zM441 560q8 0 12.5 -6t2.5 -14l-25 -120q-2 -8 -9 -14t-15 -6h-120
q-8 0 -13 6t-3 14l25 117q4 20 14 38t22 31l82 84q6 7 14.5 13.5t23.5 6.5h20q15 0 19 -12t-6 -26l-75 -99q-4 -5 -1 -9t8 -4h24z" />
    <glyph glyph-name="quotedblright" unicode="&#x201d;" 
d="M318 540q-8 0 -12.5 6t-2.5 14l25 120q2 8 9 14t15 6h120q8 0 13 -6t3 -14l-25 -117q-4 -20 -14 -38t-22 -31l-82 -84q-6 -7 -14.5 -13.5t-23.5 -6.5h-20q-15 0 -19 12t6 26l75 99q4 5 1 9t-8 4h-24zM105 540q-8 0 -12.5 6t-2.5 14l25 120q2 8 9 14t15 6h120q8 0 13 -6
t3 -14l-25 -117q-4 -20 -14 -38t-22 -31l-82 -84q-6 -7 -14.5 -13.5t-23.5 -6.5h-20q-15 0 -19 12t6 26l75 99q4 5 1 9t-8 4h-24z" />
    <glyph glyph-name="quotedblbase" unicode="&#x201e;" 
d="M318 0q-8 0 -12.5 6t-2.5 14l25 120q2 8 9 14t15 6h120q8 0 13 -6t3 -14l-25 -117q-4 -20 -14 -38t-22 -31l-82 -84q-6 -7 -14.5 -13.5t-23.5 -6.5h-20q-15 0 -19 12t6 26l75 99q4 5 1 9t-8 4h-24zM105 0q-8 0 -12.5 6t-2.5 14l25 120q2 8 9 14t15 6h120q8 0 13 -6t3 -14
l-25 -117q-4 -20 -14 -38t-22 -31l-82 -84q-6 -7 -14.5 -13.5t-23.5 -6.5h-20q-15 0 -19 12t6 26l75 99q4 5 1 9t-8 4h-24z" />
    <glyph glyph-name="dagger" unicode="&#x2020;" 
d="M222 -100q-2 -8 -9.5 -14t-15.5 -6h-80q-8 0 -12.5 6t-2.5 14l97 460q2 10 -7 10h-130q-8 0 -13 6t-3 14l17 80q2 8 9 14t15 6h130q10 0 12 10l38 180q2 8 9.5 14t15.5 6h80q8 0 12.5 -6t2.5 -14l-38 -180q-2 -10 8 -10h130q8 0 13 -6t3 -14l-17 -80q-2 -8 -9 -14t-15 -6
h-130q-11 0 -13 -10z" />
    <glyph glyph-name="daggerdbl" unicode="&#x2021;" 
d="M39 158q-8 0 -13 6t-3 14l17 78q2 8 9 14t15 6h128q10 0 12 10l27 128q2 10 -8 10h-128q-8 0 -13 6t-3 14l17 78q2 8 9 14t15 6h128q10 0 12 10l28 128q2 8 9 14t15 6h74q8 0 13 -6t3 -14l-28 -128q-2 -10 8 -10h128q8 0 13 -6t3 -14l-17 -78q-2 -8 -9 -14t-15 -6h-128
q-10 0 -12 -10l-27 -128q-2 -10 8 -10h128q8 0 13 -6t3 -14l-17 -78q-2 -8 -9 -14t-15 -6h-128q-10 0 -12 -10l-28 -128q-2 -8 -9 -14t-15 -6h-74q-8 0 -13 6t-3 14l28 128q2 10 -8 10h-128z" />
    <glyph glyph-name="bullet" unicode="&#x2022;" 
d="M351 194q-2 -8 -9 -14t-15 -6h-143q-8 0 -13 6t-3 14l31 143q2 8 9 14t15 6h143q8 0 13 -6t3 -14z" />
    <glyph glyph-name="ellipsis" unicode="&#x2026;" 
d="M138 20q-2 -8 -9.5 -14t-15.5 -6h-110q-8 0 -12 6t-2 14l24 120q2 8 9.5 14t15.5 6h110q8 0 12.5 -6t2.5 -14zM536 20q-2 -8 -9.5 -14t-15.5 -6h-110q-8 0 -12.5 6t-2.5 14l25 120q2 8 9.5 14t15.5 6h110q8 0 12.5 -6t2.5 -14zM338 20q-2 -8 -9.5 -14t-15.5 -6h-110
q-8 0 -12.5 6t-2.5 14l25 120q2 8 9.5 14t15.5 6h110q8 0 12.5 -6t2.5 -14z" />
    <glyph glyph-name="perthousand" unicode="&#x2030;" 
d="M57 15q-9 -15 -24 -15h-46q-10 0 -13.5 8.5t3.5 19.5l403 657q9 15 25 15h48q10 0 13.5 -8.5t-3.5 -19.5zM158 609q-13 0 -21.5 -10t-14 -24t-7.5 -29t-2 -26q0 -12 4 -20.5t15 -8.5q13 0 21.5 10t13.5 24t7.5 29t2.5 26q0 12 -4 20.5t-15 8.5zM31 491q0 31 7.5 66
t25 64.5t45 49t66.5 19.5q47 0 65.5 -23.5t18.5 -56.5q0 -32 -8 -67t-25.5 -64.5t-44.5 -49t-66 -19.5q-47 0 -65.5 24t-18.5 57zM309 209q-13 0 -21.5 -10t-14 -24t-7.5 -29t-2 -26q0 -12 4 -20.5t15 -8.5q13 0 21.5 10t13.5 24t7.5 29t2.5 26q0 12 -4 20.5t-15 8.5z
M182 91q0 31 7.5 66t25 64.5t45 49t66.5 19.5q47 0 65.5 -23.5t18.5 -56.5q0 -32 -8 -67t-25.5 -64.5t-44.5 -49t-66 -19.5q-47 0 -65.5 24t-18.5 57zM486 499q-13 0 -21.5 -10t-14 -24t-7.5 -29t-2 -26q0 -12 4 -20.5t15 -8.5q13 0 21.5 10t13.5 24t7.5 29t2.5 26
q0 12 -4 20.5t-15 8.5zM359 381q0 31 7.5 66t25 64.5t45 49t66.5 19.5q47 0 65.5 -23.5t18.5 -56.5q0 -32 -8 -67t-25.5 -64.5t-44.5 -49t-66 -19.5q-47 0 -65.5 24t-18.5 57z" />
    <glyph glyph-name="guilsinglleft" unicode="&#x2039;" 
d="M281 435q3 4 10 9.5t18 5.5h80q14 0 17.5 -9t-8.5 -24l-116 -145q-6 -7 -7 -11.5t2 -12.5l54 -145q6 -16 -1.5 -24.5t-21.5 -8.5h-80q-11 0 -15.5 5.5t-6.5 9.5l-61 161q-4 8 -3 14t8 14z" />
    <glyph glyph-name="guilsinglright" unicode="&#x203a;" 
d="M405 274q4 -8 3 -14t-8 -14l-131 -161q-3 -4 -10 -9.5t-18 -5.5h-80q-14 0 -17.5 9t8.5 24l116 145q6 8 7 12.5t-2 11.5l-54 145q-6 16 1.5 24.5t21.5 8.5h80q11 0 15.5 -5.5t6.5 -9.5z" />
    <glyph glyph-name="fraction" unicode="&#x2044;" horiz-adv-x="0" 
d="M-229 15q-12 -15 -24 -15h-73q-9 0 -13.5 9t4.5 19l565 657q12 15 25 15h71q10 0 14 -9t-4 -19z" />
    <glyph glyph-name="zerosuperior" unicode="&#x2070;" 
d="M176 592q8 24 20 44.5t28.5 36t38 24.5t48.5 9q24 0 42 -10t30 -26t17 -36.5t3 -41.5q-3 -32 -10.5 -67t-18.5 -67q-8 -24 -20 -44.5t-28.5 -36t-38 -24.5t-48.5 -9q-24 0 -42 10t-30 26t-17 36.5t-3 41.5q3 32 10.5 67t18.5 67zM296 625q-14 0 -23.5 -9.5t-12.5 -20.5
q-11 -33 -18 -70t-12 -70q-2 -14 5.5 -22t18.5 -8q13 0 23 9.5t13 20.5q10 33 17.5 70t12.5 70q2 14 -5.5 22t-18.5 8z" />
    <glyph glyph-name="foursuperior" unicode="&#x2074;" 
d="M381 486q10 0 8 -11l-11 -54q-2 -10 -12 -10h-17q-4 0 -6 -4l-10 -47q-2 -10 -12 -10h-57q-10 0 -8 10l11 46q0 5 -4 5h-111q-9 0 -7 11l11 62q1 5 4.5 10t8.5 10l153 189q6 7 12 7h62q10 0 8 -10l-42 -199q-2 -5 3 -5h16zM239 493q-5 -7 2 -7h41q5 0 7 5l21 81
q1 3 -1.5 3.5t-4.5 -1.5z" />
    <glyph glyph-name="fivesuperior" unicode="&#x2075;" 
d="M268 619q-4 0 -6 -5l-7 -31q-1 -5 2 -5.5t6 1.5q4 2 10.5 4t12.5 2q40 0 67 -26t27 -77q0 -29 -11.5 -54.5t-30 -44t-43 -29t-50.5 -10.5q-22 0 -42.5 5.5t-36 18t-22.5 32t-2 48.5q1 10 11 10h60q8 0 8 -10q0 -14 10 -20t21 -6q19 0 33 13.5t14 34.5q0 23 -10 32.5
t-23 9.5q-10 0 -15 -2t-8.5 -4.5t-6.5 -4.5t-8 -2h-61q-10 0 -8 10l39 181q2 10 12 10h192q10 0 8 -10l-13 -61q-2 -10 -12 -10h-117z" />
    <glyph glyph-name="sixsuperior" unicode="&#x2076;" 
d="M289 587q21 0 37.5 -9.5t28.5 -25t18 -34.5t6 -38q0 -33 -10 -58.5t-27.5 -42.5t-40 -26t-47.5 -9q-47 0 -78 33t-31 84q0 32 4 74.5t26 87.5q19 37 49.5 60t74.5 23q43 0 74 -25.5t31 -72.5q0 -4 -4 -7t-8 -3h-52q-8 0 -10.5 2.5t-4.5 7.5q-2 9 -9.5 15t-23.5 6
q-12 0 -22 -4.5t-16 -15.5q-2 -5 -4 -10.5t-2 -10.5q0 -13 12 -8l12 4t17 3zM220 461q0 -23 12 -32t29 -9q20 0 29 15.5t9 34.5q0 24 -11 33t-24 9q-23 0 -33.5 -15.5t-10.5 -35.5z" />
    <glyph glyph-name="sevensuperior" unicode="&#x2077;" 
d="M296 615q3 5 -2 5h-124q-10 0 -8 10l14 60q2 10 12 10h207q10 0 8 -10l-17 -75q0 -2 -1 -4t-3 -5l-143 -249q-5 -7 -11 -7h-73q-7 0 -8 4.5t1 7.5z" />
    <glyph glyph-name="eightsuperior" unicode="&#x2078;" 
d="M260 420q21 0 31.5 11.5t10.5 28.5q0 13 -8 23.5t-24 10.5q-23 0 -35.5 -13t-12.5 -33q0 -9 9 -18.5t29 -9.5zM285 562q20 0 31.5 10.5t11.5 30.5q0 10 -8 19t-21 9q-22 0 -32.5 -12.5t-10.5 -30.5q0 -12 8.5 -19t20.5 -7zM204 529q5 2 4 4.5t-4 6.5q-11 14 -17.5 28
t-6.5 32q0 22 9.5 41t25.5 33.5t38 23t46 8.5q51 0 79 -25t28 -71q0 -19 -11.5 -42.5t-33.5 -36.5q-5 -4 -1 -10q11 -16 16 -29.5t5 -25.5q0 -24 -9 -46t-26 -39t-40.5 -27t-52.5 -10q-20 0 -39.5 5t-35 16.5t-25 30t-9.5 44.5q0 32 19.5 55.5t40.5 33.5z" />
    <glyph glyph-name="ninesuperior" unicode="&#x2079;" 
d="M260 463q-21 0 -37.5 9.5t-28.5 25t-18 34.5t-6 38q0 33 10 58.5t27.5 42.5t40 26t47.5 9q47 0 78 -33t31 -84q0 -32 -4 -74.5t-26 -87.5q-19 -37 -49.5 -60t-74.5 -23q-43 0 -74 25.5t-31 72.5q0 4 4 7t8 3h52q8 0 10.5 -2.5t4.5 -7.5q2 -9 9.5 -15t23.5 -6q12 0 22 4.5
t16 15.5q2 5 4 10.5t2 10.5q0 12 -12 8l-12 -4t-17 -3zM329 589q0 23 -12 32t-29 9q-20 0 -29 -15.5t-9 -34.5q0 -24 11 -33t24 -9q23 0 33.5 15.5t10.5 35.5z" />
    <glyph glyph-name="plussuperior" unicode="&#x207a;" 
d="M240 513q4 0 6 5l12 57q2 10 12 10h55q10 0 8 -10l-12 -57q-2 -5 4 -5h58q10 0 8 -10l-12 -55q-2 -10 -12 -10h-58q-4 0 -6 -5l-12 -58q-2 -10 -12 -10h-55q-10 0 -8 10l12 58q2 5 -4 5h-57q-10 0 -8 9l12 56q2 10 12 10h57z" />
    <glyph glyph-name="minussuperior" unicode="&#x207b;" 
d="M389 517q10 0 8 -10l-11 -54q-2 -10 -12 -10h-214q-10 0 -8 11l11 53q2 10 13 10h213z" />
    <glyph glyph-name="equalsuperior" unicode="&#x207c;" 
d="M178 490q-10 0 -8 11l11 53q2 10 12 10h200q10 0 8 -10l-11 -54q-2 -10 -12 -10h-200zM155 386q-9 0 -7 10l11 54q2 10 12 10h200q10 0 8 -10l-11 -54q-2 -10 -13 -10h-200z" />
    <glyph glyph-name="parenleftsuperior" unicode="&#x207d;" 
d="M310 381q9 0 7 -10l-11 -56q-2 -10 -13 -10h-45q-49 0 -70.5 28.5t-16.5 76.5q1 15 6 42t11 56t12.5 55.5t11.5 41.5q7 20 16.5 39t25.5 33.5t39.5 23.5t58.5 9h40q9 0 7 -10l-11 -55q-2 -11 -13 -11h-45q-10 0 -21 -3.5t-20 -25.5q-6 -15 -13.5 -42t-14 -55.5
t-10.5 -55.5t-4 -42q0 -29 30 -29h43z" />
    <glyph glyph-name="parenrightsuperior" unicode="&#x207e;" 
d="M237 634q-9 0 -7 10l11 56q2 10 12 10h47q24 0 41.5 -8.5t28.5 -23t15.5 -33.5t2.5 -40q-2 -15 -6.5 -41.5t-10.5 -55.5t-12.5 -56t-11.5 -42q-8 -24 -17.5 -43.5t-24.5 -33t-38.5 -21t-59.5 -7.5h-37q-10 0 -8 10l11 56q1 4 5 7t8 3h42q14 0 24.5 6.5t17.5 22.5
q6 15 13.5 42t14 55.5t10.5 55.5t4 42q0 22 -8 25.5t-22 3.5h-45z" />
    <glyph glyph-name="nsuperior" unicode="&#x207f;" 
d="M263 589q11 0 22 8.5t34 8.5q19 0 34.5 -7t26 -19.5t14.5 -29.5t0 -36l-33 -154q-2 -10 -12 -10h-56q-11 0 -9 10l33 154q2 8 -4.5 13t-20.5 5t-20.5 -5t-8.5 -11l-33 -156q-2 -10 -12 -10h-57q-10 0 -8 10l49 230q2 10 12 10h27q5 0 8 -2.5t5 -4.5q4 -4 9 -4z" />
    <glyph glyph-name="zeroinferior" unicode="&#x2080;" 
d="M176 60q8 24 20 44.5t28.5 36t38 24.5t48.5 9q24 0 42 -10t30 -26t17 -36.5t3 -41.5q-3 -32 -10.5 -67t-18.5 -67q-8 -24 -20 -44.5t-28.5 -36t-38 -24.5t-48.5 -9q-24 0 -42 10t-30 26t-17 36.5t-3 41.5q3 32 10.5 67t18.5 67zM296 93q-14 0 -23.5 -9.5t-12.5 -20.5
q-11 -33 -18 -70t-12 -70q-2 -14 5.5 -22t18.5 -8q13 0 23 9.5t13 20.5q10 33 17.5 70t12.5 70q2 14 -5.5 22t-18.5 8z" />
    <glyph glyph-name="oneinferior" unicode="&#x2081;" 
d="M282 54q2 6 -2.5 6.5t-8.5 -1.5l-63 -43q-7 -5 -14 -2t-5 13l11 53q2 6 3 10.5t9 11.5l61 50q5 5 14 10.5t23 5.5h70q9 0 7 -10l-53 -254q-2 -5 3 -5h53q10 0 8 -10l-13 -61q-2 -10 -12 -10h-214q-9 0 -7 10l13 61q2 10 12 10h68q4 0 6 5z" />
    <glyph glyph-name="twoinferior" unicode="&#x2082;" 
d="M334 72q0 11 -8 18.5t-21 7.5q-30 0 -39 -42q-2 -10 -12 -10h-60q-8 0 -8 10q0 23 8 44.5t23.5 38t37.5 26t51 9.5q22 0 42 -7.5t35 -20.5t24 -30.5t9 -37.5q0 -21 -5.5 -36t-13.5 -26t-18.5 -19.5t-20.5 -16.5l-86 -70q-2 -2 -3 -6.5t7 -4.5h99q10 0 8 -10l-13 -61
q-2 -10 -12 -10h-216q-10 0 -8 10l15 65q2 5 3.5 7.5t3.5 4.5l161 138q2 2 9.5 10t7.5 19z" />
    <glyph glyph-name="threeinferior" unicode="&#x2083;" 
d="M259 -108q17 0 27.5 10.5t10.5 25.5t-7.5 24.5t-20.5 9.5h-6q-11 0 -9 10l9 46q2 10 12 10h11q16 0 27.5 10t11.5 27q0 15 -10.5 22t-21.5 7q-12 0 -22 -8t-15 -30q-2 -10 -12 -10h-59q-8 0 -8 10q0 29 10.5 51t27.5 37t39 22.5t45 7.5q48 0 77 -25.5t29 -67.5
q0 -29 -13 -46t-36 -32q-4 -4 -1 -7q14 -14 19 -34t5 -34q0 -29 -10.5 -50.5t-28.5 -36t-41.5 -22t-49.5 -7.5q-24 0 -45 8.5t-35.5 24.5t-21 38t-0.5 48q2 10 12 10h60q9 0 7 -10q-5 -22 6 -30.5t27 -8.5z" />
    <glyph glyph-name="fourinferior" unicode="&#x2084;" 
d="M381 -46q10 0 8 -11l-11 -54q-2 -10 -12 -10h-17q-4 0 -6 -4l-10 -47q-2 -10 -12 -10h-57q-10 0 -8 10l11 46q0 5 -4 5h-111q-9 0 -7 11l11 62q1 5 4.5 10t8.5 10l153 189q6 7 12 7h62q10 0 8 -10l-42 -199q-2 -5 3 -5h16zM239 -39q-5 -7 2 -7h41q5 0 7 5l21 81
q1 3 -1.5 3.5t-4.5 -1.5z" />
    <glyph glyph-name="fiveinferior" unicode="&#x2085;" 
d="M268 87q-4 0 -6 -5l-7 -31q-1 -5 2 -5.5t6 1.5q4 2 10.5 4t12.5 2q40 0 67 -26t27 -77q0 -29 -11.5 -54.5t-30 -44t-43 -29t-50.5 -10.5q-22 0 -42.5 5.5t-36 18t-22.5 32t-2 48.5q1 10 11 10h60q8 0 8 -10q0 -14 10 -20t21 -6q19 0 33 13.5t14 34.5q0 23 -10 32.5
t-23 9.5q-10 0 -15 -2t-8.5 -4.5t-6.5 -4.5t-8 -2h-61q-10 0 -8 10l39 181q2 10 12 10h192q10 0 8 -10l-13 -61q-2 -10 -12 -10h-117z" />
    <glyph glyph-name="sixinferior" unicode="&#x2086;" 
d="M289 55q21 0 37.5 -9.5t28.5 -25t18 -34.5t6 -38q0 -33 -10 -58.5t-27.5 -42.5t-40 -26t-47.5 -9q-47 0 -78 33t-31 84q0 32 4 74.5t26 87.5q19 37 49.5 60t74.5 23q43 0 74 -25.5t31 -72.5q0 -4 -4 -7t-8 -3h-52q-8 0 -10.5 2.5t-4.5 7.5q-2 9 -9.5 15t-23.5 6
q-12 0 -22 -4.5t-16 -15.5q-2 -5 -4 -10.5t-2 -10.5q0 -13 12 -8l12 4t17 3zM220 -71q0 -23 12 -32t29 -9q20 0 29 15.5t9 34.5q0 24 -11 33t-24 9q-23 0 -33.5 -15.5t-10.5 -35.5z" />
    <glyph glyph-name="seveninferior" unicode="&#x2087;" 
d="M296 83q3 5 -2 5h-124q-10 0 -8 10l14 60q2 10 12 10h207q10 0 8 -10l-17 -75q0 -2 -1 -4t-3 -5l-143 -249q-5 -7 -11 -7h-73q-7 0 -8 4.5t1 7.5z" />
    <glyph glyph-name="eightinferior" unicode="&#x2088;" 
d="M260 -112q21 0 31.5 11.5t10.5 28.5q0 13 -8 23.5t-24 10.5q-23 0 -35.5 -13t-12.5 -33q0 -9 9 -18.5t29 -9.5zM285 30q20 0 31.5 10.5t11.5 30.5q0 10 -8 19t-21 9q-22 0 -32.5 -12.5t-10.5 -30.5q0 -12 8.5 -19t20.5 -7zM204 -3q5 2 4 4.5t-4 6.5q-11 14 -17.5 28
t-6.5 32q0 22 9.5 41t25.5 33.5t38 23t46 8.5q51 0 79 -25t28 -71q0 -19 -11.5 -42.5t-33.5 -36.5q-5 -4 -1 -10q11 -16 16 -29.5t5 -25.5q0 -24 -9 -46t-26 -39t-40.5 -27t-52.5 -10q-20 0 -39.5 5t-35 16.5t-25 30t-9.5 44.5q0 32 19.5 55.5t40.5 33.5z" />
    <glyph glyph-name="nineinferior" unicode="&#x2089;" 
d="M260 -69q-21 0 -37.5 9.5t-28.5 25t-18 34.5t-6 38q0 33 10 58.5t27.5 42.5t40 26t47.5 9q47 0 78 -33t31 -84q0 -32 -4 -74.5t-26 -87.5q-19 -37 -49.5 -60t-74.5 -23q-43 0 -74 25.5t-31 72.5q0 4 4 7t8 3h52q8 0 10.5 -2.5t4.5 -7.5q2 -9 9.5 -15t23.5 -6q12 0 22 4.5
t16 15.5q2 5 4 10.5t2 10.5q0 12 -12 8l-12 -4t-17 -3zM329 57q0 23 -12 32t-29 9q-20 0 -29 -15.5t-9 -34.5q0 -24 11 -33t24 -9q23 0 33.5 15.5t10.5 35.5z" />
    <glyph glyph-name="parenleftinferior" unicode="&#x208d;" 
d="M310 -151q9 0 7 -10l-11 -56q-2 -10 -13 -10h-45q-49 0 -70.5 28.5t-16.5 76.5q1 15 6 42t11 56t12.5 55.5t11.5 41.5q7 20 16.5 39t25.5 33.5t39.5 23.5t58.5 9h40q9 0 7 -10l-11 -55q-2 -11 -13 -11h-45q-10 0 -21 -3.5t-20 -25.5q-6 -15 -13.5 -42t-14 -55.5
t-10.5 -55.5t-4 -42q0 -29 30 -29h43z" />
    <glyph glyph-name="parenrightinferior" unicode="&#x208e;" 
d="M237 102q-9 0 -7 10l11 56q2 10 12 10h47q24 0 41.5 -8.5t28.5 -23t15.5 -33.5t2.5 -40q-2 -15 -6.5 -41.5t-10.5 -56t-12.5 -56t-11.5 -41.5q-8 -24 -17.5 -43.5t-24.5 -33t-38.5 -21t-59.5 -7.5h-37q-10 0 -8 10l11 56q1 4 5 7t8 3h42q14 0 24.5 6.5t17.5 22.5
q6 15 13.5 42t14 55.5t10.5 55.5t4 42q0 22 -8 25.5t-22 3.5h-45z" />
    <glyph glyph-name="Euro" unicode="&#x20ac;" 
d="M103 493q14 45 34 84.5t49.5 69t70 47t95.5 17.5q52 0 94.5 -17.5t71 -47t41 -68.5t5.5 -83q-5 -30 -37 -30h-81q-14 0 -20 7t-4 18q4 33 -12 56.5t-68 23.5q-38 0 -63 -22.5t-35 -54.5q-3 -7 3 -7h95q8 0 13 -6t3 -14l-13 -62q-2 -8 -9 -14t-15 -6h-99q-4 0 -6.5 -3
t-3.5 -5l-7 -34q0 -2 1 -6t6 -4h98q8 0 12.5 -6t2.5 -14l-13 -62q-2 -8 -9 -14t-15 -6h-93q-6 0 -7.5 -4t-3.5 -16q-4 -33 12 -56.5t53 -23.5q49 0 76 23.5t38 56.5q3 11 12 18t23 7h81q31 0 24 -30q-11 -45 -33.5 -84.5t-55.5 -69t-77 -46t-98 -16.5q-52 0 -90.5 17.5
t-63.5 48t-36 70.5t-6 85q2 14 0.5 17t-7.5 3h-23q-8 0 -13 6t-3 14l13 62q2 8 9.5 14t15.5 6h19q5 0 7 3t2 5l9 39q0 5 -5 5h-21q-8 0 -13 6t-3 14l13 62q2 8 9 14t15 6h26q6 0 10 7z" />
    <glyph glyph-name="afii61289" unicode="&#x2113;" 
d="M49 270q-8 0 -13 6t-3 14l15 70q2 8 9 14t15 6h48l25 120q9 40 28 76t46.5 63.5t62 44t73.5 16.5q75 0 119 -42.5t44 -117.5q0 -59 -23.5 -108.5t-63.5 -85.5t-94.5 -56.5t-115.5 -20.5l-9 -44q-8 -39 -4.5 -62t17.5 -34.5t36.5 -15t52.5 -3.5h36q8 0 12.5 -6t2.5 -14
l-17 -80q-2 -8 -9 -14t-15 -6h-36q-68 0 -112.5 14.5t-68.5 44t-28 73t8 101.5l10 47h-48zM245 380q30 0 56.5 11t46 31t31 47t11.5 59q0 23 -10 37.5t-33 14.5q-28 0 -48 -20t-29 -60z" />
    <glyph glyph-name="afii61352" unicode="&#x2116;" 
d="M208 360q0 -3 3.5 -2.5t4.5 4.5l68 318q2 8 9 14t15 6h51q8 0 13 -6t3 -14l-141 -660q-2 -8 -9 -14t-15 -6h-73q-8 0 -13 3t-4 14l14 335q0 3 -3.5 2.5t-4.5 -4.5l-71 -330q-2 -8 -9 -14t-15 -6h-50q-8 0 -13 6t-3 14l140 660q2 8 9 14t15 6h73q8 0 12.5 -3t4.5 -14z
M291 0q-8 0 -13 6t-3 14l14 63q2 8 9 14t15 6h154q8 0 13 -6t3 -14l-14 -63q-2 -8 -9 -14t-15 -6h-154zM434 321q-15 0 -24 -6t-16 -20q-4 -8 -7.5 -25t-3.5 -25q1 -24 30 -24q30 0 40 24q3 8 7.5 25t3.5 25q-1 26 -30 26zM453 409q48 0 72 -21.5t20 -76.5q0 -8 -2 -19
t-4.5 -22.5t-5.5 -22l-5 -17.5q-9 -26 -23.5 -44.5t-33 -30t-38.5 -17t-39 -5.5t-37 5.5t-31 17t-20 30t-4 44.5l2.5 17.5t4 22t5 22.5t5.5 19q19 55 52.5 76.5t81.5 21.5z" />
    <glyph glyph-name="trademark" unicode="&#x2122;" 
d="M386 600q1 -4 4 -4t5 4l48 91q4 9 13 9h79q10 0 8 -10l-71 -330q-2 -10 -12 -10h-59q-10 0 -8 10l39 182q1 2 -0.5 2t-3.5 -2l-39 -69q-4 -8 -11 -8h-30q-8 0 -9 8l-9 69q0 2 -1.5 2t-2.5 -2l-39 -182q-2 -10 -12 -10h-59q-10 0 -8 10l71 330q2 10 12 10h79q8 0 8 -9z
M22 612q-10 0 -8 10l15 68q2 10 12 10h200q10 0 8 -10l-15 -68q-2 -10 -12 -10h-51q-4 0 -6 -5l-53 -247q-2 -10 -12 -10h-68q-10 0 -8 10l53 247q2 5 -4 5h-51z" />
    <glyph glyph-name="uni2126" unicode="&#x2126;" 
d="M421 142q-9 -11 -10.5 -16.5t12.5 -5.5h27q8 0 13 -6t3 -14l-17 -80q-2 -8 -9 -14t-15 -6h-156q-8 0 -13 6t-3 14l23 109q4 16 11.5 25t23.5 21q69 54 99 122t30 142q0 30 -5 55.5t-17 43.5t-31.5 28t-48.5 10q-48 0 -81 -26t-53.5 -65.5t-29.5 -86t-9 -86.5
q0 -51 11.5 -85.5t27.5 -51.5q15 -13 16 -26t-1 -20l-23 -109q-2 -8 -9 -14t-15 -6h-155q-8 0 -13 6t-3 14l17 80q2 8 9 14t15 6h26q11 0 14.5 7t-1.5 14q-20 30 -30.5 73.5t-10.5 94.5q0 74 23 145t65.5 126.5t103 89t134.5 33.5q52 0 90.5 -17.5t64 -50t37.5 -78.5
t12 -103q0 -71 -16.5 -121t-40 -85.5t-49 -60t-43.5 -45.5z" />
    <glyph glyph-name="estimated" unicode="&#x212e;" 
d="M239 100q33 0 58 9t49 34q8 8 14 12.5t13 4.5h76q8 0 12 -4.5t1 -15.5q-9 -33 -31 -60.5t-53.5 -47.5t-70.5 -31t-84 -11q-96 0 -145 59.5t-49 160.5q0 79 22.5 146.5t61.5 117t93 78t117 28.5q45 0 85.5 -11.5t68.5 -40t38.5 -75.5t-3.5 -119l-13 -63q-2 -8 -9.5 -14
t-15.5 -6h-304q-10 0 -12 -10q-7 -77 14.5 -109t66.5 -32zM187 362q0 -10 8 -10h191q10 0 12 10q8 51 -10.5 79.5t-71.5 28.5q-51 0 -83.5 -28.5t-45.5 -79.5z" />
    <glyph glyph-name="arrowleft" unicode="&#x2190;" 
d="M510 312q8 0 12.5 -6t2.5 -14l-16 -77q-2 -8 -9 -14t-15 -6h-292l53 -62q5 -6 9 -10.5t2 -12.5l-18 -82q-2 -12 -14 -17.5t-20 3.5l-177 225q-11 14 5 27l282 233q9 8 16.5 3.5t5.5 -13.5l-20 -94q-4 -14 -17 -25l-84 -58h294z" />
    <glyph glyph-name="arrowup" unicode="&#x2191;" 
d="M227 372l-76 -67q-7 -6 -12.5 -10.5t-13.5 -4.5h-82q-12 0 -15 11t8 20l272 225q10 8 16.5 7.5t11.5 -6.5l183 -233q6 -8 0 -16t-15 -8h-85q-14 0 -22 12l-52 72l-75 -354q-2 -8 -9.5 -14t-15.5 -6h-77q-8 0 -12.5 6t-2.5 14z" />
    <glyph glyph-name="arrowright" unicode="&#x2192;" 
d="M359 312l-58 67q-11 11 -7 25l18 85q2 9 11 13.5t15 -3.5l184 -233q10 -13 -7 -27l-273 -225q-11 -9 -20.5 -3.5t-7.5 17.5l18 82q2 8 7 12.5t12 10.5l81 62h-292q-8 0 -13 6t-3 14l16 77q2 8 9.5 14t15.5 6h294z" />
    <glyph glyph-name="arrowdown" unicode="&#x2193;" 
d="M274 511q2 8 9.5 14t15.5 6h77q8 0 12.5 -6t2.5 -14l-75 -354l82 72q8 7 15 9.5t13 2.5h85q9 0 11.5 -8t-6.5 -16l-283 -233q-7 -6 -14 -6.5t-12 7.5l-178 225q-7 9 1 20t20 11h82q8 0 11.5 -4.5t8.5 -10.5l48 -67z" />
    <glyph glyph-name="uni2196" unicode="&#x2196;" 
d="M482 118q5 -5 3 -14t-9 -14l-54 -48q-6 -5 -15 -5.5t-14 5.5l-204 262l-18 -112q-2 -9 -3.5 -15.5t-8.5 -11.5l-70 -58q-11 -8 -21.5 -4.5t-8.5 16.5l68 318q4 20 22 20h330q11 0 12 -9t-7 -15l-73 -60q-12 -10 -28 -9l-98 3z" />
    <glyph glyph-name="uni2197" unicode="&#x2197;" 
d="M336 367l-100 -3q-17 0 -24 9l-47 60q-5 6 -0.5 15t15.5 9h330q18 0 14 -20l-68 -318q-2 -13 -15 -16.5t-19 4.5l-46 58q-4 5 -3 11.5t3 15.5l23 91l-301 -248q-7 -5 -15.5 -5t-13.5 5l-42 55q-4 5 -2 14t8 14z" />
    <glyph glyph-name="uni2198" unicode="&#x2198;" 
d="M67 385q-5 5 -3 14t9 14l54 48q6 5 15 5.5t14 -5.5l204 -262l18 112q2 9 3.5 15.5t8.5 11.5l70 58q11 8 21.5 4.5t8.5 -16.5l-68 -318q-4 -20 -22 -20h-330q-11 0 -12 9t7 15l73 60q10 9 28 9l98 -3z" />
    <glyph glyph-name="uni2199" unicode="&#x2199;" 
d="M522 414q4 -5 2 -14t-8 -14l-303 -249l100 3q16 0 24 -9l47 -60q5 -6 0.5 -15t-15.5 -9h-330q-18 0 -14 20l68 318q2 13 15 16.5t19 -4.5l46 -58q4 -5 3 -11.5t-3 -15.5l-23 -91l301 248q7 5 15.5 5t13.5 -5l42 -55v0z" />
    </font>
</defs>
</svg>
