<svg xmlns="http://www.w3.org/2000/svg">
<defs>
<font id="e96e27f207ad2c6b9998862320d2740f" horiz-adv-x='1024' >
  <font-face 
    font-family="GTPressura-LightItalic"
    font-weight="300"
    font-style="italic"
    font-stretch="normal"
    units-per-em="1000"
    panose-1="2 0 5 6 3 0 0 9 0 4"
    ascent="750"
    descent="-250"
    x-height="500"
    cap-height="700"
    bbox="-176.533 -240 924.857 1065"
    underline-thickness="50"
    underline-position="-50"
    slope="-12"
    unicode-range="U+0020-FB04"
  />
<missing-glyph horiz-adv-x="550" 
d="M184 120q-14 0 -19 -9t-9.5 -19.5t-12.5 -19.5t-27 -9q-21 0 -36.5 13.5t-15.5 31.5t6.5 27t14.5 17t14.5 19t6.5 34q0 17 -8.5 27.5t-19.5 10.5q-12 0 -15.5 -3.5t-14.5 -3.5q-15 0 -22.5 16t-7.5 36q0 14 9.5 26.5t23.5 12.5q10 0 14.5 -5.5t12.5 -5.5q15 0 21 15t6 25
q0 12 -5 24.5t-5 24.5q0 20 11.5 28.5t28.5 8.5q9 0 9 8q0 5 -4 10.5t-4 13.5q0 5 5.5 9.5t10.5 4.5q8 0 13 -5.5t9 -12t8.5 -12t11.5 -5.5q12 0 15 8.5t5 19t7 19t22 8.5q16 0 23.5 -7.5t13.5 -16.5t13.5 -16.5t21.5 -7.5q21 0 28 11.5t7 36.5q0 28 15 40.5t38 12.5
q22 0 34.5 -13t12.5 -35q0 -16 -7.5 -26t-16.5 -16.5t-16.5 -12.5t-7.5 -14q0 -14 12 -22t27 -16.5t27 -21t12 -36.5q0 -14 -5 -22.5t-11 -15t-11 -14t-5 -20.5q0 -10 9.5 -18t34.5 -8q22 0 31 -13t9 -32q0 -22 -15 -37t-37 -15q-12 0 -19.5 8t-15 17t-16 17t-21.5 8
q-11 0 -18 -5.5t-7 -15.5q0 -8 3 -12.5t7 -8.5t7 -10t3 -18q0 -13 -8.5 -23t-26.5 -10q-9 0 -17.5 4.5t-18 10.5t-20.5 10.5t-24 4.5q-9 0 -17.5 -7t-8.5 -24q0 -12 -6.5 -19.5t-17.5 -7.5q-9 0 -12.5 7.5t-7.5 16.5t-11 16.5t-23 7.5zM298 340q0 -17 11.5 -28.5t28.5 -11.5
t30 11.5t13 28.5t-13 32t-30 15t-28.5 -15t-11.5 -32zM281 226q-14 0 -26 5.5t-22 14.5q-5 4 -7 1t2 -8q8 -12 20 -20.5t33 -8.5q20 0 29.5 11.5t14.5 22.5q2 5 -1 6.5t-5 -2.5q-12 -22 -38 -22zM214 335q0 9 4 15t10 6t10 -6t4 -15t-4 -15t-10 -6t-10 6t-4 15zM310 340

<glyph glyph-name="IJ" unicode="IJ" horiz-adv-x="447" 
d="M90 20q-2 -8 -9 -14t-15 -6h-24q-8 0 -13 6t-3 14l140 660q2 8 9.5 14t15.5 6h24q8 0 12.5 -6t2.5 -14zM168 56q30 0 56 5.5t47.5 21.5t37.5 44.5t26 74.5l101 478q2 8 9.5 14t15.5 6h24q8 0 12.5 -6t2.5 -14l-103 -488q-12 -57 -35.5 -95.5t-55.5 -62t-71 -33t-81 -9.5
q-8 0 -12.5 6t-2.5 14l5 24q2 8 9 14t15 6z" />
    <glyph glyph-name="ij" unicode="ij" horiz-adv-x="360" 
d="M235 638q-4 -16 -19 -16h-52q-7 0 -11 4.5t-2 11.5l11 53q2 6 7.5 11t12.5 5h52q7 0 10.5 -5t1.5 -11zM130 480q2 8 9.5 14t15.5 6h20q8 0 12.5 -6t2.5 -14l-97 -460q-2 -8 -9.5 -14t-15.5 -6h-20q-8 0 -12.5 6t-2.5 14zM286 480q2 8 9 14t15 6h20q8 0 13 -6t3 -14
l-109 -510q-20 -96 -68 -138t-136 -42h-42q-8 0 -13 6t-3 14l4 19q2 8 9.5 14t15.5 6h42q21 0 41.5 5.5t37.5 19t30.5 37t21.5 59.5zM391 638q-4 -16 -19 -16h-52q-7 0 -11 4.5t-2 11.5l12 53q1 6 6.5 11t12.5 5h52q7 0 11 -5t2 -11z" />
    <glyph glyph-name="napostrophe" unicode="&#x22;n" horiz-adv-x="514" 
d="M404 336q7 31 1.5 53t-19.5 36t-36 20t-49 6q-54 0 -95.5 -25t-54.5 -85l-68 -321q-2 -8 -9.5 -14t-15.5 -6h-19q-8 0 -12.5 6t-2.5 14l97 460q2 8 9.5 14t15.5 6h16q7 0 12 -7q4 -5 8 -10.5t13 -5.5q11 0 20.5 5t21.5 11.5t28.5 11.5t40.5 5q39 0 72 -11t55 -33
t30.5 -54.5t-0.5 -75.5l-67 -316q-2 -8 -9.5 -14t-15.5 -6h-19q-8 0 -12.5 6t-2.5 14zM51 505q-9 0 -13 7.5t3 16.5l39 51q4 5 2.5 10t-7.5 5h-5q-8 0 -13 6t-3 14l14 65q2 8 9 14t15 6h60q8 0 13 -6t3 -14l-15 -70q-5 -21 -12 -31.5t-15 -19.5l-32 -36q-5 -5 -12 -11.5
t-21 -6.5h-10z" />
    <glyph glyph-name="f_f" unicode="ff" horiz-adv-x="577" 
d="M637 651q-32 0 -54 -7t-38 -22.5t-26.5 -40.5t-19.5 -61l-3 -15q-3 -10 8 -10h114q8 0 12.5 -6t2.5 -14l-4 -19q-2 -8 -9 -14t-15 -6h-114q-10 0 -12 -10l-86 -406q-2 -8 -9.5 -14t-15.5 -6h-20q-8 0 -12.5 6t-2.5 14l86 406q2 10 -8 10h-183q-10 0 -12 -10l-86 -406
q-2 -8 -9.5 -14t-15.5 -6h-20q-8 0 -12.5 6t-2.5 14l86 406q2 10 -8 10h-87q-8 0 -13 6t-3 14l4 19q2 8 9.5 14t15.5 6h87q9 0 12 10l3 15q13 54 32 89.5t44.5 57.5t59 31t74.5 9h5q8 0 12.5 -6t2.5 -14l-3 -16q-2 -8 -9 -14t-15 -6h-5q-32 0 -54 -7t-38 -22.5t-26.5 -40.5
t-19.5 -61l-3 -15q-3 -10 8 -10h183q9 0 12 10l3 15q13 54 32 89.5t44.5 57.5t59 31t74.5 9h5q8 0 12.5 -6t2.5 -14l-3 -16q-2 -8 -9 -14t-15 -6h-5z" />
    <glyph glyph-name="fi" unicode="fi" horiz-adv-x="513" 
d="M130 20q-2 -8 -9.5 -14t-15.5 -6h-20q-8 0 -12.5 6t-2.5 14l86 406q2 10 -8 10h-87q-8 0 -13 6t-3 14l4 19q2 8 9.5 14t15.5 6h87q9 0 12 10l3 15q21 94 71.5 140.5t138.5 46.5h154q8 0 12.5 -6t2.5 -14l-3 -16q-2 -8 -9 -14t-15 -6h-154q-33 0 -56 -9.5t-39 -26.5
t-26 -41t-17 -54l-3 -15q-3 -10 8 -10h244q8 0 12.5 -6t2.5 -14l-96 -455q-2 -8 -9.5 -14t-15.5 -6h-20q-8 0 -12.5 6t-2.5 14l86 406q2 10 -8 10h-194q-10 0 -12 -10l-86 -406v0z" />
    <glyph glyph-name="fl" unicode="fl" horiz-adv-x="524" 
d="M451 426q2 10 -8 10h-215q-10 0 -12 -10l-86 -406q-2 -8 -9.5 -14t-15.5 -6h-20q-8 0 -12.5 6t-2.5 14l86 406q2 10 -8 10h-87q-8 0 -13 6t-3 14l4 19q2 8 9.5 14t15.5 6h87q9 0 12 10l3 15q21 94 71.5 140.5t138.5 46.5h5q8 0 12.5 -6t2.5 -14l-3 -16q-2 -8 -9 -14
t-15 -6h-5q-32 0 -55 -9t-39 -26t-26.5 -41t-17.5 -55l-3 -15q-3 -10 8 -10h215q9 0 12 10l38 182q2 8 9.5 14t15.5 6h20q8 0 12.5 -6t2.5 -14l-141 -667q-2 -8 -9.5 -14t-15.5 -6h-20q-8 0 -12.5 6t-2.5 14z" />
    <glyph glyph-name=".notdef" horiz-adv-x="550" 
d="M184 120q-14 0 -19 -9t-9.5 -19.5t-12.5 -19.5t-27 -9q-21 0 -36.5 13.5t-15.5 31.5t6.5 27t14.5 17t14.5 19t6.5 34q0 17 -8.5 27.5t-19.5 10.5q-12 0 -15.5 -3.5t-14.5 -3.5q-15 0 -22.5 16t-7.5 36q0 14 9.5 26.5t23.5 12.5q10 0 14.5 -5.5t12.5 -5.5q15 0 21 15t6 25
q0 12 -5 24.5t-5 24.5q0 20 11.5 28.5t28.5 8.5q9 0 9 8q0 5 -4 10.5t-4 13.5q0 5 5.5 9.5t10.5 4.5q8 0 13 -5.5t9 -12t8.5 -12t11.5 -5.5q12 0 15 8.5t5 19t7 19t22 8.5q16 0 23.5 -7.5t13.5 -16.5t13.5 -16.5t21.5 -7.5q21 0 28 11.5t7 36.5q0 28 15 40.5t38 12.5
q22 0 34.5 -13t12.5 -35q0 -16 -7.5 -26t-16.5 -16.5t-16.5 -12.5t-7.5 -14q0 -14 12 -22t27 -16.5t27 -21t12 -36.5q0 -14 -5 -22.5t-11 -15t-11 -14t-5 -20.5q0 -10 9.5 -18t34.5 -8q22 0 31 -13t9 -32q0 -22 -15 -37t-37 -15q-12 0 -19.5 8t-15 17t-16 17t-21.5 8
q-11 0 -18 -5.5t-7 -15.5q0 -8 3 -12.5t7 -8.5t7 -10t3 -18q0 -13 -8.5 -23t-26.5 -10q-9 0 -17.5 4.5t-18 10.5t-20.5 10.5t-24 4.5q-9 0 -17.5 -7t-8.5 -24q0 -12 -6.5 -19.5t-17.5 -7.5q-9 0 -12.5 7.5t-7.5 16.5t-11 16.5t-23 7.5zM298 340q0 -17 11.5 -28.5t28.5 -11.5
t30 11.5t13 28.5t-13 32t-30 15t-28.5 -15t-11.5 -32zM281 226q-14 0 -26 5.5t-22 14.5q-5 4 -7 1t2 -8q8 -12 20 -20.5t33 -8.5q20 0 29.5 11.5t14.5 22.5q2 5 -1 6.5t-5 -2.5q-12 -22 -38 -22zM214 335q0 9 4 15t10 6t10 -6t4 -15t-4 -15t-10 -6t-10 6t-4 15zM310 340
q0 9 4 15t10 6t10 -6t4 -15t-4 -15t-10 -6t-10 6t-4 15zM178 340q0 -21 9.5 -35.5t26.5 -14.5t28.5 14.5t11.5 35.5t-11.5 35.5t-28.5 14.5t-26.5 -14.5t-9.5 -35.5zM85 520q0 14 8.5 24t20.5 10q10 0 17 -10t7 -24t-7 -24t-17 -10q-12 0 -20.5 10t-8.5 24z" />
    <glyph glyph-name=".null" horiz-adv-x="0" 
 />
    <glyph glyph-name="nonmarkingreturn" horiz-adv-x="333" 
 />
    <glyph glyph-name="space" unicode=" " horiz-adv-x="230" 
 />
    <glyph glyph-name="exclam" unicode="!" horiz-adv-x="263" 
d="M194 680q2 8 9 14t15 6h20q8 0 13 -6t3 -14l-100 -470q-2 -8 -9.5 -14t-15.5 -6h-20q-8 0 -12.5 6t-2.5 14zM131 16q-4 -16 -20 -16h-62q-16 0 -12 16l13 63q2 6 7 11t12 5h62q7 0 11 -5t2 -11z" />
    <glyph glyph-name="quotedbl" unicode="&#x22;" horiz-adv-x="407" 
d="M80 480q-9 0 -12.5 7.5t2.5 16.5l53 71q5 5 3.5 10t-7.5 5h-10q-8 0 -13 6t-3 14l15 70q2 8 9 14t15 6h70q8 0 13 -6t3 -14l-16 -75q-5 -21 -12 -31.5t-15 -19.5l-52 -56q-5 -5 -12 -11.5t-21 -6.5h-10zM242 480q-9 0 -12.5 7.5t2.5 16.5l53 71q5 5 3.5 10t-7.5 5h-10
q-8 0 -13 6t-3 14l15 70q2 8 9 14t15 6h70q8 0 13 -6t3 -14l-16 -75q-5 -21 -12 -31.5t-15 -19.5l-52 -56q-5 -5 -12 -11.5t-21 -6.5h-10z" />
    <glyph glyph-name="numbersign" unicode="#" horiz-adv-x="577" 
d="M418 440q3 10 -6 10h-116q-11 0 -14 -10l-79 -200q-3 -10 6 -10h116q11 0 14 10zM220 440q3 10 -6 10h-50q-8 0 -12 6t-1 14l6 18q3 8 11.5 14t16.5 6h50q11 0 14 10l63 162q3 8 11 14t16 6h22q8 0 12 -6t1 -14l-63 -162q-3 -10 6 -10h116q11 0 14 10l63 162q3 8 11 14
t16 6h22q8 0 12 -6t1 -14l-63 -162q-3 -10 6 -10h50q8 0 11.5 -6t0.5 -14l-6 -18q-3 -8 -11 -14t-16 -6h-50q-11 0 -14 -10l-79 -200q-3 -10 6 -10h50q8 0 11.5 -6t0.5 -14l-7 -18q-3 -8 -11 -14t-16 -6h-50q-11 0 -14 -10l-57 -142q-3 -8 -11 -14t-16 -6h-22q-8 0 -12 6
t-1 14l57 142q3 10 -6 10h-116q-4 0 -8 -2.5t-6 -7.5l-57 -142q-3 -8 -11 -14t-16 -6h-22q-8 0 -12 6t-1 14l57 142q3 10 -6 10h-50q-8 0 -12 6t-1 14l7 18q3 8 11.5 14t16.5 6h50q11 0 14 10z" />
    <glyph glyph-name="dollar" unicode="$" horiz-adv-x="509" 
d="M307 705q10 1 11 9l8 36q2 8 9 14t15 6h22q8 0 13 -6t3 -14l-8 -36q-1 -9 8 -10q74 -14 106.5 -65t16.5 -119l-3 -13q-2 -8 -9 -14t-15 -6h-24q-8 0 -13 6t-3 14l3 13q6 26 3.5 48.5t-15.5 39.5t-36 26.5t-57 9.5q-30 0 -59 -10t-51 -28t-35.5 -42.5t-13.5 -53.5
q0 -27 10.5 -44t29.5 -28.5t43.5 -20t53.5 -19.5q32 -12 59 -26t47 -33.5t31 -45.5t11 -62q0 -42 -15 -82t-42 -72t-66 -53.5t-87 -28.5q-12 -2 -13 -10l-8 -35q-2 -8 -9 -14t-15 -6h-22q-8 0 -13 6t-3 14l8 35q1 9 -8 10q-39 7 -68.5 25.5t-48.5 45.5t-25.5 61.5t0.5 72.5
l3 16q2 8 9 14t15 6h25q8 0 13 -6t3 -14l-3 -16q-5 -26 -1 -52t18.5 -46.5t39.5 -33t62 -12.5q42 0 76 13t58 36.5t37 55.5t13 70q0 37 -26.5 64.5t-94.5 49.5q-25 8 -53.5 18.5t-53 27.5t-40.5 43t-16 66q0 38 15 72.5t41 61.5t60.5 46t73.5 25z" />
    <glyph glyph-name="percent" unicode="%" horiz-adv-x="647" 
d="M93 15q-12 -15 -24 -15h-20q-10 0 -14 9t4 19l557 657q12 15 25 15h18q10 0 14 -9t-4 -19zM227 433q23 0 41 15t26 36q9 23 14.5 50.5t7.5 52.5q1 16 -9 32.5t-37 16.5q-23 0 -40.5 -14.5t-25.5 -34.5q-9 -25 -14.5 -52.5t-7.5 -50.5q-1 -17 8.5 -34t36.5 -17zM270 690
q22 0 41.5 -7.5t33.5 -21t21 -33t5 -43.5q-2 -30 -6.5 -50t-14.5 -50q-7 -21 -17.5 -40t-26 -33.5t-35 -23t-44.5 -8.5q-23 0 -42.5 7.5t-33.5 21t-21 33t-5 43.5q3 30 7 50t14 50q7 20 18 39t26.5 33.5t35 23.5t44.5 9zM416 63q23 0 41 15t26 36q9 23 14.5 50.5t7.5 52.5
q2 16 -8 32.5t-37 16.5q-23 0 -41 -14.5t-26 -34.5q-9 -25 -14.5 -52.5t-7.5 -50.5q-1 -17 8.5 -34t36.5 -17zM460 320q22 0 41.5 -7.5t33.5 -21t21 -33t5 -43.5q-3 -30 -7 -50t-14 -50q-7 -21 -18 -40t-26 -33.5t-35 -23t-45 -8.5q-23 0 -42 7.5t-33 21t-21 33t-5 43.5
q1 15 2.5 27t4 23t6 23t8.5 27q7 20 18 39t26 33.5t35 23.5t45 9z" />
    <glyph glyph-name="ampersand" unicode="&#x26;" horiz-adv-x="597" 
d="M176 369q8 6 8 12.5t-3 11.5q-9 20 -15.5 44.5t-6.5 47.5q0 43 15 82t42.5 68.5t67 47t87.5 17.5q40 0 70.5 -14t50 -38.5t26.5 -58t-1 -72.5l-3 -15q-2 -8 -9.5 -14t-15.5 -6h-20q-8 0 -12.5 6t-2.5 14l3 15q5 25 2.5 48.5t-13 41.5t-29.5 28.5t-46 10.5
q-31 0 -58.5 -10.5t-48 -30.5t-32.5 -50.5t-12 -69.5q0 -21 9.5 -45t22.5 -46t25.5 -39.5l17.5 -24.5l115 -161q1 -2 2.5 -1.5t2.5 1.5t2 3q9 18 16 38q6 17 11 40.5t5 49.5q0 8 5.5 14t13.5 6h19q8 0 13.5 -6t5.5 -14q0 -33 -5.5 -62.5t-13 -53t-15.5 -39.5t-14 -23
q-2 -2 -4 -7t2 -10l48 -71q8 -9 0.5 -21.5t-24.5 -12.5h-23q-11 0 -14.5 3.5t-5.5 6.5l-28 40q-5 6 -8.5 4t-5.5 -4q-35 -27 -72.5 -42.5t-83.5 -15.5q-43 0 -77 13.5t-58 36.5t-37 53.5t-13 64.5q0 69 34.5 120t87.5 89zM240 51q42 0 74.5 16.5t50.5 32.5l4 4t0 6l-148 218
q-2 3 -4 2t-3 -2q-16 -11 -33 -27t-31.5 -37t-23.5 -46.5t-9 -56.5q0 -50 35 -80t88 -30z" />
    <glyph glyph-name="quotesingle" unicode="'" horiz-adv-x="226" 
d="M110 590q-8 0 -13 6t-3 14l15 70q2 8 9 14t15 6h70q8 0 13 -6t3 -14l-16 -75q-5 -21 -12 -31.5t-15 -19.5l-52 -56q-5 -5 -12 -11.5t-21 -6.5h-10q-9 0 -12.5 7.5t2.5 16.5l53 71q5 5 3.5 10t-7.5 5h-10z" />
    <glyph glyph-name="parenleft" unicode="(" horiz-adv-x="341" 
d="M260 -27q8 0 13 -6t3 -14l-5 -23q-2 -8 -9.5 -14t-15.5 -6h-18q-91 0 -137 56.5t-38 153.5q2 20 7 51.5t12 68t15 76t17 76t17 67.5t15 51q35 106 96.5 158t168.5 52h12q8 0 12.5 -6t2.5 -14l-5 -23q-2 -8 -9 -14t-15 -6h-12q-33 0 -61 -7t-50.5 -24.5t-41 -45.5
t-33.5 -70q-11 -31 -25 -84t-26.5 -111t-21.5 -111t-10 -84q-1 -22 1.5 -47.5t15 -47.5t38 -37t69.5 -15h18z" />
    <glyph glyph-name="parenright" unicode=")" horiz-adv-x="341" 
d="M5 -27q42 0 71 8.5t50 26.5t35.5 45.5t28.5 66.5q11 31 25 84t26.5 111t21 111t10.5 84q2 73 -25.5 110t-98.5 37h-12q-8 0 -13 6t-3 14l5 23q2 8 9.5 14t15.5 6h12q49 0 84 -17.5t56.5 -46.5t30 -67t4.5 -79q-2 -20 -7 -51t-12 -67.5t-15 -76t-17 -76t-17 -68t-15 -51.5
q-20 -61 -42.5 -101.5t-52.5 -64.5t-69 -34t-92 -10h-26q-8 0 -12.5 6t-2.5 14l5 23q2 8 9 14t15 6h18z" />
    <glyph glyph-name="asterisk" unicode="*" horiz-adv-x="362" 
d="M283 534l-13 -64q-2 -8 -9 -14t-15 -6h-21q-8 0 -13 6t-3 14l15 64l-62 -33q-8 -5 -16 -2.5t-10 9.5l-7 19q-2 7 2 15t12 12l62 31l-49 31q-7 5 -7 12.5t5 14.5l15 19q5 7 13.5 9t14.5 -2l48 -33l13 64q2 8 9 14t15 6h21q8 0 13 -6t3 -14l-15 -64l62 33q8 5 16 2.5
t10 -9.5l7 -19q2 -7 -2 -15t-12 -12l-62 -31l49 -31q7 -5 7 -12.5t-5 -14.5l-15 -19q-5 -7 -13.5 -9t-14.5 2z" />
    <glyph glyph-name="plus" unicode="+" horiz-adv-x="540" 
d="M76 220q-8 0 -13 6t-3 14l5 21q2 8 9 14t15 6h159q10 0 12 10l34 159q2 8 9 14t15 6h22q8 0 13 -6t3 -14l-34 -159q-2 -10 8 -10h159q8 0 13 -6t3 -14l-5 -21q-2 -8 -9 -14t-15 -6h-159q-10 0 -12 -10l-34 -160q-2 -8 -9 -14t-15 -6h-22q-8 0 -13 6t-3 14l34 160
q2 10 -8 10h-159z" />
    <glyph glyph-name="comma" unicode="," horiz-adv-x="283" 
d="M31 -110q-9 0 -12.5 7.5t2.5 16.5l53 71q5 5 3.5 10t-7.5 5h-10q-8 0 -13 6t-3 14l15 70q2 8 9 14t15 6h70q8 0 13 -6t3 -14l-16 -75q-5 -21 -12 -31.5t-15 -19.5l-52 -56q-5 -5 -12 -11.5t-21 -6.5h-10z" />
    <glyph glyph-name="hyphen" unicode="-" horiz-adv-x="453" 
d="M386 304q8 0 13 -6t3 -14l-7 -35q-2 -8 -9 -14t-15 -6h-273q-8 0 -13 6t-3 14l7 35q2 8 9 14t15 6h273z" />
    <glyph glyph-name="period" unicode="." horiz-adv-x="284" 
d="M157 20q-2 -8 -9 -14t-15 -6h-70q-8 0 -13 6t-3 14l15 70q2 8 9 14t15 6h70q8 0 13 -6t3 -14z" />
    <glyph glyph-name="slash" unicode="/" horiz-adv-x="458" 
d="M73 3q-7 -15 -21 -15h-21q-10 0 -15.5 8.5t-0.5 19.5l286 679q5 15 19 15h21q10 0 15.5 -8.5t0.5 -19.5z" />
    <glyph glyph-name="zero" unicode="0" horiz-adv-x="520" 
d="M225 51q35 0 64 13t51.5 34t39 48t26.5 54q11 31 21.5 70t19 79.5t14.5 79.5t8 71q2 22 -1 48.5t-15.5 48.5t-36.5 37t-64 15q-34 0 -63 -13t-52 -34t-40 -47.5t-26 -54.5q-11 -32 -21 -71t-18.5 -79.5t-15 -79.5t-8.5 -70q-2 -22 1.5 -48t16 -48.5t36.5 -37.5t63 -15z
M352 708q90 0 138.5 -55.5t39.5 -152.5q-3 -30 -9.5 -69.5t-15 -80.5t-18.5 -80.5t-20 -69.5q-14 -41 -34.5 -79t-50.5 -66.5t-69 -45.5t-88 -17q-90 0 -138.5 55.5t-39.5 152.5q3 30 9 69.5t15 81t19 80.5t20 69q14 41 36 78.5t52.5 66.5t69 46t84.5 17z" />
    <glyph glyph-name="one" unicode="1" horiz-adv-x="363" 
d="M350 700q8 0 13 -6t3 -14l-141 -660q-2 -8 -9 -14t-15 -6h-20q-8 0 -13 6t-3 14l122 575q2 5 -1.5 5.5t-6.5 -1.5l-211 -178q-8 -7 -15.5 -3.5t-5.5 11.5l8 35q2 13 11.5 24.5t16.5 16.5l216 186q11 9 22 9h29z" />
    <glyph glyph-name="two" unicode="2" horiz-adv-x="462" 
d="M110 516q9 41 27.5 76t46 61t64 40.5t80.5 14.5q35 0 65 -11t52.5 -32t35 -50t12.5 -65q0 -37 -10.5 -69t-28 -60.5t-40.5 -53.5t-47 -47l-266 -243q-5 -5 -4.5 -10.5t8.5 -5.5h287q8 0 13 -6t3 -14l-4 -21q-2 -8 -9.5 -14t-15.5 -6h-366q-8 0 -12.5 6t-2.5 14l7 37
q3 11 7 16.5t8 8.5l297 271q49 44 81.5 90.5t32.5 106.5q0 19 -6 36.5t-18.5 31.5t-32 22.5t-46.5 8.5q-33 0 -59 -11t-45.5 -30t-32 -43t-18.5 -50l-3 -13q-2 -8 -9 -14t-15 -6h-23q-8 0 -13 6t-3 14z" />
    <glyph glyph-name="three" unicode="3" horiz-adv-x="486" 
d="M103 201q-8 -32 -3 -58.5t20.5 -46t40.5 -30t58 -10.5q34 0 65.5 12t56 34.5t39 54.5t14.5 73q0 22 -6 41t-19.5 33t-35.5 22.5t-53 8.5h-7q-8 0 -12.5 6t-2.5 14l4 22q2 8 9 14t15 6h7q34 0 62 12.5t48.5 33.5t31.5 49t11 58q0 39 -26.5 66.5t-75.5 27.5
q-31 0 -57.5 -10t-47.5 -28t-35 -43t-19 -55l-1 -6q-2 -8 -7.5 -14t-16.5 -6h-25q-10 0 -14 6t-2 14l1 6q7 45 27 82t49 63t66.5 40.5t81.5 14.5q37 0 67.5 -12t52.5 -33t34.5 -50t12.5 -63q0 -25 -7.5 -50t-20.5 -48t-30 -43t-36 -34q-8 -5 -10 -11.5t4 -12.5
q23 -23 35.5 -50t12.5 -61q0 -55 -20 -100.5t-53 -78.5t-76.5 -51t-90.5 -18q-45 0 -83 16.5t-63 44.5t-34.5 66t1.5 82l1 4q2 8 8 14t16 6h23q20 0 16 -20z" />
    <glyph glyph-name="four" unicode="4" horiz-adv-x="491" 
d="M301 199q10 0 13 10l81 381q2 5 -1.5 5t-5.5 -3l-292 -385q-6 -8 2 -8h203zM392 686q6 8 11 11t13 3h41q8 0 13 -6t3 -14l-100 -471q-3 -10 7 -10h56q8 0 13 -6t3 -14l-4 -19q-2 -8 -9 -14t-15 -6h-56q-10 0 -12 -10l-24 -110q-2 -8 -9 -14t-15 -6h-19q-8 0 -13 6t-3 14
l24 110q2 10 -8 10h-262q-8 0 -13 6t-3 14l3 13q3 16 11 27.5t14 21.5z" />
    <glyph glyph-name="five" unicode="5" horiz-adv-x="500" 
d="M50 175q5 20 24 20h21q8 0 13 -6t3 -14q-5 -24 1 -46.5t20.5 -39.5t36.5 -27t49 -10q42 0 76.5 18.5t60 48.5t39.5 69.5t14 81.5q0 58 -29.5 97t-85.5 39q-25 0 -44.5 -8.5t-35.5 -21.5t-28 -29t-21 -31q-5 -7 -9.5 -9t-11.5 -2h-28q-8 0 -13 6t-3 14l75 355q2 8 9.5 14
t15.5 6h312q8 0 12.5 -6t2.5 -14l-4 -20q-2 -8 -9 -14t-15 -6h-263q-10 0 -12 -10l-39 -185q-2 -8 3 -12t17 4q17 12 38.5 20.5t54.5 8.5q37 0 68.5 -13.5t54.5 -38.5t35.5 -60.5t12.5 -78.5q0 -55 -17.5 -106t-50 -90.5t-79 -63t-103.5 -23.5q-40 0 -74 14t-58 38.5t-34 58
t-2 72.5z" />
    <glyph glyph-name="six" unicode="6" horiz-adv-x="506" 
d="M313 390q-39 0 -71.5 -16t-56 -43t-38 -62.5t-18.5 -74.5q-3 -28 2.5 -53t19.5 -44.5t36.5 -31t54.5 -11.5q41 0 74.5 20t57.5 51.5t37.5 69t13.5 73.5q0 52 -27.5 87t-84.5 35zM526 517q-2 -8 -9 -14t-15 -6h-22q-8 0 -13 6t-3 14q5 24 1.5 47t-15.5 42t-34 30.5
t-54 11.5q-29 0 -55.5 -12t-48.5 -32t-39 -47t-26 -57q-9 -29 -13 -46.5t-7 -37.5q-2 -6 2.5 -9t11.5 2l19.5 13t25.5 14t35 11.5t46 4.5q83 0 129 -51t46 -134q0 -50 -18.5 -99.5t-51.5 -88.5t-78 -63t-98 -24q-44 0 -78 16t-57.5 44.5t-34 66t-6.5 81.5q3 30 9.5 69.5
t15 80.5t18.5 80.5t20 69.5q14 43 36 81t51.5 66t66 44.5t79.5 16.5t77.5 -15t56.5 -40.5t30.5 -60.5t-0.5 -75z" />
    <glyph glyph-name="seven" unicode="7" horiz-adv-x="420" 
d="M419 630q2 4 1 7t-6 3h-303q-8 0 -13 6t-3 14l5 20q2 8 9 14t15 6h360q8 0 13 -6t3 -14l-8 -37q-1 -5 -3 -9t-6 -11l-362 -608q-10 -15 -22 -15h-31q-14 0 -15.5 8.5t2.5 15.5z" />
    <glyph glyph-name="eight" unicode="8" horiz-adv-x="520" 
d="M227 53q37 0 69.5 13.5t55.5 37t36.5 54.5t13.5 66q0 23 -7.5 43.5t-22.5 36t-37.5 24.5t-52.5 9q-39 0 -72 -12.5t-57 -35t-38 -54t-14 -70.5q0 -24 9 -44.5t25.5 -35.5t40 -23.5t51.5 -8.5zM294 394q32 0 61 12t51 33t35 49.5t13 61.5q0 39 -29 68t-78 29
q-38 0 -68 -12.5t-50.5 -34t-31.5 -50t-11 -60.5q0 -42 28.5 -69t79.5 -27zM408 353q25 -24 40.5 -58.5t15.5 -70.5q0 -50 -19 -92t-51.5 -73.5t-75.5 -49t-91 -17.5q-42 0 -77 13t-59.5 36.5t-38 55t-13.5 68.5q0 61 34 114.5t88 85.5q9 5 9 12t-5 12q-17 20 -29 45.5
t-12 55.5q0 43 17 82.5t46.5 69.5t70.5 48t89 18q36 0 67 -12t54 -33.5t35.5 -50.5t12.5 -62q0 -54 -29 -98.5t-73 -74.5q-18 -12 -6 -24z" />
    <glyph glyph-name="nine" unicode="9" horiz-adv-x="501" 
d="M268 310q40 0 74 16t58.5 43.5t38 65.5t13.5 82q0 21 -4.5 44t-17 41.5t-34.5 31t-57 12.5q-41 0 -75 -19.5t-58 -50t-37 -67t-13 -70.5q0 -27 5.5 -50.5t18.5 -41t34.5 -27.5t53.5 -10zM42 183q2 8 9 14t15 6h22q8 0 13 -6t3 -14q-6 -26 0.5 -49.5t22 -41.5t38.5 -29
t52 -11q67 0 109.5 41.5t67.5 106.5q7 18 13.5 44t8.5 43q1 7 -4 9t-13 -3q-9 -6 -20.5 -14t-27.5 -14.5t-37 -11.5t-48 -5q-85 0 -129 49.5t-44 135.5q0 50 18.5 99.5t51.5 88.5t78 63t98 24q81 0 127.5 -49.5t46.5 -150.5q0 -34 -4 -73.5t-11.5 -80t-17.5 -79t-21 -70.5
q-36 -102 -94 -157.5t-148 -55.5q-37 0 -72 15t-60.5 40.5t-38 60.5t-4.5 75z" />
    <glyph glyph-name="colon" unicode=":" horiz-adv-x="283" 
d="M157 20q-2 -8 -9.5 -14t-15.5 -6h-70q-8 0 -12.5 6t-2.5 14l15 70q2 8 9 14t15 6h70q8 0 13 -6t3 -14zM237 400q-2 -8 -9 -14t-15 -6h-70q-8 0 -13 6t-3 14l15 70q2 8 9.5 14t15.5 6h70q8 0 12.5 -6t2.5 -14z" />
    <glyph glyph-name="semicolon" unicode=";" horiz-adv-x="284" 
d="M234 400q-2 -8 -9.5 -14t-15.5 -6h-70q-8 0 -12.5 6t-2.5 14l15 70q2 8 9 14t15 6h70q8 0 13 -6t3 -14zM30 -110q-9 0 -12.5 7.5t2.5 16.5l53 71q5 5 3.5 10t-7.5 5h-10q-8 0 -13 6t-3 14l15 70q2 8 9 14t15 6h70q8 0 13 -6t3 -14l-16 -75q-5 -21 -12 -31.5t-15 -19.5
l-52 -56q-5 -5 -12 -11.5t-21 -6.5h-10z" />
    <glyph glyph-name="less" unicode="&#x3c;" horiz-adv-x="470" 
d="M379 64q13 -9 10 -21l-6 -24q-2 -12 -11 -18t-16 -1l-315 219q-13 8 -10 22l4 19q3 14 19 22l409 218q8 4 14.5 -1.5t4.5 -17.5l-6 -32q-3 -11 -20 -21l-339 -180q-7 -4 -1 -8z" />
    <glyph glyph-name="equal" unicode="=" horiz-adv-x="540" 
d="M94 307q-8 0 -13 6t-3 14l5 25q2 8 9 14t15 6h400q8 0 13 -6t3 -14l-5 -25q-2 -8 -9 -14t-15 -6h-400zM56 129q-8 0 -13 6t-3 14l5 25q2 8 9 14t15 6h400q8 0 13 -6t3 -14l-5 -25q-2 -8 -9 -14t-15 -6h-400z" />
    <glyph glyph-name="greater" unicode="&#x3e;" horiz-adv-x="470" 
d="M379 252q7 4 1 8l-263 176q-13 9 -10 21l6 24q2 12 11 18t16 1l315 -218q14 -9 11 -22l-4 -19q-3 -14 -20 -22l-409 -219q-7 -4 -14 1.5t-5 17.5l6 32q3 11 20 21z" />
    <glyph glyph-name="question" unicode="?" horiz-adv-x="475" 
d="M428 560q0 38 -28 64t-84 26q-29 0 -52 -10.5t-40 -28.5t-29 -42t-18 -52l-2 -7q-2 -8 -9 -14t-15 -6h-20q-8 0 -13 6t-3 14l2 7q9 40 27.5 75t45.5 60.5t61 40t72 14.5q36 0 66.5 -11t52 -30.5t33.5 -46.5t12 -59q0 -29 -7.5 -51.5t-20.5 -41.5t-30 -35t-35 -32
q-8 -7 -28 -21t-41 -31t-38.5 -34.5t-20.5 -32.5l-15 -71q-2 -8 -9.5 -14t-15.5 -6h-20q-8 0 -12.5 6t-2.5 14l15 71q4 20 12 35.5t19 25.5q32 30 55 46.5t41 31.5q18 14 35 27t30.5 28.5t21.5 35.5t8 49zM228 16q-1 -7 -6.5 -11.5t-12.5 -4.5h-62q-15 0 -13 16l14 63
q2 6 7 11t12 5h62q7 0 11 -5t2 -11z" />
    <glyph glyph-name="at" unicode="@" horiz-adv-x="781" 
d="M524 339q9 43 -13.5 63t-59.5 20q-38 0 -68 -17t-50.5 -45t-31.5 -62.5t-11 -70.5q0 -45 23 -76t74 -31q37 0 68.5 21.5t40.5 67.5zM482 -12q11 5 17 0t4 -15l-2 -13q-2 -12 -11 -17.5t-19 -10.5q-18 -9 -50 -15.5t-61 -6.5q-74 0 -131 24t-96 65t-59.5 97t-20.5 119
q0 87 31.5 164t87.5 135t132.5 92t166.5 34q65 0 120.5 -21.5t96 -59t63.5 -88.5t23 -111q0 -56 -13.5 -108.5t-39 -93t-62.5 -64.5t-84 -24q-25 0 -37 5t-25 15q-11 8 -23.5 8.5t-33.5 -8.5q-17 -8 -38 -14t-44 -6q-41 0 -69.5 13.5t-46.5 35t-26 50t-8 58.5q0 46 17 90.5
t47.5 79t72 55.5t90.5 21q35 0 62.5 -10.5t45.5 -29t25 -45t0 -58.5l-33 -155q-5 -23 3.5 -36.5t27.5 -13.5q34 0 58.5 21t40.5 55t24 75.5t8 83.5q0 47 -17 88t-49 71t-78 47t-104 17q-77 0 -140.5 -28t-109 -77t-71 -116t-25.5 -146q0 -53 17 -98.5t49.5 -79t79.5 -52.5
t107 -19q29 0 56.5 5t53.5 16z" />
    <glyph glyph-name="A" unicode="A" 
d="M367 260q11 0 11 11l-17 340q0 6 -3 6h-2q-2 0 -5 -6l-165 -340q-6 -11 5 -11h176zM385 184q-2 14 -16 14h-206q-14 0 -22 -14l-85 -169q-5 -15 -21 -15h-27q-12 0 -15.5 6.5t-0.5 13.5l332 665q7 15 22 15h50q16 0 16 -15l49 -665q0 -7 -6 -13.5t-18 -6.5h-25
q-16 0 -16 15z" />
    <glyph glyph-name="B" unicode="B" horiz-adv-x="495" 
d="M166 338q-10 0 -12 -10l-54 -254q-2 -10 8 -10h134q36 0 66.5 13t53.5 36t36 54t13 68q0 49 -31.5 76t-79.5 27h-134zM366 700q76 0 117.5 -44.5t41.5 -115.5q0 -50 -25.5 -93.5t-66.5 -72.5q-17 -12 -5 -22q21 -20 33.5 -51t12.5 -66q0 -53 -18.5 -96t-50 -74t-74 -48
t-89.5 -17h-200q-8 0 -13 6t-3 14l141 660q2 8 9 14t15 6h175zM316 397q28 0 55 11t47 30.5t32.5 45.5t12.5 56q0 42 -25.5 69t-70.5 27h-138q-10 0 -12 -10l-46 -219q-2 -10 7 -10h138z" />
    <glyph glyph-name="C" unicode="C" horiz-adv-x="532" 
d="M560 496q-2 -8 -9.5 -14t-15.5 -6h-25q-8 0 -12.5 6t-2.5 14q5 28 0.5 55t-19.5 47.5t-41 33t-64 12.5q-40 0 -70.5 -12t-53 -32.5t-38 -46.5t-25.5 -53q-11 -31 -21.5 -70t-19 -80t-14.5 -80t-8 -70q-2 -22 2.5 -47t18 -46.5t38.5 -36t66 -14.5q49 0 82 14.5t54 36
t32.5 47.5t19.5 50q2 8 9.5 14t15.5 6h27q8 0 12.5 -6t2.5 -14q-32 -101 -92.5 -156.5t-162.5 -55.5q-45 0 -82 14.5t-62.5 41.5t-38.5 65.5t-9 86.5q2 30 8 69.5t14.5 81t19 80.5t21.5 69q15 41 37.5 78.5t54 66.5t73 46t94.5 17q50 0 88 -17.5t61.5 -46.5t32.5 -67.5
t2 -80.5z" />
    <glyph glyph-name="D" unicode="D" horiz-adv-x="534" 
d="M231 636q-10 0 -12 -10l-117 -552q-2 -10 8 -10h123q46 0 78 13t53.5 33t34.5 44t21 46q11 31 21.5 70t19 80t14.5 80t8 70q2 27 -4 52t-21 43.5t-39.5 29.5t-60.5 11h-127zM358 700q49 0 86.5 -16t62 -43t35.5 -63.5t8 -77.5q-2 -30 -8.5 -69t-15 -80.5t-19 -81
t-20.5 -69.5q-34 -97 -96.5 -148.5t-157.5 -51.5h-191q-8 0 -13 6t-3 14l141 660q2 8 9 14t15 6h167z" />
    <glyph glyph-name="E" unicode="E" horiz-adv-x="455" 
d="M102 74q-2 -10 8 -10h261q8 0 12.5 -6t2.5 -14l-5 -24q-2 -8 -9 -14t-15 -6h-315q-8 0 -13 6t-3 14l141 660q2 8 9 14t15 6h313q8 0 13 -6t3 -14l-5 -24q-2 -8 -9.5 -14t-15.5 -6h-259q-10 0 -12 -10l-48 -227q-2 -10 8 -10h248q8 0 13 -6t3 -14l-5 -23q-2 -8 -9.5 -14
t-15.5 -6h-248q-9 0 -12 -10z" />
    <glyph glyph-name="F" unicode="F" horiz-adv-x="433" 
d="M90 20q-2 -8 -9 -14t-15 -6h-24q-8 0 -13 6t-3 14l141 660q2 8 9 14t15 6h313q8 0 13 -6t3 -14l-5 -24q-2 -8 -9.5 -14t-15.5 -6h-259q-10 0 -12 -10l-48 -226q-2 -10 8 -10h248q8 0 13 -6t3 -14l-5 -24q-2 -8 -9.5 -14t-15.5 -6h-248q-10 0 -12 -10z" />
    <glyph glyph-name="G" unicode="G" horiz-adv-x="536" 
d="M456 308q2 10 -8 10h-119q-8 0 -13 6t-3 14l5 24q2 8 9 14t15 6h174q8 0 13 -6t3 -14l-33 -158q-22 -103 -86.5 -157.5t-166.5 -54.5q-45 0 -82 14.5t-62.5 41.5t-38.5 65.5t-9 86.5q2 30 8.5 69.5t15 81t18.5 80.5t21 69q15 41 37 78.5t53 66.5t71.5 46t92.5 17
t90.5 -17.5t63 -46.5t33.5 -67.5t2 -80.5q-2 -8 -9.5 -14t-15.5 -6h-25q-8 0 -12.5 6t-2.5 14q5 28 0.5 55t-19.5 47.5t-41 33t-64 12.5q-40 0 -70.5 -12t-53 -32.5t-38 -46.5t-25.5 -53q-11 -31 -21.5 -70t-19 -80t-14.5 -80t-8 -70q-2 -22 2.5 -47t18 -46.5t38.5 -36
t66 -14.5q49 0 82.5 14t54.5 35.5t32 48t17 50.5z" />
    <glyph glyph-name="H" unicode="H" horiz-adv-x="535" 
d="M171 400q-2 -10 8 -10h262q10 0 12 10l60 280q2 8 9 14t15 6h24q8 0 13 -6t3 -14l-141 -660q-2 -8 -9 -14t-15 -6h-24q-8 0 -13 6t-3 14l63 296q3 10 -8 10h-262q-9 0 -12 -10l-63 -296q-2 -8 -9 -14t-15 -6h-24q-8 0 -13 6t-3 14l141 660q2 8 9 14t15 6h24q8 0 13 -6
t3 -14z" />
    <glyph glyph-name="I" unicode="I" horiz-adv-x="189" 
d="M90 20q-2 -8 -9 -14t-15 -6h-24q-8 0 -13 6t-3 14l141 660q2 8 9 14t15 6h24q8 0 13 -6t3 -14z" />
    <glyph glyph-name="J" unicode="J" horiz-adv-x="458" 
d="M10 200q1 8 6 14t13 6h30q8 0 12 -6t3 -14l-1 -8q-3 -27 3 -52t20.5 -43.5t37.5 -29.5t53 -11q62 0 103.5 37.5t55.5 106.5l101 480q2 8 9.5 14t15.5 6h24q8 0 12.5 -6t2.5 -14l-103 -488q-9 -45 -29 -82t-49 -63t-67 -40.5t-84 -14.5q-41 0 -75 15.5t-56.5 42.5
t-33 63.5t-5.5 78.5z" />
    <glyph glyph-name="K" unicode="K" horiz-adv-x="462" 
d="M162 313q-2 2 -5 2t-4 -4l-63 -291q-2 -8 -9 -14t-15 -6h-24q-8 0 -13 6t-3 14l141 660q2 8 9 14t15 6h24q8 0 13 -6t3 -14l-52 -250q-1 -4 2 -4t5 2l281 263q5 4 11 6.5t17 2.5h20q16 0 19.5 -12.5t-6.5 -21.5l-308 -289q-14 -12 -6 -24l195 -316q8 -13 2 -25t-23 -12
h-19q-11 0 -16 5t-7 8z" />
    <glyph glyph-name="L" unicode="L" horiz-adv-x="402" 
d="M102 74q-2 -10 8 -10h245q8 0 12.5 -6t2.5 -14l-5 -24q-2 -8 -9 -14t-15 -6h-299q-8 0 -13 6t-3 14l141 660q2 8 9 14t15 6h24q8 0 13 -6t3 -14z" />
    <glyph glyph-name="M" unicode="M" horiz-adv-x="677" 
d="M314 110q0 -5 4 -5t6 5l283 573q8 17 25 17h71q8 0 13 -6t3 -14l-141 -660q-2 -8 -9 -14t-15 -6h-22q-8 0 -13 6t-3 14l123 576q1 5 -2.5 5t-5.5 -3l-292 -581q-10 -17 -25 -17h-32q-16 0 -17 17l-46 581q0 3 -3.5 3t-4.5 -5l-123 -576q-2 -8 -9 -14t-15 -6h-22
q-8 0 -13 6t-3 14l141 660q2 8 9 14t15 6h67q17 0 17 -17z" />
    <glyph glyph-name="N" unicode="N" horiz-adv-x="525" 
d="M350 0q-8 0 -11.5 3.5t-5.5 13.5l-115 582q-1 3 -4.5 2.5t-4.5 -4.5l-123 -577q-2 -8 -9 -14t-15 -6h-20q-8 0 -13 6t-3 14l141 660q2 8 9 14t15 6h52q8 0 11.5 -3.5t5.5 -13.5l116 -580q1 -3 4.5 -2.5t4.5 4.5l122 575q2 8 6 14t12 6h26q8 0 13 -6t3 -14l-141 -660
q-2 -8 -9 -14t-15 -6h-52z" />
    <glyph glyph-name="O" unicode="O" horiz-adv-x="549" 
d="M246 56q46 0 78 14.5t53.5 36t34.5 46.5t21 47q11 31 21.5 70t19 80t14.5 80t8 70q2 27 -4 53t-21 46.5t-39.5 32.5t-60.5 12q-40 0 -70.5 -12t-53 -32.5t-38 -46.5t-25.5 -53q-11 -31 -21.5 -70t-19 -80t-14.5 -80t-8 -70q-2 -22 2.5 -47t18 -46.5t38.5 -36t66 -14.5z
M371 708q49 0 86.5 -17t62 -46t35.5 -66.5t8 -78.5q-2 -30 -8.5 -69t-15 -80.5t-19 -81t-20.5 -69.5q-34 -97 -96.5 -152.5t-157.5 -55.5q-45 0 -82 14.5t-62.5 41.5t-38.5 65.5t-9 86.5q2 30 8.5 69.5t15 81t18.5 80.5t21 69q15 41 37 78.5t53 66.5t71.5 46t92.5 17z" />
    <glyph glyph-name="P" unicode="P" horiz-adv-x="467" 
d="M347 700q42 0 75.5 -13t57.5 -35.5t37 -54t13 -67.5q0 -50 -18 -95t-52 -79.5t-83 -55t-112 -20.5h-110q-10 0 -12 -10l-53 -250q-2 -8 -9.5 -14t-15.5 -6h-24q-8 0 -12.5 6t-2.5 14l140 660q2 8 9 14t15 6h157zM231 636q-11 0 -13 -10l-57 -272q-2 -10 8 -10h106
q47 0 82.5 15.5t59.5 41t36 59.5t12 70q0 45 -30.5 75.5t-87.5 30.5h-116z" />
    <glyph glyph-name="Q" unicode="Q" horiz-adv-x="549" 
d="M246 56q46 0 78 14.5t53.5 36t34.5 46.5t21 47q11 31 21.5 70t19 80t14.5 80t8 70q2 27 -4 53t-21 46.5t-39.5 32.5t-60.5 12q-40 0 -70.5 -12t-53 -32.5t-38 -46.5t-25.5 -53q-11 -31 -21.5 -70t-19 -80t-14.5 -80t-8 -70q-2 -22 2.5 -47t18 -46.5t38.5 -36t66 -14.5z
M387 35q-9 -8 -5 -16l37 -81q5 -10 -1 -19t-16 -9h-32q-7 0 -10 3.5t-7 11.5l-34 68q-3 6 -11.5 5.5t-14.5 -2.5q-11 -2 -23 -3t-24 -1q-45 0 -82 14.5t-62.5 41.5t-38.5 65.5t-9 86.5q2 30 8.5 69.5t15 81t18.5 80.5t21 69q15 41 37 78.5t53 66.5t71.5 46t92.5 17
q49 0 86.5 -17t62 -46t35.5 -66.5t8 -78.5q-2 -30 -8.5 -69t-15 -80.5t-19 -81t-20.5 -69.5q-38 -110 -113 -165z" />
    <glyph glyph-name="R" unicode="R" horiz-adv-x="491" 
d="M155 280q-10 0 -12 -10l-53 -250q-2 -8 -9.5 -14t-15.5 -6h-24q-8 0 -12.5 6t-2.5 14l140 660q2 8 9 14t15 6h157q42 0 75.5 -12.5t57.5 -34.5t37 -52.5t13 -65.5q0 -42 -12 -80.5t-35.5 -70.5t-57.5 -56t-77 -37q-11 -3 -15 -12t1 -20l92 -225q5 -11 0 -22.5t-24 -11.5
h-19q-12 0 -16 6t-8 14l-101 248q-2 5 -5 8.5t-11 3.5h-87zM231 636q-11 0 -13 -10l-57 -272q-2 -10 8 -10h106q47 0 82.5 15.5t59.5 41t36 59.5t12 70q0 45 -30.5 75.5t-87.5 30.5h-116z" />
    <glyph glyph-name="S" unicode="S" horiz-adv-x="491" 
d="M403 231q0 37 -26.5 65t-94.5 49q-25 8 -53.5 18t-53 27.5t-40.5 43.5t-16 66q0 42 18.5 79.5t49.5 66t72 45.5t85 17q49 0 85 -15t58 -40.5t28.5 -59.5t-2.5 -73l-3 -13q-2 -8 -9 -14t-15 -6h-24q-8 0 -13 6t-3 14l3 13q6 25 3.5 48t-15.5 39.5t-37 26.5t-61 10
q-29 0 -57 -10t-49.5 -28t-34.5 -42.5t-13 -53.5q0 -27 10.5 -44t29.5 -28.5t43.5 -20t53.5 -19.5q32 -12 59 -26t47 -33.5t31 -45.5t11 -62q0 -47 -18 -90t-51 -76t-79 -53t-103 -20q-48 0 -86 16.5t-62.5 44.5t-34 66t-1.5 81l3 16q2 8 9 14t15 6h25q8 0 13 -6t3 -14
l-3 -16q-5 -26 -1 -52t18.5 -46.5t39.5 -33t62 -12.5q42 0 76 13t58 36.5t37 55.5t13 70z" />
    <glyph glyph-name="T" unicode="T" horiz-adv-x="417" 
d="M112 636q-8 0 -12.5 6t-2.5 14l5 24q2 8 9 14t15 6h380q8 0 13 -6t3 -14l-5 -24q-2 -8 -9.5 -14t-15.5 -6h-147q-10 0 -12 -10l-129 -606q-2 -8 -9 -14t-15 -6h-25q-8 0 -13 6t-3 14l129 606q2 10 -8 10h-148z" />
    <glyph glyph-name="U" unicode="U" horiz-adv-x="537" 
d="M526 680q2 8 9.5 14t15.5 6h24q8 0 12.5 -6t2.5 -14l-100 -473q-9 -45 -30.5 -84t-53 -68t-72.5 -46t-91 -17q-45 0 -82.5 17t-63 46t-36 68t-1.5 84l100 473q2 8 9.5 14t15.5 6h24q8 0 12.5 -6t2.5 -14l-100 -473q-6 -30 -0.5 -57.5t21.5 -48t41 -33t57 -12.5
q39 0 70 12.5t54 33t38 48t21 57.5z" />
    <glyph glyph-name="V" unicode="V" horiz-adv-x="491" 
d="M259 15q-8 -15 -22 -15h-60q-15 0 -16 15l-49 661q-1 8 5.5 16t18.5 8h26q15 0 16 -15l39 -590q0 -6 5 -6h2q4 0 7 6l292 590q7 15 22 15h32q12 0 15 -7.5t-1 -15.5z" />
    <glyph glyph-name="W" unicode="W" horiz-adv-x="697" 
d="M426 549q0 4 -3 4t-5 -4l-213 -534q-6 -15 -22 -15h-56q-16 0 -16 15l6 665q0 8 6 14t18 6h20q16 0 16 -15l-9 -572q0 -6 5 -6h2q4 0 7 6l228 572q6 15 22 15h38q16 0 16 -15l-8 -572q0 -6 5 -6h2q4 0 7 6l244 572q7 15 22 15h24q12 0 15.5 -6t0.5 -14l-287 -665
q-6 -15 -22 -15h-56q-16 0 -16 15z" />
    <glyph glyph-name="X" unicode="X" horiz-adv-x="466" 
d="M61 15q-11 -15 -24 -15h-40q-10 0 -14 8.5t4 19.5l243 328q6 8 4 14l-116 302q-4 11 4 19.5t18 8.5h20q16 0 21 -15l97 -250q3 -8 8 0l183 250q11 15 27 15h32q10 0 14 -8.5t-4 -19.5l-224 -302q-5 -6 -2 -14l125 -328q4 -11 -4 -19.5t-18 -8.5h-27q-12 0 -17 15
l-102 274q-3 8 -8 0z" />
    <glyph glyph-name="Y" unicode="Y" horiz-adv-x="423" 
d="M231 328q1 -4 3.5 -4t4.5 4l213 357q8 15 22 15h36q10 0 13.5 -8.5t-3.5 -19.5l-267 -431l-47 -221q-2 -8 -9 -14t-15 -6h-26q-8 0 -13 6t-3 14l47 220l-85 432q-2 11 5 19.5t17 8.5h28q13 0 16 -15z" />
    <glyph glyph-name="Z" unicode="Z" horiz-adv-x="482" 
d="M96 75q-3 -4 -2 -7t6 -3h307q8 0 13 -6t3 -14l-6 -25q-2 -8 -9 -14t-15 -6h-381q-8 0 -13 6t-3 14l9 41q3 8 9 16l435 549q3 4 2 7t-6 3h-289q-8 0 -12.5 6t-2.5 14l5 24q2 8 9 14t15 6h352q8 0 13 -6t3 -14l-10 -44q-1 -8 -8 -16z" />
    <glyph glyph-name="bracketleft" unicode="[" horiz-adv-x="292" 
d="M83 -24q-2 -10 8 -10h126q8 0 13 -6t3 -14l-3 -16q-2 -8 -9.5 -14t-15.5 -6h-172q-8 0 -12 6t-2 14l162 770q2 8 9.5 14t15.5 6h170q8 0 12.5 -6t2.5 -14l-3 -16q-2 -8 -9 -14t-15 -6h-124q-10 0 -12 -10z" />
    <glyph glyph-name="backslash" unicode="\" horiz-adv-x="458" 
d="M163 682q-2 11 5 19.5t17 8.5h14q13 0 16 -15l142 -679q2 -11 -5 -19.5t-17 -8.5h-14q-15 0 -18 15z" />
    <glyph glyph-name="bracketright" unicode="]" horiz-adv-x="292" 
d="M267 654q2 10 -8 10h-124q-8 0 -13 6t-3 14l3 16q2 8 9.5 14t15.5 6h170q8 0 12.5 -6t2.5 -14l-163 -770q-2 -8 -9.5 -14t-15.5 -6h-171q-8 0 -12.5 6t-2.5 14l3 16q2 8 9 14t15 6h125q10 0 12 10z" />
    <glyph glyph-name="asciicircum" unicode="^" horiz-adv-x="508" 
d="M274 601q-5 -5 -14 -10.5t-20 -5.5h-47q-10 0 -11 8t5 13l141 112q6 5 12.5 8.5t20.5 3.5h22q13 0 18 -3.5t8 -8.5l95 -112q3 -5 -1.5 -13t-14.5 -8h-39q-11 0 -17.5 5.5t-10.5 10.5l-53 65q-6 7 -14 0z" />
    <glyph glyph-name="underscore" unicode="_" horiz-adv-x="610" 
d="M530 0q8 0 13 -6t3 -14l-5 -19q-2 -8 -9 -14t-15 -6h-530q-8 0 -13 6t-3 14l5 19q2 8 9 14t15 6h530z" />
    <glyph glyph-name="grave" unicode="`" horiz-adv-x="297" 
d="M239 730q11 0 15.5 -5.5t7.5 -10.5l52 -109q3 -5 -2.5 -12.5t-15.5 -7.5h-19q-14 0 -19 3.5t-8 8.5l-85 112q-3 5 1.5 13t14.5 8h58z" />
    <glyph glyph-name="a" unicode="a" 
d="M398 330q0 53 -27 87t-75 34q-41 0 -76 -20t-61 -55t-41 -83.5t-15 -106.5q0 -28 8 -53t23 -43.5t35.5 -29t44.5 -10.5q49 0 84 28t57 70t32.5 91t10.5 91zM336 40q-6 0 -14.5 -8t-23.5 -17t-37.5 -17t-54.5 -8q-34 0 -63.5 14t-51.5 39.5t-35 61.5t-13 81
q0 60 18.5 117.5t51.5 103.5t80 74t104 28q42 0 68 -14.5t39 -31.5q4 -5 7 -9t8 -4q6 0 10 8l13 32q2 6 7 8t10 2h21q8 0 13 -6t3 -14l-99 -460q-2 -8 -9 -14t-15 -6h-15q-9 0 -14 7q-2 3 -2 8.5v11t-1 9.5t-5 4z" />
    <glyph glyph-name="b" unicode="b" horiz-adv-x="483" 
d="M150 320q-9 -31 -17 -70t-12 -70q-2 -20 0 -43t12 -42.5t30 -32.5t53 -13q41 0 69 13t46.5 32.5t29 42.5t17.5 43q10 31 18 70t11 70q2 20 -1 43t-14 42.5t-33 32.5t-58 13q-33 0 -58.5 -13t-44 -32.5t-30.5 -42.5t-18 -43zM216 -10q-28 0 -45.5 5t-29.5 11.5t-21 11.5
t-20 5q-9 0 -15.5 -5.5t-11.5 -10.5q-9 -7 -16 -7h-16q-8 0 -12.5 6t-2.5 14l141 667q2 8 9.5 14t15.5 6h19q8 0 12.5 -6t2.5 -14l-38 -181q-2 -7 2.5 -14t15.5 -7q7 0 16 4t20 8.5t25.5 8.5t33.5 4q46 0 80 -15t55 -40.5t29.5 -60.5t2.5 -74q-4 -30 -12.5 -70t-16.5 -70
q-12 -39 -29.5 -74t-44 -60.5t-63.5 -40.5t-86 -15z" />
    <glyph glyph-name="c" unicode="c" horiz-adv-x="474" 
d="M374 163q2 10 9 13.5t14 3.5h21q8 0 12.5 -6t2.5 -14q-7 -34 -25 -64.5t-45 -54t-62.5 -37.5t-78.5 -14q-50 0 -85.5 15t-57 40.5t-29.5 60.5t-2 74q4 30 12.5 70t16.5 70q12 39 32.5 74t49.5 60.5t66 40.5t82 15q42 0 75.5 -14t56 -37.5t31.5 -54t2 -64.5q-2 -8 -8 -14
t-14 -6h-23q-7 0 -12 4t-3 12q5 22 0.5 43t-17.5 37t-35 25.5t-53 9.5q-41 0 -70 -13t-49 -32.5t-32 -42.5t-18 -43q-9 -31 -17.5 -70t-11.5 -70q-3 -20 0.5 -43t16 -42.5t35.5 -32.5t61 -13q37 0 64 10.5t45 27t28.5 36.5t14.5 40z" />
    <glyph glyph-name="d" unicode="d" horiz-adv-x="491" 
d="M137 320q-10 -31 -18.5 -70t-10.5 -70q-2 -20 0.5 -43t13.5 -42.5t33 -32.5t59 -13q33 0 58.5 13t44 32.5t30.5 42.5t18 43q9 31 17.5 70t11.5 70q3 20 1 43t-12.5 42.5t-30.5 32.5t-53 13q-36 0 -63.5 -13t-47 -32.5t-32 -42.5t-19.5 -43zM210 -10q-43 0 -75.5 15
t-54 40.5t-30 60.5t-3.5 74q4 30 12.5 70t16.5 70q12 39 32 74t48.5 60.5t64 40.5t78.5 15q21 0 37.5 -5.5t30 -11.5t24 -11.5t19.5 -5.5q19 0 24 23l40 188q2 8 9.5 14t15.5 6h19q8 0 12.5 -6t2.5 -14l-141 -667q-2 -8 -9.5 -14t-15.5 -6h-16q-9 0 -12 7q-3 5 -7.5 10.5
t-13.5 5.5q-11 0 -20 -5t-20.5 -11.5t-27.5 -11.5t-40 -5z" />
    <glyph glyph-name="e" unicode="e" horiz-adv-x="496" 
d="M305 451q-67 0 -112.5 -41t-62.5 -118q-2 -10 8 -10h270q10 0 12 10q17 77 -11.5 118t-103.5 41zM124 226q-9 0 -12 -10q-8 -36 -4 -66.5t19.5 -53t42 -35t65.5 -12.5q31 0 53.5 8t39.5 21.5t29 30t21 34.5q5 10 12 13.5t14 3.5h20q8 0 12.5 -4.5t0.5 -15.5
q-11 -33 -31 -60.5t-47.5 -47.5t-61.5 -31t-73 -11q-45 0 -80.5 15t-58.5 40.5t-33.5 60.5t-4.5 74q4 30 12.5 70t16.5 70q12 39 33 74t50.5 60.5t67.5 40.5t83 15q58 0 94.5 -19t55.5 -50t22 -70.5t-6 -80.5l-10 -44q-2 -8 -9.5 -14t-15.5 -6h-317z" />
    <glyph glyph-name="f" unicode="f" horiz-adv-x="314" 
d="M374 651q-32 0 -54 -7t-38 -22.5t-26.5 -40.5t-19.5 -61l-3 -15q-3 -10 8 -10h114q8 0 12.5 -6t2.5 -14l-4 -19q-2 -8 -9 -14t-15 -6h-114q-10 0 -12 -10l-86 -406q-2 -8 -9.5 -14t-15.5 -6h-20q-8 0 -12.5 6t-2.5 14l86 406q2 10 -8 10h-87q-8 0 -13 6t-3 14l4 19
q2 8 9.5 14t15.5 6h87q9 0 12 10l3 15q13 54 32 89.5t44.5 57.5t59 31t74.5 9h5q8 0 12.5 -6t2.5 -14l-3 -16q-2 -8 -9 -14t-15 -6h-5z" />
    <glyph glyph-name="g" unicode="g" horiz-adv-x="493" 
d="M371 180q9 31 17 70t12 70q2 20 0 43t-12 42.5t-30 32.5t-53 13q-41 0 -69 -13t-46.5 -32.5t-29 -42.5t-17.5 -43q-10 -31 -18 -70t-11 -70q-2 -20 0.5 -43t14 -42.5t33.5 -32.5t58 -13q33 0 58.5 13t44 32.5t30.5 42.5t18 43zM305 510q28 0 45.5 -5t29.5 -11.5t21 -11.5
t20 -5q9 0 15.5 5.5t11.5 10.5q9 7 16 7h16q8 0 12.5 -6t2.5 -14l-108 -510q-19 -90 -73.5 -135t-129.5 -45q-35 0 -64.5 10t-51 28t-33.5 43.5t-12 55.5q0 23 23 23h14q16 0 18 -6t4 -14q5 -32 29.5 -56.5t72.5 -24.5q60 0 96 32t48 89l5 24q2 7 -2.5 14t-15.5 7
q-8 0 -16.5 -4t-20 -8.5t-25.5 -8.5t-33 -4q-46 0 -80 15t-55 40.5t-29.5 60.5t-2.5 74q4 30 12.5 70t16.5 70q12 39 29.5 74t44 60.5t63 40.5t86.5 15z" />
    <glyph glyph-name="h" unicode="h" horiz-adv-x="478" 
d="M396 336q11 51 -16.5 83t-81.5 32q-27 0 -51 -8.5t-43.5 -23.5t-32.5 -35t-18 -43l-68 -321q-2 -8 -9.5 -14t-15.5 -6h-19q-8 0 -12.5 6t-2.5 14l141 667q2 8 9.5 14t15.5 6h19q8 0 12.5 -6t2.5 -14l-38 -181q-2 -7 2 -14t15 -7q7 0 16 4t20.5 8.5t27.5 8.5t37 4
q37 0 68 -13t51.5 -36.5t29 -55.5t0.5 -69l-67 -316q-2 -8 -9.5 -14t-15.5 -6h-19q-8 0 -12.5 6t-2.5 14z" />
    <glyph glyph-name="i" unicode="i" horiz-adv-x="197" 
d="M228 638q-4 -16 -19 -16h-52q-7 0 -11 4.5t-2 11.5l11 53q2 6 7.5 11t12.5 5h52q7 0 10.5 -5t1.5 -11zM123 480q2 8 9.5 14t15.5 6h20q8 0 12.5 -6t2.5 -14l-97 -460q-2 -8 -9.5 -14t-15.5 -6h-20q-8 0 -12.5 6t-2.5 14z" />
    <glyph glyph-name="j" unicode="j" horiz-adv-x="216" 
d="M142 480q2 8 9 14t15 6h20q8 0 13 -6t3 -14l-109 -510q-20 -96 -68 -138t-136 -42h-42q-8 0 -13 6t-3 14l4 19q2 8 9.5 14t15.5 6h42q21 0 41.5 5.5t37.5 19t30.5 37t21.5 59.5zM247 638q-4 -16 -19 -16h-52q-7 0 -11 4.5t-2 11.5l12 53q1 6 6.5 11t12.5 5h52q7 0 11 -5
t2 -11z" />
    <glyph glyph-name="k" unicode="k" horiz-adv-x="398" 
d="M193 278q-14 -11 -5 -24l163 -221q8 -10 3.5 -21.5t-22.5 -11.5h-22q-11 0 -17.5 5.5t-8.5 9.5l-149 205q-2 2 -5 2t-4 -4l-41 -198q-2 -8 -9.5 -14t-15.5 -6h-19q-8 0 -12.5 6t-2.5 14l141 667q2 8 9.5 14t15.5 6h19q8 0 12.5 -6t2.5 -14l-77 -364q-1 -4 1.5 -4.5
t5.5 2.5l209 166q5 4 12.5 8.5t18.5 4.5h24q14 0 17.5 -11.5t-6.5 -19.5z" />
    <glyph glyph-name="l" unicode="l" horiz-adv-x="185" 
d="M86 20q-2 -8 -9.5 -14t-15.5 -6h-20q-8 0 -12.5 6t-2.5 14l141 667q2 8 9.5 14t15.5 6h20q8 0 12.5 -6t2.5 -14z" />
    <glyph glyph-name="m" unicode="m" horiz-adv-x="746" 
d="M662 336q11 56 -12.5 85.5t-73.5 29.5q-23 0 -46 -9t-42 -24.5t-33 -36.5t-19 -45l-67 -316q-2 -8 -9.5 -14t-15.5 -6h-18q-8 0 -12.5 6t-2.5 14l67 316q4 19 0 39.5t-15.5 37.5t-30.5 27.5t-46 10.5q-47 0 -84.5 -30.5t-48.5 -79.5l-68 -321q-2 -8 -9.5 -14t-15.5 -6
h-19q-8 0 -12.5 6t-2.5 14l97 460q2 8 9.5 14t15.5 6h16q7 0 12 -7q4 -5 8.5 -10.5t13.5 -5.5q12 0 21 5t20 11.5t25.5 11.5t37.5 5q22 0 40 -5t32.5 -12.5t25 -15.5t17.5 -15q10 -9 18 -9t21 9q10 7 21 15t26 15.5t34.5 12.5t46.5 5q39 0 68.5 -13t47.5 -36.5t23.5 -55.5
t-2.5 -69l-67 -316q-2 -8 -9.5 -14t-15.5 -6h-19q-8 0 -12.5 6t-2.5 14z" />
    <glyph glyph-name="n" unicode="n" 
d="M406 336q7 31 1.5 53t-19.5 36t-36 20t-49 6q-54 0 -95.5 -25t-54.5 -85l-68 -321q-2 -8 -9.5 -14t-15.5 -6h-19q-8 0 -12.5 6t-2.5 14l97 460q2 8 9.5 14t15.5 6h16q7 0 12 -7q4 -5 8 -10.5t13 -5.5q11 0 20.5 5t21.5 11.5t28.5 11.5t40.5 5q39 0 72 -11t55 -33
t30.5 -54.5t-0.5 -75.5l-67 -316q-2 -8 -9.5 -14t-15.5 -6h-19q-8 0 -12.5 6t-2.5 14z" />
    <glyph glyph-name="o" unicode="o" horiz-adv-x="496" 
d="M138 320q-9 -31 -17.5 -70t-11.5 -70q-3 -20 0.5 -43t16 -42.5t35.5 -32.5t61 -13q40 0 69 13t49 32.5t32.5 42.5t18.5 43q9 31 17.5 70t11.5 70q3 20 -0.5 43t-16 42.5t-36 32.5t-60.5 13q-40 0 -69 -13t-49 -32.5t-32.5 -42.5t-18.5 -43zM48 180q4 30 12.5 70t16.5 70
q12 39 32.5 74t49.5 60.5t66 40.5t82 15t80 -15t57.5 -40.5t32.5 -60.5t4 -74q-4 -30 -12.5 -70t-16.5 -70q-12 -39 -32.5 -74t-49.5 -60.5t-66 -40.5t-82 -15t-80 15t-57.5 40.5t-32.5 60.5t-4 74z" />
    <glyph glyph-name="p" unicode="p" horiz-adv-x="485" 
d="M381 180q10 31 18 70t11 70q2 20 -0.5 43t-14 42.5t-33 32.5t-58.5 13q-33 0 -58.5 -13t-44 -32.5t-30.5 -42.5t-18 -43q-9 -31 -17 -70t-12 -70q-2 -20 0 -43t12 -42.5t30 -32.5t53 -13q36 0 63.5 13t47 32.5t32 42.5t19.5 43zM308 510q43 0 75.5 -15t54 -40.5t30 -60.5
t3.5 -74q-4 -30 -12.5 -70t-16.5 -70q-12 -39 -32 -74t-48.5 -60.5t-64 -40.5t-78.5 -15q-24 0 -41 5t-29.5 11t-22 11t-16.5 5q-21 0 -26 -21l-39 -181q-2 -8 -9.5 -14t-15.5 -6h-19q-8 0 -12.5 6t-2.5 14l140 660q2 8 9.5 14t15.5 6h16q7 0 12 -7q4 -5 8 -10.5t13 -5.5
q11 0 20 5t20.5 11.5t27.5 11.5t40 5z" />
    <glyph glyph-name="q" unicode="q" horiz-adv-x="488" 
d="M366 180q9 31 17 70t12 70q2 20 0 43t-12 42.5t-30 32.5t-53 13q-41 0 -69 -13t-46.5 -32.5t-29 -42.5t-17.5 -43q-10 -31 -18 -70t-11 -70q-2 -20 0.5 -43t14 -42.5t33.5 -32.5t58 -13q33 0 58.5 13t44 32.5t30.5 42.5t18 43zM300 510q28 0 45.5 -5t29.5 -11.5t21 -11.5
t20 -5q9 0 15.5 5.5t11.5 10.5q9 7 16 7h16q8 0 12.5 -6t2.5 -14l-140 -660q-2 -8 -9.5 -14t-15.5 -6h-19q-8 0 -12.5 6t-2.5 14l37 174q2 7 -1.5 14t-16.5 7q-8 0 -16.5 -4t-20 -8.5t-25.5 -8.5t-33 -4q-46 0 -80 15t-55 40.5t-29.5 60.5t-2.5 74q4 30 12.5 70t16.5 70
q12 39 29.5 74t44 60.5t63 40.5t86.5 15z" />
    <glyph glyph-name="r" unicode="r" horiz-adv-x="302" 
d="M332 442q-30 0 -59.5 -6.5t-55.5 -25.5t-46.5 -52.5t-32.5 -87.5l-53 -250q-2 -8 -9.5 -14t-15.5 -6h-19q-8 0 -12.5 6t-2.5 14l97 460q2 8 8 14t14 6h11q15 0 15 -20v-22.5t11 -12.5q5 0 13 8.5t25.5 19t47 19t77.5 8.5h1q8 0 12.5 -6t2.5 -14l-4 -22q-3 -16 -24 -16h-1
z" />
    <glyph glyph-name="s" unicode="s" horiz-adv-x="451" 
d="M379 361q8 37 -16.5 65t-77.5 28q-26 0 -50 -6.5t-43 -18t-30 -28t-11 -36.5q0 -22 13 -35t32 -20.5t40.5 -11t39.5 -6.5q27 -5 52 -14t44.5 -24t31 -37t11.5 -52q0 -40 -17.5 -72t-47 -55t-66.5 -35.5t-76 -12.5q-40 0 -75.5 11t-61 33t-37.5 54.5t-4 74.5q2 8 9 14
t15 6h19q8 0 13 -6t3 -14q-5 -29 2 -50.5t23.5 -36t40.5 -22t53 -7.5t55 8.5t45.5 24t31 36t11.5 44.5q0 26 -13.5 40.5t-34 22.5t-43 11.5t-40.5 7.5q-27 6 -51 14.5t-42 23t-28.5 35t-10.5 50.5q0 27 15 53.5t41.5 46.5t62.5 32.5t78 12.5q34 0 65 -10t53 -29.5t32 -47.5
t3 -63q-2 -8 -9 -14t-15 -6h-19q-8 0 -13 6t-3 15z" />
    <glyph glyph-name="t" unicode="t" horiz-adv-x="341" 
d="M366 495q8 0 13 -6t3 -14l-4 -19q-2 -8 -9 -14t-15 -6h-126q-10 0 -12 -10l-57 -266q-11 -53 4 -78.5t69 -25.5h51q8 0 13 -6t3 -14l-4 -16q-2 -8 -9 -14t-15 -6h-51q-75 0 -106.5 39t-14.5 121l57 266q2 10 -8 10h-81q-8 0 -13 6t-3 14l4 19q2 8 9 14t15 6h81
q10 0 13 10l33 155q2 8 9 14t15 6h20q8 0 13 -6t3 -14l-33 -155q-3 -10 7 -10h126z" />
    <glyph glyph-name="u" unicode="u" horiz-adv-x="491" 
d="M115 164q-7 -32 -2 -53.5t19.5 -35.5t36.5 -20t49 -6q54 0 95.5 25t54.5 85l68 321q2 8 9.5 14t15.5 6h19q8 0 12.5 -6t2.5 -14l-97 -460q-2 -8 -9.5 -14t-15.5 -6h-16q-7 0 -12 7q-4 5 -8 10.5t-13 5.5q-11 0 -20.5 -5t-21.5 -11.5t-28.5 -11.5t-40.5 -5q-39 0 -72 11
t-55 33t-30.5 54.5t0.5 75.5l67 316q2 8 9.5 14t15.5 6h19q8 0 12.5 -6t2.5 -14z" />
    <glyph glyph-name="v" unicode="v" horiz-adv-x="467" 
d="M454 485q10 15 23 15h28q12 0 15.5 -7.5t-1.5 -15.5l-275 -462q-11 -15 -23 -15h-51q-12 0 -15 15l-79 462q-2 8 5 15.5t19 7.5h24q12 0 15 -15l64 -405q1 -5 6.5 -5t8.5 5z" />
    <glyph glyph-name="w" unicode="w" horiz-adv-x="636" 
d="M163 126q0 -6 5 -6t8 6l170 359q8 15 23 15h36q14 0 15 -15l18 -359q0 -6 5 -6t8 6l176 359q8 15 23 15h20q12 0 15 -7.5t-1 -15.5l-234 -462q-9 -15 -23 -15h-23q-15 0 -15 15l-20 381q0 3 -3 3t-5 -3l-182 -381q-9 -15 -23 -15h-23q-15 0 -15 15l-38 462q-1 8 5.5 15.5
t18.5 7.5h17q15 0 15 -15z" />
    <glyph glyph-name="x" unicode="x" horiz-adv-x="434" 
d="M232 200q-3 6 -8 0l-162 -190q-3 -4 -8 -7t-16 -3h-30q-14 0 -16.5 10.5t8.5 22.5l197 227q5 7 3 13l-101 194q-6 12 1.5 22.5t21.5 10.5h16q11 0 14.5 -3t5.5 -7l80 -165q4 -8 8 0l142 165q3 4 8 7t16 3h28q14 0 17 -10.5t-8 -22.5l-175 -194q-3 -4 -3 -6.5t2 -6.5
l120 -227q6 -12 -1.5 -22.5t-21.5 -10.5h-18q-11 0 -14.5 3t-5.5 7z" />
    <glyph glyph-name="y" unicode="y" horiz-adv-x="438" 
d="M155 24q4 7 3 13l-95 440q-2 8 5 15.5t19 7.5h23q13 0 16 -15l75 -368q1 -4 3.5 -4t4.5 4l213 368q8 15 22 15h33q12 0 15.5 -7.5t-1.5 -15.5l-356 -596q-26 -45 -60.5 -63t-76.5 -18h-22q-8 0 -13 6t-3 14l4 18q2 8 9.5 14t15.5 6h22q21 0 41.5 13t41.5 49z" />
    <glyph glyph-name="z" unicode="z" horiz-adv-x="458" 
d="M384 432q4 4 3 7t-6 3h-266q-8 0 -12.5 6t-2.5 14l3 18q2 8 9.5 14t15.5 6h330q8 0 12.5 -6t2.5 -14l-6 -29q-3 -14 -11.5 -23.5t-16.5 -17.5l-343 -342q-4 -4 -3 -7t6 -3h275q8 0 12.5 -6t2.5 -14l-3 -18q-2 -8 -9.5 -14t-15.5 -6h-350q-8 0 -12 6t-2 14l6 25q2 10 5 15
t14 16z" />
    <glyph glyph-name="braceleft" unicode="{" horiz-adv-x="346" 
d="M272 -33q8 0 12.5 -6t2.5 -14l-3 -17q-2 -8 -9.5 -14t-15.5 -6h-22q-50 0 -84.5 17.5t-54 46.5t-25 67t3.5 79l30 140q2 8 -3 12.5t-11 7.5l-10 5q-7 3 -12.5 7.5t-3.5 12.5l7 30q2 8 9 12.5t15 7.5l12 5q8 3 14 7.5t8 12.5l28 130q13 54 31.5 93.5t47 65.5t70.5 38.5
t101 12.5h12q8 0 12.5 -6t2.5 -14l-3 -17q-2 -8 -9.5 -14t-15.5 -6h-12q-45 0 -75 -10.5t-50.5 -30t-32.5 -48t-20 -64.5l-27 -125q-3 -13 -9.5 -23.5t-15 -19t-16.5 -14t-13 -8.5q4 -3 10 -9t10.5 -14t7 -18.5t-0.5 -23.5l-29 -135q-7 -32 -3 -59.5t18 -48.5t39 -33t60 -12
h22z" />
    <glyph glyph-name="bar" unicode="|" horiz-adv-x="225" 
d="M78 -50q-2 -8 -9 -14t-15 -6h-15q-8 0 -13 6t-3 14l159 750q2 8 9 14t15 6h15q8 0 13 -6t3 -14z" />
    <glyph glyph-name="braceright" unicode="}" horiz-adv-x="346" 
d="M8 -33q38 0 67 7t50 24.5t35.5 47t24.5 74.5l29 135q3 13 9.5 23.5t15 18.5t16.5 14t14 9q-9 6 -21 22.5t-7 42.5l27 125q7 31 3 59t-18 49t-39 33t-60 12h-12q-8 0 -12.5 6t-2.5 14l3 17q2 8 9.5 14t15.5 6h12q49 0 83.5 -17.5t54.5 -46.5t25.5 -67t-3.5 -79l-28 -130
q-2 -8 3 -12.5t11 -7.5l10 -5q7 -3 12.5 -7.5t3.5 -12.5l-7 -30q-2 -8 -9 -12.5t-15 -7.5l-12 -5q-8 -3 -14 -7.5t-8 -12.5l-30 -140q-13 -61 -33 -101.5t-50 -64.5t-71 -34t-95 -10h-22q-8 0 -12.5 6t-2.5 14l3 17q2 8 9.5 14t15.5 6h22z" />
    <glyph glyph-name="asciitilde" unicode="~" horiz-adv-x="556" 
d="M156 248q-17 0 -36.5 -7.5t-30.5 -18.5q-10 -10 -20.5 -8t-7.5 17l6 24q3 13 12.5 24.5t23.5 19.5t31.5 12.5t36.5 4.5q39 0 62.5 -7t44.5 -15.5t45.5 -15.5t65.5 -7q17 0 36.5 7.5t30.5 18.5q10 10 20.5 8t7.5 -17l-6 -24q-3 -14 -12.5 -25t-23.5 -19t-31.5 -12.5
t-36.5 -4.5q-39 0 -63 7t-45 15.5t-45.5 15.5t-64.5 7z" />
    <glyph glyph-name="exclamdown" unicode="&#xa1;" horiz-adv-x="263" 
d="M74 -170q-2 -8 -9 -14t-15 -6h-20q-8 0 -13 6t-3 14l100 470q2 8 9.5 14t15.5 6h20q8 0 12.5 -6t2.5 -14zM137 494q4 16 20 16h62q16 0 12 -16l-13 -63q-2 -6 -7 -11t-12 -5h-62q-7 0 -11 5t-2 11z" />
    <glyph glyph-name="cent" unicode="&#xa2;" horiz-adv-x="478" 
d="M347 506q33 -7 58.5 -23t42 -38t22.5 -49t-1 -56q-2 -8 -8 -14t-14 -6h-23q-7 0 -12 4t-3 12q5 22 0.5 43t-17.5 37t-35 25.5t-53 9.5q-41 0 -70 -13t-49 -32.5t-32 -42.5t-18 -43q-9 -31 -17 -70t-12 -70q-2 -20 1 -43t15.5 -42.5t35.5 -32.5t61 -13q37 0 64 10.5t45 27
t28.5 36.5t14.5 40q2 10 9 13.5t14 3.5h21q8 0 12.5 -6t2.5 -14q-6 -30 -21 -57.5t-36.5 -50t-50.5 -38t-63 -21.5q-11 -2 -12 -10l-7 -33q-2 -8 -9.5 -14t-15.5 -6h-22q-8 0 -12.5 6t-2.5 14l7 33q1 9 -8 10q-39 6 -66 23t-43.5 41.5t-22 56t-0.5 66.5q4 30 12.5 70
t16.5 70q10 35 27.5 66.5t41.5 56t54.5 41.5t67.5 23q11 2 12 10l7 33q2 8 9.5 14t15.5 6h22q8 0 12.5 -6t2.5 -14l-7 -33q-2 -10 8 -11z" />
    <glyph glyph-name="sterling" unicode="&#xa3;" horiz-adv-x="525" 
d="M493 530q-2 -8 -9.5 -14t-15.5 -6h-23q-8 0 -12.5 6t-2.5 14l2 10q3 16 2.5 34.5t-8.5 34.5t-24.5 26.5t-44.5 10.5t-48 -10.5t-33.5 -26.5t-21.5 -34.5t-11 -34.5l-30 -142q-3 -10 8 -10h154q8 0 12.5 -6t2.5 -14l-4 -20q-2 -8 -9 -14t-15 -6h-154q-5 0 -8.5 -3.5
t-4.5 -8.5l-22 -106q-13 -54 -29 -86.5t-36 -51.5q-4 -3 -3 -5.5t6 -2.5h283q8 0 12.5 -6t2.5 -14l-5 -24q-2 -8 -9 -14t-15 -6h-393q-9 0 -14 6t-3 14l6 27q2 8 8.5 14t14.5 6h5q15 0 31 11t30 30.5t26 45.5t18 56l22 106q1 5 -0.5 8.5t-6.5 3.5h-60q-8 0 -13 6t-3 14l4 20
q2 8 9.5 14t15.5 6h60q9 0 12 10l30 142q7 35 23 66t38.5 54t52 36.5t64.5 13.5t64 -13.5t47.5 -36.5t26 -54t0.5 -66z" />
    <glyph glyph-name="currency" unicode="&#xa4;" horiz-adv-x="611" 
d="M414 134q-32 -20 -66.5 -31t-70.5 -11q-37 0 -67 11.5t-53 31.5l-88 -72q-8 -6 -15.5 -6t-12.5 6l-11 14q-5 6 -3.5 14t9.5 14l87 73q-10 17 -15.5 37t-5.5 43q0 57 20.5 100t53.5 78l-55 71q-5 6 -3.5 14t9.5 14l17 14q17 14 28 0l55 -71q32 21 68 33.5t74 12.5
q37 0 67 -12t53 -32l85 69q17 14 28 0l11 -14q5 -6 3.5 -14t-9.5 -14l-85 -70q10 -18 15.5 -37t5.5 -45q0 -54 -21.5 -99t-55.5 -80l56 -71q5 -6 3.5 -14t-9.5 -14l-17 -14q-8 -6 -15.5 -6t-12.5 6zM289 151q38 0 73 16t61.5 42.5t42.5 60.5t16 69q0 55 -35 90.5t-92 35.5
q-39 0 -74 -16.5t-62 -43t-42.5 -61t-15.5 -70.5q0 -53 35.5 -88t92.5 -35z" />
    <glyph glyph-name="yen" unicode="&#xa5;" horiz-adv-x="458" 
d="M325 345q-7 0 -10 -5l-18 -30q-3 -5 -2 -8.5t6 -3.5h96q8 0 13 -6t3 -14l-3 -16q-2 -8 -9 -14t-15 -6h-121q-10 0 -13 -10l-45 -212q-2 -8 -9 -14t-15 -6h-26q-8 0 -13 6t-3 14l45 212q3 10 -7 10h-123q-8 0 -13 6t-3 14l3 16q2 8 9 14t15 6h97q5 0 8.5 3.5t1.5 8.5
l-6 30q0 5 -8 5h-83q-8 0 -12.5 6t-2.5 14l3 16q2 8 9 14t15 6h55q5 0 8 3.5t2 8.5l-51 259q-2 11 5 19.5t17 8.5h28q13 0 16 -15l63 -357q1 -4 3.5 -4t4.5 4l213 357q8 15 22 15h36q10 0 13.5 -8.5t-3.5 -19.5l-160 -259q-2 -5 -1.5 -8.5t5.5 -3.5h54q8 0 13 -6t3 -14
l-3 -16q-2 -8 -9.5 -14t-15.5 -6h-82z" />
    <glyph glyph-name="brokenbar" unicode="&#xa6;" horiz-adv-x="218" 
d="M141 420q-2 -8 -9.5 -14t-15.5 -6h-22q-8 0 -12.5 6t-2.5 14l56 267q2 8 9.5 14t15.5 6h22q8 0 12.5 -6t2.5 -14zM56 20q-2 -8 -9.5 -14t-15.5 -6h-22q-8 0 -12 6t-2 14l55 267q2 8 9.5 14t15.5 6h22q8 0 12.5 -6t2.5 -14z" />
    <glyph glyph-name="section" unicode="&#xa7;" horiz-adv-x="530" 
d="M248 85q6 -7 16.5 -6.5t18.5 6.5q24 17 46 42.5t27 49.5q4 16 -0.5 39t-23.5 45l-117 132q-6 8 -16.5 7.5t-19.5 -7.5q-11 -9 -24 -19t-25 -21.5t-20.5 -23.5t-11.5 -25q-4 -17 1 -38t21 -39zM51 -61q-9 -46 12.5 -75t78.5 -29q24 0 44.5 8t35 21t22.5 30t8 36
q0 22 -6 42.5t-27 43.5l-118 128q-11 12 -22.5 25t-22 29t-17 35t-6.5 43q0 51 30 89.5t72 65.5q25 16 12 39q-7 12 -10.5 27t-3.5 28q0 43 15.5 77.5t41.5 59t60.5 37.5t72.5 13q36 0 65 -11.5t48.5 -32.5t26.5 -51t-1 -67l-6 -30q-2 -8 -9 -14t-15 -6h-21q-8 0 -13 6
t-3 14l6 30q4 19 2 37.5t-11.5 33t-26.5 23.5t-42 9t-47 -8.5t-38.5 -23.5t-26 -35.5t-9.5 -44.5q0 -20 8.5 -37.5t21.5 -31.5l137 -152q20 -22 36.5 -51t16.5 -61t-8.5 -57t-23 -44.5t-32.5 -34.5t-37 -28q-11 -8 -14 -17.5t3 -20.5q7 -11 9.5 -27.5t2.5 -28.5
q0 -39 -16 -71t-42.5 -54.5t-61 -35t-70.5 -12.5q-41 0 -70.5 13.5t-47.5 36t-24 51.5t0 61l8 41q2 8 9.5 14t15.5 6h21q8 0 12.5 -6t2.5 -14z" />
    <glyph glyph-name="dieresis" unicode="&#xa8;" horiz-adv-x="398" 
d="M205 638q-4 -16 -20 -16h-52q-16 0 -12 16l11 53q2 6 7.5 11t12.5 5h52q7 0 10.5 -5t1.5 -11zM376 638q-4 -16 -20 -16h-52q-16 0 -12 16l11 53q2 6 7.5 11t12.5 5h52q7 0 10.5 -5t1.5 -11z" />
    <glyph glyph-name="copyright" unicode="&#xa9;" horiz-adv-x="780" 
d="M72 350q16 75 54.5 139t93.5 111t122.5 73.5t141.5 26.5q72 0 132 -27.5t99.5 -75t55.5 -111.5t1 -136q-16 -72 -55 -136t-94.5 -111.5t-123.5 -75t-140 -27.5t-132 27.5t-99.5 75t-55 111.5t-0.5 136zM484 643q-65 0 -123.5 -22.5t-105.5 -61.5t-80.5 -92.5
t-46.5 -116.5q-13 -60 -1.5 -113.5t43 -93.5t80.5 -63.5t109 -23.5t118.5 23.5t107 63.5t83 93.5t47.5 113.5t1 113.5t-43.5 93.5t-80 63t-108.5 23zM556 274q-6 -29 -22 -54.5t-38.5 -44t-50.5 -29t-58 -10.5q-37 0 -65 12t-46.5 33t-26.5 49t-4 60q3 25 9.5 57t14.5 57
q10 31 26 59t38.5 49t52 33.5t66.5 12.5q34 0 61.5 -10.5t46 -29t26 -44t1.5 -54.5q-4 -16 -16 -16h-25q-6 0 -10.5 2.5t-2.5 9.5q3 16 -0.5 32t-14 28.5t-27.5 20t-39 7.5q-25 0 -46 -9.5t-37.5 -24.5t-27.5 -32.5t-16 -33.5q-8 -26 -14.5 -57t-9.5 -57q-2 -16 2 -33
t14.5 -30.5t27.5 -22t42 -8.5q45 0 76.5 24t38.5 57q2 8 7.5 10.5t11.5 2.5h23q16 0 12 -16z" />
    <glyph glyph-name="ordfeminine" unicode="&#xaa;" horiz-adv-x="317" 
d="M222 609q0 28 -12 39.5t-34 11.5q-37 0 -62 -29.5t-25 -81.5q0 -26 14 -41t36 -15t38 12t26 29.5t14.5 37.5t4.5 37zM191 472q-3 0 -7.5 -3.5t-12 -7.5t-18.5 -7.5t-27 -3.5q-34 0 -59 26.5t-25 71.5q0 30 9.5 58t27 49.5t41 35t52.5 13.5q20 0 33 -6t22 -14q6 -6 8 -6
q4 0 5 4l6 12q3 6 7 6h23q10 0 8 -10l-49 -225q-2 -10 -12 -10h-21q-5 0 -7 3t-0.5 8.5t-3.5 5.5z" />
    <glyph glyph-name="guillemotleft" unicode="&#xab;" horiz-adv-x="492" 
d="M218 435q3 4 10 9.5t18 5.5h19q14 0 18 -9t-9 -24l-116 -145q-6 -7 -7 -11.5t2 -12.5l54 -145q7 -15 -1 -24t-22 -9h-19q-11 0 -15.5 5.5t-6.5 9.5l-61 161q-3 8 -2.5 14t7.5 14zM380 435q3 4 10 9.5t18 5.5h19q14 0 18 -9t-9 -24l-116 -145q-6 -7 -7 -11.5t2 -12.5
l54 -145q7 -15 -1 -24t-22 -9h-19q-11 0 -15.5 5.5t-6.5 9.5l-61 161q-4 8 -3 14t8 14z" />
    <glyph glyph-name="logicalnot" unicode="&#xac;" horiz-adv-x="510" 
d="M401 230q2 10 -8 10h-340q-8 0 -13 6t-3 14l5 20q2 8 9 14t15 6h390q8 0 13 -6t3 -14l-37 -170q-2 -8 -9 -14t-15 -6h-20q-8 0 -13 6t-3 14z" />
    <glyph glyph-name="registered" unicode="&#xae;" horiz-adv-x="780" 
d="M72 350q16 75 54.5 139t93.5 111t122.5 73.5t141.5 26.5q72 0 132 -27.5t99.5 -75t55.5 -111.5t1 -136q-16 -72 -55 -136t-94.5 -111.5t-123.5 -75t-140 -27.5t-132 27.5t-99.5 75t-55 111.5t-0.5 136zM484 643q-65 0 -123.5 -22.5t-105.5 -61.5t-80.5 -92.5
t-46.5 -116.5q-13 -60 -1.5 -113.5t43 -93.5t80.5 -63.5t109 -23.5t118.5 23.5t107 63.5t83 93.5t47.5 113.5t1 113.5t-43.5 93.5t-80 63t-108.5 23zM445 344q15 0 32.5 8t32.5 22.5t24.5 33.5t9.5 41q0 31 -17.5 41t-48.5 10h-87q-7 0 -9 -8l-30 -140q-2 -8 6 -8h87z
M482 300q-4 -1 -11 -3t-2 -13l59 -114q5 -8 -1.5 -16t-18.5 -8h-18q-10 0 -12.5 4.5t-6.5 11.5l-58 117q-2 4 -4.5 7t-9.5 3h-52q-8 0 -10 -8l-25 -119q-4 -16 -20 -16h-23q-6 0 -10 4.5t-2 11.5l80 377q2 7 7.5 11.5t11.5 4.5h123q33 0 55.5 -8.5t36.5 -23t20.5 -33.5
t6.5 -40t-8 -44t-23 -44t-36.5 -38t-48.5 -24z" />
    <glyph glyph-name="macron" unicode="&#xaf;" horiz-adv-x="395" 
d="M326 694q8 0 13 -6t3 -14l-5 -20q-2 -8 -9 -14t-15 -6h-242q-8 0 -13 6t-3 14l5 20q2 8 9 14t15 6h242z" />
    <glyph glyph-name="degree" unicode="&#xb0;" horiz-adv-x="370" 
d="M18 557q0 35 13.5 67t37.5 56t56 38.5t68 14.5q25 0 49 -7t42.5 -21.5t29.5 -37.5t11 -55q0 -35 -13.5 -67t-37.5 -56t-56 -38.5t-68 -14.5q-25 0 -49 7t-42.5 21.5t-29.5 37.5t-11 55zM77 559q0 -29 19 -48t56 -19q53 0 83.5 34.5t30.5 83.5q0 29 -19 48.5t-56 19.5
q-26 0 -47 -9.5t-36 -25.5t-23 -38t-8 -46z" />
    <glyph glyph-name="plusminus" unicode="&#xb1;" horiz-adv-x="547" 
d="M84 388q-8 0 -13 6t-3 14l5 21q2 8 9 14t15 6h159q10 0 12 10l34 159q2 8 9 14t15 6h22q8 0 13 -6t3 -14l-34 -159q-2 -10 8 -10h159q8 0 13 -6t3 -14l-5 -21q-2 -8 -9 -14t-15 -6h-159q-10 0 -12 -10l-34 -160q-2 -8 -9 -14t-15 -6h-22q-8 0 -13 6t-3 14l34 160
q2 10 -8 10h-159zM414 70q8 0 12.5 -6t2.5 -14l-6 -30q-2 -8 -9 -14t-15 -6h-394q-8 0 -12.5 6t-2.5 14l5 30q2 8 9.5 14t15.5 6h394z" />
    <glyph glyph-name="acute" unicode="&#xb4;" horiz-adv-x="297" 
d="M237 730q10 0 11 -8t-5 -13l-131 -112q-6 -5 -12.5 -8.5t-20.5 -3.5h-19q-10 0 -12.5 7.5t2.5 12.5l100 109q5 5 11.5 10.5t17.5 5.5h58z" />
    <glyph glyph-name="uni00B5" unicode="&#xb5;" horiz-adv-x="525" 
d="M132 480q2 8 9 14t15 6h19q8 0 13 -6t3 -14l-68 -316q-6 -32 -1 -53.5t19 -35.5t36 -20t49 -6t52 8.5t45 23.5t34 35t19 43l69 321q2 8 9 14t15 6h19q8 0 13 -6t3 -14l-98 -460q-2 -8 -9 -14t-15 -6h-16q-8 0 -13 7q-3 5 -6 10.5t-14 5.5t-20 -5t-21 -11.5t-30.5 -11.5
t-48.5 -5q-17 0 -32 4t-27.5 8.5t-22.5 8.5t-17 4q-14 0 -19.5 -7t-7.5 -14l-37 -174q-2 -8 -9 -14t-15 -6h-19q-8 0 -12.5 6t-2.5 14z" />
    <glyph glyph-name="paragraph" unicode="&#xb6;" horiz-adv-x="550" 
d="M222 360q-28 0 -51.5 10t-40.5 28t-26.5 42t-9.5 51q0 41 18 78.5t47 66.5t67 46.5t79 17.5h198q8 0 12.5 -6t2.5 -14l-161 -760q-2 -8 -9.5 -14t-15.5 -6h-14q-8 0 -12.5 6t-2.5 14l153 721q2 10 -8 10h-90q-10 0 -12 -10l-153 -721q-2 -8 -9.5 -14t-15.5 -6h-14
q-8 0 -12.5 6t-2.5 14l91 430q2 10 -8 10z" />
    <glyph glyph-name="periodcentered" unicode="&#xb7;" horiz-adv-x="426" 
d="M244 215q-2 -8 -9 -14t-15 -6h-100q-8 0 -13 6t-3 14l21 100q2 8 9 14t15 6h100q8 0 13 -6t3 -14z" />
    <glyph glyph-name="cedilla" unicode="&#xb8;" horiz-adv-x="326" 
d="M180 -45q10 0 12.5 -5.5t-0.5 -12.5l-54 -121q-7 -16 -22 -16h-37q-10 0 -13 5.5t1 12.5l64 121q7 16 22 16h27z" />
    <glyph glyph-name="ordmasculine" unicode="&#xba;" horiz-adv-x="331" 
d="M37 540q0 18 5 41.5t13 43.5q20 47 52.5 65t67.5 18q18 0 35.5 -5t32 -16t23.5 -27.5t9 -39.5q0 -20 -4 -45t-12 -43q-20 -46 -53 -65t-69 -19q-43 0 -71.5 23t-28.5 69zM139 490q25 0 44.5 14t28.5 34q10 23 13.5 43t1.5 41q-2 18 -14 30.5t-39 12.5q-26 0 -44 -12.5
t-27 -30.5q-11 -21 -14.5 -41t-4.5 -43q0 -20 14.5 -34t40.5 -14z" />
    <glyph glyph-name="guillemotright" unicode="&#xbb;" horiz-adv-x="492" 
d="M376 274q4 -8 3 -14t-8 -14l-131 -161q-3 -4 -10 -9.5t-18 -5.5h-19q-14 0 -17.5 9t8.5 24l116 145q6 8 7 12.5t-2 11.5l-54 145q-6 16 1.5 24.5t21.5 8.5h19q11 0 15.5 -5.5t6.5 -9.5zM214 274q4 -8 3 -14t-8 -14l-131 -161q-3 -4 -10 -9.5t-18 -5.5h-19q-14 0 -17.5 9
t8.5 24l116 145q6 8 7 12.5t-2 11.5l-54 145q-6 16 1.5 24.5t21.5 8.5h19q11 0 15.5 -5.5t6.5 -9.5z" />
    <glyph glyph-name="onequarter" unicode="&#xbc;" horiz-adv-x="659" 
d="M246 701q10 0 8 -10l-70 -330q-2 -10 -12 -10h-37q-10 0 -8 10l56 266q1 2 -0.5 3t-2.5 -1l-101 -75q-4 -3 -7.5 -1.5t-2.5 5.5l8 38q2 7 6.5 13t7.5 8l103 79q5 5 11 5h41zM57 15q-12 -15 -24 -15h-18q-10 0 -14 8.5t4 19.5l527 657q12 15 25 15h16q10 0 14 -9t-4 -19z
M409 117q4 0 6 5l31 147q1 2 -0.5 2.5t-3.5 -1.5l-121 -149q-3 -4 1 -4h87zM454 343q3 4 5 5.5t7 1.5h37q10 0 8 -10l-46 -218q-2 -5 4 -5h24q10 0 8 -10l-7 -32q-2 -10 -12 -10h-24q-6 0 -6 -5l-11 -50q-2 -10 -12 -10h-30q-10 0 -8 10l11 50q0 5 -4 5h-143q-10 0 -8 10
l7 32q1 5 4 9.5t8 9.5z" />
    <glyph glyph-name="onehalf" unicode="&#xbd;" horiz-adv-x="690" 
d="M194 696q5 5 11 5h41q10 0 8 -10l-70 -330q-3 -10 -12 -10h-37q-4 0 -7 2.5t-1 7.5l56 266q1 2 -0.5 3t-2.5 -1l-101 -75q-4 -3 -7.5 -1.5t-2.5 5.5l8 38q2 7 6.5 13t7.5 8zM505 266q0 21 -11 30t-31 9t-37.5 -14t-21.5 -34l-3 -12q-2 -10 -12 -10h-36q-10 0 -8 10l4 17
q4 20 15 37.5t27 30.5t35 20.5t39 7.5q41 0 68 -23t27 -65q0 -20 -7 -37.5t-18.5 -33t-25.5 -29.5t-29 -26l-96 -82q-2 -2 -2 -5t4 -3h129q10 0 8 -10l-7 -34q-2 -10 -12 -10h-210q-10 0 -8 10l7 34q2 6 4 8.5t4 4.5l156 132q20 17 34 37t14 40zM57 15q-12 -15 -24 -15h-18
q-10 0 -14 8.5t4 19.5l527 657q12 15 25 15h16q10 0 14 -9t-4 -19z" />
    <glyph glyph-name="threequarters" unicode="&#xbe;" horiz-adv-x="670" 
d="M56 15q-12 -15 -24 -15h-18q-10 0 -14 8.5t4 19.5l527 657q12 15 25 15h16q10 0 14 -9t-4 -19zM408 117q4 0 6 5l31 147q1 2 -0.5 2.5t-3.5 -1.5l-121 -149q-3 -4 1 -4h87zM453 343q3 4 5 5.5t7 1.5h37q10 0 8 -10l-46 -218q-2 -5 4 -5h24q10 0 8 -10l-7 -32
q-2 -10 -12 -10h-24q-6 0 -6 -5l-11 -50q-2 -10 -12 -10h-30q-10 0 -8 10l11 50q0 5 -4 5h-143q-10 0 -8 10l7 32q1 5 4 9.5t8 9.5zM76 448q-4 -21 10 -35t38 -14q30 0 51.5 18t21.5 47q0 44 -49 44h-6q-10 0 -8 10l7 32q2 10 12 10h6q10 0 21.5 4.5t21 13t15.5 19.5t6 23
q0 17 -9 28t-35 11q-24 0 -41 -13t-20 -34l-1 -7q-2 -10 -12 -10h-37q-10 0 -8 10l1 7q10 43 42 69.5t79 26.5q45 0 70.5 -23.5t25.5 -60.5q0 -30 -13.5 -50t-35.5 -34q-7 -4 -2 -9q15 -12 20.5 -29.5t5.5 -37.5q0 -26 -11 -47.5t-29 -37.5t-41 -25t-48 -9q-22 0 -43 8
t-36.5 22t-23.5 32.5t-3 40.5l1 3q2 10 12 10h38q10 0 8 -10z" />
    <glyph glyph-name="questiondown" unicode="&#xbf;" horiz-adv-x="475" 
d="M234 494q4 16 19 16h62q7 0 11 -4.5t2 -11.5l-14 -63q-2 -6 -7 -11t-12 -5h-62q-7 0 -11 5t-2 11zM34 -50q0 -38 28 -64t84 -26q28 0 51.5 10.5t40.5 28.5t29 42t18 52l2 7q2 8 9 14t15 6h20q8 0 13 -6t3 -14l-2 -7q-9 -40 -27.5 -75t-45.5 -60.5t-61 -40t-72 -14.5
q-36 0 -66.5 11t-52 30.5t-33.5 46.5t-12 59q0 29 7.5 51.5t20.5 41.5t30 35t35 32q8 7 28 21t41 31t38.5 34.5t20.5 32.5l15 71q2 8 9.5 14t15.5 6h20q8 0 12.5 -6t2.5 -14l-15 -71q-4 -20 -12 -35.5t-19 -25.5q-32 -30 -55 -46.5t-41 -31.5q-18 -14 -35 -27t-30.5 -28.5
t-21.5 -35.5t-8 -49z" />
    <glyph glyph-name="Agrave" unicode="&#xc0;" 
d="M367 260q11 0 11 11l-17 340q0 6 -3 6h-2q-2 0 -5 -6l-165 -340q-6 -11 5 -11h176zM385 184q-2 14 -16 14h-206q-14 0 -22 -14l-85 -169q-5 -15 -21 -15h-27q-12 0 -15.5 6.5t-0.5 13.5l332 665q7 15 22 15h50q16 0 16 -15l49 -665q0 -7 -6 -13.5t-18 -6.5h-25
q-16 0 -16 15zM349 895q11 0 15.5 -5.5t7.5 -10.5l52 -109q3 -5 -2.5 -12.5t-15.5 -7.5h-19q-14 0 -19 3.5t-8 8.5l-85 112q-3 5 1.5 13t14.5 8h58z" />
    <glyph glyph-name="Aacute" unicode="&#xc1;" 
d="M367 260q11 0 11 11l-17 340q0 6 -3 6h-2q-2 0 -5 -6l-165 -340q-6 -11 5 -11h176zM385 184q-2 14 -16 14h-206q-14 0 -22 -14l-85 -169q-5 -15 -21 -15h-27q-12 0 -15.5 6.5t-0.5 13.5l332 665q7 15 22 15h50q16 0 16 -15l49 -665q0 -7 -6 -13.5t-18 -6.5h-25
q-16 0 -16 15zM514 895q10 0 11 -8t-5 -13l-131 -112q-6 -5 -12.5 -8.5t-20.5 -3.5h-19q-10 0 -12.5 7.5t2.5 12.5l100 109q5 5 11.5 10.5t17.5 5.5h58z" />
    <glyph glyph-name="Acircumflex" unicode="&#xc2;" 
d="M367 260q11 0 11 11l-17 340q0 6 -3 6h-2q-2 0 -5 -6l-165 -340q-6 -11 5 -11h176zM385 184q-2 14 -16 14h-206q-14 0 -22 -14l-85 -169q-5 -15 -21 -15h-27q-12 0 -15.5 6.5t-0.5 13.5l332 665q7 15 22 15h50q16 0 16 -15l49 -665q0 -7 -6 -13.5t-18 -6.5h-25
q-16 0 -16 15zM325 766q-5 -5 -14 -10.5t-20 -5.5h-47q-10 0 -11 8t5 13l141 112q6 5 12.5 8.5t20.5 3.5h21q14 0 19 -3.5t8 -8.5l95 -112q4 -4 -1 -12.5t-15 -8.5h-39q-11 0 -17.5 5.5t-10.5 10.5l-53 65q-6 7 -14 0z" />
    <glyph glyph-name="Atilde" unicode="&#xc3;" 
d="M367 260q11 0 11 11l-17 340q0 6 -3 6h-2q-2 0 -5 -6l-165 -340q-6 -11 5 -11h176zM385 184q-2 14 -16 14h-206q-14 0 -22 -14l-85 -169q-5 -15 -21 -15h-27q-12 0 -15.5 6.5t-0.5 13.5l332 665q7 15 22 15h50q16 0 16 -15l49 -665q0 -7 -6 -13.5t-18 -6.5h-25
q-16 0 -16 15zM449 832q19 0 30.5 6.5t19.5 14.5t16.5 4t5.5 -18l-5 -24q-4 -20 -27.5 -35.5t-53.5 -15.5q-24 0 -38.5 4t-27.5 8.5t-28.5 8.5t-40.5 4q-17 0 -28.5 -5.5t-22.5 -15.5q-8 -7 -16.5 -3.5t-5.5 17.5l5 24q4 20 28 35.5t54 15.5q24 0 38.5 -4t27.5 -8.5t28 -8.5
t41 -4z" />
    <glyph glyph-name="Adieresis" unicode="&#xc4;" 
d="M367 260q11 0 11 11l-17 340q0 6 -3 6h-2q-2 0 -5 -6l-165 -340q-6 -11 5 -11h176zM385 184q-2 14 -16 14h-206q-14 0 -22 -14l-85 -169q-5 -15 -21 -15h-27q-12 0 -15.5 6.5t-0.5 13.5l332 665q7 15 22 15h50q16 0 16 -15l49 -665q0 -7 -6 -13.5t-18 -6.5h-25
q-16 0 -16 15zM344 778q-4 -16 -20 -16h-52q-16 0 -12 16l11 53q2 6 7.5 11t12.5 5h52q7 0 10.5 -5t1.5 -11zM515 778q-4 -16 -20 -16h-52q-16 0 -12 16l11 53q2 6 7.5 11t12.5 5h52q7 0 10.5 -5t1.5 -11z" />
    <glyph glyph-name="Aring" unicode="&#xc5;" 
d="M367 260q11 0 11 11l-17 340q0 6 -3 6h-2q-2 0 -5 -6l-165 -340q-6 -11 5 -11h176zM385 184q-2 14 -16 14h-206q-14 0 -22 -14l-85 -169q-5 -15 -21 -15h-27q-12 0 -15.5 6.5t-0.5 13.5l332 665q7 15 22 15h50q16 0 16 -15l49 -665q0 -7 -6 -13.5t-18 -6.5h-25
q-16 0 -16 15zM291 820q0 26 10.5 49.5t28 41.5t41 28.5t50.5 10.5q42 0 67.5 -27t25.5 -68q0 -24 -10.5 -47t-28.5 -40t-41 -27.5t-47 -10.5q-45 0 -70.5 25.5t-25.5 64.5zM346 828q0 -20 12.5 -32t32.5 -12q12 0 24 5t22 14t16 21.5t6 26.5q0 20 -12 32t-33 12
q-12 0 -24.5 -5t-22 -14t-15.5 -21t-6 -27z" />
    <glyph glyph-name="AE" unicode="&#xc6;" horiz-adv-x="715" 
d="M764 700q8 0 13 -6t3 -14l-5 -24q-2 -8 -9.5 -14t-15.5 -6h-259q-10 0 -12 -10l-48 -227q-2 -10 8 -10h248q8 0 13 -6t3 -14l-5 -23q-2 -8 -9.5 -14t-15.5 -6h-248q-9 0 -12 -10l-51 -242q-2 -10 8 -10h261q8 0 12.5 -6t2.5 -14l-5 -24q-2 -8 -9 -14t-15 -6h-315
q-8 0 -13 6t-3 14l36 168q2 10 -8 10h-174q-14 0 -22 -14l-85 -169q-5 -15 -21 -15h-25q-12 0 -15.5 6.5t-0.5 13.5l332 665q7 15 22 15h439zM342 636q-4 0 -7 -6l-172 -359q-6 -11 5 -11h159q10 0 12 10l76 356q2 10 -8 10h-65z" />
    <glyph glyph-name="Ccedilla" unicode="&#xc7;" horiz-adv-x="532" 
d="M560 496q-2 -8 -9.5 -14t-15.5 -6h-25q-8 0 -12.5 6t-2.5 14q5 28 0.5 55t-19.5 47.5t-41 33t-64 12.5q-40 0 -70.5 -12t-53 -32.5t-38 -46.5t-25.5 -53q-11 -31 -21.5 -70t-19 -80t-14.5 -80t-8 -70q-2 -22 2.5 -47t18 -46.5t38.5 -36t66 -14.5q49 0 82 14.5t54 36
t32.5 47.5t19.5 50q2 8 9.5 14t15.5 6h27q8 0 12.5 -6t2.5 -14q-32 -101 -92.5 -156.5t-162.5 -55.5q-45 0 -82 14.5t-62.5 41.5t-38.5 65.5t-9 86.5q2 30 8.5 69.5t15 81t18.5 80.5t21 69q15 41 37 78.5t53 66.5t71.5 46t92.5 17t90.5 -17.5t63 -46.5t33.5 -67.5t2 -80.5z
M239 -45q10 0 12.5 -5.5t-0.5 -12.5l-54 -121q-7 -16 -22 -16h-37q-10 0 -13 5.5t1 12.5l64 121q7 16 22 16h27z" />
    <glyph glyph-name="Egrave" unicode="&#xc8;" horiz-adv-x="455" 
d="M102 74q-2 -10 8 -10h261q8 0 12.5 -6t2.5 -14l-5 -24q-2 -8 -9 -14t-15 -6h-315q-8 0 -13 6t-3 14l141 660q2 8 9 14t15 6h313q8 0 13 -6t3 -14l-5 -24q-2 -8 -9.5 -14t-15.5 -6h-259q-10 0 -12 -10l-48 -227q-2 -10 8 -10h248q8 0 13 -6t3 -14l-5 -23q-2 -8 -9.5 -14
t-15.5 -6h-248q-9 0 -12 -10zM319 895q11 0 15.5 -5.5t7.5 -10.5l52 -109q3 -5 -2.5 -12.5t-15.5 -7.5h-19q-14 0 -19 3.5t-8 8.5l-85 112q-3 5 1.5 13t14.5 8h58z" />
    <glyph glyph-name="Eacute" unicode="&#xc9;" horiz-adv-x="455" 
d="M102 74q-2 -10 8 -10h261q8 0 12.5 -6t2.5 -14l-5 -24q-2 -8 -9 -14t-15 -6h-315q-8 0 -13 6t-3 14l141 660q2 8 9 14t15 6h313q8 0 13 -6t3 -14l-5 -24q-2 -8 -9.5 -14t-15.5 -6h-259q-10 0 -12 -10l-48 -227q-2 -10 8 -10h248q8 0 13 -6t3 -14l-5 -23q-2 -8 -9.5 -14
t-15.5 -6h-248q-9 0 -12 -10zM484 895q10 0 11 -8t-5 -13l-131 -112q-6 -5 -12.5 -8.5t-20.5 -3.5h-19q-10 0 -12.5 7.5t2.5 12.5l100 109q5 5 11.5 10.5t17.5 5.5h58z" />
    <glyph glyph-name="Ecircumflex" unicode="&#xca;" horiz-adv-x="455" 
d="M102 74q-2 -10 8 -10h261q8 0 12.5 -6t2.5 -14l-5 -24q-2 -8 -9 -14t-15 -6h-315q-8 0 -13 6t-3 14l141 660q2 8 9 14t15 6h313q8 0 13 -6t3 -14l-5 -24q-2 -8 -9.5 -14t-15.5 -6h-259q-10 0 -12 -10l-48 -227q-2 -10 8 -10h248q8 0 13 -6t3 -14l-5 -23q-2 -8 -9.5 -14
t-15.5 -6h-248q-9 0 -12 -10zM285 766q-5 -5 -14 -10.5t-20 -5.5h-47q-10 0 -11 8t5 13l141 112q6 5 12.5 8.5t20.5 3.5h21q14 0 19 -3.5t8 -8.5l95 -112q4 -4 -1 -12.5t-15 -8.5h-39q-11 0 -17.5 5.5t-10.5 10.5l-53 65q-6 7 -14 0z" />
    <glyph glyph-name="Edieresis" unicode="&#xcb;" horiz-adv-x="455" 
d="M102 74q-2 -10 8 -10h261q8 0 12.5 -6t2.5 -14l-5 -24q-2 -8 -9 -14t-15 -6h-315q-8 0 -13 6t-3 14l141 660q2 8 9 14t15 6h313q8 0 13 -6t3 -14l-5 -24q-2 -8 -9.5 -14t-15.5 -6h-259q-10 0 -12 -10l-48 -227q-2 -10 8 -10h248q8 0 13 -6t3 -14l-5 -23q-2 -8 -9.5 -14
t-15.5 -6h-248q-9 0 -12 -10zM344 778q-4 -16 -20 -16h-52q-16 0 -12 16l11 53q2 6 7.5 11t12.5 5h52q7 0 10.5 -5t1.5 -11zM515 778q-4 -16 -20 -16h-52q-16 0 -12 16l11 53q2 6 7.5 11t12.5 5h52q7 0 10.5 -5t1.5 -11z" />
    <glyph glyph-name="Igrave" unicode="&#xcc;" horiz-adv-x="189" 
d="M90 20q-2 -8 -9 -14t-15 -6h-24q-8 0 -13 6t-3 14l141 660q2 8 9 14t15 6h24q8 0 13 -6t3 -14zM178 895q11 0 15.5 -5.5t7.5 -10.5l52 -109q3 -5 -2.5 -12.5t-15.5 -7.5h-19q-14 0 -19 3.5t-8 8.5l-85 112q-3 5 1.5 13t14.5 8h58z" />
    <glyph glyph-name="Iacute" unicode="&#xcd;" horiz-adv-x="189" 
d="M90 20q-2 -8 -9 -14t-15 -6h-24q-8 0 -13 6t-3 14l141 660q2 8 9 14t15 6h24q8 0 13 -6t3 -14zM364 895q10 0 11 -8t-5 -13l-131 -112q-6 -5 -12.5 -8.5t-20.5 -3.5h-19q-10 0 -12.5 7.5t2.5 12.5l100 109q5 5 11.5 10.5t17.5 5.5h58z" />
    <glyph glyph-name="Icircumflex" unicode="&#xce;" horiz-adv-x="189" 
d="M90 20q-2 -8 -9 -14t-15 -6h-24q-8 0 -13 6t-3 14l141 660q2 8 9 14t15 6h24q8 0 13 -6t3 -14zM161 766q-5 -5 -14 -10.5t-20 -5.5h-47q-10 0 -11 8t5 13l141 112q6 5 12.5 8.5t20.5 3.5h21q14 0 19 -3.5t8 -8.5l95 -112q4 -4 -1 -12.5t-15 -8.5h-39q-11 0 -17.5 5.5
t-10.5 10.5l-53 65q-6 7 -14 0z" />
    <glyph glyph-name="Idieresis" unicode="&#xcf;" horiz-adv-x="189" 
d="M90 20q-2 -8 -9 -14t-15 -6h-24q-8 0 -13 6t-3 14l141 660q2 8 9 14t15 6h24q8 0 13 -6t3 -14zM176 778q-4 -16 -20 -16h-52q-16 0 -12 16l11 53q2 6 7.5 11t12.5 5h52q7 0 10.5 -5t1.5 -11zM347 778q-4 -16 -20 -16h-52q-16 0 -12 16l11 53q2 6 7.5 11t12.5 5h52
q7 0 10.5 -5t1.5 -11z" />
    <glyph glyph-name="Eth" unicode="&#xd0;" horiz-adv-x="534" 
d="M102 74q-2 -10 8 -10h123q46 0 78 13t53.5 33t34.5 44t21 46q11 31 21.5 70t19 80t14.5 80t8 70q2 27 -4 52t-21 43.5t-39.5 29.5t-60.5 11h-127q-10 0 -12 -10l-48 -227q-2 -10 8 -10h100q8 0 13 -6t3 -14l-5 -23q-2 -8 -9 -14t-15 -6h-100q-10 0 -12 -10zM167 680
q2 8 9 14t15 6h167q49 0 86.5 -16t62 -43t35.5 -63.5t8 -77.5q-2 -30 -8.5 -69t-15 -80.5t-19 -81t-20.5 -69.5q-34 -97 -96.5 -148.5t-157.5 -51.5h-191q-8 0 -13 6t-3 14l64 296q2 10 -8 10h-32q-8 0 -13 6t-3 14l5 23q2 8 9 14t15 6h32q10 0 12 10z" />
    <glyph glyph-name="Ntilde" unicode="&#xd1;" horiz-adv-x="525" 
d="M350 0q-8 0 -11.5 3.5t-5.5 13.5l-115 582q-1 3 -4.5 2.5t-4.5 -4.5l-123 -577q-2 -8 -9 -14t-15 -6h-20q-8 0 -13 6t-3 14l141 660q2 8 9 14t15 6h52q8 0 11.5 -3.5t5.5 -13.5l116 -580q1 -3 4.5 -2.5t4.5 4.5l122 575q2 8 6 14t12 6h26q8 0 13 -6t3 -14l-141 -660
q-2 -8 -9 -14t-15 -6h-52zM489 832q19 0 30.5 6.5t19.5 14.5t16.5 4t5.5 -18l-5 -24q-4 -20 -27.5 -35.5t-53.5 -15.5q-24 0 -38.5 4t-27.5 8.5t-28.5 8.5t-40.5 4q-17 0 -28.5 -5.5t-22.5 -15.5q-8 -7 -16.5 -3.5t-5.5 17.5l5 24q4 20 28 35.5t54 15.5q24 0 38.5 -4
t27.5 -8.5t28 -8.5t41 -4z" />
    <glyph glyph-name="Ograve" unicode="&#xd2;" horiz-adv-x="549" 
d="M246 56q46 0 78 14.5t53.5 36t34.5 46.5t21 47q11 31 21.5 70t19 80t14.5 80t8 70q2 27 -4 53t-21 46.5t-39.5 32.5t-60.5 12q-40 0 -70.5 -12t-53 -32.5t-38 -46.5t-25.5 -53q-11 -31 -21.5 -70t-19 -80t-14.5 -80t-8 -70q-2 -22 2 -47t18 -46.5t39 -36t66 -14.5z
M371 708q49 0 86.5 -17t62 -46t35.5 -66.5t8 -78.5q-2 -30 -8.5 -69t-15 -80.5t-19 -81t-20.5 -69.5q-34 -97 -96.5 -152.5t-157.5 -55.5q-45 0 -82 14.5t-63 41.5t-38.5 65.5t-8.5 86.5q2 30 8.5 69.5t15 81t18.5 80.5t21 69q15 41 37 78.5t53 66.5t71.5 46t92.5 17z
M349 895q11 0 15.5 -5.5t7.5 -10.5l52 -109q3 -5 -2.5 -12.5t-15.5 -7.5h-19q-14 0 -19 3.5t-8 8.5l-85 112q-3 5 1.5 13t14.5 8h58z" />
    <glyph glyph-name="Oacute" unicode="&#xd3;" horiz-adv-x="549" 
d="M246 56q46 0 78 14.5t53.5 36t34.5 46.5t21 47q11 31 21.5 70t19 80t14.5 80t8 70q2 27 -4 53t-21 46.5t-39.5 32.5t-60.5 12q-40 0 -70.5 -12t-53 -32.5t-38 -46.5t-25.5 -53q-11 -31 -21.5 -70t-19 -80t-14.5 -80t-8 -70q-2 -22 2 -47t18 -46.5t39 -36t66 -14.5z
M371 708q49 0 86.5 -17t62 -46t35.5 -66.5t8 -78.5q-2 -30 -8.5 -69t-15 -80.5t-19 -81t-20.5 -69.5q-34 -97 -96.5 -152.5t-157.5 -55.5q-45 0 -82 14.5t-63 41.5t-38.5 65.5t-8.5 86.5q2 30 8.5 69.5t15 81t18.5 80.5t21 69q15 41 37 78.5t53 66.5t71.5 46t92.5 17z
M554 895q10 0 11 -8t-5 -13l-131 -112q-6 -5 -12.5 -8.5t-20.5 -3.5h-19q-10 0 -12.5 7.5t2.5 12.5l100 109q5 5 11.5 10.5t17.5 5.5h58z" />
    <glyph glyph-name="Ocircumflex" unicode="&#xd4;" horiz-adv-x="549" 
d="M246 56q46 0 78 14.5t53.5 36t34.5 46.5t21 47q11 31 21.5 70t19 80t14.5 80t8 70q2 27 -4 53t-21 46.5t-39.5 32.5t-60.5 12q-40 0 -70.5 -12t-53 -32.5t-38 -46.5t-25.5 -53q-11 -31 -21.5 -70t-19 -80t-14.5 -80t-8 -70q-2 -22 2 -47t18 -46.5t39 -36t66 -14.5z
M371 708q49 0 86.5 -17t62 -46t35.5 -66.5t8 -78.5q-2 -30 -8.5 -69t-15 -80.5t-19 -81t-20.5 -69.5q-34 -97 -96.5 -152.5t-157.5 -55.5q-45 0 -82 14.5t-63 41.5t-38.5 65.5t-8.5 86.5q2 30 8.5 69.5t15 81t18.5 80.5t21 69q15 41 37 78.5t53 66.5t71.5 46t92.5 17z
M335 766q-5 -5 -14 -10.5t-20 -5.5h-47q-10 0 -11 8t5 13l141 112q6 5 12.5 8.5t20.5 3.5h21q14 0 19 -3.5t8 -8.5l95 -112q4 -4 -1 -12.5t-15 -8.5h-39q-11 0 -17.5 5.5t-10.5 10.5l-53 65q-6 7 -14 0z" />
    <glyph glyph-name="Otilde" unicode="&#xd5;" horiz-adv-x="549" 
d="M246 56q46 0 78 14.5t53.5 36t34.5 46.5t21 47q11 31 21.5 70t19 80t14.5 80t8 70q2 27 -4 53t-21 46.5t-39.5 32.5t-60.5 12q-40 0 -70.5 -12t-53 -32.5t-38 -46.5t-25.5 -53q-11 -31 -21.5 -70t-19 -80t-14.5 -80t-8 -70q-2 -22 2 -47t18 -46.5t39 -36t66 -14.5z
M371 708q49 0 86.5 -17t62 -46t35.5 -66.5t8 -78.5q-2 -30 -8.5 -69t-15 -80.5t-19 -81t-20.5 -69.5q-34 -97 -96.5 -152.5t-157.5 -55.5q-45 0 -82 14.5t-63 41.5t-38.5 65.5t-8.5 86.5q2 30 8.5 69.5t15 81t18.5 80.5t21 69q15 41 37 78.5t53 66.5t71.5 46t92.5 17z
M489 832q19 0 30.5 6.5t19.5 14.5t16.5 4t5.5 -18l-5 -24q-4 -20 -27.5 -35.5t-53.5 -15.5q-24 0 -38.5 4t-27.5 8.5t-28.5 8.5t-40.5 4q-17 0 -28.5 -5.5t-22.5 -15.5q-8 -7 -16.5 -3.5t-5.5 17.5l5 24q4 20 28 35.5t54 15.5q24 0 38.5 -4t27.5 -8.5t28 -8.5t41 -4z" />
    <glyph glyph-name="Odieresis" unicode="&#xd6;" horiz-adv-x="549" 
d="M246 56q46 0 78 14.5t53.5 36t34.5 46.5t21 47q11 31 21.5 70t19 80t14.5 80t8 70q2 27 -4 53t-21 46.5t-39.5 32.5t-60.5 12q-40 0 -70.5 -12t-53 -32.5t-38 -46.5t-25.5 -53q-11 -31 -21.5 -70t-19 -80t-14.5 -80t-8 -70q-2 -22 2 -47t18 -46.5t39 -36t66 -14.5z
M371 708q49 0 86.5 -17t62 -46t35.5 -66.5t8 -78.5q-2 -30 -8.5 -69t-15 -80.5t-19 -81t-20.5 -69.5q-34 -97 -96.5 -152.5t-157.5 -55.5q-45 0 -82 14.5t-63 41.5t-38.5 65.5t-8.5 86.5q2 30 8.5 69.5t15 81t18.5 80.5t21 69q15 41 37 78.5t53 66.5t71.5 46t92.5 17z
M354 778q-4 -16 -20 -16h-52q-16 0 -12 16l11 53q2 6 7.5 11t12.5 5h52q7 0 10.5 -5t1.5 -11zM525 778q-4 -16 -20 -16h-52q-16 0 -12 16l11 53q2 6 7.5 11t12.5 5h52q7 0 10.5 -5t1.5 -11z" />
    <glyph glyph-name="multiply" unicode="&#xd7;" 
d="M63 87q-8 -5 -16 -5t-12 5l-15 17q-5 6 -3 14.5t9 13.5l134 111q8 7 3 14l-90 115q-5 5 -3.5 13.5t9.5 14.5l16 13q8 6 16 6t12 -6l89 -112q5 -7 14 0l137 112q7 6 15 6t13 -6l15 -17q4 -5 2.5 -13.5t-8.5 -14.5l-136 -110q-8 -7 -3 -14l92 -117q5 -5 3.5 -13.5
t-9.5 -14.5l-16 -12q-8 -6 -16 -6t-12 6l-90 113q-5 7 -14 0z" />
    <glyph glyph-name="Oslash" unicode="&#xd8;" horiz-adv-x="562" 
d="M104 15q-11 -15 -23 -15h-24q-10 0 -15 7.5t2 17.5l29 42q4 5 3 7l-2 4q-30 50 -24 122q3 30 9 69.5t14.5 81t18.5 80.5t21 69q15 41 37 78.5t53 66.5t71.5 46t92.5 17q36 0 66.5 -10t53.5 -27l4 -2t6 5l7 11q10 15 22 15h26q10 0 14 -7t-3 -17l-30 -43q-4 -5 -3 -7l2 -4
q16 -26 23 -57.5t4 -64.5q-2 -30 -8.5 -69t-15 -80.5t-19 -81t-20.5 -69.5q-34 -97 -96.5 -152.5t-157.5 -55.5q-74 0 -123 36q-1 1 -3.5 1.5t-4.5 -3.5zM242 56q46 0 78 14.5t53.5 36t34.5 46.5t21 47q11 31 21.5 70t19 80t14.5 80t8 70q1 28 -5 55q-1 3 -3.5 3.5
t-5.5 -4.5l-322 -463q-3 -4 -1.5 -5.5l2.5 -2.5q15 -12 35.5 -19.5t49.5 -7.5zM367 644q-40 0 -70.5 -12t-53 -32.5t-38 -46.5t-25.5 -53q-11 -31 -22 -70t-20 -80t-15.5 -80t-8.5 -70q-2 -26 6 -55q2 -7 7 0l322 462q4 6 0 10q-27 27 -82 27z" />
    <glyph glyph-name="Ugrave" unicode="&#xd9;" horiz-adv-x="537" 
d="M526 680q2 8 9.5 14t15.5 6h24q8 0 12.5 -6t2.5 -14l-100 -473q-9 -45 -30.5 -84t-53 -68t-72.5 -46t-91 -17q-45 0 -82.5 17t-63 46t-36 68t-1.5 84l100 473q2 8 9.5 14t15.5 6h24q8 0 12.5 -6t2.5 -14l-100 -473q-6 -30 -0.5 -57.5t21.5 -48t41 -33t57 -12.5
q39 0 70 12.5t54 33t38 48t21 57.5zM359 895q11 0 15.5 -5.5t7.5 -10.5l52 -109q3 -5 -2.5 -12.5t-15.5 -7.5h-19q-14 0 -19 3.5t-8 8.5l-85 112q-3 5 1.5 13t14.5 8h58z" />
    <glyph glyph-name="Uacute" unicode="&#xda;" horiz-adv-x="537" 
d="M526 680q2 8 9.5 14t15.5 6h24q8 0 12.5 -6t2.5 -14l-100 -473q-9 -45 -30.5 -84t-53 -68t-72.5 -46t-91 -17q-45 0 -82.5 17t-63 46t-36 68t-1.5 84l100 473q2 8 9.5 14t15.5 6h24q8 0 12.5 -6t2.5 -14l-100 -473q-6 -30 -0.5 -57.5t21.5 -48t41 -33t57 -12.5
q39 0 70 12.5t54 33t38 48t21 57.5zM524 895q10 0 11 -8t-5 -13l-131 -112q-6 -5 -12.5 -8.5t-20.5 -3.5h-19q-10 0 -12.5 7.5t2.5 12.5l100 109q5 5 11.5 10.5t17.5 5.5h58z" />
    <glyph glyph-name="Ucircumflex" unicode="&#xdb;" horiz-adv-x="537" 
d="M526 680q2 8 9.5 14t15.5 6h24q8 0 12.5 -6t2.5 -14l-100 -473q-9 -45 -30.5 -84t-53 -68t-72.5 -46t-91 -17q-45 0 -82.5 17t-63 46t-36 68t-1.5 84l100 473q2 8 9.5 14t15.5 6h24q8 0 12.5 -6t2.5 -14l-100 -473q-6 -30 -0.5 -57.5t21.5 -48t41 -33t57 -12.5
q39 0 70 12.5t54 33t38 48t21 57.5zM325 766q-5 -5 -14 -10.5t-20 -5.5h-47q-10 0 -11 8t5 13l141 112q6 5 12.5 8.5t20.5 3.5h21q14 0 19 -3.5t8 -8.5l95 -112q4 -4 -1 -12.5t-15 -8.5h-39q-11 0 -17.5 5.5t-10.5 10.5l-53 65q-6 7 -14 0z" />
    <glyph glyph-name="Udieresis" unicode="&#xdc;" horiz-adv-x="537" 
d="M526 680q2 8 9.5 14t15.5 6h24q8 0 12.5 -6t2.5 -14l-100 -473q-9 -45 -30.5 -84t-53 -68t-72.5 -46t-91 -17q-45 0 -82.5 17t-63 46t-36 68t-1.5 84l100 473q2 8 9.5 14t15.5 6h24q8 0 12.5 -6t2.5 -14l-100 -473q-6 -30 -0.5 -57.5t21.5 -48t41 -33t57 -12.5
q39 0 70 12.5t54 33t38 48t21 57.5zM374 778q-4 -16 -20 -16h-52q-16 0 -12 16l11 53q2 6 7.5 11t12.5 5h52q7 0 10.5 -5t1.5 -11zM545 778q-4 -16 -20 -16h-52q-16 0 -12 16l11 53q2 6 7.5 11t12.5 5h52q7 0 10.5 -5t1.5 -11z" />
    <glyph glyph-name="Yacute" unicode="&#xdd;" horiz-adv-x="423" 
d="M231 328q1 -4 3.5 -4t4.5 4l213 357q8 15 22 15h36q10 0 13.5 -8.5t-3.5 -19.5l-267 -431l-47 -221q-2 -8 -9 -14t-15 -6h-26q-8 0 -13 6t-3 14l47 220l-85 432q-2 11 5 19.5t17 8.5h28q13 0 16 -15zM474 895q10 0 11 -8t-5 -13l-131 -112q-6 -5 -12.5 -8.5t-20.5 -3.5
h-19q-10 0 -12.5 7.5t2.5 12.5l100 109q5 5 11.5 10.5t17.5 5.5h58z" />
    <glyph glyph-name="Thorn" unicode="&#xde;" horiz-adv-x="522" 
d="M461 330q-11 -49 -35 -88t-57.5 -66t-75 -41.5t-86.5 -14.5h-116q-10 0 -13 -10l-19 -90q-2 -8 -9 -14t-15 -6h-24q-8 0 -13 6t-3 14l141 660q2 8 9 14t15 6h24q8 0 13 -6t3 -14l-17 -80q-3 -10 8 -10h116q37 0 71.5 -14t59 -41t35 -66t-0.5 -89zM408 380
q15 69 -17 107.5t-98 38.5h-116q-10 0 -12 -10l-69 -322q-2 -10 8 -10h116q31 0 60 10.5t52.5 29.5t40 46t24.5 60z" />
    <glyph glyph-name="germandbls" unicode="&#xdf;" horiz-adv-x="478" 
d="M185 0q-8 0 -13 6t-3 14l4 19q2 8 9.5 14t15.5 6h20q36 0 67.5 13t55 36.5t37 54.5t13.5 67q0 45 -28 75.5t-85 30.5h-7q-8 0 -12.5 6t-2.5 14l4 20q2 8 9 14t15 6h7q30 0 58 13.5t49.5 36.5t34 52.5t12.5 61.5q0 41 -25.5 66t-76.5 25q-28 0 -53 -10.5t-45 -29
t-33.5 -43t-19.5 -51.5l-106 -497q-2 -8 -9 -14t-15 -6h-21q-8 0 -13 6t-3 14l106 497q9 42 28 77.5t46 61t62 40t76 14.5q37 0 66.5 -11.5t50.5 -32t32.5 -48t11.5 -58.5q0 -60 -28.5 -107t-65.5 -77q-7 -5 -9.5 -11.5t3.5 -12.5q20 -21 34 -52.5t14 -64.5
q0 -54 -18.5 -97.5t-51.5 -74t-78.5 -47t-98.5 -16.5h-20z" />
    <glyph glyph-name="agrave" unicode="&#xe0;" 
d="M398 330q0 53 -27 87t-75 34q-41 0 -76 -20t-61 -55t-41 -83.5t-15 -106.5q0 -28 8 -53t23 -43.5t35.5 -29t44.5 -10.5q49 0 84 28t57 70t32.5 91t10.5 91zM336 40q-6 0 -14.5 -8t-23.5 -17t-37.5 -17t-54.5 -8q-34 0 -63.5 14t-51.5 39.5t-35 61.5t-13 81
q0 60 18.5 117.5t51.5 103.5t80 74t104 28q42 0 68 -14.5t39 -31.5q4 -5 7 -9t8 -4q6 0 10 8l13 32q2 6 7 8t10 2h21q8 0 13 -6t3 -14l-99 -460q-2 -8 -9 -14t-15 -6h-15q-9 0 -14 7q-2 3 -2 8.5v11t-1 9.5t-5 4zM317 730q11 0 15.5 -5.5t7.5 -10.5l52 -109q3 -5 -2.5 -12.5
t-15.5 -7.5h-19q-14 0 -19 3.5t-8 8.5l-85 112q-3 5 1.5 13t14.5 8h58z" />
    <glyph glyph-name="aacute" unicode="&#xe1;" 
d="M398 330q0 53 -27 87t-75 34q-41 0 -76 -20t-61 -55t-41 -83.5t-15 -106.5q0 -28 8 -53t23 -43.5t35.5 -29t44.5 -10.5q49 0 84 28t57 70t32.5 91t10.5 91zM336 40q-6 0 -14.5 -8t-23.5 -17t-37.5 -17t-54.5 -8q-34 0 -63.5 14t-51.5 39.5t-35 61.5t-13 81
q0 60 18.5 117.5t51.5 103.5t80 74t104 28q42 0 68 -14.5t39 -31.5q4 -5 7 -9t8 -4q6 0 10 8l13 32q2 6 7 8t10 2h21q8 0 13 -6t3 -14l-99 -460q-2 -8 -9 -14t-15 -6h-15q-9 0 -14 7q-2 3 -2 8.5v11t-1 9.5t-5 4zM491 730q10 0 11 -8t-5 -13l-131 -112q-6 -5 -12.5 -8.5
t-20.5 -3.5h-19q-10 0 -12.5 7.5t2.5 12.5l100 109q5 5 11.5 10.5t17.5 5.5h58z" />
    <glyph glyph-name="acircumflex" unicode="&#xe2;" 
d="M398 330q0 53 -27 87t-75 34q-41 0 -76 -20t-61 -55t-41 -83.5t-15 -106.5q0 -28 8 -53t23 -43.5t35.5 -29t44.5 -10.5q49 0 84 28t57 70t32.5 91t10.5 91zM336 40q-6 0 -14.5 -8t-23.5 -17t-37.5 -17t-54.5 -8q-34 0 -63.5 14t-51.5 39.5t-35 61.5t-13 81
q0 60 18.5 117.5t51.5 103.5t80 74t104 28q42 0 68 -14.5t39 -31.5q4 -5 7 -9t8 -4q6 0 10 8l13 32q2 6 7 8t10 2h21q8 0 13 -6t3 -14l-99 -460q-2 -8 -9 -14t-15 -6h-15q-9 0 -14 7q-2 3 -2 8.5v11t-1 9.5t-5 4zM272 601q-5 -5 -14 -10.5t-20 -5.5h-47q-10 0 -11 8t5 13
l141 112q6 5 12.5 8.5t20.5 3.5h21q14 0 19 -3.5t8 -8.5l95 -112q4 -4 -1 -12.5t-15 -8.5h-39q-11 0 -17.5 5.5t-10.5 10.5l-53 65q-6 7 -14 0z" />
    <glyph glyph-name="atilde" unicode="&#xe3;" 
d="M398 330q0 53 -27 87t-75 34q-41 0 -76 -20t-61 -55t-41 -83.5t-15 -106.5q0 -28 8 -53t23 -43.5t35.5 -29t44.5 -10.5q49 0 84 28t57 70t32.5 91t10.5 91zM336 40q-6 0 -14.5 -8t-23.5 -17t-37.5 -17t-54.5 -8q-34 0 -63.5 14t-51.5 39.5t-35 61.5t-13 81
q0 60 18.5 117.5t51.5 103.5t80 74t104 28q42 0 68 -14.5t39 -31.5q4 -5 7 -9t8 -4q6 0 10 8l13 32q2 6 7 8t10 2h21q8 0 13 -6t3 -14l-99 -460q-2 -8 -9 -14t-15 -6h-15q-9 0 -14 7q-2 3 -2 8.5v11t-1 9.5t-5 4zM446 676q19 0 30.5 6.5t19.5 14.5t16.5 4t5.5 -18l-5 -24
q-4 -20 -27.5 -35.5t-53.5 -15.5q-24 0 -38.5 4t-27.5 8.5t-28.5 8.5t-40.5 4q-17 0 -28.5 -5.5t-22.5 -15.5q-8 -7 -16.5 -3.5t-5.5 17.5l5 24q4 20 28 35.5t54 15.5q24 0 38.5 -4t27.5 -8.5t28 -8.5t41 -4z" />
    <glyph glyph-name="adieresis" unicode="&#xe4;" 
d="M398 330q0 53 -27 87t-75 34q-41 0 -76 -20t-61 -55t-41 -83.5t-15 -106.5q0 -28 8 -53t23 -43.5t35.5 -29t44.5 -10.5q49 0 84 28t57 70t32.5 91t10.5 91zM336 40q-6 0 -14.5 -8t-23.5 -17t-37.5 -17t-54.5 -8q-34 0 -63.5 14t-51.5 39.5t-35 61.5t-13 81
q0 60 18.5 117.5t51.5 103.5t80 74t104 28q42 0 68 -14.5t39 -31.5q4 -5 7 -9t8 -4q6 0 10 8l13 32q2 6 7 8t10 2h21q8 0 13 -6t3 -14l-99 -460q-2 -8 -9 -14t-15 -6h-15q-9 0 -14 7q-2 3 -2 8.5v11t-1 9.5t-5 4zM315 638q-4 -16 -20 -16h-52q-16 0 -12 16l11 53q2 6 7.5 11
t12.5 5h52q7 0 10.5 -5t1.5 -11zM486 638q-4 -16 -20 -16h-52q-16 0 -12 16l11 53q2 6 7.5 11t12.5 5h52q7 0 10.5 -5t1.5 -11z" />
    <glyph glyph-name="aring" unicode="&#xe5;" 
d="M398 330q0 53 -27 87t-75 34q-41 0 -76 -20t-61 -55t-41 -83.5t-15 -106.5q0 -28 8 -53t23 -43.5t35.5 -29t44.5 -10.5q49 0 84 28t57 70t32.5 91t10.5 91zM336 40q-6 0 -14.5 -8t-23.5 -17t-37.5 -17t-54.5 -8q-34 0 -63.5 14t-51.5 39.5t-35 61.5t-13 81
q0 60 18.5 117.5t51.5 103.5t80 74t104 28q42 0 68 -14.5t39 -31.5q4 -5 7 -9t8 -4q6 0 10 8l13 32q2 6 7 8t10 2h21q8 0 13 -6t3 -14l-99 -460q-2 -8 -9 -14t-15 -6h-15q-9 0 -14 7q-2 3 -2 8.5v11t-1 9.5t-5 4zM248 650q0 26 10.5 49.5t28 41.5t41 28.5t50.5 10.5
q42 0 67.5 -27t25.5 -68q0 -24 -10.5 -47t-28.5 -40t-41 -27.5t-47 -10.5q-45 0 -70.5 25.5t-25.5 64.5zM303 658q0 -20 12.5 -32t32.5 -12q12 0 24 5t22 14t16 21.5t6 26.5q0 20 -12 32t-33 12q-12 0 -24.5 -5t-22 -14t-15.5 -21t-6 -27z" />
    <glyph glyph-name="ae" unicode="&#xe6;" horiz-adv-x="826" 
d="M231 230q-55 0 -92 -24t-37 -76q0 -42 27 -63t75 -21q69 0 113 32t58 93l10 49q2 10 -8 10h-146zM452 442q10 -15 26 0q32 30 72 49t91 19q55 0 91.5 -19t56 -50t23.5 -70.5t-5 -80.5l-9 -40q-2 -8 -9.5 -14t-15.5 -6h-317q-9 0 -12 -10q-10 -36 -9 -67t14.5 -54
t39.5 -36.5t66 -13.5q31 0 55.5 8t43 21.5t32.5 30t23 34.5q5 10 12 13.5t14 3.5h20q8 0 12.5 -4.5t0.5 -15.5q-11 -33 -31 -60.5t-47.5 -47.5t-61.5 -31t-73 -11q-48 0 -85 16.5t-60 45.5q-6 8 -20 8t-25 -9q-42 -35 -84.5 -48t-77.5 -13q-79 0 -119 34.5t-40 91.5
q0 33 10.5 63.5t33 54t58 38t85.5 14.5h155q10 0 12 10l11 49q5 24 0.5 44.5t-18 35t-34 22.5t-46.5 8q-23 0 -45.5 -6.5t-41 -18t-32 -27.5t-17.5 -36q-2 -13 -10.5 -15t-15.5 -2h-14q-21 0 -16 20q8 35 29 61t49.5 43.5t61 26.5t64.5 9q44 0 76 -18.5t53 -49.5zM641 451
q-67 0 -114.5 -39t-64.5 -116q-2 -10 8 -10h270q10 0 12 10q8 38 3.5 67t-20 48.5t-39.5 29.5t-55 10z" />
    <glyph glyph-name="ccedilla" unicode="&#xe7;" horiz-adv-x="474" 
d="M374 163q2 10 9 13.5t14 3.5h21q8 0 12.5 -6t2.5 -14q-7 -34 -25 -64.5t-45 -54t-62.5 -37.5t-78.5 -14q-50 0 -85.5 15t-57 40.5t-29.5 60.5t-2 74q4 30 12.5 70t16.5 70q12 39 32.5 74t49.5 60.5t66 40.5t82 15q42 0 75.5 -14t56 -37.5t31.5 -54t2 -64.5q-2 -8 -8 -14
t-14 -6h-23q-7 0 -12 4t-3 12q5 22 0.5 43t-17.5 37t-35 25.5t-53 9.5q-41 0 -70 -13t-49 -32.5t-32 -42.5t-18 -43q-9 -31 -17.5 -70t-11.5 -70q-3 -20 0.5 -43t16 -42.5t35.5 -32.5t61 -13q37 0 64 10.5t45 27t28.5 36.5t14.5 40zM222 -45q10 0 12.5 -5.5t-0.5 -12.5
l-54 -121q-7 -16 -22 -16h-37q-10 0 -13 5.5t1 12.5l64 121q7 16 22 16h27z" />
    <glyph glyph-name="egrave" unicode="&#xe8;" horiz-adv-x="496" 
d="M305 451q-67 0 -112.5 -41t-62.5 -118q-2 -10 8 -10h270q10 0 12 10q17 77 -11.5 118t-103.5 41zM124 226q-9 0 -12 -10q-8 -36 -4 -66.5t19.5 -53t42 -35t65.5 -12.5q31 0 53.5 8t39.5 21.5t29 30t21 34.5q5 10 12 13.5t14 3.5h20q8 0 12.5 -4.5t0.5 -15.5
q-11 -33 -31 -60.5t-47.5 -47.5t-61.5 -31t-73 -11q-45 0 -80.5 15t-58.5 40.5t-33.5 60.5t-4.5 74q4 30 12.5 70t16.5 70q12 39 33 74t50.5 60.5t67.5 40.5t83 15q58 0 94.5 -19t55.5 -50t22 -70.5t-6 -80.5l-10 -44q-2 -8 -9.5 -14t-15.5 -6h-317zM310 730q11 0 15.5 -5.5
t7.5 -10.5l52 -109q3 -5 -2.5 -12.5t-15.5 -7.5h-19q-14 0 -19 3.5t-8 8.5l-85 112q-3 5 1.5 13t14.5 8h58z" />
    <glyph glyph-name="eacute" unicode="&#xe9;" horiz-adv-x="496" 
d="M305 451q-67 0 -112.5 -41t-62.5 -118q-2 -10 8 -10h270q10 0 12 10q17 77 -11.5 118t-103.5 41zM124 226q-9 0 -12 -10q-8 -36 -4 -66.5t19.5 -53t42 -35t65.5 -12.5q31 0 53.5 8t39.5 21.5t29 30t21 34.5q5 10 12 13.5t14 3.5h20q8 0 12.5 -4.5t0.5 -15.5
q-11 -33 -31 -60.5t-47.5 -47.5t-61.5 -31t-73 -11q-45 0 -80.5 15t-58.5 40.5t-33.5 60.5t-4.5 74q4 30 12.5 70t16.5 70q12 39 33 74t50.5 60.5t67.5 40.5t83 15q58 0 94.5 -19t55.5 -50t22 -70.5t-6 -80.5l-10 -44q-2 -8 -9.5 -14t-15.5 -6h-317zM498 730q10 0 11 -8
t-5 -13l-131 -112q-6 -5 -12.5 -8.5t-20.5 -3.5h-19q-10 0 -12.5 7.5t2.5 12.5l100 109q5 5 11.5 10.5t17.5 5.5h58z" />
    <glyph glyph-name="ecircumflex" unicode="&#xea;" horiz-adv-x="496" 
d="M305 451q-67 0 -112.5 -41t-62.5 -118q-2 -10 8 -10h270q10 0 12 10q17 77 -11.5 118t-103.5 41zM124 226q-9 0 -12 -10q-8 -36 -4 -66.5t19.5 -53t42 -35t65.5 -12.5q31 0 53.5 8t39.5 21.5t29 30t21 34.5q5 10 12 13.5t14 3.5h20q8 0 12.5 -4.5t0.5 -15.5
q-11 -33 -31 -60.5t-47.5 -47.5t-61.5 -31t-73 -11q-45 0 -80.5 15t-58.5 40.5t-33.5 60.5t-4.5 74q4 30 12.5 70t16.5 70q12 39 33 74t50.5 60.5t67.5 40.5t83 15q58 0 94.5 -19t55.5 -50t22 -70.5t-6 -80.5l-10 -44q-2 -8 -9.5 -14t-15.5 -6h-317zM298 601
q-5 -5 -14 -10.5t-20 -5.5h-47q-10 0 -11 8t5 13l141 112q6 5 12.5 8.5t20.5 3.5h21q14 0 19 -3.5t8 -8.5l95 -112q4 -4 -1 -12.5t-15 -8.5h-39q-11 0 -17.5 5.5t-10.5 10.5l-53 65q-6 7 -14 0z" />
    <glyph glyph-name="edieresis" unicode="&#xeb;" horiz-adv-x="496" 
d="M305 451q-67 0 -112.5 -41t-62.5 -118q-2 -10 8 -10h270q10 0 12 10q17 77 -11.5 118t-103.5 41zM124 226q-9 0 -12 -10q-8 -36 -4 -66.5t19.5 -53t42 -35t65.5 -12.5q31 0 53.5 8t39.5 21.5t29 30t21 34.5q5 10 12 13.5t14 3.5h20q8 0 12.5 -4.5t0.5 -15.5
q-11 -33 -31 -60.5t-47.5 -47.5t-61.5 -31t-73 -11q-45 0 -80.5 15t-58.5 40.5t-33.5 60.5t-4.5 74q4 30 12.5 70t16.5 70q12 39 33 74t50.5 60.5t67.5 40.5t83 15q58 0 94.5 -19t55.5 -50t22 -70.5t-6 -80.5l-10 -44q-2 -8 -9.5 -14t-15.5 -6h-317zM326 638q-4 -16 -20 -16
h-52q-16 0 -12 16l11 53q2 6 7.5 11t12.5 5h52q7 0 10.5 -5t1.5 -11zM497 638q-4 -16 -20 -16h-52q-16 0 -12 16l11 53q2 6 7.5 11t12.5 5h52q7 0 10.5 -5t1.5 -11z" />
    <glyph glyph-name="igrave" unicode="&#xec;" horiz-adv-x="197" 
d="M138 730q11 0 15.5 -5.5t7.5 -10.5l52 -109q3 -5 -2.5 -12.5t-15.5 -7.5h-19q-14 0 -19 3.5t-8 8.5l-85 112q-3 5 1.5 13t14.5 8h58zM123 480q2 8 9.5 14t15.5 6h20q8 0 12.5 -6t2.5 -14l-97 -460q-2 -8 -9.5 -14t-15.5 -6h-20q-8 0 -12.5 6t-2.5 14z" />
    <glyph glyph-name="iacute" unicode="&#xed;" horiz-adv-x="197" 
d="M328 730q10 0 11 -8t-5 -13l-131 -112q-6 -5 -12.5 -8.5t-20.5 -3.5h-19q-10 0 -12.5 7.5t2.5 12.5l100 109q5 5 11.5 10.5t17.5 5.5h58zM123 480q2 8 9.5 14t15.5 6h20q8 0 12.5 -6t2.5 -14l-97 -460q-2 -8 -9.5 -14t-15.5 -6h-20q-8 0 -12.5 6t-2.5 14z" />
    <glyph glyph-name="icircumflex" unicode="&#xee;" horiz-adv-x="197" 
d="M123 480q2 8 9.5 14t15.5 6h20q8 0 12.5 -6t2.5 -14l-97 -460q-2 -8 -9.5 -14t-15.5 -6h-20q-8 0 -12.5 6t-2.5 14zM109 601q-5 -5 -14 -10.5t-20 -5.5h-47q-10 0 -11 8t5 13l141 112q6 5 12.5 8.5t20.5 3.5h21q14 0 19 -3.5t8 -8.5l95 -112q4 -4 -1 -12.5t-15 -8.5h-39
q-11 0 -17.5 5.5t-10.5 10.5l-53 65q-6 7 -14 0z" />
    <glyph glyph-name="idieresis" unicode="&#xef;" horiz-adv-x="197" 
d="M140 638q-4 -16 -20 -16h-52q-16 0 -12 16l11 53q2 6 7.5 11t12.5 5h52q7 0 10.5 -5t1.5 -11zM311 638q-4 -16 -20 -16h-52q-16 0 -12 16l11 53q2 6 7.5 11t12.5 5h52q7 0 10.5 -5t1.5 -11zM123 480q2 8 9.5 14t15.5 6h20q8 0 12.5 -6t2.5 -14l-97 -460q-2 -8 -9.5 -14
t-15.5 -6h-20q-8 0 -12.5 6t-2.5 14z" />
    <glyph glyph-name="eth" unicode="&#xf0;" horiz-adv-x="501" 
d="M174 49q54 0 90.5 25t58.5 61.5t31.5 78.5t9.5 76q0 15 -2.5 34t-13 36.5t-32 29t-58.5 11.5q-52 0 -89.5 -21.5t-62 -54.5t-36.5 -72t-12 -73q0 -19 4 -41.5t16 -42.5t35 -33.5t61 -13.5zM323 629q-27 12 -65 12h-36q-8 0 -12.5 6t-2.5 14l4 19q2 8 9 14t15 6h36
q75 0 120 -39q4 -2 9 0l82 44q8 5 16 0.5t6 -14.5l-4 -17q-2 -10 -6 -14.5t-12 -9.5l-48 -27q-8 -4 -6 -10q20 -37 25.5 -86.5t0.5 -106.5q-4 -39 -10 -86t-17.5 -94.5t-31 -92.5t-49 -80t-72 -56t-100.5 -21q-46 0 -79.5 15t-55.5 40.5t-32.5 60.5t-10.5 74q0 53 19 103.5
t53.5 89.5t83 63t106.5 24q26 0 45.5 -5t34 -12.5t23.5 -16t13 -15.5q3 -5 6.5 -3t4.5 7q9 48 8 89.5t-16 72.5q-4 7 -9 4l-95 -49q-9 -5 -18 -1t-7 15l2 11q2 8 5 14.5t16 13.5l52 27q8 4 6.5 9.5t-6.5 7.5z" />
    <glyph glyph-name="ntilde" unicode="&#xf1;" 
d="M406 336q7 31 1.5 53t-19.5 36t-36 20t-49 6q-54 0 -95.5 -25t-54.5 -85l-68 -321q-2 -8 -9.5 -14t-15.5 -6h-19q-8 0 -12.5 6t-2.5 14l97 460q2 8 7 14t13 6h21q7 0 12 -7q4 -5 8 -10.5t13 -5.5q11 0 20.5 5t21.5 11.5t28.5 11.5t40.5 5q39 0 72 -11t55 -33t30.5 -54.5
t-0.5 -75.5l-67 -316q-2 -8 -9.5 -14t-15.5 -6h-19q-8 0 -12.5 6t-2.5 14zM419 676q19 0 30.5 6.5t19.5 14.5t16.5 4t5.5 -18l-5 -24q-4 -20 -27.5 -35.5t-53.5 -15.5q-24 0 -38.5 4t-27.5 8.5t-28.5 8.5t-40.5 4q-17 0 -28.5 -5.5t-22.5 -15.5q-8 -7 -16.5 -3.5t-5.5 17.5
l5 24q4 20 28 35.5t54 15.5q24 0 38.5 -4t27.5 -8.5t28 -8.5t41 -4z" />
    <glyph glyph-name="ograve" unicode="&#xf2;" horiz-adv-x="496" 
d="M138 320q-9 -31 -17 -70t-12 -70q-2 -20 1 -43t15.5 -42.5t35.5 -32.5t61 -13q40 0 69 13t49 32.5t32.5 42.5t18.5 43q9 31 17 70t12 70q2 20 -1 43t-15.5 42.5t-36 32.5t-60.5 13q-40 0 -69 -13t-49 -32.5t-32.5 -42.5t-18.5 -43zM48 180q4 30 12.5 70t16.5 70
q12 39 32.5 74t49.5 60.5t66 40.5t82 15t80 -15t57.5 -40.5t32.5 -60.5t4 -74q-4 -30 -12.5 -70t-16.5 -70q-12 -39 -32.5 -74t-49.5 -60.5t-66 -40.5t-82 -15t-80 15t-57.5 40.5t-32.5 60.5t-4 74zM302 730q11 0 15.5 -5.5t7.5 -10.5l52 -109q3 -5 -2.5 -12.5t-15.5 -7.5
h-19q-14 0 -19 3.5t-8 8.5l-85 112q-3 5 1.5 13t14.5 8h58z" />
    <glyph glyph-name="oacute" unicode="&#xf3;" horiz-adv-x="496" 
d="M138 320q-9 -31 -17 -70t-12 -70q-2 -20 1 -43t15.5 -42.5t35.5 -32.5t61 -13q40 0 69 13t49 32.5t32.5 42.5t18.5 43q9 31 17 70t12 70q2 20 -1 43t-15.5 42.5t-36 32.5t-60.5 13q-40 0 -69 -13t-49 -32.5t-32.5 -42.5t-18.5 -43zM48 180q4 30 12.5 70t16.5 70
q12 39 32.5 74t49.5 60.5t66 40.5t82 15t80 -15t57.5 -40.5t32.5 -60.5t4 -74q-4 -30 -12.5 -70t-16.5 -70q-12 -39 -32.5 -74t-49.5 -60.5t-66 -40.5t-82 -15t-80 15t-57.5 40.5t-32.5 60.5t-4 74zM480 730q10 0 11 -8t-5 -13l-131 -112q-6 -5 -12.5 -8.5t-20.5 -3.5h-19
q-10 0 -12.5 7.5t2.5 12.5l100 109q5 5 11.5 10.5t17.5 5.5h58z" />
    <glyph glyph-name="ocircumflex" unicode="&#xf4;" horiz-adv-x="496" 
d="M138 320q-9 -31 -17 -70t-12 -70q-2 -20 1 -43t15.5 -42.5t35.5 -32.5t61 -13q40 0 69 13t49 32.5t32.5 42.5t18.5 43q9 31 17 70t12 70q2 20 -1 43t-15.5 42.5t-36 32.5t-60.5 13q-40 0 -69 -13t-49 -32.5t-32.5 -42.5t-18.5 -43zM48 180q4 30 12.5 70t16.5 70
q12 39 32.5 74t49.5 60.5t66 40.5t82 15t80 -15t57.5 -40.5t32.5 -60.5t4 -74q-4 -30 -12.5 -70t-16.5 -70q-12 -39 -32.5 -74t-49.5 -60.5t-66 -40.5t-82 -15t-80 15t-57.5 40.5t-32.5 60.5t-4 74zM291 601q-5 -5 -14 -10.5t-20 -5.5h-47q-10 0 -11 8t5 13l141 112
q6 5 12.5 8.5t20.5 3.5h21q14 0 19 -3.5t8 -8.5l95 -112q4 -4 -1 -12.5t-15 -8.5h-39q-11 0 -17.5 5.5t-10.5 10.5l-53 65q-6 7 -14 0z" />
    <glyph glyph-name="otilde" unicode="&#xf5;" horiz-adv-x="496" 
d="M138 320q-9 -31 -17 -70t-12 -70q-2 -20 1 -43t15.5 -42.5t35.5 -32.5t61 -13q40 0 69 13t49 32.5t32.5 42.5t18.5 43q9 31 17 70t12 70q2 20 -1 43t-15.5 42.5t-36 32.5t-60.5 13q-40 0 -69 -13t-49 -32.5t-32.5 -42.5t-18.5 -43zM48 180q4 30 12.5 70t16.5 70
q12 39 32.5 74t49.5 60.5t66 40.5t82 15t80 -15t57.5 -40.5t32.5 -60.5t4 -74q-4 -30 -12.5 -70t-16.5 -70q-12 -39 -32.5 -74t-49.5 -60.5t-66 -40.5t-82 -15t-80 15t-57.5 40.5t-32.5 60.5t-4 74zM456 676q19 0 30.5 6.5t19.5 14.5t16.5 4t5.5 -18l-5 -24
q-4 -20 -27.5 -35.5t-53.5 -15.5q-24 0 -38.5 4t-27.5 8.5t-28.5 8.5t-40.5 4q-17 0 -28.5 -5.5t-22.5 -15.5q-8 -7 -16.5 -3.5t-5.5 17.5l5 24q4 20 28 35.5t54 15.5q24 0 38.5 -4t27.5 -8.5t28 -8.5t41 -4z" />
    <glyph glyph-name="odieresis" unicode="&#xf6;" horiz-adv-x="496" 
d="M138 320q-9 -31 -17 -70t-12 -70q-2 -20 1 -43t15.5 -42.5t35.5 -32.5t61 -13q40 0 69 13t49 32.5t32.5 42.5t18.5 43q9 31 17 70t12 70q2 20 -1 43t-15.5 42.5t-36 32.5t-60.5 13q-40 0 -69 -13t-49 -32.5t-32.5 -42.5t-18.5 -43zM48 180q4 30 12.5 70t16.5 70
q12 39 32.5 74t49.5 60.5t66 40.5t82 15t80 -15t57.5 -40.5t32.5 -60.5t4 -74q-4 -30 -12.5 -70t-16.5 -70q-12 -39 -32.5 -74t-49.5 -60.5t-66 -40.5t-82 -15t-80 15t-57.5 40.5t-32.5 60.5t-4 74zM315 638q-4 -16 -20 -16h-52q-16 0 -12 16l11 53q2 6 7.5 11t12.5 5h52
q7 0 10.5 -5t1.5 -11zM486 638q-4 -16 -20 -16h-52q-16 0 -12 16l11 53q2 6 7.5 11t12.5 5h52q7 0 10.5 -5t1.5 -11z" />
    <glyph glyph-name="divide" unicode="&#xf7;" horiz-adv-x="520" 
d="M464 236q-2 -8 -9 -14t-15 -6h-380q-8 0 -13 6t-3 14l7 30q2 8 9 14t15 6h380q8 0 13 -6t3 -14zM265 20q-2 -8 -9.5 -14t-15.5 -6h-70q-8 0 -12.5 6t-2.5 14l15 70q2 8 9 14t15 6h70q8 0 13 -6t3 -14zM345 490q8 0 12.5 -6t2.5 -14l-15 -70q-2 -8 -9 -14t-15 -6h-70
q-8 0 -13 6t-3 14l15 70q2 8 9.5 14t15.5 6h70z" />
    <glyph glyph-name="oslash" unicode="&#xf8;" horiz-adv-x="496" 
d="M62 0q-10 0 -15 6t3 16l24 29q3 5 1 7q-17 25 -24.5 56t-2.5 66q4 30 12.5 70t16.5 70q12 39 32.5 74t49.5 60.5t66 40.5t82 15q35 0 63.5 -9t50.5 -26q3 -3 6 1l7 9q12 15 23 15h27q10 0 13.5 -7.5t-4.5 -16.5l-31 -37q-3 -5 -1 -7q29 -48 20 -112q-4 -30 -12.5 -70
t-16.5 -70q-12 -39 -32.5 -74t-49.5 -60.5t-66 -40.5t-82 -15q-30 0 -55.5 7t-45.5 18q-5 3 -7 0q-6 -8 -9.5 -11.5t-11.5 -3.5h-31zM307 451q-40 0 -69 -13t-49 -32.5t-32.5 -42.5t-18.5 -43q-9 -31 -17 -70t-12 -70q-2 -17 -0.5 -34.5t8.5 -34.5q3 -5 6 -1l259 312
q2 3 1 4.5t-2 2.5q-13 10 -31 16t-43 6zM222 49q40 0 69 13t49 32.5t32.5 42.5t18.5 43q9 31 17.5 70t11.5 70q3 28 -4 56q0 2 -1.5 2.5t-3.5 -2.5l-253 -307q-2 -3 -1 -4l2 -2q25 -14 63 -14z" />
    <glyph glyph-name="ugrave" unicode="&#xf9;" horiz-adv-x="491" 
d="M115 164q-7 -32 -2 -53.5t19.5 -35.5t36.5 -20t49 -6q54 0 95.5 25t54.5 85l68 321q2 8 9.5 14t15.5 6h19q8 0 12.5 -6t2.5 -14l-97 -460q-2 -8 -9.5 -14t-15.5 -6h-16q-7 0 -12 7q-4 5 -8 10.5t-13 5.5q-11 0 -20.5 -5t-21.5 -11.5t-28.5 -11.5t-40.5 -5q-39 0 -72 11
t-55 33t-30.5 54.5t0.5 75.5l67 316q2 8 9.5 14t15.5 6h19q8 0 12.5 -6t2.5 -14zM301 730q11 0 15.5 -5.5t7.5 -10.5l52 -109q3 -5 -2.5 -12.5t-15.5 -7.5h-19q-14 0 -19 3.5t-8 8.5l-85 112q-3 5 1.5 13t14.5 8h58z" />
    <glyph glyph-name="uacute" unicode="&#xfa;" horiz-adv-x="491" 
d="M115 164q-7 -32 -2 -53.5t19.5 -35.5t36.5 -20t49 -6q54 0 95.5 25t54.5 85l68 321q2 8 9.5 14t15.5 6h19q8 0 12.5 -6t2.5 -14l-97 -460q-2 -8 -9.5 -14t-15.5 -6h-16q-7 0 -12 7q-4 5 -8 10.5t-13 5.5q-11 0 -20.5 -5t-21.5 -11.5t-28.5 -11.5t-40.5 -5q-39 0 -72 11
t-55 33t-30.5 54.5t0.5 75.5l67 316q2 8 9.5 14t15.5 6h19q8 0 12.5 -6t2.5 -14zM458 730q10 0 11 -8t-5 -13l-131 -112q-6 -5 -12.5 -8.5t-20.5 -3.5h-19q-10 0 -12.5 7.5t2.5 12.5l100 109q5 5 11.5 10.5t17.5 5.5h58z" />
    <glyph glyph-name="ucircumflex" unicode="&#xfb;" horiz-adv-x="491" 
d="M115 164q-7 -32 -2 -53.5t19.5 -35.5t36.5 -20t49 -6q54 0 95.5 25t54.5 85l68 321q2 8 9.5 14t15.5 6h19q8 0 12.5 -6t2.5 -14l-97 -460q-2 -8 -9.5 -14t-15.5 -6h-16q-7 0 -12 7q-4 5 -8 10.5t-13 5.5q-11 0 -20.5 -5t-21.5 -11.5t-28.5 -11.5t-40.5 -5q-39 0 -72 11
t-55 33t-30.5 54.5t0.5 75.5l67 316q2 8 9.5 14t15.5 6h19q8 0 12.5 -6t2.5 -14zM264 601q-5 -5 -14 -10.5t-20 -5.5h-47q-10 0 -11 8t5 13l141 112q6 5 12.5 8.5t20.5 3.5h21q14 0 19 -3.5t8 -8.5l95 -112q4 -4 -1 -12.5t-15 -8.5h-39q-11 0 -17.5 5.5t-10.5 10.5l-53 65
q-6 7 -14 0z" />
    <glyph glyph-name="udieresis" unicode="&#xfc;" horiz-adv-x="491" 
d="M115 164q-7 -32 -2 -53.5t19.5 -35.5t36.5 -20t49 -6q54 0 95.5 25t54.5 85l68 321q2 8 9.5 14t15.5 6h19q8 0 12.5 -6t2.5 -14l-97 -460q-2 -8 -9.5 -14t-15.5 -6h-16q-7 0 -12 7q-4 5 -8 10.5t-13 5.5q-11 0 -20.5 -5t-21.5 -11.5t-28.5 -11.5t-40.5 -5q-39 0 -72 11
t-55 33t-30.5 54.5t0.5 75.5l67 316q2 8 9.5 14t15.5 6h19q8 0 12.5 -6t2.5 -14zM302 638q-4 -16 -20 -16h-52q-16 0 -12 16l11 53q2 6 7.5 11t12.5 5h52q7 0 10.5 -5t1.5 -11zM473 638q-4 -16 -20 -16h-52q-16 0 -12 16l11 53q2 6 7.5 11t12.5 5h52q7 0 10.5 -5t1.5 -11z
" />
    <glyph glyph-name="yacute" unicode="&#xfd;" horiz-adv-x="438" 
d="M155 24q4 7 3 13l-95 440q-2 8 5 15.5t19 7.5h23q13 0 16 -15l75 -368q1 -4 3.5 -4t4.5 4l213 368q8 15 22 15h33q12 0 15.5 -7.5t-1.5 -15.5l-356 -596q-26 -45 -60.5 -63t-76.5 -18h-22q-8 0 -13 6t-3 14l4 18q2 8 9.5 14t15.5 6h22q21 0 41.5 13t41.5 49zM441 730
q10 0 11 -8t-5 -13l-131 -112q-6 -5 -12.5 -8.5t-20.5 -3.5h-19q-10 0 -12.5 7.5t2.5 12.5l100 109q5 5 11.5 10.5t17.5 5.5h58z" />
    <glyph glyph-name="thorn" unicode="&#xfe;" horiz-adv-x="492" 
d="M157 687q2 8 9.5 14t15.5 6h19q8 0 12.5 -6t2.5 -14l-38 -181q-2 -7 2.5 -14t15.5 -7q7 0 16 4t20 8.5t25.5 8.5t33.5 4q46 0 80 -15t55 -40.5t29.5 -60.5t2.5 -74q-4 -30 -12.5 -70t-16.5 -70q-12 -39 -29.5 -74t-44 -60.5t-63.5 -40.5t-86 -15q-24 0 -41 5t-29.5 11
t-22 11t-16.5 5q-21 0 -26 -21l-39 -181q-2 -8 -9.5 -14t-15.5 -6h-19q-8 0 -12.5 6t-2.5 14zM368 180q10 31 18 70t11 70q2 20 -1 43t-14 42.5t-33 32.5t-58 13q-33 0 -58.5 -13t-44 -32.5t-30.5 -42.5t-18 -43q-9 -31 -17 -70t-12 -70q-2 -20 0 -43t12 -42.5t30 -32.5
t53 -13q41 0 69 13t46.5 32.5t29 42.5t17.5 43z" />
    <glyph glyph-name="ydieresis" unicode="&#xff;" horiz-adv-x="438" 
d="M155 24q4 7 3 13l-95 440q-2 8 5 15.5t19 7.5h23q13 0 16 -15l75 -368q1 -4 3.5 -4t4.5 4l213 368q8 15 22 15h33q12 0 15.5 -7.5t-1.5 -15.5l-356 -596q-26 -45 -60.5 -63t-76.5 -18h-22q-8 0 -13 6t-3 14l4 18q2 8 9.5 14t15.5 6h22q21 0 41.5 13t41.5 49zM256 638
q-4 -16 -20 -16h-52q-16 0 -12 16l11 53q2 6 7.5 11t12.5 5h52q7 0 10.5 -5t1.5 -11zM427 638q-4 -16 -20 -16h-52q-16 0 -12 16l11 53q2 6 7.5 11t12.5 5h52q7 0 10.5 -5t1.5 -11z" />
    <glyph glyph-name="Amacron" unicode="&#x100;" 
d="M367 260q11 0 11 11l-17 340q0 6 -3 6h-2q-2 0 -5 -6l-165 -340q-6 -11 5 -11h176zM385 184q-2 14 -16 14h-206q-14 0 -22 -14l-85 -169q-5 -15 -21 -15h-27q-12 0 -15.5 6.5t-0.5 13.5l332 665q7 15 22 15h50q16 0 16 -15l49 -665q0 -7 -6 -13.5t-18 -6.5h-25
q-16 0 -16 15zM521 825q8 0 13 -6t3 -14l-5 -20q-2 -8 -9 -14t-15 -6h-242q-8 0 -13 6t-3 14l5 20q2 8 9 14t15 6h242z" />
    <glyph glyph-name="amacron" unicode="&#x101;" 
d="M398 330q0 53 -27 87t-75 34q-41 0 -76 -20t-61 -55t-41 -83.5t-15 -106.5q0 -28 8 -53t23 -43.5t35.5 -29t44.5 -10.5q49 0 84 28t57 70t32.5 91t10.5 91zM336 40q-6 0 -14.5 -8t-23.5 -17t-37.5 -17t-54.5 -8q-34 0 -63.5 14t-51.5 39.5t-35 61.5t-13 81
q0 60 18.5 117.5t51.5 103.5t80 74t104 28q42 0 68 -14.5t39 -31.5q4 -5 7 -9t8 -4q6 0 10 8l13 32q2 6 7 8t10 2h21q8 0 13 -6t3 -14l-99 -460q-2 -8 -9 -14t-15 -6h-15q-9 0 -14 7q-2 3 -2 8.5v11t-1 9.5t-5 4zM489 694q8 0 13 -6t3 -14l-5 -20q-2 -8 -9 -14t-15 -6h-242
q-8 0 -13 6t-3 14l5 20q2 8 9 14t15 6h242z" />
    <glyph glyph-name="Abreve" unicode="&#x102;" 
d="M367 260q11 0 11 11l-17 340q0 6 -3 6h-2q-2 0 -5 -6l-165 -340q-6 -11 5 -11h176zM385 184q-2 14 -16 14h-206q-14 0 -22 -14l-85 -169q-5 -15 -21 -15h-27q-12 0 -15.5 6.5t-0.5 13.5l332 665q7 15 22 15h50q16 0 16 -15l49 -665q0 -7 -6 -13.5t-18 -6.5h-25
q-16 0 -16 15zM486 878q2 7 7.5 12t13.5 5h23q7 0 11 -5t2 -12q-6 -27 -19.5 -50t-34 -40.5t-46.5 -27.5t-56 -10t-54.5 10t-41 27.5t-23 40.5t-0.5 50q2 7 8 12t13 5h23q8 0 11.5 -5t1.5 -12q-7 -35 11.5 -55.5t53.5 -20.5t62 20.5t34 55.5z" />
    <glyph glyph-name="abreve" unicode="&#x103;" 
d="M398 330q0 53 -27 87t-75 34q-41 0 -76 -20t-61 -55t-41 -83.5t-15 -106.5q0 -28 8 -53t23 -43.5t35.5 -29t44.5 -10.5q49 0 84 28t57 70t32.5 91t10.5 91zM336 40q-6 0 -14.5 -8t-23.5 -17t-37.5 -17t-54.5 -8q-34 0 -63.5 14t-51.5 39.5t-35 61.5t-13 81
q0 60 18.5 117.5t51.5 103.5t80 74t104 28q42 0 68 -14.5t39 -31.5q4 -5 7 -9t8 -4q6 0 10 8l13 32q2 6 7 8t10 2h21q8 0 13 -6t3 -14l-99 -460q-2 -8 -9 -14t-15 -6h-15q-9 0 -14 7q-2 3 -2 8.5v11t-1 9.5t-5 4zM431 713q2 7 7.5 12t13.5 5h23q7 0 11 -5t2 -12
q-6 -27 -19.5 -50t-34 -40.5t-46.5 -27.5t-56 -10t-54.5 10t-41 27.5t-23 40.5t-0.5 50q2 7 8 12t13 5h23q8 0 11.5 -5t1.5 -12q-7 -35 11.5 -55.5t53.5 -20.5t62 20.5t34 55.5z" />
    <glyph glyph-name="Aogonek" unicode="&#x104;" 
d="M428 0q-20 0 -40.5 -6t-36.5 -18t-26 -29.5t-10 -40.5q0 -32 24 -44t67 -12q8 0 12.5 -6t2.5 -14l-4 -20q-2 -8 -9 -14t-15 -6q-63 0 -102 29.5t-39 80.5q0 30 11.5 55t31 44.5t45 33t53.5 20.5l-8 131q-2 14 -16 14h-206q-14 0 -22 -14l-85 -169q-5 -15 -21 -15h-27
q-12 0 -15.5 6.5t-0.5 13.5l332 665q7 15 22 15h50q16 0 16 -15l49 -665q0 -7 -6 -13.5t-18 -6.5h-9zM186 271q-6 -11 5 -11h176q11 0 11 11l-17 340q0 6 -3 6h-2q-2 0 -5 -6z" />
    <glyph glyph-name="aogonek" unicode="&#x105;" 
d="M397 20q-2 -8 -9 -14t-15 -6h-11q-20 0 -40.5 -6t-36.5 -18t-26 -29.5t-10 -40.5q0 -32 24 -44t67 -12q8 0 12.5 -6t2.5 -14l-4 -20q-2 -8 -9 -14t-15 -6q-63 0 -102 29.5t-39 80.5q0 26 15 52t38 40q-7 -1 -16 -1.5t-17 -0.5q-34 0 -63.5 14t-51.5 39.5t-35 61.5t-13 81
q0 60 18.5 117.5t51.5 103.5t80 74t104 28q42 0 68 -14.5t39 -31.5q4 -5 7 -9t8 -4q6 0 10 8l13 32q2 6 7 8t10 2h21q8 0 13 -6t3 -14zM398 330q0 53 -27 87t-75 34q-41 0 -76 -20t-61 -55t-41 -83.5t-15 -106.5q0 -28 8 -53t23 -43.5t35.5 -29t44.5 -10.5q49 0 84 28t57 70
t32.5 91t10.5 91z" />
    <glyph glyph-name="Cacute" unicode="&#x106;" horiz-adv-x="532" 
d="M560 496q-2 -8 -9.5 -14t-15.5 -6h-25q-8 0 -12.5 6t-2.5 14q5 28 0.5 55t-19.5 47.5t-41 33t-64 12.5q-40 0 -70.5 -12t-53 -32.5t-38 -46.5t-25.5 -53q-11 -31 -21.5 -70t-19 -80t-14.5 -80t-8 -70q-2 -22 2.5 -47t18 -46.5t38.5 -36t66 -14.5q49 0 82 14.5t54 36
t32.5 47.5t19.5 50q2 8 9.5 14t15.5 6h27q8 0 12.5 -6t2.5 -14q-32 -101 -92.5 -156.5t-162.5 -55.5q-45 0 -82 14.5t-62.5 41.5t-38.5 65.5t-9 86.5q2 30 8.5 69.5t15 81t18.5 80.5t21 69q15 41 37 78.5t53 66.5t71.5 46t92.5 17t90.5 -17.5t63 -46.5t33.5 -67.5t2 -80.5z
M564 895q10 0 11 -8t-5 -13l-131 -112q-6 -5 -12.5 -8.5t-20.5 -3.5h-19q-10 0 -12.5 7.5t2.5 12.5l100 109q5 5 11.5 10.5t17.5 5.5h58z" />
    <glyph glyph-name="cacute" unicode="&#x107;" horiz-adv-x="474" 
d="M374 163q2 10 9 13.5t14 3.5h21q8 0 12.5 -6t2.5 -14q-7 -34 -25 -64.5t-45 -54t-62.5 -37.5t-78.5 -14q-50 0 -85.5 15t-57 40.5t-29.5 60.5t-2 74q4 30 12.5 70t16.5 70q12 39 32.5 74t49.5 60.5t66 40.5t82 15q42 0 75.5 -14t56 -37.5t31.5 -54t2 -64.5q-2 -8 -8 -14
t-14 -6h-23q-7 0 -12 4t-3 12q5 22 0.5 43t-17.5 37t-35 25.5t-53 9.5q-41 0 -70 -13t-49 -32.5t-32 -42.5t-18 -43q-9 -31 -17.5 -70t-11.5 -70q-3 -20 0.5 -43t16 -42.5t35.5 -32.5t61 -13q37 0 64 10.5t45 27t28.5 36.5t14.5 40zM479 730q10 0 11 -8t-5 -13l-131 -112
q-6 -5 -12.5 -8.5t-20.5 -3.5h-19q-10 0 -12.5 7.5t2.5 12.5l100 109q5 5 11.5 10.5t17.5 5.5h58z" />
    <glyph glyph-name="Ccircumflex" unicode="&#x108;" horiz-adv-x="532" 
d="M560 496q-2 -8 -9.5 -14t-15.5 -6h-25q-8 0 -12.5 6t-2.5 14q5 28 0.5 55t-19.5 47.5t-41 33t-64 12.5q-40 0 -70.5 -12t-53 -32.5t-38 -46.5t-25.5 -53q-11 -31 -21.5 -70t-19 -80t-14.5 -80t-8 -70q-2 -22 2.5 -47t18 -46.5t38.5 -36t66 -14.5q49 0 82 14.5t54 36
t32.5 47.5t19.5 50q2 8 9.5 14t15.5 6h27q8 0 12.5 -6t2.5 -14q-32 -101 -92.5 -156.5t-162.5 -55.5q-45 0 -82 14.5t-62.5 41.5t-38.5 65.5t-9 86.5q2 30 8.5 69.5t15 81t18.5 80.5t21 69q15 41 37 78.5t53 66.5t71.5 46t92.5 17t90.5 -17.5t63 -46.5t33.5 -67.5t2 -80.5z
M345 766q-5 -5 -14 -10.5t-20 -5.5h-47q-10 0 -11 8t5 13l141 112q6 5 12.5 8.5t20.5 3.5h21q14 0 19 -3.5t8 -8.5l95 -112q4 -4 -1 -12.5t-15 -8.5h-39q-11 0 -17.5 5.5t-10.5 10.5l-53 65q-6 7 -14 0z" />
    <glyph glyph-name="ccircumflex" unicode="&#x109;" horiz-adv-x="474" 
d="M374 163q2 10 9 13.5t14 3.5h21q8 0 12.5 -6t2.5 -14q-7 -34 -25 -64.5t-45 -54t-62.5 -37.5t-78.5 -14q-50 0 -85.5 15t-57 40.5t-29.5 60.5t-2 74q4 30 12.5 70t16.5 70q12 39 32.5 74t49.5 60.5t66 40.5t82 15q42 0 75.5 -14t56 -37.5t31.5 -54t2 -64.5q-2 -8 -8 -14
t-14 -6h-23q-7 0 -12 4t-3 12q5 22 0.5 43t-17.5 37t-35 25.5t-53 9.5q-41 0 -70 -13t-49 -32.5t-32 -42.5t-18 -43q-9 -31 -17.5 -70t-11.5 -70q-3 -20 0.5 -43t16 -42.5t35.5 -32.5t61 -13q37 0 64 10.5t45 27t28.5 36.5t14.5 40zM273 601q-5 -5 -14 -10.5t-20 -5.5h-47
q-10 0 -11 8t5 13l141 112q6 5 12.5 8.5t20.5 3.5h21q14 0 19 -3.5t8 -8.5l95 -112q4 -4 -1 -12.5t-15 -8.5h-39q-11 0 -17.5 5.5t-10.5 10.5l-53 65q-6 7 -14 0z" />
    <glyph glyph-name="Cdotaccent" unicode="&#x10a;" horiz-adv-x="532" 
d="M560 496q-2 -8 -9.5 -14t-15.5 -6h-25q-8 0 -12.5 6t-2.5 14q5 28 0.5 55t-19.5 47.5t-41 33t-64 12.5q-40 0 -70.5 -12t-53 -32.5t-38 -46.5t-25.5 -53q-11 -31 -21.5 -70t-19 -80t-14.5 -80t-8 -70q-2 -22 2.5 -47t18 -46.5t38.5 -36t66 -14.5q49 0 82 14.5t54 36
t32.5 47.5t19.5 50q2 8 9.5 14t15.5 6h27q8 0 12.5 -6t2.5 -14q-32 -101 -92.5 -156.5t-162.5 -55.5q-45 0 -82 14.5t-62.5 41.5t-38.5 65.5t-9 86.5q2 30 8.5 69.5t15 81t18.5 80.5t21 69q15 41 37 78.5t53 66.5t71.5 46t92.5 17t90.5 -17.5t63 -46.5t33.5 -67.5t2 -80.5z
M452 770q-4 -16 -19 -16h-58q-7 0 -11 4.5t-2 11.5l13 59q1 6 6.5 11t12.5 5h58q7 0 11 -5t2 -11z" />
    <glyph glyph-name="cdotaccent" unicode="&#x10b;" horiz-adv-x="474" 
d="M374 163q2 10 9 13.5t14 3.5h21q8 0 12.5 -6t2.5 -14q-7 -34 -25 -64.5t-45 -54t-62.5 -37.5t-78.5 -14q-50 0 -85.5 15t-57 40.5t-29.5 60.5t-2 74q4 30 12.5 70t16.5 70q12 39 32.5 74t49.5 60.5t66 40.5t82 15q42 0 75.5 -14t56 -37.5t31.5 -54t2 -64.5q-2 -8 -8 -14
t-14 -6h-23q-7 0 -12 4t-3 12q5 22 0.5 43t-17.5 37t-35 25.5t-53 9.5q-41 0 -70 -13t-49 -32.5t-32 -42.5t-18 -43q-9 -31 -17.5 -70t-11.5 -70q-3 -20 0.5 -43t16 -42.5t35.5 -32.5t61 -13q37 0 64 10.5t45 27t28.5 36.5t14.5 40zM386 632q-4 -16 -19 -16h-58
q-7 0 -11 4.5t-2 11.5l13 59q1 6 6.5 11t12.5 5h58q7 0 11 -5t2 -11z" />
    <glyph glyph-name="Ccaron" unicode="&#x10c;" horiz-adv-x="532" 
d="M560 496q-2 -8 -9.5 -14t-15.5 -6h-25q-8 0 -12.5 6t-2.5 14q5 28 0.5 55t-19.5 47.5t-41 33t-64 12.5q-40 0 -70.5 -12t-53 -32.5t-38 -46.5t-25.5 -53q-11 -31 -21.5 -70t-19 -80t-14.5 -80t-8 -70q-2 -22 2.5 -47t18 -46.5t38.5 -36t66 -14.5q49 0 82 14.5t54 36
t32.5 47.5t19.5 50q2 8 9.5 14t15.5 6h27q8 0 12.5 -6t2.5 -14q-32 -101 -92.5 -156.5t-162.5 -55.5q-45 0 -82 14.5t-62.5 41.5t-38.5 65.5t-9 86.5q2 30 8.5 69.5t15 81t18.5 80.5t21 69q15 41 37 78.5t53 66.5t71.5 46t92.5 17t90.5 -17.5t63 -46.5t33.5 -67.5t2 -80.5z
M402 814q6 -7 14 0l82 65q5 5 14 10.5t20 5.5h45q10 0 11 -8t-5 -13l-141 -112q-6 -5 -12.5 -8.5t-19.5 -3.5h-22q-14 0 -19 3.5t-8 8.5l-95 112q-3 5 1.5 13t14.5 8h40q11 0 17.5 -5.5t10.5 -10.5z" />
    <glyph glyph-name="ccaron" unicode="&#x10d;" horiz-adv-x="474" 
d="M374 163q2 10 9 13.5t14 3.5h21q8 0 12.5 -6t2.5 -14q-7 -34 -25 -64.5t-45 -54t-62.5 -37.5t-78.5 -14q-50 0 -85.5 15t-57 40.5t-29.5 60.5t-2 74q4 30 12.5 70t16.5 70q12 39 32.5 74t49.5 60.5t66 40.5t82 15q42 0 75.5 -14t56 -37.5t31.5 -54t2 -64.5q-2 -8 -8 -14
t-14 -6h-23q-7 0 -12 4t-3 12q5 22 0.5 43t-17.5 37t-35 25.5t-53 9.5q-41 0 -70 -13t-49 -32.5t-32 -42.5t-18 -43q-9 -31 -17.5 -70t-11.5 -70q-3 -20 0.5 -43t16 -42.5t35.5 -32.5t61 -13q37 0 64 10.5t45 27t28.5 36.5t14.5 40zM338 649q6 -7 14 0l82 65q5 5 14 10.5
t20 5.5h45q10 0 11 -8t-5 -13l-141 -112q-6 -5 -12.5 -8.5t-19.5 -3.5h-22q-14 0 -19 3.5t-8 8.5l-95 112q-3 5 1.5 13t14.5 8h40q11 0 17.5 -5.5t10.5 -10.5z" />
    <glyph glyph-name="Dcaron" unicode="&#x10e;" horiz-adv-x="534" 
d="M231 636q-10 0 -12 -10l-117 -552q-2 -10 8 -10h123q46 0 78 13t53.5 33t34.5 44t21 46q11 31 21.5 70t19 80t14.5 80t8 70q2 27 -4 52t-21 43.5t-39.5 29.5t-60.5 11h-127zM358 700q49 0 86.5 -16t62 -43t35.5 -63.5t8 -77.5q-2 -30 -8.5 -69t-15 -80.5t-19 -81
t-20.5 -69.5q-34 -97 -96.5 -148.5t-157.5 -51.5h-191q-8 0 -13 6t-3 14l141 660q2 8 9 14t15 6h167zM362 814q6 -7 14 0l82 65q5 5 14 10.5t20 5.5h45q10 0 11 -8t-5 -13l-141 -112q-6 -5 -12.5 -8.5t-19.5 -3.5h-22q-14 0 -19 3.5t-8 8.5l-95 112q-3 5 1.5 13t14.5 8h40
q11 0 17.5 -5.5t10.5 -10.5z" />
    <glyph glyph-name="dcaron" unicode="&#x10f;" horiz-adv-x="583" 
d="M137 320q-10 -31 -18 -70t-11 -70q-2 -20 0.5 -43t14 -42.5t33 -32.5t58.5 -13q33 0 58.5 13t44 32.5t30.5 42.5t18 43q9 31 17 70t12 70q2 20 0 43t-12 42.5t-30 32.5t-53 13q-36 0 -63.5 -13t-47 -32.5t-32 -42.5t-19.5 -43zM210 -10q-43 0 -75.5 15t-54 40.5t-30 60.5
t-3.5 74q4 30 12.5 70t16.5 70q12 39 32 74t48.5 60.5t64 40.5t78.5 15q21 0 37.5 -5.5t30 -11.5t24 -11.5t19.5 -5.5q19 0 24 23l40 188q2 8 9.5 14t15.5 6h19q8 0 12.5 -6t2.5 -14l-141 -667q-2 -8 -9.5 -14t-15.5 -6h-16q-9 0 -12 7q-3 5 -7.5 10.5t-13.5 5.5
q-11 0 -20 -5t-20.5 -11.5t-27.5 -11.5t-40 -5zM539 505q-9 0 -13 7.5t3 16.5l39 51q4 5 2.5 10t-7.5 5h-5q-8 0 -13 6t-3 14l14 65q2 8 9 14t15 6h60q8 0 13 -6t3 -14l-15 -70q-5 -21 -12 -31.5t-15 -19.5l-32 -36q-5 -5 -12 -11.5t-21 -6.5h-10z" />
    <glyph glyph-name="Dcroat" unicode="&#x110;" horiz-adv-x="534" 
d="M102 74q-2 -10 8 -10h123q46 0 78 13t53.5 33t34.5 44t21 46q11 31 21.5 70t19 80t14.5 80t8 70q2 27 -4 52t-21 43.5t-39.5 29.5t-60.5 11h-127q-10 0 -12 -10l-48 -227q-2 -10 8 -10h100q8 0 13 -6t3 -14l-5 -23q-2 -8 -9 -14t-15 -6h-100q-10 0 -12 -10zM167 680
q2 8 9 14t15 6h167q49 0 86.5 -16t62 -43t35.5 -63.5t8 -77.5q-2 -30 -8.5 -69t-15 -80.5t-19 -81t-20.5 -69.5q-34 -97 -96.5 -148.5t-157.5 -51.5h-191q-8 0 -13 6t-3 14l64 296q2 10 -8 10h-32q-8 0 -13 6t-3 14l5 23q2 8 9 14t15 6h32q10 0 12 10z" />
    <glyph glyph-name="dcroat" unicode="&#x111;" horiz-adv-x="491" 
d="M137 320q-10 -31 -18 -70t-11 -70q-2 -20 0.5 -43t14 -42.5t33 -32.5t58.5 -13q33 0 58.5 13t44 32.5t30.5 42.5t18 43q9 31 17 70t12 70q2 20 0 43t-12 42.5t-30 32.5t-53 13q-36 0 -63.5 -13t-47 -32.5t-32 -42.5t-19.5 -43zM474 687q2 8 9.5 14t15.5 6h19q8 0 12.5 -6
t2.5 -14l-11 -50q-2 -10 8 -10h35q8 0 12.5 -6t2.5 -14l-2 -10q-2 -8 -9 -14t-15 -6h-35q-10 0 -12 -10l-115 -547q-2 -8 -9.5 -14t-15.5 -6h-16q-9 0 -12 7q-3 5 -7.5 10.5t-13.5 5.5q-11 0 -20 -5t-20.5 -11.5t-27.5 -11.5t-40 -5q-43 0 -75.5 15t-54 40.5t-30 60.5
t-3.5 74q4 30 12.5 70t16.5 70q12 39 32 74t48.5 60.5t64 40.5t78.5 15q21 0 37.5 -5.5t30 -11.5t24 -11.5t19.5 -5.5q19 0 24 23l14 68q2 10 -8 10h-70q-8 0 -13 6t-3 14l2 10q2 8 9.5 14t15.5 6h70q10 0 12 10z" />
    <glyph glyph-name="Emacron" unicode="&#x112;" horiz-adv-x="455" 
d="M102 74q-2 -10 8 -10h261q8 0 12.5 -6t2.5 -14l-5 -24q-2 -8 -9 -14t-15 -6h-315q-8 0 -13 6t-3 14l141 660q2 8 9 14t15 6h313q8 0 13 -6t3 -14l-5 -24q-2 -8 -9.5 -14t-15.5 -6h-259q-10 0 -12 -10l-48 -227q-2 -10 8 -10h248q8 0 13 -6t3 -14l-5 -23q-2 -8 -9.5 -14
t-15.5 -6h-248q-9 0 -12 -10zM491 825q8 0 13 -6t3 -14l-5 -20q-2 -8 -9 -14t-15 -6h-242q-8 0 -13 6t-3 14l5 20q2 8 9 14t15 6h242z" />
    <glyph glyph-name="emacron" unicode="&#x113;" horiz-adv-x="496" 
d="M305 451q-67 0 -112.5 -41t-62.5 -118q-2 -10 8 -10h270q10 0 12 10q17 77 -11.5 118t-103.5 41zM124 226q-9 0 -12 -10q-8 -36 -4 -66.5t19.5 -53t42 -35t65.5 -12.5q31 0 53.5 8t39.5 21.5t29 30t21 34.5q5 10 12 13.5t14 3.5h20q8 0 12.5 -4.5t0.5 -15.5
q-11 -33 -31 -60.5t-47.5 -47.5t-61.5 -31t-73 -11q-45 0 -80.5 15t-58.5 40.5t-33.5 60.5t-4.5 74q4 30 12.5 70t16.5 70q12 39 33 74t50.5 60.5t67.5 40.5t83 15q58 0 94.5 -19t55.5 -50t22 -70.5t-6 -80.5l-10 -44q-2 -8 -9.5 -14t-15.5 -6h-317zM485 694q8 0 13 -6
t3 -14l-5 -20q-2 -8 -9 -14t-15 -6h-242q-8 0 -13 6t-3 14l5 20q2 8 9 14t15 6h242z" />
    <glyph glyph-name="Ebreve" unicode="&#x114;" horiz-adv-x="455" 
d="M102 74q-2 -10 8 -10h261q8 0 12.5 -6t2.5 -14l-5 -24q-2 -8 -9 -14t-15 -6h-315q-8 0 -13 6t-3 14l141 660q2 8 9 14t15 6h313q8 0 13 -6t3 -14l-5 -24q-2 -8 -9.5 -14t-15.5 -6h-259q-10 0 -12 -10l-48 -227q-2 -10 8 -10h248q8 0 13 -6t3 -14l-5 -23q-2 -8 -9.5 -14
t-15.5 -6h-248q-9 0 -12 -10zM452 878q2 7 7.5 12t13.5 5h23q7 0 11 -5t2 -12q-6 -27 -19.5 -50t-34 -40.5t-46.5 -27.5t-56 -10t-54.5 10t-41 27.5t-23 40.5t-0.5 50q2 7 8 12t13 5h23q8 0 11.5 -5t1.5 -12q-7 -35 11.5 -55.5t53.5 -20.5t62 20.5t34 55.5z" />
    <glyph glyph-name="ebreve" unicode="&#x115;" horiz-adv-x="496" 
d="M305 451q-67 0 -112.5 -41t-62.5 -118q-2 -10 8 -10h270q10 0 12 10q17 77 -11.5 118t-103.5 41zM124 226q-9 0 -12 -10q-8 -36 -4 -66.5t19.5 -53t42 -35t65.5 -12.5q31 0 53.5 8t39.5 21.5t29 30t21 34.5q5 10 12 13.5t14 3.5h20q8 0 12.5 -4.5t0.5 -15.5
q-11 -33 -31 -60.5t-47.5 -47.5t-61.5 -31t-73 -11q-45 0 -80.5 15t-58.5 40.5t-33.5 60.5t-4.5 74q4 30 12.5 70t16.5 70q12 39 33 74t50.5 60.5t67.5 40.5t83 15q58 0 94.5 -19t55.5 -50t22 -70.5t-6 -80.5l-10 -44q-2 -8 -9.5 -14t-15.5 -6h-317zM437 713q2 7 7.5 12
t13.5 5h23q7 0 11 -5t2 -12q-6 -27 -19.5 -50t-34 -40.5t-46.5 -27.5t-56 -10t-54.5 10t-41 27.5t-23 40.5t-0.5 50q2 7 8 12t13 5h23q8 0 11.5 -5t1.5 -12q-7 -35 11.5 -55.5t53.5 -20.5t62 20.5t34 55.5z" />
    <glyph glyph-name="Edotaccent" unicode="&#x116;" horiz-adv-x="455" 
d="M102 74q-2 -10 8 -10h261q8 0 12.5 -6t2.5 -14l-5 -24q-2 -8 -9 -14t-15 -6h-315q-8 0 -13 6t-3 14l141 660q2 8 9 14t15 6h313q8 0 13 -6t3 -14l-5 -24q-2 -8 -9.5 -14t-15.5 -6h-259q-10 0 -12 -10l-48 -227q-2 -10 8 -10h248q8 0 13 -6t3 -14l-5 -23q-2 -8 -9.5 -14
t-15.5 -6h-248q-9 0 -12 -10zM402 770q-4 -16 -19 -16h-58q-7 0 -11 4.5t-2 11.5l13 59q1 6 6.5 11t12.5 5h58q7 0 11 -5t2 -11z" />
    <glyph glyph-name="edotaccent" unicode="&#x117;" horiz-adv-x="496" 
d="M305 451q-67 0 -112.5 -41t-62.5 -118q-2 -10 8 -10h270q10 0 12 10q17 77 -11.5 118t-103.5 41zM124 226q-9 0 -12 -10q-8 -36 -4 -66.5t19.5 -53t42 -35t65.5 -12.5q31 0 53.5 8t39.5 21.5t29 30t21 34.5q5 10 12 13.5t14 3.5h20q8 0 12.5 -4.5t0.5 -15.5
q-11 -33 -31 -60.5t-47.5 -47.5t-61.5 -31t-73 -11q-45 0 -80.5 15t-58.5 40.5t-33.5 60.5t-4.5 74q4 30 12.5 70t16.5 70q12 39 33 74t50.5 60.5t67.5 40.5t83 15q58 0 94.5 -19t55.5 -50t22 -70.5t-6 -80.5l-10 -44q-2 -8 -9.5 -14t-15.5 -6h-317zM389 632q-4 -16 -19 -16
h-58q-7 0 -11 4.5t-2 11.5l13 59q1 6 6.5 11t12.5 5h58q7 0 11 -5t2 -11z" />
    <glyph glyph-name="Eogonek" unicode="&#x118;" horiz-adv-x="455" 
d="M102 74q-2 -10 8 -10h261q8 0 12.5 -6t2.5 -14l-5 -24q-2 -8 -9 -14t-15 -6q-23 0 -45.5 -5.5t-40.5 -17.5t-29 -29.5t-11 -41.5q0 -32 24 -44t67 -12q8 0 12.5 -6t2.5 -14l-4 -20q-2 -8 -9 -14t-15 -6q-63 0 -102 29.5t-39 80.5q0 30 14.5 57.5t37.5 42.5h-178
q-8 0 -13 6t-3 14l141 660q2 8 9 14t15 6h313q8 0 13 -6t3 -14l-5 -24q-2 -8 -9.5 -14t-15.5 -6h-259q-10 0 -12 -10l-48 -227q-2 -10 8 -10h248q8 0 13 -6t3 -14l-5 -23q-2 -8 -9.5 -14t-15.5 -6h-248q-9 0 -12 -10z" />
    <glyph glyph-name="eogonek" unicode="&#x119;" horiz-adv-x="496" 
d="M112 216q-8 -35 -4.5 -65.5t19 -53t42.5 -35.5t66 -13q31 0 53.5 8t39.5 21.5t29 30t21 34.5q5 10 12 13.5t14 3.5h20q8 0 12.5 -4.5t0.5 -15.5q-10 -28 -25.5 -52.5t-37.5 -42.5q-22 -19 -44 -34t-39 -30.5t-28 -33t-11 -41.5q0 -32 24 -44t67 -12q8 0 12.5 -6t2.5 -14
l-4 -20q-2 -8 -9 -14t-15 -6q-63 0 -102 29.5t-39 80.5q0 28 12 50.5t31 39.5h-8q-45 0 -80.5 15t-58.5 40.5t-33.5 60.5t-4.5 74q4 30 12.5 70t16.5 70q12 39 33 74t50.5 60.5t67.5 40.5t83 15q58 0 94.5 -19t55.5 -50t22 -70.5t-6 -80.5l-10 -44q-2 -8 -9.5 -14t-15.5 -6
h-317q-10 0 -12 -10zM130 292q-2 -10 8 -10h270q10 0 12 10q17 77 -11.5 118t-103.5 41q-67 0 -112.5 -41t-62.5 -118z" />
    <glyph glyph-name="Ecaron" unicode="&#x11a;" horiz-adv-x="455" 
d="M102 74q-2 -10 8 -10h261q8 0 12.5 -6t2.5 -14l-5 -24q-2 -8 -9 -14t-15 -6h-315q-8 0 -13 6t-3 14l141 660q2 8 9 14t15 6h313q8 0 13 -6t3 -14l-5 -24q-2 -8 -9.5 -14t-15.5 -6h-259q-10 0 -12 -10l-48 -227q-2 -10 8 -10h248q8 0 13 -6t3 -14l-5 -23q-2 -8 -9.5 -14
t-15.5 -6h-248q-9 0 -12 -10zM352 814q6 -7 14 0l82 65q5 5 14 10.5t20 5.5h45q10 0 11 -8t-5 -13l-141 -112q-6 -5 -12.5 -8.5t-19.5 -3.5h-22q-14 0 -19 3.5t-8 8.5l-95 112q-3 5 1.5 13t14.5 8h40q11 0 17.5 -5.5t10.5 -10.5z" />
    <glyph glyph-name="ecaron" unicode="&#x11b;" horiz-adv-x="496" 
d="M305 451q-67 0 -112.5 -41t-62.5 -118q-2 -10 8 -10h270q10 0 12 10q17 77 -11.5 118t-103.5 41zM124 226q-9 0 -12 -10q-8 -36 -4 -66.5t19.5 -53t42 -35t65.5 -12.5q31 0 53.5 8t39.5 21.5t29 30t21 34.5q5 10 12 13.5t14 3.5h20q8 0 12.5 -4.5t0.5 -15.5
q-11 -33 -31 -60.5t-47.5 -47.5t-61.5 -31t-73 -11q-45 0 -80.5 15t-58.5 40.5t-33.5 60.5t-4.5 74q4 30 12.5 70t16.5 70q12 39 33 74t50.5 60.5t67.5 40.5t83 15q58 0 94.5 -19t55.5 -50t22 -70.5t-6 -80.5l-10 -44q-2 -8 -9.5 -14t-15.5 -6h-317zM351 649q6 -7 14 0
l82 65q5 5 14 10.5t20 5.5h45q10 0 11 -8t-5 -13l-141 -112q-6 -5 -12.5 -8.5t-19.5 -3.5h-22q-14 0 -19 3.5t-8 8.5l-95 112q-3 5 1.5 13t14.5 8h40q11 0 17.5 -5.5t10.5 -10.5z" />
    <glyph glyph-name="Gcircumflex" unicode="&#x11c;" horiz-adv-x="536" 
d="M456 308q2 10 -8 10h-119q-8 0 -13 6t-3 14l5 24q2 8 9 14t15 6h174q8 0 13 -6t3 -14l-33 -158q-22 -103 -86.5 -157.5t-166.5 -54.5q-45 0 -82 14.5t-62.5 41.5t-38.5 65.5t-9 86.5q2 30 8.5 69.5t15 81t18.5 80.5t21 69q15 41 37 78.5t53 66.5t71.5 46t92.5 17
t90.5 -17.5t63 -46.5t33.5 -67.5t2 -80.5q-2 -8 -9.5 -14t-15.5 -6h-25q-8 0 -12.5 6t-2.5 14q5 28 0.5 55t-19.5 47.5t-41 33t-64 12.5q-40 0 -70.5 -12t-53 -32.5t-38 -46.5t-25.5 -53q-11 -31 -21.5 -70t-19 -80t-14.5 -80t-8 -70q-2 -22 2.5 -47t18 -46.5t38.5 -36
t66 -14.5q49 0 82.5 14t54.5 35.5t32 48t17 50.5zM335 766q-5 -5 -14 -10.5t-20 -5.5h-47q-10 0 -11 8t5 13l141 112q6 5 12.5 8.5t20.5 3.5h21q14 0 19 -3.5t8 -8.5l95 -112q4 -4 -1 -12.5t-15 -8.5h-39q-11 0 -17.5 5.5t-10.5 10.5l-53 65q-6 7 -14 0z" />
    <glyph glyph-name="gcircumflex" unicode="&#x11d;" horiz-adv-x="493" 
d="M371 180q9 31 17 70t12 70q2 20 0 43t-12 42.5t-30 32.5t-53 13q-41 0 -69 -13t-46.5 -32.5t-29 -42.5t-17.5 -43q-10 -31 -18 -70t-11 -70q-2 -20 0.5 -43t14 -42.5t33.5 -32.5t58 -13q33 0 58.5 13t44 32.5t30.5 42.5t18 43zM305 510q28 0 45.5 -5t29.5 -11.5t21 -11.5
t20 -5q9 0 15.5 5.5t11.5 10.5q9 7 16 7h16q8 0 12.5 -6t2.5 -14l-108 -510q-19 -90 -73.5 -135t-129.5 -45q-35 0 -64.5 10t-51 28t-33.5 43.5t-12 55.5q0 23 23 23h14q16 0 18 -6t4 -14q5 -32 29.5 -56.5t72.5 -24.5q60 0 96 32t48 89l5 24q2 7 -2.5 14t-15.5 7
q-8 0 -16.5 -4t-20 -8.5t-25.5 -8.5t-33 -4q-46 0 -80 15t-55 40.5t-29.5 60.5t-2.5 74q4 30 12.5 70t16.5 70q12 39 29.5 74t44 60.5t63 40.5t86.5 15zM282 601q-5 -5 -14 -10.5t-20 -5.5h-47q-10 0 -11 8t5 13l141 112q6 5 12.5 8.5t20.5 3.5h21q14 0 19 -3.5t8 -8.5
l95 -112q4 -4 -1 -12.5t-15 -8.5h-39q-11 0 -17.5 5.5t-10.5 10.5l-53 65q-6 7 -14 0z" />
    <glyph glyph-name="Gbreve" unicode="&#x11e;" horiz-adv-x="536" 
d="M456 308q2 10 -8 10h-119q-8 0 -13 6t-3 14l5 24q2 8 9 14t15 6h174q8 0 13 -6t3 -14l-33 -158q-22 -103 -86.5 -157.5t-166.5 -54.5q-45 0 -82 14.5t-62.5 41.5t-38.5 65.5t-9 86.5q2 30 8.5 69.5t15 81t18.5 80.5t21 69q15 41 37 78.5t53 66.5t71.5 46t92.5 17
t90.5 -17.5t63 -46.5t33.5 -67.5t2 -80.5q-2 -8 -9.5 -14t-15.5 -6h-25q-8 0 -12.5 6t-2.5 14q5 28 0.5 55t-19.5 47.5t-41 33t-64 12.5q-40 0 -70.5 -12t-53 -32.5t-38 -46.5t-25.5 -53q-11 -31 -21.5 -70t-19 -80t-14.5 -80t-8 -70q-2 -22 2.5 -47t18 -46.5t38.5 -36
t66 -14.5q49 0 82.5 14t54.5 35.5t32 48t17 50.5zM502 878q2 7 7.5 12t13.5 5h23q7 0 11 -5t2 -12q-6 -27 -19.5 -50t-34 -40.5t-46.5 -27.5t-56 -10t-54.5 10t-41 27.5t-23 40.5t-0.5 50q2 7 8 12t13 5h23q8 0 11.5 -5t1.5 -12q-7 -35 11.5 -55.5t53.5 -20.5t62 20.5
t34 55.5z" />
    <glyph glyph-name="gbreve" unicode="&#x11f;" horiz-adv-x="493" 
d="M371 180q9 31 17 70t12 70q2 20 0 43t-12 42.5t-30 32.5t-53 13q-41 0 -69 -13t-46.5 -32.5t-29 -42.5t-17.5 -43q-10 -31 -18 -70t-11 -70q-2 -20 0.5 -43t14 -42.5t33.5 -32.5t58 -13q33 0 58.5 13t44 32.5t30.5 42.5t18 43zM305 510q28 0 45.5 -5t29.5 -11.5t21 -11.5
t20 -5q9 0 15.5 5.5t11.5 10.5q9 7 16 7h16q8 0 12.5 -6t2.5 -14l-108 -510q-19 -90 -73.5 -135t-129.5 -45q-35 0 -64.5 10t-51 28t-33.5 43.5t-12 55.5q0 23 23 23h14q16 0 18 -6t4 -14q5 -32 29.5 -56.5t72.5 -24.5q60 0 96 32t48 89l5 24q2 7 -2.5 14t-15.5 7
q-8 0 -16.5 -4t-20 -8.5t-25.5 -8.5t-33 -4q-46 0 -80 15t-55 40.5t-29.5 60.5t-2.5 74q4 30 12.5 70t16.5 70q12 39 29.5 74t44 60.5t63 40.5t86.5 15zM432 713q2 7 7.5 12t13.5 5h23q7 0 11 -5t2 -12q-6 -27 -19.5 -50t-34 -40.5t-46.5 -27.5t-56 -10t-54.5 10t-41 27.5
t-23 40.5t-0.5 50q2 7 8 12t13 5h23q8 0 11.5 -5t1.5 -12q-7 -35 11.5 -55.5t53.5 -20.5t62 20.5t34 55.5z" />
    <glyph glyph-name="Gdotaccent" unicode="&#x120;" horiz-adv-x="536" 
d="M456 308q2 10 -8 10h-119q-8 0 -13 6t-3 14l5 24q2 8 9 14t15 6h174q8 0 13 -6t3 -14l-33 -158q-22 -103 -86.5 -157.5t-166.5 -54.5q-45 0 -82 14.5t-62.5 41.5t-38.5 65.5t-9 86.5q2 30 8.5 69.5t15 81t18.5 80.5t21 69q15 41 37 78.5t53 66.5t71.5 46t92.5 17
t90.5 -17.5t63 -46.5t33.5 -67.5t2 -80.5q-2 -8 -9.5 -14t-15.5 -6h-25q-8 0 -12.5 6t-2.5 14q5 28 0.5 55t-19.5 47.5t-41 33t-64 12.5q-40 0 -70.5 -12t-53 -32.5t-38 -46.5t-25.5 -53q-11 -31 -21.5 -70t-19 -80t-14.5 -80t-8 -70q-2 -22 2.5 -47t18 -46.5t38.5 -36
t66 -14.5q49 0 82.5 14t54.5 35.5t32 48t17 50.5zM452 770q-4 -16 -19 -16h-58q-7 0 -11 4.5t-2 11.5l13 59q1 6 6.5 11t12.5 5h58q7 0 11 -5t2 -11z" />
    <glyph glyph-name="gdotaccent" unicode="&#x121;" horiz-adv-x="493" 
d="M371 180q9 31 17 70t12 70q2 20 0 43t-12 42.5t-30 32.5t-53 13q-41 0 -69 -13t-46.5 -32.5t-29 -42.5t-17.5 -43q-10 -31 -18 -70t-11 -70q-2 -20 0.5 -43t14 -42.5t33.5 -32.5t58 -13q33 0 58.5 13t44 32.5t30.5 42.5t18 43zM305 510q28 0 45.5 -5t29.5 -11.5t21 -11.5
t20 -5q9 0 15.5 5.5t11.5 10.5q9 7 16 7h16q8 0 12.5 -6t2.5 -14l-108 -510q-19 -90 -73.5 -135t-129.5 -45q-35 0 -64.5 10t-51 28t-33.5 43.5t-12 55.5q0 23 23 23h14q16 0 18 -6t4 -14q5 -32 29.5 -56.5t72.5 -24.5q60 0 96 32t48 89l5 24q2 7 -2.5 14t-15.5 7
q-8 0 -16.5 -4t-20 -8.5t-25.5 -8.5t-33 -4q-46 0 -80 15t-55 40.5t-29.5 60.5t-2.5 74q4 30 12.5 70t16.5 70q12 39 29.5 74t44 60.5t63 40.5t86.5 15zM394 632q-4 -16 -19 -16h-58q-7 0 -11 4.5t-2 11.5l13 59q1 6 6.5 11t12.5 5h58q7 0 11 -5t2 -11z" />
    <glyph glyph-name="Gcommaaccent" unicode="&#x122;" horiz-adv-x="536" 
d="M456 308q2 10 -8 10h-119q-8 0 -13 6t-3 14l5 24q2 8 9 14t15 6h174q8 0 13 -6t3 -14l-33 -158q-22 -103 -86.5 -157.5t-166.5 -54.5q-45 0 -82 14.5t-62.5 41.5t-38.5 65.5t-9 86.5q2 30 8.5 69.5t15 81t18.5 80.5t21 69q15 41 37 78.5t53 66.5t71.5 46t92.5 17
t90.5 -17.5t63 -46.5t33.5 -67.5t2 -80.5q-2 -8 -9.5 -14t-15.5 -6h-25q-8 0 -12.5 6t-2.5 14q5 28 0.5 55t-19.5 47.5t-41 33t-64 12.5q-40 0 -70.5 -12t-53 -32.5t-38 -46.5t-25.5 -53q-11 -31 -21.5 -70t-19 -80t-14.5 -80t-8 -70q-2 -22 2.5 -47t18 -46.5t38.5 -36
t66 -14.5q49 0 82.5 14t54.5 35.5t32 48t17 50.5zM151 -240q-9 0 -13 7.5t3 16.5l39 51q4 5 2.5 10t-7.5 5h-5q-8 0 -13 6t-3 14l14 65q2 8 9 14t15 6h60q8 0 13 -6t3 -14l-15 -70q-5 -21 -12 -31.5t-15 -19.5l-32 -36q-5 -5 -12 -11.5t-21 -6.5h-10z" />
    <glyph glyph-name="gcommaaccent" unicode="&#x123;" horiz-adv-x="493" 
d="M371 180q9 31 17 70t12 70q2 20 0 43t-12 42.5t-30 32.5t-53 13q-41 0 -69 -13t-46.5 -32.5t-29 -42.5t-17.5 -43q-10 -31 -18 -70t-11 -70q-2 -20 0.5 -43t14 -42.5t33.5 -32.5t58 -13q33 0 58.5 13t44 32.5t30.5 42.5t18 43zM305 510q28 0 45.5 -5t29.5 -11.5t21 -11.5
t20 -5q9 0 15.5 5.5t11.5 10.5q9 7 16 7h16q8 0 12.5 -6t2.5 -14l-108 -510q-19 -90 -73.5 -135t-129.5 -45q-35 0 -64.5 10t-51 28t-33.5 43.5t-12 55.5q0 23 23 23h14q16 0 18 -6t4 -14q5 -32 29.5 -56.5t72.5 -24.5q60 0 96 32t48 89l5 24q2 7 -2.5 14t-15.5 7
q-8 0 -16.5 -4t-20 -8.5t-25.5 -8.5t-33 -4q-46 0 -80 15t-55 40.5t-29.5 60.5t-2.5 74q4 30 12.5 70t16.5 70q12 39 29.5 74t44 60.5t63 40.5t86.5 15zM415 780q9 0 13 -7.5t-3 -16.5l-39 -51q-4 -5 -2.5 -10t7.5 -5h5q8 0 13 -6t3 -14l-14 -65q-2 -8 -9 -14t-15 -6h-60
q-8 0 -13 6t-3 14l15 70q5 21 12 31.5t15 19.5l32 36q5 5 12 11.5t21 6.5h10z" />
    <glyph glyph-name="Hcircumflex" unicode="&#x124;" horiz-adv-x="535" 
d="M171 400q-2 -10 8 -10h262q10 0 12 10l60 280q2 8 9 14t15 6h24q8 0 13 -6t3 -14l-141 -660q-2 -8 -9 -14t-15 -6h-24q-8 0 -13 6t-3 14l63 296q3 10 -8 10h-262q-9 0 -12 -10l-63 -296q-2 -8 -9 -14t-15 -6h-24q-8 0 -13 6t-3 14l141 660q2 8 9 14t15 6h24q8 0 13 -6
t3 -14zM325 766q-5 -5 -14 -10.5t-20 -5.5h-47q-10 0 -11 8t5 13l141 112q6 5 12.5 8.5t20.5 3.5h21q14 0 19 -3.5t8 -8.5l95 -112q4 -4 -1 -12.5t-15 -8.5h-39q-11 0 -17.5 5.5t-10.5 10.5l-53 65q-6 7 -14 0z" />
    <glyph glyph-name="hcircumflex" unicode="&#x125;" horiz-adv-x="478" 
d="M396 336q11 51 -16.5 83t-81.5 32q-27 0 -51 -8.5t-43.5 -23.5t-32.5 -35t-18 -43l-68 -321q-2 -8 -9.5 -14t-15.5 -6h-19q-8 0 -12.5 6t-2.5 14l141 667q2 8 9.5 14t15.5 6h19q8 0 12.5 -6t2.5 -14l-38 -181q-2 -7 2 -14t15 -7q7 0 16 4t20.5 8.5t27.5 8.5t37 4
q37 0 68 -13t51.5 -36.5t29 -55.5t0.5 -69l-67 -316q-2 -8 -9.5 -14t-15.5 -6h-19q-8 0 -12.5 6t-2.5 14zM265 766q-5 -5 -14 -10.5t-20 -5.5h-47q-10 0 -11 8t5 13l141 112q6 5 12.5 8.5t20.5 3.5h21q14 0 19 -3.5t8 -8.5l95 -112q4 -4 -1 -12.5t-15 -8.5h-39
q-11 0 -17.5 5.5t-10.5 10.5l-53 65q-6 7 -14 0z" />
    <glyph glyph-name="Hbar" unicode="&#x126;" horiz-adv-x="535" 
d="M210 585q-2 -10 8 -10h262q10 0 12 10l21 95q2 8 9 14t15 6h24q8 0 13 -6t3 -14l-141 -660q-2 -8 -9 -14t-15 -6h-24q-8 0 -13 6t-3 14l63 296q2 10 -8 10h-262q-10 0 -12 -10l-63 -296q-2 -8 -9 -14t-15 -6h-24q-8 0 -13 6t-3 14l141 660q2 8 9 14t15 6h24q8 0 13 -6
t3 -14zM171 400q-2 -10 8 -10h262q10 0 12 10l22 101q2 10 -8 10h-262q-10 0 -12 -10z" />
    <glyph glyph-name="hbar" unicode="&#x127;" horiz-adv-x="478" 
d="M188 506q-2 -7 2 -14t15 -7q7 0 16 4t20.5 8.5t27.5 8.5t37 4q37 0 68 -13t51.5 -36.5t29 -55.5t0.5 -69l-67 -316q-2 -8 -9.5 -14t-15.5 -6h-19q-8 0 -12.5 6t-2.5 14l67 316q11 51 -16.5 83t-81.5 32q-27 0 -51 -8.5t-43.5 -23.5t-32.5 -35t-18 -43l-68 -321
q-2 -8 -9.5 -14t-15.5 -6h-19q-8 0 -12.5 6t-2.5 14l116 547q2 10 -8 10h-35q-8 0 -12.5 6t-2.5 14l2 10q2 8 9 14t15 6h35q10 0 12 10l10 50q2 8 9.5 14t15.5 6h19q8 0 12.5 -6t2.5 -14l-10 -50q-2 -10 8 -10h70q8 0 13 -6t3 -14l-2 -10q-2 -8 -9.5 -14t-15.5 -6h-70
q-10 0 -12 -10z" />
    <glyph glyph-name="Itilde" unicode="&#x128;" horiz-adv-x="189" 
d="M90 20q-2 -8 -9 -14t-15 -6h-24q-8 0 -13 6t-3 14l141 660q2 8 9 14t15 6h24q8 0 13 -6t3 -14zM309 832q19 0 30.5 6.5t19.5 14.5t16.5 4t5.5 -18l-5 -24q-4 -20 -27.5 -35.5t-53.5 -15.5q-24 0 -38.5 4t-27.5 8.5t-28.5 8.5t-40.5 4q-17 0 -28.5 -5.5t-22.5 -15.5
q-8 -7 -16.5 -3.5t-5.5 17.5l5 24q4 20 28 35.5t54 15.5q24 0 38.5 -4t27.5 -8.5t28 -8.5t41 -4z" />
    <glyph glyph-name="itilde" unicode="&#x129;" horiz-adv-x="197" 
d="M254 676q19 0 30.5 6.5t19.5 14.5t16.5 4t5.5 -18l-5 -24q-4 -20 -27.5 -35.5t-53.5 -15.5q-24 0 -38.5 4t-27.5 8.5t-28.5 8.5t-40.5 4q-17 0 -28.5 -5.5t-22.5 -15.5q-8 -7 -16.5 -3.5t-5.5 17.5l5 24q4 20 28 35.5t54 15.5q24 0 38.5 -4t27.5 -8.5t28 -8.5t41 -4z
M123 480q2 8 9.5 14t15.5 6h20q8 0 12.5 -6t2.5 -14l-97 -460q-2 -8 -9.5 -14t-15.5 -6h-20q-8 0 -12.5 6t-2.5 14z" />
    <glyph glyph-name="Imacron" unicode="&#x12a;" horiz-adv-x="189" 
d="M90 20q-2 -8 -9 -14t-15 -6h-24q-8 0 -13 6t-3 14l141 660q2 8 9 14t15 6h24q8 0 13 -6t3 -14zM351 825q8 0 13 -6t3 -14l-5 -20q-2 -8 -9 -14t-15 -6h-242q-8 0 -13 6t-3 14l5 20q2 8 9 14t15 6h242z" />
    <glyph glyph-name="imacron" unicode="&#x12b;" horiz-adv-x="197" 
d="M316 694q8 0 13 -6t3 -14l-5 -20q-2 -8 -9 -14t-15 -6h-242q-8 0 -13 6t-3 14l5 20q2 8 9 14t15 6h242zM123 480q2 8 9.5 14t15.5 6h20q8 0 12.5 -6t2.5 -14l-97 -460q-2 -8 -9.5 -14t-15.5 -6h-20q-8 0 -12.5 6t-2.5 14z" />
    <glyph glyph-name="Ibreve" unicode="&#x12c;" horiz-adv-x="189" 
d="M90 20q-2 -8 -9 -14t-15 -6h-24q-8 0 -13 6t-3 14l141 660q2 8 9 14t15 6h24q8 0 13 -6t3 -14zM315 878q2 7 7.5 12t13.5 5h23q7 0 11 -5t2 -12q-6 -27 -19.5 -50t-34 -40.5t-46.5 -27.5t-56 -10t-54.5 10t-41 27.5t-23 40.5t-0.5 50q2 7 8 12t13 5h23q8 0 11.5 -5
t1.5 -12q-7 -35 11.5 -55.5t53.5 -20.5t62 20.5t34 55.5z" />
    <glyph glyph-name="ibreve" unicode="&#x12d;" horiz-adv-x="197" 
d="M276 713q2 7 7.5 12t13.5 5h23q7 0 11 -5t2 -12q-6 -27 -19.5 -50t-34 -40.5t-46.5 -27.5t-56 -10t-54.5 10t-41 27.5t-23 40.5t-0.5 50q2 7 8 12t13 5h23q8 0 11.5 -5t1.5 -12q-7 -35 11.5 -55.5t53.5 -20.5t62 20.5t34 55.5zM123 480q2 8 9.5 14t15.5 6h20q8 0 12.5 -6
t2.5 -14l-97 -460q-2 -8 -9.5 -14t-15.5 -6h-20q-8 0 -12.5 6t-2.5 14z" />
    <glyph glyph-name="Iogonek" unicode="&#x12e;" horiz-adv-x="189" 
d="M90 20q-2 -8 -8.5 -14t-14.5 -6h-12q-20 0 -40.5 -6t-36.5 -18t-26 -29.5t-10 -40.5q0 -32 24 -44t67 -12q8 0 12.5 -6t2.5 -14l-4 -20q-2 -8 -9 -14t-15 -6q-63 0 -102 29.5t-39 80.5q0 32 13 58t34.5 46t49 33t57.5 19l134 624q2 8 9 14t15 6h24q8 0 13 -6t3 -14z" />
    <glyph glyph-name="iogonek" unicode="&#x12f;" horiz-adv-x="197" 
d="M228 638q-4 -16 -19 -16h-52q-7 0 -11 4.5t-2 11.5l11 53q2 6 7.5 11t12.5 5h52q7 0 10.5 -5t1.5 -11zM123 480q2 8 9.5 14t15.5 6h20q8 0 12.5 -6t2.5 -14l-97 -460q-2 -8 -9.5 -14t-15.5 -6q-22 0 -44 -5.5t-39.5 -17.5t-28.5 -29.5t-11 -41.5q0 -32 24 -44t67 -12
q8 0 12.5 -6t2.5 -14l-4 -20q-2 -8 -9 -14t-15 -6q-63 0 -102 29.5t-39 80.5q0 32 13.5 58.5t35.5 46.5t50.5 33t58.5 18z" />
    <glyph glyph-name="Idotaccent" unicode="&#x130;" horiz-adv-x="189" 
d="M90 20q-2 -8 -9 -14t-15 -6h-24q-8 0 -13 6t-3 14l141 660q2 8 9 14t15 6h24q8 0 13 -6t3 -14zM264 770q-4 -16 -19 -16h-58q-7 0 -11 4.5t-2 11.5l13 59q1 6 6.5 11t12.5 5h58q7 0 11 -5t2 -11z" />
    <glyph glyph-name="dotlessi" unicode="&#x131;" horiz-adv-x="197" 
d="M123 480q2 8 9.5 14t15.5 6h20q8 0 12.5 -6t2.5 -14l-97 -460q-2 -8 -9.5 -14t-15.5 -6h-20q-8 0 -12.5 6t-2.5 14z" />
    <glyph glyph-name="Jcircumflex" unicode="&#x134;" horiz-adv-x="458" 
d="M10 200q2 8 9 14t15 6h25q8 0 12.5 -6t2.5 -14l-1 -8q-3 -27 3 -52t20.5 -43.5t37.5 -29.5t53 -11q62 0 103.5 37.5t55.5 106.5l101 480q2 8 9.5 14t15.5 6h24q8 0 12.5 -6t2.5 -14l-103 -488q-9 -45 -29 -82t-49 -63t-67 -40.5t-84 -14.5q-41 0 -75 15.5t-56.5 42.5
t-33 63.5t-5.5 78.5zM425 766q-5 -5 -14 -10.5t-20 -5.5h-47q-10 0 -11 8t5 13l141 112q6 5 12.5 8.5t20.5 3.5h21q14 0 19 -3.5t8 -8.5l95 -112q4 -4 -1 -12.5t-15 -8.5h-39q-11 0 -17.5 5.5t-10.5 10.5l-53 65q-6 7 -14 0z" />
    <glyph glyph-name="jcircumflex" unicode="&#x135;" horiz-adv-x="216" 
d="M142 480q2 8 9 14t15 6h20q8 0 13 -6t3 -14l-109 -510q-20 -96 -68 -138t-136 -42h-42q-8 0 -13 6t-3 14l4 19q2 8 9.5 14t15.5 6h42q21 0 41.5 5.5t37.5 19t30.5 37t21.5 59.5zM131 601q-5 -5 -14 -10.5t-20 -5.5h-47q-10 0 -11 8t5 13l141 112q6 5 12.5 8.5t20.5 3.5
h21q14 0 18.5 -4t8.5 -8l95 -112q4 -4 -1 -12.5t-15 -8.5h-39q-11 0 -17.5 5.5t-10.5 10.5l-53 65q-6 7 -14 0z" />
    <glyph glyph-name="Kcommaaccent" unicode="&#x136;" horiz-adv-x="462" 
d="M162 313q-2 2 -5 2t-4 -4l-63 -291q-2 -8 -9 -14t-15 -6h-24q-8 0 -13 6t-3 14l141 660q2 8 9 14t15 6h24q8 0 13 -6t3 -14l-52 -250q-1 -4 2 -4t5 2l281 263q5 4 11 6.5t17 2.5h20q16 0 19.5 -12.5t-6.5 -21.5l-308 -289q-14 -12 -6 -24l195 -316q8 -13 2 -25t-23 -12
h-19q-11 0 -16 5t-7 8zM106 -240q-9 0 -13 7.5t3 16.5l39 51q4 5 2.5 10t-7.5 5h-5q-8 0 -13 6t-3 14l14 65q2 8 9 14t15 6h60q8 0 13 -6t3 -14l-15 -70q-5 -21 -12 -31.5t-15 -19.5l-32 -36q-5 -5 -12 -11.5t-21 -6.5h-10z" />
    <glyph glyph-name="kcommaaccent" unicode="&#x137;" horiz-adv-x="398" 
d="M193 278q-14 -11 -5 -24l163 -221q8 -10 3.5 -21.5t-22.5 -11.5h-22q-11 0 -17.5 5.5t-8.5 9.5l-149 205q-2 2 -5 2t-4 -4l-41 -198q-2 -8 -9.5 -14t-15.5 -6h-19q-8 0 -12.5 6t-2.5 14l141 667q2 8 9.5 14t15.5 6h19q8 0 12.5 -6t2.5 -14l-77 -364q-1 -4 1.5 -4.5
t5.5 2.5l209 166q5 4 12.5 8.5t18.5 4.5h24q14 0 17.5 -11.5t-6.5 -19.5zM58 -240q-9 0 -13 7.5t3 16.5l39 51q4 5 2.5 10t-7.5 5h-5q-8 0 -13 6t-3 14l14 65q2 8 9 14t15 6h60q8 0 13 -6t3 -14l-15 -70q-5 -21 -12 -31.5t-15 -19.5l-32 -36q-5 -5 -12 -11.5t-21 -6.5h-10z
" />
    <glyph glyph-name="kgreenlandic" unicode="&#x138;" horiz-adv-x="463" 
d="M194 278q-14 -11 -5 -24l163 -221q8 -10 3.5 -21.5t-22.5 -11.5h-22q-11 0 -17.5 5.5t-8.5 9.5l-149 205q-2 2 -5 2t-4 -4l-41 -198q-2 -8 -9.5 -14t-15.5 -6h-19q-8 0 -12.5 6t-2.5 14l97 460q2 8 9.5 14t15.5 6h19q8 0 12.5 -6t2.5 -14l-34 -161q-1 -4 1.5 -4.5
t5.5 2.5l210 170q5 4 12.5 8.5t18.5 4.5h24q14 0 17.5 -11.5t-6.5 -19.5z" />
    <glyph glyph-name="Lacute" unicode="&#x139;" horiz-adv-x="402" 
d="M102 74q-2 -10 8 -10h245q8 0 12.5 -6t2.5 -14l-5 -24q-2 -8 -9 -14t-15 -6h-299q-8 0 -13 6t-3 14l141 660q2 8 9 14t15 6h24q8 0 13 -6t3 -14zM344 895q10 0 11 -8t-5 -13l-131 -112q-6 -5 -12.5 -8.5t-20.5 -3.5h-19q-10 0 -12.5 7.5t2.5 12.5l100 109q5 5 11.5 10.5
t17.5 5.5h58z" />
    <glyph glyph-name="lacute" unicode="&#x13a;" horiz-adv-x="185" 
d="M86 20q-2 -8 -9.5 -14t-15.5 -6h-20q-8 0 -12.5 6t-2.5 14l141 667q2 8 9.5 14t15.5 6h20q8 0 12.5 -6t2.5 -14zM364 895q10 0 11 -8t-5 -13l-131 -112q-6 -5 -12.5 -8.5t-20.5 -3.5h-19q-10 0 -12.5 7.5t2.5 12.5l100 109q5 5 11.5 10.5t17.5 5.5h58z" />
    <glyph glyph-name="Lcommaaccent" unicode="&#x13b;" horiz-adv-x="402" 
d="M102 74q-2 -10 8 -10h245q8 0 12.5 -6t2.5 -14l-5 -24q-2 -8 -9 -14t-15 -6h-299q-8 0 -13 6t-3 14l141 660q2 8 9 14t15 6h24q8 0 13 -6t3 -14zM74 -240q-9 0 -13 7.5t3 16.5l39 51q4 5 2.5 10t-7.5 5h-5q-8 0 -13 6t-3 14l14 65q2 8 9 14t15 6h60q8 0 13 -6t3 -14
l-15 -70q-5 -21 -12 -31.5t-15 -19.5l-32 -36q-5 -5 -12 -11.5t-21 -6.5h-10z" />
    <glyph glyph-name="lcommaaccent" unicode="&#x13c;" horiz-adv-x="185" 
d="M86 20q-2 -8 -9.5 -14t-15.5 -6h-20q-8 0 -12.5 6t-2.5 14l141 667q2 8 9.5 14t15.5 6h20q8 0 12.5 -6t2.5 -14zM-33 -240q-9 0 -13 7.5t3 16.5l39 51q4 5 2.5 10t-7.5 5h-5q-8 0 -13 6t-3 14l14 65q2 8 9 14t15 6h60q8 0 13 -6t3 -14l-15 -70q-5 -21 -12 -31.5
t-15 -19.5l-32 -36q-5 -5 -12 -11.5t-21 -6.5h-10z" />
    <glyph glyph-name="Lcaron" unicode="&#x13d;" horiz-adv-x="402" 
d="M102 74q-2 -10 8 -10h245q8 0 12.5 -6t2.5 -14l-5 -24q-2 -8 -9 -14t-15 -6h-299q-8 0 -13 6t-3 14l141 660q2 8 9 14t15 6h24q8 0 13 -6t3 -14zM252 505q-9 0 -13 7.5t3 16.5l39 51q4 5 2.5 10t-7.5 5h-5q-8 0 -13 6t-3 14l14 65q2 8 9 14t15 6h60q8 0 13 -6t3 -14
l-15 -70q-5 -21 -12 -31.5t-15 -19.5l-32 -36q-5 -5 -12 -11.5t-21 -6.5h-10z" />
    <glyph glyph-name="lcaron" unicode="&#x13e;" horiz-adv-x="254" 
d="M86 20q-2 -8 -9.5 -14t-15.5 -6h-20q-8 0 -12.5 6t-2.5 14l141 667q2 8 9.5 14t15.5 6h20q8 0 12.5 -6t2.5 -14zM232 505q-9 0 -13 7.5t3 16.5l39 51q4 5 2.5 10t-7.5 5h-5q-8 0 -13 6t-3 14l14 65q2 8 9 14t15 6h60q8 0 13 -6t3 -14l-15 -70q-5 -21 -12 -31.5t-15 -19.5
l-32 -36q-5 -5 -12 -11.5t-21 -6.5h-10z" />
    <glyph glyph-name="Ldot" unicode="&#x13f;" horiz-adv-x="402" 
d="M102 74q-2 -10 8 -10h245q8 0 12.5 -6t2.5 -14l-5 -24q-2 -8 -9 -14t-15 -6h-299q-8 0 -13 6t-3 14l141 660q2 8 9 14t15 6h24q8 0 13 -6t3 -14zM343 272q-4 -16 -19 -16h-58q-7 0 -11 4.5t-2 11.5l13 59q1 6 6.5 11t12.5 5h58q7 0 11 -5t2 -11z" />
    <glyph glyph-name="ldot" unicode="&#x140;" horiz-adv-x="275" 
d="M86 20q-2 -8 -9.5 -14t-15.5 -6h-20q-8 0 -12.5 6t-2.5 14l141 667q2 8 9.5 14t15.5 6h20q8 0 12.5 -6t2.5 -14zM283 272q-4 -16 -19 -16h-58q-7 0 -11 4.5t-2 11.5l13 59q1 6 6.5 11t12.5 5h58q7 0 11 -5t2 -11z" />
    <glyph glyph-name="Lslash" unicode="&#x141;" horiz-adv-x="402" 
d="M334 478q8 5 16 0.5t6 -14.5l-5 -21q-2 -10 -10 -17.5t-16 -12.5l-167 -103q-6 -4 -8 -10l-48 -226q-2 -10 8 -10h245q8 0 12.5 -6t2.5 -14l-5 -24q-2 -8 -9 -14t-15 -6h-299q-8 0 -13 6t-3 14l48 223q1 5 -2.5 6t-5.5 -1l-38 -23q-8 -5 -17 -1t-7 15l4 17q2 8 4.5 14
t14.5 14l54 33q4 2 7 5.5t4 8.5l75 349q2 8 9 14t15 6h24q8 0 13 -6t3 -14l-63 -295q-1 -3 1.5 -4.5t6.5 0.5z" />
    <glyph glyph-name="lslash" unicode="&#x142;" horiz-adv-x="185" 
d="M163 383q-1 -3 1.5 -4.5t6.5 0.5l62 36q8 5 16 0.5t6 -14.5l-5 -21q-2 -10 -10 -17.5t-16 -12.5l-71 -42q-8 -5 -8 -10l-59 -278q-2 -8 -9.5 -14t-15.5 -6h-20q-8 0 -12.5 6t-2.5 14l49 231q1 5 -2.5 6t-5.5 -1l-41 -23q-8 -5 -17 -1t-7 15l3 17q2 8 5 14.5t15 13.5
l57 33q4 2 7 5.5t4 8.5l74 348q2 8 9.5 14t15.5 6h20q8 0 12.5 -6t2.5 -14z" />
    <glyph glyph-name="Nacute" unicode="&#x143;" horiz-adv-x="525" 
d="M350 0q-8 0 -11.5 3.5t-5.5 13.5l-115 582q-1 3 -4.5 2.5t-4.5 -4.5l-123 -577q-2 -8 -9 -14t-15 -6h-20q-8 0 -13 6t-3 14l141 660q2 8 9 14t15 6h52q8 0 11.5 -3.5t5.5 -13.5l116 -580q1 -3 4.5 -2.5t4.5 4.5l122 575q2 8 6 14t12 6h26q8 0 13 -6t3 -14l-141 -660
q-2 -8 -9 -14t-15 -6h-52zM524 895q10 0 11 -8t-5 -13l-131 -112q-6 -5 -12.5 -8.5t-20.5 -3.5h-19q-10 0 -12.5 7.5t2.5 12.5l100 109q5 5 11.5 10.5t17.5 5.5h58z" />
    <glyph glyph-name="nacute" unicode="&#x144;" 
d="M406 336q7 31 1.5 53t-19.5 36t-36 20t-49 6q-54 0 -95.5 -25t-54.5 -85l-68 -321q-2 -8 -9.5 -14t-15.5 -6h-19q-8 0 -12.5 6t-2.5 14l97 460q2 8 9.5 14t15.5 6h16q7 0 12 -7q4 -5 8 -10.5t13 -5.5q11 0 20.5 5t21.5 11.5t28.5 11.5t40.5 5q39 0 72 -11t55 -33
t30.5 -54.5t-0.5 -75.5l-67 -316q-2 -8 -9.5 -14t-15.5 -6h-19q-8 0 -12.5 6t-2.5 14zM487 730q10 0 11 -8t-5 -13l-131 -112q-6 -5 -12.5 -8.5t-20.5 -3.5h-19q-10 0 -12.5 7.5t2.5 12.5l100 109q5 5 11.5 10.5t17.5 5.5h58z" />
    <glyph glyph-name="Ncommaaccent" unicode="&#x145;" horiz-adv-x="525" 
d="M350 0q-8 0 -11.5 3.5t-5.5 13.5l-115 582q-1 3 -4.5 2.5t-4.5 -4.5l-123 -577q-2 -8 -9 -14t-15 -6h-20q-8 0 -13 6t-3 14l141 660q2 8 9 14t15 6h52q8 0 11.5 -3.5t5.5 -13.5l116 -580q1 -3 4.5 -2.5t4.5 4.5l122 575q2 8 6 14t12 6h26q8 0 13 -6t3 -14l-141 -660
q-2 -8 -9 -14t-15 -6h-52zM107 -240q-9 0 -13 7.5t3 16.5l39 51q4 5 2.5 10t-7.5 5h-5q-8 0 -13 6t-3 14l14 65q2 8 9 14t15 6h60q8 0 13 -6t3 -14l-15 -70q-5 -21 -12 -31.5t-15 -19.5l-32 -36q-5 -5 -12 -11.5t-21 -6.5h-10z" />
    <glyph glyph-name="ncommaaccent" unicode="&#x146;" 
d="M406 336q7 31 1.5 53t-19.5 36t-36 20t-49 6q-54 0 -95.5 -25t-54.5 -85l-68 -321q-2 -8 -9.5 -14t-15.5 -6h-19q-8 0 -12.5 6t-2.5 14l97 460q2 8 9.5 14t15.5 6h16q7 0 12 -7q4 -5 8 -10.5t13 -5.5q11 0 20.5 5t21.5 11.5t28.5 11.5t40.5 5q39 0 72 -11t55 -33
t30.5 -54.5t-0.5 -75.5l-67 -316q-2 -8 -9.5 -14t-15.5 -6h-19q-8 0 -12.5 6t-2.5 14zM141 -240q-9 0 -13 7.5t3 16.5l39 51q4 5 2.5 10t-7.5 5h-5q-8 0 -13 6t-3 14l14 65q2 8 9 14t15 6h60q8 0 13 -6t3 -14l-15 -70q-5 -21 -12 -31.5t-15 -19.5l-32 -36q-5 -5 -12 -11.5
t-21 -6.5h-10z" />
    <glyph glyph-name="Ncaron" unicode="&#x147;" horiz-adv-x="525" 
d="M350 0q-8 0 -11.5 3.5t-5.5 13.5l-115 582q-1 3 -4.5 2.5t-4.5 -4.5l-123 -577q-2 -8 -9 -14t-15 -6h-20q-8 0 -13 6t-3 14l141 660q2 8 9 14t15 6h52q8 0 11.5 -3.5t5.5 -13.5l116 -580q1 -3 4.5 -2.5t4.5 4.5l122 575q2 8 6 14t12 6h26q8 0 13 -6t3 -14l-141 -660
q-2 -8 -9 -14t-15 -6h-52zM382 814q6 -7 14 0l82 65q5 5 14 10.5t20 5.5h45q10 0 11 -8t-5 -13l-141 -112q-6 -5 -12.5 -8.5t-19.5 -3.5h-22q-14 0 -19 3.5t-8 8.5l-95 112q-3 5 1.5 13t14.5 8h40q11 0 17.5 -5.5t10.5 -10.5z" />
    <glyph glyph-name="ncaron" unicode="&#x148;" 
d="M406 336q7 31 1.5 53t-19.5 36t-36 20t-49 6q-54 0 -95.5 -25t-54.5 -85l-68 -321q-2 -8 -9.5 -14t-15.5 -6h-19q-8 0 -12.5 6t-2.5 14l97 460q2 8 9.5 14t15.5 6h16q7 0 12 -7q4 -5 8 -10.5t13 -5.5q11 0 20.5 5t21.5 11.5t28.5 11.5t40.5 5q39 0 72 -11t55 -33
t30.5 -54.5t-0.5 -75.5l-67 -316q-2 -8 -9.5 -14t-15.5 -6h-19q-8 0 -12.5 6t-2.5 14zM310 649q6 -7 14 0l82 65q5 5 14 10.5t20 5.5h45q10 0 11 -8t-5 -13l-141 -112q-6 -5 -12.5 -8.5t-19.5 -3.5h-22q-14 0 -19 3.5t-8 8.5l-95 112q-3 5 1.5 13t14.5 8h40q11 0 17.5 -5.5
t10.5 -10.5z" />
    <glyph glyph-name="Eng" unicode="&#x14a;" horiz-adv-x="525" 
d="M218 599q-1 3 -4.5 2.5t-4.5 -4.5l-123 -577q-2 -8 -9 -14t-15 -6h-20q-8 0 -13 6t-3 14l141 660q2 8 9 14t15 6h52q8 0 11.5 -3.5t5.5 -13.5l126 -535q1 -3 4.5 -2.5t4.5 4.5l112 530q2 8 6 14t12 6h26q8 0 13 -6t3 -14l-150 -705q-20 -92 -68 -138.5t-141 -46.5
q-8 0 -13 6t-3 14l5 24q2 8 9 14t15 6q61 0 91 28t41 91l5 27z" />
    <glyph glyph-name="eng" unicode="&#x14b;" 
d="M389 -25q-11 -54 -29.5 -89.5t-44 -56.5t-58 -30t-72.5 -9q-8 0 -13 6t-3 14l4 16q2 8 9 14t15 6q27 0 48 5.5t37 20t27.5 39t19.5 62.5l77 363q7 31 1.5 53t-19.5 36t-36 20t-49 6q-54 0 -95.5 -25t-54.5 -85l-68 -321q-2 -8 -9.5 -14t-15.5 -6h-19q-8 0 -12.5 6
t-2.5 14l97 460q2 8 9.5 14t15.5 6h16q7 0 12 -7q4 -5 8 -10.5t13 -5.5q11 0 20.5 5t21.5 11.5t28.5 11.5t40.5 5q39 0 72 -11t55 -33t30.5 -54.5t-0.5 -75.5z" />
    <glyph glyph-name="Omacron" unicode="&#x14c;" horiz-adv-x="549" 
d="M246 56q46 0 78 14.5t53.5 36t34.5 46.5t21 47q11 31 21.5 70t19 80t14.5 80t8 70q2 27 -4 53t-21 46.5t-39.5 32.5t-60.5 12q-40 0 -70.5 -12t-53 -32.5t-38 -46.5t-25.5 -53q-11 -31 -21.5 -70t-19 -80t-14.5 -80t-8 -70q-2 -22 2 -47t18 -46.5t39 -36t66 -14.5z
M371 708q49 0 86.5 -17t62 -46t35.5 -66.5t8 -78.5q-2 -30 -8.5 -69t-15 -80.5t-19 -81t-20.5 -69.5q-34 -97 -96.5 -152.5t-157.5 -55.5q-45 0 -82 14.5t-63 41.5t-38.5 65.5t-8.5 86.5q2 30 8.5 69.5t15 81t18.5 80.5t21 69q15 41 37 78.5t53 66.5t71.5 46t92.5 17z
M541 825q8 0 13 -6t3 -14l-5 -20q-2 -8 -9 -14t-15 -6h-242q-8 0 -13 6t-3 14l5 20q2 8 9 14t15 6h242z" />
    <glyph glyph-name="omacron" unicode="&#x14d;" horiz-adv-x="496" 
d="M138 320q-9 -31 -17 -70t-12 -70q-2 -20 1 -43t15.5 -42.5t35.5 -32.5t61 -13q40 0 69 13t49 32.5t32.5 42.5t18.5 43q9 31 17 70t12 70q2 20 -1 43t-15.5 42.5t-36 32.5t-60.5 13q-40 0 -69 -13t-49 -32.5t-32.5 -42.5t-18.5 -43zM48 180q4 30 12.5 70t16.5 70
q12 39 32.5 74t49.5 60.5t66 40.5t82 15t80 -15t57.5 -40.5t32.5 -60.5t4 -74q-4 -30 -12.5 -70t-16.5 -70q-12 -39 -32.5 -74t-49.5 -60.5t-66 -40.5t-82 -15t-80 15t-57.5 40.5t-32.5 60.5t-4 74zM485 694q8 0 13 -6t3 -14l-5 -20q-2 -8 -9 -14t-15 -6h-242q-8 0 -13 6
t-3 14l5 20q2 8 9 14t15 6h242z" />
    <glyph glyph-name="Obreve" unicode="&#x14e;" horiz-adv-x="549" 
d="M246 56q46 0 78 14.5t53.5 36t34.5 46.5t21 47q11 31 21.5 70t19 80t14.5 80t8 70q2 27 -4 53t-21 46.5t-39.5 32.5t-60.5 12q-40 0 -70.5 -12t-53 -32.5t-38 -46.5t-25.5 -53q-11 -31 -21.5 -70t-19 -80t-14.5 -80t-8 -70q-2 -22 2 -47t18 -46.5t39 -36t66 -14.5z
M371 708q49 0 86.5 -17t62 -46t35.5 -66.5t8 -78.5q-2 -30 -8.5 -69t-15 -80.5t-19 -81t-20.5 -69.5q-34 -97 -96.5 -152.5t-157.5 -55.5q-45 0 -82 14.5t-63 41.5t-38.5 65.5t-8.5 86.5q2 30 8.5 69.5t15 81t18.5 80.5t21 69q15 41 37 78.5t53 66.5t71.5 46t92.5 17z
M502 878q2 7 7.5 12t13.5 5h23q7 0 11 -5t2 -12q-6 -27 -19.5 -50t-34 -40.5t-46.5 -27.5t-56 -10t-54.5 10t-41 27.5t-23 40.5t-0.5 50q2 7 8 12t13 5h23q8 0 11.5 -5t1.5 -12q-7 -35 11.5 -55.5t53.5 -20.5t62 20.5t34 55.5z" />
    <glyph glyph-name="obreve" unicode="&#x14f;" horiz-adv-x="496" 
d="M138 320q-9 -31 -17 -70t-12 -70q-2 -20 1 -43t15.5 -42.5t35.5 -32.5t61 -13q40 0 69 13t49 32.5t32.5 42.5t18.5 43q9 31 17 70t12 70q2 20 -1 43t-15.5 42.5t-36 32.5t-60.5 13q-40 0 -69 -13t-49 -32.5t-32.5 -42.5t-18.5 -43zM48 180q4 30 12.5 70t16.5 70
q12 39 32.5 74t49.5 60.5t66 40.5t82 15t80 -15t57.5 -40.5t32.5 -60.5t4 -74q-4 -30 -12.5 -70t-16.5 -70q-12 -39 -32.5 -74t-49.5 -60.5t-66 -40.5t-82 -15t-80 15t-57.5 40.5t-32.5 60.5t-4 74zM457 713q2 7 7.5 12t13.5 5h23q7 0 11 -5t2 -12q-6 -27 -19.5 -50
t-34 -40.5t-46.5 -27.5t-56 -10t-54.5 10t-41 27.5t-23 40.5t-0.5 50q2 7 8 12t13 5h23q8 0 11.5 -5t1.5 -12q-7 -35 11.5 -55.5t53.5 -20.5t62 20.5t34 55.5z" />
    <glyph glyph-name="Ohungarumlaut" unicode="&#x150;" horiz-adv-x="549" 
d="M246 56q46 0 78 14.5t53.5 36t34.5 46.5t21 47q11 31 21.5 70t19 80t14.5 80t8 70q2 27 -4 53t-21 46.5t-39.5 32.5t-60.5 12q-40 0 -70.5 -12t-53 -32.5t-38 -46.5t-25.5 -53q-11 -31 -21.5 -70t-19 -80t-14.5 -80t-8 -70q-2 -22 2 -47t18 -46.5t39 -36t66 -14.5z
M371 708q49 0 86.5 -17t62 -46t35.5 -66.5t8 -78.5q-2 -30 -8.5 -69t-15 -80.5t-19 -81t-20.5 -69.5q-34 -97 -96.5 -152.5t-157.5 -55.5q-45 0 -82 14.5t-63 41.5t-38.5 65.5t-8.5 86.5q2 30 8.5 69.5t15 81t18.5 80.5t21 69q15 41 37 78.5t53 66.5t71.5 46t92.5 17z
M481 895q10 0 11 -8t-5 -13l-131 -112q-6 -5 -12.5 -8.5t-20.5 -3.5h-19q-10 0 -12.5 7.5t2.5 12.5l100 109q5 5 11.5 10.5t17.5 5.5h58zM640 895q10 0 11 -8t-5 -13l-131 -112q-6 -5 -12.5 -8.5t-20.5 -3.5h-19q-10 0 -12.5 7.5t2.5 12.5l100 109q5 5 11.5 10.5t17.5 5.5
h58z" />
    <glyph glyph-name="ohungarumlaut" unicode="&#x151;" horiz-adv-x="496" 
d="M138 320q-9 -31 -17 -70t-12 -70q-2 -20 1 -43t15.5 -42.5t35.5 -32.5t61 -13q40 0 69 13t49 32.5t32.5 42.5t18.5 43q9 31 17 70t12 70q2 20 -1 43t-15.5 42.5t-36 32.5t-60.5 13q-40 0 -69 -13t-49 -32.5t-32.5 -42.5t-18.5 -43zM48 180q4 30 12.5 70t16.5 70
q12 39 32.5 74t49.5 60.5t66 40.5t82 15t80 -15t57.5 -40.5t32.5 -60.5t4 -74q-4 -30 -12.5 -70t-16.5 -70q-12 -39 -32.5 -74t-49.5 -60.5t-66 -40.5t-82 -15t-80 15t-57.5 40.5t-32.5 60.5t-4 74zM409 730q10 0 11 -8t-5 -13l-131 -112q-6 -5 -12.5 -8.5t-20.5 -3.5h-19
q-10 0 -12.5 7.5t2.5 12.5l100 109q5 5 11.5 10.5t17.5 5.5h58zM568 730q10 0 11 -8t-5 -13l-131 -112q-6 -5 -12.5 -8.5t-20.5 -3.5h-19q-10 0 -12.5 7.5t2.5 12.5l100 109q5 5 11.5 10.5t17.5 5.5h58z" />
    <glyph glyph-name="OE" unicode="&#x152;" horiz-adv-x="835" 
d="M551 399q-2 -10 8 -10h248q8 0 13 -6t3 -14l-5 -23q-2 -8 -9.5 -14t-15.5 -6h-248q-10 0 -12 -10l-51 -242q-2 -10 8 -10h261q8 0 12.5 -6t2.5 -14l-5 -24q-2 -8 -9 -14t-15 -6h-315q-8 0 -13 6t-3 14l2 11q2 13 -5.5 11t-13.5 -7q-60 -43 -141 -43q-45 0 -82 14.5
t-62.5 41.5t-38.5 65.5t-9 86.5q2 30 8.5 69.5t15 81t18.5 80.5t21 69q15 41 37 78.5t53 66.5t71.5 46t92.5 17q50 0 88 -16.5t61 -46.5q5 -5 10.5 -4.5t7.5 8.5l7 31q2 8 9 14t15 6h313q8 0 13 -6t3 -14l-5 -24q-2 -8 -9.5 -14t-15.5 -6h-259q-10 0 -12 -10zM373 644
q-40 0 -70.5 -12t-53 -32.5t-38 -46.5t-25.5 -53q-11 -31 -21.5 -70t-19 -80t-14.5 -80t-8 -70q-2 -22 2.5 -47t18 -46.5t38.5 -36t66 -14.5q46 0 78 14.5t53.5 36t34.5 46.5t21 47q11 31 21.5 70t19 80t14.5 80t8 70q2 27 -4 53t-21 46.5t-39.5 32.5t-60.5 12z" />
    <glyph glyph-name="oe" unicode="&#x153;" horiz-adv-x="839" 
d="M138 320q-9 -31 -17 -70t-12 -70q-2 -20 1 -43t15.5 -42.5t35.5 -32.5t61 -13q40 0 69 13t49 32.5t32.5 42.5t18.5 43q9 31 17 70t12 70q2 20 -1 43t-15.5 42.5t-36 32.5t-60.5 13q-40 0 -69 -13t-49 -32.5t-32.5 -42.5t-18.5 -43zM654 451q-67 0 -114.5 -39t-64.5 -116
q-2 -10 8 -10h270q10 0 12 10q8 38 3.5 67t-20 48.5t-39.5 29.5t-55 10zM423 52q-6 8 -20 9t-25 -10q-29 -29 -68.5 -45t-87.5 -16q-45 0 -80 15t-57.5 40.5t-32.5 60.5t-4 74q4 30 12.5 70t16.5 70q12 39 32.5 74t49.5 60.5t66 40.5t82 15q51 0 89.5 -18.5t58.5 -50.5
q5 -8 16.5 -7t19.5 8q31 31 71.5 49.5t91.5 18.5q55 0 91.5 -19t56 -50t23.5 -70.5t-5 -80.5l-9 -40q-2 -8 -9.5 -14t-15.5 -6h-317q-9 0 -12 -10q-10 -36 -9 -67t14.5 -54t39.5 -36.5t66 -13.5q31 0 55.5 8t43 21.5t32.5 30t23 34.5q5 10 12 13.5t14 3.5h20q8 0 12.5 -4.5
t0.5 -15.5q-11 -33 -31 -60.5t-47.5 -47.5t-61.5 -31t-73 -11q-48 0 -85 16.5t-60 45.5z" />
    <glyph glyph-name="Racute" unicode="&#x154;" horiz-adv-x="491" 
d="M155 280q-10 0 -12 -10l-53 -250q-2 -8 -9.5 -14t-15.5 -6h-24q-8 0 -12.5 6t-2.5 14l140 660q2 8 9 14t15 6h157q42 0 75.5 -13t57.5 -35.5t37 -54t13 -67.5q0 -41 -12 -79t-35.5 -69.5t-57.5 -55t-77 -35.5q-11 -3 -15 -12t1 -20l92 -225q5 -11 0 -22.5t-24 -11.5h-19
q-12 0 -16 6t-8 14l-101 248q-2 5 -5 8.5t-11 3.5h-87zM231 636q-11 0 -13 -10l-57 -272q-2 -10 8 -10h106q47 0 82.5 15.5t59.5 41t36 59.5t12 70q0 45 -30.5 75.5t-87.5 30.5h-116zM484 895q10 0 11 -8t-5 -13l-131 -112q-6 -5 -12.5 -8.5t-20.5 -3.5h-19q-10 0 -12.5 7.5
t2.5 12.5l100 109q5 5 11.5 10.5t17.5 5.5h58z" />
    <glyph glyph-name="racute" unicode="&#x155;" horiz-adv-x="302" 
d="M332 442q-30 0 -59.5 -6.5t-55.5 -25.5t-46.5 -52.5t-32.5 -87.5l-53 -250q-2 -8 -9.5 -14t-15.5 -6h-19q-8 0 -12.5 6t-2.5 14l97 460q2 8 8 14t14 6h11q15 0 15 -20v-22.5t11 -12.5q5 0 13 8.5t25.5 19t47 19t77.5 8.5h1q8 0 12.5 -6t2.5 -14l-4 -22q-3 -16 -24 -16h-1
zM391 730q10 0 11 -8t-5 -13l-131 -112q-6 -5 -12.5 -8.5t-20.5 -3.5h-19q-10 0 -12.5 7.5t2.5 12.5l100 109q5 5 11.5 10.5t17.5 5.5h58z" />
    <glyph glyph-name="Rcommaaccent" unicode="&#x156;" horiz-adv-x="491" 
d="M155 280q-10 0 -12 -10l-53 -250q-2 -8 -9.5 -14t-15.5 -6h-24q-8 0 -12.5 6t-2.5 14l140 660q2 8 9 14t15 6h157q42 0 75.5 -13t57.5 -35.5t37 -54t13 -67.5q0 -41 -12 -79t-35.5 -69.5t-57.5 -55t-77 -35.5q-11 -3 -15 -12t1 -20l92 -225q5 -11 0 -22.5t-24 -11.5h-19
q-12 0 -16 6t-8 14l-101 248q-2 5 -5 8.5t-11 3.5h-87zM231 636q-11 0 -13 -10l-57 -272q-2 -10 8 -10h106q47 0 82.5 15.5t59.5 41t36 59.5t12 70q0 45 -30.5 75.5t-87.5 30.5h-116zM117 -240q-9 0 -13 7.5t3 16.5l39 51q4 5 2.5 10t-7.5 5h-5q-8 0 -13 6t-3 14l14 65
q2 8 9 14t15 6h60q8 0 13 -6t3 -14l-15 -70q-5 -21 -12 -31.5t-15 -19.5l-32 -36q-5 -5 -12 -11.5t-21 -6.5h-10z" />
    <glyph glyph-name="rcommaaccent" unicode="&#x157;" horiz-adv-x="302" 
d="M332 442q-30 0 -59.5 -6.5t-55.5 -25.5t-46.5 -52.5t-32.5 -87.5l-53 -250q-2 -8 -9.5 -14t-15.5 -6h-19q-8 0 -12.5 6t-2.5 14l97 460q2 8 8 14t14 6h11q15 0 15 -20v-22.5t11 -12.5q5 0 13 8.5t25.5 19t47 19t77.5 8.5h1q8 0 12.5 -6t2.5 -14l-4 -22q-3 -16 -24 -16h-1
zM-33 -240q-9 0 -13 7.5t3 16.5l39 51q4 5 2.5 10t-7.5 5h-5q-8 0 -13 6t-3 14l14 65q2 8 9 14t15 6h60q8 0 13 -6t3 -14l-15 -70q-5 -21 -12 -31.5t-15 -19.5l-32 -36q-5 -5 -12 -11.5t-21 -6.5h-10z" />
    <glyph glyph-name="Rcaron" unicode="&#x158;" horiz-adv-x="491" 
d="M155 280q-10 0 -12 -10l-53 -250q-2 -8 -9.5 -14t-15.5 -6h-24q-8 0 -12.5 6t-2.5 14l140 660q2 8 9 14t15 6h157q42 0 75.5 -13t57.5 -35.5t37 -54t13 -67.5q0 -41 -12 -79t-35.5 -69.5t-57.5 -55t-77 -35.5q-11 -3 -15 -12t1 -20l92 -225q5 -11 0 -22.5t-24 -11.5h-19
q-12 0 -16 6t-8 14l-101 248q-2 5 -5 8.5t-11 3.5h-87zM231 636q-11 0 -13 -10l-57 -272q-2 -10 8 -10h106q47 0 82.5 15.5t59.5 41t36 59.5t12 70q0 45 -30.5 75.5t-87.5 30.5h-116zM342 814q6 -7 14 0l82 65q5 5 14 10.5t20 5.5h45q10 0 11 -8t-5 -13l-141 -112
q-6 -5 -12.5 -8.5t-19.5 -3.5h-22q-14 0 -19 3.5t-8 8.5l-95 112q-3 5 1.5 13t14.5 8h40q11 0 17.5 -5.5t10.5 -10.5z" />
    <glyph glyph-name="rcaron" unicode="&#x159;" horiz-adv-x="302" 
d="M332 442q-30 0 -59.5 -6.5t-55.5 -25.5t-46.5 -52.5t-32.5 -87.5l-53 -250q-2 -8 -9.5 -14t-15.5 -6h-19q-8 0 -12.5 6t-2.5 14l97 460q2 8 8 14t14 6h11q15 0 15 -20v-22.5t11 -12.5q5 0 13 8.5t25.5 19t47 19t77.5 8.5h1q8 0 12.5 -6t2.5 -14l-4 -22q-3 -16 -24 -16h-1
zM274 649q6 -7 14 0l82 65q5 5 14 10.5t20 5.5h45q10 0 11 -8t-5 -13l-141 -112q-6 -5 -12.5 -8.5t-19.5 -3.5h-22q-14 0 -19 3.5t-8 8.5l-95 112q-3 5 1.5 13t14.5 8h40q11 0 17.5 -5.5t10.5 -10.5z" />
    <glyph glyph-name="Sacute" unicode="&#x15a;" horiz-adv-x="491" 
d="M403 231q0 37 -26.5 65t-94.5 49q-25 8 -53.5 18t-53 27.5t-40.5 43.5t-16 66q0 42 18.5 79.5t49.5 66t72 45.5t85 17q49 0 85 -15t58 -40.5t28.5 -59.5t-2.5 -73l-3 -13q-2 -8 -9 -14t-15 -6h-24q-8 0 -13 6t-3 14l3 13q6 26 3.5 48.5t-15.5 39.5t-36 26.5t-57 9.5
q-30 0 -59 -10t-51 -28t-35.5 -42.5t-13.5 -53.5q0 -27 10.5 -44t29.5 -28.5t43.5 -20t53.5 -19.5q32 -12 59 -26t47 -33.5t31 -45.5t11 -62q0 -47 -18 -90t-51 -76t-79 -53t-103 -20q-48 0 -86 16.5t-62.5 44.5t-34 66t-1.5 81l3 16q2 8 9 14t15 6h25q8 0 13 -6t3 -14
l-3 -16q-5 -26 -1 -52t18.5 -46.5t39.5 -33t62 -12.5q42 0 76 13t58 36.5t37 55.5t13 70zM514 895q10 0 11 -8t-5 -13l-131 -112q-6 -5 -12.5 -8.5t-20.5 -3.5h-19q-10 0 -12.5 7.5t2.5 12.5l100 109q5 5 11.5 10.5t17.5 5.5h58z" />
    <glyph glyph-name="sacute" unicode="&#x15b;" horiz-adv-x="451" 
d="M379 361q8 37 -16.5 65t-77.5 28q-26 0 -50 -6.5t-43 -18t-30 -28t-11 -36.5q0 -22 13 -35t32 -20.5t40.5 -11t39.5 -6.5q27 -5 52 -14t44.5 -24t31 -37t11.5 -52q0 -40 -17.5 -72t-47 -55t-66.5 -35.5t-76 -12.5q-40 0 -75.5 11t-61 33t-37.5 54.5t-4 74.5q2 8 9 14
t15 6h19q8 0 13 -6t3 -14q-5 -29 2 -50.5t23.5 -36t40.5 -22t53 -7.5t55 8.5t45.5 24t31 36t11.5 44.5q0 26 -13.5 40.5t-34 22.5t-43 11.5t-40.5 7.5q-27 6 -51 14.5t-42 23t-28.5 35t-10.5 50.5q0 27 15 53.5t41.5 46.5t62.5 32.5t78 12.5q34 0 65 -10t53 -29.5t32 -47.5
t3 -63q-2 -8 -9 -14t-15 -6h-19q-8 0 -13 6t-3 15zM467 730q10 0 11 -8t-5 -13l-131 -112q-6 -5 -12.5 -8.5t-20.5 -3.5h-19q-10 0 -12.5 7.5t2.5 12.5l100 109q5 5 11.5 10.5t17.5 5.5h58z" />
    <glyph glyph-name="Scircumflex" unicode="&#x15c;" horiz-adv-x="491" 
d="M403 231q0 37 -26.5 65t-94.5 49q-25 8 -53.5 18t-53 27.5t-40.5 43.5t-16 66q0 42 18.5 79.5t49.5 66t72 45.5t85 17q49 0 85 -15t58 -40.5t28.5 -59.5t-2.5 -73l-3 -13q-2 -8 -9 -14t-15 -6h-24q-8 0 -13 6t-3 14l3 13q6 26 3.5 48.5t-15.5 39.5t-36 26.5t-57 9.5
q-30 0 -59 -10t-51 -28t-35.5 -42.5t-13.5 -53.5q0 -27 10.5 -44t29.5 -28.5t43.5 -20t53.5 -19.5q32 -12 59 -26t47 -33.5t31 -45.5t11 -62q0 -47 -18 -90t-51 -76t-79 -53t-103 -20q-48 0 -86 16.5t-62.5 44.5t-34 66t-1.5 81l3 16q2 8 9 14t15 6h25q8 0 13 -6t3 -14
l-3 -16q-5 -26 -1 -52t18.5 -46.5t39.5 -33t62 -12.5q42 0 76 13t58 36.5t37 55.5t13 70zM295 766q-5 -5 -14 -10.5t-20 -5.5h-47q-10 0 -11 8t5 13l141 112q6 5 12.5 8.5t20.5 3.5h21q14 0 19 -3.5t8 -8.5l95 -112q4 -4 -1 -12.5t-15 -8.5h-39q-11 0 -17.5 5.5t-10.5 10.5
l-53 65q-6 7 -14 0z" />
    <glyph glyph-name="scircumflex" unicode="&#x15d;" horiz-adv-x="451" 
d="M379 361q8 37 -16.5 65t-77.5 28q-26 0 -50 -6.5t-43 -18t-30 -28t-11 -36.5q0 -22 13 -35t32 -20.5t40.5 -11t39.5 -6.5q27 -5 52 -14t44.5 -24t31 -37t11.5 -52q0 -40 -17.5 -72t-47 -55t-66.5 -35.5t-76 -12.5q-40 0 -75.5 11t-61 33t-37.5 54.5t-4 74.5q2 8 9 14
t15 6h19q8 0 13 -6t3 -14q-5 -29 2 -50.5t23.5 -36t40.5 -22t53 -7.5t55 8.5t45.5 24t31 36t11.5 44.5q0 26 -13.5 40.5t-34 22.5t-43 11.5t-40.5 7.5q-27 6 -51 14.5t-42 23t-28.5 35t-10.5 50.5q0 27 15 53.5t41.5 46.5t62.5 32.5t78 12.5q34 0 65 -10t53 -29.5t32 -47.5
t3 -63q-2 -8 -9 -14t-15 -6h-19q-8 0 -13 6t-3 15zM237 601q-5 -5 -14 -10.5t-20 -5.5h-47q-10 0 -11 8t5 13l141 112q6 5 12.5 8.5t20.5 3.5h21q14 0 19 -3.5t8 -8.5l95 -112q4 -4 -1 -12.5t-15 -8.5h-39q-11 0 -17.5 5.5t-10.5 10.5l-53 65q-6 7 -14 0z" />
    <glyph glyph-name="Scedilla" unicode="&#x15e;" horiz-adv-x="491" 
d="M403 231q0 37 -26.5 65t-94.5 49q-25 8 -53.5 18t-53 27.5t-40.5 43.5t-16 66q0 42 18.5 79.5t49.5 66t72 45.5t85 17q49 0 85 -15t58 -40.5t28.5 -59.5t-2.5 -73l-3 -13q-2 -8 -9 -14t-15 -6h-24q-8 0 -13 6t-3 14l3 13q6 26 3.5 48.5t-15.5 39.5t-36 26.5t-57 9.5
q-30 0 -59 -10t-51 -28t-35.5 -42.5t-13.5 -53.5q0 -27 10.5 -44t29.5 -28.5t43.5 -20t53.5 -19.5q32 -12 59 -26t47 -33.5t31 -45.5t11 -62q0 -47 -18 -90t-51 -76t-79 -53t-103 -20q-48 0 -86 16.5t-62.5 44.5t-34 66t-1.5 81l3 16q2 8 9 14t15 6h25q8 0 13 -6t3 -14
l-3 -16q-5 -26 -1 -52t18.5 -46.5t39.5 -33t62 -12.5q42 0 76 13t58 36.5t37 55.5t13 70zM224 -45q10 0 12.5 -5.5t-0.5 -12.5l-54 -121q-7 -16 -22 -16h-37q-10 0 -13 5.5t1 12.5l64 121q7 16 22 16h27z" />
    <glyph glyph-name="scedilla" unicode="&#x15f;" horiz-adv-x="451" 
d="M379 361q8 37 -16.5 65t-77.5 28q-26 0 -50 -6.5t-43 -18t-30 -28t-11 -36.5q0 -22 13 -35t32 -20.5t40.5 -11t39.5 -6.5q27 -5 52 -14t44.5 -24t31 -37t11.5 -52q0 -40 -17.5 -72t-47 -55t-66.5 -35.5t-76 -12.5q-40 0 -75.5 11t-61 33t-37.5 54.5t-4 74.5q2 8 9 14
t15 6h19q8 0 13 -6t3 -14q-5 -29 2 -50.5t23.5 -36t40.5 -22t53 -7.5t55 8.5t45.5 24t31 36t11.5 44.5q0 26 -13.5 40.5t-34 22.5t-43 11.5t-40.5 7.5q-27 6 -51 14.5t-42 23t-28.5 35t-10.5 50.5q0 27 15 53.5t41.5 46.5t62.5 32.5t78 12.5q34 0 65 -10t53 -29.5t32 -47.5
t3 -63q-2 -8 -9 -14t-15 -6h-19q-8 0 -13 6t-3 15zM206 -45q10 0 12.5 -5.5t-0.5 -12.5l-54 -121q-7 -16 -22 -16h-37q-10 0 -13 5.5t1 12.5l64 121q7 16 22 16h27z" />
    <glyph glyph-name="Scaron" unicode="&#x160;" horiz-adv-x="491" 
d="M403 231q0 37 -26.5 65t-94.5 49q-25 8 -53.5 18t-53 27.5t-40.5 43.5t-16 66q0 42 18.5 79.5t49.5 66t72 45.5t85 17q49 0 85 -15t58 -40.5t28.5 -59.5t-2.5 -73l-3 -13q-2 -8 -9 -14t-15 -6h-24q-8 0 -13 6t-3 14l3 13q6 26 3.5 48.5t-15.5 39.5t-36 26.5t-57 9.5
q-30 0 -59 -10t-51 -28t-35.5 -42.5t-13.5 -53.5q0 -27 10.5 -44t29.5 -28.5t43.5 -20t53.5 -19.5q32 -12 59 -26t47 -33.5t31 -45.5t11 -62q0 -47 -18 -90t-51 -76t-79 -53t-103 -20q-48 0 -86 16.5t-62.5 44.5t-34 66t-1.5 81l3 16q2 8 9 14t15 6h25q8 0 13 -6t3 -14
l-3 -16q-5 -26 -1 -52t18.5 -46.5t39.5 -33t62 -12.5q42 0 76 13t58 36.5t37 55.5t13 70zM362 814q6 -7 14 0l82 65q5 5 14 10.5t20 5.5h45q10 0 11 -8t-5 -13l-141 -112q-6 -5 -12.5 -8.5t-19.5 -3.5h-22q-14 0 -19 3.5t-8 8.5l-95 112q-3 5 1.5 13t14.5 8h40
q11 0 17.5 -5.5t10.5 -10.5z" />
    <glyph glyph-name="scaron" unicode="&#x161;" horiz-adv-x="451" 
d="M379 361q8 37 -16.5 65t-77.5 28q-26 0 -50 -6.5t-43 -18t-30 -28t-11 -36.5q0 -22 13 -35t32 -20.5t40.5 -11t39.5 -6.5q27 -5 52 -14t44.5 -24t31 -37t11.5 -52q0 -40 -17.5 -72t-47 -55t-66.5 -35.5t-76 -12.5q-40 0 -75.5 11t-61 33t-37.5 54.5t-4 74.5q2 8 9 14
t15 6h19q8 0 13 -6t3 -14q-5 -29 2 -50.5t23.5 -36t40.5 -22t53 -7.5t55 8.5t45.5 24t31 36t11.5 44.5q0 26 -13.5 40.5t-34 22.5t-43 11.5t-40.5 7.5q-27 6 -51 14.5t-42 23t-28.5 35t-10.5 50.5q0 27 15 53.5t41.5 46.5t62.5 32.5t78 12.5q34 0 65 -10t53 -29.5t32 -47.5
t3 -63q-2 -8 -9 -14t-15 -6h-19q-8 0 -13 6t-3 15zM313 649q6 -7 14 0l82 65q5 5 14 10.5t20 5.5h45q10 0 11 -8t-5 -13l-141 -112q-6 -5 -12.5 -8.5t-19.5 -3.5h-22q-14 0 -19 3.5t-8 8.5l-95 112q-3 5 1.5 13t14.5 8h40q11 0 17.5 -5.5t10.5 -10.5z" />
    <glyph glyph-name="Tcommaaccent" unicode="&#x162;" horiz-adv-x="417" 
d="M112 636q-8 0 -12.5 6t-2.5 14l5 24q2 8 9 14t15 6h380q8 0 13 -6t3 -14l-5 -24q-2 -8 -9.5 -14t-15.5 -6h-147q-10 0 -12 -10l-129 -606q-2 -8 -9 -14t-15 -6h-25q-8 0 -13 6t-3 14l129 606q2 10 -8 10h-148zM90 -240q-9 0 -13 7.5t3 16.5l39 51q4 5 2.5 10t-7.5 5h-5
q-8 0 -13 6t-3 14l14 65q2 8 9 14t15 6h60q8 0 13 -6t3 -14l-15 -70q-5 -21 -12 -31.5t-15 -19.5l-32 -36q-5 -5 -12 -11.5t-21 -6.5h-10z" />
    <glyph glyph-name="tcommaaccent" unicode="&#x163;" horiz-adv-x="355" 
d="M366 495q8 0 13 -6t3 -14l-4 -19q-2 -8 -9 -14t-15 -6h-126q-10 0 -12 -10l-57 -266q-11 -53 4 -78.5t69 -25.5h51q8 0 13 -6t3 -14l-4 -16q-2 -8 -9 -14t-15 -6h-51q-75 0 -106.5 39t-14.5 121l57 266q2 10 -8 10h-81q-8 0 -13 6t-3 14l4 19q2 8 9 14t15 6h81
q10 0 13 10l33 155q2 8 9 14t15 6h20q8 0 13 -6t3 -14l-33 -155q-3 -10 7 -10h126zM79 -240q-9 0 -13 7.5t3 16.5l39 51q4 5 2.5 10t-7.5 5h-5q-8 0 -13 6t-3 14l14 65q2 8 9 14t15 6h60q8 0 13 -6t3 -14l-15 -70q-5 -21 -12 -31.5t-15 -19.5l-32 -36q-5 -5 -12 -11.5
t-21 -6.5h-10z" />
    <glyph glyph-name="Tcaron" unicode="&#x164;" horiz-adv-x="417" 
d="M112 636q-8 0 -12.5 6t-2.5 14l5 24q2 8 9 14t15 6h380q8 0 13 -6t3 -14l-5 -24q-2 -8 -9.5 -14t-15.5 -6h-147q-10 0 -12 -10l-129 -606q-2 -8 -9 -14t-15 -6h-25q-8 0 -13 6t-3 14l129 606q2 10 -8 10h-148zM292 814q6 -7 14 0l82 65q5 5 14 10.5t20 5.5h45q10 0 11 -8
t-5 -13l-141 -112q-6 -5 -12.5 -8.5t-19.5 -3.5h-22q-14 0 -19 3.5t-8 8.5l-95 112q-3 5 1.5 13t14.5 8h40q11 0 17.5 -5.5t10.5 -10.5z" />
    <glyph glyph-name="tcaron" unicode="&#x165;" horiz-adv-x="416" 
d="M366 495q8 0 13 -6t3 -14l-4 -19q-2 -8 -9 -14t-15 -6h-126q-10 0 -12 -10l-57 -266q-11 -53 4 -78.5t69 -25.5h51q8 0 13 -6t3 -14l-4 -16q-2 -8 -9 -14t-15 -6h-51q-75 0 -106.5 39t-14.5 121l57 266q2 10 -8 10h-81q-8 0 -13 6t-3 14l4 19q2 8 9 14t15 6h81
q10 0 13 10l33 155q2 8 9 14t15 6h20q8 0 13 -6t3 -14l-33 -155q-3 -10 7 -10h126zM372 505q-9 0 -13 7.5t3 16.5l39 51q4 5 2.5 10t-7.5 5h-5q-8 0 -13 6t-3 14l14 65q2 8 9 14t15 6h60q8 0 13 -6t3 -14l-15 -70q-5 -21 -12 -31.5t-15 -19.5l-32 -36q-5 -5 -12 -11.5
t-21 -6.5h-10z" />
    <glyph glyph-name="Tbar" unicode="&#x166;" horiz-adv-x="417" 
d="M227 430q2 10 -8 10h-128q-8 0 -13 6t-3 14l4 20q2 8 9 14t15 6h128q11 0 13 10l24 116q2 10 -8 10h-148q-8 0 -12.5 6t-2.5 14l5 24q2 8 9 14t15 6h380q8 0 13 -6t3 -14l-5 -24q-2 -8 -9.5 -14t-15.5 -6h-147q-10 0 -12 -10l-24 -116q-2 -10 7 -10h127q8 0 13 -6t3 -14
l-4 -20q-2 -8 -9 -14t-15 -6h-127q-10 0 -12 -10l-88 -410q-2 -8 -9 -14t-15 -6h-25q-8 0 -13 6t-3 14z" />
    <glyph glyph-name="tbar" unicode="&#x167;" horiz-adv-x="355" 
d="M118 243q2 8 -8 8h-75q-8 0 -13 6t-3 14l4 20q2 8 9 14t15 6h75q10 0 12 10l23 105q2 10 -8 10h-81q-8 0 -13 6t-3 14l4 19q2 8 9 14t15 6h81q11 0 13 10l33 155q2 8 9 14t15 6h20q8 0 13 -6t3 -14l-33 -155q-2 -10 7 -10h126q8 0 13 -6t3 -14l-4 -19q-2 -8 -9 -14
t-15 -6h-126q-10 0 -12 -10l-23 -105q-1 -10 8 -10h120q8 0 13 -6t3 -14l-4 -20q-2 -8 -9 -14t-15 -6h-120q-11 0 -13 -10l-17 -81q-11 -53 4 -78.5t69 -25.5h51q8 0 13 -6t3 -14l-4 -16q-2 -8 -9 -14t-15 -6h-51q-72 0 -105.5 37t-15.5 123z" />
    <glyph glyph-name="Utilde" unicode="&#x168;" horiz-adv-x="537" 
d="M526 680q2 8 9.5 14t15.5 6h24q8 0 12.5 -6t2.5 -14l-100 -473q-9 -45 -30.5 -84t-53 -68t-72.5 -46t-91 -17q-45 0 -82.5 17t-63 46t-36 68t-1.5 84l100 473q2 8 9.5 14t15.5 6h24q8 0 12.5 -6t2.5 -14l-100 -473q-6 -30 -0.5 -57.5t21.5 -48t41 -33t57 -12.5
q39 0 70 12.5t54 33t38 48t21 57.5zM489 832q19 0 30.5 6.5t19.5 14.5t16.5 4t5.5 -18l-5 -24q-4 -20 -27.5 -35.5t-53.5 -15.5q-24 0 -38.5 4t-27.5 8.5t-28.5 8.5t-40.5 4q-17 0 -28.5 -5.5t-22.5 -15.5q-8 -7 -16.5 -3.5t-5.5 17.5l5 24q4 20 28 35.5t54 15.5
q24 0 38.5 -4t27.5 -8.5t28 -8.5t41 -4z" />
    <glyph glyph-name="utilde" unicode="&#x169;" horiz-adv-x="491" 
d="M115 164q-7 -32 -2 -53.5t19.5 -35.5t36.5 -20t49 -6q54 0 95.5 25t54.5 85l68 321q2 8 9.5 14t15.5 6h19q8 0 12.5 -6t2.5 -14l-97 -460q-2 -8 -9.5 -14t-15.5 -6h-16q-7 0 -12 7q-4 5 -8 10.5t-13 5.5q-11 0 -20.5 -5t-21.5 -11.5t-28.5 -11.5t-40.5 -5q-39 0 -72 11
t-55 33t-30.5 54.5t0.5 75.5l67 316q2 8 9.5 14t15.5 6h19q8 0 12.5 -6t2.5 -14zM440 676q19 0 30.5 6.5t19.5 14.5t16.5 4t5.5 -18l-5 -24q-4 -20 -27.5 -35.5t-53.5 -15.5q-24 0 -38.5 4t-27.5 8.5t-28.5 8.5t-40.5 4q-17 0 -28.5 -5.5t-22.5 -15.5q-8 -7 -16.5 -3.5
t-5.5 17.5l5 24q4 20 28 35.5t54 15.5q24 0 38.5 -4t27.5 -8.5t28 -8.5t41 -4z" />
    <glyph glyph-name="Umacron" unicode="&#x16a;" horiz-adv-x="537" 
d="M526 680q2 8 9.5 14t15.5 6h24q8 0 12.5 -6t2.5 -14l-100 -473q-9 -45 -30.5 -84t-53 -68t-72.5 -46t-91 -17q-45 0 -82.5 17t-63 46t-36 68t-1.5 84l100 473q2 8 9.5 14t15.5 6h24q8 0 12.5 -6t2.5 -14l-100 -473q-6 -30 -0.5 -57.5t21.5 -48t41 -33t57 -12.5
q39 0 70 12.5t54 33t38 48t21 57.5zM531 825q8 0 13 -6t3 -14l-5 -20q-2 -8 -9 -14t-15 -6h-242q-8 0 -13 6t-3 14l5 20q2 8 9 14t15 6h242z" />
    <glyph glyph-name="umacron" unicode="&#x16b;" horiz-adv-x="491" 
d="M115 164q-7 -32 -2 -53.5t19.5 -35.5t36.5 -20t49 -6q54 0 95.5 25t54.5 85l68 321q2 8 9.5 14t15.5 6h19q8 0 12.5 -6t2.5 -14l-97 -460q-2 -8 -9.5 -14t-15.5 -6h-16q-7 0 -12 7q-4 5 -8 10.5t-13 5.5q-11 0 -20.5 -5t-21.5 -11.5t-28.5 -11.5t-40.5 -5q-39 0 -72 11
t-55 33t-30.5 54.5t0.5 75.5l67 316q2 8 9.5 14t15.5 6h19q8 0 12.5 -6t2.5 -14zM473 694q8 0 13 -6t3 -14l-5 -20q-2 -8 -9 -14t-15 -6h-242q-8 0 -13 6t-3 14l5 20q2 8 9 14t15 6h242z" />
    <glyph glyph-name="Ubreve" unicode="&#x16c;" horiz-adv-x="537" 
d="M526 680q2 8 9.5 14t15.5 6h24q8 0 12.5 -6t2.5 -14l-100 -473q-9 -45 -30.5 -84t-53 -68t-72.5 -46t-91 -17q-45 0 -82.5 17t-63 46t-36 68t-1.5 84l100 473q2 8 9.5 14t15.5 6h24q8 0 12.5 -6t2.5 -14l-100 -473q-6 -30 -0.5 -57.5t21.5 -48t41 -33t57 -12.5
q39 0 70 12.5t54 33t38 48t21 57.5zM492 878q2 7 7.5 12t13.5 5h23q7 0 11 -5t2 -12q-6 -27 -19.5 -50t-34 -40.5t-46.5 -27.5t-56 -10t-54.5 10t-41 27.5t-23 40.5t-0.5 50q2 7 8 12t13 5h23q8 0 11.5 -5t1.5 -12q-7 -35 11.5 -55.5t53.5 -20.5t62 20.5t34 55.5z" />
    <glyph glyph-name="ubreve" unicode="&#x16d;" horiz-adv-x="491" 
d="M115 164q-7 -32 -2 -53.5t19.5 -35.5t36.5 -20t49 -6q54 0 95.5 25t54.5 85l68 321q2 8 9.5 14t15.5 6h19q8 0 12.5 -6t2.5 -14l-97 -460q-2 -8 -9.5 -14t-15.5 -6h-16q-7 0 -12 7q-4 5 -8 10.5t-13 5.5q-11 0 -20.5 -5t-21.5 -11.5t-28.5 -11.5t-40.5 -5q-39 0 -72 11
t-55 33t-30.5 54.5t0.5 75.5l67 316q2 8 9.5 14t15.5 6h19q8 0 12.5 -6t2.5 -14zM425 713q2 7 7.5 12t13.5 5h23q7 0 11 -5t2 -12q-6 -27 -19.5 -50t-34 -40.5t-46.5 -27.5t-56 -10t-54.5 10t-41 27.5t-23 40.5t-0.5 50q2 7 8 12t13 5h23q8 0 11.5 -5t1.5 -12
q-7 -35 11.5 -55.5t53.5 -20.5t62 20.5t34 55.5z" />
    <glyph glyph-name="Uring" unicode="&#x16e;" horiz-adv-x="537" 
d="M526 680q2 8 9.5 14t15.5 6h24q8 0 12.5 -6t2.5 -14l-100 -473q-9 -45 -30.5 -84t-53 -68t-72.5 -46t-91 -17q-45 0 -82.5 17t-63 46t-36 68t-1.5 84l100 473q2 8 9.5 14t15.5 6h24q8 0 12.5 -6t2.5 -14l-100 -473q-6 -30 -0.5 -57.5t21.5 -48t41 -33t57 -12.5
q39 0 70 12.5t54 33t38 48t21 57.5zM301 820q0 26 10.5 49.5t28 41.5t41 28.5t50.5 10.5q42 0 67.5 -27t25.5 -68q0 -24 -10.5 -47t-28.5 -40t-41 -27.5t-47 -10.5q-45 0 -70.5 25.5t-25.5 64.5zM356 828q0 -20 12.5 -32t32.5 -12q12 0 24 5t22 14t16 21.5t6 26.5
q0 20 -12 32t-33 12q-12 0 -24.5 -5t-22 -14t-15.5 -21t-6 -27z" />
    <glyph glyph-name="uring" unicode="&#x16f;" horiz-adv-x="491" 
d="M115 164q-7 -32 -2 -53.5t19.5 -35.5t36.5 -20t49 -6q54 0 95.5 25t54.5 85l68 321q2 8 9.5 14t15.5 6h19q8 0 12.5 -6t2.5 -14l-97 -460q-2 -8 -9.5 -14t-15.5 -6h-16q-7 0 -12 7q-4 5 -8 10.5t-13 5.5q-11 0 -20.5 -5t-21.5 -11.5t-28.5 -11.5t-40.5 -5q-39 0 -72 11
t-55 33t-30.5 54.5t0.5 75.5l67 316q2 8 9.5 14t15.5 6h19q8 0 12.5 -6t2.5 -14zM235 650q0 26 10.5 49.5t28 41.5t41 28.5t50.5 10.5q42 0 67.5 -27t25.5 -68q0 -24 -10.5 -47t-28.5 -40t-41 -27.5t-47 -10.5q-45 0 -70.5 25.5t-25.5 64.5zM290 658q0 -20 12.5 -32
t32.5 -12q12 0 24 5t22 14t16 21.5t6 26.5q0 20 -12 32t-33 12q-12 0 -24.5 -5t-22 -14t-15.5 -21t-6 -27z" />
    <glyph glyph-name="Uhungarumlaut" unicode="&#x170;" horiz-adv-x="537" 
d="M526 680q2 8 9.5 14t15.5 6h24q8 0 12.5 -6t2.5 -14l-100 -473q-9 -45 -30.5 -84t-53 -68t-72.5 -46t-91 -17q-45 0 -82.5 17t-63 46t-36 68t-1.5 84l100 473q2 8 9.5 14t15.5 6h24q8 0 12.5 -6t2.5 -14l-100 -473q-6 -30 -0.5 -57.5t21.5 -48t41 -33t57 -12.5
q39 0 70 12.5t54 33t38 48t21 57.5zM451 895q10 0 11 -8t-5 -13l-131 -112q-6 -5 -12.5 -8.5t-20.5 -3.5h-19q-10 0 -12.5 7.5t2.5 12.5l100 109q5 5 11.5 10.5t17.5 5.5h58zM610 895q10 0 11 -8t-5 -13l-131 -112q-6 -5 -12.5 -8.5t-20.5 -3.5h-19q-10 0 -12.5 7.5
t2.5 12.5l100 109q5 5 11.5 10.5t17.5 5.5h58z" />
    <glyph glyph-name="uhungarumlaut" unicode="&#x171;" horiz-adv-x="491" 
d="M115 164q-7 -32 -2 -53.5t19.5 -35.5t36.5 -20t49 -6q54 0 95.5 25t54.5 85l68 321q2 8 9.5 14t15.5 6h19q8 0 12.5 -6t2.5 -14l-97 -460q-2 -8 -9.5 -14t-15.5 -6h-16q-7 0 -12 7q-4 5 -8 10.5t-13 5.5q-11 0 -20.5 -5t-21.5 -11.5t-28.5 -11.5t-40.5 -5q-39 0 -72 11
t-55 33t-30.5 54.5t0.5 75.5l67 316q2 8 9.5 14t15.5 6h19q8 0 12.5 -6t2.5 -14zM396 730q10 0 11 -8t-5 -13l-131 -112q-6 -5 -12.5 -8.5t-20.5 -3.5h-19q-10 0 -12.5 7.5t2.5 12.5l100 109q5 5 11.5 10.5t17.5 5.5h58zM555 730q10 0 11 -8t-5 -13l-131 -112
q-6 -5 -12.5 -8.5t-20.5 -3.5h-19q-10 0 -12.5 7.5t2.5 12.5l100 109q5 5 11.5 10.5t17.5 5.5h58z" />
    <glyph glyph-name="Uogonek" unicode="&#x172;" horiz-adv-x="537" 
d="M526 680q2 8 9.5 14t15.5 6h24q8 0 12.5 -6t2.5 -14l-100 -473q-20 -93 -84 -154q-18 -17 -41 -30t-44 -28.5t-35.5 -36.5t-14.5 -52q0 -32 24 -44t67 -12q8 0 12.5 -6t2.5 -14l-4 -20q-2 -8 -9 -14t-15 -6q-63 0 -102 29.5t-39 80.5q0 27 9.5 50t26.5 42h-1
q-45 0 -82.5 17t-63 46t-36 68t-1.5 84l100 473q2 8 9.5 14t15.5 6h24q8 0 12.5 -6t2.5 -14l-100 -473q-6 -30 -0.5 -57.5t21.5 -48t41 -33t57 -12.5q39 0 70 12.5t54 33t38 48t21 57.5z" />
    <glyph glyph-name="uogonek" unicode="&#x173;" horiz-adv-x="491" 
d="M375 0q-23 0 -45 -5.5t-40 -17.5t-29 -29.5t-11 -41.5q0 -32 24 -44t67 -12q8 0 12.5 -6t2.5 -14l-4 -20q-2 -8 -9 -14t-15 -6q-63 0 -102 29.5t-39 80.5q0 29 11.5 51.5t31.5 39.5q-4 0 -8 -0.5t-9 -0.5q-39 0 -72 11t-55 33t-30.5 54.5t0.5 75.5l67 316q2 8 9.5 14
t15.5 6h19q8 0 12.5 -6t2.5 -14l-67 -316q-7 -32 -2 -53.5t19.5 -35.5t36.5 -20t49 -6q54 0 95.5 25t54.5 85l68 321q2 8 9.5 14t15.5 6h19q8 0 12.5 -6t2.5 -14l-97 -460q-2 -8 -8.5 -14t-14.5 -6z" />
    <glyph glyph-name="Wcircumflex" unicode="&#x174;" horiz-adv-x="697" 
d="M426 549q0 4 -3 4t-5 -4l-213 -534q-6 -15 -22 -15h-56q-16 0 -16 15l6 665q0 8 6 14t18 6h20q16 0 16 -15l-9 -572q0 -6 5 -6h2q4 0 7 6l228 572q6 15 22 15h38q16 0 16 -15l-8 -572q0 -6 5 -6h2q4 0 7 6l244 572q7 15 22 15h24q12 0 15.5 -6t0.5 -14l-287 -665
q-6 -15 -22 -15h-56q-16 0 -16 15zM405 766q-5 -5 -14 -10.5t-20 -5.5h-47q-10 0 -11 8t5 13l141 112q6 5 12.5 8.5t20.5 3.5h21q14 0 19 -3.5t8 -8.5l95 -112q4 -4 -1 -12.5t-15 -8.5h-39q-11 0 -17.5 5.5t-10.5 10.5l-53 65q-6 7 -14 0z" />
    <glyph glyph-name="wcircumflex" unicode="&#x175;" horiz-adv-x="636" 
d="M163 126q0 -6 5 -6t8 6l170 359q8 15 23 15h36q14 0 15 -15l18 -359q0 -6 5 -6t8 6l176 359q8 15 23 15h20q12 0 15 -7.5t-1 -15.5l-234 -462q-9 -15 -23 -15h-23q-15 0 -15 15l-20 381q0 3 -3 3t-5 -3l-182 -381q-9 -15 -23 -15h-23q-15 0 -15 15l-38 462q-1 8 5.5 15.5
t18.5 7.5h17q15 0 15 -15zM345 601q-5 -5 -14 -10.5t-20 -5.5h-47q-10 0 -11 8t5 13l141 112q6 5 12.5 8.5t20.5 3.5h21q14 0 19 -3.5t8 -8.5l95 -112q4 -4 -1 -12.5t-15 -8.5h-39q-11 0 -17.5 5.5t-10.5 10.5l-53 65q-6 7 -14 0z" />
    <glyph glyph-name="Ycircumflex" unicode="&#x176;" horiz-adv-x="423" 
d="M231 328q1 -4 3.5 -4t4.5 4l213 357q8 15 22 15h36q10 0 13.5 -8.5t-3.5 -19.5l-267 -431l-47 -221q-2 -8 -9 -14t-15 -6h-26q-8 0 -13 6t-3 14l47 220l-85 432q-2 11 5 19.5t17 8.5h28q13 0 16 -15zM265 766q-5 -5 -14 -10.5t-20 -5.5h-47q-10 0 -11 8t5 13l141 112
q6 5 12.5 8.5t20.5 3.5h21q14 0 19 -3.5t8 -8.5l95 -112q4 -4 -1 -12.5t-15 -8.5h-39q-11 0 -17.5 5.5t-10.5 10.5l-53 65q-6 7 -14 0z" />
    <glyph glyph-name="ycircumflex" unicode="&#x177;" horiz-adv-x="438" 
d="M155 24q4 7 3 13l-95 440q-2 8 5 15.5t19 7.5h23q13 0 16 -15l75 -368q1 -4 3.5 -4t4.5 4l213 368q8 15 22 15h33q12 0 15.5 -7.5t-1.5 -15.5l-356 -596q-26 -45 -60.5 -63t-76.5 -18h-22q-8 0 -13 6t-3 14l4 18q2 8 9.5 14t15.5 6h22q21 0 41.5 13t41.5 49zM228 601
q-5 -5 -14 -10.5t-20 -5.5h-47q-10 0 -11 8t5 13l141 112q6 5 12.5 8.5t20.5 3.5h21q14 0 19 -3.5t8 -8.5l95 -112q4 -4 -1 -12.5t-15 -8.5h-39q-11 0 -17.5 5.5t-10.5 10.5l-53 65q-6 7 -14 0z" />
    <glyph glyph-name="Ydieresis" unicode="&#x178;" horiz-adv-x="423" 
d="M287 778q-4 -16 -20 -16h-52q-16 0 -12 16l11 53q2 6 7.5 11t12.5 5h52q7 0 10.5 -5t1.5 -11zM458 778q-4 -16 -20 -16h-52q-16 0 -12 16l11 53q2 6 7.5 11t12.5 5h52q7 0 10.5 -5t1.5 -11zM231 328q1 -4 3.5 -4t4.5 4l213 357q8 15 22 15h36q10 0 13.5 -8.5t-3.5 -19.5
l-267 -431l-47 -221q-2 -8 -9 -14t-15 -6h-26q-8 0 -13 6t-3 14l47 220l-85 432q-2 11 5 19.5t17 8.5h28q13 0 16 -15z" />
    <glyph glyph-name="Zacute" unicode="&#x179;" horiz-adv-x="482" 
d="M96 75q-3 -4 -2 -7t6 -3h307q8 0 13 -6t3 -14l-6 -25q-2 -8 -9 -14t-15 -6h-381q-8 0 -13 6t-3 14l9 41q3 8 9 16l435 549q3 4 2 7t-6 3h-289q-8 0 -12.5 6t-2.5 14l5 24q2 8 9 14t15 6h352q8 0 13 -6t3 -14l-10 -44q-1 -8 -8 -16zM504 895q10 0 11 -8t-5 -13l-131 -112
q-6 -5 -12.5 -8.5t-20.5 -3.5h-19q-10 0 -12.5 7.5t2.5 12.5l100 109q5 5 11.5 10.5t17.5 5.5h58z" />
    <glyph glyph-name="zacute" unicode="&#x17a;" horiz-adv-x="458" 
d="M384 432q4 4 3 7t-6 3h-266q-8 0 -12.5 6t-2.5 14l3 18q2 8 9.5 14t15.5 6h330q8 0 12.5 -6t2.5 -14l-6 -29q-3 -14 -11.5 -23.5t-16.5 -17.5l-343 -342q-4 -4 -3 -7t6 -3h275q8 0 12.5 -6t2.5 -14l-3 -18q-2 -8 -9.5 -14t-15.5 -6h-350q-8 0 -12 6t-2 14l6 25q2 10 5 15
t14 16zM428 730q10 0 11 -8t-5 -13l-131 -112q-6 -5 -12.5 -8.5t-20.5 -3.5h-19q-10 0 -12.5 7.5t2.5 12.5l100 109q5 5 11.5 10.5t17.5 5.5h58z" />
    <glyph glyph-name="Zdotaccent" unicode="&#x17b;" horiz-adv-x="482" 
d="M96 75q-3 -4 -2 -7t6 -3h307q8 0 13 -6t3 -14l-6 -25q-2 -8 -9 -14t-15 -6h-381q-8 0 -13 6t-3 14l9 41q3 8 9 16l435 549q3 4 2 7t-6 3h-289q-8 0 -12.5 6t-2.5 14l5 24q2 8 9 14t15 6h352q8 0 13 -6t3 -14l-10 -44q-1 -8 -8 -16zM412 770q-4 -16 -19 -16h-58
q-7 0 -11 4.5t-2 11.5l13 59q1 6 6.5 11t12.5 5h58q7 0 11 -5t2 -11z" />
    <glyph glyph-name="zdotaccent" unicode="&#x17c;" horiz-adv-x="458" 
d="M384 432q4 4 3 7t-6 3h-266q-8 0 -12.5 6t-2.5 14l3 18q2 8 9.5 14t15.5 6h330q8 0 12.5 -6t2.5 -14l-6 -29q-3 -14 -11.5 -23.5t-16.5 -17.5l-343 -342q-4 -4 -3 -7t6 -3h275q8 0 12.5 -6t2.5 -14l-3 -18q-2 -8 -9.5 -14t-15.5 -6h-350q-8 0 -12 6t-2 14l6 25q2 10 5 15
t14 16zM359 632q-4 -16 -19 -16h-58q-7 0 -11 4.5t-2 11.5l13 59q1 6 6.5 11t12.5 5h58q7 0 11 -5t2 -11z" />
    <glyph glyph-name="Zcaron" unicode="&#x17d;" horiz-adv-x="485" 
d="M96 75q-3 -4 -2 -7t6 -3h307q8 0 13 -6t3 -14l-6 -25q-2 -8 -9 -14t-15 -6h-381q-8 0 -13 6t-3 14l9 41q3 8 9 16l435 549q3 4 2 7t-6 3h-289q-8 0 -12.5 6t-2.5 14l5 24q2 8 9 14t15 6h352q8 0 13 -6t3 -14l-10 -44q-1 -8 -8 -16zM355 819q6 -7 14 0l82 65q5 5 14 10.5
t20 5.5h45q10 0 11 -8t-5 -13l-141 -112q-6 -5 -12.5 -8.5t-19.5 -3.5h-22q-14 0 -19 3.5t-8 8.5l-95 112q-3 5 1.5 13t14.5 8h40q11 0 17.5 -5.5t10.5 -10.5z" />
    <glyph glyph-name="zcaron" unicode="&#x17e;" horiz-adv-x="458" 
d="M384 432q4 4 3 7t-6 3h-266q-8 0 -12.5 6t-2.5 14l3 18q2 8 9.5 14t15.5 6h330q8 0 12.5 -6t2.5 -14l-6 -29q-3 -14 -11.5 -23.5t-16.5 -17.5l-343 -342q-4 -4 -3 -7t6 -3h275q8 0 12.5 -6t2.5 -14l-3 -18q-2 -8 -9.5 -14t-15.5 -6h-350q-8 0 -12 6t-2 14l6 25q2 10 5 15
t14 16zM321 649q6 -7 14 0l82 65q5 5 14 10.5t20 5.5h45q10 0 11 -8t-5 -13l-141 -112q-6 -5 -12.5 -8.5t-19.5 -3.5h-22q-14 0 -19 3.5t-8 8.5l-95 112q-3 5 1.5 13t14.5 8h40q11 0 17.5 -5.5t10.5 -10.5z" />
    <glyph glyph-name="longs" unicode="&#x17f;" horiz-adv-x="314" 
d="M130 20q-2 -8 -9.5 -14t-15.5 -6h-20q-8 0 -12.5 6t-2.5 14l86 406q2 10 -8 10h-87q-8 0 -13 6t-3 14l4 19q2 8 9.5 14t15.5 6h87q9 0 12 10l3 15q13 54 32 89.5t44.5 57.5t59 31t74.5 9h5q8 0 12.5 -6t2.5 -14l-3 -16q-2 -8 -9 -14t-15 -6h-5q-32 0 -54.5 -6.5
t-38.5 -22t-26.5 -40.5t-18.5 -62z" />
    <glyph glyph-name="florin" unicode="&#x192;" horiz-adv-x="329" 
d="M182 426q2 10 -8 10h-97q-8 0 -12.5 6t-2.5 14l4 19q2 8 9 14t15 6h97q10 0 12 10l3 15q20 90 72 138.5t138 48.5h15q8 0 13 -6t3 -14l-4 -16q-2 -8 -9 -14t-15 -6h-15q-32 0 -55 -10t-39.5 -27t-27 -41.5t-16.5 -52.5l-3 -15q-2 -10 8 -10h104q8 0 13 -6t3 -14l-4 -19
q-2 -8 -9.5 -14t-15.5 -6h-104q-10 0 -12 -10l-97 -456q-9 -41 -21.5 -73t-33.5 -53.5t-51.5 -32.5t-73.5 -11h-11q-8 0 -13 6t-3 14l5 20q2 8 8.5 14t14.5 6h14q24 0 41 5.5t29 18.5t20.5 34t14.5 52z" />
    <glyph glyph-name="Aringacute" unicode="&#x1fa;" 
d="M576 1065q10 0 11 -8t-5 -13l-124 -105q22 -12 34.5 -34t12.5 -50q0 -24 -10.5 -47t-28.5 -40t-41 -27.5t-47 -10.5q-45 0 -70.5 25.5t-25.5 64.5q0 24 9 46.5t24.5 40t37 28.5t45.5 14l91 100q5 5 11.5 10.5t17.5 5.5h58zM337 828q0 -20 12.5 -32t32.5 -12q12 0 24 5
t22 14t16 21.5t6 26.5q0 20 -12 32t-33 12q-12 0 -24.5 -5t-22 -14t-15.5 -21t-6 -27zM367 260q11 0 11 11l-17 340q0 6 -3 6h-2q-2 0 -5 -6l-165 -340q-6 -11 5 -11h176zM385 184q-2 14 -16 14h-206q-14 0 -22 -14l-85 -169q-5 -15 -21 -15h-27q-12 0 -15.5 6.5t-0.5 13.5
l332 665q7 15 22 15h50q16 0 16 -15l49 -665q0 -7 -6 -13.5t-18 -6.5h-25q-16 0 -16 15z" />
    <glyph glyph-name="aringacute" unicode="&#x1fb;" 
d="M534 895q10 0 11 -8t-5 -13l-124 -105q22 -12 34.5 -34t12.5 -50q0 -24 -10.5 -47t-28.5 -40t-41 -27.5t-47 -10.5q-45 0 -70.5 25.5t-25.5 64.5q0 24 9 46.5t24.5 40t37 28.5t45.5 14l91 100q5 5 11.5 10.5t17.5 5.5h58zM295 658q0 -20 12.5 -32t32.5 -12q12 0 24 5
t22 14t16 21.5t6 26.5q0 20 -12 32t-33 12q-12 0 -24.5 -5t-22 -14t-15.5 -21t-6 -27zM398 330q0 53 -27 87t-75 34q-41 0 -76 -20t-61 -55t-41 -83.5t-15 -106.5q0 -28 8 -53t23 -43.5t35.5 -29t44.5 -10.5q49 0 84 28t57 70t32.5 91t10.5 91zM336 40q-6 0 -14.5 -8
t-23.5 -17t-37.5 -17t-54.5 -8q-34 0 -63.5 14t-51.5 39.5t-35 61.5t-13 81q0 60 18.5 117.5t51.5 103.5t80 74t104 28q42 0 68 -14.5t39 -31.5q4 -5 7 -9t8 -4q6 0 10 8l13 32q2 6 7 8t10 2h21q8 0 13 -6t3 -14l-99 -460q-2 -8 -9 -14t-15 -6h-15q-9 0 -14 7q-2 3 -2 8.5
v11t-1 9.5t-5 4z" />
    <glyph glyph-name="AEacute" unicode="&#x1fc;" horiz-adv-x="715" 
d="M764 700q8 0 13 -6t3 -14l-5 -24q-2 -8 -9.5 -14t-15.5 -6h-259q-10 0 -12 -10l-48 -227q-2 -10 8 -10h248q8 0 13 -6t3 -14l-5 -23q-2 -8 -9.5 -14t-15.5 -6h-248q-9 0 -12 -10l-51 -242q-2 -10 8 -10h261q8 0 12.5 -6t2.5 -14l-5 -24q-2 -8 -9 -14t-15 -6h-315
q-8 0 -13 6t-3 14l36 168q2 10 -8 10h-174q-14 0 -22 -14l-85 -169q-5 -15 -21 -15h-25q-12 0 -15.5 6.5t-0.5 13.5l332 665q7 15 22 15h439zM342 636q-4 0 -7 -6l-172 -359q-6 -11 5 -11h159q10 0 12 10l76 356q2 10 -8 10h-65zM635 895q10 0 11 -8t-5 -13l-131 -112
q-6 -5 -12.5 -8.5t-20.5 -3.5h-19q-10 0 -12.5 7.5t2.5 12.5l100 109q5 5 11.5 10.5t17.5 5.5h58z" />
    <glyph glyph-name="aeacute" unicode="&#x1fd;" horiz-adv-x="826" 
d="M231 230q-55 0 -92 -24t-37 -76q0 -42 27 -63t75 -21q69 0 113 32t58 93l10 49q2 10 -8 10h-146zM452 442q10 -15 26 0q32 30 72 49t91 19q55 0 91.5 -19t56 -50t23.5 -70.5t-5 -80.5l-9 -40q-2 -8 -9.5 -14t-15.5 -6h-317q-9 0 -12 -10q-10 -36 -9 -67t14.5 -54
t39.5 -36.5t66 -13.5q31 0 55.5 8t43 21.5t32.5 30t23 34.5q5 10 12 13.5t14 3.5h20q8 0 12.5 -4.5t0.5 -15.5q-11 -33 -31 -60.5t-47.5 -47.5t-61.5 -31t-73 -11q-48 0 -85 16.5t-60 45.5q-6 8 -20 8t-25 -9q-42 -35 -84.5 -48t-77.5 -13q-79 0 -119 34.5t-40 91.5
q0 33 10.5 63.5t33 54t58 38t85.5 14.5h155q10 0 12 10l11 49q5 24 0.5 44.5t-18 35t-34 22.5t-46.5 8q-23 0 -45.5 -6.5t-41 -18t-32 -27.5t-17.5 -36q-2 -13 -10.5 -15t-15.5 -2h-14q-21 0 -16 20q8 35 29 61t49.5 43.5t61 26.5t64.5 9q44 0 76 -18.5t53 -49.5zM641 451
q-67 0 -114.5 -39t-64.5 -116q-2 -10 8 -10h270q10 0 12 10q8 38 3.5 67t-20 48.5t-39.5 29.5t-55 10zM622 730q10 0 11 -8t-5 -13l-131 -112q-6 -5 -12.5 -8.5t-20.5 -3.5h-19q-10 0 -12.5 7.5t2.5 12.5l100 109q5 5 11.5 10.5t17.5 5.5h58z" />
    <glyph glyph-name="Oslashacute" unicode="&#x1fe;" horiz-adv-x="563" 
d="M104 15q-11 -15 -23 -15h-24q-10 0 -15 7.5t2 17.5l29 42q4 5 3 7l-2 4q-30 50 -24 122q3 30 9 69.5t14.5 81t18.5 80.5t21 69q15 41 37 78.5t53 66.5t71.5 46t92.5 17q36 0 66.5 -10t53.5 -27l4 -2t6 5l7 11q10 15 22 15h26q10 0 14 -7t-3 -17l-30 -43q-4 -5 -3 -7l2 -4
q16 -26 23 -57.5t4 -64.5q-2 -30 -8.5 -69t-15 -80.5t-19 -81t-20.5 -69.5q-34 -97 -96.5 -152.5t-157.5 -55.5q-74 0 -123 36q-1 1 -3.5 1.5t-4.5 -3.5zM242 56q46 0 78 14.5t53.5 36t34.5 46.5t21 47q11 31 21.5 70t19 80t14.5 80t8 70q1 28 -5 55q-1 3 -3.5 3.5
t-5.5 -4.5l-322 -463q-3 -4 -1.5 -5.5l2.5 -2.5q15 -12 35.5 -19.5t49.5 -7.5zM367 644q-40 0 -70.5 -12t-53 -32.5t-38 -46.5t-25.5 -53q-11 -31 -22 -70t-20 -80t-15.5 -80t-8.5 -70q-2 -26 6 -55q2 -7 7 0l322 462q4 6 0 10q-27 27 -82 27zM544 895q10 0 11 -8t-5 -13
l-131 -112q-6 -5 -12.5 -8.5t-20.5 -3.5h-19q-10 0 -12.5 7.5t2.5 12.5l100 109q5 5 11.5 10.5t17.5 5.5h58z" />
    <glyph glyph-name="oslashacute" unicode="&#x1ff;" horiz-adv-x="496" 
d="M62 0q-10 0 -15 6t3 16l24 29q3 5 1 7q-17 25 -24.5 56t-2.5 66q4 30 12.5 70t16.5 70q12 39 32.5 74t49.5 60.5t66 40.5t82 15q35 0 63.5 -9t50.5 -26q3 -3 6 1l7 9q12 15 23 15h27q10 0 13.5 -7.5t-4.5 -16.5l-31 -37q-3 -5 -1 -7q29 -48 20 -112q-4 -30 -12.5 -70
t-16.5 -70q-12 -39 -32.5 -74t-49.5 -60.5t-66 -40.5t-82 -15q-30 0 -55.5 7t-45.5 18q-5 3 -7 0q-6 -8 -9.5 -11.5t-11.5 -3.5h-31zM307 451q-40 0 -69 -13t-49 -32.5t-32.5 -42.5t-18.5 -43q-9 -31 -17 -70t-12 -70q-2 -17 -0.5 -34.5t8.5 -34.5q3 -5 6 -1l259 312
q2 3 1 4.5t-2 2.5q-13 10 -31 16t-43 6zM222 49q40 0 69 13t49 32.5t32.5 42.5t18.5 43q9 31 17.5 70t11.5 70q3 28 -4 56q0 2 -1.5 2.5t-3.5 -2.5l-253 -307q-2 -3 -1 -4l2 -2q25 -14 63 -14zM495 730q10 0 11 -8t-5 -13l-131 -112q-6 -5 -12.5 -8.5t-20.5 -3.5h-19
q-10 0 -12.5 7.5t2.5 12.5l100 109q5 5 11.5 10.5t17.5 5.5h58z" />
    <glyph glyph-name="Scommaaccent" unicode="&#x218;" horiz-adv-x="491" 
d="M403 231q0 37 -26.5 65t-94.5 49q-25 8 -53.5 18t-53 27.5t-40.5 43.5t-16 66q0 42 18.5 79.5t49.5 66t72 45.5t85 17q49 0 85 -15t58 -40.5t28.5 -59.5t-2.5 -73l-3 -13q-2 -8 -9 -14t-15 -6h-24q-8 0 -13 6t-3 14l3 13q6 26 3.5 48.5t-15.5 39.5t-36 26.5t-57 9.5
q-30 0 -59 -10t-51 -28t-35.5 -42.5t-13.5 -53.5q0 -27 10.5 -44t29.5 -28.5t43.5 -20t53.5 -19.5q32 -12 59 -26t47 -33.5t31 -45.5t11 -62q0 -47 -18 -90t-51 -76t-79 -53t-103 -20q-48 0 -86 16.5t-62.5 44.5t-34 66t-1.5 81l3 16q2 8 9 14t15 6h25q8 0 13 -6t3 -14
l-3 -16q-5 -26 -1 -52t18.5 -46.5t39.5 -33t62 -12.5q42 0 76 13t58 36.5t37 55.5t13 70zM107 -240q-9 0 -13 7.5t3 16.5l39 51q4 5 2.5 10t-7.5 5h-5q-8 0 -13 6t-3 14l14 65q2 8 9 14t15 6h60q8 0 13 -6t3 -14l-15 -70q-5 -21 -12 -31.5t-15 -19.5l-32 -36
q-5 -5 -12 -11.5t-21 -6.5h-10z" />
    <glyph glyph-name="scommaaccent" unicode="&#x219;" horiz-adv-x="451" 
d="M379 361q8 37 -16.5 65t-77.5 28q-26 0 -50 -6.5t-43 -18t-30 -28t-11 -36.5q0 -22 13 -35t32 -20.5t40.5 -11t39.5 -6.5q27 -5 52 -14t44.5 -24t31 -37t11.5 -52q0 -40 -17.5 -72t-47 -55t-66.5 -35.5t-76 -12.5q-40 0 -75.5 11t-61 33t-37.5 54.5t-4 74.5q2 8 9 14
t15 6h19q8 0 13 -6t3 -14q-5 -29 2 -50.5t23.5 -36t40.5 -22t53 -7.5t55 8.5t45.5 24t31 36t11.5 44.5q0 26 -13.5 40.5t-34 22.5t-43 11.5t-40.5 7.5q-27 6 -51 14.5t-42 23t-28.5 35t-10.5 50.5q0 27 15 53.5t41.5 46.5t62.5 32.5t78 12.5q34 0 65 -10t53 -29.5t32 -47.5
t3 -63q-2 -8 -9 -14t-15 -6h-19q-8 0 -13 6t-3 15zM101 -240q-9 0 -13 7.5t3 16.5l39 51q4 5 2.5 10t-7.5 5h-5q-8 0 -13 6t-3 14l14 65q2 8 9 14t15 6h60q8 0 13 -6t3 -14l-15 -70q-5 -21 -12 -31.5t-15 -19.5l-32 -36q-5 -5 -12 -11.5t-21 -6.5h-10z" />
    <glyph glyph-name="uni021A" unicode="&#x21a;" horiz-adv-x="417" 
d="M112 636q-8 0 -12.5 6t-2.5 14l5 24q2 8 9 14t15 6h380q8 0 13 -6t3 -14l-5 -24q-2 -8 -9.5 -14t-15.5 -6h-147q-10 0 -12 -10l-129 -606q-2 -8 -9 -14t-15 -6h-25q-8 0 -13 6t-3 14l129 606q2 10 -8 10h-148zM90 -240q-9 0 -13 7.5t3 16.5l39 51q4 5 2.5 10t-7.5 5h-5
q-8 0 -13 6t-3 14l14 65q2 8 9 14t15 6h60q8 0 13 -6t3 -14l-15 -70q-5 -21 -12 -31.5t-15 -19.5l-32 -36q-5 -5 -12 -11.5t-21 -6.5h-10z" />
    <glyph glyph-name="uni021B" unicode="&#x21b;" horiz-adv-x="355" 
d="M366 495q8 0 13 -6t3 -14l-4 -19q-2 -8 -9 -14t-15 -6h-126q-10 0 -12 -10l-57 -266q-11 -53 4 -78.5t69 -25.5h51q8 0 13 -6t3 -14l-4 -16q-2 -8 -9 -14t-15 -6h-51q-75 0 -106.5 39t-14.5 121l57 266q2 10 -8 10h-81q-8 0 -13 6t-3 14l4 19q2 8 9 14t15 6h81
q10 0 13 10l33 155q2 8 9 14t15 6h20q8 0 13 -6t3 -14l-33 -155q-3 -10 7 -10h126zM79 -240q-9 0 -13 7.5t3 16.5l39 51q4 5 2.5 10t-7.5 5h-5q-8 0 -13 6t-3 14l14 65q2 8 9 14t15 6h60q8 0 13 -6t3 -14l-15 -70q-5 -21 -12 -31.5t-15 -19.5l-32 -36q-5 -5 -12 -11.5
t-21 -6.5h-10z" />
    <glyph glyph-name="apostrophemod" unicode="&#x2bc;" horiz-adv-x="207" 
d="M80 480q-9 0 -12.5 7.5t2.5 16.5l53 71q5 5 3.5 10t-7.5 5h-10q-8 0 -13 6t-3 14l15 70q2 8 9 14t15 6h70q8 0 13 -6t3 -14l-16 -75q-5 -21 -12 -31.5t-15 -19.5l-52 -56q-5 -5 -12 -11.5t-21 -6.5h-10z" />
    <glyph glyph-name="circumflex" unicode="&#x2c6;" horiz-adv-x="503" 
d="M258 601q-5 -5 -14 -10.5t-20 -5.5h-47q-10 0 -11 8t5 13l141 112q6 5 12.5 8.5t20.5 3.5h21q14 0 19 -3.5t8 -8.5l95 -112q4 -4 -1 -12.5t-15 -8.5h-39q-11 0 -17.5 5.5t-10.5 10.5l-53 65q-6 7 -14 0z" />
    <glyph glyph-name="caron" unicode="&#x2c7;" horiz-adv-x="450" 
d="M239 649q6 -7 14 0l82 65q5 5 14 10.5t20 5.5h45q10 0 11 -8t-5 -13l-141 -112q-6 -5 -12.5 -8.5t-19.5 -3.5h-22q-14 0 -19 3.5t-8 8.5l-95 112q-3 5 1.5 13t14.5 8h40q11 0 17.5 -5.5t10.5 -10.5z" />
    <glyph glyph-name="breve" unicode="&#x2d8;" horiz-adv-x="462" 
d="M337 713q2 7 7.5 12t13.5 5h23q7 0 11 -5t2 -12q-6 -27 -19.5 -50t-34 -40.5t-46.5 -27.5t-56 -10t-54.5 10t-41 27.5t-23 40.5t-0.5 50q2 7 8 12t13 5h23q8 0 11.5 -5t1.5 -12q-7 -35 11.5 -55.5t53.5 -20.5t62 20.5t34 55.5z" />
    <glyph glyph-name="dotaccent" unicode="&#x2d9;" horiz-adv-x="415" 
d="M239 632q-4 -16 -19 -16h-58q-7 0 -11 4.5t-2 11.5l13 59q1 6 6.5 11t12.5 5h58q7 0 11 -5t2 -11z" />
    <glyph glyph-name="ring" unicode="&#x2da;" horiz-adv-x="549" 
d="M229 650q0 26 10.5 49.5t28 41.5t41 28.5t50.5 10.5q42 0 67.5 -27t25.5 -68q0 -24 -10.5 -47t-28.5 -40t-41 -27.5t-47 -10.5q-45 0 -70.5 25.5t-25.5 64.5zM284 658q0 -20 12.5 -32t32.5 -12q12 0 24 5t22 14t16 21.5t6 26.5q0 20 -12 32t-33 12q-12 0 -24.5 -5
t-22 -14t-15.5 -21t-6 -27z" />
    <glyph glyph-name="ogonek" unicode="&#x2db;" horiz-adv-x="369" 
d="M245 0q-21 0 -43 -5.5t-39.5 -17.5t-28.5 -29.5t-11 -41.5q0 -32 24 -44t67 -12q8 0 12.5 -6t2.5 -14l-4 -20q-2 -8 -9 -14t-15 -6q-63 0 -102 29.5t-39 80.5q0 37 18 67t46.5 50.5t63.5 31.5t70 11q8 0 13 -6t3 -14l-4 -20q-2 -8 -9.5 -14t-15.5 -6z" />
    <glyph glyph-name="tilde" unicode="&#x2dc;" horiz-adv-x="574" 
d="M364 676q19 0 30.5 6.5t19.5 14.5t16.5 4t5.5 -18l-5 -24q-4 -20 -27.5 -35.5t-53.5 -15.5q-24 0 -38.5 4t-27.5 8.5t-28.5 8.5t-40.5 4q-17 0 -28.5 -5.5t-22.5 -15.5q-8 -7 -16.5 -3.5t-5.5 17.5l5 24q4 20 28 35.5t54 15.5q24 0 38.5 -4t27.5 -8.5t28 -8.5t41 -4z" />
    <glyph glyph-name="hungarumlaut" unicode="&#x2dd;" horiz-adv-x="480" 
d="M237 730q10 0 11 -8t-5 -13l-131 -112q-6 -5 -12.5 -8.5t-20.5 -3.5h-19q-10 0 -12.5 7.5t2.5 12.5l100 109q5 5 11.5 10.5t17.5 5.5h58zM396 730q10 0 11 -8t-5 -13l-131 -112q-6 -5 -12.5 -8.5t-20.5 -3.5h-19q-10 0 -12.5 7.5t2.5 12.5l100 109q5 5 11.5 10.5
t17.5 5.5h58z" />
    <glyph glyph-name="Delta" unicode="&#x394;" horiz-adv-x="655" 
d="M14 0q-8 0 -12.5 6t-2.5 14l6 31q2 8 6.5 16.5t6.5 12.5l355 545q9 15 23 15h44q12 0 15 -15l124 -545q1 -4 2 -12.5t-1 -16.5l-6 -31q-2 -8 -9.5 -14t-15.5 -6h-535zM508 57q6 0 7.5 4t0.5 8l-104 493q-2 6 -5 6h-2q-3 0 -7 -6l-314 -493q-2 -4 -2 -8t6 -4h420z" />
    <glyph glyph-name="Omega" unicode="&#x3a9;" horiz-adv-x="686" 
d="M422 72q-9 -5 -9 -13.5t11 -8.5h99q8 0 13 -6t3 -14l-2 -10q-2 -8 -9 -14t-15 -6h-176q-8 0 -13 6t-3 14l6 29q2 7 8.5 21t26.5 25q47 27 87.5 64.5t70.5 83.5t47 98.5t17 108.5q0 43 -12 80t-35.5 64t-58 42t-78.5 15q-66 0 -120.5 -32t-94 -82t-61 -110.5t-21.5 -116.5
q0 -44 9.5 -79.5t24.5 -62.5t32.5 -45.5t33.5 -27.5q17 -10 17 -24.5t-2 -21.5l-6 -29q-2 -8 -9 -14t-15 -6h-176q-8 0 -12.5 6t-2.5 14l2 10q2 8 8.5 14t14.5 6h113q11 0 15.5 8t-2.5 13q-20 16 -39 39t-33 52.5t-22.5 66.5t-8.5 83q0 74 27.5 144.5t75.5 125t113 88
t140 33.5q56 0 100.5 -19.5t76 -53.5t48.5 -80.5t17 -99.5q0 -56 -18 -112t-49 -106t-71 -91.5t-83 -68.5z" />
    <glyph glyph-name="mu" unicode="&#x3bc;" horiz-adv-x="525" 
d="M132 480q2 8 9 14t15 6h19q8 0 13 -6t3 -14l-68 -316q-6 -32 -1 -53.5t19 -35.5t36 -20t49 -6t52 8.5t45 23.5t34 35t19 43l69 321q2 8 9 14t15 6h19q8 0 13 -6t3 -14l-98 -460q-2 -8 -9 -14t-15 -6h-16q-8 0 -13 7q-3 5 -6 10.5t-14 5.5t-20 -5t-21 -11.5t-30.5 -11.5
t-48.5 -5q-17 0 -32 4t-27.5 8.5t-22.5 8.5t-17 4q-14 0 -19.5 -7t-7.5 -14l-37 -174q-2 -8 -9 -14t-15 -6h-19q-8 0 -12.5 6t-2.5 14z" />
    <glyph glyph-name="pi" unicode="&#x3c0;" horiz-adv-x="553" 
d="M446 440q-10 0 -12 -10l-56 -260q-7 -33 -8 -54.5t7 -33.5t27 -17t51 -5q8 0 13 -6t3 -14l-4 -20q-2 -8 -9.5 -14t-15.5 -6q-81 0 -112.5 40t-11.5 130l56 260q2 10 -6 10h-157q-10 0 -12 -10l-87 -410q-2 -8 -9.5 -14t-15.5 -6h-20q-8 0 -12.5 6t-2.5 14l87 410
q2 10 -8 10h-60q-8 0 -13 6t-3 14l4 20q2 8 9.5 14t15.5 6h460q8 0 12.5 -6t2.5 -14l-4 -20q-2 -8 -9 -14t-15 -6h-85z" />
    <glyph glyph-name="Wgrave" unicode="&#x1e80;" horiz-adv-x="697" 
d="M426 549q0 4 -3 4t-5 -4l-213 -534q-6 -15 -22 -15h-56q-16 0 -16 15l6 665q0 8 6 14t18 6h20q16 0 16 -15l-9 -572q0 -6 5 -6h2q4 0 7 6l228 572q6 15 22 15h38q16 0 16 -15l-8 -572q0 -6 5 -6h2q4 0 7 6l244 572q7 15 22 15h24q12 0 15.5 -6t0.5 -14l-287 -665
q-6 -15 -22 -15h-56q-16 0 -16 15zM439 895q11 0 15.5 -5.5t7.5 -10.5l52 -109q3 -5 -2.5 -12.5t-15.5 -7.5h-19q-14 0 -19 3.5t-8 8.5l-85 112q-3 5 1.5 13t14.5 8h58z" />
    <glyph glyph-name="wgrave" unicode="&#x1e81;" horiz-adv-x="636" 
d="M163 126q0 -6 5 -6t8 6l170 359q8 15 23 15h36q14 0 15 -15l18 -359q0 -6 5 -6t8 6l176 359q8 15 23 15h20q12 0 15 -7.5t-1 -15.5l-234 -462q-9 -15 -23 -15h-23q-15 0 -15 15l-20 381q0 3 -3 3t-5 -3l-182 -381q-9 -15 -23 -15h-23q-15 0 -15 15l-38 462q-1 8 5.5 15.5
t18.5 7.5h17q15 0 15 -15zM379 730q11 0 15.5 -5.5t7.5 -10.5l52 -109q3 -5 -2.5 -12.5t-15.5 -7.5h-19q-14 0 -19 3.5t-8 8.5l-85 112q-3 5 1.5 13t14.5 8h58z" />
    <glyph glyph-name="Wacute" unicode="&#x1e82;" horiz-adv-x="697" 
d="M426 549q0 4 -3 4t-5 -4l-213 -534q-6 -15 -22 -15h-56q-16 0 -16 15l6 665q0 8 6 14t18 6h20q16 0 16 -15l-9 -572q0 -6 5 -6h2q4 0 7 6l228 572q6 15 22 15h38q16 0 16 -15l-8 -572q0 -6 5 -6h2q4 0 7 6l244 572q7 15 22 15h24q12 0 15.5 -6t0.5 -14l-287 -665
q-6 -15 -22 -15h-56q-16 0 -16 15zM586 895q10 0 11 -8t-5 -13l-131 -112q-6 -5 -12.5 -8.5t-20.5 -3.5h-19q-10 0 -12.5 7.5t2.5 12.5l100 109q5 5 11.5 10.5t17.5 5.5h58z" />
    <glyph glyph-name="wacute" unicode="&#x1e83;" horiz-adv-x="636" 
d="M163 126q0 -6 5 -6t8 6l170 359q8 15 23 15h36q14 0 15 -15l18 -359q0 -6 5 -6t8 6l176 359q8 15 23 15h20q12 0 15 -7.5t-1 -15.5l-234 -462q-9 -15 -23 -15h-23q-15 0 -15 15l-20 381q0 3 -3 3t-5 -3l-182 -381q-9 -15 -23 -15h-23q-15 0 -15 15l-38 462q-1 8 5.5 15.5
t18.5 7.5h17q15 0 15 -15zM532 730q10 0 11 -8t-5 -13l-131 -112q-6 -5 -12.5 -8.5t-20.5 -3.5h-19q-10 0 -12.5 7.5t2.5 12.5l100 109q5 5 11.5 10.5t17.5 5.5h58z" />
    <glyph glyph-name="Wdieresis" unicode="&#x1e84;" horiz-adv-x="697" 
d="M426 549q0 4 -3 4t-5 -4l-213 -534q-6 -15 -22 -15h-56q-16 0 -16 15l6 665q0 8 6 14t18 6h20q16 0 16 -15l-9 -572q0 -6 5 -6h2q4 0 7 6l228 572q6 15 22 15h38q16 0 16 -15l-8 -572q0 -6 5 -6h2q4 0 7 6l244 572q7 15 22 15h24q12 0 15.5 -6t0.5 -14l-287 -665
q-6 -15 -22 -15h-56q-16 0 -16 15zM424 778q-4 -16 -20 -16h-52q-16 0 -12 16l11 53q2 6 7.5 11t12.5 5h52q7 0 10.5 -5t1.5 -11zM595 778q-4 -16 -20 -16h-52q-16 0 -12 16l11 53q2 6 7.5 11t12.5 5h52q7 0 10.5 -5t1.5 -11z" />
    <glyph glyph-name="wdieresis" unicode="&#x1e85;" horiz-adv-x="636" 
d="M163 126q0 -6 5 -6t8 6l170 359q8 15 23 15h36q14 0 15 -15l18 -359q0 -6 5 -6t8 6l176 359q8 15 23 15h20q12 0 15 -7.5t-1 -15.5l-234 -462q-9 -15 -23 -15h-23q-15 0 -15 15l-20 381q0 3 -3 3t-5 -3l-182 -381q-9 -15 -23 -15h-23q-15 0 -15 15l-38 462q-1 8 5.5 15.5
t18.5 7.5h17q15 0 15 -15zM380 638q-4 -16 -20 -16h-52q-16 0 -12 16l11 53q2 6 7.5 11t12.5 5h52q7 0 10.5 -5t1.5 -11zM551 638q-4 -16 -20 -16h-52q-16 0 -12 16l11 53q2 6 7.5 11t12.5 5h52q7 0 10.5 -5t1.5 -11z" />
    <glyph glyph-name="Ygrave" unicode="&#x1ef2;" horiz-adv-x="423" 
d="M231 328q1 -4 3.5 -4t4.5 4l213 357q8 15 22 15h36q10 0 13.5 -8.5t-3.5 -19.5l-267 -431l-47 -221q-2 -8 -9 -14t-15 -6h-26q-8 0 -13 6t-3 14l47 220l-85 432q-2 11 5 19.5t17 8.5h28q13 0 16 -15zM299 895q11 0 15.5 -5.5t7.5 -10.5l52 -109q3 -5 -2.5 -12.5
t-15.5 -7.5h-19q-14 0 -19 3.5t-8 8.5l-85 112q-3 5 1.5 13t14.5 8h58z" />
    <glyph glyph-name="ygrave" unicode="&#x1ef3;" horiz-adv-x="438" 
d="M155 24q4 7 3 13l-95 440q-2 8 5 15.5t19 7.5h23q13 0 16 -15l75 -368q1 -4 3.5 -4t4.5 4l213 368q8 15 22 15h33q12 0 15.5 -7.5t-1.5 -15.5l-356 -596q-26 -45 -60.5 -63t-76.5 -18h-22q-8 0 -13 6t-3 14l4 18q2 8 9.5 14t15.5 6h22q21 0 41.5 13t41.5 49zM256 730
q11 0 15.5 -5.5t7.5 -10.5l52 -109q3 -5 -2.5 -12.5t-15.5 -7.5h-19q-14 0 -19 3.5t-8 8.5l-85 112q-3 5 1.5 13t14.5 8h58z" />
    <glyph glyph-name="endash" unicode="&#x2013;" horiz-adv-x="560" 
d="M473 296q8 0 13 -6t3 -14l-7 -30q-2 -8 -9 -14t-15 -6h-380q-8 0 -13 6t-3 14l7 30q2 8 9 14t15 6h380z" />
    <glyph glyph-name="emdash" unicode="&#x2014;" horiz-adv-x="710" 
d="M625 296q8 0 13 -6t3 -14l-7 -30q-2 -8 -9 -14t-15 -6h-530q-8 0 -13 6t-3 14l7 30q2 8 9 14t15 6h530z" />
    <glyph glyph-name="quoteleft" unicode="&#x2018;" horiz-adv-x="207" 
d="M206 700q9 0 12.5 -7.5t-2.5 -16.5l-53 -71q-5 -5 -3.5 -10t7.5 -5h10q8 0 13 -6t3 -14l-15 -70q-2 -8 -9 -14t-15 -6h-70q-8 0 -13 6t-3 14l16 75q5 21 12 31.5t15 19.5l52 56q5 5 12 11.5t21 6.5h10z" />
    <glyph glyph-name="quoteright" unicode="&#x2019;" horiz-adv-x="207" 
d="M80 480q-9 0 -12.5 7.5t2.5 16.5l53 71q5 5 3.5 10t-7.5 5h-10q-8 0 -13 6t-3 14l15 70q2 8 9 14t15 6h70q8 0 13 -6t3 -14l-16 -75q-5 -21 -12 -31.5t-15 -19.5l-52 -56q-5 -5 -12 -11.5t-21 -6.5h-10z" />
    <glyph glyph-name="quotesinglbase" unicode="&#x201a;" horiz-adv-x="256" 
d="M90 -110q-9 0 -12.5 7.5t2.5 16.5l53 71q5 5 3.5 10t-7.5 5h-10q-8 0 -13 6t-3 14l15 70q2 8 9 14t15 6h70q8 0 13 -6t3 -14l-16 -75q-5 -21 -12 -31.5t-15 -19.5l-52 -56q-5 -5 -12 -11.5t-21 -6.5h-10z" />
    <glyph glyph-name="quotedblleft" unicode="&#x201c;" horiz-adv-x="407" 
d="M206 700q9 0 12.5 -7.5t-2.5 -16.5l-53 -71q-5 -5 -3.5 -10t7.5 -5h10q8 0 13 -6t3 -14l-15 -70q-2 -8 -9 -14t-15 -6h-70q-8 0 -13 6t-3 14l16 75q5 21 12 31.5t15 19.5l52 56q5 5 12 11.5t21 6.5h10zM368 700q9 0 12.5 -7.5t-2.5 -16.5l-53 -71q-5 -5 -3.5 -10t7.5 -5
h10q8 0 13 -6t3 -14l-15 -70q-2 -8 -9 -14t-15 -6h-70q-8 0 -13 6t-3 14l16 75q5 21 12 31.5t15 19.5l52 56q5 5 12 11.5t21 6.5h10z" />
    <glyph glyph-name="quotedblright" unicode="&#x201d;" horiz-adv-x="407" 
d="M242 480q-9 0 -12.5 7.5t2.5 16.5l53 71q5 5 3.5 10t-7.5 5h-10q-8 0 -13 6t-3 14l15 70q2 8 9 14t15 6h70q8 0 13 -6t3 -14l-16 -75q-5 -21 -12 -31.5t-15 -19.5l-52 -56q-5 -5 -12 -11.5t-21 -6.5h-10zM80 480q-9 0 -12.5 7.5t2.5 16.5l53 71q5 5 3.5 10t-7.5 5h-10
q-8 0 -13 6t-3 14l15 70q2 8 9 14t15 6h70q8 0 13 -6t3 -14l-16 -75q-5 -21 -12 -31.5t-15 -19.5l-52 -56q-5 -5 -12 -11.5t-21 -6.5h-10z" />
    <glyph glyph-name="quotedblbase" unicode="&#x201e;" horiz-adv-x="457" 
d="M235 -110q-9 0 -12.5 7.5t2.5 16.5l53 71q5 5 3.5 10t-7.5 5h-10q-8 0 -13 6t-3 14l15 70q2 8 9 14t15 6h70q8 0 13 -6t3 -14l-16 -75q-5 -21 -12 -31.5t-15 -19.5l-52 -56q-5 -5 -12 -11.5t-21 -6.5h-10zM73 -110q-9 0 -12.5 7.5t2.5 16.5l53 71q5 5 3.5 10t-7.5 5h-10
q-8 0 -13 6t-3 14l15 70q2 8 9 14t15 6h70q8 0 13 -6t3 -14l-16 -75q-5 -21 -12 -31.5t-15 -19.5l-52 -56q-5 -5 -12 -11.5t-21 -6.5h-10z" />
    <glyph glyph-name="dagger" unicode="&#x2020;" horiz-adv-x="450" 
d="M163 -100q-2 -8 -9.5 -14t-15.5 -6h-20q-8 0 -12.5 6t-2.5 14l110 518q2 10 -8 10h-142q-8 0 -13 6t-3 14l4 19q2 8 9 14t15 6h142q10 0 12 10l39 183q2 8 9.5 14t15.5 6h20q8 0 12.5 -6t2.5 -14l-39 -183q-2 -10 8 -10h142q8 0 13 -6t3 -14l-4 -19q-2 -8 -9 -14t-15 -6
h-142q-10 0 -12 -10z" />
    <glyph glyph-name="daggerdbl" unicode="&#x2021;" horiz-adv-x="481" 
d="M227 521q10 0 12 10l32 149q2 8 9 14t15 6h22q8 0 13 -6t3 -14l-32 -149q-2 -10 8 -10h149q8 0 13 -6t3 -14l-5 -21q-2 -8 -9 -14t-15 -6h-149q-10 0 -12 -10l-43 -200q-2 -10 8 -10h149q8 0 13 -6t3 -14l-5 -21q-2 -8 -9 -14t-15 -6h-149q-10 0 -12 -10l-32 -149
q-2 -8 -9 -14t-15 -6h-22q-8 0 -13 6t-3 14l32 149q2 10 -8 10h-149q-8 0 -13 6t-3 14l5 21q2 8 9 14t15 6h149q10 0 12 10l43 200q2 10 -8 10h-149q-8 0 -13 6t-3 14l5 21q2 8 9 14t15 6h149z" />
    <glyph glyph-name="bullet" unicode="&#x2022;" horiz-adv-x="377" 
d="M274 218q-2 -8 -9 -14t-15 -6h-154q-8 0 -13 6t-3 14l33 154q2 8 9 14t15 6h154q8 0 13 -6t3 -14z" />
    <glyph glyph-name="ellipsis" unicode="&#x2026;" horiz-adv-x="689" 
d="M159 20q-2 -8 -9 -14t-15 -6h-76q-8 0 -13 6t-3 14l17 76q2 8 9 14t15 6h76q8 0 13 -6t3 -14zM379 20q-2 -8 -9 -14t-15 -6h-76q-8 0 -13 6t-3 14l17 76q2 8 9 14t15 6h76q8 0 13 -6t3 -14zM599 20q-2 -8 -9 -14t-15 -6h-76q-8 0 -13 6t-3 14l17 76q2 8 9 14t15 6h76
q8 0 13 -6t3 -14z" />
    <glyph glyph-name="perthousand" unicode="&#x2030;" horiz-adv-x="906" 
d="M93 15q-12 -15 -24 -15h-20q-10 0 -14 9t4 19l557 657q12 15 25 15h18q10 0 14 -9t-4 -19zM227 433q23 0 41 15t26 36q9 23 14.5 50.5t7.5 52.5q1 16 -9 32.5t-37 16.5q-23 0 -40.5 -14.5t-25.5 -34.5q-9 -25 -14.5 -52.5t-7.5 -50.5q-1 -17 8.5 -34t36.5 -17zM270 690
q22 0 41.5 -7.5t33.5 -21t21 -33t5 -43.5q-2 -30 -6.5 -50t-14.5 -50q-7 -21 -17.5 -40t-26 -33.5t-35 -23t-44.5 -8.5q-23 0 -42.5 7.5t-33.5 21t-21 33t-5 43.5q3 30 7 50t14 50q7 20 18 39t26.5 33.5t35 23.5t44.5 9zM416 63q23 0 41 15t26 36q9 23 14.5 50.5t7.5 52.5
q2 16 -8 32.5t-37 16.5q-23 0 -41 -14.5t-26 -34.5q-9 -25 -14.5 -52.5t-7.5 -50.5q-1 -17 8.5 -34t36.5 -17zM460 320q22 0 41.5 -7.5t33.5 -21t21 -33t5 -43.5q-3 -30 -7 -50t-14 -50q-7 -21 -18 -40t-26 -33.5t-35 -23t-45 -8.5q-23 0 -42 7.5t-33 21t-21 33t-5 43.5
q1 15 2.5 27t4 23t6 23t8.5 27q7 20 18 39t26 33.5t35 23.5t45 9zM693 63q23 0 41 15t26 36q9 23 14.5 50.5t7.5 52.5q2 16 -8 32.5t-37 16.5q-23 0 -41 -14.5t-26 -34.5q-9 -25 -14.5 -52.5t-7.5 -50.5q-1 -17 8.5 -34t36.5 -17zM737 320q22 0 41.5 -7.5t33.5 -21t21 -33
t5 -43.5q-3 -30 -7 -50t-14 -50q-7 -21 -18 -40t-26 -33.5t-35 -23t-45 -8.5q-23 0 -42 7.5t-33 21t-21 33t-5 43.5q1 15 2.5 27t4 23t6 23t8.5 27q7 20 18 39t26 33.5t35 23.5t45 9z" />
    <glyph glyph-name="guilsinglleft" unicode="&#x2039;" horiz-adv-x="314" 
d="M189 435q3 4 10 9.5t18 5.5h19q14 0 17.5 -9t-8.5 -24l-116 -145q-6 -7 -7 -11.5t2 -12.5l54 -145q6 -16 -1.5 -24.5t-21.5 -8.5h-19q-11 0 -15.5 5.5t-6.5 9.5l-61 161q-4 8 -3 14t8 14z" />
    <glyph glyph-name="guilsinglright" unicode="&#x203a;" horiz-adv-x="314" 
d="M234 274q4 -8 3 -14t-8 -14l-131 -161q-3 -4 -10 -9.5t-18 -5.5h-19q-14 0 -17.5 9t8.5 24l116 145q6 8 7 12.5t-2 11.5l-54 145q-6 16 1.5 24.5t21.5 8.5h19q11 0 15.5 -5.5t6.5 -9.5z" />
    <glyph glyph-name="fraction" unicode="&#x2044;" horiz-adv-x="161" 
d="M-46 15q-9 -15 -21 -15h-15q-10 0 -16 8.5t0 19.5l387 657q9 15 22 15h13q10 0 16 -9t0 -19z" />
    <glyph glyph-name="Euro" unicode="&#x20ac;" horiz-adv-x="564" 
d="M129 322q-2 -7 4 -7h188q8 0 13 -6t3 -14l-6 -25q-2 -8 -9 -14t-15 -6h-184q-5 0 -6 -2.5t-1 -4.5q-2 -11 -2.5 -22t-1.5 -21q-2 -22 2 -47t18 -46.5t39 -36t66 -14.5q49 0 82 14.5t54 36t32.5 47.5t19.5 50q2 8 9.5 14t15.5 6h27q8 0 12.5 -6t2.5 -14
q-32 -101 -92.5 -156.5t-162.5 -55.5q-45 0 -82 14.5t-63 41.5t-38.5 65.5t-8.5 86.5q1 10 2 20.5t3 22.5v4.5t-5 2.5h-27q-8 0 -13 6t-3 14l6 25q2 8 9 14t15 6h22q8 0 9 7q4 18 7 36.5t8 36.5q0 2 0.5 4t-3.5 2h-26q-8 0 -12.5 6t-2.5 14l5 25q2 8 9 14t15 6h28q6 0 8 6
l9 28q15 41 37 78.5t53 66.5t71.5 46t92.5 17t90.5 -17.5t63 -46.5t33.5 -67.5t2 -80.5q-2 -8 -9.5 -14t-15.5 -6h-25q-8 0 -12.5 6t-2.5 14q5 28 0.5 55t-19.5 47.5t-41 33t-64 12.5q-40 0 -70.5 -12t-53 -32.5t-38 -46.5t-25.5 -53l-9 -27q-3 -7 5 -7h183q8 0 13 -6t3 -14
l-5 -25q-2 -8 -9.5 -14t-15.5 -6h-189q-5 0 -5.5 -2.5t-1.5 -4.5q-5 -18 -8 -36t-7 -36z" />
    <glyph glyph-name="afii61289" unicode="&#x2113;" horiz-adv-x="470" 
d="M34 282q-8 0 -13 6t-3 14l5 20q2 8 9 14t15 6h48l36 168q8 40 29.5 74.5t52 60t67.5 40.5t76 15q69 0 107 -42.5t38 -108.5t-31.5 -116t-81.5 -83t-113.5 -50t-127.5 -17l-15 -73q-11 -51 -6.5 -82t23.5 -48.5t53 -23.5t82 -6h36q8 0 13 -6t3 -14l-5 -20q-2 -8 -9 -14
t-15 -6h-36q-68 0 -113 12.5t-69.5 39t-29.5 67.5t7 99l16 74h-48zM160 342q44 0 92.5 11.5t89 35.5t67 61.5t26.5 90.5q0 46 -25.5 72.5t-66.5 26.5q-27 0 -51.5 -10.5t-44 -28.5t-33 -41.5t-18.5 -49.5z" />
    <glyph glyph-name="afii61352" unicode="&#x2116;" horiz-adv-x="944" 
d="M319 0q-8 0 -11.5 3.5t-5.5 13.5l-115 582q-1 3 -4.5 2.5t-4.5 -4.5l-123 -577q-2 -8 -9 -14t-15 -6h-20q-8 0 -13 6t-3 14l141 660q2 8 9 14t15 6h52q8 0 11.5 -3.5t5.5 -13.5l116 -580q1 -3 4.5 -2.5t4.5 4.5l122 575q2 8 6 14t12 6h26q8 0 13 -6t3 -14l-141 -660
q-2 -8 -9 -14t-15 -6h-52zM601 406q-3 -8 -6 -20t-5.5 -25t-4.5 -25t-3 -20q-1 -20 2.5 -41.5t15 -39t32.5 -29t56 -11.5q34 0 60.5 11.5t45 29t31 39t19.5 41.5q3 8 6 20t6 25t5 25t2 20q1 20 -2 41.5t-14.5 39t-33 29t-55.5 11.5q-35 0 -61 -11.5t-44.5 -29t-31.5 -39
t-20 -41.5zM521 316q1 8 3 20t4.5 25t5.5 25t6 20q14 39 36 72t51 57t65 37.5t79 13.5t73 -13.5t49 -37.5t26.5 -57t4.5 -72q0 -8 -2 -20t-5 -25t-6 -25t-6 -20q-14 -39 -35.5 -72t-50.5 -57t-65 -37.5t-79 -13.5t-73.5 13.5t-49 37.5t-26.5 57t-5 72zM495 0q-8 0 -13 6
t-3 14l3 13q2 8 9 14t15 6h304q8 0 13 -6t3 -14l-3 -13q-2 -8 -9 -14t-15 -6h-304z" />
    <glyph glyph-name="trademark" unicode="&#x2122;" horiz-adv-x="736" 
d="M83 648q-10 0 -8 10l7 32q2 10 12 10h230q10 0 8 -10l-7 -32q-2 -10 -12 -10h-84q-6 0 -6 -5l-61 -283q-2 -10 -12 -10h-32q-10 0 -8 10l61 283q0 5 -4 5h-84zM470 454q0 -2 2 -2t3 2l116 237q4 9 12 9h57q10 0 8 -10l-71 -330q-2 -10 -12 -10h-28q-10 0 -8 10l53 249
q1 2 -1 2.5t-2 -1.5l-126 -252q-4 -8 -12 -8h-21q-8 0 -9 8l-17 252q-1 2 -2.5 1.5t-2.5 -2.5l-53 -249q-2 -10 -12 -10h-29q-10 0 -8 10l71 330q2 10 12 10h57q7 0 9 -9z" />
    <glyph glyph-name="uni2126" unicode="&#x2126;" horiz-adv-x="686" 
d="M422 72q-9 -5 -9 -13.5t11 -8.5h99q8 0 13 -6t3 -14l-2 -10q-2 -8 -9 -14t-15 -6h-176q-8 0 -13 6t-3 14l6 29q2 7 8.5 21t26.5 25q47 27 87.5 64.5t70.5 83.5t47 98.5t17 108.5q0 43 -12 80t-35.5 64t-58 42t-78.5 15q-66 0 -120.5 -32t-94 -82t-61 -110.5t-21.5 -116.5
q0 -44 9.5 -79.5t24.5 -62.5t32.5 -45.5t33.5 -27.5q17 -10 17 -24.5t-2 -21.5l-6 -29q-2 -8 -9 -14t-15 -6h-176q-8 0 -12.5 6t-2.5 14l2 10q2 8 8.5 14t14.5 6h113q11 0 15.5 8t-2.5 13q-20 16 -39 39t-33 52.5t-22.5 66.5t-8.5 83q0 74 27.5 144.5t75.5 125t113 88
t140 33.5q56 0 100.5 -19.5t76 -53.5t48.5 -80.5t17 -99.5q0 -56 -18 -112t-49 -106t-71 -91.5t-83 -68.5z" />
    <glyph glyph-name="estimated" unicode="&#x212e;" horiz-adv-x="583" 
d="M256 50q69 0 118 25.5t74 67.5q6 10 13 13.5t14 3.5h16q8 0 12 -4.5t1 -15.5q-11 -33 -33.5 -60.5t-55.5 -47.5t-74 -31t-88 -11q-42 0 -81.5 11.5t-69.5 35.5t-48 61t-18 88q0 78 20.5 149.5t61 125.5t101 86.5t139.5 32.5q47 0 88.5 -13.5t70.5 -41.5t41 -72t-1 -104
l-13 -63q-2 -8 -9.5 -14t-15.5 -6h-399q-10 0 -12 -10q-7 -55 -0.5 -94t25.5 -64t50 -36.5t73 -11.5zM125 331q-2 -10 8 -10h348q10 0 12 10q11 51 5 87.5t-25.5 60.5t-50 35t-67.5 11q-33 0 -67.5 -11t-66 -34t-57 -60t-39.5 -89z" />
    <glyph glyph-name="arrowleft" unicode="&#x2190;" horiz-adv-x="660" 
d="M590 283q8 0 13 -6t3 -14l-4 -17q-2 -8 -9 -14t-15 -6h-440l117 -139q5 -6 9 -10.5t2 -12.5l-6 -27q-3 -12 -15 -17.5t-19 3.5l-171 217q-10 15 5 27l273 225q9 8 16 3.5t5 -13.5l-6 -30q-4 -14 -17 -25l-181 -144h440z" />
    <glyph glyph-name="arrowup" unicode="&#x2191;" horiz-adv-x="579" 
d="M289 460l-170 -147q-8 -6 -13 -10.5t-13 -4.5h-27q-12 0 -15.5 11t7.5 20l264 217q16 13 27 1l177 -225q6 -8 0 -16t-15 -8h-30q-6 0 -12 2.5t-11 9.5l-112 150l-93 -440q-2 -8 -9 -14t-15 -6h-17q-8 0 -13 6t-3 14z" />
    <glyph glyph-name="arrowright" unicode="&#x2192;" horiz-adv-x="660" 
d="M519 283l-119 144q-11 11 -7 25l6 30q2 9 11.5 13.5t15.5 -3.5l177 -225q9 -12 -7 -27l-263 -217q-11 -9 -21 -3.5t-7 17.5l6 27q2 8 7 12.5t12 10.5l177 139h-440q-8 0 -13 6t-3 14l4 17q2 8 9 14t15 6h440z" />
    <glyph glyph-name="arrowdown" unicode="&#x2193;" horiz-adv-x="581" 
d="M322 510q2 8 9 14t15 6h17q8 0 13 -6t3 -14l-93 -440l176 150q13 12 27 12h30q9 0 11.5 -8t-6.5 -16l-273 -225q-14 -12 -27 1l-170 217q-8 9 0 20t20 11h27q8 0 11.5 -4.5t8.5 -10.5l108 -147z" />
    <glyph glyph-name="uni2196" unicode="&#x2196;" horiz-adv-x="518" 
d="M153 365l-41 -208q-3 -17 -14 -26l-26 -21q-8 -7 -16 -4.5t-6 13.5l68 319q3 18 23 18h307q13 0 14.5 -11.5t-9.5 -20.5l-23 -19q-6 -5 -12.5 -5.5t-15.5 -0.5l-201 6l245 -311q5 -5 3 -14t-9 -14l-14 -12q-7 -5 -15.5 -5t-12.5 5z" />
    <glyph glyph-name="uni2197" unicode="&#x2197;" horiz-adv-x="593" 
d="M91 54q-7 -5 -15.5 -5t-12.5 5l-10 12q-4 5 -2 14t8 14l377 311l-203 -6q-9 0 -15 0.5t-11 5.5l-15 19q-7 9 -0.5 20.5t19.5 11.5h307q18 0 15 -18l-68 -319q-2 -11 -11 -13.5t-15 4.5l-16 21q-7 9 -4 26l49 208z" />
    <glyph glyph-name="uni2198" unicode="&#x2198;" horiz-adv-x="518" 
d="M362 138l41 208q3 17 14 26l26 21q8 7 16 4.5t6 -13.5l-68 -319q-3 -18 -23 -18h-307q-13 0 -14.5 11.5t9.5 20.5l23 19q6 5 12.5 5.5t15.5 0.5l201 -6l-245 311q-5 5 -3 14t9 14l14 12q7 5 15.5 5t12.5 -5z" />
    <glyph glyph-name="uni2199" unicode="&#x2199;" horiz-adv-x="593" 
d="M492 449q7 5 15.5 5t12.5 -5l10 -12q4 -5 2 -14t-8 -14l-377 -311l203 6q9 0 15 -0.5t11 -5.5l15 -19q7 -9 0.5 -20.5t-19.5 -11.5h-307q-18 0 -15 18l68 319q2 11 11 13.5t15 -4.5l16 -21q7 -9 4 -26l-49 -208z" />
    <glyph glyph-name="partialdiff" unicode="&#x2202;" horiz-adv-x="494" 
d="M175 49q54 0 90.5 25t58.5 61.5t31.5 78.5t9.5 76q0 15 -2.5 34t-13 36.5t-32 29t-58.5 11.5q-52 0 -89.5 -21.5t-62 -54.5t-36.5 -72t-12 -73q0 -19 4 -41.5t16 -42.5t35 -33.5t61 -13.5zM223 641q-8 0 -12.5 6t-2.5 14l4 19q2 8 9 14t15 6h36q55 0 93 -21.5t59.5 -59
t29 -88.5t1.5 -111q-4 -39 -10 -86t-17.5 -94.5t-31 -92.5t-49 -80t-72 -56t-100.5 -21q-46 0 -79.5 15t-55.5 40.5t-32.5 60.5t-10.5 74q0 53 19 103.5t53.5 89.5t83 63t106.5 24q26 0 45.5 -5t34 -12.5t23.5 -16t13 -15.5q3 -5 6.5 -3t4.5 7q9 46 8 87.5t-15 72t-43 48.5
t-77 18h-36z" />
    <glyph glyph-name="uni2206" unicode="&#x2206;" horiz-adv-x="655" 
d="M14 0q-8 0 -12.5 6t-2.5 14l6 31q2 8 6.5 16.5t6.5 12.5l355 545q9 15 23 15h44q12 0 15 -15l124 -545q1 -4 2 -12.5t-1 -16.5l-6 -31q-2 -8 -9.5 -14t-15.5 -6h-535zM508 57q6 0 7.5 4t0.5 8l-104 493q-2 6 -5 6h-2q-3 0 -7 -6l-314 -493q-2 -4 -2 -8t6 -4h420z" />
    <glyph glyph-name="product" unicode="&#x220f;" horiz-adv-x="578" 
d="M523 628q2 10 -8 10h-296q-10 0 -12 -10l-172 -808q-2 -8 -9 -14t-15 -6h-21q-8 0 -13 6t-3 14l182 860q2 8 9 14t15 6h400q8 0 13 -6t3 -14l-183 -860q-2 -8 -9 -14t-15 -6h-22q-8 0 -13 6t-3 14z" />
    <glyph glyph-name="summation" unicode="&#x2211;" horiz-adv-x="542" 
d="M152 620q-1 4 -2.5 11.5t0.5 18.5l6 30q2 8 9 14t15 6h373q8 0 13 -6t3 -14l-5 -21q-2 -8 -9 -14t-15 -6h-305q-7 0 -10 -4t-1 -8l98 -347q2 -9 1 -18.5t-10 -21.5l-260 -367q-3 -4 -1.5 -8t6.5 -4h319q8 0 13 -6t3 -14l-5 -21q-2 -8 -9 -14t-15 -6h-384q-8 0 -13 6
t-3 14l6 30q2 11 8 18.5t8 11.5l262 369q7 11 5 21z" />
    <glyph glyph-name="minus" unicode="&#x2212;" horiz-adv-x="551" 
d="M471 293q8 0 13 -6t3 -14l-5 -24q-2 -8 -9 -14t-15 -6h-380q-8 0 -13 6t-3 14l5 24q2 8 9 14t15 6h380z" />
    <glyph glyph-name="radical" unicode="&#x221a;" horiz-adv-x="456" 
d="M673 860q8 0 13 -6t3 -14l-4 -15q-2 -8 -9 -14t-15 -6h-110l-405 -790q-8 -15 -22 -15h-56q-15 0 -16 15l-39 371q-1 8 5.5 16t18.5 8h20q15 0 16 -15l31 -323q1 -6 5 -6h2q5 0 7 6l395 773q7 15 22 15h138z" />
    <glyph glyph-name="infinity" unicode="&#x221e;" horiz-adv-x="796" 
d="M757 259q-17 -75 -62.5 -122.5t-121.5 -47.5q-25 0 -50 10.5t-48 26.5t-42.5 35.5t-34.5 38.5q-2 4 -7.5 4.5t-12.5 -4.5q-21 -18 -44.5 -37.5t-49 -36t-51.5 -27t-53 -10.5q-38 0 -66.5 12.5t-46.5 35t-23.5 53.5t2.5 69q16 75 65 122t127 47q25 0 48.5 -9.5t45 -25
t40 -34.5t32.5 -38q2 -3 6.5 -4t11.5 4q22 18 46 37t49.5 34.5t52 25.5t52.5 10q38 0 66.5 -12.5t46.5 -34.5t24 -53.5t-2 -68.5zM696 259q11 50 -11 77t-67 27q-24 0 -49 -10t-48.5 -25.5t-46 -34t-41.5 -34.5q12 -16 26.5 -34.5t32 -34t38 -25.5t44.5 -10q19 0 38 6.5
t36 20t29.5 32.5t18.5 45zM363 259q-13 18 -26.5 36.5t-29.5 33.5t-35 24.5t-43 9.5q-38 0 -74 -27t-47 -77q-11 -51 10.5 -77.5t66.5 -26.5q24 0 47 9.5t45.5 24.5t43.5 33.5t42 36.5z" />
    <glyph glyph-name="integral" unicode="&#x222b;" horiz-adv-x="375" 
d="M210 520q18 85 70.5 136t139.5 51h10q8 0 13 -6t3 -14l-4 -16q-2 -8 -9 -14t-15 -6h-10q-63 0 -94.5 -37t-43.5 -94l-115 -540q-9 -44 -23.5 -77.5t-36.5 -56t-54.5 -34.5t-77.5 -12h-25q-8 0 -13 6t-3 14l5 20q2 8 8 14t14 6h29q51 0 77 27t40 93z" />
    <glyph glyph-name="approxequal" unicode="&#x2248;" horiz-adv-x="556" 
d="M174 328q-17 0 -36.5 -7.5t-30.5 -18.5q-10 -10 -20.5 -8t-7.5 17l6 24q3 13 12.5 24.5t23.5 19.5t31.5 12.5t36.5 4.5q39 0 62.5 -7t44.5 -15.5t45.5 -15.5t65.5 -7q17 0 36.5 7.5t30.5 18.5q10 10 20.5 8t7.5 -17l-6 -24q-3 -14 -12.5 -25t-23.5 -19t-31.5 -12.5
t-36.5 -4.5q-39 0 -63 7t-45 15.5t-45.5 15.5t-64.5 7zM136 147q-17 0 -36.5 -7.5t-30.5 -18.5q-10 -10 -20.5 -8t-7.5 17l6 24q3 13 12.5 24.5t23.5 19.5t31.5 12.5t36.5 4.5q39 0 62.5 -7t44.5 -15.5t45.5 -15.5t65.5 -7q17 0 36.5 7.5t30.5 18.5q10 10 20.5 8t7.5 -17
l-6 -24q-3 -14 -12.5 -25t-23.5 -19t-31.5 -12.5t-36.5 -4.5q-39 0 -63 7t-45 15.5t-45.5 15.5t-64.5 7z" />
    <glyph glyph-name="notequal" unicode="&#x2260;" horiz-adv-x="540" 
d="M56 129q-8 0 -13 6t-3 14l6 25q2 8 9 14t15 6h107q10 0 15 7l84 99q2 2 2 4.5t-5 2.5h-179q-8 0 -13 6t-3 14l6 25q2 8 9 14t15 6h227q6 0 9 2t6 5l77 84q7 8 11 11.5t11 3.5h28q10 0 14.5 -9t-4.5 -19l-65 -71q-2 -2 -1.5 -4.5t5.5 -2.5h82q8 0 13 -6t3 -14l-6 -25
q-2 -8 -9 -14t-15 -6h-129q-6 0 -9.5 -2t-6.5 -5l-83 -99q-2 -2 -1.5 -4.5t5.5 -2.5h200q8 0 13 -6t3 -14l-6 -25q-2 -8 -9 -14t-15 -6h-243q-6 0 -9 -2t-6 -5l-70 -79q-7 -8 -12 -11.5t-12 -3.5h-28q-10 0 -14.5 9t4.5 19l60 66q2 2 1.5 4.5t-5.5 2.5h-66z" />
    <glyph glyph-name="lessequal" unicode="&#x2264;" horiz-adv-x="536" 
d="M418 234q13 -9 10 -21l-6 -24q-2 -12 -11 -18t-16 -1l-315 219q-13 8 -10 22l4 19q3 14 19 22l409 218q8 4 14.5 -1.5t4.5 -17.5l-6 -32q-3 -11 -20 -21l-339 -180q-7 -4 -1 -8zM408 64q8 0 13 -6t3 -14l-5 -24q-2 -8 -9 -14t-15 -6h-394q-8 0 -12.5 6t-2.5 14l5 24
q2 8 8.5 14t14.5 6h394z" />
    </font>
</defs>
</svg>
