<svg xmlns="http://www.w3.org/2000/svg">
<defs>
<font id="747afb6a54af5bab5171e99a3e84f966" horiz-adv-x='1024' >
  <font-face 
    font-family="GTPressuraMono-LightItalic"
    font-weight="300"
    font-style="italic"
    font-stretch="normal"
    units-per-em="1000"
    panose-1="2 0 5 9 3 0 0 9 0 4"
    ascent="750"
    descent="-250"
    x-height="500"
    cap-height="700"
    bbox="-222 -240 715.571 1065"
    underline-thickness="50"
    underline-position="-50"
    slope="-12"
    unicode-range="U+0020-FB02"
  />
<missing-glyph 
d="M184 120q-14 0 -19 -9t-9.5 -19.5t-12.5 -19.5t-27 -9q-21 0 -36.5 13.5t-15.5 31.5t6.5 27t14.5 17t14.5 19t6.5 34q0 17 -8.5 27.5t-19.5 10.5q-12 0 -15.5 -3.5t-14.5 -3.5q-15 0 -22.5 16t-7.5 36q0 14 9.5 26.5t23.5 12.5q10 0 14.5 -5.5t12.5 -5.5q15 0 21 15t6 25
q0 12 -5 24.5t-5 24.5q0 20 11.5 28.5t28.5 8.5q9 0 9 8q0 5 -4 10.5t-4 13.5q0 5 5.5 9.5t10.5 4.5q8 0 13 -5.5t9 -12t8.5 -12t11.5 -5.5q12 0 15 8.5t5 19t7 19t22 8.5q16 0 23.5 -7.5t13.5 -16.5t13.5 -16.5t21.5 -7.5q21 0 28 11.5t7 36.5q0 28 15 40.5t38 12.5
q22 0 34.5 -13t12.5 -35q0 -16 -7.5 -26t-16.5 -16.5t-16.5 -12.5t-7.5 -14q0 -14 12 -22t27 -16.5t27 -21t12 -36.5q0 -14 -5 -22.5t-11 -15t-11 -14t-5 -20.5q0 -10 9.5 -18t34.5 -8q22 0 31 -13t9 -32q0 -22 -15 -37t-37 -15q-12 0 -19.5 8t-15 17t-16 17t-21.5 8
q-11 0 -18 -5.5t-7 -15.5q0 -8 3 -12.5t7 -8.5t7 -10t3 -18q0 -13 -8.5 -23t-26.5 -10q-9 0 -17.5 4.5t-18 10.5t-20.5 10.5t-24 4.5q-9 0 -17.5 -7t-8.5 -24q0 -12 -6.5 -19.5t-17.5 -7.5q-9 0 -12.5 7.5t-7.5 16.5t-11 16.5t-23 7.5zM298 340q0 -17 11.5 -28.5t28.5 -11.5
t30 11.5t13 28.5t-13 32t-30 15t-28.5 -15t-11.5 -32zM281 226q-14 0 -26 5.5t-22 14.5q-5 4 -7 1t2 -8q8 -12 20 -20.5t33 -8.5q20 0 29.5 11.5t14.5 22.5q2 5 -1 6.5t-5 -2.5q-12 -22 -38 -22zM214 335q0 9 4 15t10 6t10 -6t4 -15t-4 -15t-10 -6t-10 6t-4 15zM310 340
q0 9 4 15t10 6t10 -6t4 -15t-4 -15t-10 -6t-10 6t-4 15zM178 340q0 -21 9.5 -35.5t26.5 -14.5t28.5 14.5t11.5 35.5t-11.5 35.5t-28.5 14.5t-26.5 -14.5t-9.5 -35.5zM85 520q0 14 8.5 24t20.5 10q10 0 17 -10t7 -24t-7 -24t-17 -10q-12 0 -20.5 10t-8.5 24z" />
    <glyph glyph-name="IJ" unicode="IJ" 
d="M3 0q-8 0 -13 6t-3 14l5 21q2 8 9 14t15 6h94q10 0 12 10l119 559q2 10 -8 10h-85q-8 0 -13 6t-3 14l5 20q2 8 9 14t15 6h245q8 0 13 -6t3 -14l-5 -20q-2 -8 -9 -14t-15 -6h-75q-10 0 -12 -10l-119 -559q-2 -10 8 -10h35q37 0 64.5 5t46.5 19t31.5 38.5t20.5 62.5
l105 494q2 8 9 14t15 6h24q8 0 13 -6t3 -14l-107 -504q-10 -46 -28 -79.5t-47 -55t-69 -31.5t-94 -10h-214z" />
    <glyph glyph-name="ij" unicode="ij" 
d="M80 -210q-8 0 -13 6t-3 14l5 22q2 8 9 14t15 6h80q44 0 75 25t42 76l101 477q2 10 -8 10h-137l-90 -424q-4 -16 -19 -16h-28q-7 0 -11 4.5t-2 11.5l88 414q2 10 -8 10h-75q-8 0 -13 6t-3 14l5 20q2 8 9 14t15 6h333q8 0 13 -6t3 -14l-110 -515q-9 -45 -28 -78
t-44.5 -54.5t-56.5 -32t-64 -10.5h-80zM507 638q-4 -16 -19 -16h-52q-7 0 -11 4.5t-2 11.5l12 53q1 6 6.5 11t12.5 5h52q7 0 10.5 -5t2.5 -11zM299 638q-4 -16 -19 -16h-52q-7 0 -11 4.5t-2 11.5l12 53q1 6 6.5 11t12.5 5h52q7 0 10.5 -5t2.5 -11z" />
    <glyph glyph-name="napostrophe" unicode="&#x22;n" 
d="M204 477q11 0 20.5 5t21.5 11.5t28.5 11.5t40.5 5q39 0 72 -11t55 -33t30.5 -54.5t-0.5 -75.5l-67 -316q-2 -8 -9.5 -14t-15.5 -6h-19q-8 0 -12.5 6t-2.5 14l67 316q7 31 1.5 53t-19.5 36t-36 20t-49 6q-54 0 -95.5 -25t-54.5 -85l-68 -321q-2 -8 -9.5 -14t-15.5 -6h-19
q-8 0 -12.5 6t-2.5 14l97 460q2 8 9.5 14t15.5 6h16q7 0 12 -7q4 -5 8 -10.5t13 -5.5zM72 595q-8 0 -13 6t-3 14l14 65q2 8 9 14t15 6h60q8 0 13 -6t3 -14l-15 -70q-5 -21 -12 -31.5t-15 -19.5l-32 -36q-5 -5 -12 -11.5t-21 -6.5h-10q-9 0 -13 7.5t3 16.5l39 51q4 5 2.5 10
t-7.5 5h-5z" />
    <glyph glyph-name="f_f" unicode="ff" 
d="M51 436q-8 0 -13 6t-3 14l4 19q2 8 9.5 14t15.5 6h57q9 0 12 10l3 15q9 42 25 76.5t41.5 59t61 38t82.5 13.5h15q8 0 12.5 -6t2.5 -14l-3 -16q-2 -8 -9 -14t-15 -6h-15q-35 0 -59 -10.5t-39.5 -28.5t-24.5 -42t-15 -50l-3 -15q-3 -10 8 -10h139q9 0 12 10l3 15
q18 85 70.5 136t139.5 51h15q8 0 12.5 -6t2.5 -14l-3 -16q-2 -8 -9 -14t-15 -6h-15q-35 0 -59 -10.5t-39.5 -28.5t-24.5 -42t-15 -50l-3 -15q-3 -10 8 -10h114q8 0 12.5 -6t2.5 -14l-4 -19q-2 -8 -9 -14t-15 -6h-114q-10 0 -12 -10l-86 -406q-2 -8 -9.5 -14t-15.5 -6h-20
q-8 0 -12.5 6t-2.5 14l86 406q2 10 -6 10h-141q-10 0 -12 -10l-86 -406q-2 -8 -9.5 -14t-15.5 -6h-20q-8 0 -12.5 6t-2.5 14l86 406q2 10 -8 10h-57z" />
    <glyph glyph-name="fi" unicode="fi" 
d="M409 20q-2 -8 -9.5 -14t-15.5 -6h-20q-8 0 -12.5 6t-2.5 14l86 406q2 10 -8 10h-199q-10 0 -12 -10l-86 -406q-2 -8 -9.5 -14t-15.5 -6h-20q-8 0 -12.5 6t-2.5 14l86 406q2 10 -8 10h-77q-8 0 -13 6t-3 14l4 19q2 8 9.5 14t15.5 6h77q9 0 12 10l3 15q9 42 25 76.5
t41.5 59t61 38t82.5 13.5h159q8 0 12.5 -6t2.5 -14l-3 -16q-2 -8 -9 -14t-15 -6h-159q-35 0 -59 -10.5t-39.5 -28.5t-24.5 -42t-15 -50l-3 -15q-3 -10 8 -10h249q8 0 12.5 -6t2.5 -14z" />
    <glyph glyph-name="fl" unicode="fl" 
d="M425 426q2 10 -8 10h-189q-10 0 -12 -10l-86 -406q-2 -8 -9.5 -14t-15.5 -6h-20q-8 0 -12.5 6t-2.5 14l86 406q2 10 -8 10h-67q-8 0 -13 6t-3 14l4 19q2 8 9.5 14t15.5 6h67q9 0 12 10l3 15q9 42 25 76.5t41.5 59t61 38t82.5 13.5h15q8 0 12.5 -6t2.5 -14l-3 -16
q-2 -8 -9 -14t-15 -6h-15q-35 0 -59 -10.5t-39.5 -28.5t-24.5 -42t-15 -50l-3 -15q-3 -10 8 -10h189q9 0 12 10l38 182q2 8 9.5 14t15.5 6h20q8 0 12.5 -6t2.5 -14l-141 -667q-2 -8 -9.5 -14t-15.5 -6h-20q-8 0 -12.5 6t-2.5 14z" />
    <glyph glyph-name=".notdef" 
d="M184 120q-14 0 -19 -9t-9.5 -19.5t-12.5 -19.5t-27 -9q-21 0 -36.5 13.5t-15.5 31.5t6.5 27t14.5 17t14.5 19t6.5 34q0 17 -8.5 27.5t-19.5 10.5q-12 0 -15.5 -3.5t-14.5 -3.5q-15 0 -22.5 16t-7.5 36q0 14 9.5 26.5t23.5 12.5q10 0 14.5 -5.5t12.5 -5.5q15 0 21 15t6 25
q0 12 -5 24.5t-5 24.5q0 20 11.5 28.5t28.5 8.5q9 0 9 8q0 5 -4 10.5t-4 13.5q0 5 5.5 9.5t10.5 4.5q8 0 13 -5.5t9 -12t8.5 -12t11.5 -5.5q12 0 15 8.5t5 19t7 19t22 8.5q16 0 23.5 -7.5t13.5 -16.5t13.5 -16.5t21.5 -7.5q21 0 28 11.5t7 36.5q0 28 15 40.5t38 12.5
q22 0 34.5 -13t12.5 -35q0 -16 -7.5 -26t-16.5 -16.5t-16.5 -12.5t-7.5 -14q0 -14 12 -22t27 -16.5t27 -21t12 -36.5q0 -14 -5 -22.5t-11 -15t-11 -14t-5 -20.5q0 -10 9.5 -18t34.5 -8q22 0 31 -13t9 -32q0 -22 -15 -37t-37 -15q-12 0 -19.5 8t-15 17t-16 17t-21.5 8
q-11 0 -18 -5.5t-7 -15.5q0 -8 3 -12.5t7 -8.5t7 -10t3 -18q0 -13 -8.5 -23t-26.5 -10q-9 0 -17.5 4.5t-18 10.5t-20.5 10.5t-24 4.5q-9 0 -17.5 -7t-8.5 -24q0 -12 -6.5 -19.5t-17.5 -7.5q-9 0 -12.5 7.5t-7.5 16.5t-11 16.5t-23 7.5zM298 340q0 -17 11.5 -28.5t28.5 -11.5
t30 11.5t13 28.5t-13 32t-30 15t-28.5 -15t-11.5 -32zM281 226q-14 0 -26 5.5t-22 14.5q-5 4 -7 1t2 -8q8 -12 20 -20.5t33 -8.5q20 0 29.5 11.5t14.5 22.5q2 5 -1 6.5t-5 -2.5q-12 -22 -38 -22zM214 335q0 9 4 15t10 6t10 -6t4 -15t-4 -15t-10 -6t-10 6t-4 15zM310 340
q0 9 4 15t10 6t10 -6t4 -15t-4 -15t-10 -6t-10 6t-4 15zM178 340q0 -21 9.5 -35.5t26.5 -14.5t28.5 14.5t11.5 35.5t-11.5 35.5t-28.5 14.5t-26.5 -14.5t-9.5 -35.5zM85 520q0 14 8.5 24t20.5 10q10 0 17 -10t7 -24t-7 -24t-17 -10q-12 0 -20.5 10t-8.5 24z" />
    <glyph glyph-name=".null" horiz-adv-x="0" 
 />
    <glyph glyph-name="nonmarkingreturn" horiz-adv-x="333" 
 />
    <glyph glyph-name="space" unicode=" " 
 />
    <glyph glyph-name="exclam" unicode="!" 
d="M283 210q-2 -8 -9.5 -14t-15.5 -6h-20q-8 0 -12.5 6t-2.5 14l100 470q2 8 9 14t15 6h20q8 0 13 -6t3 -14zM260 16q-4 -16 -20 -16h-62q-16 0 -12 16l13 63q2 6 7 11t12 5h62q7 0 11 -5t2 -11z" />
    <glyph glyph-name="quotedbl" unicode="&#x22;" 
d="M321 590q-8 0 -13 6t-3 14l15 70q2 8 9 14t15 6h70q8 0 13 -6t3 -14l-16 -75q-5 -21 -12 -31.5t-15 -19.5l-52 -56q-5 -5 -12 -11.5t-21 -6.5h-10q-9 0 -12.5 7.5t2.5 16.5l53 71q5 5 3.5 10t-7.5 5h-10zM159 590q-8 0 -13 6t-3 14l15 70q2 8 9 14t15 6h70q8 0 13 -6
t3 -14l-16 -75q-5 -21 -12 -31.5t-15 -19.5l-52 -56q-5 -5 -12 -11.5t-21 -6.5h-10q-9 0 -12.5 7.5t2.5 16.5l53 71q5 5 3.5 10t-7.5 5h-10z" />
    <glyph glyph-name="numbersign" unicode="#" 
d="M383 440q3 10 -6 10h-116q-11 0 -14 -10l-79 -200q-3 -10 6 -10h116q11 0 14 10zM185 440q3 10 -6 10h-50q-8 0 -12 6t-1 14l6 18q3 8 11.5 14t16.5 6h50q11 0 14 10l63 162q3 8 11 14t16 6h22q8 0 12 -6t1 -14l-63 -162q-3 -10 6 -10h116q11 0 14 10l63 162q3 8 11 14
t16 6h22q8 0 12 -6t1 -14l-63 -162q-3 -10 6 -10h50q8 0 11.5 -6t0.5 -14l-6 -18q-3 -8 -11 -14t-16 -6h-50q-11 0 -14 -10l-79 -200q-3 -10 6 -10h50q8 0 11.5 -6t0.5 -14l-7 -18q-3 -8 -11 -14t-16 -6h-50q-11 0 -14 -10l-57 -142q-3 -8 -11 -14t-16 -6h-22q-8 0 -12 6
t-1 14l57 142q3 10 -6 10h-116q-4 0 -8 -2.5t-6 -7.5l-57 -142q-3 -8 -11 -14t-16 -6h-22q-8 0 -12 6t-1 14l57 142q3 10 -6 10h-50q-8 0 -12 6t-1 14l7 18q3 8 11.5 14t16.5 6h50q11 0 14 10z" />
    <glyph glyph-name="dollar" unicode="$" 
d="M391 704q74 -14 106.5 -65t16.5 -119l-3 -13q-2 -8 -9 -14t-15 -6h-24q-8 0 -13 6t-3 14l3 13q6 26 3.5 48.5t-15.5 39.5t-36 26.5t-57 9.5q-30 0 -59 -10t-51 -28t-35.5 -42.5t-13.5 -53.5q0 -27 10.5 -44t29.5 -28.5t43.5 -20t53.5 -19.5q32 -12 59 -26t47 -33.5
t31 -45.5t11 -62q0 -42 -15 -82t-42 -72t-66 -53.5t-87 -28.5q-12 -2 -13 -10l-8 -35q-2 -8 -9 -14t-15 -6h-22q-8 0 -13 6t-3 14l8 35q1 9 -8 10q-39 7 -68.5 25.5t-48.5 45.5t-25.5 61.5t0.5 72.5l3 16q2 8 9 14t15 6h25q8 0 13 -6t3 -14l-3 -16q-5 -26 -1 -52t18.5 -46.5
t39.5 -33t62 -12.5q42 0 76 13t58 36.5t37 55.5t13 70q0 37 -26.5 65t-94.5 49q-25 8 -53.5 18t-53 27.5t-40.5 43.5t-16 66q0 38 15 72.5t41 61.5t60.5 46t73.5 25q10 1 11 9l8 36q2 8 9 14t15 6h22q8 0 13 -6t3 -14l-8 -36q-1 -9 8 -10z" />
    <glyph glyph-name="percent" unicode="%" 
d="M68 15q-11 -15 -24 -15h-12q-10 0 -14 8.5t4 19.5l464 657q10 15 25 15h13q10 0 14 -8.5t-4 -19.5zM176 457q21 0 35.5 13.5t23.5 33t13.5 42t4.5 40.5q0 26 -7 41.5t-30 15.5q-21 0 -35.5 -13.5t-24 -33t-14 -42t-4.5 -40.5q0 -26 7.5 -41.5t30.5 -15.5zM220 690
q47 0 68 -26.5t21 -59.5q0 -34 -7.5 -68.5t-24 -62.5t-43 -45.5t-63.5 -17.5q-47 0 -68 26.5t-21 59.5q0 34 7.5 68.5t24 62.5t42.5 45.5t64 17.5zM345 57q21 0 35.5 13.5t23.5 33t13.5 42t4.5 40.5q0 26 -7 41.5t-30 15.5q-21 0 -35.5 -13.5t-24 -33t-14 -42t-4.5 -40.5
q0 -26 7.5 -41.5t30.5 -15.5zM389 290q47 0 68 -26.5t21 -59.5q0 -34 -7.5 -68.5t-24 -62.5t-43 -45.5t-63.5 -17.5q-47 0 -68 26.5t-21 59.5q0 34 7.5 68.5t24 62.5t42.5 45.5t64 17.5z" />
    <glyph glyph-name="ampersand" unicode="&#x26;" 
d="M163 369q8 6 8 12.5t-3 11.5q-9 20 -15.5 44.5t-6.5 47.5q0 43 15 82t42.5 68.5t67 47t87.5 17.5q40 0 70.5 -14t50 -38.5t26.5 -58t-1 -72.5l-3 -15q-2 -8 -9.5 -14t-15.5 -6h-20q-8 0 -12.5 6t-2.5 14l3 15q5 25 2.5 48.5t-13 41.5t-29.5 28.5t-46 10.5
q-31 0 -58.5 -10.5t-48 -30.5t-32.5 -50.5t-12 -69.5q0 -21 9.5 -45t22.5 -46t25.5 -39.5l17.5 -24.5l115 -161q1 -2 2.5 -1.5t2.5 1.5t2 3q9 18 16 38q6 17 11 40.5t5 49.5q0 8 5.5 14t13.5 6h19q8 0 13.5 -6t5.5 -14q0 -33 -5.5 -62.5t-13 -53t-15.5 -39.5t-14 -23
q-2 -2 -4 -7t2 -10l48 -71q7 -10 0 -22t-24 -12h-23q-11 0 -14.5 3.5t-5.5 6.5l-28 40q-5 6 -8.5 4t-5.5 -4q-35 -27 -72.5 -42.5t-83.5 -15.5q-43 0 -77 13.5t-58 36.5t-37 53.5t-13 64.5q0 69 34.5 120t87.5 89zM227 51q42 0 74.5 16.5t50.5 32.5l4 4t0 6l-148 218
q-2 3 -4 2t-3 -2q-16 -11 -33 -27t-31.5 -37t-23.5 -46.5t-9 -56.5q0 -50 35 -80t88 -30z" />
    <glyph glyph-name="quotesingle" unicode="'" 
d="M251 590q-11 0 -20 3t-6 17l15 70q2 8 9 14t15 6h70q8 0 13 -6t3 -14l-13 -62q-4 -14 -7 -23.5t-6 -16.5t-7 -12.5t-10 -11.5l-60 -64q-7 -5 -13.5 -7.5t-21.5 -2.5q-14 0 -14 12q0 7 4 12l53 71q5 5 3.5 10t-7.5 5z" />
    <glyph glyph-name="parenleft" unicode="(" 
d="M355 -27q8 0 13 -6t3 -14l-5 -23q-2 -8 -9.5 -14t-15.5 -6h-48q-91 0 -137 56.5t-38 153.5q2 20 7 51.5t12 68t15 76t17 76t17 67.5t15 51q35 106 96.5 158t168.5 52h42q8 0 12.5 -6t2.5 -14l-5 -23q-2 -8 -9 -14t-15 -6h-42q-33 0 -61 -7t-50.5 -24.5t-41 -45.5
t-33.5 -70q-11 -31 -25 -84t-26.5 -111t-21.5 -111t-10 -84q-1 -22 1.5 -47.5t15 -47.5t38 -37t69.5 -15h48z" />
    <glyph glyph-name="parenright" unicode=")" 
d="M197 657q-8 0 -13 6t-3 14l5 23q2 8 9.5 14t15.5 6h48q91 0 137 -56.5t38 -153.5q-2 -20 -7 -51.5t-12 -68t-15 -76t-17 -76t-17 -67.5t-15 -51q-18 -53 -38.5 -92.5t-50.5 -65.5t-72.5 -39t-103.5 -13h-42q-8 0 -12.5 6t-2.5 14l5 23q2 8 9 14t15 6h42q41 0 69.5 7
t49.5 24.5t36.5 45.5t30.5 70q11 31 25 84t26.5 111t21 111t10.5 84q1 22 -1.5 47.5t-15 47.5t-38 37t-69.5 15h-48z" />
    <glyph glyph-name="asterisk" unicode="*" 
d="M294 534l-13 -64q-2 -8 -9 -14t-15 -6h-21q-8 0 -13 6t-3 14l15 64l-62 -33q-8 -5 -16 -2.5t-10 9.5l-7 19q-2 7 2 15t12 12l62 31l-49 31q-7 5 -7 12.5t5 14.5l15 19q5 7 13.5 9t14.5 -2l48 -33l13 64q2 8 9 14t15 6h21q8 0 13 -6t3 -14l-15 -64l62 33q8 5 16 2.5
t10 -9.5l7 -19q2 -7 -2 -15t-12 -12l-62 -31l49 -31q7 -5 7 -12.5t-5 -14.5l-15 -19q-5 -7 -13.5 -9t-14.5 2z" />
    <glyph glyph-name="plus" unicode="+" 
d="M240 281q10 0 12 10l34 159q2 8 9 14t15 6h22q8 0 13 -6t3 -14l-34 -159q-2 -10 8 -10h159q8 0 13 -6t3 -14l-5 -21q-2 -8 -9 -14t-15 -6h-159q-10 0 -12 -10l-34 -160q-2 -8 -9 -14t-15 -6h-22q-8 0 -13 6t-3 14l34 160q2 10 -8 10h-159q-8 0 -13 6t-3 14l5 21q2 8 9 14
t15 6h159z" />
    <glyph glyph-name="comma" unicode="," 
d="M241 0q-8 0 -13 6t-3 14l15 70q2 8 9 14t15 6h70q8 0 13 -6t3 -14l-16 -75q-5 -21 -12 -31.5t-15 -19.5l-52 -56q-5 -5 -12 -11.5t-21 -6.5h-10q-9 0 -12.5 7.5t2.5 16.5l53 71q5 5 3.5 10t-7.5 5h-10z" />
    <glyph glyph-name="hyphen" unicode="-" 
d="M419 304q8 0 13 -6t3 -14l-7 -35q-2 -8 -9 -14t-15 -6h-273q-8 0 -13 6t-3 14l7 35q2 8 9 14t15 6h273z" />
    <glyph glyph-name="period" unicode="." 
d="M322 20q-2 -8 -9 -14t-15 -6h-70q-8 0 -13 6t-3 14l15 70q2 8 9 14t15 6h70q8 0 13 -6t3 -14z" />
    <glyph glyph-name="slash" unicode="/" 
d="M161 3q-7 -15 -21 -15h-21q-10 0 -15.5 8.5t-0.5 19.5l286 679q5 15 19 15h21q10 0 15.5 -8.5t0.5 -19.5z" />
    <glyph glyph-name="zero" unicode="0" 
d="M96 500q14 41 36 78.5t52.5 66.5t69 46t84.5 17q90 0 138.5 -55.5t39.5 -152.5q-3 -30 -9.5 -69.5t-15 -80.5t-18.5 -80.5t-20 -69.5q-14 -41 -34.5 -79t-50.5 -66.5t-69 -45.5t-88 -17q-90 0 -138.5 55.5t-39.5 152.5q3 30 9 69.5t15 81t19 80.5t20 69zM338 649
q-34 0 -63 -13t-52 -34t-40 -47.5t-26 -54.5q-11 -32 -21 -71t-18.5 -79.5t-15 -79.5t-8.5 -70q-2 -22 1.5 -48t16 -48.5t36.5 -37.5t63 -15q35 0 64 13t51.5 34t39 48t26.5 54q11 31 21.5 70t19 79.5t14.5 79.5t8 71q1 22 -2 48.5t-15.5 48.5t-36 37t-63.5 15z" />
    <glyph glyph-name="one" unicode="1" 
d="M339 596q1 5 -2.5 5.5t-5.5 -1.5l-178 -176q-8 -7 -15 -3.5t-5 11.5l9 42q2 13 12 24t17 17l177 176q11 9 22 9h31q8 0 13 -6t3 -14l-130 -609q-2 -10 8 -10h121q8 0 13 -6t3 -14l-5 -21q-2 -8 -9 -14t-15 -6h-351q-8 0 -13 6t-3 14l5 21q2 8 9 14t15 6h150q10 0 12 10z
" />
    <glyph glyph-name="two" unicode="2" 
d="M451 550q0 19 -6 36.5t-18.5 31.5t-32 22.5t-46.5 8.5q-35 0 -61.5 -12t-46 -32.5t-32 -47t-18.5 -55.5q-2 -8 -9 -14t-15 -6h-23q-8 0 -13 6t-3 14q8 44 26.5 82t46.5 65.5t65 43t83 15.5q35 0 65 -11t52.5 -32t35 -50t12.5 -65q0 -37 -10.5 -69t-28 -60.5t-40.5 -53.5
t-47 -47l-266 -243q-5 -5 -4.5 -10.5t8.5 -5.5h287q8 0 13 -6t3 -14l-4 -21q-2 -8 -9.5 -14t-15.5 -6h-366q-8 0 -12.5 6t-2.5 14l7 37q2 11 6.5 16.5t8.5 8.5l297 271q49 44 81.5 90.5t32.5 106.5z" />
    <glyph glyph-name="three" unicode="3" 
d="M221 56q34 0 65.5 12t56 34.5t39 54.5t14.5 73q0 22 -6 41t-19.5 33t-35.5 22.5t-53 8.5h-7q-8 0 -12.5 6t-2.5 14l4 22q2 8 9 14t15 6h7q34 0 62 12.5t48.5 33.5t31.5 49t11 58q0 39 -26.5 66.5t-75.5 27.5q-63 0 -105.5 -38t-54.5 -104q-2 -8 -7.5 -14t-16.5 -6h-25
q-10 0 -13.5 6t-2.5 14q5 44 24 81.5t49 65.5t69 43.5t83 15.5q37 0 67.5 -12t52.5 -33t34.5 -50t12.5 -63q0 -25 -7.5 -50t-20.5 -48t-30 -43t-36 -34q-8 -5 -10 -11.5t4 -12.5q23 -23 35.5 -50t12.5 -61q0 -55 -20 -100.5t-53 -78.5t-76.5 -51t-90.5 -18q-46 0 -84 16.5
t-63 45.5t-34 68t3 83q2 8 8 14t16 6h23q9 0 14 -5.5t2 -14.5q-9 -32 -5 -59t19.5 -47t41.5 -31.5t59 -11.5z" />
    <glyph glyph-name="four" unicode="4" 
d="M449 199q8 0 13 -6t3 -14l-4 -19q-2 -8 -9 -14t-15 -6h-56q-10 0 -12 -10l-24 -110q-2 -8 -9 -14t-15 -6h-19q-8 0 -13 6t-3 14l24 110q2 10 -8 10h-262q-8 0 -13 6t-3 14l3 13q3 16 10.5 28t14.5 21l353 464q6 8 11 11t13 3h41q8 0 13 -6t3 -14l-100 -471q-2 -10 7 -10
h56zM109 207q-6 -8 2 -8h203q11 0 13 10l81 381q1 5 -2 5t-5 -3z" />
    <glyph glyph-name="five" unicode="5" 
d="M233 640q-10 0 -12 -10l-39 -185q-2 -8 3 -12t17 4q17 12 38.5 20.5t54.5 8.5q37 0 68.5 -13.5t54.5 -38.5t35.5 -60.5t12.5 -78.5q0 -55 -17.5 -106t-50 -90.5t-79 -63t-103.5 -23.5q-40 0 -74 14t-58 38.5t-34 58t-2 72.5q5 20 24 20h21q8 0 13 -6t3 -14
q-5 -24 1 -46.5t20.5 -39.5t36.5 -27t49 -10q42 0 76.5 18.5t60 48.5t39.5 69.5t14 81.5q0 58 -29.5 97t-85.5 39q-25 0 -44.5 -8.5t-35.5 -21.5t-28 -29t-21 -31q-5 -7 -9.5 -9t-11.5 -2h-28q-8 0 -13 6t-3 14l75 355q2 8 9.5 14t15.5 6h312q8 0 12.5 -6t2.5 -14l-4 -20
q-2 -8 -9 -14t-15 -6h-263z" />
    <glyph glyph-name="six" unicode="6" 
d="M290 452q83 0 129 -51t46 -134q0 -50 -18.5 -99.5t-51.5 -88.5t-78 -63t-98 -24q-44 0 -78 16t-57.5 44.5t-34 66t-6.5 81.5q3 30 9.5 69.5t15 80.5t18.5 80.5t20 69.5q14 43 36 81t51.5 66t66 44.5t79.5 16.5t77.5 -15t56.5 -40.5t30.5 -60.5t-0.5 -75q-2 -8 -9 -14
t-15 -6h-22q-8 0 -13 6t-3 14q5 24 1.5 47t-15.5 42t-34 30.5t-54 11.5q-29 0 -55.5 -12t-48.5 -32t-39 -47t-26 -57q-9 -29 -12.5 -46.5l-7.5 -37.5q-2 -6 2.5 -9t11.5 2l19.5 13t25.5 14t35 11.5t46 4.5zM106 194q-3 -28 2.5 -53t19.5 -44.5t36.5 -31t54.5 -11.5
q41 0 74.5 20t57.5 51.5t37.5 69t13.5 73.5q0 52 -27.5 87t-84.5 35q-39 0 -71.5 -16t-56 -43t-38 -62.5t-18.5 -74.5z" />
    <glyph glyph-name="seven" unicode="7" 
d="M438 630q2 4 1 7t-6 3h-303q-8 0 -13 6t-3 14l5 20q2 8 9 14t15 6h360q8 0 13 -6t3 -14l-8 -37q-1 -5 -3 -9t-6 -11l-362 -608q-10 -15 -22 -15h-31q-14 0 -15.5 8.5t2.5 15.5z" />
    <glyph glyph-name="eight" unicode="8" 
d="M214 53q37 0 69.5 13.5t55.5 37t36.5 54.5t13.5 66q0 23 -7.5 43.5t-22.5 36t-37.5 24.5t-52.5 9q-39 0 -72 -12.5t-57 -35t-38 -54t-14 -70.5q0 -24 9 -44.5t25.5 -35.5t40 -23.5t51.5 -8.5zM281 394q32 0 61 12t51 33t35 49.5t13 61.5q0 39 -29 68t-78 29
q-38 0 -68 -12.5t-50.5 -34t-31.5 -50t-11 -60.5q0 -42 28.5 -69t79.5 -27zM148 365q9 5 9 12t-5 12q-17 20 -29 45.5t-12 55.5q0 43 17 82.5t46.5 69.5t70.5 48t89 18q36 0 67 -12t54 -33.5t35.5 -50.5t12.5 -62q0 -54 -29 -98.5t-73 -74.5q-18 -12 -6 -24
q25 -24 40.5 -58.5t15.5 -70.5q0 -50 -19 -92t-51.5 -73.5t-75.5 -49t-91 -17.5q-42 0 -77 13t-59.5 36.5t-38 55t-13.5 68.5q0 61 34 114.5t88 85.5z" />
    <glyph glyph-name="nine" unicode="9" 
d="M441 517q0 21 -4.5 44t-17 41.5t-34.5 31t-57 12.5q-41 0 -75 -18t-58 -46.5t-37 -63.5t-13 -69q0 -27 5.5 -52t18.5 -44.5t34.5 -31t53.5 -11.5q40 0 74 16t58.5 43.5t38 65.5t13.5 82zM206 52q67 0 109.5 41.5t67.5 106.5q7 18 13.5 44t8.5 43q1 7 -4 9t-13 -3
q-9 -6 -20.5 -14t-27.5 -14.5t-37 -11.5t-48 -5q-42 0 -74.5 14.5t-54.5 40.5t-33 61.5t-11 78.5q0 50 18.5 98t51.5 85t78 59.5t98 22.5q81 0 127.5 -49.5t46.5 -150.5q0 -34 -4 -73.5t-11.5 -80t-17.5 -79t-21 -70.5q-36 -102 -96.5 -157.5t-150.5 -55.5q-37 0 -71 15
t-59 40.5t-36.5 60.5t-3.5 75q2 8 9 14t15 6h22q8 0 13 -6t3 -14q-6 -26 0.5 -49.5t22 -41.5t38.5 -29t52 -11z" />
    <glyph glyph-name="colon" unicode=":" 
d="M282 20q-2 -8 -9.5 -14t-15.5 -6h-70q-8 0 -12.5 6t-2.5 14l15 70q2 8 9 14t15 6h70q8 0 13 -6t3 -14zM362 400q-2 -8 -9 -14t-15 -6h-70q-8 0 -13 6t-3 14l15 70q2 8 9.5 14t15.5 6h70q8 0 12.5 -6t2.5 -14z" />
    <glyph glyph-name="semicolon" unicode=";" 
d="M375 400q-2 -8 -9.5 -14t-15.5 -6h-70q-8 0 -12.5 6t-2.5 14l15 70q2 8 9 14t15 6h70q8 0 13 -6t3 -14zM200 0q-8 0 -13 6t-3 14l15 70q2 8 9 14t15 6h70q8 0 13 -6t3 -14l-16 -75q-5 -21 -12 -31.5t-15 -19.5l-52 -56q-5 -5 -12 -11.5t-21 -6.5h-10q-9 0 -12.5 7.5
t2.5 16.5l53 71q5 5 3.5 10t-7.5 5h-10z" />
    <glyph glyph-name="less" unicode="&#x3c;" 
d="M396 64q13 -9 10 -21l-6 -24q-2 -12 -11 -18t-16 -1l-315 219q-13 8 -10 22l4 19q3 14 19 22l409 218q8 4 14.5 -1.5t4.5 -17.5l-6 -32q-3 -11 -20 -21l-339 -180q-7 -4 -1 -8z" />
    <glyph glyph-name="equal" unicode="=" 
d="M87 307q-8 0 -13 6t-3 14l5 25q2 8 9 14t15 6h400q8 0 13 -6t3 -14l-5 -25q-2 -8 -9 -14t-15 -6h-400zM49 129q-8 0 -13 6t-3 14l5 25q2 8 9 14t15 6h400q8 0 13 -6t3 -14l-5 -25q-2 -8 -9 -14t-15 -6h-400z" />
    <glyph glyph-name="greater" unicode="&#x3e;" 
d="M415 252q7 4 1 8l-263 176q-13 9 -10 21l6 24q2 12 11 18t16 1l315 -218q14 -9 11 -22l-4 -19q-3 -14 -20 -22l-409 -219q-7 -4 -14 1.5t-5 17.5l6 32q3 11 20 21z" />
    <glyph glyph-name="question" unicode="?" 
d="M403 560q0 38 -28 64t-84 26q-29 0 -52 -10.5t-40 -28.5t-29 -42t-18 -52l-2 -7q-2 -8 -9 -14t-15 -6h-20q-8 0 -13 6t-3 14l2 7q9 40 27.5 75t45.5 60.5t61 40t72 14.5q36 0 66.5 -11t52 -30.5t33.5 -46.5t12 -59q0 -29 -7.5 -51.5t-20.5 -41.5t-30 -35t-35 -32
q-8 -7 -28 -21t-41 -31t-38.5 -34.5t-20.5 -32.5l-15 -71q-2 -8 -9.5 -14t-15.5 -6h-20q-8 0 -12.5 6t-2.5 14l15 71q4 20 12 35.5t19 25.5q32 30 55 46.5t41 31.5q18 14 35 27t30.5 28.5t21.5 35.5t8 49zM203 16q-1 -7 -6.5 -11.5t-12.5 -4.5h-62q-15 0 -13 16l14 63
q2 6 7 11t12 5h62q7 0 11 -5t2 -11z" />
    <glyph glyph-name="at" unicode="@" 
d="M221 21q29 0 57 6.5t54 17.5q11 5 17 0t4 -15l-3 -13q-2 -12 -10.5 -17.5t-19.5 -10.5q-18 -9 -50 -15.5t-61 -6.5q-48 0 -88 16t-66.5 48t-36 81t4.5 115l25 115q11 53 37 96.5t63 75t83.5 49t97.5 17.5q54 0 96.5 -16t69 -45.5t36 -72t-1.5 -94.5l-32 -150
q-4 -19 -15 -36t-26 -29.5t-33.5 -19.5t-37.5 -7q-8 0 -18.5 1t-20.5 9q-9 7 -17 7.5t-22 -7.5q-30 -15 -68 -15q-54 0 -81 30.5t-27 84.5q0 39 10.5 78.5t32.5 71t55.5 51.5t80.5 20q58 0 86 -34.5t17 -88.5l-29 -135q-2 -10 5 -16t17 -6q14 0 23 11t13 28l32 152
q8 36 3 67.5t-23.5 55t-50 37t-77.5 13.5q-45 0 -82.5 -15t-66 -40t-47 -58.5t-26.5 -69.5l-25 -115q-12 -55 -6 -94t25.5 -64t51 -36.5t71.5 -11.5zM359 318q3 12 1.5 24t-8.5 21.5t-20 16t-34 6.5q-31 0 -51.5 -16t-33 -40.5t-18 -54t-5.5 -55.5q0 -12 2.5 -23t9 -19.5
t18 -13t30.5 -4.5q21 0 37 6.5t27 16t17.5 21.5t8.5 23z" />
    <glyph glyph-name="A" unicode="A" 
d="M35 15q-3 -6 -8.5 -10.5t-12.5 -4.5h-27q-12 0 -15.5 6.5t-0.5 13.5l332 665q7 15 22 15h50q14 0 16 -15l49 -665q1 -7 -5.5 -13.5t-18.5 -6.5h-25q-14 0 -16 15l-11 169q-2 14 -16 14h-206q-14 0 -22 -14zM165 271q-6 -11 5 -11h176q11 0 11 11l-17 340q0 6 -3 6h-2
q-2 0 -5 -6z" />
    <glyph glyph-name="B" unicode="B" 
d="M433 374q-17 -12 -5 -22q21 -20 33.5 -51t12.5 -66q0 -53 -18.5 -96t-50 -74t-74 -48t-89.5 -17h-200q-8 0 -13 6t-3 14l141 660q2 8 9 14t15 6h175q76 0 117.5 -44.5t41.5 -115.5q0 -50 -25.5 -93.5t-66.5 -72.5zM229 636q-10 0 -12 -10l-46 -219q-2 -10 7 -10h138
q28 0 55 11t47 30.5t32.5 45.5t12.5 56q0 42 -25.5 69t-70.5 27h-138zM242 64q36 0 66.5 13t53.5 36t36 54t13 68q0 49 -31.5 76t-79.5 27h-134q-10 0 -12 -10l-54 -254q-2 -10 8 -10h134z" />
    <glyph glyph-name="C" unicode="C" 
d="M526 496q-2 -8 -9.5 -14t-15.5 -6h-25q-8 0 -12.5 6t-2.5 14q5 28 0.5 55t-19.5 47.5t-41 33t-64 12.5q-40 0 -70.5 -12t-53 -32.5t-38 -46.5t-25.5 -53q-11 -31 -21.5 -70t-19 -80t-14.5 -80t-8 -70q-2 -22 2.5 -47t18 -46.5t38.5 -36t66 -14.5q49 0 82 14.5t54 36
t32.5 47.5t19.5 50q2 8 9.5 14t15.5 6h27q8 0 12.5 -6t2.5 -14q-32 -101 -92.5 -156.5t-162.5 -55.5q-45 0 -82 14.5t-62.5 41.5t-38.5 65.5t-9 86.5q2 30 8.5 69.5t15 81t18.5 80.5t21 69q15 41 37 78.5t53 66.5t71.5 46t92.5 17t90.5 -17.5t63 -46.5t33.5 -67.5t2 -80.5z
" />
    <glyph glyph-name="D" unicode="D" 
d="M198 636q-10 0 -12 -10l-117 -552q-2 -10 8 -10h123q46 0 78 13t53.5 33t34.5 44t21 46q11 31 21.5 70t19 80t14.5 80t8 70q2 27 -4 52t-21 43.5t-39.5 29.5t-60.5 11h-127zM325 700q49 0 86.5 -16t62 -43t35.5 -63.5t8 -77.5q-2 -30 -8.5 -69t-15 -80.5t-19 -81
t-20.5 -69.5q-34 -97 -96.5 -148.5t-157.5 -51.5h-191q-8 0 -13 6t-3 14l141 660q2 8 9 14t15 6h167z" />
    <glyph glyph-name="E" unicode="E" 
d="M173 399q-2 -10 8 -10h268q8 0 13 -6t3 -14l-5 -23q-2 -8 -9.5 -14t-15.5 -6h-268q-9 0 -12 -10l-51 -242q-2 -10 8 -10h281q8 0 12.5 -6t2.5 -14l-5 -24q-2 -8 -9 -14t-15 -6h-335q-8 0 -13 6t-3 14l141 660q2 8 9 14t15 6h333q8 0 13 -6t3 -14l-5 -24q-2 -8 -9.5 -14
t-15.5 -6h-279q-10 0 -12 -10z" />
    <glyph glyph-name="F" unicode="F" 
d="M92 20q-2 -8 -9 -14t-15 -6h-24q-8 0 -13 6t-3 14l141 660q2 8 9 14t15 6h323q8 0 13 -6t3 -14l-5 -24q-2 -8 -9.5 -14t-15.5 -6h-269q-10 0 -12 -10l-48 -226q-2 -10 8 -10h258q8 0 13 -6t3 -14l-5 -24q-2 -8 -9.5 -14t-15.5 -6h-258q-10 0 -12 -10z" />
    <glyph glyph-name="G" unicode="G" 
d="M422 308q2 10 -8 10h-119q-8 0 -13 6t-3 14l5 24q2 8 9 14t15 6h174q8 0 13 -6t3 -14l-33 -158q-22 -103 -86.5 -157.5t-166.5 -54.5q-45 0 -82 14.5t-62.5 41.5t-38.5 65.5t-9 86.5q2 30 8.5 69.5t15 81t18.5 80.5t21 69q15 41 37 78.5t53 66.5t71.5 46t92.5 17
t90.5 -17.5t63 -46.5t33.5 -67.5t2 -80.5q-2 -8 -9.5 -14t-15.5 -6h-25q-8 0 -12.5 6t-2.5 14q5 28 0.5 55t-19.5 47.5t-41 33t-64 12.5q-40 0 -70.5 -12t-53 -32.5t-38 -46.5t-25.5 -53q-11 -31 -21.5 -70t-19 -80t-14.5 -80t-8 -70q-2 -22 2.5 -47t18 -46.5t38.5 -36
t66 -14.5q49 0 82.5 14t54.5 35.5t32 48t17 50.5z" />
    <glyph glyph-name="H" unicode="H" 
d="M145 400q-2 -10 8 -10h262q10 0 12 10l60 280q2 8 9 14t15 6h24q8 0 13 -6t3 -14l-141 -660q-2 -8 -9 -14t-15 -6h-24q-8 0 -13 6t-3 14l63 296q3 10 -8 10h-262q-9 0 -12 -10l-63 -296q-2 -8 -9 -14t-15 -6h-24q-8 0 -13 6t-3 14l141 660q2 8 9 14t15 6h24q8 0 13 -6
t3 -14z" />
    <glyph glyph-name="I" unicode="I" 
d="M311 630q2 10 -8 10h-125q-8 0 -13 6t-3 14l5 20q2 8 9 14t15 6h335q8 0 13 -6t3 -14l-5 -20q-2 -8 -9 -14t-15 -6h-125q-10 0 -12 -10l-119 -559q-2 -10 8 -10h135q8 0 13 -6t3 -14l-5 -21q-2 -8 -9 -14t-15 -6h-355q-8 0 -13 6t-3 14l5 21q2 8 9 14t15 6h135
q10 0 12 10z" />
    <glyph glyph-name="J" unicode="J" 
d="M100 192q-3 -27 3 -52t20.5 -43.5t37 -29.5t52.5 -11q73 0 109.5 40t50.5 104l101 480q2 8 9.5 14t15.5 6h24q8 0 12.5 -6t2.5 -14l-103 -488q-9 -45 -29 -81.5t-49 -63t-67 -41t-84 -14.5q-41 0 -75 15.5t-56.5 42.5t-33 63.5t-5.5 78.5l1 8q1 8 8.5 14t15.5 6h25
q8 0 12 -6t3 -14z" />
    <glyph glyph-name="K" unicode="K" 
d="M491 691q5 4 11 6.5t17 2.5h20q16 0 19.5 -12.5t-6.5 -21.5l-328 -289q-14 -12 -6 -24l215 -316q8 -12 2 -24.5t-23 -12.5h-19q-11 0 -16 5t-7 8l-204 300q-2 2 -5 2t-4 -4l-63 -291q-2 -8 -9 -14t-15 -6h-24q-8 0 -13 6t-3 14l141 660q2 8 9 14t15 6h24q8 0 13 -6t3 -14
l-52 -250q-1 -4 2 -4t5 2z" />
    <glyph glyph-name="L" unicode="L" 
d="M158 74q-2 -10 8 -10h275q8 0 12.5 -6t2.5 -14l-5 -24q-2 -8 -9 -14t-15 -6h-329q-8 0 -13 6t-3 14l141 660q2 8 9 14t15 6h24q8 0 13 -6t3 -14z" />
    <glyph glyph-name="M" unicode="M" 
d="M270 363q0 -3 4 -3.5t6 3.5l168 320q10 17 25 17h65q8 0 13 -6t3 -14l-141 -660q-2 -8 -9 -14t-15 -6h-20q-8 0 -13 6t-3 14l122 573q1 5 -3 6t-6 -4l-173 -328q-5 -10 -11 -13.5t-14 -3.5h-28q-16 0 -17 17l-33 328q-1 5 -5.5 4t-5.5 -6l-122 -573q-2 -8 -9 -14t-15 -6
h-20q-8 0 -12.5 6t-2.5 14l140 660q2 8 9 14t15 6h57q16 0 17 -17z" />
    <glyph glyph-name="N" unicode="N" 
d="M354 103q1 -3 4.5 -2.5t4.5 4.5l122 575q2 8 6 14t12 6h26q8 0 13 -6t3 -14l-141 -660q-2 -8 -9 -14t-15 -6h-52q-8 0 -11.5 3.5t-5.5 13.5l-115 582q-1 3 -4.5 2.5t-4.5 -4.5l-123 -577q-2 -8 -9 -14t-15 -6h-20q-8 0 -13 6t-3 14l141 660q2 8 9 14t15 6h52
q8 0 11.5 -3.5t5.5 -13.5z" />
    <glyph glyph-name="O" unicode="O" 
d="M337 644q-40 0 -70.5 -12t-53 -32.5t-38 -46.5t-25.5 -53q-11 -31 -21.5 -70t-19 -80t-14.5 -80t-8 -70q-2 -22 2.5 -47t18 -46.5t38.5 -36t66 -14.5q46 0 78 14.5t53.5 36t34.5 46.5t21 47q11 31 21.5 70t19 80t14.5 80t8 70q2 27 -4 53t-21 46.5t-39.5 32.5t-60.5 12z
M337 708q49 0 86.5 -17t62 -46t35.5 -66.5t8 -78.5q-2 -30 -8.5 -69t-15 -80.5t-19 -81t-20.5 -69.5q-34 -97 -96.5 -152.5t-157.5 -55.5q-45 0 -82 14.5t-62.5 41.5t-38.5 65.5t-9 86.5q2 30 8.5 69.5t15 81t18.5 80.5t21 69q15 41 37 78.5t53 66.5t71.5 46t92.5 17z" />
    <glyph glyph-name="P" unicode="P" 
d="M87 20q-2 -8 -9.5 -14t-15.5 -6h-24q-8 0 -12.5 6t-2.5 14l140 660q2 8 9 14t15 6h157q42 0 75.5 -13t57.5 -35.5t37 -54t13 -67.5q0 -50 -18 -95t-52 -79.5t-83 -55t-112 -20.5h-110q-10 0 -12 -10zM228 636q-11 0 -13 -10l-57 -272q-2 -10 8 -10h106q47 0 82.5 15.5
t59.5 41t36 59.5t12 70q0 45 -30.5 75.5t-87.5 30.5h-116z" />
    <glyph glyph-name="Q" unicode="Q" 
d="M337 644q-40 0 -70.5 -12t-53 -32.5t-38 -46.5t-25.5 -53q-11 -31 -21.5 -70t-19 -80t-14.5 -80t-8 -70q-2 -22 2.5 -47t18 -46.5t38.5 -36t66 -14.5q46 0 78 14.5t53.5 36t34.5 46.5t21 47q11 31 21.5 70t19 80t14.5 80t8 70q2 27 -4 53t-21 46.5t-39.5 32.5t-60.5 12z
M385 -62q5 -10 -1 -19t-16 -9h-32q-7 0 -10 3.5t-7 11.5l-34 68q-3 6 -11.5 5.5t-14.5 -2.5q-11 -2 -23 -3t-24 -1q-45 0 -82 14.5t-62.5 41.5t-38.5 65.5t-9 86.5q2 30 8.5 69.5t15 81t18.5 80.5t21 69q15 41 37 78.5t53 66.5t71.5 46t92.5 17q49 0 86.5 -17t62 -46
t35.5 -66.5t8 -78.5q-2 -30 -8.5 -69t-15 -80.5t-19 -81t-20.5 -69.5q-38 -110 -113 -165q-9 -8 -5 -16z" />
    <glyph glyph-name="R" unicode="R" 
d="M345 291q-11 -3 -15 -12t1 -20l92 -225q5 -11 0 -22.5t-24 -11.5h-19q-12 0 -16 6t-8 14l-101 248q-2 5 -5 8.5t-11 3.5h-87q-10 0 -12 -10l-53 -250q-2 -8 -9.5 -14t-15.5 -6h-24q-8 0 -12.5 6t-2.5 14l140 660q2 8 9 14t15 6h157q42 0 75.5 -13t57.5 -35.5t37 -54
t13 -67.5q0 -41 -12 -79t-35.5 -69.5t-57.5 -55t-77 -35.5zM228 636q-11 0 -13 -10l-57 -272q-2 -10 8 -10h106q47 0 82.5 15.5t59.5 41t36 59.5t12 70q0 45 -30.5 75.5t-87.5 30.5h-116z" />
    <glyph glyph-name="S" unicode="S" 
d="M394 231q0 37 -26.5 65t-94.5 49q-25 8 -53.5 19t-53 29t-40.5 45t-16 67q0 46 20 83.5t53 64t75.5 41t86.5 14.5q49 0 83.5 -15t54.5 -40.5t25 -59.5t-4 -73l-3 -13q-2 -8 -9 -14t-15 -6h-24q-8 0 -13 6t-3 14l3 13q6 26 3.5 48.5t-15.5 39.5t-36 26.5t-57 9.5t-63 -10
t-50.5 -28t-33.5 -42.5t-12 -53.5q0 -27 10.5 -44t29.5 -28.5t43.5 -20t53.5 -19.5q32 -12 59 -26t47 -33.5t31 -45.5t11 -62q0 -47 -18 -90t-51 -76t-79 -53t-103 -20q-48 0 -86 16.5t-62.5 44.5t-34 66t-1.5 81l3 16q2 8 9 14t15 6h25q8 0 13 -6t3 -14l-3 -16
q-5 -26 -1 -52t18.5 -46.5t39.5 -33t62 -12.5q42 0 76 13t58 36.5t37 55.5t13 70z" />
    <glyph glyph-name="T" unicode="T" 
d="M123 636q-8 0 -12.5 6t-2.5 14l5 24q2 8 9 14t15 6h410q8 0 13 -6t3 -14l-5 -24q-2 -8 -9.5 -14t-15.5 -6h-162q-10 0 -12 -10l-129 -606q-2 -8 -9 -14t-15 -6h-25q-8 0 -13 6t-3 14l129 606q2 10 -8 10h-163z" />
    <glyph glyph-name="U" unicode="U" 
d="M96 207q-6 -30 -0.5 -57.5t21.5 -48t41 -33t57 -12.5q39 0 70 12.5t54 33t38 48t21 57.5l100 473q2 8 9.5 14t15.5 6h24q8 0 12.5 -6t2.5 -14l-100 -473q-9 -45 -30.5 -84t-53 -68t-72.5 -46t-91 -17q-45 0 -82.5 17t-63 46t-36 68t-1.5 84l100 473q2 8 9.5 14t15.5 6h24
q8 0 12.5 -6t2.5 -14z" />
    <glyph glyph-name="V" unicode="V" 
d="M515 685q7 15 22 15h32q12 0 15 -7.5t-1 -15.5l-332 -662q-8 -15 -22 -15h-60q-15 0 -16 15l-49 661q-1 8 5.5 16t18.5 8h26q15 0 16 -15l39 -590q0 -6 5 -6h2q4 0 7 6z" />
    <glyph glyph-name="W" unicode="W" 
d="M320 111q0 -5 5 -5t7 5l184 574q3 8 9 11.5t13 3.5h25q12 0 15 -6t1 -14l-221 -665q-6 -15 -22 -15h-70q-7 0 -12 3.5t-4 11.5l35 362q0 4 -2 4t-4 -4l-132 -362q-6 -15 -22 -15h-68q-7 0 -12 3.5t-4 11.5l69 665q1 8 6.5 14t17.5 6h24q7 0 12 -3.5t4 -11.5l-63 -574
q-1 -5 4.5 -5t7.5 5l139 374q6 15 22 15h46q7 0 12 -3.5t4 -11.5z" />
    <glyph glyph-name="X" unicode="X" 
d="M74 15q-10 -15 -24 -15h-40q-10 0 -14 8.5t4 19.5l243 328q6 8 4 14l-116 302q-3 11 4.5 19.5t17.5 8.5h25q12 0 16 -15l97 -250q1 -4 3.5 -4t4.5 4l183 250q10 15 22 15h37q10 0 14 -8.5t-4 -19.5l-224 -302q-5 -6 -2 -14l125 -328q3 -11 -4.5 -19.5t-17.5 -8.5h-27
q-13 0 -17 15l-102 274q-3 8 -8 0z" />
    <glyph glyph-name="Y" unicode="Y" 
d="M253 328q1 -4 3.5 -4t4.5 4l213 357q8 15 22 15h36q10 0 13.5 -8.5t-3.5 -19.5l-267 -431l-47 -221q-2 -8 -9 -14t-15 -6h-26q-8 0 -13 6t-3 14l47 220l-85 432q-2 11 5 19.5t17 8.5h28q13 0 16 -15z" />
    <glyph glyph-name="Z" unicode="Z" 
d="M114 75q-3 -4 -2 -7t6 -3h307q8 0 13 -6t3 -14l-6 -27q-2 -8 -9 -13t-15 -5h-381q-8 0 -13 6t-3 14l9 41q3 8 9 16l435 549q3 4 2 7t-6 3h-289q-8 0 -12.5 6t-2.5 14l5 24q2 8 9 14t15 6h352q8 0 13 -6t3 -14l-10 -44q-1 -8 -8 -16z" />
    <glyph glyph-name="bracketleft" unicode="[" 
d="M183 -24q-2 -10 8 -10h156q8 0 13 -6t3 -14l-3 -16q-2 -8 -9.5 -14t-15.5 -6h-202q-8 0 -12 6t-2 14l162 770q2 8 9.5 14t15.5 6h200q8 0 12.5 -6t2.5 -14l-3 -16q-2 -8 -9 -14t-15 -6h-154q-10 0 -12 -10z" />
    <glyph glyph-name="backslash" unicode="\" 
d="M178 682q-2 11 5 19.5t17 8.5h14q13 0 16 -15l142 -679q2 -11 -5 -19.5t-17 -8.5h-14q-15 0 -18 15z" />
    <glyph glyph-name="bracketright" unicode="]" 
d="M367 654q2 10 -8 10h-156q-8 0 -13 6t-3 14l3 16q2 8 9.5 14t15.5 6h202q8 0 12 -6t2 -14l-162 -770q-2 -8 -9.5 -14t-15.5 -6h-200q-8 0 -12.5 6t-2.5 14l3 16q2 8 9 14t15 6h154q10 0 12 10z" />
    <glyph glyph-name="asciicircum" unicode="^" 
d="M205 601q-5 -5 -14 -10.5t-20 -5.5h-47q-10 0 -11 8t5 13l141 112q6 5 12.5 8.5t20.5 3.5h21q14 0 18.5 -4t8.5 -8l95 -112q4 -4 -1 -12.5t-15 -8.5h-39q-11 0 -17.5 5.5t-10.5 10.5l-53 65q-6 7 -14 0z" />
    <glyph glyph-name="underscore" unicode="_" 
d="M547 0q8 0 13 -6t3 -14l-5 -19q-2 -8 -9 -14t-15 -6h-530q-8 0 -13 6t-3 14l5 19q2 8 9 14t15 6h530z" />
    <glyph glyph-name="grave" unicode="`" 
d="M275 730q11 0 15.5 -5.5t7.5 -10.5l52 -109q3 -5 -2.5 -12.5t-15.5 -7.5h-19q-14 0 -19 3.5t-8 8.5l-85 112q-3 5 1.5 13t14.5 8h58z" />
    <glyph glyph-name="a" unicode="a" 
d="M393 330q0 53 -27 87t-75 34q-41 0 -76 -20t-61 -55t-41 -83.5t-15 -106.5q0 -28 8 -53t23 -43.5t35.5 -29t44.5 -10.5q49 0 84 28t57 70t32.5 91t10.5 91zM201 -10q-34 0 -63.5 14t-51.5 39.5t-35 61.5t-13 81q0 60 18.5 117.5t51.5 103.5t80 74t104 28q42 0 68 -14.5
t39 -31.5q4 -5 7 -9t8 -4q6 0 10 8q4 9 7.5 17.5t5.5 14.5t7 8t10 2h21q8 0 13 -6t3 -14l-99 -460q-2 -8 -9 -14t-15 -6h-15q-9 0 -14 7q-2 3 -2 8.5v11t-1 9.5t-5 4q-6 0 -14.5 -8t-23.5 -17t-37.5 -17t-54.5 -8z" />
    <glyph glyph-name="b" unicode="b" 
d="M233 49q41 0 69 13t46.5 32.5t29 42.5t17.5 43q10 31 18 70t11 70q2 20 -1 43t-14 42.5t-33 32.5t-58 13q-33 0 -58.5 -13t-44 -32.5t-30.5 -42.5t-18 -43q-9 -31 -17 -70t-12 -70q-2 -20 0 -43t12 -42.5t30 -32.5t53 -13zM117 23q-9 0 -15.5 -5.5t-11.5 -10.5
q-9 -7 -16 -7h-16q-8 0 -12.5 6t-2.5 14l141 667q2 8 9.5 14t15.5 6h19q8 0 12.5 -6t2.5 -14l-38 -181q-2 -7 2.5 -14t15.5 -7q7 0 16 4t20 8.5t25.5 8.5t33.5 4q46 0 80 -15t55 -40.5t29.5 -60.5t2.5 -74q-4 -30 -12.5 -70t-16.5 -70q-12 -39 -29.5 -74t-44 -60.5
t-63.5 -40.5t-86 -15q-28 0 -45.5 5t-29.5 11.5t-21 11.5t-20 5z" />
    <glyph glyph-name="c" unicode="c" 
d="M226 49q37 0 64 10.5t45 27t28.5 36.5t14.5 40q2 10 9 13.5t14 3.5h21q8 0 12.5 -6t2.5 -14q-7 -34 -25 -64.5t-45 -54t-62.5 -37.5t-78.5 -14q-50 0 -85.5 15t-57 40.5t-29.5 60.5t-2 74q4 30 12.5 70t16.5 70q12 39 32.5 74t49.5 60.5t66 40.5t82 15q42 0 75.5 -14
t56 -37.5t31.5 -54t2 -64.5q-2 -8 -8 -14t-14 -6h-23q-7 0 -12 4t-3 12q5 22 0.5 43t-17.5 37t-35 25.5t-53 9.5q-41 0 -70 -13t-49 -32.5t-32 -42.5t-18 -43q-9 -31 -17 -70t-12 -70q-2 -20 1 -43t15.5 -42.5t35.5 -32.5t61 -13z" />
    <glyph glyph-name="d" unicode="d" 
d="M199 49q33 0 58.5 13t44 32.5t30.5 42.5t18 43q9 31 17 70t12 70q2 20 0 43t-12 42.5t-30 32.5t-53 13q-36 0 -63.5 -13t-47 -32.5t-32 -42.5t-19.5 -43q-10 -31 -18 -70t-11 -70q-2 -20 0.5 -43t14 -42.5t33 -32.5t58.5 -13zM303 23q-11 0 -20 -5t-20.5 -11.5
t-27.5 -11.5t-40 -5q-43 0 -75.5 15t-54 40.5t-30 60.5t-3.5 74q4 30 12.5 70t16.5 70q12 39 32 74t48.5 60.5t64 40.5t78.5 15q21 0 37.5 -5.5t30 -11.5t24 -11.5t19.5 -5.5q19 0 24 23l40 188q2 8 9.5 14t15.5 6h19q8 0 12.5 -6t2.5 -14l-141 -667q-2 -8 -9.5 -14
t-15.5 -6h-16q-9 0 -12 7q-3 5 -7.5 10.5t-13.5 5.5z" />
    <glyph glyph-name="e" unicode="e" 
d="M102 216q-8 -35 -4.5 -65t19 -53t42.5 -36t66 -13q31 0 53.5 8t39.5 21.5t29 30t21 34.5q5 10 12 13.5t14 3.5h20q8 0 12.5 -4.5t0.5 -15.5q-11 -33 -31 -60.5t-47.5 -47.5t-61.5 -31t-73 -11q-45 0 -80.5 15t-58.5 40.5t-33.5 60.5t-4.5 74q4 30 12.5 70t16.5 70
q12 39 33 74t50.5 60.5t67.5 40.5t83 15q58 0 94.5 -19t55.5 -50t22 -70.5t-6 -80.5l-10 -44q-2 -8 -9.5 -14t-15.5 -6h-317q-10 0 -12 -10zM120 292q-2 -10 8 -10h270q10 0 12 10q17 77 -11.5 118t-103.5 41q-67 0 -112.5 -41t-62.5 -118z" />
    <glyph glyph-name="f" unicode="f" 
d="M90 436q-8 0 -13 6t-3 14l4 19q2 8 9.5 14t15.5 6h137q9 0 12 10l3 15q13 54 32 89.5t44.5 57.5t59 31t74.5 9h45q8 0 12.5 -6t2.5 -14l-3 -16q-2 -8 -9 -14t-15 -6h-45q-32 0 -54 -7t-38 -22.5t-26.5 -40.5t-19.5 -61l-3 -15q-2 -10 8 -10h164q8 0 12.5 -6t2.5 -14
l-4 -19q-2 -8 -9 -14t-15 -6h-164q-10 0 -12 -10l-86 -406q-2 -8 -9.5 -14t-15.5 -6h-20q-8 0 -12.5 6t-2.5 14l86 406q2 10 -8 10h-137z" />
    <glyph glyph-name="g" unicode="g" 
d="M328 -6q2 7 -2.5 14t-15.5 7q-8 0 -16.5 -4t-20 -8.5t-25.5 -8.5t-33 -4q-46 0 -80 15t-55 40.5t-29.5 60.5t-2.5 74q4 30 12.5 70t16.5 70q12 39 29.5 74t44 60.5t63 40.5t86.5 15q28 0 45.5 -5t29.5 -11.5t21 -11.5t20 -5q9 0 15.5 5.5t11.5 10.5q9 7 16 7h16
q8 0 12.5 -6t2.5 -14l-108 -510q-19 -90 -73.5 -135t-129.5 -45q-35 0 -64.5 10t-51 28t-33.5 43.5t-12 55.5q0 23 23 23h14q16 0 18 -6t4 -14q5 -32 29.5 -56.5t72.5 -24.5q60 0 96 32t48 89zM215 49q33 0 58.5 13t44 32.5t30.5 42.5t18 43q9 31 17 70t12 70q2 20 0 43
t-12 42.5t-30 32.5t-53 13q-41 0 -69 -13t-46.5 -32.5t-29 -42.5t-17.5 -43q-10 -31 -18 -70t-11 -70q-2 -20 0.5 -43t14 -42.5t33.5 -32.5t58 -13z" />
    <glyph glyph-name="h" unicode="h" 
d="M74 0q-8 0 -12.5 6t-2.5 14l141 667q2 8 9.5 14t15.5 6h19q8 0 12.5 -6t2.5 -14l-38 -181q-2 -7 2 -14t15 -7q7 0 16 4t20.5 8.5t27.5 8.5t37 4q37 0 68 -13t51.5 -36.5t29 -55.5t0.5 -69l-67 -316q-2 -8 -9.5 -14t-15.5 -6h-19q-8 0 -12.5 6t-2.5 14l67 316
q11 51 -16.5 83t-81.5 32q-27 0 -51 -8.5t-43.5 -23.5t-32.5 -35t-18 -43l-68 -321q-2 -8 -9.5 -14t-15.5 -6h-19z" />
    <glyph glyph-name="i" unicode="i" 
d="M407 638q-4 -16 -19 -16h-52q-7 0 -11 4.5t-2 11.5l11 53q2 6 7.5 11t12.5 5h52q7 0 10.5 -5t1.5 -11zM159 440q-8 0 -13 6t-3 14l4 20q2 8 9.5 14t15.5 6h175q8 0 12.5 -6t2.5 -14l-87 -410q-2 -10 8 -10h131q8 0 13 -6t3 -14l-4 -20q-2 -8 -9.5 -14t-15.5 -6h-346
q-8 0 -12.5 6t-2.5 14l4 20q2 8 9 14t15 6h135q10 0 12 10l77 360q2 10 -8 10h-125z" />
    <glyph glyph-name="j" unicode="j" 
d="M467 638q-4 -16 -19 -16h-52q-7 0 -11 4.5t-2 11.5l12 53q1 6 6.5 11t12.5 5h52q7 0 11 -5t2 -11zM313 -35q-20 -91 -64.5 -133t-117.5 -42q-33 0 -61 12.5t-47 34.5t-27.5 51t-1.5 62q2 8 9 14t16 6h21q8 0 13 -6t3 -14q-4 -19 -0.5 -36.5t13.5 -31t26 -22t38 -8.5
q53 0 81 31.5t39 82.5l98 464q2 10 -8 10h-149q-8 0 -13 6t-3 14l5 20q2 8 9 14t15 6h200q8 0 13 -6t3 -14z" />
    <glyph glyph-name="k" unicode="k" 
d="M168 220q-2 2 -5 2t-4 -4l-41 -198q-2 -8 -9.5 -14t-15.5 -6h-19q-8 0 -12.5 6t-2.5 14l141 667q2 8 9.5 14t15.5 6h19q8 0 12.5 -6t2.5 -14l-77 -364q-1 -4 1.5 -4.5t5.5 2.5l229 166q5 4 12.5 8.5t18.5 4.5h24q14 0 18 -11.5t-7 -19.5l-258 -191q-14 -11 -5 -24
l183 -221q8 -10 3.5 -21.5t-22.5 -11.5h-22q-11 0 -17.5 5.5t-8.5 9.5z" />
    <glyph glyph-name="l" unicode="l" 
d="M207 647q-8 0 -13 6t-3 14l4 20q2 8 9.5 14t15.5 6h171q8 0 12.5 -6t2.5 -14l-131 -617q-2 -10 8 -10h127q8 0 13 -6t3 -14l-4 -20q-2 -8 -9.5 -14t-15.5 -6h-348q-8 0 -12.5 6t-2.5 14l4 20q2 8 9 14t15 6h139q5 0 9 2.5t5 7.5l121 567q2 10 -8 10h-121z" />
    <glyph glyph-name="m" unicode="m" 
d="M324 474q11 11 31 23.5t58 12.5q25 0 42 -10t27 -27t12 -38.5t-3 -44.5l-78 -370q-2 -8 -9.5 -14t-15.5 -6h-19q-8 0 -12.5 6t-2.5 14l81 383q5 26 -10.5 37t-39.5 11q-20 0 -37.5 -13t-22.5 -35l-81 -383q-2 -8 -9.5 -14t-15.5 -6h-19q-8 0 -12.5 6t-2.5 14l81 383
q5 22 -9.5 35t-38.5 13q-20 0 -39 -13t-24 -35l-81 -383q-2 -8 -9.5 -14t-15.5 -6h-19q-8 0 -12.5 6t-2.5 14l97 460q2 8 9.5 14t15.5 6h6q7 0 12 -7q2 -4 4 -6t7 -2q4 0 9 4t12.5 8.5t19 8.5t29.5 4q27 0 43.5 -11t23.5 -25q2 -6 9 -6q6 0 12 6z" />
    <glyph glyph-name="n" unicode="n" 
d="M204 477q11 0 20.5 5t21.5 11.5t28.5 11.5t40.5 5q39 0 72 -11t55 -33t30.5 -54.5t-0.5 -75.5l-67 -316q-2 -8 -9.5 -14t-15.5 -6h-19q-8 0 -12.5 6t-2.5 14l67 316q7 31 1.5 53t-19.5 36t-36 20t-49 6q-54 0 -95.5 -25t-54.5 -85l-68 -321q-2 -8 -9.5 -14t-15.5 -6h-19
q-8 0 -12.5 6t-2.5 14l97 460q2 8 9.5 14t15.5 6h16q7 0 12 -7q4 -5 8 -10.5t13 -5.5z" />
    <glyph glyph-name="o" unicode="o" 
d="M307 510q45 0 80 -15t57.5 -40.5t32 -60.5t4.5 -74q-4 -30 -12.5 -70t-16.5 -70q-12 -39 -32.5 -74t-49.5 -60.5t-66 -40.5t-82 -15t-80 15t-57.5 40.5t-32.5 60.5t-4 74q4 30 12.5 70t16.5 70q12 39 32.5 74t49.5 60.5t66 40.5t82 15zM222 49q40 0 69 13t49 32.5
t32.5 42.5t18.5 43q9 31 17 70t12 70q2 20 -1 43t-15.5 42.5t-36 32.5t-60.5 13q-40 0 -69 -13t-49 -32.5t-32.5 -42.5t-18.5 -43q-9 -31 -17 -70t-12 -70q-2 -20 1 -43t15.5 -42.5t35.5 -32.5t61 -13z" />
    <glyph glyph-name="p" unicode="p" 
d="M315 451q-33 0 -58.5 -13t-44 -32.5t-30.5 -42.5t-18 -43q-9 -31 -17 -70t-12 -70q-2 -20 0 -43t12 -42.5t30 -32.5t53 -13q36 0 63.5 13t47 32.5t32 42.5t19.5 43q10 31 18 70t11 70q2 20 -0.5 43t-14 42.5t-33 32.5t-58.5 13zM211 477q11 0 20 5t20.5 11.5t27.5 11.5
t40 5q43 0 75.5 -15t54 -40.5t30 -60.5t3.5 -74q-4 -30 -12.5 -70t-16.5 -70q-12 -39 -32 -74t-48.5 -60.5t-64 -40.5t-78.5 -15q-24 0 -41 5t-29.5 11t-22 11t-16.5 5q-21 0 -26 -21l-39 -181q-2 -8 -9.5 -14t-15.5 -6h-19q-8 0 -12.5 6t-2.5 14l140 660q2 8 9.5 14t15.5 6
h16q7 0 12 -7q4 -5 8 -10.5t13 -5.5z" />
    <glyph glyph-name="q" unicode="q" 
d="M297 451q-41 0 -69 -13t-46.5 -32.5t-29 -42.5t-17.5 -43q-10 -31 -18 -70t-11 -70q-2 -20 0.5 -43t14 -42.5t33.5 -32.5t58 -13q33 0 58.5 13t44 32.5t30.5 42.5t18 43q9 31 17 70t12 70q2 20 0 43t-12 42.5t-30 32.5t-53 13zM413 477q9 0 15.5 5.5t11.5 10.5q9 7 16 7
h16q8 0 12.5 -6t2.5 -14l-140 -660q-2 -8 -9.5 -14t-15.5 -6h-19q-8 0 -12.5 6t-2.5 14l37 174q2 7 -1.5 14t-16.5 7q-8 0 -16.5 -4t-20 -8.5t-25.5 -8.5t-33 -4q-46 0 -80 15t-55 40.5t-29.5 60.5t-2.5 74q4 30 12.5 70t16.5 70q12 39 29.5 74t44 60.5t63 40.5t86.5 15
q28 0 45.5 -5t29.5 -11.5t21 -11.5t20 -5z" />
    <glyph glyph-name="r" unicode="r" 
d="M426 340q11 48 -17 79.5t-88 31.5q-27 0 -52.5 -9t-46 -25t-35 -38.5t-20.5 -48.5l-65 -310q-2 -8 -9.5 -14t-15.5 -6h-19q-8 0 -12.5 6t-2.5 14l97 460q2 8 9.5 14t15.5 6h16q7 0 12 -7q4 -5 9 -10.5t13 -5.5q11 0 21 5l23 11.5t31.5 11.5t46.5 5q38 0 69.5 -12
t52 -34.5t28 -53.5t-1.5 -70q-2 -8 -8.5 -14t-16.5 -6h-19q-8 0 -12.5 6t-2.5 14z" />
    <glyph glyph-name="s" unicode="s" 
d="M40 163q2 8 9 14t15 6h19q8 0 12.5 -6t3.5 -14q-4 -29 3.5 -50.5t23.5 -36t39.5 -22t52.5 -7.5t55 8t45.5 22t31 34t11.5 44q0 26 -13.5 41.5t-34 24t-43 13t-40.5 8.5q-27 6 -51 14.5t-42 23t-28.5 35t-10.5 50.5q0 27 13.5 53.5t38.5 46.5t59 32.5t76 12.5
q34 0 66.5 -10t56.5 -29.5t35.5 -47.5t4.5 -63q-2 -8 -9 -14t-15 -6h-19q-8 0 -13 6t-3 15q4 18 -2 35t-20 30t-35 20.5t-47 7.5q-52 0 -88 -24t-36 -65q0 -22 13 -34.5t32 -20t40.5 -11.5t39.5 -7q27 -5 52 -15t44.5 -26t31 -38.5t11.5 -52.5q0 -40 -17.5 -71.5t-47 -53.5
t-66.5 -33.5t-76 -11.5q-40 0 -75 11t-60 33t-37 54.5t-6 74.5z" />
    <glyph glyph-name="t" unicode="t" 
d="M214 153q-6 -26 -2.5 -45.5t14 -32.5t26.5 -19t35 -6q43 0 73.5 29t39.5 71q2 8 9 14t15 6h21q8 0 13 -6t3 -14q-7 -34 -23 -63t-39 -50.5t-52 -34t-62 -12.5q-38 0 -65.5 12.5t-45 34.5t-23 51t1.5 62l59 276q2 10 -8 10h-111q-8 0 -13 6t-3 14l4 19q2 8 9.5 14t15.5 6
h111q10 0 12 10l33 155q2 8 9 14t15 6h20q8 0 13 -6t3 -14l-33 -155q-2 -10 8 -10h166q8 0 12.5 -6t2.5 -14l-4 -19q-2 -8 -9 -14t-15 -6h-166q-10 0 -12 -10z" />
    <glyph glyph-name="u" unicode="u" 
d="M320 23q-11 0 -20.5 -5t-21.5 -11.5t-28.5 -11.5t-40.5 -5q-39 0 -72 11t-55 33t-30.5 54.5t0.5 75.5l67 316q2 8 9.5 14t15.5 6h19q8 0 12.5 -6t2.5 -14l-67 -316q-7 -32 -2 -53.5t19.5 -35.5t36.5 -20t49 -6q54 0 95.5 25t54.5 85l68 321q2 8 9.5 14t15.5 6h19
q8 0 12.5 -6t2.5 -14l-97 -460q-2 -8 -9.5 -14t-15.5 -6h-16q-7 0 -12 7q-4 5 -8 10.5t-13 5.5z" />
    <glyph glyph-name="v" unicode="v" 
d="M214 80q1 -5 6.5 -5t8.5 5l236 405q10 15 23 15h28q12 0 15.5 -7.5t-1.5 -15.5l-275 -462q-11 -15 -23 -15h-51q-12 0 -15 15l-79 462q-2 8 5 15.5t19 7.5h24q12 0 15 -15z" />
    <glyph glyph-name="w" unicode="w" 
d="M305 390q16 0 16 -15l-4 -252q0 -6 6 -6t8 6l143 362q4 9 10 12t13 3h21q12 0 14.5 -7.5t-0.5 -15.5l-192 -462q-3 -8 -9.5 -11.5t-13.5 -3.5h-35q-15 0 -15 15l5 258q0 5 -5 5t-7 -5l-103 -258q-3 -8 -9.5 -11.5t-13.5 -3.5h-39q-15 0 -15 15l4 462q0 8 6 15.5t18 7.5
h21q15 0 15 -15l-9 -362q0 -6 6 -6t8 6l102 252q7 15 22 15h32z" />
    <glyph glyph-name="x" unicode="x" 
d="M87 10q-3 -4 -8 -7t-16 -3h-30q-14 0 -16.5 10.5t8.5 22.5l197 227q5 7 3 13l-101 194q-6 12 1.5 22.5t21.5 10.5h16q11 0 14.5 -3t5.5 -7l80 -165q3 -5 8 0l142 165q3 4 8 7t16 3h28q14 0 17 -10.5t-8 -22.5l-175 -194q-3 -4 -3 -6.5t2 -6.5l120 -227q6 -12 -1.5 -22.5
t-21.5 -10.5h-18q-11 0 -14.5 3t-5.5 7l-100 190q-3 6 -8 0z" />
    <glyph glyph-name="y" unicode="y" 
d="M163 -119q-26 -45 -60.5 -63t-76.5 -18h-22q-8 0 -13 6t-3 14l4 18q2 8 9.5 14t15.5 6h22q21 0 41.5 13t41.5 49l61 104q4 7 3 13l-95 440q-2 8 5 15.5t19 7.5h23q13 0 16 -15l75 -368q1 -4 3.5 -4t4.5 4l213 368q8 15 22 15h33q12 0 15.5 -7.5t-1.5 -15.5z" />
    <glyph glyph-name="z" unicode="z" 
d="M404 432q4 4 3 7t-6 3h-266q-8 0 -12.5 6t-2.5 14l3 18q2 8 9.5 14t15.5 6h330q8 0 12.5 -6t2.5 -14l-6 -29q-3 -14 -11.5 -23.5t-16.5 -17.5l-343 -342q-4 -4 -3 -7t6 -3h275q8 0 12.5 -6t2.5 -14l-3 -18q-2 -8 -9.5 -14t-15.5 -6h-350q-8 0 -12 6t-2 14l6 25q2 10 5 15
t14 16z" />
    <glyph glyph-name="braceleft" unicode="{" 
d="M160 260q2 8 -3 12.5t-11 7.5l-10 5q-7 3 -12.5 7.5t-3.5 12.5l7 30q2 8 9 12.5t15 7.5l12 5q8 3 14 7.5t8 12.5l28 130q13 54 31.5 93.5t47 65.5t70.5 38.5t101 12.5h42q8 0 12.5 -6t2.5 -14l-3 -17q-2 -8 -9.5 -14t-15.5 -6h-42q-45 0 -75 -10.5t-50.5 -30t-32.5 -48
t-20 -64.5l-27 -125q-3 -13 -9.5 -23.5t-15 -19t-16.5 -14t-13 -8.5q4 -3 10 -9t10.5 -14t7 -18.5t-0.5 -23.5l-29 -135q-7 -32 -3 -59.5t18 -48.5t39 -33t60 -12h52q8 0 12.5 -6t2.5 -14l-3 -17q-2 -8 -9.5 -14t-15.5 -6h-52q-50 0 -84.5 17.5t-54 46.5t-25 67t3.5 79z" />
    <glyph glyph-name="bar" unicode="|" 
d="M223 -50q-2 -8 -9 -14t-15 -6h-15q-8 0 -13 6t-3 14l159 750q2 8 9 14t15 6h15q8 0 13 -6t3 -14z" />
    <glyph glyph-name="braceright" unicode="}" 
d="M340 120q-13 -61 -33 -101.5t-50 -64.5t-71 -34t-95 -10h-52q-8 0 -12.5 6t-2.5 14l3 17q2 8 9.5 14t15.5 6h52q38 0 67 7t50 24.5t35.5 47t24.5 74.5l29 135q3 13 9.5 23.5t15 18.5t16.5 14t14 9q-9 6 -21 22.5t-7 42.5l27 125q7 31 3 59t-18 49t-39 33t-60 12h-42
q-8 0 -12.5 6t-2.5 14l3 17q2 8 9.5 14t15.5 6h42q49 0 83.5 -17.5t54.5 -46.5t25.5 -67t-3.5 -79l-28 -130q-2 -8 3 -12.5t11 -7.5l10 -5q7 -3 12.5 -7.5t3.5 -12.5l-7 -30q-2 -8 -9 -12.5t-15 -7.5l-12 -5q-8 -3 -14 -7.5t-8 -12.5z" />
    <glyph glyph-name="asciitilde" unicode="~" 
d="M158 248q-17 0 -36.5 -7.5t-30.5 -18.5q-10 -10 -20.5 -8t-7.5 17l6 24q7 27 36.5 44t67.5 17q39 0 62.5 -7t44.5 -15.5t45.5 -15.5t65.5 -7q17 0 36.5 7.5t30.5 18.5q10 10 20.5 8t7.5 -17l-6 -24q-7 -27 -36.5 -44t-67.5 -17q-39 0 -63 7t-45 15.5t-45.5 15.5t-64.5 7z
" />
    <glyph glyph-name="exclamdown" unicode="&#xa1;" 
d="M266 300q2 8 9.5 14t15.5 6h20q8 0 12.5 -6t2.5 -14l-100 -470q-2 -8 -9 -14t-15 -6h-20q-8 0 -13 6t-3 14zM289 494q4 16 20 16h62q16 0 12 -16l-13 -63q-2 -6 -7 -11t-12 -5h-62q-7 0 -11 5t-2 11z" />
    <glyph glyph-name="cent" unicode="&#xa2;" 
d="M365 506q33 -7 58.5 -23t42 -38t22.5 -49t-1 -56q-2 -8 -8 -14t-14 -6h-23q-7 0 -12 4t-3 12q5 22 0.5 43t-17.5 37t-35 25.5t-53 9.5q-41 0 -70 -13t-49 -32.5t-32 -42.5t-18 -43q-9 -31 -17 -70t-12 -70q-2 -20 1 -43t15.5 -42.5t35.5 -32.5t61 -13q37 0 64 10.5t45 27
t28.5 36.5t14.5 40q2 10 9 13.5t14 3.5h21q8 0 12.5 -6t2.5 -14q-6 -30 -21 -57.5t-36.5 -50t-50.5 -38t-63 -21.5q-11 -2 -12 -10l-7 -33q-2 -8 -9.5 -14t-15.5 -6h-22q-8 0 -12.5 6t-2.5 14l7 33q1 9 -8 10q-39 6 -66 23t-43.5 41.5t-22 56t-0.5 66.5q4 30 12.5 70
t16.5 70q10 35 27.5 66.5t41.5 56t54.5 41.5t67.5 23q11 2 12 10l7 33q2 8 9.5 14t15.5 6h22q8 0 12.5 -6t2.5 -14l-7 -33q-2 -10 8 -11z" />
    <glyph glyph-name="sterling" unicode="&#xa3;" 
d="M533 530q-2 -8 -9.5 -14t-15.5 -6h-23q-8 0 -12.5 6t-2.5 14l2 10q3 16 2.5 34.5t-8.5 34.5t-24.5 26.5t-44.5 10.5t-48 -10.5t-33.5 -26.5t-21.5 -34.5t-11 -34.5l-30 -142q-2 -10 8 -10h154q8 0 12.5 -6t2.5 -14l-4 -20q-2 -8 -9 -14t-15 -6h-154q-5 0 -8.5 -3.5
t-4.5 -8.5l-22 -106q-13 -54 -29 -86.5t-36 -51.5q-4 -3 -3 -5.5t6 -2.5h283q8 0 12.5 -6t2.5 -14l-5 -24q-2 -8 -9 -14t-15 -6h-393q-9 0 -14 6t-3 14l6 27q2 8 8.5 14t14.5 6h5q15 0 31 11t30 30.5t26 45.5t18 56l22 106q1 5 -0.5 8.5t-6.5 3.5h-60q-8 0 -13 6t-3 14l4 20
q2 8 9.5 14t15.5 6h60q10 0 12 10l30 142q7 35 23 66t38.5 54t52 36.5t64.5 13.5t64 -13.5t47.5 -36.5t26 -54t0.5 -66z" />
    <glyph glyph-name="currency" unicode="&#xa4;" 
d="M511 549q17 14 28 0l11 -14q5 -6 4 -14t-10 -14l-85 -70q10 -18 15.5 -37t5.5 -45q0 -54 -20 -100.5t-54 -81.5l53 -68q5 -6 4 -14t-10 -14l-17 -14q-8 -6 -15.5 -6t-12.5 6l-54 68q-26 -20 -58 -29.5t-62 -9.5q-31 0 -55.5 11.5t-44.5 31.5l-88 -72q-8 -6 -15.5 -6
t-12.5 6l-11 14q-5 6 -4 14t10 14l87 73q-10 17 -15.5 37t-5.5 43q0 57 19.5 102t52.5 80l-53 67q-5 6 -4 14t10 14l17 14q17 14 28 0l53 -67q28 21 60 31.5t64 10.5q31 0 55.5 -12t44.5 -32zM138 274q0 -53 30 -88t78 -35q34 0 65 16t55 42.5t38.5 60.5t14.5 69
q0 55 -29.5 90.5t-77.5 35.5q-35 0 -66.5 -16.5t-55.5 -43t-38 -61t-14 -70.5z" />
    <glyph glyph-name="yen" unicode="&#xa5;" 
d="M98 672q-2 11 5 19.5t17 8.5h28q13 0 16 -15l63 -357q1 -4 3.5 -4t4.5 4l213 357q8 15 22 15h36q10 0 13.5 -8.5t-3.5 -19.5l-160 -259q-2 -5 -1.5 -8.5t5.5 -3.5h54q8 0 13 -6t3 -14l-3 -16q-2 -8 -9.5 -14t-15.5 -6h-82q-7 0 -10 -5l-18 -30q-3 -5 -2 -8.5t6 -3.5h96
q8 0 13 -6t3 -14l-3 -16q-2 -8 -9 -14t-15 -6h-121q-11 0 -13 -10l-45 -212q-2 -8 -9 -14t-15 -6h-26q-8 0 -13 6t-3 14l45 212q2 10 -7 10h-123q-8 0 -13 6t-3 14l3 16q2 8 9 14t15 6h97q5 0 8 3.5t2 8.5l-6 30q0 5 -8 5h-83q-8 0 -12.5 6t-2.5 14l3 16q2 8 9 14t15 6h55
q5 0 8 3.5t2 8.5z" />
    <glyph glyph-name="brokenbar" unicode="&#xa6;" 
d="M320 420q-2 -8 -9.5 -14t-15.5 -6h-22q-8 0 -12.5 6t-2.5 14l56 267q2 8 9.5 14t15.5 6h22q8 0 12.5 -6t2.5 -14zM235 20q-2 -8 -9.5 -14t-15.5 -6h-22q-8 0 -12 6t-2 14l55 267q2 8 9.5 14t15.5 6h22q8 0 12.5 -6t2.5 -14z" />
    <glyph glyph-name="section" unicode="&#xa7;" 
d="M296 85q6 -7 16.5 -6.5t18.5 6.5q24 17 46 42.5t27 49.5q4 16 -0.5 39t-23.5 45l-117 132q-6 8 -16.5 7.5t-19.5 -7.5q-11 -9 -24 -19t-25 -21.5t-20.5 -23.5t-11.5 -25q-4 -17 1 -38t21 -39zM99 -61q-9 -46 12.5 -75t78.5 -29q24 0 44.5 8t35 21t22.5 30t8 36
q0 22 -6 42.5t-27 43.5l-118 128q-11 12 -22.5 25t-22 29t-17 35t-6.5 43q0 51 30 89.5t72 65.5q25 16 12 39q-7 12 -10.5 27t-3.5 28q0 43 15.5 77.5t41.5 59t60.5 37.5t72.5 13q36 0 65 -11.5t48.5 -32.5t26.5 -51t-1 -67l-6 -30q-2 -8 -9 -14t-15 -6h-21q-8 0 -13 6
t-3 14l6 30q4 19 2 37.5t-11.5 33t-26.5 23.5t-42 9t-47 -8.5t-38.5 -23.5t-26 -35.5t-9.5 -44.5q0 -20 8.5 -37.5t21.5 -31.5l137 -152q20 -22 36.5 -51t16.5 -61t-8.5 -57t-23 -44.5t-32.5 -34.5t-37 -28q-11 -8 -14 -17.5t3 -20.5q7 -11 9.5 -27.5t2.5 -28.5
q0 -39 -16 -71t-42.5 -54.5t-61 -35t-70.5 -12.5q-41 0 -70.5 13.5t-47.5 36t-24 51.5t0 61l8 41q2 8 9.5 14t15.5 6h21q8 0 12.5 -6t2.5 -14z" />
    <glyph glyph-name="dieresis" unicode="&#xa8;" 
d="M226 638q-4 -16 -20 -16h-52q-16 0 -12 16l11 53q2 6 7.5 11t12.5 5h52q7 0 10.5 -5t1.5 -11zM397 638q-4 -16 -20 -16h-52q-16 0 -12 16l11 53q2 6 7.5 11t12.5 5h52q7 0 10.5 -5t1.5 -11z" />
    <glyph glyph-name="copyright" unicode="&#xa9;" 
d="M13 300q0 58 24 113t65.5 98t97 69t118.5 26q47 0 87 -15.5t69 -43t45.5 -65.5t16.5 -82q0 -62 -25.5 -117.5t-68 -97.5t-97.5 -67t-114 -25q-47 0 -87 15.5t-69 43.5t-45.5 66t-16.5 82zM318 555q-51 0 -97 -20.5t-81 -55t-55.5 -81.5t-20.5 -99q0 -33 13 -61.5
t35 -49.5t52.5 -32.5t66.5 -11.5q48 0 93.5 19.5t81 54t57 81t21.5 100.5q0 33 -12.5 61.5t-34.5 49.5t-52.5 33t-66.5 12zM359 305q-9 -43 -39 -71.5t-74 -28.5q-49 0 -70 32t-15 79q2 17 5.5 31t8.5 31q13 46 42 78.5t76 32.5q44 0 68.5 -28.5t15.5 -71.5q-2 -11 -11 -11
h-30q-4 0 -7.5 1.5t-2.5 6.5q5 26 -5.5 41.5t-30.5 15.5q-24 0 -41.5 -18.5t-25.5 -46.5q-6 -19 -8.5 -31t-5.5 -31q-3 -28 7 -46.5t34 -18.5q20 0 36.5 14t21.5 42q3 9 14 9h27q5 0 8 -3t2 -8z" />
    <glyph glyph-name="ordfeminine" unicode="&#xaa;" 
d="M302 607q0 30 -15 41.5t-36 11.5t-36 -9t-25.5 -23.5t-15.5 -33.5t-5 -38q0 -34 14 -48.5t36 -14.5t38 12t26 29.5t14.5 37.5t4.5 35zM208 450q-37 0 -61.5 26.5t-24.5 73.5q0 29 10 56.5t27 49.5t40.5 35t50.5 13q16 0 27 -4t18.5 -9t12 -9t7.5 -4q4 0 5 4l6 12q1 6 7 6
h23q10 0 8 -10l-49 -225q-2 -10 -12 -10h-21q-5 0 -6.5 2.5t-2 6t-0.5 6t-2 2.5t-7 -3.5t-12.5 -7.5t-18.5 -7.5t-25 -3.5z" />
    <glyph glyph-name="guillemotleft" unicode="&#xab;" 
d="M230 435q3 4 10 9.5t18 5.5h19q14 0 18 -9t-9 -24l-116 -145q-6 -7 -7 -11.5t2 -12.5l54 -145q7 -15 -1 -24t-22 -9h-19q-11 0 -15.5 5.5t-6.5 9.5l-61 161q-3 8 -2.5 14t7.5 14zM392 435q3 4 10 9.5t18 5.5h19q14 0 18 -9t-9 -24l-116 -145q-6 -7 -7 -11.5t2 -12.5
l54 -145q7 -15 -1 -24t-22 -9h-19q-11 0 -15.5 5.5t-6.5 9.5l-61 161q-4 8 -3 14t8 14z" />
    <glyph glyph-name="logicalnot" unicode="&#xac;" 
d="M417 230q2 10 -8 10h-340q-8 0 -13 6t-3 14l5 20q2 8 9 14t15 6h390q8 0 13 -6t3 -14l-37 -170q-2 -8 -9 -14t-15 -6h-20q-8 0 -13 6t-3 14z" />
    <glyph glyph-name="registered" unicode="&#xae;" 
d="M13 300q0 58 24 113t65.5 98t97 69t118.5 26q47 0 87 -15.5t69 -43t45.5 -65.5t16.5 -82q0 -62 -25.5 -117.5t-68 -97.5t-97.5 -67t-114 -25q-47 0 -87 15.5t-69 43.5t-45.5 66t-16.5 82zM318 555q-51 0 -97 -20.5t-81 -55t-55.5 -81.5t-20.5 -99q0 -33 13 -61.5
t35 -49.5t52.5 -32.5t66.5 -11.5q48 0 93.5 19.5t81 54t57 81t21.5 100.5q0 33 -12.5 61.5t-34.5 49.5t-52.5 33t-66.5 12zM253 442q-2 0 -4 -1.5t-3 -4.5l-15 -71q-1 -2 1 -3t4 -1h60q20 0 34.5 13t18.5 28q3 14 -5 27t-31 13h-60zM334 329q-9 -5 -12.5 -6.5t-1.5 -9.5
l29 -81q2 -6 -1.5 -11t-11.5 -5h-22q-7 0 -9.5 3t-4.5 8l-28 83q-2 7 -7 7h-38q-2 0 -4.5 -1.5t-2.5 -3.5l-19 -85q-2 -11 -12 -11h-25q-3 0 -5.5 3t-1.5 8l53 247q1 5 4.5 8t6.5 3h103q18 0 32.5 -7t23.5 -18.5t12.5 -26t0.5 -30.5q-6 -27 -22.5 -45t-36.5 -29z" />
    <glyph glyph-name="macron" unicode="&#xaf;" 
d="M153 634q-8 0 -13 6t-3 14l5 20q2 8 9 14t15 6h242q8 0 13 -6t3 -14l-5 -20q-2 -8 -9 -14t-15 -6h-242z" />
    <glyph glyph-name="degree" unicode="&#xb0;" 
d="M294 678q-26 0 -47 -9.5t-36 -25.5t-23 -38t-8 -46q0 -29 19 -48t56 -19q53 0 83.5 34.5t30.5 83.5q0 29 -19 48.5t-56 19.5zM296 733q25 0 49 -7t42.5 -21.5t29.5 -37.5t11 -55q0 -35 -13.5 -67t-37.5 -56t-56 -38.5t-68 -14.5q-25 0 -49 7t-42.5 21.5t-29.5 37.5
t-11 55q0 35 13.5 67t37.5 56t56 38.5t68 14.5z" />
    <glyph glyph-name="plusminus" unicode="&#xb1;" 
d="M279 449q10 0 12 10l34 159q2 8 9 14t15 6h22q8 0 13 -6t3 -14l-34 -159q-2 -10 8 -10h159q8 0 13 -6t3 -14l-5 -21q-2 -8 -9 -14t-15 -6h-159q-10 0 -12 -10l-34 -160q-2 -8 -9 -14t-15 -6h-22q-8 0 -13 6t-3 14l34 160q2 10 -8 10h-159q-8 0 -13 6t-3 14l5 21q2 8 9 14
t15 6h159zM437 70q8 0 12.5 -6t2.5 -14l-6 -30q-2 -8 -9 -14t-15 -6h-394q-8 0 -12.5 6t-2.5 14l5 30q2 8 9.5 14t15.5 6h394z" />
    <glyph glyph-name="twosuperior" unicode="&#xb2;" 
d="M340 616q0 11 -7 20.5t-21 9.5q-19 0 -31 -10.5t-16 -34.5q-2 -10 -11 -10h-39q-10 0 -8 10q8 48 36 75.5t69 27.5q25 0 42 -8.5t27 -21t14 -28t4 -30.5q0 -21 -5.5 -39t-17 -35t-27.5 -33.5t-37 -35.5l-65 -58q-3 -3 -2.5 -6t4.5 -3h111q10 0 8 -10l-8 -36
q-2 -10 -12 -10h-188q-10 0 -8 10l9 45q1 5 3.5 8t4.5 5l118 106q17 15 35 38.5t18 53.5z" />
    <glyph glyph-name="threesuperior" unicode="&#xb3;" 
d="M261 407q22 0 34 14t12 39q0 22 -9 32.5t-23 10.5h-8q-10 0 -8 9l8 40q2 10 13 10h8q18 0 32 11.5t14 36.5q0 9 -7 23t-27 14t-32 -12t-12 -34q0 -5 -4 -7.5t-7 -2.5h-40q-8 0 -8 10q0 24 9.5 43.5t24.5 32.5t33.5 20t36.5 7q25 0 42.5 -8t29 -20.5t16.5 -29t5 -33.5
q0 -31 -17 -50t-32 -30q-8 -7 -3 -12q9 -10 17 -25t8 -39q0 -51 -31 -81t-79 -30q-21 0 -41.5 8t-35.5 22.5t-21.5 33.5t-0.5 42q2 11 12 11h40q8 0 8 -10q0 -17 8.5 -31.5t34.5 -14.5z" />
    <glyph glyph-name="acute" unicode="&#xb4;" 
d="M364 730q10 0 11 -8t-5 -13l-131 -112q-6 -5 -12.5 -8.5t-20.5 -3.5h-19q-10 0 -12.5 7.5t2.5 12.5l100 109q5 5 11.5 10.5t17.5 5.5h58z" />
    <glyph glyph-name="uni00B5" unicode="&#xb5;" 
d="M77 -180q-2 -8 -9 -14t-15 -6h-19q-8 0 -12.5 6t-2.5 14l140 660q2 8 9 14t15 6h19q8 0 13 -6t3 -14l-68 -316q-7 -32 -2 -53.5t19.5 -35.5t36.5 -20t49 -6t52 8.5t45 23.5t34 35t19 43l69 321q2 8 9 14t15 6h19q8 0 13 -6t3 -14l-98 -460q-2 -8 -9 -14t-15 -6h-16
q-8 0 -13 7q-3 5 -6 10.5t-14 5.5t-20 -5t-21 -11.5t-30.5 -11.5t-48.5 -5q-17 0 -32 4t-27.5 8.5t-22.5 8.5t-17 4q-14 0 -19.5 -7t-7.5 -14z" />
    <glyph glyph-name="paragraph" unicode="&#xb6;" 
d="M190 360q-28 0 -51.5 10t-40.5 28t-26.5 42t-9.5 51q0 41 18 78.5t47 66.5t67 46.5t79 17.5h198q8 0 12.5 -6t2.5 -14l-161 -760q-2 -8 -9.5 -14t-15.5 -6h-14q-8 0 -12.5 6t-2.5 14l153 721q2 10 -8 10h-90q-10 0 -12 -10l-153 -721q-2 -8 -9.5 -14t-15.5 -6h-14
q-8 0 -12.5 6t-2.5 14l91 430q2 10 -8 10z" />
    <glyph glyph-name="periodcentered" unicode="&#xb7;" 
d="M334 215q-2 -8 -9 -14t-15 -6h-100q-8 0 -13 6t-3 14l21 100q2 8 9 14t15 6h100q8 0 13 -6t3 -14z" />
    <glyph glyph-name="cedilla" unicode="&#xb8;" 
d="M284 -184q-7 -16 -22 -16h-37q-10 0 -13 5.5t1 12.5l64 121q7 16 22 16h27q10 0 12.5 -5.5t-0.5 -12.5z" />
    <glyph glyph-name="onesuperior" unicode="&#xb9;" 
d="M300 605q0 2 -1.5 2.5t-2.5 -0.5l-88 -73q-3 -2 -7.5 -2t-2.5 6l12 54q2 7 6 12t8 8l91 83q5 5 11 5h44q10 0 8 -10l-59 -279q-2 -5 4 -5h59q10 0 8 -9l-8 -37q-2 -10 -12 -10h-202q-10 0 -8 10l8 36q2 10 12 10h72q6 0 6 5z" />
    <glyph glyph-name="ordmasculine" unicode="&#xba;" 
d="M253 665q-27 0 -45 -13t-27 -30q-10 -18 -14.5 -43t-4.5 -41q0 -20 14.5 -34t40.5 -14q27 0 45.5 14.5t27.5 33.5q8 17 12.5 41.5t2.5 42.5t-13.5 30.5t-38.5 12.5zM253 708q18 0 35.5 -4.5t32 -15.5t23.5 -29t9 -45q0 -15 -3.5 -37t-12.5 -45q-18 -45 -51.5 -64.5
t-70.5 -19.5q-43 0 -71.5 23.5t-28.5 65.5q0 17 5 42.5t13 45.5q10 24 24 40t30 25.5t33 13.5t33 4z" />
    <glyph glyph-name="guillemotright" unicode="&#xbb;" 
d="M455 274q4 -8 3 -14t-8 -14l-131 -161q-3 -4 -10 -9.5t-18 -5.5h-19q-14 0 -17.5 9t8.5 24l116 145q6 8 7 12.5t-2 11.5l-54 145q-6 16 1.5 24.5t21.5 8.5h19q11 0 15.5 -5.5t6.5 -9.5zM293 274q4 -8 3 -14t-8 -14l-131 -161q-3 -4 -10 -9.5t-18 -5.5h-19q-14 0 -17.5 9
t8.5 24l116 145q6 8 7 12.5t-2 11.5l-54 145q-6 16 1.5 24.5t21.5 8.5h19q11 0 15.5 -5.5t6.5 -9.5z" />
    <glyph glyph-name="onequarter" unicode="&#xbc;" 
d="M445 117q10 0 8 -10l-7 -32q-2 -10 -12 -10h-24q-6 0 -6 -5l-11 -50q-2 -10 -12 -10h-30q-10 0 -8 10l11 50q0 5 -4 5h-143q-10 0 -8 10l7 32q1 5 4 9.5t8 9.5l188 217q3 4 5 5.5t7 1.5h37q10 0 8 -10l-46 -218q-2 -5 4 -5h24zM273 121q-3 -4 1 -4h87q4 0 6 5l31 147
q1 2 -0.5 2.5t-3.5 -1.5zM206 696q5 5 11 5h41q10 0 8 -10l-70 -330q-2 -10 -12 -10h-37q-10 0 -8 10l56 266q1 2 -0.5 3t-2.5 -1l-101 -75q-4 -3 -7.5 -1.5t-2.5 5.5l8 38q2 7 6.5 13t7.5 8zM37 15q-12 -15 -24 -15h-14q-10 0 -14 8.5t4 19.5l526 657q12 15 25 15h13
q10 0 14 -9t-4 -19z" />
    <glyph glyph-name="onehalf" unicode="&#xbd;" 
d="M37 15q-12 -15 -24 -15h-14q-10 0 -14 8.5t4 19.5l526 657q12 15 25 15h13q10 0 14 -9t-4 -19zM457 266q0 21 -11 30t-31 9t-37.5 -14t-21.5 -34l-3 -12q-2 -10 -12 -10h-36q-10 0 -8 10l4 17q4 20 15 37.5t27 30.5t35 20.5t39 7.5q41 0 68 -23t27 -65q0 -20 -7 -37.5
t-18.5 -33t-25.5 -29.5t-29 -26l-96 -82q-2 -2 -2 -5t4 -3h129q10 0 8 -10l-7 -34q-2 -10 -12 -10h-210q-10 0 -8 10l7 34q2 6 4 8.5t4 4.5l156 132q20 17 34 37t14 40zM206 696q5 5 11 5h41q10 0 8 -10l-70 -330q-2 -10 -12 -10h-37q-10 0 -8 10l56 266q1 2 -0.5 3t-2.5 -1
l-101 -75q-4 -3 -7.5 -1.5t-2.5 5.5l8 38q2 7 6.5 13t7.5 8z" />
    <glyph glyph-name="threequarters" unicode="&#xbe;" 
d="M445 117q10 0 8 -10l-7 -32q-2 -10 -12 -10h-24q-6 0 -6 -5l-11 -50q-2 -10 -12 -10h-30q-10 0 -8 10l11 50q0 5 -4 5h-143q-10 0 -8 10l7 32q1 5 4 9.5t8 9.5l188 217q3 4 5 5.5t7 1.5h37q10 0 8 -10l-46 -218q-2 -5 4 -5h24zM273 121q-3 -4 1 -4h87q4 0 6 5l31 147
q1 2 -0.5 2.5t-3.5 -1.5zM37 15q-12 -15 -24 -15h-14q-10 0 -14 8.5t4 19.5l526 657q12 15 25 15h13q10 0 14 -9t-4 -19zM201 464q0 44 -49 44h-6q-10 0 -8 10l7 32q2 10 12 10h6q10 0 21.5 4.5t21 13t15.5 19.5t6 23q0 17 -9 28t-35 11q-24 0 -41 -13t-20 -34l-1 -7
q-2 -10 -12 -10h-37q-10 0 -8 10l1 7q10 43 42 69.5t79 26.5q45 0 70.5 -23.5t25.5 -60.5q0 -30 -13.5 -50t-35.5 -34q-7 -4 -2 -9q15 -12 20.5 -29.5t5.5 -37.5q0 -26 -11 -47.5t-29 -37.5t-41 -25t-48 -9q-22 0 -43 8t-36.5 22t-23 33.5t-2.5 42.5q2 10 12 10h38
q10 0 7 -13q-4 -21 10 -35t38 -14q30 0 51.5 18t21.5 47z" />
    <glyph glyph-name="questiondown" unicode="&#xbf;" 
d="M147 -50q0 -38 28 -64t84 -26q28 0 51.5 10.5t40.5 28.5t29 42t18 52l2 7q2 8 9 14t15 6h20q8 0 13 -6t3 -14l-2 -7q-9 -40 -27.5 -75t-45.5 -60.5t-61 -40t-72 -14.5q-36 0 -66.5 11t-52 30.5t-33.5 46.5t-12 59q0 29 7.5 51.5t20.5 41.5t30 35t35 32q8 7 28 21t41 31
t38.5 34.5t20.5 32.5l15 71q2 8 9.5 14t15.5 6h20q8 0 12.5 -6t2.5 -14l-15 -71q-4 -20 -12 -35.5t-19 -25.5q-32 -30 -55 -46.5t-41 -31.5q-18 -14 -35 -27t-30.5 -28.5t-21.5 -35.5t-8 -49zM347 494q4 16 19 16h62q7 0 11 -4.5t2 -11.5l-14 -63q-2 -6 -7 -11t-12 -5h-62
q-7 0 -11 5t-2 11z" />
    <glyph glyph-name="Agrave" unicode="&#xc0;" 
d="M35 15q-3 -6 -8.5 -10.5t-12.5 -4.5h-27q-12 0 -15.5 6.5t-0.5 13.5l332 665q7 15 22 15h50q14 0 16 -15l49 -665q1 -7 -5.5 -13.5t-18.5 -6.5h-25q-14 0 -16 15l-11 169q-2 14 -16 14h-206q-14 0 -22 -14zM165 271q-6 -11 5 -11h176q11 0 11 11l-17 340q0 6 -3 6h-2
q-2 0 -5 -6zM318 895q11 0 15.5 -5.5t7.5 -10.5l52 -109q3 -5 -2.5 -12.5t-15.5 -7.5h-19q-14 0 -19 3.5t-8 8.5l-85 112q-3 5 1.5 13t14.5 8h58z" />
    <glyph glyph-name="Aacute" unicode="&#xc1;" 
d="M35 15q-3 -6 -8.5 -10.5t-12.5 -4.5h-27q-12 0 -15.5 6.5t-0.5 13.5l332 665q7 15 22 15h50q14 0 16 -15l49 -665q1 -7 -5.5 -13.5t-18.5 -6.5h-25q-14 0 -16 15l-11 169q-2 14 -16 14h-206q-14 0 -22 -14zM165 271q-6 -11 5 -11h176q11 0 11 11l-17 340q0 6 -3 6h-2
q-2 0 -5 -6zM503 895q10 0 11 -8t-5 -13l-131 -112q-6 -5 -12.5 -8.5t-20.5 -3.5h-19q-10 0 -12.5 7.5t2.5 12.5l100 109q5 5 11.5 10.5t17.5 5.5h58z" />
    <glyph glyph-name="Acircumflex" unicode="&#xc2;" 
d="M35 15q-3 -6 -8.5 -10.5t-12.5 -4.5h-27q-12 0 -15.5 6.5t-0.5 13.5l332 665q7 15 22 15h50q14 0 16 -15l49 -665q1 -7 -5.5 -13.5t-18.5 -6.5h-25q-14 0 -16 15l-11 169q-2 14 -16 14h-206q-14 0 -22 -14zM165 271q-6 -11 5 -11h176q11 0 11 11l-17 340q0 6 -3 6h-2
q-2 0 -5 -6zM290 766q-5 -5 -14 -10.5t-20 -5.5h-47q-10 0 -11 8t5 13l141 112q6 5 12.5 8.5t20.5 3.5h21q14 0 18.5 -4t8.5 -8l95 -112q4 -4 -1 -12.5t-15 -8.5h-39q-11 0 -17.5 5.5t-10.5 10.5l-53 65q-6 7 -14 0z" />
    <glyph glyph-name="Atilde" unicode="&#xc3;" 
d="M35 15q-3 -6 -8.5 -10.5t-12.5 -4.5h-27q-12 0 -15.5 6.5t-0.5 13.5l332 665q7 15 22 15h50q14 0 16 -15l49 -665q1 -7 -5.5 -13.5t-18.5 -6.5h-25q-14 0 -16 15l-11 169q-2 14 -16 14h-206q-14 0 -22 -14zM165 271q-6 -11 5 -11h176q11 0 11 11l-17 340q0 6 -3 6h-2
q-2 0 -5 -6zM441 832q19 0 30.5 6.5t19.5 14.5t16.5 4t5.5 -18l-5 -24q-4 -20 -27.5 -35.5t-53.5 -15.5q-24 0 -38.5 4t-27.5 8.5t-28.5 8.5t-40.5 4q-17 0 -28.5 -5.5t-22.5 -15.5q-8 -7 -16.5 -3.5t-5.5 17.5l5 24q4 20 28 35.5t54 15.5q24 0 38.5 -4t27.5 -8.5t28 -8.5
t41 -4z" />
    <glyph glyph-name="Adieresis" unicode="&#xc4;" 
d="M35 15q-3 -6 -8.5 -10.5t-12.5 -4.5h-27q-12 0 -15.5 6.5t-0.5 13.5l332 665q7 15 22 15h50q14 0 16 -15l49 -665q1 -7 -5.5 -13.5t-18.5 -6.5h-25q-14 0 -16 15l-11 169q-2 14 -16 14h-206q-14 0 -22 -14zM165 271q-6 -11 5 -11h176q11 0 11 11l-17 340q0 6 -3 6h-2
q-2 0 -5 -6zM320 778q-4 -16 -20 -16h-52q-16 0 -12 16l11 53q2 6 7.5 11t12.5 5h52q7 0 10.5 -5t1.5 -11zM491 778q-4 -16 -20 -16h-52q-16 0 -12 16l11 53q2 6 7.5 11t12.5 5h52q7 0 10.5 -5t1.5 -11z" />
    <glyph glyph-name="Aring" unicode="&#xc5;" 
d="M35 15q-3 -6 -8.5 -10.5t-12.5 -4.5h-27q-12 0 -15.5 6.5t-0.5 13.5l332 665q7 15 22 15h50q14 0 16 -15l49 -665q1 -7 -5.5 -13.5t-18.5 -6.5h-25q-14 0 -16 15l-11 169q-2 14 -16 14h-206q-14 0 -22 -14zM165 271q-6 -11 5 -11h176q11 0 11 11l-17 340q0 6 -3 6h-2
q-2 0 -5 -6zM262 820q0 26 10.5 49.5t28 41.5t41 28.5t50.5 10.5q42 0 67.5 -27t25.5 -68q0 -24 -10.5 -47t-28.5 -40t-41 -27.5t-47 -10.5q-45 0 -70.5 25.5t-25.5 64.5zM385 895q-12 0 -24.5 -5t-22 -14t-15.5 -21t-6 -27q0 -20 12.5 -32t32.5 -12q12 0 24 5t22 14
t16 21.5t6 26.5q0 20 -12 32t-33 12z" />
    <glyph glyph-name="AE" unicode="&#xc6;" 
d="M275 188q2 10 -8 10h-128q-14 0 -22 -14l-85 -169q-7 -15 -21 -15h-25q-12 0 -15.5 6.5t-0.5 13.5l332 665q7 15 22 15h278q8 0 13 -6t3 -14l-5 -24q-2 -8 -9.5 -14t-15.5 -6h-144q-10 0 -12 -10l-48 -227q-2 -10 8 -10h133q8 0 13 -6t3 -14l-5 -23q-2 -8 -9.5 -14
t-15.5 -6h-133q-9 0 -12 -10l-51 -242q-2 -10 8 -10h146q8 0 12.5 -6t2.5 -14l-5 -24q-2 -8 -9 -14t-15 -6h-200q-8 0 -13 6t-3 14zM280 260q10 0 12 10l72 337q2 10 -8 10h-21q-5 0 -7.5 -3.5t-4.5 -6.5l-161 -336q-6 -11 5 -11h113z" />
    <glyph glyph-name="Ccedilla" unicode="&#xc7;" 
d="M526 496q-2 -8 -9.5 -14t-15.5 -6h-25q-8 0 -12.5 6t-2.5 14q5 28 0.5 55t-19.5 47.5t-41 33t-64 12.5q-40 0 -70.5 -12t-53 -32.5t-38 -46.5t-25.5 -53q-11 -31 -21.5 -70t-19 -80t-14.5 -80t-8 -70q-2 -22 2.5 -47t18 -46.5t38.5 -36t66 -14.5q49 0 82 14.5t54 36
t32.5 47.5t19.5 50q2 8 9.5 14t15.5 6h27q8 0 12.5 -6t2.5 -14q-32 -101 -92.5 -156.5t-162.5 -55.5q-45 0 -82 14.5t-62.5 41.5t-38.5 65.5t-9 86.5q2 30 8.5 69.5t15 81t18.5 80.5t21 69q15 41 37 78.5t53 66.5t71.5 46t92.5 17t90.5 -17.5t63 -46.5t33.5 -67.5t2 -80.5z
M204 -184q-7 -16 -22 -16h-37q-10 0 -13 5.5t1 12.5l64 121q7 16 22 16h27q10 0 12.5 -5.5t-0.5 -12.5z" />
    <glyph glyph-name="Egrave" unicode="&#xc8;" 
d="M173 399q-2 -10 8 -10h268q8 0 13 -6t3 -14l-5 -23q-2 -8 -9.5 -14t-15.5 -6h-268q-9 0 -12 -10l-51 -242q-2 -10 8 -10h281q8 0 12.5 -6t2.5 -14l-5 -24q-2 -8 -9 -14t-15 -6h-335q-8 0 -13 6t-3 14l141 660q2 8 9 14t15 6h333q8 0 13 -6t3 -14l-5 -24q-2 -8 -9.5 -14
t-15.5 -6h-279q-10 0 -12 -10zM338 895q11 0 15.5 -5.5t7.5 -10.5l52 -109q3 -5 -2.5 -12.5t-15.5 -7.5h-19q-14 0 -19 3.5t-8 8.5l-85 112q-3 5 1.5 13t14.5 8h58z" />
    <glyph glyph-name="Eacute" unicode="&#xc9;" 
d="M173 399q-2 -10 8 -10h268q8 0 13 -6t3 -14l-5 -23q-2 -8 -9.5 -14t-15.5 -6h-268q-9 0 -12 -10l-51 -242q-2 -10 8 -10h281q8 0 12.5 -6t2.5 -14l-5 -24q-2 -8 -9 -14t-15 -6h-335q-8 0 -13 6t-3 14l141 660q2 8 9 14t15 6h333q8 0 13 -6t3 -14l-5 -24q-2 -8 -9.5 -14
t-15.5 -6h-279q-10 0 -12 -10zM493 895q10 0 11 -8t-5 -13l-131 -112q-6 -5 -12.5 -8.5t-20.5 -3.5h-19q-10 0 -12.5 7.5t2.5 12.5l100 109q5 5 11.5 10.5t17.5 5.5h58z" />
    <glyph glyph-name="Ecircumflex" unicode="&#xca;" 
d="M173 399q-2 -10 8 -10h268q8 0 13 -6t3 -14l-5 -23q-2 -8 -9.5 -14t-15.5 -6h-268q-9 0 -12 -10l-51 -242q-2 -10 8 -10h281q8 0 12.5 -6t2.5 -14l-5 -24q-2 -8 -9 -14t-15 -6h-335q-8 0 -13 6t-3 14l141 660q2 8 9 14t15 6h333q8 0 13 -6t3 -14l-5 -24q-2 -8 -9.5 -14
t-15.5 -6h-279q-10 0 -12 -10zM300 766q-5 -5 -14 -10.5t-20 -5.5h-47q-10 0 -11 8t5 13l141 112q6 5 12.5 8.5t20.5 3.5h21q14 0 18.5 -4t8.5 -8l95 -112q4 -4 -1 -12.5t-15 -8.5h-39q-11 0 -17.5 5.5t-10.5 10.5l-53 65q-6 7 -14 0z" />
    <glyph glyph-name="Edieresis" unicode="&#xcb;" 
d="M173 399q-2 -10 8 -10h268q8 0 13 -6t3 -14l-5 -23q-2 -8 -9.5 -14t-15.5 -6h-268q-9 0 -12 -10l-51 -242q-2 -10 8 -10h281q8 0 12.5 -6t2.5 -14l-5 -24q-2 -8 -9 -14t-15 -6h-335q-8 0 -13 6t-3 14l141 660q2 8 9 14t15 6h333q8 0 13 -6t3 -14l-5 -24q-2 -8 -9.5 -14
t-15.5 -6h-279q-10 0 -12 -10zM330 778q-4 -16 -20 -16h-52q-16 0 -12 16l11 53q2 6 7.5 11t12.5 5h52q7 0 10.5 -5t1.5 -11zM501 778q-4 -16 -20 -16h-52q-16 0 -12 16l11 53q2 6 7.5 11t12.5 5h52q7 0 10.5 -5t1.5 -11z" />
    <glyph glyph-name="Igrave" unicode="&#xcc;" 
d="M311 630q2 10 -8 10h-125q-8 0 -13 6t-3 14l5 20q2 8 9 14t15 6h335q8 0 13 -6t3 -14l-5 -20q-2 -8 -9 -14t-15 -6h-125q-10 0 -12 -10l-119 -559q-2 -10 8 -10h135q8 0 13 -6t3 -14l-5 -21q-2 -8 -9 -14t-15 -6h-355q-8 0 -13 6t-3 14l5 21q2 8 9 14t15 6h135
q10 0 12 10zM338 895q11 0 15.5 -5.5t7.5 -10.5l52 -109q3 -5 -2.5 -12.5t-15.5 -7.5h-19q-14 0 -19 3.5t-8 8.5l-85 112q-3 5 1.5 13t14.5 8h58z" />
    <glyph glyph-name="Iacute" unicode="&#xcd;" 
d="M311 630q2 10 -8 10h-125q-8 0 -13 6t-3 14l5 20q2 8 9 14t15 6h335q8 0 13 -6t3 -14l-5 -20q-2 -8 -9 -14t-15 -6h-125q-10 0 -12 -10l-119 -559q-2 -10 8 -10h135q8 0 13 -6t3 -14l-5 -21q-2 -8 -9 -14t-15 -6h-355q-8 0 -13 6t-3 14l5 21q2 8 9 14t15 6h135
q10 0 12 10zM493 895q10 0 11 -8t-5 -13l-131 -112q-6 -5 -12.5 -8.5t-20.5 -3.5h-19q-10 0 -12.5 7.5t2.5 12.5l100 109q5 5 11.5 10.5t17.5 5.5h58z" />
    <glyph glyph-name="Icircumflex" unicode="&#xce;" 
d="M311 630q2 10 -8 10h-125q-8 0 -13 6t-3 14l5 20q2 8 9 14t15 6h335q8 0 13 -6t3 -14l-5 -20q-2 -8 -9 -14t-15 -6h-125q-10 0 -12 -10l-119 -559q-2 -10 8 -10h135q8 0 13 -6t3 -14l-5 -21q-2 -8 -9 -14t-15 -6h-355q-8 0 -13 6t-3 14l5 21q2 8 9 14t15 6h135
q10 0 12 10zM300 766q-5 -5 -14 -10.5t-20 -5.5h-47q-10 0 -11 8t5 13l141 112q6 5 12.5 8.5t20.5 3.5h21q14 0 18.5 -4t8.5 -8l95 -112q4 -4 -1 -12.5t-15 -8.5h-39q-11 0 -17.5 5.5t-10.5 10.5l-53 65q-6 7 -14 0z" />
    <glyph glyph-name="Idieresis" unicode="&#xcf;" 
d="M311 630q2 10 -8 10h-125q-8 0 -13 6t-3 14l5 20q2 8 9 14t15 6h335q8 0 13 -6t3 -14l-5 -20q-2 -8 -9 -14t-15 -6h-125q-10 0 -12 -10l-119 -559q-2 -10 8 -10h135q8 0 13 -6t3 -14l-5 -21q-2 -8 -9 -14t-15 -6h-355q-8 0 -13 6t-3 14l5 21q2 8 9 14t15 6h135
q10 0 12 10zM330 778q-4 -16 -20 -16h-52q-16 0 -12 16l11 53q2 6 7.5 11t12.5 5h52q7 0 10.5 -5t1.5 -11zM501 778q-4 -16 -20 -16h-52q-16 0 -12 16l11 53q2 6 7.5 11t12.5 5h52q7 0 10.5 -5t1.5 -11z" />
    <glyph glyph-name="Eth" unicode="&#xd0;" 
d="M69 74q-2 -10 8 -10h123q46 0 78 13t53.5 33t34.5 44t21 46q11 31 21.5 70t19 80t14.5 80t8 70q2 27 -4 52t-21 43.5t-39.5 29.5t-60.5 11h-127q-10 0 -12 -10l-48 -227q-2 -10 8 -10h100q8 0 13 -6t3 -14l-5 -23q-2 -8 -9 -14t-15 -6h-100q-10 0 -12 -10zM57 316
q2 10 -8 10h-32q-8 0 -13 6t-3 14l5 23q2 8 9 14t15 6h32q10 0 12 10l60 281q2 8 9 14t15 6h167q49 0 86.5 -16t62 -43t35.5 -63.5t8 -77.5q-2 -30 -8.5 -69t-15 -80.5t-19 -81t-20.5 -69.5q-34 -97 -96.5 -148.5t-157.5 -51.5h-191q-8 0 -13 6t-3 14z" />
    <glyph glyph-name="Ntilde" unicode="&#xd1;" 
d="M354 103q1 -3 4.5 -2.5t4.5 4.5l122 575q2 8 6 14t12 6h26q8 0 13 -6t3 -14l-141 -660q-2 -8 -9 -14t-15 -6h-52q-8 0 -11.5 3.5t-5.5 13.5l-115 582q-1 3 -4.5 2.5t-4.5 -4.5l-123 -577q-2 -8 -9 -14t-15 -6h-20q-8 0 -13 6t-3 14l141 660q2 8 9 14t15 6h52
q8 0 11.5 -3.5t5.5 -13.5zM436 832q19 0 30.5 6.5t19.5 14.5t16.5 4t5.5 -18l-5 -24q-4 -20 -27.5 -35.5t-53.5 -15.5q-24 0 -38.5 4t-27.5 8.5t-28.5 8.5t-40.5 4q-17 0 -28.5 -5.5t-22.5 -15.5q-8 -7 -16.5 -3.5t-5.5 17.5l5 24q4 20 28 35.5t54 15.5q24 0 38.5 -4
t27.5 -8.5t28 -8.5t41 -4z" />
    <glyph glyph-name="Ograve" unicode="&#xd2;" 
d="M337 644q-40 0 -70.5 -12t-53 -32.5t-38 -46.5t-25.5 -53q-11 -31 -21.5 -70t-19 -80t-14.5 -80t-8 -70q-2 -22 2.5 -47t18 -46.5t38.5 -36t66 -14.5q46 0 78 14.5t53.5 36t34.5 46.5t21 47q11 31 21.5 70t19 80t14.5 80t8 70q2 27 -4 53t-21 46.5t-39.5 32.5t-60.5 12z
M337 708q49 0 86.5 -17t62 -46t35.5 -66.5t8 -78.5q-2 -30 -8.5 -69t-15 -80.5t-19 -81t-20.5 -69.5q-34 -97 -96.5 -152.5t-157.5 -55.5q-45 0 -82 14.5t-62.5 41.5t-38.5 65.5t-9 86.5q2 30 8.5 69.5t15 81t18.5 80.5t21 69q15 41 37 78.5t53 66.5t71.5 46t92.5 17z
M338 895q11 0 15.5 -5.5t7.5 -10.5l52 -109q3 -5 -2.5 -12.5t-15.5 -7.5h-19q-14 0 -19 3.5t-8 8.5l-85 112q-3 5 1.5 13t14.5 8h58z" />
    <glyph glyph-name="Oacute" unicode="&#xd3;" 
d="M337 644q-40 0 -70.5 -12t-53 -32.5t-38 -46.5t-25.5 -53q-11 -31 -21.5 -70t-19 -80t-14.5 -80t-8 -70q-2 -22 2.5 -47t18 -46.5t38.5 -36t66 -14.5q46 0 78 14.5t53.5 36t34.5 46.5t21 47q11 31 21.5 70t19 80t14.5 80t8 70q2 27 -4 53t-21 46.5t-39.5 32.5t-60.5 12z
M337 708q49 0 86.5 -17t62 -46t35.5 -66.5t8 -78.5q-2 -30 -8.5 -69t-15 -80.5t-19 -81t-20.5 -69.5q-34 -97 -96.5 -152.5t-157.5 -55.5q-45 0 -82 14.5t-62.5 41.5t-38.5 65.5t-9 86.5q2 30 8.5 69.5t15 81t18.5 80.5t21 69q15 41 37 78.5t53 66.5t71.5 46t92.5 17z
M513 895q10 0 11 -8t-5 -13l-131 -112q-6 -5 -12.5 -8.5t-20.5 -3.5h-19q-10 0 -12.5 7.5t2.5 12.5l100 109q5 5 11.5 10.5t17.5 5.5h58z" />
    <glyph glyph-name="Ocircumflex" unicode="&#xd4;" 
d="M337 644q-40 0 -70.5 -12t-53 -32.5t-38 -46.5t-25.5 -53q-11 -31 -21.5 -70t-19 -80t-14.5 -80t-8 -70q-2 -22 2.5 -47t18 -46.5t38.5 -36t66 -14.5q46 0 78 14.5t53.5 36t34.5 46.5t21 47q11 31 21.5 70t19 80t14.5 80t8 70q2 27 -4 53t-21 46.5t-39.5 32.5t-60.5 12z
M337 708q49 0 86.5 -17t62 -46t35.5 -66.5t8 -78.5q-2 -30 -8.5 -69t-15 -80.5t-19 -81t-20.5 -69.5q-34 -97 -96.5 -152.5t-157.5 -55.5q-45 0 -82 14.5t-62.5 41.5t-38.5 65.5t-9 86.5q2 30 8.5 69.5t15 81t18.5 80.5t21 69q15 41 37 78.5t53 66.5t71.5 46t92.5 17z
M300 766q-5 -5 -14 -10.5t-20 -5.5h-47q-10 0 -11 8t5 13l141 112q6 5 12.5 8.5t20.5 3.5h21q14 0 18.5 -4t8.5 -8l95 -112q4 -4 -1 -12.5t-15 -8.5h-39q-11 0 -17.5 5.5t-10.5 10.5l-53 65q-6 7 -14 0z" />
    <glyph glyph-name="Otilde" unicode="&#xd5;" 
d="M337 644q-40 0 -70.5 -12t-53 -32.5t-38 -46.5t-25.5 -53q-11 -31 -21.5 -70t-19 -80t-14.5 -80t-8 -70q-2 -22 2.5 -47t18 -46.5t38.5 -36t66 -14.5q46 0 78 14.5t53.5 36t34.5 46.5t21 47q11 31 21.5 70t19 80t14.5 80t8 70q2 27 -4 53t-21 46.5t-39.5 32.5t-60.5 12z
M337 708q49 0 86.5 -17t62 -46t35.5 -66.5t8 -78.5q-2 -30 -8.5 -69t-15 -80.5t-19 -81t-20.5 -69.5q-34 -97 -96.5 -152.5t-157.5 -55.5q-45 0 -82 14.5t-62.5 41.5t-38.5 65.5t-9 86.5q2 30 8.5 69.5t15 81t18.5 80.5t21 69q15 41 37 78.5t53 66.5t71.5 46t92.5 17z
M456 832q19 0 30.5 6.5t19.5 14.5t16.5 4t5.5 -18l-5 -24q-4 -20 -27.5 -35.5t-53.5 -15.5q-24 0 -38.5 4t-27.5 8.5t-28.5 8.5t-40.5 4q-17 0 -28.5 -5.5t-22.5 -15.5q-8 -7 -16.5 -3.5t-5.5 17.5l5 24q4 20 28 35.5t54 15.5q24 0 38.5 -4t27.5 -8.5t28 -8.5t41 -4z" />
    <glyph glyph-name="Odieresis" unicode="&#xd6;" 
d="M337 644q-40 0 -70.5 -12t-53 -32.5t-38 -46.5t-25.5 -53q-11 -31 -21.5 -70t-19 -80t-14.5 -80t-8 -70q-2 -22 2.5 -47t18 -46.5t38.5 -36t66 -14.5q46 0 78 14.5t53.5 36t34.5 46.5t21 47q11 31 21.5 70t19 80t14.5 80t8 70q2 27 -4 53t-21 46.5t-39.5 32.5t-60.5 12z
M337 708q49 0 86.5 -17t62 -46t35.5 -66.5t8 -78.5q-2 -30 -8.5 -69t-15 -80.5t-19 -81t-20.5 -69.5q-34 -97 -96.5 -152.5t-157.5 -55.5q-45 0 -82 14.5t-62.5 41.5t-38.5 65.5t-9 86.5q2 30 8.5 69.5t15 81t18.5 80.5t21 69q15 41 37 78.5t53 66.5t71.5 46t92.5 17z
M330 778q-4 -16 -20 -16h-52q-16 0 -12 16l11 53q2 6 7.5 11t12.5 5h52q7 0 10.5 -5t1.5 -11zM501 778q-4 -16 -20 -16h-52q-16 0 -12 16l11 53q2 6 7.5 11t12.5 5h52q7 0 10.5 -5t1.5 -11z" />
    <glyph glyph-name="multiply" unicode="&#xd7;" 
d="M222 243q8 7 3 14l-90 115q-5 5 -3.5 13.5t9.5 14.5l16 13q8 6 16 6t12 -6l89 -112q5 -7 14 0l137 112q7 6 15 6t13 -6l15 -17q4 -5 2.5 -13.5t-8.5 -14.5l-136 -110q-8 -7 -3 -14l92 -117q5 -5 3.5 -13.5t-9.5 -14.5l-16 -12q-8 -6 -16 -6t-12 6l-90 113q-5 7 -14 0
l-136 -113q-8 -5 -16 -5t-12 5l-15 17q-5 6 -3 14.5t9 13.5z" />
    <glyph glyph-name="Oslash" unicode="&#xd8;" 
d="M74 15q-11 -15 -23 -15h-24q-10 0 -15 7.5t2 17.5l29 42q4 5 3 7l-2 4q-30 50 -24 122q3 30 9 69.5t14.5 81t18.5 80.5t21 69q15 41 37 78.5t53 66.5t71.5 46t92.5 17q36 0 66.5 -10t53.5 -27l4 -2t6 5l7 11q10 15 22 15h26q10 0 14 -7t-3 -17l-30 -43q-4 -5 -3 -7l2 -4
q16 -26 23 -57.5t4 -64.5q-2 -30 -8.5 -69t-15 -80.5t-19 -81t-20.5 -69.5q-34 -97 -96.5 -152.5t-157.5 -55.5q-74 0 -123 36q-1 1 -3.5 1.5t-4.5 -3.5zM212 56q46 0 78 14.5t53.5 36t34.5 46.5t21 47q11 31 21.5 70t19 80t14.5 80t8 70q1 28 -5 55q-1 3 -3.5 3.5
t-5.5 -4.5l-322 -463q-3 -4 -1.5 -5.5l2.5 -2.5q15 -12 35.5 -19.5t49.5 -7.5zM337 644q-40 0 -70.5 -12t-53 -32.5t-38 -46.5t-25.5 -53q-11 -31 -22 -70t-20 -80t-15.5 -80t-8.5 -70q-2 -26 6 -55q2 -7 7 0l322 462q4 6 0 10q-27 27 -82 27z" />
    <glyph glyph-name="Ugrave" unicode="&#xd9;" 
d="M96 207q-6 -30 -0.5 -57.5t21.5 -48t41 -33t57 -12.5q39 0 70 12.5t54 33t38 48t21 57.5l100 473q2 8 9.5 14t15.5 6h24q8 0 12.5 -6t2.5 -14l-100 -473q-9 -45 -30.5 -84t-53 -68t-72.5 -46t-91 -17q-45 0 -82.5 17t-63 46t-36 68t-1.5 84l100 473q2 8 9.5 14t15.5 6h24
q8 0 12.5 -6t2.5 -14zM308 895q11 0 15.5 -5.5t7.5 -10.5l52 -109q3 -5 -2.5 -12.5t-15.5 -7.5h-19q-14 0 -19 3.5t-8 8.5l-85 112q-3 5 1.5 13t14.5 8h58z" />
    <glyph glyph-name="Uacute" unicode="&#xda;" 
d="M96 207q-6 -30 -0.5 -57.5t21.5 -48t41 -33t57 -12.5q39 0 70 12.5t54 33t38 48t21 57.5l100 473q2 8 9.5 14t15.5 6h24q8 0 12.5 -6t2.5 -14l-100 -473q-9 -45 -30.5 -84t-53 -68t-72.5 -46t-91 -17q-45 0 -82.5 17t-63 46t-36 68t-1.5 84l100 473q2 8 9.5 14t15.5 6h24
q8 0 12.5 -6t2.5 -14zM513 895q10 0 11 -8t-5 -13l-131 -112q-6 -5 -12.5 -8.5t-20.5 -3.5h-19q-10 0 -12.5 7.5t2.5 12.5l100 109q5 5 11.5 10.5t17.5 5.5h58z" />
    <glyph glyph-name="Ucircumflex" unicode="&#xdb;" 
d="M96 207q-6 -30 -0.5 -57.5t21.5 -48t41 -33t57 -12.5q39 0 70 12.5t54 33t38 48t21 57.5l100 473q2 8 9.5 14t15.5 6h24q8 0 12.5 -6t2.5 -14l-100 -473q-9 -45 -30.5 -84t-53 -68t-72.5 -46t-91 -17q-45 0 -82.5 17t-63 46t-36 68t-1.5 84l100 473q2 8 9.5 14t15.5 6h24
q8 0 12.5 -6t2.5 -14zM290 766q-5 -5 -14 -10.5t-20 -5.5h-47q-10 0 -11 8t5 13l141 112q6 5 12.5 8.5t20.5 3.5h21q14 0 18.5 -4t8.5 -8l95 -112q4 -4 -1 -12.5t-15 -8.5h-39q-11 0 -17.5 5.5t-10.5 10.5l-53 65q-6 7 -14 0z" />
    <glyph glyph-name="Udieresis" unicode="&#xdc;" 
d="M96 207q-6 -30 -0.5 -57.5t21.5 -48t41 -33t57 -12.5q39 0 70 12.5t54 33t38 48t21 57.5l100 473q2 8 9.5 14t15.5 6h24q8 0 12.5 -6t2.5 -14l-100 -473q-9 -45 -30.5 -84t-53 -68t-72.5 -46t-91 -17q-45 0 -82.5 17t-63 46t-36 68t-1.5 84l100 473q2 8 9.5 14t15.5 6h24
q8 0 12.5 -6t2.5 -14zM315 778q-4 -16 -20 -16h-52q-16 0 -12 16l11 53q2 6 7.5 11t12.5 5h52q7 0 10.5 -5t1.5 -11zM486 778q-4 -16 -20 -16h-52q-16 0 -12 16l11 53q2 6 7.5 11t12.5 5h52q7 0 10.5 -5t1.5 -11z" />
    <glyph glyph-name="Yacute" unicode="&#xdd;" 
d="M253 328q1 -4 3.5 -4t4.5 4l213 357q8 15 22 15h36q10 0 13.5 -8.5t-3.5 -19.5l-267 -431l-47 -221q-2 -8 -9 -14t-15 -6h-26q-8 0 -13 6t-3 14l47 220l-85 432q-2 11 5 19.5t17 8.5h28q13 0 16 -15zM503 895q10 0 11 -8t-5 -13l-131 -112q-6 -5 -12.5 -8.5t-20.5 -3.5
h-19q-10 0 -12.5 7.5t2.5 12.5l100 109q5 5 11.5 10.5t17.5 5.5h58z" />
    <glyph glyph-name="Thorn" unicode="&#xde;" 
d="M448 380q15 69 -17 107.5t-98 38.5h-116q-10 0 -12 -10l-69 -322q-2 -10 8 -10h116q31 0 60 10.5t52.5 29.5t40 46t24.5 60zM501 330q-11 -49 -35 -88t-57.5 -66t-75 -41.5t-86.5 -14.5h-116q-11 0 -13 -10l-19 -90q-2 -8 -9 -14t-15 -6h-24q-8 0 -13 6t-3 14l141 660
q2 8 9 14t15 6h24q8 0 13 -6t3 -14l-17 -80q-2 -10 8 -10h116q37 0 71.5 -14t59 -41t35 -66t-0.5 -89z" />
    <glyph glyph-name="germandbls" unicode="&#xdf;" 
d="M142 517q9 42 28 77.5t46 61t62 40t76 14.5q37 0 66.5 -11.5t50.5 -32t32.5 -48t11.5 -58.5q0 -60 -28.5 -107t-65.5 -77q-7 -5 -9.5 -11.5t3.5 -12.5q20 -21 34 -52.5t14 -64.5q0 -54 -18.5 -98t-51.5 -74.5t-78.5 -47t-98.5 -15.5h-20q-8 0 -13 6t-3 14l4 19
q2 8 9.5 14t15.5 6h20q36 0 67.5 13t55 36.5t37 54.5t13.5 67q0 45 -28 75.5t-85 30.5h-7q-8 0 -12.5 6t-2.5 14l4 20q2 8 9 14t15 6h7q30 0 58 13.5t49.5 36.5t34 52.5t12.5 61.5q0 41 -25.5 66t-76.5 25q-28 0 -53 -10.5t-45 -29t-33.5 -43t-19.5 -51.5l-106 -497
q-2 -8 -9 -14t-15 -6h-21q-8 0 -13 6t-3 14z" />
    <glyph glyph-name="agrave" unicode="&#xe0;" 
d="M393 330q0 53 -27 87t-75 34q-41 0 -76 -20t-61 -55t-41 -83.5t-15 -106.5q0 -28 8 -53t23 -43.5t35.5 -29t44.5 -10.5q49 0 84 28t57 70t32.5 91t10.5 91zM201 -10q-34 0 -63.5 14t-51.5 39.5t-35 61.5t-13 81q0 60 18.5 117.5t51.5 103.5t80 74t104 28q42 0 68 -14.5
t39 -31.5q4 -5 7 -9t8 -4q6 0 10 8q4 9 7.5 17.5t5.5 14.5t7 8t10 2h21q8 0 13 -6t3 -14l-99 -460q-2 -8 -9 -14t-15 -6h-15q-9 0 -14 7q-2 3 -2 8.5v11t-1 9.5t-5 4q-6 0 -14.5 -8t-23.5 -17t-37.5 -17t-54.5 -8zM275 730q11 0 15.5 -5.5t7.5 -10.5l52 -109
q3 -5 -2.5 -12.5t-15.5 -7.5h-19q-14 0 -19 3.5t-8 8.5l-85 112q-3 5 1.5 13t14.5 8h58z" />
    <glyph glyph-name="aacute" unicode="&#xe1;" 
d="M393 330q0 53 -27 87t-75 34q-41 0 -76 -20t-61 -55t-41 -83.5t-15 -106.5q0 -28 8 -53t23 -43.5t35.5 -29t44.5 -10.5q49 0 84 28t57 70t32.5 91t10.5 91zM201 -10q-34 0 -63.5 14t-51.5 39.5t-35 61.5t-13 81q0 60 18.5 117.5t51.5 103.5t80 74t104 28q42 0 68 -14.5
t39 -31.5q4 -5 7 -9t8 -4q6 0 10 8q4 9 7.5 17.5t5.5 14.5t7 8t10 2h21q8 0 13 -6t3 -14l-99 -460q-2 -8 -9 -14t-15 -6h-15q-9 0 -14 7q-2 3 -2 8.5v11t-1 9.5t-5 4q-6 0 -14.5 -8t-23.5 -17t-37.5 -17t-54.5 -8zM454 730q10 0 11 -8t-5 -13l-131 -112q-6 -5 -12.5 -8.5
t-20.5 -3.5h-19q-10 0 -12.5 7.5t2.5 12.5l100 109q5 5 11.5 10.5t17.5 5.5h58z" />
    <glyph glyph-name="acircumflex" unicode="&#xe2;" 
d="M393 330q0 53 -27 87t-75 34q-41 0 -76 -20t-61 -55t-41 -83.5t-15 -106.5q0 -28 8 -53t23 -43.5t35.5 -29t44.5 -10.5q49 0 84 28t57 70t32.5 91t10.5 91zM201 -10q-34 0 -63.5 14t-51.5 39.5t-35 61.5t-13 81q0 60 18.5 117.5t51.5 103.5t80 74t104 28q42 0 68 -14.5
t39 -31.5q4 -5 7 -9t8 -4q6 0 10 8q4 9 7.5 17.5t5.5 14.5t7 8t10 2h21q8 0 13 -6t3 -14l-99 -460q-2 -8 -9 -14t-15 -6h-15q-9 0 -14 7q-2 3 -2 8.5v11t-1 9.5t-5 4q-6 0 -14.5 -8t-23.5 -17t-37.5 -17t-54.5 -8zM245 601q-5 -5 -14 -10.5t-20 -5.5h-47q-10 0 -11 8t5 13
l141 112q6 5 12.5 8.5t20.5 3.5h21q14 0 18.5 -4t8.5 -8l95 -112q4 -4 -1 -12.5t-15 -8.5h-39q-11 0 -17.5 5.5t-10.5 10.5l-53 65q-6 7 -14 0z" />
    <glyph glyph-name="atilde" unicode="&#xe3;" 
d="M393 330q0 53 -27 87t-75 34q-41 0 -76 -20t-61 -55t-41 -83.5t-15 -106.5q0 -28 8 -53t23 -43.5t35.5 -29t44.5 -10.5q49 0 84 28t57 70t32.5 91t10.5 91zM201 -10q-34 0 -63.5 14t-51.5 39.5t-35 61.5t-13 81q0 60 18.5 117.5t51.5 103.5t80 74t104 28q42 0 68 -14.5
t39 -31.5q4 -5 7 -9t8 -4q6 0 10 8q4 9 7.5 17.5t5.5 14.5t7 8t10 2h21q8 0 13 -6t3 -14l-99 -460q-2 -8 -9 -14t-15 -6h-15q-9 0 -14 7q-2 3 -2 8.5v11t-1 9.5t-5 4q-6 0 -14.5 -8t-23.5 -17t-37.5 -17t-54.5 -8zM400 676q19 0 30.5 6.5t19.5 14.5t16.5 4t5.5 -18l-5 -24
q-4 -20 -27.5 -35.5t-53.5 -15.5q-24 0 -38.5 4t-27.5 8.5t-28.5 8.5t-40.5 4q-17 0 -28.5 -5.5t-22.5 -15.5q-8 -7 -16.5 -3.5t-5.5 17.5l5 24q4 20 28 35.5t54 15.5q24 0 38.5 -4t27.5 -8.5t28 -8.5t41 -4z" />
    <glyph glyph-name="adieresis" unicode="&#xe4;" 
d="M393 330q0 53 -27 87t-75 34q-41 0 -76 -20t-61 -55t-41 -83.5t-15 -106.5q0 -28 8 -53t23 -43.5t35.5 -29t44.5 -10.5q49 0 84 28t57 70t32.5 91t10.5 91zM201 -10q-34 0 -63.5 14t-51.5 39.5t-35 61.5t-13 81q0 60 18.5 117.5t51.5 103.5t80 74t104 28q42 0 68 -14.5
t39 -31.5q4 -5 7 -9t8 -4q6 0 10 8q4 9 7.5 17.5t5.5 14.5t7 8t10 2h21q8 0 13 -6t3 -14l-99 -460q-2 -8 -9 -14t-15 -6h-15q-9 0 -14 7q-2 3 -2 8.5v11t-1 9.5t-5 4q-6 0 -14.5 -8t-23.5 -17t-37.5 -17t-54.5 -8zM276 638q-4 -16 -20 -16h-52q-16 0 -12 16l11 53
q2 6 7.5 11t12.5 5h52q7 0 10.5 -5t1.5 -11zM447 638q-4 -16 -20 -16h-52q-16 0 -12 16l11 53q2 6 7.5 11t12.5 5h52q7 0 10.5 -5t1.5 -11z" />
    <glyph glyph-name="aring" unicode="&#xe5;" 
d="M393 330q0 53 -27 87t-75 34q-41 0 -76 -20t-61 -55t-41 -83.5t-15 -106.5q0 -28 8 -53t23 -43.5t35.5 -29t44.5 -10.5q49 0 84 28t57 70t32.5 91t10.5 91zM201 -10q-34 0 -63.5 14t-51.5 39.5t-35 61.5t-13 81q0 60 18.5 117.5t51.5 103.5t80 74t104 28q42 0 68 -14.5
t39 -31.5q4 -5 7 -9t8 -4q6 0 10 8q4 9 7.5 17.5t5.5 14.5t7 8t10 2h21q8 0 13 -6t3 -14l-99 -460q-2 -8 -9 -14t-15 -6h-15q-9 0 -14 7q-2 3 -2 8.5v11t-1 9.5t-5 4q-6 0 -14.5 -8t-23.5 -17t-37.5 -17t-54.5 -8zM223 650q0 26 10.5 49.5t28 41.5t41 28.5t50.5 10.5
q42 0 67.5 -27t25.5 -68q0 -24 -10.5 -47t-28.5 -40t-41 -27.5t-47 -10.5q-45 0 -70.5 25.5t-25.5 64.5zM346 725q-12 0 -24.5 -5t-22 -14t-15.5 -21t-6 -27q0 -20 12.5 -32t32.5 -12q12 0 24 5t22 14t16 21.5t6 26.5q0 20 -12 32t-33 12z" />
    <glyph glyph-name="ae" unicode="&#xe6;" 
d="M243 38q-4 8 -18 8t-22 -9q-20 -22 -42 -34.5t-55 -12.5q-39 0 -65 14t-40.5 36.5t-18 51t2.5 58.5t21 56.5t37 46.5t51.5 31.5t65.5 11.5h77q10 0 12 10l9 39q11 49 -2 79.5t-50 30.5q-41 0 -67.5 -24t-34.5 -64q-2 -13 -10.5 -15t-15.5 -2h-14q-21 0 -16 20
q14 66 58 103t104 37q35 0 61 -12.5t37 -33.5q4 -7 13 -7t17 7q23 21 47.5 33.5t59.5 12.5q34 0 59 -15.5t40 -42.5t18.5 -63.5t-5.5 -78.5l-13 -64q-2 -8 -9.5 -14t-15.5 -6h-217q-9 0 -12 -10q-8 -36 -8.5 -66.5t7 -53t23 -35t40.5 -12.5q21 0 38 8.5t30 22t22.5 30.5
t16.5 33q5 10 12 13.5t14 3.5h17q8 0 12.5 -4.5t0.5 -15.5q-11 -29 -26.5 -56t-36.5 -48t-46.5 -33.5t-55.5 -12.5q-37 0 -65.5 12.5t-41.5 35.5zM159 241q-43 0 -75.5 -25t-40.5 -65q-11 -51 6 -78t60 -27q39 0 71.5 37.5t46.5 101.5l9 46q3 10 -7 10h-70zM308 292
q-2 -10 8 -10h170q10 0 12 10q15 70 2.5 114.5t-62.5 44.5q-45 0 -79.5 -42t-50.5 -117z" />
    <glyph glyph-name="ccedilla" unicode="&#xe7;" 
d="M226 49q37 0 64 10.5t45 27t28.5 36.5t14.5 40q2 10 9 13.5t14 3.5h21q8 0 12.5 -6t2.5 -14q-7 -34 -25 -64.5t-45 -54t-62.5 -37.5t-78.5 -14q-50 0 -85.5 15t-57 40.5t-29.5 60.5t-2 74q4 30 12.5 70t16.5 70q12 39 32.5 74t49.5 60.5t66 40.5t82 15q42 0 75.5 -14
t56 -37.5t31.5 -54t2 -64.5q-2 -8 -8 -14t-14 -6h-23q-7 0 -12 4t-3 12q5 22 0.5 43t-17.5 37t-35 25.5t-53 9.5q-41 0 -70 -13t-49 -32.5t-32 -42.5t-18 -43q-9 -31 -17 -70t-12 -70q-2 -20 1 -43t15.5 -42.5t35.5 -32.5t61 -13zM204 -184q-7 -16 -22 -16h-37
q-10 0 -13 5.5t1 12.5l64 121q7 16 22 16h27q10 0 12.5 -5.5t-0.5 -12.5z" />
    <glyph glyph-name="egrave" unicode="&#xe8;" 
d="M102 216q-8 -35 -4.5 -65t19 -53t42.5 -36t66 -13q31 0 53.5 8t39.5 21.5t29 30t21 34.5q5 10 12 13.5t14 3.5h20q8 0 12.5 -4.5t0.5 -15.5q-11 -33 -31 -60.5t-47.5 -47.5t-61.5 -31t-73 -11q-45 0 -80.5 15t-58.5 40.5t-33.5 60.5t-4.5 74q4 30 12.5 70t16.5 70
q12 39 33 74t50.5 60.5t67.5 40.5t83 15q58 0 94.5 -19t55.5 -50t22 -70.5t-6 -80.5l-10 -44q-2 -8 -9.5 -14t-15.5 -6h-317q-10 0 -12 -10zM120 292q-2 -10 8 -10h270q10 0 12 10q17 77 -11.5 118t-103.5 41q-67 0 -112.5 -41t-62.5 -118zM285 730q11 0 15.5 -5.5
t7.5 -10.5l52 -109q3 -5 -2.5 -12.5t-15.5 -7.5h-19q-14 0 -19 3.5t-8 8.5l-85 112q-3 5 1.5 13t14.5 8h58z" />
    <glyph glyph-name="eacute" unicode="&#xe9;" 
d="M102 216q-8 -35 -4.5 -65t19 -53t42.5 -36t66 -13q31 0 53.5 8t39.5 21.5t29 30t21 34.5q5 10 12 13.5t14 3.5h20q8 0 12.5 -4.5t0.5 -15.5q-11 -33 -31 -60.5t-47.5 -47.5t-61.5 -31t-73 -11q-45 0 -80.5 15t-58.5 40.5t-33.5 60.5t-4.5 74q4 30 12.5 70t16.5 70
q12 39 33 74t50.5 60.5t67.5 40.5t83 15q58 0 94.5 -19t55.5 -50t22 -70.5t-6 -80.5l-10 -44q-2 -8 -9.5 -14t-15.5 -6h-317q-10 0 -12 -10zM120 292q-2 -10 8 -10h270q10 0 12 10q17 77 -11.5 118t-103.5 41q-67 0 -112.5 -41t-62.5 -118zM474 730q10 0 11 -8t-5 -13
l-131 -112q-6 -5 -12.5 -8.5t-20.5 -3.5h-19q-10 0 -12.5 7.5t2.5 12.5l100 109q5 5 11.5 10.5t17.5 5.5h58z" />
    <glyph glyph-name="ecircumflex" unicode="&#xea;" 
d="M102 216q-8 -35 -4.5 -65t19 -53t42.5 -36t66 -13q31 0 53.5 8t39.5 21.5t29 30t21 34.5q5 10 12 13.5t14 3.5h20q8 0 12.5 -4.5t0.5 -15.5q-11 -33 -31 -60.5t-47.5 -47.5t-61.5 -31t-73 -11q-45 0 -80.5 15t-58.5 40.5t-33.5 60.5t-4.5 74q4 30 12.5 70t16.5 70
q12 39 33 74t50.5 60.5t67.5 40.5t83 15q58 0 94.5 -19t55.5 -50t22 -70.5t-6 -80.5l-10 -44q-2 -8 -9.5 -14t-15.5 -6h-317q-10 0 -12 -10zM120 292q-2 -10 8 -10h270q10 0 12 10q17 77 -11.5 118t-103.5 41q-67 0 -112.5 -41t-62.5 -118zM265 601q-5 -5 -14 -10.5
t-20 -5.5h-47q-10 0 -11 8t5 13l141 112q6 5 12.5 8.5t20.5 3.5h21q14 0 18.5 -4t8.5 -8l95 -112q4 -4 -1 -12.5t-15 -8.5h-39q-11 0 -17.5 5.5t-10.5 10.5l-53 65q-6 7 -14 0z" />
    <glyph glyph-name="edieresis" unicode="&#xeb;" 
d="M102 216q-8 -35 -4.5 -65t19 -53t42.5 -36t66 -13q31 0 53.5 8t39.5 21.5t29 30t21 34.5q5 10 12 13.5t14 3.5h20q8 0 12.5 -4.5t0.5 -15.5q-11 -33 -31 -60.5t-47.5 -47.5t-61.5 -31t-73 -11q-45 0 -80.5 15t-58.5 40.5t-33.5 60.5t-4.5 74q4 30 12.5 70t16.5 70
q12 39 33 74t50.5 60.5t67.5 40.5t83 15q58 0 94.5 -19t55.5 -50t22 -70.5t-6 -80.5l-10 -44q-2 -8 -9.5 -14t-15.5 -6h-317q-10 0 -12 -10zM120 292q-2 -10 8 -10h270q10 0 12 10q17 77 -11.5 118t-103.5 41q-67 0 -112.5 -41t-62.5 -118zM286 638q-4 -16 -20 -16h-52
q-16 0 -12 16l11 53q2 6 7.5 11t12.5 5h52q7 0 10.5 -5t1.5 -11zM457 638q-4 -16 -20 -16h-52q-16 0 -12 16l11 53q2 6 7.5 11t12.5 5h52q7 0 10.5 -5t1.5 -11z" />
    <glyph glyph-name="igrave" unicode="&#xec;" 
d="M305 730q11 0 15.5 -5.5t7.5 -10.5l52 -109q3 -5 -2.5 -12.5t-15.5 -7.5h-19q-14 0 -19 3.5t-8 8.5l-85 112q-3 5 1.5 13t14.5 8h58zM159 440q-8 0 -13 6t-3 14l4 20q2 8 9.5 14t15.5 6h175q8 0 12.5 -6t2.5 -14l-87 -410q-2 -10 8 -10h131q8 0 13 -6t3 -14l-4 -20
q-2 -8 -9.5 -14t-15.5 -6h-346q-8 0 -12.5 6t-2.5 14l4 20q2 8 9 14t15 6h135q10 0 12 10l77 360q2 10 -8 10h-125z" />
    <glyph glyph-name="iacute" unicode="&#xed;" 
d="M474 730q10 0 11 -8t-5 -13l-131 -112q-6 -5 -12.5 -8.5t-20.5 -3.5h-19q-10 0 -12.5 7.5t2.5 12.5l100 109q5 5 11.5 10.5t17.5 5.5h58zM159 440q-8 0 -13 6t-3 14l4 20q2 8 9.5 14t15.5 6h175q8 0 12.5 -6t2.5 -14l-87 -410q-2 -10 8 -10h131q8 0 13 -6t3 -14l-4 -20
q-2 -8 -9.5 -14t-15.5 -6h-346q-8 0 -12.5 6t-2.5 14l4 20q2 8 9 14t15 6h135q10 0 12 10l77 360q2 10 -8 10h-125z" />
    <glyph glyph-name="icircumflex" unicode="&#xee;" 
d="M159 440q-8 0 -13 6t-3 14l4 20q2 8 9.5 14t15.5 6h175q8 0 12.5 -6t2.5 -14l-87 -410q-2 -10 8 -10h131q8 0 13 -6t3 -14l-4 -20q-2 -8 -9.5 -14t-15.5 -6h-346q-8 0 -12.5 6t-2.5 14l4 20q2 8 9 14t15 6h135q10 0 12 10l77 360q2 10 -8 10h-125zM245 601
q-5 -5 -14 -10.5t-20 -5.5h-47q-10 0 -11 8t5 13l141 112q6 5 12.5 8.5t20.5 3.5h21q14 0 18.5 -4t8.5 -8l95 -112q4 -4 -1 -12.5t-15 -8.5h-39q-11 0 -17.5 5.5t-10.5 10.5l-53 65q-6 7 -14 0z" />
    <glyph glyph-name="idieresis" unicode="&#xef;" 
d="M256 638q-4 -16 -20 -16h-52q-16 0 -12 16l11 53q2 6 7.5 11t12.5 5h52q7 0 10.5 -5t1.5 -11zM427 638q-4 -16 -20 -16h-52q-16 0 -12 16l11 53q2 6 7.5 11t12.5 5h52q7 0 10.5 -5t1.5 -11zM159 440q-8 0 -13 6t-3 14l4 20q2 8 9.5 14t15.5 6h175q8 0 12.5 -6t2.5 -14
l-87 -410q-2 -10 8 -10h131q8 0 13 -6t3 -14l-4 -20q-2 -8 -9.5 -14t-15.5 -6h-346q-8 0 -12.5 6t-2.5 14l4 20q2 8 9 14t15 6h135q10 0 12 10l77 360q2 10 -8 10h-125z" />
    <glyph glyph-name="eth" unicode="&#xf0;" 
d="M198 49q54 0 90.5 25t58.5 61.5t31.5 78.5t9.5 76q0 15 -2.5 34t-13 36.5t-32 29t-58.5 11.5q-52 0 -89.5 -21.5t-62 -54.5t-36.5 -72t-12 -73q0 -19 4 -41.5t16 -42.5t35 -33.5t61 -13.5zM347 629q-27 12 -65 12h-36q-8 0 -12.5 6t-2.5 14l4 19q2 8 9 14t15 6h36
q75 0 120 -39q4 -2 9 0l82 44q8 5 16 0.5t6 -14.5l-4 -17q-2 -10 -6 -14.5t-12 -9.5l-48 -27q-8 -4 -6 -10q20 -37 25.5 -86.5t0.5 -106.5q-4 -39 -10 -86t-18 -95t-31 -92.5t-49 -79.5t-72 -56t-100 -21q-46 0 -79.5 15t-55.5 40.5t-32.5 60.5t-10.5 74q0 53 19 103.5
t53.5 89.5t83 63t106.5 24q26 0 45.5 -5t34 -12.5t23.5 -16t13 -15.5q3 -5 6.5 -3t4.5 7q9 48 8 89.5t-16 72.5q-4 7 -9 4l-24 -12l-71 -37q-9 -5 -18 -1.5t-7 15.5l2 11q2 8 5 14.5t16 13.5l52 27q8 4 6.5 9.5t-6.5 7.5z" />
    <glyph glyph-name="ntilde" unicode="&#xf1;" 
d="M204 477q11 0 20.5 5t21.5 11.5t28.5 11.5t40.5 5q39 0 72 -11t55 -33t30.5 -54.5t-0.5 -75.5l-67 -316q-2 -8 -9.5 -14t-15.5 -6h-19q-8 0 -12.5 6t-2.5 14l67 316q7 31 1.5 53t-19.5 36t-36 20t-49 6q-54 0 -95.5 -25t-54.5 -85l-68 -321q-2 -8 -9.5 -14t-15.5 -6h-19
q-8 0 -12.5 6t-2.5 14l97 460q2 8 9.5 14t15.5 6h16q7 0 12 -7q4 -5 8 -10.5t13 -5.5zM420 676q19 0 30.5 6.5t19.5 14.5t16.5 4t5.5 -18l-5 -24q-4 -20 -27.5 -35.5t-53.5 -15.5q-24 0 -38.5 4t-27.5 8.5t-28.5 8.5t-40.5 4q-17 0 -28.5 -5.5t-22.5 -15.5q-8 -7 -16.5 -3.5
t-5.5 17.5l5 24q4 20 28 35.5t54 15.5q24 0 38.5 -4t27.5 -8.5t28 -8.5t41 -4z" />
    <glyph glyph-name="ograve" unicode="&#xf2;" 
d="M307 510q45 0 80 -15t57.5 -40.5t32 -60.5t4.5 -74q-4 -30 -12.5 -70t-16.5 -70q-12 -39 -32.5 -74t-49.5 -60.5t-66 -40.5t-82 -15t-80 15t-57.5 40.5t-32.5 60.5t-4 74q4 30 12.5 70t16.5 70q12 39 32.5 74t49.5 60.5t66 40.5t82 15zM222 49q40 0 69 13t49 32.5
t32.5 42.5t18.5 43q9 31 17 70t12 70q2 20 -1 43t-15.5 42.5t-36 32.5t-60.5 13q-40 0 -69 -13t-49 -32.5t-32.5 -42.5t-18.5 -43q-9 -31 -17 -70t-12 -70q-2 -20 1 -43t15.5 -42.5t35.5 -32.5t61 -13zM285 730q11 0 15.5 -5.5t7.5 -10.5l52 -109q3 -5 -2.5 -12.5
t-15.5 -7.5h-19q-14 0 -19 3.5t-8 8.5l-85 112q-3 5 1.5 13t14.5 8h58z" />
    <glyph glyph-name="oacute" unicode="&#xf3;" 
d="M307 510q45 0 80 -15t57.5 -40.5t32 -60.5t4.5 -74q-4 -30 -12.5 -70t-16.5 -70q-12 -39 -32.5 -74t-49.5 -60.5t-66 -40.5t-82 -15t-80 15t-57.5 40.5t-32.5 60.5t-4 74q4 30 12.5 70t16.5 70q12 39 32.5 74t49.5 60.5t66 40.5t82 15zM222 49q40 0 69 13t49 32.5
t32.5 42.5t18.5 43q9 31 17 70t12 70q2 20 -1 43t-15.5 42.5t-36 32.5t-60.5 13q-40 0 -69 -13t-49 -32.5t-32.5 -42.5t-18.5 -43q-9 -31 -17 -70t-12 -70q-2 -20 1 -43t15.5 -42.5t35.5 -32.5t61 -13zM464 730q10 0 11 -8t-5 -13l-131 -112q-6 -5 -12.5 -8.5t-20.5 -3.5
h-19q-10 0 -12.5 7.5t2.5 12.5l100 109q5 5 11.5 10.5t17.5 5.5h58z" />
    <glyph glyph-name="ocircumflex" unicode="&#xf4;" 
d="M307 510q45 0 80 -15t57.5 -40.5t32 -60.5t4.5 -74q-4 -30 -12.5 -70t-16.5 -70q-12 -39 -32.5 -74t-49.5 -60.5t-66 -40.5t-82 -15t-80 15t-57.5 40.5t-32.5 60.5t-4 74q4 30 12.5 70t16.5 70q12 39 32.5 74t49.5 60.5t66 40.5t82 15zM222 49q40 0 69 13t49 32.5
t32.5 42.5t18.5 43q9 31 17 70t12 70q2 20 -1 43t-15.5 42.5t-36 32.5t-60.5 13q-40 0 -69 -13t-49 -32.5t-32.5 -42.5t-18.5 -43q-9 -31 -17 -70t-12 -70q-2 -20 1 -43t15.5 -42.5t35.5 -32.5t61 -13zM285 601q-5 -5 -14 -10.5t-20 -5.5h-47q-10 0 -11 8t5 13l141 112
q6 5 12.5 8.5t20.5 3.5h21q14 0 18.5 -4t8.5 -8l95 -112q4 -4 -1 -12.5t-15 -8.5h-39q-11 0 -17.5 5.5t-10.5 10.5l-53 65q-6 7 -14 0z" />
    <glyph glyph-name="otilde" unicode="&#xf5;" 
d="M307 510q45 0 80 -15t57.5 -40.5t32 -60.5t4.5 -74q-4 -30 -12.5 -70t-16.5 -70q-12 -39 -32.5 -74t-49.5 -60.5t-66 -40.5t-82 -15t-80 15t-57.5 40.5t-32.5 60.5t-4 74q4 30 12.5 70t16.5 70q12 39 32.5 74t49.5 60.5t66 40.5t82 15zM222 49q40 0 69 13t49 32.5
t32.5 42.5t18.5 43q9 31 17 70t12 70q2 20 -1 43t-15.5 42.5t-36 32.5t-60.5 13q-40 0 -69 -13t-49 -32.5t-32.5 -42.5t-18.5 -43q-9 -31 -17 -70t-12 -70q-2 -20 1 -43t15.5 -42.5t35.5 -32.5t61 -13zM430 676q19 0 30.5 6.5t19.5 14.5t16.5 4t5.5 -18l-5 -24
q-4 -20 -27.5 -35.5t-53.5 -15.5q-24 0 -38.5 4t-27.5 8.5t-28.5 8.5t-40.5 4q-17 0 -28.5 -5.5t-22.5 -15.5q-8 -7 -16.5 -3.5t-5.5 17.5l5 24q4 20 28 35.5t54 15.5q24 0 38.5 -4t27.5 -8.5t28 -8.5t41 -4z" />
    <glyph glyph-name="odieresis" unicode="&#xf6;" 
d="M307 510q45 0 80 -15t57.5 -40.5t32 -60.5t4.5 -74q-4 -30 -12.5 -70t-16.5 -70q-12 -39 -32.5 -74t-49.5 -60.5t-66 -40.5t-82 -15t-80 15t-57.5 40.5t-32.5 60.5t-4 74q4 30 12.5 70t16.5 70q12 39 32.5 74t49.5 60.5t66 40.5t82 15zM222 49q40 0 69 13t49 32.5
t32.5 42.5t18.5 43q9 31 17 70t12 70q2 20 -1 43t-15.5 42.5t-36 32.5t-60.5 13q-40 0 -69 -13t-49 -32.5t-32.5 -42.5t-18.5 -43q-9 -31 -17 -70t-12 -70q-2 -20 1 -43t15.5 -42.5t35.5 -32.5t61 -13zM316 638q-4 -16 -20 -16h-52q-16 0 -12 16l11 53q2 6 7.5 11t12.5 5h52
q7 0 10.5 -5t1.5 -11zM487 638q-4 -16 -20 -16h-52q-16 0 -12 16l11 53q2 6 7.5 11t12.5 5h52q7 0 10.5 -5t1.5 -11z" />
    <glyph glyph-name="divide" unicode="&#xf7;" 
d="M472 286q8 0 13 -6t3 -14l-7 -30q-2 -8 -9 -14t-15 -6h-380q-8 0 -13 6t-3 14l7 30q2 8 9 14t15 6h380zM280 20q-2 -8 -9.5 -14t-15.5 -6h-70q-8 0 -12.5 6t-2.5 14l15 70q2 8 9 14t15 6h70q8 0 13 -6t3 -14zM360 400q-2 -8 -9 -14t-15 -6h-70q-8 0 -13 6t-3 14l15 70
q2 8 9.5 14t15.5 6h70q8 0 12.5 -6t2.5 -14z" />
    <glyph glyph-name="oslash" unicode="&#xf8;" 
d="M63 0q-10 0 -15 6t3 16l24 29q3 5 1 7q-17 25 -24.5 56t-2.5 66q4 30 12.5 70t16.5 70q12 39 32.5 74t49.5 60.5t66 40.5t82 15q35 0 63.5 -9t50.5 -26q3 -3 6 1l7 9q12 15 23 15h27q10 0 13.5 -7.5t-4.5 -16.5l-31 -37q-3 -5 -1 -7q29 -48 20 -112q-4 -30 -12.5 -70
t-16.5 -70q-12 -39 -32.5 -74t-49.5 -60.5t-66 -40.5t-82 -15q-30 0 -55.5 7t-45.5 18q-5 3 -7 0q-6 -8 -9.5 -11.5t-11.5 -3.5h-31zM308 451q-40 0 -69 -13t-49 -32.5t-32.5 -42.5t-18.5 -43q-9 -31 -17 -70t-12 -70q-2 -17 -0.5 -34.5t8.5 -34.5q3 -5 6 -1l259 312
q2 3 1 4.5t-2 2.5q-13 10 -31 16t-43 6zM223 49q40 0 69 13t49 32.5t32.5 42.5t18.5 43q9 31 17.5 70t11.5 70q3 28 -4 56q0 2 -1.5 2.5t-3.5 -2.5l-253 -307q-2 -3 -1 -4l2 -2q25 -14 63 -14z" />
    <glyph glyph-name="ugrave" unicode="&#xf9;" 
d="M320 23q-11 0 -20.5 -5t-21.5 -11.5t-28.5 -11.5t-40.5 -5q-39 0 -72 11t-55 33t-30.5 54.5t0.5 75.5l67 316q2 8 9.5 14t15.5 6h19q8 0 12.5 -6t2.5 -14l-67 -316q-7 -32 -2 -53.5t19.5 -35.5t36.5 -20t49 -6q54 0 95.5 25t54.5 85l68 321q2 8 9.5 14t15.5 6h19
q8 0 12.5 -6t2.5 -14l-97 -460q-2 -8 -9.5 -14t-15.5 -6h-16q-7 0 -12 7q-4 5 -8 10.5t-13 5.5zM290 730q11 0 15.5 -5.5t7.5 -10.5l52 -109q3 -5 -2.5 -12.5t-15.5 -7.5h-19q-14 0 -19 3.5t-8 8.5l-85 112q-3 5 1.5 13t14.5 8h58z" />
    <glyph glyph-name="uacute" unicode="&#xfa;" 
d="M320 23q-11 0 -20.5 -5t-21.5 -11.5t-28.5 -11.5t-40.5 -5q-39 0 -72 11t-55 33t-30.5 54.5t0.5 75.5l67 316q2 8 9.5 14t15.5 6h19q8 0 12.5 -6t2.5 -14l-67 -316q-7 -32 -2 -53.5t19.5 -35.5t36.5 -20t49 -6q54 0 95.5 25t54.5 85l68 321q2 8 9.5 14t15.5 6h19
q8 0 12.5 -6t2.5 -14l-97 -460q-2 -8 -9.5 -14t-15.5 -6h-16q-7 0 -12 7q-4 5 -8 10.5t-13 5.5zM469 730q10 0 11 -8t-5 -13l-131 -112q-6 -5 -12.5 -8.5t-20.5 -3.5h-19q-10 0 -12.5 7.5t2.5 12.5l100 109q5 5 11.5 10.5t17.5 5.5h58z" />
    <glyph glyph-name="ucircumflex" unicode="&#xfb;" 
d="M320 23q-11 0 -20.5 -5t-21.5 -11.5t-28.5 -11.5t-40.5 -5q-39 0 -72 11t-55 33t-30.5 54.5t0.5 75.5l67 316q2 8 9.5 14t15.5 6h19q8 0 12.5 -6t2.5 -14l-67 -316q-7 -32 -2 -53.5t19.5 -35.5t36.5 -20t49 -6q54 0 95.5 25t54.5 85l68 321q2 8 9.5 14t15.5 6h19
q8 0 12.5 -6t2.5 -14l-97 -460q-2 -8 -9.5 -14t-15.5 -6h-16q-7 0 -12 7q-4 5 -8 10.5t-13 5.5zM260 601q-5 -5 -14 -10.5t-20 -5.5h-47q-10 0 -11 8t5 13l141 112q6 5 12.5 8.5t20.5 3.5h21q14 0 18.5 -4t8.5 -8l95 -112q4 -4 -1 -12.5t-15 -8.5h-39q-11 0 -17.5 5.5
t-10.5 10.5l-53 65q-6 7 -14 0z" />
    <glyph glyph-name="udieresis" unicode="&#xfc;" 
d="M320 23q-11 0 -20.5 -5t-21.5 -11.5t-28.5 -11.5t-40.5 -5q-39 0 -72 11t-55 33t-30.5 54.5t0.5 75.5l67 316q2 8 9.5 14t15.5 6h19q8 0 12.5 -6t2.5 -14l-67 -316q-7 -32 -2 -53.5t19.5 -35.5t36.5 -20t49 -6q54 0 95.5 25t54.5 85l68 321q2 8 9.5 14t15.5 6h19
q8 0 12.5 -6t2.5 -14l-97 -460q-2 -8 -9.5 -14t-15.5 -6h-16q-7 0 -12 7q-4 5 -8 10.5t-13 5.5zM291 638q-4 -16 -20 -16h-52q-16 0 -12 16l11 53q2 6 7.5 11t12.5 5h52q7 0 10.5 -5t1.5 -11zM462 638q-4 -16 -20 -16h-52q-16 0 -12 16l11 53q2 6 7.5 11t12.5 5h52
q7 0 10.5 -5t1.5 -11z" />
    <glyph glyph-name="yacute" unicode="&#xfd;" 
d="M163 -119q-26 -45 -60.5 -63t-76.5 -18h-22q-8 0 -13 6t-3 14l4 18q2 8 9.5 14t15.5 6h22q21 0 41.5 13t41.5 49l61 104q4 7 3 13l-95 440q-2 8 5 15.5t19 7.5h23q13 0 16 -15l75 -368q1 -4 3.5 -4t4.5 4l213 368q8 15 22 15h33q12 0 15.5 -7.5t-1.5 -15.5zM454 730
q10 0 11 -8t-5 -13l-131 -112q-6 -5 -12.5 -8.5t-20.5 -3.5h-19q-10 0 -12.5 7.5t2.5 12.5l100 109q5 5 11.5 10.5t17.5 5.5h58z" />
    <glyph glyph-name="thorn" unicode="&#xfe;" 
d="M264 49q41 0 69 13t46.5 32.5t29 42.5t17.5 43q10 31 18 70t11 70q2 20 -1 43t-14 42.5t-33 32.5t-58 13q-33 0 -58.5 -13t-44 -32.5t-30.5 -42.5t-18 -43q-9 -31 -17 -70t-12 -70q-2 -20 0 -43t12 -42.5t30 -32.5t53 -13zM215 687q2 8 9.5 14t15.5 6h19q8 0 12.5 -6
t2.5 -14l-38 -181q-2 -7 2.5 -14t15.5 -7q7 0 16 4t20 8.5t25.5 8.5t33.5 4q46 0 80 -15t55 -40.5t29.5 -60.5t2.5 -74q-4 -30 -12.5 -70t-16.5 -70q-12 -39 -29.5 -74t-44 -60.5t-63.5 -40.5t-86 -15q-24 0 -41 5t-29.5 11t-22 11t-16.5 5q-21 0 -26 -21l-39 -181
q-2 -8 -9.5 -14t-15.5 -6h-19q-8 0 -12.5 6t-2.5 14z" />
    <glyph glyph-name="ydieresis" unicode="&#xff;" 
d="M163 -119q-26 -45 -60.5 -63t-76.5 -18h-22q-8 0 -13 6t-3 14l4 18q2 8 9.5 14t15.5 6h22q21 0 41.5 13t41.5 49l61 104q4 7 3 13l-95 440q-2 8 5 15.5t19 7.5h23q13 0 16 -15l75 -368q1 -4 3.5 -4t4.5 4l213 368q8 15 22 15h33q12 0 15.5 -7.5t-1.5 -15.5zM276 638
q-4 -16 -20 -16h-52q-16 0 -12 16l11 53q2 6 7.5 11t12.5 5h52q7 0 10.5 -5t1.5 -11zM447 638q-4 -16 -20 -16h-52q-16 0 -12 16l11 53q2 6 7.5 11t12.5 5h52q7 0 10.5 -5t1.5 -11z" />
    <glyph glyph-name="Amacron" unicode="&#x100;" 
d="M35 15q-3 -6 -8.5 -10.5t-12.5 -4.5h-27q-12 0 -15.5 6.5t-0.5 13.5l332 665q7 15 22 15h50q14 0 16 -15l49 -665q1 -7 -5.5 -13.5t-18.5 -6.5h-25q-14 0 -16 15l-11 169q-2 14 -16 14h-206q-14 0 -22 -14zM165 271q-6 -11 5 -11h176q11 0 11 11l-17 340q0 6 -3 6h-2
q-2 0 -5 -6zM239 765q-8 0 -13 6t-3 14l5 20q2 8 9 14t15 6h242q8 0 13 -6t3 -14l-5 -20q-2 -8 -9 -14t-15 -6h-242z" />
    <glyph glyph-name="amacron" unicode="&#x101;" 
d="M393 330q0 53 -27 87t-75 34q-41 0 -76 -20t-61 -55t-41 -83.5t-15 -106.5q0 -28 8 -53t23 -43.5t35.5 -29t44.5 -10.5q49 0 84 28t57 70t32.5 91t10.5 91zM201 -10q-34 0 -63.5 14t-51.5 39.5t-35 61.5t-13 81q0 60 18.5 117.5t51.5 103.5t80 74t104 28q42 0 68 -14.5
t39 -31.5q4 -5 7 -9t8 -4q6 0 10 8q4 9 7.5 17.5t5.5 14.5t7 8t10 2h21q8 0 13 -6t3 -14l-99 -460q-2 -8 -9 -14t-15 -6h-15q-9 0 -14 7q-2 3 -2 8.5v11t-1 9.5t-5 4q-6 0 -14.5 -8t-23.5 -17t-37.5 -17t-54.5 -8zM198 634q-8 0 -13 6t-3 14l5 20q2 8 9 14t15 6h242
q8 0 13 -6t3 -14l-5 -20q-2 -8 -9 -14t-15 -6h-242z" />
    <glyph glyph-name="Abreve" unicode="&#x102;" 
d="M35 15q-3 -6 -8.5 -10.5t-12.5 -4.5h-27q-12 0 -15.5 6.5t-0.5 13.5l332 665q7 15 22 15h50q14 0 16 -15l49 -665q1 -7 -5.5 -13.5t-18.5 -6.5h-25q-14 0 -16 15l-11 169q-2 14 -16 14h-206q-14 0 -22 -14zM165 271q-6 -11 5 -11h176q11 0 11 11l-17 340q0 6 -3 6h-2
q-2 0 -5 -6zM451 878q2 7 7.5 12t13.5 5h23q7 0 11 -5t2 -12q-6 -27 -19.5 -50t-34 -40.5t-46.5 -27.5t-56 -10t-54.5 10t-41 27.5t-23 40.5t-0.5 50q2 7 8 12t13 5h23q8 0 11.5 -5t1.5 -12q-7 -35 11.5 -55.5t53.5 -20.5t62 20.5t34 55.5z" />
    <glyph glyph-name="abreve" unicode="&#x103;" 
d="M393 330q0 53 -27 87t-75 34q-41 0 -76 -20t-61 -55t-41 -83.5t-15 -106.5q0 -28 8 -53t23 -43.5t35.5 -29t44.5 -10.5q49 0 84 28t57 70t32.5 91t10.5 91zM201 -10q-34 0 -63.5 14t-51.5 39.5t-35 61.5t-13 81q0 60 18.5 117.5t51.5 103.5t80 74t104 28q42 0 68 -14.5
t39 -31.5q4 -5 7 -9t8 -4q6 0 10 8q4 9 7.5 17.5t5.5 14.5t7 8t10 2h21q8 0 13 -6t3 -14l-99 -460q-2 -8 -9 -14t-15 -6h-15q-9 0 -14 7q-2 3 -2 8.5v11t-1 9.5t-5 4q-6 0 -14.5 -8t-23.5 -17t-37.5 -17t-54.5 -8zM412 713q2 7 7.5 12t13.5 5h23q7 0 11 -5t2 -12
q-6 -27 -19.5 -50t-34 -40.5t-46.5 -27.5t-56 -10t-54.5 10t-41 27.5t-23 40.5t-0.5 50q2 7 8 12t13 5h23q8 0 11.5 -5t1.5 -12q-7 -35 11.5 -55.5t53.5 -20.5t62 20.5t34 55.5z" />
    <glyph glyph-name="Aogonek" unicode="&#x104;" 
d="M34 15q-3 -6 -8.5 -10.5t-12.5 -4.5h-27q-12 0 -15.5 6.5t-0.5 13.5l332 665q7 15 22 15h50q14 0 16 -15l49 -665q1 -7 -5.5 -13.5t-18.5 -6.5h-9q-20 0 -40.5 -6t-36.5 -18t-26 -29.5t-10 -40.5q0 -32 24 -44t67 -12q8 0 12.5 -6t2.5 -14l-4 -20q-2 -8 -9 -14t-15 -6
q-63 0 -102 29.5t-39 80.5q0 30 11.5 55t31 44.5t45 33t53.5 20.5l-8 131q-2 14 -16 14h-206q-14 0 -22 -14zM164 271q-6 -11 5 -11h176q11 0 11 11l-17 340q0 6 -3 6h-2q-2 0 -5 -6z" />
    <glyph glyph-name="aogonek" unicode="&#x105;" 
d="M200 -10q-34 0 -63.5 14t-51.5 39.5t-35 61.5t-13 81q0 60 18.5 117.5t51.5 103.5t80 74t104 28q42 0 68 -14.5t39 -31.5q4 -5 7 -9t8 -4q6 0 10 8l13 32q2 6 7 8t10 2h21q8 0 13 -6t3 -14l-99 -460q-2 -8 -9 -14t-15 -6h-11q-20 0 -40.5 -6t-36.5 -18t-26 -29.5
t-10 -40.5q0 -32 24 -44t67 -12q8 0 12.5 -6t2.5 -14l-4 -20q-2 -8 -9 -14t-15 -6q-63 0 -102 29.5t-39 80.5q0 26 15 52t38 40q-7 -1 -16 -1.5t-17 -0.5zM392 330q0 53 -27 87t-75 34q-41 0 -76 -20t-61 -55t-41 -83.5t-15 -106.5q0 -28 8 -53t23 -43.5t35.5 -29
t44.5 -10.5q49 0 84 28t57 70t32.5 91t10.5 91z" />
    <glyph glyph-name="Cacute" unicode="&#x106;" 
d="M526 496q-2 -8 -9.5 -14t-15.5 -6h-25q-8 0 -12.5 6t-2.5 14q5 28 0.5 55t-19.5 47.5t-41 33t-64 12.5q-40 0 -70.5 -12t-53 -32.5t-38 -46.5t-25.5 -53q-11 -31 -21.5 -70t-19 -80t-14.5 -80t-8 -70q-2 -22 2.5 -47t18 -46.5t38.5 -36t66 -14.5q49 0 82 14.5t54 36
t32.5 47.5t19.5 50q2 8 9.5 14t15.5 6h27q8 0 12.5 -6t2.5 -14q-32 -101 -92.5 -156.5t-162.5 -55.5q-45 0 -82 14.5t-62.5 41.5t-38.5 65.5t-9 86.5q2 30 8.5 69.5t15 81t18.5 80.5t21 69q15 41 37 78.5t53 66.5t71.5 46t92.5 17t90.5 -17.5t63 -46.5t33.5 -67.5t2 -80.5z
M493 895q10 0 11 -8t-5 -13l-131 -112q-6 -5 -12.5 -8.5t-20.5 -3.5h-19q-10 0 -12.5 7.5t2.5 12.5l100 109q5 5 11.5 10.5t17.5 5.5h58z" />
    <glyph glyph-name="cacute" unicode="&#x107;" 
d="M226 49q37 0 64 10.5t45 27t28.5 36.5t14.5 40q2 10 9 13.5t14 3.5h21q8 0 12.5 -6t2.5 -14q-7 -34 -25 -64.5t-45 -54t-62.5 -37.5t-78.5 -14q-50 0 -85.5 15t-57 40.5t-29.5 60.5t-2 74q4 30 12.5 70t16.5 70q12 39 32.5 74t49.5 60.5t66 40.5t82 15q42 0 75.5 -14
t56 -37.5t31.5 -54t2 -64.5q-2 -8 -8 -14t-14 -6h-23q-7 0 -12 4t-3 12q5 22 0.5 43t-17.5 37t-35 25.5t-53 9.5q-41 0 -70 -13t-49 -32.5t-32 -42.5t-18 -43q-9 -31 -17 -70t-12 -70q-2 -20 1 -43t15.5 -42.5t35.5 -32.5t61 -13zM454 730q10 0 11 -8t-5 -13l-131 -112
q-6 -5 -12.5 -8.5t-20.5 -3.5h-19q-10 0 -12.5 7.5t2.5 12.5l100 109q5 5 11.5 10.5t17.5 5.5h58z" />
    <glyph glyph-name="Ccircumflex" unicode="&#x108;" 
d="M526 496q-2 -8 -9.5 -14t-15.5 -6h-25q-8 0 -12.5 6t-2.5 14q5 28 0.5 55t-19.5 47.5t-41 33t-64 12.5q-40 0 -70.5 -12t-53 -32.5t-38 -46.5t-25.5 -53q-11 -31 -21.5 -70t-19 -80t-14.5 -80t-8 -70q-2 -22 2.5 -47t18 -46.5t38.5 -36t66 -14.5q49 0 82 14.5t54 36
t32.5 47.5t19.5 50q2 8 9.5 14t15.5 6h27q8 0 12.5 -6t2.5 -14q-32 -101 -92.5 -156.5t-162.5 -55.5q-45 0 -82 14.5t-62.5 41.5t-38.5 65.5t-9 86.5q2 30 8.5 69.5t15 81t18.5 80.5t21 69q15 41 37 78.5t53 66.5t71.5 46t92.5 17t90.5 -17.5t63 -46.5t33.5 -67.5t2 -80.5z
M290 766q-5 -5 -14 -10.5t-20 -5.5h-47q-10 0 -11 8t5 13l141 112q6 5 12.5 8.5t20.5 3.5h21q14 0 18.5 -4t8.5 -8l95 -112q4 -4 -1 -12.5t-15 -8.5h-39q-11 0 -17.5 5.5t-10.5 10.5l-53 65q-6 7 -14 0z" />
    <glyph glyph-name="ccircumflex" unicode="&#x109;" 
d="M226 49q37 0 64 10.5t45 27t28.5 36.5t14.5 40q2 10 9 13.5t14 3.5h21q8 0 12.5 -6t2.5 -14q-7 -34 -25 -64.5t-45 -54t-62.5 -37.5t-78.5 -14q-50 0 -85.5 15t-57 40.5t-29.5 60.5t-2 74q4 30 12.5 70t16.5 70q12 39 32.5 74t49.5 60.5t66 40.5t82 15q42 0 75.5 -14
t56 -37.5t31.5 -54t2 -64.5q-2 -8 -8 -14t-14 -6h-23q-7 0 -12 4t-3 12q5 22 0.5 43t-17.5 37t-35 25.5t-53 9.5q-41 0 -70 -13t-49 -32.5t-32 -42.5t-18 -43q-9 -31 -17 -70t-12 -70q-2 -20 1 -43t15.5 -42.5t35.5 -32.5t61 -13zM265 601q-5 -5 -14 -10.5t-20 -5.5h-47
q-10 0 -11 8t5 13l141 112q6 5 12.5 8.5t20.5 3.5h21q14 0 18.5 -4t8.5 -8l95 -112q4 -4 -1 -12.5t-15 -8.5h-39q-11 0 -17.5 5.5t-10.5 10.5l-53 65q-6 7 -14 0z" />
    <glyph glyph-name="Cdotaccent" unicode="&#x10a;" 
d="M526 496q-2 -8 -9.5 -14t-15.5 -6h-25q-8 0 -12.5 6t-2.5 14q5 28 0.5 55t-19.5 47.5t-41 33t-64 12.5q-40 0 -70.5 -12t-53 -32.5t-38 -46.5t-25.5 -53q-11 -31 -21.5 -70t-19 -80t-14.5 -80t-8 -70q-2 -22 2.5 -47t18 -46.5t38.5 -36t66 -14.5q49 0 82 14.5t54 36
t32.5 47.5t19.5 50q2 8 9.5 14t15.5 6h27q8 0 12.5 -6t2.5 -14q-32 -101 -92.5 -156.5t-162.5 -55.5q-45 0 -82 14.5t-62.5 41.5t-38.5 65.5t-9 86.5q2 30 8.5 69.5t15 81t18.5 80.5t21 69q15 41 37 78.5t53 66.5t71.5 46t92.5 17t90.5 -17.5t63 -46.5t33.5 -67.5t2 -80.5z
M411 770q-4 -16 -19 -16h-58q-7 0 -11 4.5t-2 11.5l13 59q1 6 6.5 11t12.5 5h58q7 0 11 -5t2 -11z" />
    <glyph glyph-name="cdotaccent" unicode="&#x10b;" 
d="M226 49q37 0 64 10.5t45 27t28.5 36.5t14.5 40q2 10 9 13.5t14 3.5h21q8 0 12.5 -6t2.5 -14q-7 -34 -25 -64.5t-45 -54t-62.5 -37.5t-78.5 -14q-50 0 -85.5 15t-57 40.5t-29.5 60.5t-2 74q4 30 12.5 70t16.5 70q12 39 32.5 74t49.5 60.5t66 40.5t82 15q42 0 75.5 -14
t56 -37.5t31.5 -54t2 -64.5q-2 -8 -8 -14t-14 -6h-23q-7 0 -12 4t-3 12q5 22 0.5 43t-17.5 37t-35 25.5t-53 9.5q-41 0 -70 -13t-49 -32.5t-32 -42.5t-18 -43q-9 -31 -17 -70t-12 -70q-2 -20 1 -43t15.5 -42.5t35.5 -32.5t61 -13zM373 632q-4 -16 -19 -16h-58q-7 0 -11 4.5
t-2 11.5l13 59q1 6 6.5 11t12.5 5h58q7 0 11 -5t2 -11z" />
    <glyph glyph-name="Ccaron" unicode="&#x10c;" 
d="M526 496q-2 -8 -9.5 -14t-15.5 -6h-25q-8 0 -12.5 6t-2.5 14q5 28 0.5 55t-19.5 47.5t-41 33t-64 12.5q-40 0 -70.5 -12t-53 -32.5t-38 -46.5t-25.5 -53q-11 -31 -21.5 -70t-19 -80t-14.5 -80t-8 -70q-2 -22 2.5 -47t18 -46.5t38.5 -36t66 -14.5q49 0 82 14.5t54 36
t32.5 47.5t19.5 50q2 8 9.5 14t15.5 6h27q8 0 12.5 -6t2.5 -14q-32 -101 -92.5 -156.5t-162.5 -55.5q-45 0 -82 14.5t-62.5 41.5t-38.5 65.5t-9 86.5q2 30 8.5 69.5t15 81t18.5 80.5t21 69q15 41 37 78.5t53 66.5t71.5 46t92.5 17t90.5 -17.5t63 -46.5t33.5 -67.5t2 -80.5z
M354 814q6 -7 14 0l82 65q5 5 14 10.5t20 5.5h45q10 0 11 -8t-5 -13l-141 -112q-6 -5 -12.5 -8.5t-19.5 -3.5h-22q-14 0 -18.5 4t-8.5 8l-95 112q-4 4 1 12.5t15 8.5h40q11 0 17.5 -5.5t10.5 -10.5z" />
    <glyph glyph-name="ccaron" unicode="&#x10d;" 
d="M226 49q37 0 64 10.5t45 27t28.5 36.5t14.5 40q2 10 9 13.5t14 3.5h21q8 0 12.5 -6t2.5 -14q-7 -34 -25 -64.5t-45 -54t-62.5 -37.5t-78.5 -14q-50 0 -85.5 15t-57 40.5t-29.5 60.5t-2 74q4 30 12.5 70t16.5 70q12 39 32.5 74t49.5 60.5t66 40.5t82 15q42 0 75.5 -14
t56 -37.5t31.5 -54t2 -64.5q-2 -8 -8 -14t-14 -6h-23q-7 0 -12 4t-3 12q5 22 0.5 43t-17.5 37t-35 25.5t-53 9.5q-41 0 -70 -13t-49 -32.5t-32 -42.5t-18 -43q-9 -31 -17 -70t-12 -70q-2 -20 1 -43t15.5 -42.5t35.5 -32.5t61 -13zM321 649q6 -7 14 0l82 65q5 5 14 10.5
t20 5.5h45q10 0 11 -8t-5 -13l-141 -112q-6 -5 -12.5 -8.5t-19.5 -3.5h-22q-14 0 -18.5 4t-8.5 8l-95 112q-4 4 1 12.5t15 8.5h40q11 0 17.5 -5.5t10.5 -10.5z" />
    <glyph glyph-name="Dcaron" unicode="&#x10e;" 
d="M198 636q-10 0 -12 -10l-117 -552q-2 -10 8 -10h123q46 0 78 13t53.5 33t34.5 44t21 46q11 31 21.5 70t19 80t14.5 80t8 70q2 27 -4 52t-21 43.5t-39.5 29.5t-60.5 11h-127zM325 700q49 0 86.5 -16t62 -43t35.5 -63.5t8 -77.5q-2 -30 -8.5 -69t-15 -80.5t-19 -81
t-20.5 -69.5q-34 -97 -96.5 -148.5t-157.5 -51.5h-191q-8 0 -13 6t-3 14l141 660q2 8 9 14t15 6h167zM314 814q6 -7 14 0l82 65q5 5 14 10.5t20 5.5h45q10 0 11 -8t-5 -13l-141 -112q-6 -5 -12.5 -8.5t-19.5 -3.5h-22q-14 0 -18.5 4t-8.5 8l-95 112q-4 4 1 12.5t15 8.5h40
q11 0 17.5 -5.5t10.5 -10.5z" />
    <glyph glyph-name="dcaron" unicode="&#x10f;" 
d="M199 49q33 0 58.5 13t44 32.5t30.5 42.5t18 43q9 31 17 70t12 70q2 20 0 43t-12 42.5t-30 32.5t-53 13q-36 0 -63.5 -13t-47 -32.5t-32 -42.5t-19.5 -43q-10 -31 -18 -70t-11 -70q-2 -20 0.5 -43t14 -42.5t33 -32.5t58.5 -13zM303 23q-11 0 -20 -5t-20.5 -11.5
t-27.5 -11.5t-40 -5q-43 0 -75.5 15t-54 40.5t-30 60.5t-3.5 74q4 30 12.5 70t16.5 70q12 39 32 74t48.5 60.5t64 40.5t78.5 15q21 0 37.5 -5.5t30 -11.5t24 -11.5t19.5 -5.5q19 0 24 23l40 188q2 8 9.5 14t15.5 6h19q8 0 12.5 -6t2.5 -14l-141 -667q-2 -8 -9.5 -14
t-15.5 -6h-16q-9 0 -12 7q-3 5 -7.5 10.5t-13.5 5.5zM554 595q-8 0 -13 6t-3 14l14 65q2 8 9 14t15 6h60q8 0 13 -6t3 -14l-15 -70q-5 -21 -12 -31.5t-15 -19.5l-32 -36q-5 -5 -12 -11.5t-21 -6.5h-10q-9 0 -13 7.5t3 16.5l39 51q4 5 2.5 10t-7.5 5h-5z" />
    <glyph glyph-name="Dcroat" unicode="&#x110;" 
d="M69 74q-2 -10 8 -10h123q46 0 78 13t53.5 33t34.5 44t21 46q11 31 21.5 70t19 80t14.5 80t8 70q2 27 -4 52t-21 43.5t-39.5 29.5t-60.5 11h-127q-10 0 -12 -10l-48 -227q-2 -10 8 -10h100q8 0 13 -6t3 -14l-5 -23q-2 -8 -9 -14t-15 -6h-100q-10 0 -12 -10zM57 316
q2 10 -8 10h-32q-8 0 -13 6t-3 14l5 23q2 8 9 14t15 6h32q10 0 12 10l60 281q2 8 9 14t15 6h167q49 0 86.5 -16t62 -43t35.5 -63.5t8 -77.5q-2 -30 -8.5 -69t-15 -80.5t-19 -81t-20.5 -69.5q-34 -97 -96.5 -148.5t-157.5 -51.5h-191q-8 0 -13 6t-3 14z" />
    <glyph glyph-name="dcroat" unicode="&#x111;" 
d="M199 49q33 0 58.5 13t44 32.5t30.5 42.5t18 43q9 31 17 70t12 70q2 20 0 43t-12 42.5t-30 32.5t-53 13q-36 0 -63.5 -13t-47 -32.5t-32 -42.5t-19.5 -43q-10 -31 -18 -70t-11 -70q-2 -20 0.5 -43t14 -42.5t33 -32.5t58.5 -13zM433 567q2 10 -8 10h-70q-8 0 -13 6t-3 14
l2 10q2 8 9.5 14t15.5 6h70q10 0 12 10l11 50q2 8 9.5 14t15.5 6h19q8 0 12.5 -6t2.5 -14l-11 -50q-2 -10 8 -10h25q8 0 12.5 -6t2.5 -14l-2 -10q-2 -8 -9 -14t-15 -6h-25q-10 0 -12 -10l-115 -547q-2 -8 -9.5 -14t-15.5 -6h-16q-9 0 -12 7q-3 5 -7.5 10.5t-13.5 5.5
q-11 0 -20 -5t-20.5 -11.5t-27.5 -11.5t-40 -5q-43 0 -75.5 15t-54 40.5t-30 60.5t-3.5 74q4 30 12.5 70t16.5 70q12 39 32 74t48.5 60.5t64 40.5t78.5 15q21 0 37.5 -5.5t30 -11.5t24 -11.5t19.5 -5.5q19 0 24 23z" />
    <glyph glyph-name="Emacron" unicode="&#x112;" 
d="M173 399q-2 -10 8 -10h268q8 0 13 -6t3 -14l-5 -23q-2 -8 -9.5 -14t-15.5 -6h-268q-9 0 -12 -10l-51 -242q-2 -10 8 -10h281q8 0 12.5 -6t2.5 -14l-5 -24q-2 -8 -9 -14t-15 -6h-335q-8 0 -13 6t-3 14l141 660q2 8 9 14t15 6h333q8 0 13 -6t3 -14l-5 -24q-2 -8 -9.5 -14
t-15.5 -6h-279q-10 0 -12 -10zM249 765q-8 0 -13 6t-3 14l5 20q2 8 9 14t15 6h242q8 0 13 -6t3 -14l-5 -20q-2 -8 -9 -14t-15 -6h-242z" />
    <glyph glyph-name="emacron" unicode="&#x113;" 
d="M102 216q-8 -35 -4.5 -65t19 -53t42.5 -36t66 -13q31 0 53.5 8t39.5 21.5t29 30t21 34.5q5 10 12 13.5t14 3.5h20q8 0 12.5 -4.5t0.5 -15.5q-11 -33 -31 -60.5t-47.5 -47.5t-61.5 -31t-73 -11q-45 0 -80.5 15t-58.5 40.5t-33.5 60.5t-4.5 74q4 30 12.5 70t16.5 70
q12 39 33 74t50.5 60.5t67.5 40.5t83 15q58 0 94.5 -19t55.5 -50t22 -70.5t-6 -80.5l-10 -44q-2 -8 -9.5 -14t-15.5 -6h-317q-10 0 -12 -10zM120 292q-2 -10 8 -10h270q10 0 12 10q17 77 -11.5 118t-103.5 41q-67 0 -112.5 -41t-62.5 -118zM208 634q-8 0 -13 6t-3 14l5 20
q2 8 9 14t15 6h242q8 0 13 -6t3 -14l-5 -20q-2 -8 -9 -14t-15 -6h-242z" />
    <glyph glyph-name="Ebreve" unicode="&#x114;" 
d="M173 399q-2 -10 8 -10h268q8 0 13 -6t3 -14l-5 -23q-2 -8 -9.5 -14t-15.5 -6h-268q-9 0 -12 -10l-51 -242q-2 -10 8 -10h281q8 0 12.5 -6t2.5 -14l-5 -24q-2 -8 -9 -14t-15 -6h-335q-8 0 -13 6t-3 14l141 660q2 8 9 14t15 6h333q8 0 13 -6t3 -14l-5 -24q-2 -8 -9.5 -14
t-15.5 -6h-279q-10 0 -12 -10zM461 878q2 7 7.5 12t13.5 5h23q7 0 11 -5t2 -12q-6 -27 -19.5 -50t-34 -40.5t-46.5 -27.5t-56 -10t-54.5 10t-41 27.5t-23 40.5t-0.5 50q2 7 8 12t13 5h23q8 0 11.5 -5t1.5 -12q-7 -35 11.5 -55.5t53.5 -20.5t62 20.5t34 55.5z" />
    <glyph glyph-name="ebreve" unicode="&#x115;" 
d="M102 216q-8 -35 -4.5 -65t19 -53t42.5 -36t66 -13q31 0 53.5 8t39.5 21.5t29 30t21 34.5q5 10 12 13.5t14 3.5h20q8 0 12.5 -4.5t0.5 -15.5q-11 -33 -31 -60.5t-47.5 -47.5t-61.5 -31t-73 -11q-45 0 -80.5 15t-58.5 40.5t-33.5 60.5t-4.5 74q4 30 12.5 70t16.5 70
q12 39 33 74t50.5 60.5t67.5 40.5t83 15q58 0 94.5 -19t55.5 -50t22 -70.5t-6 -80.5l-10 -44q-2 -8 -9.5 -14t-15.5 -6h-317q-10 0 -12 -10zM120 292q-2 -10 8 -10h270q10 0 12 10q17 77 -11.5 118t-103.5 41q-67 0 -112.5 -41t-62.5 -118zM422 713q2 7 7.5 12t13.5 5h23
q7 0 11 -5t2 -12q-6 -27 -19.5 -50t-34 -40.5t-46.5 -27.5t-56 -10t-54.5 10t-41 27.5t-23 40.5t-0.5 50q2 7 8 12t13 5h23q8 0 11.5 -5t1.5 -12q-7 -35 11.5 -55.5t53.5 -20.5t62 20.5t34 55.5z" />
    <glyph glyph-name="Edotaccent" unicode="&#x116;" 
d="M173 399q-2 -10 8 -10h268q8 0 13 -6t3 -14l-5 -23q-2 -8 -9.5 -14t-15.5 -6h-268q-9 0 -12 -10l-51 -242q-2 -10 8 -10h281q8 0 12.5 -6t2.5 -14l-5 -24q-2 -8 -9 -14t-15 -6h-335q-8 0 -13 6t-3 14l141 660q2 8 9 14t15 6h333q8 0 13 -6t3 -14l-5 -24q-2 -8 -9.5 -14
t-15.5 -6h-279q-10 0 -12 -10zM411 770q-4 -16 -19 -16h-58q-7 0 -11 4.5t-2 11.5l13 59q1 6 6.5 11t12.5 5h58q7 0 11 -5t2 -11z" />
    <glyph glyph-name="edotaccent" unicode="&#x117;" 
d="M102 216q-8 -35 -4.5 -65t19 -53t42.5 -36t66 -13q31 0 53.5 8t39.5 21.5t29 30t21 34.5q5 10 12 13.5t14 3.5h20q8 0 12.5 -4.5t0.5 -15.5q-11 -33 -31 -60.5t-47.5 -47.5t-61.5 -31t-73 -11q-45 0 -80.5 15t-58.5 40.5t-33.5 60.5t-4.5 74q4 30 12.5 70t16.5 70
q12 39 33 74t50.5 60.5t67.5 40.5t83 15q58 0 94.5 -19t55.5 -50t22 -70.5t-6 -80.5l-10 -44q-2 -8 -9.5 -14t-15.5 -6h-317q-10 0 -12 -10zM120 292q-2 -10 8 -10h270q10 0 12 10q17 77 -11.5 118t-103.5 41q-67 0 -112.5 -41t-62.5 -118zM373 632q-4 -16 -19 -16h-58
q-7 0 -11 4.5t-2 11.5l13 59q1 6 6.5 11t12.5 5h58q7 0 11 -5t2 -11z" />
    <glyph glyph-name="Eogonek" unicode="&#x118;" 
d="M378 0q-23 0 -45.5 -5.5t-40.5 -17.5t-29 -29.5t-11 -41.5q0 -32 24 -44t67 -12q8 0 12.5 -6t2.5 -14l-4 -20q-2 -8 -9 -14t-15 -6q-63 0 -102 29.5t-39 80.5q0 30 14.5 57.5t37.5 42.5h-198q-8 0 -13 6t-3 14l141 660q2 8 9 14t15 6h333q8 0 13 -6t3 -14l-5 -24
q-2 -8 -9.5 -14t-15.5 -6h-279q-10 0 -12 -10l-48 -227q-2 -10 8 -10h268q8 0 13 -6t3 -14l-5 -23q-2 -8 -9.5 -14t-15.5 -6h-268q-10 0 -12 -10l-51 -242q-2 -10 8 -10h281q8 0 12.5 -6t2.5 -14l-5 -24q-2 -8 -9 -14t-15 -6z" />
    <glyph glyph-name="eogonek" unicode="&#x119;" 
d="M103 216q-8 -35 -4.5 -65.5t19 -53t42.5 -35.5t66 -13q31 0 53.5 8t39 21.5t28.5 30t22 34.5q5 10 12 13.5t14 3.5h20q8 0 12.5 -4.5t0.5 -15.5q-11 -32 -29.5 -56t-39 -42t-41.5 -33t-37.5 -30.5t-27 -32.5t-10.5 -40q0 -32 24 -44t67 -12q8 0 12.5 -6t2.5 -14l-4 -20
q-2 -8 -9 -14t-15 -6q-63 0 -102 29.5t-39 80.5q0 28 12 50.5t31 39.5q-47 0 -84 14t-61.5 39.5t-35 60.5t-4.5 76q7 60 23.5 119t47 106t77 76t115.5 29q58 0 94.5 -19t55.5 -50t22 -70.5t-6 -80.5l-10 -44q-2 -8 -9.5 -14t-15.5 -6h-317q-10 0 -12 -10zM121 292
q-2 -10 8 -10h270q10 0 12 10q17 77 -11.5 118t-103.5 41q-67 0 -112.5 -41t-62.5 -118z" />
    <glyph glyph-name="Ecaron" unicode="&#x11a;" 
d="M173 399q-2 -10 8 -10h268q8 0 13 -6t3 -14l-5 -23q-2 -8 -9.5 -14t-15.5 -6h-268q-9 0 -12 -10l-51 -242q-2 -10 8 -10h281q8 0 12.5 -6t2.5 -14l-5 -24q-2 -8 -9 -14t-15 -6h-335q-8 0 -13 6t-3 14l141 660q2 8 9 14t15 6h333q8 0 13 -6t3 -14l-5 -24q-2 -8 -9.5 -14
t-15.5 -6h-279q-10 0 -12 -10zM354 814q6 -7 14 0l82 65q5 5 14 10.5t20 5.5h45q10 0 11 -8t-5 -13l-141 -112q-6 -5 -12.5 -8.5t-19.5 -3.5h-22q-14 0 -18.5 4t-8.5 8l-95 112q-4 4 1 12.5t15 8.5h40q11 0 17.5 -5.5t10.5 -10.5z" />
    <glyph glyph-name="ecaron" unicode="&#x11b;" 
d="M102 216q-8 -35 -4.5 -65t19 -53t42.5 -36t66 -13q31 0 53.5 8t39.5 21.5t29 30t21 34.5q5 10 12 13.5t14 3.5h20q8 0 12.5 -4.5t0.5 -15.5q-11 -33 -31 -60.5t-47.5 -47.5t-61.5 -31t-73 -11q-45 0 -80.5 15t-58.5 40.5t-33.5 60.5t-4.5 74q4 30 12.5 70t16.5 70
q12 39 33 74t50.5 60.5t67.5 40.5t83 15q58 0 94.5 -19t55.5 -50t22 -70.5t-6 -80.5l-10 -44q-2 -8 -9.5 -14t-15.5 -6h-317q-10 0 -12 -10zM120 292q-2 -10 8 -10h270q10 0 12 10q17 77 -11.5 118t-103.5 41q-67 0 -112.5 -41t-62.5 -118zM311 649q6 -7 14 0l82 65
q5 5 14 10.5t20 5.5h45q10 0 11 -8t-5 -13l-141 -112q-6 -5 -12.5 -8.5t-19.5 -3.5h-22q-14 0 -18.5 4t-8.5 8l-95 112q-4 4 1 12.5t15 8.5h40q11 0 17.5 -5.5t10.5 -10.5z" />
    <glyph glyph-name="Gcircumflex" unicode="&#x11c;" 
d="M422 308q2 10 -8 10h-119q-8 0 -13 6t-3 14l5 24q2 8 9 14t15 6h174q8 0 13 -6t3 -14l-33 -158q-22 -103 -86.5 -157.5t-166.5 -54.5q-45 0 -82 14.5t-62.5 41.5t-38.5 65.5t-9 86.5q2 30 8.5 69.5t15 81t18.5 80.5t21 69q15 41 37 78.5t53 66.5t71.5 46t92.5 17
t90.5 -17.5t63 -46.5t33.5 -67.5t2 -80.5q-2 -8 -9.5 -14t-15.5 -6h-25q-8 0 -12.5 6t-2.5 14q5 28 0.5 55t-19.5 47.5t-41 33t-64 12.5q-40 0 -70.5 -12t-53 -32.5t-38 -46.5t-25.5 -53q-11 -31 -21.5 -70t-19 -80t-14.5 -80t-8 -70q-2 -22 2.5 -47t18 -46.5t38.5 -36
t66 -14.5q49 0 82.5 14t54.5 35.5t32 48t17 50.5zM300 766q-5 -5 -14 -10.5t-20 -5.5h-47q-10 0 -11 8t5 13l141 112q6 5 12.5 8.5t20.5 3.5h21q14 0 18.5 -4t8.5 -8l95 -112q4 -4 -1 -12.5t-15 -8.5h-39q-11 0 -17.5 5.5t-10.5 10.5l-53 65q-6 7 -14 0z" />
    <glyph glyph-name="gcircumflex" unicode="&#x11d;" 
d="M328 -6q2 7 -2.5 14t-15.5 7q-8 0 -16.5 -4t-20 -8.5t-25.5 -8.5t-33 -4q-46 0 -80 15t-55 40.5t-29.5 60.5t-2.5 74q4 30 12.5 70t16.5 70q12 39 29.5 74t44 60.5t63 40.5t86.5 15q28 0 45.5 -5t29.5 -11.5t21 -11.5t20 -5q9 0 15.5 5.5t11.5 10.5q9 7 16 7h16
q8 0 12.5 -6t2.5 -14l-108 -510q-19 -90 -73.5 -135t-129.5 -45q-35 0 -64.5 10t-51 28t-33.5 43.5t-12 55.5q0 23 23 23h14q16 0 18 -6t4 -14q5 -32 29.5 -56.5t72.5 -24.5q60 0 96 32t48 89zM215 49q33 0 58.5 13t44 32.5t30.5 42.5t18 43q9 31 17 70t12 70q2 20 0 43
t-12 42.5t-30 32.5t-53 13q-41 0 -69 -13t-46.5 -32.5t-29 -42.5t-17.5 -43q-10 -31 -18 -70t-11 -70q-2 -20 0.5 -43t14 -42.5t33.5 -32.5t58 -13zM265 601q-5 -5 -14 -10.5t-20 -5.5h-47q-10 0 -11 8t5 13l141 112q6 5 12.5 8.5t20.5 3.5h21q14 0 18.5 -4t8.5 -8l95 -112
q4 -4 -1 -12.5t-15 -8.5h-39q-11 0 -17.5 5.5t-10.5 10.5l-53 65q-6 7 -14 0z" />
    <glyph glyph-name="Gbreve" unicode="&#x11e;" 
d="M422 308q2 10 -8 10h-119q-8 0 -13 6t-3 14l5 24q2 8 9 14t15 6h174q8 0 13 -6t3 -14l-33 -158q-22 -103 -86.5 -157.5t-166.5 -54.5q-45 0 -82 14.5t-62.5 41.5t-38.5 65.5t-9 86.5q2 30 8.5 69.5t15 81t18.5 80.5t21 69q15 41 37 78.5t53 66.5t71.5 46t92.5 17
t90.5 -17.5t63 -46.5t33.5 -67.5t2 -80.5q-2 -8 -9.5 -14t-15.5 -6h-25q-8 0 -12.5 6t-2.5 14q5 28 0.5 55t-19.5 47.5t-41 33t-64 12.5q-40 0 -70.5 -12t-53 -32.5t-38 -46.5t-25.5 -53q-11 -31 -21.5 -70t-19 -80t-14.5 -80t-8 -70q-2 -22 2.5 -47t18 -46.5t38.5 -36
t66 -14.5q49 0 82.5 14t54.5 35.5t32 48t17 50.5zM461 878q2 7 7.5 12t13.5 5h23q7 0 11 -5t2 -12q-6 -27 -19.5 -50t-34 -40.5t-46.5 -27.5t-56 -10t-54.5 10t-41 27.5t-23 40.5t-0.5 50q2 7 8 12t13 5h23q8 0 11.5 -5t1.5 -12q-7 -35 11.5 -55.5t53.5 -20.5t62 20.5
t34 55.5z" />
    <glyph glyph-name="gbreve" unicode="&#x11f;" 
d="M328 -6q2 7 -2.5 14t-15.5 7q-8 0 -16.5 -4t-20 -8.5t-25.5 -8.5t-33 -4q-46 0 -80 15t-55 40.5t-29.5 60.5t-2.5 74q4 30 12.5 70t16.5 70q12 39 29.5 74t44 60.5t63 40.5t86.5 15q28 0 45.5 -5t29.5 -11.5t21 -11.5t20 -5q9 0 15.5 5.5t11.5 10.5q9 7 16 7h16
q8 0 12.5 -6t2.5 -14l-108 -510q-19 -90 -73.5 -135t-129.5 -45q-35 0 -64.5 10t-51 28t-33.5 43.5t-12 55.5q0 23 23 23h14q16 0 18 -6t4 -14q5 -32 29.5 -56.5t72.5 -24.5q60 0 96 32t48 89zM215 49q33 0 58.5 13t44 32.5t30.5 42.5t18 43q9 31 17 70t12 70q2 20 0 43
t-12 42.5t-30 32.5t-53 13q-41 0 -69 -13t-46.5 -32.5t-29 -42.5t-17.5 -43q-10 -31 -18 -70t-11 -70q-2 -20 0.5 -43t14 -42.5t33.5 -32.5t58 -13zM422 713q2 7 7.5 12t13.5 5h23q7 0 11 -5t2 -12q-6 -27 -19.5 -50t-34 -40.5t-46.5 -27.5t-56 -10t-54.5 10t-41 27.5
t-23 40.5t-0.5 50q2 7 8 12t13 5h23q8 0 11.5 -5t1.5 -12q-7 -35 11.5 -55.5t53.5 -20.5t62 20.5t34 55.5z" />
    <glyph glyph-name="Gdotaccent" unicode="&#x120;" 
d="M422 308q2 10 -8 10h-119q-8 0 -13 6t-3 14l5 24q2 8 9 14t15 6h174q8 0 13 -6t3 -14l-33 -158q-22 -103 -86.5 -157.5t-166.5 -54.5q-45 0 -82 14.5t-62.5 41.5t-38.5 65.5t-9 86.5q2 30 8.5 69.5t15 81t18.5 80.5t21 69q15 41 37 78.5t53 66.5t71.5 46t92.5 17
t90.5 -17.5t63 -46.5t33.5 -67.5t2 -80.5q-2 -8 -9.5 -14t-15.5 -6h-25q-8 0 -12.5 6t-2.5 14q5 28 0.5 55t-19.5 47.5t-41 33t-64 12.5q-40 0 -70.5 -12t-53 -32.5t-38 -46.5t-25.5 -53q-11 -31 -21.5 -70t-19 -80t-14.5 -80t-8 -70q-2 -22 2.5 -47t18 -46.5t38.5 -36
t66 -14.5q49 0 82.5 14t54.5 35.5t32 48t17 50.5zM411 770q-4 -16 -19 -16h-58q-7 0 -11 4.5t-2 11.5l13 59q1 6 6.5 11t12.5 5h58q7 0 11 -5t2 -11z" />
    <glyph glyph-name="gdotaccent" unicode="&#x121;" 
d="M328 -6q2 7 -2.5 14t-15.5 7q-8 0 -16.5 -4t-20 -8.5t-25.5 -8.5t-33 -4q-46 0 -80 15t-55 40.5t-29.5 60.5t-2.5 74q4 30 12.5 70t16.5 70q12 39 29.5 74t44 60.5t63 40.5t86.5 15q28 0 45.5 -5t29.5 -11.5t21 -11.5t20 -5q9 0 15.5 5.5t11.5 10.5q9 7 16 7h16
q8 0 12.5 -6t2.5 -14l-108 -510q-19 -90 -73.5 -135t-129.5 -45q-35 0 -64.5 10t-51 28t-33.5 43.5t-12 55.5q0 23 23 23h14q16 0 18 -6t4 -14q5 -32 29.5 -56.5t72.5 -24.5q60 0 96 32t48 89zM215 49q33 0 58.5 13t44 32.5t30.5 42.5t18 43q9 31 17 70t12 70q2 20 0 43
t-12 42.5t-30 32.5t-53 13q-41 0 -69 -13t-46.5 -32.5t-29 -42.5t-17.5 -43q-10 -31 -18 -70t-11 -70q-2 -20 0.5 -43t14 -42.5t33.5 -32.5t58 -13zM373 632q-4 -16 -19 -16h-58q-7 0 -11 4.5t-2 11.5l13 59q1 6 6.5 11t12.5 5h58q7 0 11 -5t2 -11z" />
    <glyph glyph-name="Gcommaaccent" unicode="&#x122;" 
d="M422 308q2 10 -8 10h-119q-8 0 -13 6t-3 14l5 24q2 8 9 14t15 6h174q8 0 13 -6t3 -14l-33 -158q-22 -103 -86.5 -157.5t-166.5 -54.5q-45 0 -82 14.5t-62.5 41.5t-38.5 65.5t-9 86.5q2 30 8.5 69.5t15 81t18.5 80.5t21 69q15 41 37 78.5t53 66.5t71.5 46t92.5 17
t90.5 -17.5t63 -46.5t33.5 -67.5t2 -80.5q-2 -8 -9.5 -14t-15.5 -6h-25q-8 0 -12.5 6t-2.5 14q5 28 0.5 55t-19.5 47.5t-41 33t-64 12.5q-40 0 -70.5 -12t-53 -32.5t-38 -46.5t-25.5 -53q-11 -31 -21.5 -70t-19 -80t-14.5 -80t-8 -70q-2 -22 2.5 -47t18 -46.5t38.5 -36
t66 -14.5q49 0 82.5 14t54.5 35.5t32 48t17 50.5zM154 -150q-8 0 -13 6t-3 14l14 65q2 8 9 14t15 6h60q8 0 13 -6t3 -14l-15 -70q-5 -21 -12 -31.5t-15 -19.5l-32 -36q-5 -5 -12 -11.5t-21 -6.5h-10q-9 0 -13 7.5t3 16.5l39 51q4 5 2.5 10t-7.5 5h-5z" />
    <glyph glyph-name="gcommaaccent" unicode="&#x123;" 
d="M328 -6q2 7 -2.5 14t-15.5 7q-8 0 -16.5 -4t-20 -8.5t-25.5 -8.5t-33 -4q-46 0 -80 15t-55 40.5t-29.5 60.5t-2.5 74q4 30 12.5 70t16.5 70q12 39 29.5 74t44 60.5t63 40.5t86.5 15q28 0 45.5 -5t29.5 -11.5t21 -11.5t20 -5q9 0 15.5 5.5t11.5 10.5q9 7 16 7h16
q8 0 12.5 -6t2.5 -14l-108 -510q-19 -90 -73.5 -135t-129.5 -45q-35 0 -64.5 10t-51 28t-33.5 43.5t-12 55.5q0 23 23 23h14q16 0 18 -6t4 -14q5 -32 29.5 -56.5t72.5 -24.5q60 0 96 32t48 89zM215 49q33 0 58.5 13t44 32.5t30.5 42.5t18 43q9 31 17 70t12 70q2 20 0 43
t-12 42.5t-30 32.5t-53 13q-41 0 -69 -13t-46.5 -32.5t-29 -42.5t-17.5 -43q-10 -31 -18 -70t-11 -70q-2 -20 0.5 -43t14 -42.5t33.5 -32.5t58 -13zM371 690q8 0 13 -6t3 -14l-14 -65q-2 -8 -9 -14t-15 -6h-60q-8 0 -13 6t-3 14l15 70q5 21 12 31.5t15 19.5l32 36
q5 5 12 11.5t21 6.5h10q9 0 13 -7.5t-3 -16.5l-39 -51q-4 -5 -2.5 -10t7.5 -5h5z" />
    <glyph glyph-name="Hcircumflex" unicode="&#x124;" 
d="M145 400q-2 -10 8 -10h262q10 0 12 10l60 280q2 8 9 14t15 6h24q8 0 13 -6t3 -14l-141 -660q-2 -8 -9 -14t-15 -6h-24q-8 0 -13 6t-3 14l63 296q3 10 -8 10h-262q-9 0 -12 -10l-63 -296q-2 -8 -9 -14t-15 -6h-24q-8 0 -13 6t-3 14l141 660q2 8 9 14t15 6h24q8 0 13 -6
t3 -14zM300 766q-5 -5 -14 -10.5t-20 -5.5h-47q-10 0 -11 8t5 13l141 112q6 5 12.5 8.5t20.5 3.5h21q14 0 18.5 -4t8.5 -8l95 -112q4 -4 -1 -12.5t-15 -8.5h-39q-11 0 -17.5 5.5t-10.5 10.5l-53 65q-6 7 -14 0z" />
    <glyph glyph-name="hcircumflex" unicode="&#x125;" 
d="M74 0q-8 0 -12.5 6t-2.5 14l141 667q2 8 9.5 14t15.5 6h19q8 0 12.5 -6t2.5 -14l-38 -181q-2 -7 2 -14t15 -7q7 0 16 4t20.5 8.5t27.5 8.5t37 4q37 0 68 -13t51.5 -36.5t29 -55.5t0.5 -69l-67 -316q-2 -8 -9.5 -14t-15.5 -6h-19q-8 0 -12.5 6t-2.5 14l67 316
q11 51 -16.5 83t-81.5 32q-27 0 -51 -8.5t-43.5 -23.5t-32.5 -35t-18 -43l-68 -321q-2 -8 -9.5 -14t-15.5 -6h-19zM300 766q-5 -5 -14 -10.5t-20 -5.5h-47q-10 0 -11 8t5 13l141 112q6 5 12.5 8.5t20.5 3.5h21q14 0 18.5 -4t8.5 -8l95 -112q4 -4 -1 -12.5t-15 -8.5h-39
q-11 0 -17.5 5.5t-10.5 10.5l-53 65q-6 7 -14 0z" />
    <glyph glyph-name="Hbar" unicode="&#x126;" 
d="M184 585q-2 -10 8 -10h262q10 0 12 10l21 95q2 8 9 14t15 6h24q8 0 13 -6t3 -14l-141 -660q-2 -8 -9 -14t-15 -6h-24q-8 0 -13 6t-3 14l63 296q2 10 -8 10h-262q-10 0 -12 -10l-63 -296q-2 -8 -9 -14t-15 -6h-24q-8 0 -13 6t-3 14l141 660q2 8 9 14t15 6h24q8 0 13 -6
t3 -14zM145 400q-2 -10 8 -10h262q10 0 12 10l22 101q2 10 -8 10h-262q-10 0 -12 -10z" />
    <glyph glyph-name="hbar" unicode="&#x127;" 
d="M249 637q-2 -10 8 -10h70q8 0 13 -6t3 -14l-2 -10q-2 -8 -9.5 -14t-15.5 -6h-70q-10 0 -12 -10l-13 -61q-2 -7 2 -14t15 -7q7 0 16 4t20.5 8.5t27.5 8.5t37 4q37 0 68 -13t51.5 -36.5t29 -55.5t0.5 -69l-67 -316q-2 -8 -9.5 -14t-15.5 -6h-19q-8 0 -12.5 6t-2.5 14
l67 316q11 51 -16.5 83t-81.5 32q-27 0 -51 -8.5t-43.5 -23.5t-32.5 -35t-18 -43l-68 -321q-2 -8 -9.5 -14t-15.5 -6h-19q-8 0 -12.5 6t-2.5 14l116 547q2 10 -8 10h-35q-8 0 -12.5 6t-2.5 14l2 10q2 8 9 14t15 6h35q10 0 12 10l10 50q2 8 9.5 14t15.5 6h19q8 0 12.5 -6
t2.5 -14z" />
    <glyph glyph-name="Itilde" unicode="&#x128;" 
d="M311 630q2 10 -8 10h-125q-8 0 -13 6t-3 14l5 20q2 8 9 14t15 6h335q8 0 13 -6t3 -14l-5 -20q-2 -8 -9 -14t-15 -6h-125q-10 0 -12 -10l-119 -559q-2 -10 8 -10h135q8 0 13 -6t3 -14l-5 -21q-2 -8 -9 -14t-15 -6h-355q-8 0 -13 6t-3 14l5 21q2 8 9 14t15 6h135
q10 0 12 10zM456 832q19 0 30.5 6.5t19.5 14.5t16.5 4t5.5 -18l-5 -24q-4 -20 -27.5 -35.5t-53.5 -15.5q-24 0 -38.5 4t-27.5 8.5t-28.5 8.5t-40.5 4q-17 0 -28.5 -5.5t-22.5 -15.5q-8 -7 -16.5 -3.5t-5.5 17.5l5 24q4 20 28 35.5t54 15.5q24 0 38.5 -4t27.5 -8.5t28 -8.5
t41 -4z" />
    <glyph glyph-name="itilde" unicode="&#x129;" 
d="M380 676q19 0 30.5 6.5t19.5 14.5t16.5 4t5.5 -18l-5 -24q-4 -20 -27.5 -35.5t-53.5 -15.5q-24 0 -38.5 4t-27.5 8.5t-28.5 8.5t-40.5 4q-17 0 -28.5 -5.5t-22.5 -15.5q-8 -7 -16.5 -3.5t-5.5 17.5l5 24q4 20 28 35.5t54 15.5q24 0 38.5 -4t27.5 -8.5t28 -8.5t41 -4z
M159 440q-8 0 -13 6t-3 14l4 20q2 8 9.5 14t15.5 6h175q8 0 12.5 -6t2.5 -14l-87 -410q-2 -10 8 -10h131q8 0 13 -6t3 -14l-4 -20q-2 -8 -9.5 -14t-15.5 -6h-346q-8 0 -12.5 6t-2.5 14l4 20q2 8 9 14t15 6h135q10 0 12 10l77 360q2 10 -8 10h-125z" />
    <glyph glyph-name="Imacron" unicode="&#x12a;" 
d="M311 630q2 10 -8 10h-125q-8 0 -13 6t-3 14l5 20q2 8 9 14t15 6h335q8 0 13 -6t3 -14l-5 -20q-2 -8 -9 -14t-15 -6h-125q-10 0 -12 -10l-119 -559q-2 -10 8 -10h135q8 0 13 -6t3 -14l-5 -21q-2 -8 -9 -14t-15 -6h-355q-8 0 -13 6t-3 14l5 21q2 8 9 14t15 6h135
q10 0 12 10zM249 765q-8 0 -13 6t-3 14l5 20q2 8 9 14t15 6h242q8 0 13 -6t3 -14l-5 -20q-2 -8 -9 -14t-15 -6h-242z" />
    <glyph glyph-name="imacron" unicode="&#x12b;" 
d="M178 634q-8 0 -13 6t-3 14l5 20q2 8 9 14t15 6h242q8 0 13 -6t3 -14l-5 -20q-2 -8 -9 -14t-15 -6h-242zM159 440q-8 0 -13 6t-3 14l4 20q2 8 9.5 14t15.5 6h175q8 0 12.5 -6t2.5 -14l-87 -410q-2 -10 8 -10h131q8 0 13 -6t3 -14l-4 -20q-2 -8 -9.5 -14t-15.5 -6h-346
q-8 0 -12.5 6t-2.5 14l4 20q2 8 9 14t15 6h135q10 0 12 10l77 360q2 10 -8 10h-125z" />
    <glyph glyph-name="Ibreve" unicode="&#x12c;" 
d="M311 630q2 10 -8 10h-125q-8 0 -13 6t-3 14l5 20q2 8 9 14t15 6h335q8 0 13 -6t3 -14l-5 -20q-2 -8 -9 -14t-15 -6h-125q-10 0 -12 -10l-119 -559q-2 -10 8 -10h135q8 0 13 -6t3 -14l-5 -21q-2 -8 -9 -14t-15 -6h-355q-8 0 -13 6t-3 14l5 21q2 8 9 14t15 6h135
q10 0 12 10zM461 878q2 7 7.5 12t13.5 5h23q7 0 11 -5t2 -12q-6 -27 -19.5 -50t-34 -40.5t-46.5 -27.5t-56 -10t-54.5 10t-41 27.5t-23 40.5t-0.5 50q2 7 8 12t13 5h23q8 0 11.5 -5t1.5 -12q-7 -35 11.5 -55.5t53.5 -20.5t62 20.5t34 55.5z" />
    <glyph glyph-name="ibreve" unicode="&#x12d;" 
d="M402 713q2 7 7.5 12t13.5 5h23q7 0 11 -5t2 -12q-6 -27 -19.5 -50t-34 -40.5t-46.5 -27.5t-56 -10t-54.5 10t-41 27.5t-23 40.5t-0.5 50q2 7 8 12t13 5h23q8 0 11.5 -5t1.5 -12q-7 -35 11.5 -55.5t53.5 -20.5t62 20.5t34 55.5zM159 440q-8 0 -13 6t-3 14l4 20q2 8 9.5 14
t15.5 6h175q8 0 12.5 -6t2.5 -14l-87 -410q-2 -10 8 -10h131q8 0 13 -6t3 -14l-4 -20q-2 -8 -9.5 -14t-15.5 -6h-346q-8 0 -12.5 6t-2.5 14l4 20q2 8 9 14t15 6h135q10 0 12 10l77 360q2 10 -8 10h-125z" />
    <glyph glyph-name="Iogonek" unicode="&#x12e;" 
d="M131 -210q-36 0 -64.5 7.5t-47 23t-25.5 40t0 58.5l26 122q2 8 9 14t15 6h135q11 0 13 10l118 559q2 10 -8 10h-125q-8 0 -12.5 6t-2.5 14l4 20q2 8 9 14t15 6h335q8 0 13 -6t3 -14l-4 -20q-2 -8 -9.5 -14t-15.5 -6h-125q-10 0 -12 -10l-118 -559q-2 -10 7 -10h135
q8 0 13 -6t3 -14l-4 -21q-2 -8 -9.5 -14t-15.5 -6h-315l-16 -76q-8 -40 16.5 -57t72.5 -17h69q8 0 12.5 -6t2.5 -14l-4 -20q-2 -8 -9 -14t-15 -6h-69z" />
    <glyph glyph-name="iogonek" unicode="&#x12f;" 
d="M407 638q-4 -16 -19 -16h-52q-7 0 -11 4.5t-2 11.5l11 53q2 6 7.5 11t12.5 5h52q7 0 10.5 -5t1.5 -11zM80 -76q-9 -40 15.5 -57t72.5 -17h69q8 0 13 -6t3 -14l-5 -20q-2 -8 -9 -14t-15 -6h-69q-36 0 -64.5 7.5t-47 23t-25.5 40t0 58.5l26 121q2 8 9 14t15 6h135
q10 0 13 10l76 360q2 10 -8 10h-125q-8 0 -13 6t-3 14l5 20q2 8 9 14t15 6h175q8 0 13 -6t3 -14l-87 -410q-3 -10 7 -10h131q8 0 13 -6t3 -14l-4 -20q-2 -8 -9 -14t-15 -6h-306z" />
    <glyph glyph-name="Idotaccent" unicode="&#x130;" 
d="M311 630q2 10 -8 10h-125q-8 0 -13 6t-3 14l5 20q2 8 9 14t15 6h335q8 0 13 -6t3 -14l-5 -20q-2 -8 -9 -14t-15 -6h-125q-10 0 -12 -10l-119 -559q-2 -10 8 -10h135q8 0 13 -6t3 -14l-5 -21q-2 -8 -9 -14t-15 -6h-355q-8 0 -13 6t-3 14l5 21q2 8 9 14t15 6h135
q10 0 12 10zM417 770q-4 -16 -19 -16h-58q-7 0 -11 4.5t-2 11.5l13 59q1 6 6.5 11t12.5 5h58q7 0 11 -5t2 -11z" />
    <glyph glyph-name="dotlessi" unicode="&#x131;" 
d="M179 440q-8 0 -13 6t-3 14l4 20q2 8 9.5 14t15.5 6h175q8 0 12.5 -6t2.5 -14l-87 -410q-2 -10 8 -10h131q8 0 13 -6t3 -14l-4 -20q-2 -8 -9.5 -14t-15.5 -6h-346q-8 0 -12.5 6t-2.5 14l4 20q2 8 9 14t15 6h135q10 0 12 10l77 360q2 10 -8 10h-125z" />
    <glyph glyph-name="Jcircumflex" unicode="&#x134;" 
d="M100 192q-3 -27 3 -52t20.5 -43.5t37 -29.5t52.5 -11q73 0 109.5 40t50.5 104l101 480q2 8 9.5 14t15.5 6h24q8 0 12.5 -6t2.5 -14l-103 -488q-9 -45 -29 -81.5t-49 -63t-67 -41t-84 -14.5q-41 0 -75 15.5t-56.5 42.5t-33 63.5t-5.5 78.5l1 8q1 8 8.5 14t15.5 6h25
q8 0 12 -6t3 -14zM320 766q-5 -5 -14 -10.5t-20 -5.5h-47q-10 0 -11 8t5 13l141 112q6 5 12.5 8.5t20.5 3.5h21q14 0 18.5 -4t8.5 -8l95 -112q4 -4 -1 -12.5t-15 -8.5h-39q-11 0 -17.5 5.5t-10.5 10.5l-53 65q-6 7 -14 0z" />
    <glyph glyph-name="jcircumflex" unicode="&#x135;" 
d="M313 -35q-20 -91 -64.5 -133t-117.5 -42q-33 0 -61 12.5t-47 34.5t-27.5 51t-1.5 62q2 8 9 14t16 6h21q8 0 13 -6t3 -14q-4 -19 -0.5 -36.5t13.5 -31t26 -22t38 -8.5q53 0 81 31.5t39 82.5l98 464q2 10 -8 10h-149q-8 0 -13 6t-3 14l5 20q2 8 9 14t15 6h200q8 0 13 -6
t3 -14zM265 601q-5 -5 -14 -10.5t-20 -5.5h-47q-10 0 -11 8t5 13l141 112q6 5 12.5 8.5t20.5 3.5h21q14 0 18.5 -4t8.5 -8l95 -112q4 -4 -1 -12.5t-15 -8.5h-39q-11 0 -17.5 5.5t-10.5 10.5l-53 65q-6 7 -14 0z" />
    <glyph glyph-name="Kcommaaccent" unicode="&#x136;" 
d="M491 691q5 4 11 6.5t17 2.5h20q16 0 19.5 -12.5t-6.5 -21.5l-328 -289q-14 -12 -6 -24l215 -316q8 -12 2 -24.5t-23 -12.5h-19q-11 0 -16 5t-7 8l-204 300q-2 2 -5 2t-4 -4l-63 -291q-2 -8 -9 -14t-15 -6h-24q-8 0 -13 6t-3 14l141 660q2 8 9 14t15 6h24q8 0 13 -6t3 -14
l-52 -250q-1 -4 2 -4t5 2zM154 -150q-8 0 -13 6t-3 14l14 65q2 8 9 14t15 6h60q8 0 13 -6t3 -14l-15 -70q-5 -21 -12 -31.5t-15 -19.5l-32 -36q-5 -5 -12 -11.5t-21 -6.5h-10q-9 0 -13 7.5t3 16.5l39 51q4 5 2.5 10t-7.5 5h-5z" />
    <glyph glyph-name="kcommaaccent" unicode="&#x137;" 
d="M168 220q-2 2 -5 2t-4 -4l-41 -198q-2 -8 -9.5 -14t-15.5 -6h-19q-8 0 -12.5 6t-2.5 14l141 667q2 8 9.5 14t15.5 6h19q8 0 12.5 -6t2.5 -14l-77 -364q-1 -4 1.5 -4.5t5.5 2.5l229 166q5 4 12.5 8.5t18.5 4.5h24q14 0 18 -11.5t-7 -19.5l-258 -191q-14 -11 -5 -24
l183 -221q8 -10 3.5 -21.5t-22.5 -11.5h-22q-11 0 -17.5 5.5t-8.5 9.5zM161 -150q-8 0 -13 6t-3 14l14 65q2 8 9 14t15 6h60q8 0 13 -6t3 -14l-15 -70q-5 -21 -12 -31.5t-15 -19.5l-32 -36q-5 -5 -12 -11.5t-21 -6.5h-10q-9 0 -13 7.5t3 16.5l39 51q4 5 2.5 10t-7.5 5h-5z
" />
    <glyph glyph-name="kgreenlandic" unicode="&#x138;" 
d="M178 220q-2 2 -5 2t-4 -4l-41 -198q-2 -8 -9.5 -14t-15.5 -6h-19q-8 0 -12.5 6t-2.5 14l97 460q2 8 9.5 14t15.5 6h19q8 0 12.5 -6t2.5 -14l-33 -157q-1 -4 1.5 -4.5t5.5 2.5l229 166q5 4 12.5 8.5t18.5 4.5h24q14 0 18 -11.5t-7 -19.5l-258 -191q-14 -11 -5 -24
l183 -221q8 -10 3.5 -21.5t-22.5 -11.5h-22q-11 0 -17.5 5.5t-8.5 9.5z" />
    <glyph glyph-name="Lacute" unicode="&#x139;" 
d="M158 74q-2 -10 8 -10h275q8 0 12.5 -6t2.5 -14l-5 -24q-2 -8 -9 -14t-15 -6h-329q-8 0 -13 6t-3 14l141 660q2 8 9 14t15 6h24q8 0 13 -6t3 -14zM433 895q10 0 11 -8t-5 -13l-131 -112q-6 -5 -12.5 -8.5t-20.5 -3.5h-19q-10 0 -12.5 7.5t2.5 12.5l100 109q5 5 11.5 10.5
t17.5 5.5h58z" />
    <glyph glyph-name="lacute" unicode="&#x13a;" 
d="M207 647q-8 0 -13 6t-3 14l4 20q2 8 9.5 14t15.5 6h171q8 0 12.5 -6t2.5 -14l-131 -617q-2 -10 8 -10h127q8 0 13 -6t3 -14l-4 -20q-2 -8 -9.5 -14t-15.5 -6h-348q-8 0 -12.5 6t-2.5 14l4 20q2 8 9 14t15 6h139q5 0 9 2.5t5 7.5l121 567q2 10 -8 10h-121zM503 895
q10 0 11 -8t-5 -13l-131 -112q-6 -5 -12.5 -8.5t-20.5 -3.5h-19q-10 0 -12.5 7.5t2.5 12.5l100 109q5 5 11.5 10.5t17.5 5.5h58z" />
    <glyph glyph-name="Lcommaaccent" unicode="&#x13b;" 
d="M158 74q-2 -10 8 -10h275q8 0 12.5 -6t2.5 -14l-5 -24q-2 -8 -9 -14t-15 -6h-329q-8 0 -13 6t-3 14l141 660q2 8 9 14t15 6h24q8 0 13 -6t3 -14zM214 -150q-8 0 -13 6t-3 14l14 65q2 8 9 14t15 6h60q8 0 13 -6t3 -14l-15 -70q-5 -21 -12 -31.5t-15 -19.5l-32 -36
q-5 -5 -12 -11.5t-21 -6.5h-10q-9 0 -13 7.5t3 16.5l39 51q4 5 2.5 10t-7.5 5h-5z" />
    <glyph glyph-name="lcommaaccent" unicode="&#x13c;" 
d="M207 647q-8 0 -13 6t-3 14l4 20q2 8 9.5 14t15.5 6h171q8 0 12.5 -6t2.5 -14l-131 -617q-2 -10 8 -10h127q8 0 13 -6t3 -14l-4 -20q-2 -8 -9.5 -14t-15.5 -6h-348q-8 0 -12.5 6t-2.5 14l4 20q2 8 9 14t15 6h139q5 0 9 2.5t5 7.5l121 567q2 10 -8 10h-121zM174 -150
q-8 0 -13 6t-3 14l14 65q2 8 9 14t15 6h60q8 0 13 -6t3 -14l-15 -70q-5 -21 -12 -31.5t-15 -19.5l-32 -36q-5 -5 -12 -11.5t-21 -6.5h-10q-9 0 -13 7.5t3 16.5l39 51q4 5 2.5 10t-7.5 5h-5z" />
    <glyph glyph-name="Lcaron" unicode="&#x13d;" 
d="M158 74q-2 -10 8 -10h275q8 0 12.5 -6t2.5 -14l-5 -24q-2 -8 -9 -14t-15 -6h-329q-8 0 -13 6t-3 14l141 660q2 8 9 14t15 6h24q8 0 13 -6t3 -14zM397 595q-8 0 -13 6t-3 14l14 65q2 8 9 14t15 6h60q8 0 13 -6t3 -14l-15 -70q-5 -21 -12 -31.5t-15 -19.5l-32 -36
q-5 -5 -12 -11.5t-21 -6.5h-10q-9 0 -13 7.5t3 16.5l39 51q4 5 2.5 10t-7.5 5h-5z" />
    <glyph glyph-name="lcaron" unicode="&#x13e;" 
d="M207 647q-8 0 -13 6t-3 14l4 20q2 8 9.5 14t15.5 6h171q8 0 12.5 -6t2.5 -14l-131 -617q-2 -10 8 -10h127q8 0 13 -6t3 -14l-4 -20q-2 -8 -9.5 -14t-15.5 -6h-348q-8 0 -12.5 6t-2.5 14l4 20q2 8 9 14t15 6h139q5 0 9 2.5t5 7.5l121 567q2 10 -8 10h-121zM464 595
q-8 0 -13 6t-3 14l14 65q2 8 9 14t15 6h60q8 0 13 -6t3 -14l-15 -70q-5 -21 -12 -31.5t-15 -19.5l-32 -36q-5 -5 -12 -11.5t-21 -6.5h-10q-9 0 -13 7.5t3 16.5l39 51q4 5 2.5 10t-7.5 5h-5z" />
    <glyph glyph-name="Ldot" unicode="&#x13f;" 
d="M158 74q-2 -10 8 -10h275q8 0 12.5 -6t2.5 -14l-5 -24q-2 -8 -9 -14t-15 -6h-329q-8 0 -13 6t-3 14l141 660q2 8 9 14t15 6h24q8 0 13 -6t3 -14zM408 272q-4 -16 -19 -16h-58q-7 0 -11 4.5t-2 11.5l13 59q1 6 6.5 11t12.5 5h58q7 0 11 -5t2 -11z" />
    <glyph glyph-name="ldot" unicode="&#x140;" 
d="M207 647q-8 0 -13 6t-3 14l4 20q2 8 9.5 14t15.5 6h171q8 0 12.5 -6t2.5 -14l-131 -617q-2 -10 8 -10h127q8 0 13 -6t3 -14l-4 -20q-2 -8 -9.5 -14t-15.5 -6h-348q-8 0 -12.5 6t-2.5 14l4 20q2 8 9 14t15 6h139q5 0 9 2.5t5 7.5l121 567q2 10 -8 10h-121zM478 272
q-4 -16 -19 -16h-58q-7 0 -11 4.5t-2 11.5l13 59q1 6 6.5 11t12.5 5h58q7 0 11 -5t2 -11z" />
    <glyph glyph-name="Lslash" unicode="&#x141;" 
d="M160 74q-2 -10 8 -10h275q8 0 12.5 -6t2.5 -14l-5 -24q-2 -8 -9 -14t-15 -6h-329q-8 0 -13 6t-3 14l48 223q1 5 -2.5 6t-5.5 -1l-38 -23q-8 -5 -17 -1t-7 15l4 17q2 8 4.5 14t14.5 14l54 33q4 2 7 5.5t4 8.5l75 349q2 8 9 14t15 6h24q8 0 13 -6t3 -14l-63 -295
q-1 -3 1.5 -4.5t6.5 0.5l158 97q8 5 16 0.5t6 -14.5l-5 -21q-2 -10 -10 -17.5t-16 -12.5l-167 -103q-6 -4 -8 -10z" />
    <glyph glyph-name="lslash" unicode="&#x142;" 
d="M335 637q2 10 -8 10h-121q-8 0 -13 6t-3 14l4 20q2 8 9.5 14t15.5 6h171q8 0 12.5 -6t2.5 -14l-64 -304q-1 -3 1.5 -4.5t6.5 0.5l62 36q8 5 16 0.5t6 -14.5l-5 -21q-2 -10 -10 -17.5t-16 -12.5l-71 -42q-8 -5 -8 -10l-49 -228q-2 -10 8 -10h127q8 0 13 -6t3 -14l-4 -20
q-2 -8 -9.5 -14t-15.5 -6h-348q-8 0 -12 6t-2 14l4 20q2 8 8.5 14t14.5 6h140q11 0 13 10l39 181q1 5 -2.5 6t-5.5 -1l-41 -23q-9 -5 -18 -1t-7 15l3 17q2 8 5 14t16 14l57 33q4 2 7 5.5t4 8.5z" />
    <glyph glyph-name="Nacute" unicode="&#x143;" 
d="M354 103q1 -3 4.5 -2.5t4.5 4.5l122 575q2 8 6 14t12 6h26q8 0 13 -6t3 -14l-141 -660q-2 -8 -9 -14t-15 -6h-52q-8 0 -11.5 3.5t-5.5 13.5l-115 582q-1 3 -4.5 2.5t-4.5 -4.5l-123 -577q-2 -8 -9 -14t-15 -6h-20q-8 0 -13 6t-3 14l141 660q2 8 9 14t15 6h52
q8 0 11.5 -3.5t5.5 -13.5zM493 895q10 0 11 -8t-5 -13l-131 -112q-6 -5 -12.5 -8.5t-20.5 -3.5h-19q-10 0 -12.5 7.5t2.5 12.5l100 109q5 5 11.5 10.5t17.5 5.5h58z" />
    <glyph glyph-name="nacute" unicode="&#x144;" 
d="M204 477q11 0 20.5 5t21.5 11.5t28.5 11.5t40.5 5q39 0 72 -11t55 -33t30.5 -54.5t-0.5 -75.5l-67 -316q-2 -8 -9.5 -14t-15.5 -6h-19q-8 0 -12.5 6t-2.5 14l67 316q7 31 1.5 53t-19.5 36t-36 20t-49 6q-54 0 -95.5 -25t-54.5 -85l-68 -321q-2 -8 -9.5 -14t-15.5 -6h-19
q-8 0 -12.5 6t-2.5 14l97 460q2 8 9.5 14t15.5 6h16q7 0 12 -7q4 -5 8 -10.5t13 -5.5zM474 730q10 0 11 -8t-5 -13l-131 -112q-6 -5 -12.5 -8.5t-20.5 -3.5h-19q-10 0 -12.5 7.5t2.5 12.5l100 109q5 5 11.5 10.5t17.5 5.5h58z" />
    <glyph glyph-name="Ncommaaccent" unicode="&#x145;" 
d="M354 103q1 -3 4.5 -2.5t4.5 4.5l122 575q2 8 6 14t12 6h26q8 0 13 -6t3 -14l-141 -660q-2 -8 -9 -14t-15 -6h-52q-8 0 -11.5 3.5t-5.5 13.5l-115 582q-1 3 -4.5 2.5t-4.5 -4.5l-123 -577q-2 -8 -9 -14t-15 -6h-20q-8 0 -13 6t-3 14l141 660q2 8 9 14t15 6h52
q8 0 11.5 -3.5t5.5 -13.5zM154 -150q-8 0 -13 6t-3 14l14 65q2 8 9 14t15 6h60q8 0 13 -6t3 -14l-15 -70q-5 -21 -12 -31.5t-15 -19.5l-32 -36q-5 -5 -12 -11.5t-21 -6.5h-10q-9 0 -13 7.5t3 16.5l39 51q4 5 2.5 10t-7.5 5h-5z" />
    <glyph glyph-name="ncommaaccent" unicode="&#x146;" 
d="M204 477q11 0 20.5 5t21.5 11.5t28.5 11.5t40.5 5q39 0 72 -11t55 -33t30.5 -54.5t-0.5 -75.5l-67 -316q-2 -8 -9.5 -14t-15.5 -6h-19q-8 0 -12.5 6t-2.5 14l67 316q7 31 1.5 53t-19.5 36t-36 20t-49 6q-54 0 -95.5 -25t-54.5 -85l-68 -321q-2 -8 -9.5 -14t-15.5 -6h-19
q-8 0 -12.5 6t-2.5 14l97 460q2 8 9.5 14t15.5 6h16q7 0 12 -7q4 -5 8 -10.5t13 -5.5zM154 -150q-8 0 -13 6t-3 14l14 65q2 8 9 14t15 6h60q8 0 13 -6t3 -14l-15 -70q-5 -21 -12 -31.5t-15 -19.5l-32 -36q-5 -5 -12 -11.5t-21 -6.5h-10q-9 0 -13 7.5t3 16.5l39 51
q4 5 2.5 10t-7.5 5h-5z" />
    <glyph glyph-name="Ncaron" unicode="&#x147;" 
d="M354 103q1 -3 4.5 -2.5t4.5 4.5l122 575q2 8 6 14t12 6h26q8 0 13 -6t3 -14l-141 -660q-2 -8 -9 -14t-15 -6h-52q-8 0 -11.5 3.5t-5.5 13.5l-115 582q-1 3 -4.5 2.5t-4.5 -4.5l-123 -577q-2 -8 -9 -14t-15 -6h-20q-8 0 -13 6t-3 14l141 660q2 8 9 14t15 6h52
q8 0 11.5 -3.5t5.5 -13.5zM354 814q6 -7 14 0l82 65q5 5 14 10.5t20 5.5h45q10 0 11 -8t-5 -13l-141 -112q-6 -5 -12.5 -8.5t-19.5 -3.5h-22q-14 0 -18.5 4t-8.5 8l-95 112q-4 4 1 12.5t15 8.5h40q11 0 17.5 -5.5t10.5 -10.5z" />
    <glyph glyph-name="ncaron" unicode="&#x148;" 
d="M204 477q11 0 20.5 5t21.5 11.5t28.5 11.5t40.5 5q39 0 72 -11t55 -33t30.5 -54.5t-0.5 -75.5l-67 -316q-2 -8 -9.5 -14t-15.5 -6h-19q-8 0 -12.5 6t-2.5 14l67 316q7 31 1.5 53t-19.5 36t-36 20t-49 6q-54 0 -95.5 -25t-54.5 -85l-68 -321q-2 -8 -9.5 -14t-15.5 -6h-19
q-8 0 -12.5 6t-2.5 14l97 460q2 8 9.5 14t15.5 6h16q7 0 12 -7q4 -5 8 -10.5t13 -5.5zM331 649q6 -7 14 0l82 65q5 5 14 10.5t20 5.5h45q10 0 11 -8t-5 -13l-141 -112q-6 -5 -12.5 -8.5t-19.5 -3.5h-22q-14 0 -18.5 4t-8.5 8l-95 112q-4 4 1 12.5t15 8.5h40q11 0 17.5 -5.5
t10.5 -10.5z" />
    <glyph glyph-name="Eng" unicode="&#x14a;" 
d="M336 0l-140 599q-1 3 -4.5 2.5t-4.5 -4.5l-123 -577q-2 -8 -9 -14t-15 -6h-20q-8 0 -13 6t-3 14l141 660q2 8 9 14t15 6h52q8 0 11.5 -3.5t5.5 -13.5l126 -535q1 -3 4.5 -2.5t4.5 4.5l112 530q2 8 6 14t12 6h26q8 0 13 -6t3 -14l-150 -705q-20 -92 -68 -138.5t-141 -46.5
q-8 0 -13 6t-3 14l5 24q2 8 9 14t15 6q61 0 91 28t41 91z" />
    <glyph glyph-name="eng" unicode="&#x14b;" 
d="M413 336q7 31 1.5 53t-19.5 36t-36 20t-49 6q-54 0 -95.5 -25t-54.5 -85l-68 -321q-2 -8 -9.5 -14t-15.5 -6h-19q-8 0 -12.5 6t-2.5 14l97 460q2 8 9.5 14t15.5 6h16q7 0 12 -7q4 -5 8 -10.5t13 -5.5q11 0 20.5 5t21.5 11.5t28.5 11.5t40.5 5q39 0 72 -11t55 -33
t30.5 -54.5t-0.5 -75.5l-76 -361q-11 -54 -29.5 -89.5t-44 -56.5t-58 -30t-72.5 -9q-8 0 -13 6t-3 14l4 16q2 8 9 14t15 6q27 0 48 5.5t37 20t27.5 39t19.5 62.5z" />
    <glyph glyph-name="Omacron" unicode="&#x14c;" 
d="M337 644q-40 0 -70.5 -12t-53 -32.5t-38 -46.5t-25.5 -53q-11 -31 -21.5 -70t-19 -80t-14.5 -80t-8 -70q-2 -22 2.5 -47t18 -46.5t38.5 -36t66 -14.5q46 0 78 14.5t53.5 36t34.5 46.5t21 47q11 31 21.5 70t19 80t14.5 80t8 70q2 27 -4 53t-21 46.5t-39.5 32.5t-60.5 12z
M337 708q49 0 86.5 -17t62 -46t35.5 -66.5t8 -78.5q-2 -30 -8.5 -69t-15 -80.5t-19 -81t-20.5 -69.5q-34 -97 -96.5 -152.5t-157.5 -55.5q-45 0 -82 14.5t-62.5 41.5t-38.5 65.5t-9 86.5q2 30 8.5 69.5t15 81t18.5 80.5t21 69q15 41 37 78.5t53 66.5t71.5 46t92.5 17z
M249 765q-8 0 -13 6t-3 14l5 20q2 8 9 14t15 6h242q8 0 13 -6t3 -14l-5 -20q-2 -8 -9 -14t-15 -6h-242z" />
    <glyph glyph-name="omacron" unicode="&#x14d;" 
d="M307 510q45 0 80 -15t57.5 -40.5t32 -60.5t4.5 -74q-4 -30 -12.5 -70t-16.5 -70q-12 -39 -32.5 -74t-49.5 -60.5t-66 -40.5t-82 -15t-80 15t-57.5 40.5t-32.5 60.5t-4 74q4 30 12.5 70t16.5 70q12 39 32.5 74t49.5 60.5t66 40.5t82 15zM222 49q40 0 69 13t49 32.5
t32.5 42.5t18.5 43q9 31 17 70t12 70q2 20 -1 43t-15.5 42.5t-36 32.5t-60.5 13q-40 0 -69 -13t-49 -32.5t-32.5 -42.5t-18.5 -43q-9 -31 -17 -70t-12 -70q-2 -20 1 -43t15.5 -42.5t35.5 -32.5t61 -13zM228 634q-8 0 -13 6t-3 14l5 20q2 8 9 14t15 6h242q8 0 13 -6t3 -14
l-5 -20q-2 -8 -9 -14t-15 -6h-242z" />
    <glyph glyph-name="Obreve" unicode="&#x14e;" 
d="M337 644q-40 0 -70.5 -12t-53 -32.5t-38 -46.5t-25.5 -53q-11 -31 -21.5 -70t-19 -80t-14.5 -80t-8 -70q-2 -22 2.5 -47t18 -46.5t38.5 -36t66 -14.5q46 0 78 14.5t53.5 36t34.5 46.5t21 47q11 31 21.5 70t19 80t14.5 80t8 70q2 27 -4 53t-21 46.5t-39.5 32.5t-60.5 12z
M337 708q49 0 86.5 -17t62 -46t35.5 -66.5t8 -78.5q-2 -30 -8.5 -69t-15 -80.5t-19 -81t-20.5 -69.5q-34 -97 -96.5 -152.5t-157.5 -55.5q-45 0 -82 14.5t-62.5 41.5t-38.5 65.5t-9 86.5q2 30 8.5 69.5t15 81t18.5 80.5t21 69q15 41 37 78.5t53 66.5t71.5 46t92.5 17z
M461 878q2 7 7.5 12t13.5 5h23q7 0 11 -5t2 -12q-6 -27 -19.5 -50t-34 -40.5t-46.5 -27.5t-56 -10t-54.5 10t-41 27.5t-23 40.5t-0.5 50q2 7 8 12t13 5h23q8 0 11.5 -5t1.5 -12q-7 -35 11.5 -55.5t53.5 -20.5t62 20.5t34 55.5z" />
    <glyph glyph-name="obreve" unicode="&#x14f;" 
d="M307 510q45 0 80 -15t57.5 -40.5t32 -60.5t4.5 -74q-4 -30 -12.5 -70t-16.5 -70q-12 -39 -32.5 -74t-49.5 -60.5t-66 -40.5t-82 -15t-80 15t-57.5 40.5t-32.5 60.5t-4 74q4 30 12.5 70t16.5 70q12 39 32.5 74t49.5 60.5t66 40.5t82 15zM222 49q40 0 69 13t49 32.5
t32.5 42.5t18.5 43q9 31 17 70t12 70q2 20 -1 43t-15.5 42.5t-36 32.5t-60.5 13q-40 0 -69 -13t-49 -32.5t-32.5 -42.5t-18.5 -43q-9 -31 -17 -70t-12 -70q-2 -20 1 -43t15.5 -42.5t35.5 -32.5t61 -13zM442 713q2 7 7.5 12t13.5 5h23q7 0 11 -5t2 -12q-6 -27 -19.5 -50
t-34 -40.5t-46.5 -27.5t-56 -10t-54.5 10t-41 27.5t-23 40.5t-0.5 50q2 7 8 12t13 5h23q8 0 11.5 -5t1.5 -12q-7 -35 11.5 -55.5t53.5 -20.5t62 20.5t34 55.5z" />
    <glyph glyph-name="Ohungarumlaut" unicode="&#x150;" 
d="M337 644q-40 0 -70.5 -12t-53 -32.5t-38 -46.5t-25.5 -53q-11 -31 -21.5 -70t-19 -80t-14.5 -80t-8 -70q-2 -22 2.5 -47t18 -46.5t38.5 -36t66 -14.5q46 0 78 14.5t53.5 36t34.5 46.5t21 47q11 31 21.5 70t19 80t14.5 80t8 70q2 27 -4 53t-21 46.5t-39.5 32.5t-60.5 12z
M337 708q49 0 86.5 -17t62 -46t35.5 -66.5t8 -78.5q-2 -30 -8.5 -69t-15 -80.5t-19 -81t-20.5 -69.5q-34 -97 -96.5 -152.5t-157.5 -55.5q-45 0 -82 14.5t-62.5 41.5t-38.5 65.5t-9 86.5q2 30 8.5 69.5t15 81t18.5 80.5t21 69q15 41 37 78.5t53 66.5t71.5 46t92.5 17z
M443 895q10 0 11 -8t-5 -13l-131 -112q-6 -5 -12.5 -8.5t-20.5 -3.5h-19q-10 0 -12.5 7.5t2.5 12.5l100 109q5 5 11.5 10.5t17.5 5.5h58zM602 895q10 0 11 -8t-5 -13l-131 -112q-6 -5 -12.5 -8.5t-20.5 -3.5h-19q-10 0 -12.5 7.5t2.5 12.5l100 109q5 5 11.5 10.5t17.5 5.5
h58z" />
    <glyph glyph-name="ohungarumlaut" unicode="&#x151;" 
d="M307 510q45 0 80 -15t57.5 -40.5t32 -60.5t4.5 -74q-4 -30 -12.5 -70t-16.5 -70q-12 -39 -32.5 -74t-49.5 -60.5t-66 -40.5t-82 -15t-80 15t-57.5 40.5t-32.5 60.5t-4 74q4 30 12.5 70t16.5 70q12 39 32.5 74t49.5 60.5t66 40.5t82 15zM222 49q40 0 69 13t49 32.5
t32.5 42.5t18.5 43q9 31 17 70t12 70q2 20 -1 43t-15.5 42.5t-36 32.5t-60.5 13q-40 0 -69 -13t-49 -32.5t-32.5 -42.5t-18.5 -43q-9 -31 -17 -70t-12 -70q-2 -20 1 -43t15.5 -42.5t35.5 -32.5t61 -13zM405 730q10 0 11 -8t-5 -13l-131 -112q-6 -5 -12.5 -8.5t-20.5 -3.5
h-19q-10 0 -12.5 7.5t2.5 12.5l100 109q5 5 11.5 10.5t17.5 5.5h58zM564 730q10 0 11 -8t-5 -13l-131 -112q-6 -5 -12.5 -8.5t-20.5 -3.5h-19q-10 0 -12.5 7.5t2.5 12.5l100 109q5 5 11.5 10.5t17.5 5.5h58z" />
    <glyph glyph-name="OE" unicode="&#x152;" 
d="M566 700q8 0 13 -6t3 -14l-5 -24q-2 -8 -9.5 -14t-15.5 -6h-133q-10 0 -12 -10l-48 -227q-2 -10 8 -10h122q8 0 13 -6t3 -14l-5 -23q-2 -8 -9.5 -14t-15.5 -6h-122q-10 0 -12 -10l-51 -242q-2 -10 8 -10h135q8 0 12.5 -6t2.5 -14l-5 -24q-2 -8 -9 -14t-15 -6h-230
q-91 0 -133.5 51.5t-35.5 148.5q2 30 8 69.5t14.5 81t18.5 80.5t21 69q15 41 38 77.5t55 63.5t72.5 43t90.5 16h228zM203 64q8 0 15 6t9 14l113 532q2 8 -3 14t-13 6q-36 0 -64 -11t-49 -29.5t-36.5 -43.5t-25.5 -52q-11 -31 -21.5 -70t-19 -80t-14.5 -80t-8 -70
q-2 -22 1 -46t15.5 -44t36 -33t64.5 -13z" />
    <glyph glyph-name="oe" unicode="&#x153;" 
d="M244 28q-6 7 -17.5 10.5t-25.5 -9.5q-14 -12 -37 -25.5t-50 -13.5q-65 0 -92.5 41.5t-27.5 108.5q0 36 5.5 78t17 83t28.5 79t40.5 66.5t52.5 46t64 17.5q38 0 58 -11.5t37 -30.5q6 -7 17 -9t23 8q22 20 46 31.5t57 11.5q34 0 59 -15.5t40 -42.5t18.5 -63.5t-5.5 -78.5
l-13 -64q-2 -8 -9.5 -14t-15.5 -6h-217q-9 0 -12 -10q-8 -36 -8.5 -66.5t7 -53t23 -35t40.5 -12.5q21 0 38 8.5t30 22t22.5 30.5t16.5 33q5 10 12 13.5t14 3.5h17q8 0 12.5 -4.5t0.5 -15.5q-11 -29 -26 -56t-35 -48t-46 -33.5t-58 -12.5q-42 0 -65.5 12t-35.5 26zM303 292
q-2 -10 8 -10h170q10 0 12 10q15 70 2.5 114.5t-62.5 44.5q-45 0 -79.5 -42t-50.5 -117zM202 451q-35 0 -62 -33.5t-45 -82t-27 -102t-9 -93.5q0 -41 13.5 -66t44.5 -25q22 0 40.5 16t33.5 42t27 59.5t20 68t12.5 67.5t5.5 58q2 41 -10 66t-44 25z" />
    <glyph glyph-name="Racute" unicode="&#x154;" 
d="M345 291q-11 -3 -15 -12t1 -20l92 -225q5 -11 0 -22.5t-24 -11.5h-19q-12 0 -16 6t-8 14l-101 248q-2 5 -5 8.5t-11 3.5h-87q-10 0 -12 -10l-53 -250q-2 -8 -9.5 -14t-15.5 -6h-24q-8 0 -12.5 6t-2.5 14l140 660q2 8 9 14t15 6h157q42 0 75.5 -13t57.5 -35.5t37 -54
t13 -67.5q0 -41 -12 -79t-35.5 -69.5t-57.5 -55t-77 -35.5zM228 636q-11 0 -13 -10l-57 -272q-2 -10 8 -10h106q47 0 82.5 15.5t59.5 41t36 59.5t12 70q0 45 -30.5 75.5t-87.5 30.5h-116zM493 895q10 0 11 -8t-5 -13l-131 -112q-6 -5 -12.5 -8.5t-20.5 -3.5h-19
q-10 0 -12.5 7.5t2.5 12.5l100 109q5 5 11.5 10.5t17.5 5.5h58z" />
    <glyph glyph-name="racute" unicode="&#x155;" 
d="M454 730q10 0 11 -8t-5 -13l-131 -112q-6 -5 -12.5 -8.5t-20.5 -3.5h-19q-10 0 -12.5 7.5t2.5 12.5l100 109q5 5 11.5 10.5t17.5 5.5h58zM426 340q11 48 -17 79.5t-88 31.5q-27 0 -52.5 -9t-46 -25t-35 -38.5t-20.5 -48.5l-65 -310q-2 -8 -9.5 -14t-15.5 -6h-19
q-8 0 -12.5 6t-2.5 14l97 460q2 8 9.5 14t15.5 6h16q7 0 12 -7q4 -5 9 -10.5t13 -5.5q11 0 21 5l23 11.5t31.5 11.5t46.5 5q38 0 69.5 -12t52 -34.5t28 -53.5t-1.5 -70q-2 -8 -8.5 -14t-16.5 -6h-19q-8 0 -12.5 6t-2.5 14z" />
    <glyph glyph-name="Rcommaaccent" unicode="&#x156;" 
d="M345 291q-11 -3 -15 -12t1 -20l92 -225q5 -11 0 -22.5t-24 -11.5h-19q-12 0 -16 6t-8 14l-101 248q-2 5 -5 8.5t-11 3.5h-87q-10 0 -12 -10l-53 -250q-2 -8 -9.5 -14t-15.5 -6h-24q-8 0 -12.5 6t-2.5 14l140 660q2 8 9 14t15 6h157q42 0 75.5 -13t57.5 -35.5t37 -54
t13 -67.5q0 -41 -12 -79t-35.5 -69.5t-57.5 -55t-77 -35.5zM228 636q-11 0 -13 -10l-57 -272q-2 -10 8 -10h106q47 0 82.5 15.5t59.5 41t36 59.5t12 70q0 45 -30.5 75.5t-87.5 30.5h-116zM154 -150q-8 0 -13 6t-3 14l14 65q2 8 9 14t15 6h60q8 0 13 -6t3 -14l-15 -70
q-5 -21 -12 -31.5t-15 -19.5l-32 -36q-5 -5 -12 -11.5t-21 -6.5h-10q-9 0 -13 7.5t3 16.5l39 51q4 5 2.5 10t-7.5 5h-5z" />
    <glyph glyph-name="rcommaaccent" unicode="&#x157;" 
d="M12 -150q-8 0 -13 6t-3 14l14 65q2 8 9 14t15 6h60q8 0 13 -6t3 -14l-15 -70q-5 -21 -12 -31.5t-15 -19.5l-32 -36q-5 -5 -12 -11.5t-21 -6.5h-10q-9 0 -13 7.5t3 16.5l39 51q4 5 2.5 10t-7.5 5h-5zM426 340q11 48 -17 79.5t-88 31.5q-27 0 -52.5 -9t-46 -25t-35 -38.5
t-20.5 -48.5l-65 -310q-2 -8 -9.5 -14t-15.5 -6h-19q-8 0 -12.5 6t-2.5 14l97 460q2 8 9.5 14t15.5 6h16q7 0 12 -7q4 -5 9 -10.5t13 -5.5q11 0 21 5l23 11.5t31.5 11.5t46.5 5q38 0 69.5 -12t52 -34.5t28 -53.5t-1.5 -70q-2 -8 -8.5 -14t-16.5 -6h-19q-8 0 -12.5 6t-2.5 14
z" />
    <glyph glyph-name="Rcaron" unicode="&#x158;" 
d="M345 291q-11 -3 -15 -12t1 -20l92 -225q5 -11 0 -22.5t-24 -11.5h-19q-12 0 -16 6t-8 14l-101 248q-2 5 -5 8.5t-11 3.5h-87q-10 0 -12 -10l-53 -250q-2 -8 -9.5 -14t-15.5 -6h-24q-8 0 -12.5 6t-2.5 14l140 660q2 8 9 14t15 6h157q42 0 75.5 -13t57.5 -35.5t37 -54
t13 -67.5q0 -41 -12 -79t-35.5 -69.5t-57.5 -55t-77 -35.5zM228 636q-11 0 -13 -10l-57 -272q-2 -10 8 -10h106q47 0 82.5 15.5t59.5 41t36 59.5t12 70q0 45 -30.5 75.5t-87.5 30.5h-116zM334 814q6 -7 14 0l82 65q5 5 14 10.5t20 5.5h45q10 0 11 -8t-5 -13l-141 -112
q-6 -5 -12.5 -8.5t-19.5 -3.5h-22q-14 0 -18.5 4t-8.5 8l-95 112q-4 4 1 12.5t15 8.5h40q11 0 17.5 -5.5t10.5 -10.5z" />
    <glyph glyph-name="rcaron" unicode="&#x159;" 
d="M331 649q6 -7 14 0l82 65q5 5 14 10.5t20 5.5h45q10 0 11 -8t-5 -13l-141 -112q-6 -5 -12.5 -8.5t-19.5 -3.5h-22q-14 0 -18.5 4t-8.5 8l-95 112q-4 4 1 12.5t15 8.5h40q11 0 17.5 -5.5t10.5 -10.5zM426 340q11 48 -17 79.5t-88 31.5q-27 0 -52.5 -9t-46 -25t-35 -38.5
t-20.5 -48.5l-65 -310q-2 -8 -9.5 -14t-15.5 -6h-19q-8 0 -12.5 6t-2.5 14l97 460q2 8 9.5 14t15.5 6h16q7 0 12 -7q4 -5 9 -10.5t13 -5.5q11 0 21 5l23 11.5t31.5 11.5t46.5 5q38 0 69.5 -12t52 -34.5t28 -53.5t-1.5 -70q-2 -8 -8.5 -14t-16.5 -6h-19q-8 0 -12.5 6t-2.5 14
z" />
    <glyph glyph-name="Sacute" unicode="&#x15a;" 
d="M394 231q0 37 -26.5 65t-94.5 49q-25 8 -53.5 19t-53 29t-40.5 45t-16 67q0 46 20 83.5t53 64t75.5 41t86.5 14.5q49 0 83.5 -15t54.5 -40.5t25 -59.5t-4 -73l-3 -13q-2 -8 -9 -14t-15 -6h-24q-8 0 -13 6t-3 14l3 13q6 26 3.5 48.5t-15.5 39.5t-36 26.5t-57 9.5t-63 -10
t-50.5 -28t-33.5 -42.5t-12 -53.5q0 -27 10.5 -44t29.5 -28.5t43.5 -20t53.5 -19.5q32 -12 59 -26t47 -33.5t31 -45.5t11 -62q0 -47 -18 -90t-51 -76t-79 -53t-103 -20q-48 0 -86 16.5t-62.5 44.5t-34 66t-1.5 81l3 16q2 8 9 14t15 6h25q8 0 13 -6t3 -14l-3 -16
q-5 -26 -1 -52t18.5 -46.5t39.5 -33t62 -12.5q42 0 76 13t58 36.5t37 55.5t13 70zM503 895q10 0 11 -8t-5 -13l-131 -112q-6 -5 -12.5 -8.5t-20.5 -3.5h-19q-10 0 -12.5 7.5t2.5 12.5l100 109q5 5 11.5 10.5t17.5 5.5h58z" />
    <glyph glyph-name="sacute" unicode="&#x15b;" 
d="M40 163q2 8 9 14t15 6h19q8 0 12.5 -6t3.5 -14q-4 -29 3.5 -50.5t23.5 -36t39.5 -22t52.5 -7.5t55 8t45.5 22t31 34t11.5 44q0 26 -13.5 41.5t-34 24t-43 13t-40.5 8.5q-27 6 -51 14.5t-42 23t-28.5 35t-10.5 50.5q0 27 13.5 53.5t38.5 46.5t59 32.5t76 12.5
q34 0 66.5 -10t56.5 -29.5t35.5 -47.5t4.5 -63q-2 -8 -9 -14t-15 -6h-19q-8 0 -13 6t-3 15q4 18 -2 35t-20 30t-35 20.5t-47 7.5q-52 0 -88 -24t-36 -65q0 -22 13 -34.5t32 -20t40.5 -11.5t39.5 -7q27 -5 52 -15t44.5 -26t31 -38.5t11.5 -52.5q0 -40 -17.5 -71.5t-47 -53.5
t-66.5 -33.5t-76 -11.5q-40 0 -75 11t-60 33t-37 54.5t-6 74.5zM464 730q10 0 11 -8t-5 -13l-131 -112q-6 -5 -12.5 -8.5t-20.5 -3.5h-19q-10 0 -12.5 7.5t2.5 12.5l100 109q5 5 11.5 10.5t17.5 5.5h58z" />
    <glyph glyph-name="Scircumflex" unicode="&#x15c;" 
d="M394 231q0 37 -26.5 65t-94.5 49q-25 8 -53.5 19t-53 29t-40.5 45t-16 67q0 46 20 83.5t53 64t75.5 41t86.5 14.5q49 0 83.5 -15t54.5 -40.5t25 -59.5t-4 -73l-3 -13q-2 -8 -9 -14t-15 -6h-24q-8 0 -13 6t-3 14l3 13q6 26 3.5 48.5t-15.5 39.5t-36 26.5t-57 9.5t-63 -10
t-50.5 -28t-33.5 -42.5t-12 -53.5q0 -27 10.5 -44t29.5 -28.5t43.5 -20t53.5 -19.5q32 -12 59 -26t47 -33.5t31 -45.5t11 -62q0 -47 -18 -90t-51 -76t-79 -53t-103 -20q-48 0 -86 16.5t-62.5 44.5t-34 66t-1.5 81l3 16q2 8 9 14t15 6h25q8 0 13 -6t3 -14l-3 -16
q-5 -26 -1 -52t18.5 -46.5t39.5 -33t62 -12.5q42 0 76 13t58 36.5t37 55.5t13 70zM290 766q-5 -5 -14 -10.5t-20 -5.5h-47q-10 0 -11 8t5 13l141 112q6 5 12.5 8.5t20.5 3.5h21q14 0 18.5 -4t8.5 -8l95 -112q4 -4 -1 -12.5t-15 -8.5h-39q-11 0 -17.5 5.5t-10.5 10.5l-53 65
q-6 7 -14 0z" />
    <glyph glyph-name="scircumflex" unicode="&#x15d;" 
d="M40 163q2 8 9 14t15 6h19q8 0 12.5 -6t3.5 -14q-4 -29 3.5 -50.5t23.5 -36t39.5 -22t52.5 -7.5t55 8t45.5 22t31 34t11.5 44q0 26 -13.5 41.5t-34 24t-43 13t-40.5 8.5q-27 6 -51 14.5t-42 23t-28.5 35t-10.5 50.5q0 27 13.5 53.5t38.5 46.5t59 32.5t76 12.5
q34 0 66.5 -10t56.5 -29.5t35.5 -47.5t4.5 -63q-2 -8 -9 -14t-15 -6h-19q-8 0 -13 6t-3 15q4 18 -2 35t-20 30t-35 20.5t-47 7.5q-52 0 -88 -24t-36 -65q0 -22 13 -34.5t32 -20t40.5 -11.5t39.5 -7q27 -5 52 -15t44.5 -26t31 -38.5t11.5 -52.5q0 -40 -17.5 -71.5t-47 -53.5
t-66.5 -33.5t-76 -11.5q-40 0 -75 11t-60 33t-37 54.5t-6 74.5zM255 601q-5 -5 -14 -10.5t-20 -5.5h-47q-10 0 -11 8t5 13l141 112q6 5 12.5 8.5t20.5 3.5h21q14 0 18.5 -4t8.5 -8l95 -112q4 -4 -1 -12.5t-15 -8.5h-39q-11 0 -17.5 5.5t-10.5 10.5l-53 65q-6 7 -14 0z" />
    <glyph glyph-name="Scedilla" unicode="&#x15e;" 
d="M394 231q0 37 -26.5 65t-94.5 49q-25 8 -53.5 19t-53 29t-40.5 45t-16 67q0 46 20 83.5t53 64t75.5 41t86.5 14.5q49 0 83.5 -15t54.5 -40.5t25 -59.5t-4 -73l-3 -13q-2 -8 -9 -14t-15 -6h-24q-8 0 -13 6t-3 14l3 13q6 26 3.5 48.5t-15.5 39.5t-36 26.5t-57 9.5t-63 -10
t-50.5 -28t-33.5 -42.5t-12 -53.5q0 -27 10.5 -44t29.5 -28.5t43.5 -20t53.5 -19.5q32 -12 59 -26t47 -33.5t31 -45.5t11 -62q0 -47 -18 -90t-51 -76t-79 -53t-103 -20q-48 0 -86 16.5t-62.5 44.5t-34 66t-1.5 81l3 16q2 8 9 14t15 6h25q8 0 13 -6t3 -14l-3 -16
q-5 -26 -1 -52t18.5 -46.5t39.5 -33t62 -12.5q42 0 76 13t58 36.5t37 55.5t13 70zM194 -184q-7 -16 -22 -16h-37q-10 0 -13 5.5t1 12.5l64 121q7 16 22 16h27q10 0 12.5 -5.5t-0.5 -12.5z" />
    <glyph glyph-name="scedilla" unicode="&#x15f;" 
d="M40 163q2 8 9 14t15 6h19q8 0 12.5 -6t3.5 -14q-4 -29 3.5 -50.5t23.5 -36t39.5 -22t52.5 -7.5t55 8t45.5 22t31 34t11.5 44q0 26 -13.5 41.5t-34 24t-43 13t-40.5 8.5q-27 6 -51 14.5t-42 23t-28.5 35t-10.5 50.5q0 27 13.5 53.5t38.5 46.5t59 32.5t76 12.5
q34 0 66.5 -10t56.5 -29.5t35.5 -47.5t4.5 -63q-2 -8 -9 -14t-15 -6h-19q-8 0 -13 6t-3 15q4 18 -2 35t-20 30t-35 20.5t-47 7.5q-52 0 -88 -24t-36 -65q0 -22 13 -34.5t32 -20t40.5 -11.5t39.5 -7q27 -5 52 -15t44.5 -26t31 -38.5t11.5 -52.5q0 -40 -17.5 -71.5t-47 -53.5
t-66.5 -33.5t-76 -11.5q-40 0 -75 11t-60 33t-37 54.5t-6 74.5zM184 -184q-7 -16 -22 -16h-37q-10 0 -13 5.5t1 12.5l64 121q7 16 22 16h27q10 0 12.5 -5.5t-0.5 -12.5z" />
    <glyph glyph-name="Scaron" unicode="&#x160;" 
d="M394 231q0 37 -26.5 65t-94.5 49q-25 8 -53.5 19t-53 29t-40.5 45t-16 67q0 46 20 83.5t53 64t75.5 41t86.5 14.5q49 0 83.5 -15t54.5 -40.5t25 -59.5t-4 -73l-3 -13q-2 -8 -9 -14t-15 -6h-24q-8 0 -13 6t-3 14l3 13q6 26 3.5 48.5t-15.5 39.5t-36 26.5t-57 9.5t-63 -10
t-50.5 -28t-33.5 -42.5t-12 -53.5q0 -27 10.5 -44t29.5 -28.5t43.5 -20t53.5 -19.5q32 -12 59 -26t47 -33.5t31 -45.5t11 -62q0 -47 -18 -90t-51 -76t-79 -53t-103 -20q-48 0 -86 16.5t-62.5 44.5t-34 66t-1.5 81l3 16q2 8 9 14t15 6h25q8 0 13 -6t3 -14l-3 -16
q-5 -26 -1 -52t18.5 -46.5t39.5 -33t62 -12.5q42 0 76 13t58 36.5t37 55.5t13 70zM354 814q6 -7 14 0l82 65q5 5 14 10.5t20 5.5h45q10 0 11 -8t-5 -13l-141 -112q-6 -5 -12.5 -8.5t-19.5 -3.5h-22q-14 0 -18.5 4t-8.5 8l-95 112q-4 4 1 12.5t15 8.5h40q11 0 17.5 -5.5
t10.5 -10.5z" />
    <glyph glyph-name="scaron" unicode="&#x161;" 
d="M40 163q2 8 9 14t15 6h19q8 0 12.5 -6t3.5 -14q-4 -29 3.5 -50.5t23.5 -36t39.5 -22t52.5 -7.5t55 8t45.5 22t31 34t11.5 44q0 26 -13.5 41.5t-34 24t-43 13t-40.5 8.5q-27 6 -51 14.5t-42 23t-28.5 35t-10.5 50.5q0 27 13.5 53.5t38.5 46.5t59 32.5t76 12.5
q34 0 66.5 -10t56.5 -29.5t35.5 -47.5t4.5 -63q-2 -8 -9 -14t-15 -6h-19q-8 0 -13 6t-3 15q4 18 -2 35t-20 30t-35 20.5t-47 7.5q-52 0 -88 -24t-36 -65q0 -22 13 -34.5t32 -20t40.5 -11.5t39.5 -7q27 -5 52 -15t44.5 -26t31 -38.5t11.5 -52.5q0 -40 -17.5 -71.5t-47 -53.5
t-66.5 -33.5t-76 -11.5q-40 0 -75 11t-60 33t-37 54.5t-6 74.5zM311 649q6 -7 14 0l82 65q5 5 14 10.5t20 5.5h45q10 0 11 -8t-5 -13l-141 -112q-6 -5 -12.5 -8.5t-19.5 -3.5h-22q-14 0 -18.5 4t-8.5 8l-95 112q-4 4 1 12.5t15 8.5h40q11 0 17.5 -5.5t10.5 -10.5z" />
    <glyph glyph-name="Tcommaaccent" unicode="&#x162;" 
d="M123 636q-8 0 -12.5 6t-2.5 14l5 24q2 8 9 14t15 6h410q8 0 13 -6t3 -14l-5 -24q-2 -8 -9.5 -14t-15.5 -6h-162q-10 0 -12 -10l-129 -606q-2 -8 -9 -14t-15 -6h-25q-8 0 -13 6t-3 14l129 606q2 10 -8 10h-163zM134 -150q-8 0 -13 6t-3 14l14 65q2 8 9 14t15 6h60
q8 0 13 -6t3 -14l-15 -70q-5 -21 -12 -31.5t-15 -19.5l-32 -36q-5 -5 -12 -11.5t-21 -6.5h-10q-9 0 -13 7.5t3 16.5l39 51q4 5 2.5 10t-7.5 5h-5z" />
    <glyph glyph-name="tcommaaccent" unicode="&#x163;" 
d="M214 153q-6 -26 -2.5 -45.5t14 -32.5t26.5 -19t35 -6q43 0 73.5 29t39.5 71q2 8 9 14t15 6h21q8 0 13 -6t3 -14q-7 -34 -23 -63t-39 -50.5t-52 -34t-62 -12.5q-38 0 -65.5 12.5t-45 34.5t-23 51t1.5 62l59 276q2 10 -8 10h-111q-8 0 -13 6t-3 14l4 19q2 8 9.5 14t15.5 6
h111q10 0 12 10l33 155q2 8 9 14t15 6h20q8 0 13 -6t3 -14l-33 -155q-2 -10 8 -10h166q8 0 12.5 -6t2.5 -14l-4 -19q-2 -8 -9 -14t-15 -6h-166q-10 0 -12 -10zM204 -150q-8 0 -13 6t-3 14l14 65q2 8 9 14t15 6h60q8 0 13 -6t3 -14l-15 -70q-5 -21 -12 -31.5t-15 -19.5
l-32 -36q-5 -5 -12 -11.5t-21 -6.5h-10q-9 0 -13 7.5t3 16.5l39 51q4 5 2.5 10t-7.5 5h-5z" />
    <glyph glyph-name="Tcaron" unicode="&#x164;" 
d="M123 636q-8 0 -12.5 6t-2.5 14l5 24q2 8 9 14t15 6h410q8 0 13 -6t3 -14l-5 -24q-2 -8 -9.5 -14t-15.5 -6h-162q-10 0 -12 -10l-129 -606q-2 -8 -9 -14t-15 -6h-25q-8 0 -13 6t-3 14l129 606q2 10 -8 10h-163zM344 814q6 -7 14 0l82 65q5 5 14 10.5t20 5.5h45q10 0 11 -8
t-5 -13l-141 -112q-6 -5 -12.5 -8.5t-19.5 -3.5h-22q-14 0 -18.5 4t-8.5 8l-95 112q-4 4 1 12.5t15 8.5h40q11 0 17.5 -5.5t10.5 -10.5z" />
    <glyph glyph-name="tcaron" unicode="&#x165;" 
d="M214 153q-6 -26 -2.5 -45.5t14 -32.5t26.5 -19t35 -6q43 0 73.5 29t39.5 71q2 8 9 14t15 6h21q8 0 13 -6t3 -14q-7 -34 -23 -63t-39 -50.5t-52 -34t-62 -12.5q-38 0 -65.5 12.5t-45 34.5t-23 51t1.5 62l59 276q2 10 -8 10h-111q-8 0 -13 6t-3 14l4 19q2 8 9.5 14t15.5 6
h111q10 0 12 10l33 155q2 8 9 14t15 6h20q8 0 13 -6t3 -14l-33 -155q-2 -10 8 -10h166q8 0 12.5 -6t2.5 -14l-4 -19q-2 -8 -9 -14t-15 -6h-166q-10 0 -12 -10zM421 595q-8 0 -13 6t-3 14l14 65q2 8 9 14t15 6h60q8 0 13 -6t3 -14l-15 -70q-5 -21 -12 -31.5t-15 -19.5
l-32 -36q-5 -5 -12 -11.5t-21 -6.5h-10q-9 0 -13 7.5t3 16.5l39 51q4 5 2.5 10t-7.5 5h-5z" />
    <glyph glyph-name="Tbar" unicode="&#x166;" 
d="M253 430q2 10 -8 10h-143q-8 0 -13 6t-3 14l4 20q2 8 9 14t15 6h143q11 0 13 10l24 116q2 10 -8 10h-163q-8 0 -12.5 6t-2.5 14l5 24q2 8 9 14t15 6h410q8 0 13 -6t3 -14l-5 -24q-2 -8 -9.5 -14t-15.5 -6h-162q-10 0 -12 -10l-24 -116q-2 -10 7 -10h142q8 0 13 -6t3 -14
l-4 -20q-2 -8 -9 -14t-15 -6h-142q-10 0 -12 -10l-88 -410q-2 -8 -9 -14t-15 -6h-25q-8 0 -13 6t-3 14z" />
    <glyph glyph-name="tbar" unicode="&#x167;" 
d="M214 153q-6 -26 -2.5 -45.5t14 -32.5t26.5 -19t35 -6q43 0 73.5 29t39.5 71q2 8 9 14t15 6h21q8 0 13 -6t3 -14q-7 -34 -23 -63t-39 -50.5t-52 -34t-62 -12.5q-38 0 -66 12.5t-45 34.5t-23 51t2 62l21 93q2 8 -8 8h-95q-8 0 -13 6t-3 14l4 20q2 8 9 14t15 6h95
q10 0 12 10l22 105q2 10 -8 10h-111q-8 0 -13 6t-3 14l4 19q2 8 9.5 14t15.5 6h111q10 0 12 10l33 155q2 8 9 14t15 6h20q8 0 13 -6t3 -14l-33 -155q-2 -10 8 -10h166q8 0 12.5 -6t2.5 -14l-4 -19q-2 -8 -9 -14t-15 -6h-166q-10 0 -12 -10l-22 -105q-1 -10 8 -10h150
q8 0 13 -6t3 -14l-4 -20q-2 -8 -9 -14t-15 -6h-150q-11 0 -13 -10z" />
    <glyph glyph-name="Utilde" unicode="&#x168;" 
d="M96 207q-6 -30 -0.5 -57.5t21.5 -48t41 -33t57 -12.5q39 0 70 12.5t54 33t38 48t21 57.5l100 473q2 8 9.5 14t15.5 6h24q8 0 12.5 -6t2.5 -14l-100 -473q-9 -45 -30.5 -84t-53 -68t-72.5 -46t-91 -17q-45 0 -82.5 17t-63 46t-36 68t-1.5 84l100 473q2 8 9.5 14t15.5 6h24
q8 0 12.5 -6t2.5 -14zM446 832q19 0 30.5 6.5t19.5 14.5t16.5 4t5.5 -18l-5 -24q-4 -20 -27.5 -35.5t-53.5 -15.5q-24 0 -38.5 4t-27.5 8.5t-28.5 8.5t-40.5 4q-17 0 -28.5 -5.5t-22.5 -15.5q-8 -7 -16.5 -3.5t-5.5 17.5l5 24q4 20 28 35.5t54 15.5q24 0 38.5 -4t27.5 -8.5
t28 -8.5t41 -4z" />
    <glyph glyph-name="utilde" unicode="&#x169;" 
d="M320 23q-11 0 -20.5 -5t-21.5 -11.5t-28.5 -11.5t-40.5 -5q-39 0 -72 11t-55 33t-30.5 54.5t0.5 75.5l67 316q2 8 9.5 14t15.5 6h19q8 0 12.5 -6t2.5 -14l-67 -316q-7 -32 -2 -53.5t19.5 -35.5t36.5 -20t49 -6q54 0 95.5 25t54.5 85l68 321q2 8 9.5 14t15.5 6h19
q8 0 12.5 -6t2.5 -14l-97 -460q-2 -8 -9.5 -14t-15.5 -6h-16q-7 0 -12 7q-4 5 -8 10.5t-13 5.5zM415 676q19 0 30.5 6.5t19.5 14.5t16.5 4t5.5 -18l-5 -24q-4 -20 -27.5 -35.5t-53.5 -15.5q-24 0 -38.5 4t-27.5 8.5t-28.5 8.5t-40.5 4q-17 0 -28.5 -5.5t-22.5 -15.5
q-8 -7 -16.5 -3.5t-5.5 17.5l5 24q4 20 28 35.5t54 15.5q24 0 38.5 -4t27.5 -8.5t28 -8.5t41 -4z" />
    <glyph glyph-name="Umacron" unicode="&#x16a;" 
d="M96 207q-6 -30 -0.5 -57.5t21.5 -48t41 -33t57 -12.5q39 0 70 12.5t54 33t38 48t21 57.5l100 473q2 8 9.5 14t15.5 6h24q8 0 12.5 -6t2.5 -14l-100 -473q-9 -45 -30.5 -84t-53 -68t-72.5 -46t-91 -17q-45 0 -82.5 17t-63 46t-36 68t-1.5 84l100 473q2 8 9.5 14t15.5 6h24
q8 0 12.5 -6t2.5 -14zM239 765q-8 0 -13 6t-3 14l5 20q2 8 9 14t15 6h242q8 0 13 -6t3 -14l-5 -20q-2 -8 -9 -14t-15 -6h-242z" />
    <glyph glyph-name="umacron" unicode="&#x16b;" 
d="M320 23q-11 0 -20.5 -5t-21.5 -11.5t-28.5 -11.5t-40.5 -5q-39 0 -72 11t-55 33t-30.5 54.5t0.5 75.5l67 316q2 8 9.5 14t15.5 6h19q8 0 12.5 -6t2.5 -14l-67 -316q-7 -32 -2 -53.5t19.5 -35.5t36.5 -20t49 -6q54 0 95.5 25t54.5 85l68 321q2 8 9.5 14t15.5 6h19
q8 0 12.5 -6t2.5 -14l-97 -460q-2 -8 -9.5 -14t-15.5 -6h-16q-7 0 -12 7q-4 5 -8 10.5t-13 5.5zM213 634q-8 0 -13 6t-3 14l5 20q2 8 9 14t15 6h242q8 0 13 -6t3 -14l-5 -20q-2 -8 -9 -14t-15 -6h-242z" />
    <glyph glyph-name="Ubreve" unicode="&#x16c;" 
d="M96 207q-6 -30 -0.5 -57.5t21.5 -48t41 -33t57 -12.5q39 0 70 12.5t54 33t38 48t21 57.5l100 473q2 8 9.5 14t15.5 6h24q8 0 12.5 -6t2.5 -14l-100 -473q-9 -45 -30.5 -84t-53 -68t-72.5 -46t-91 -17q-45 0 -82.5 17t-63 46t-36 68t-1.5 84l100 473q2 8 9.5 14t15.5 6h24
q8 0 12.5 -6t2.5 -14zM461 878q2 7 7.5 12t13.5 5h23q7 0 11 -5t2 -12q-6 -27 -19.5 -50t-34 -40.5t-46.5 -27.5t-56 -10t-54.5 10t-41 27.5t-23 40.5t-0.5 50q2 7 8 12t13 5h23q8 0 11.5 -5t1.5 -12q-7 -35 11.5 -55.5t53.5 -20.5t62 20.5t34 55.5z" />
    <glyph glyph-name="ubreve" unicode="&#x16d;" 
d="M320 23q-11 0 -20.5 -5t-21.5 -11.5t-28.5 -11.5t-40.5 -5q-39 0 -72 11t-55 33t-30.5 54.5t0.5 75.5l67 316q2 8 9.5 14t15.5 6h19q8 0 12.5 -6t2.5 -14l-67 -316q-7 -32 -2 -53.5t19.5 -35.5t36.5 -20t49 -6q54 0 95.5 25t54.5 85l68 321q2 8 9.5 14t15.5 6h19
q8 0 12.5 -6t2.5 -14l-97 -460q-2 -8 -9.5 -14t-15.5 -6h-16q-7 0 -12 7q-4 5 -8 10.5t-13 5.5zM427 713q2 7 7.5 12t13.5 5h23q7 0 11 -5t2 -12q-6 -27 -19.5 -50t-34 -40.5t-46.5 -27.5t-56 -10t-54.5 10t-41 27.5t-23 40.5t-0.5 50q2 7 8 12t13 5h23q8 0 11.5 -5t1.5 -12
q-7 -35 11.5 -55.5t53.5 -20.5t62 20.5t34 55.5z" />
    <glyph glyph-name="Uring" unicode="&#x16e;" 
d="M96 207q-6 -30 -0.5 -57.5t21.5 -48t41 -33t57 -12.5q39 0 70 12.5t54 33t38 48t21 57.5l100 473q2 8 9.5 14t15.5 6h24q8 0 12.5 -6t2.5 -14l-100 -473q-9 -45 -30.5 -84t-53 -68t-72.5 -46t-91 -17q-45 0 -82.5 17t-63 46t-36 68t-1.5 84l100 473q2 8 9.5 14t15.5 6h24
q8 0 12.5 -6t2.5 -14zM262 820q0 26 10.5 49.5t28 41.5t41 28.5t50.5 10.5q42 0 67.5 -27t25.5 -68q0 -24 -10.5 -47t-28.5 -40t-41 -27.5t-47 -10.5q-45 0 -70.5 25.5t-25.5 64.5zM385 895q-12 0 -24.5 -5t-22 -14t-15.5 -21t-6 -27q0 -20 12.5 -32t32.5 -12q12 0 24 5
t22 14t16 21.5t6 26.5q0 20 -12 32t-33 12z" />
    <glyph glyph-name="uring" unicode="&#x16f;" 
d="M320 23q-11 0 -20.5 -5t-21.5 -11.5t-28.5 -11.5t-40.5 -5q-39 0 -72 11t-55 33t-30.5 54.5t0.5 75.5l67 316q2 8 9.5 14t15.5 6h19q8 0 12.5 -6t2.5 -14l-67 -316q-7 -32 -2 -53.5t19.5 -35.5t36.5 -20t49 -6q54 0 95.5 25t54.5 85l68 321q2 8 9.5 14t15.5 6h19
q8 0 12.5 -6t2.5 -14l-97 -460q-2 -8 -9.5 -14t-15.5 -6h-16q-7 0 -12 7q-4 5 -8 10.5t-13 5.5zM228 650q0 26 10.5 49.5t28 41.5t41 28.5t50.5 10.5q42 0 67.5 -27t25.5 -68q0 -24 -10.5 -47t-28.5 -40t-41 -27.5t-47 -10.5q-45 0 -70.5 25.5t-25.5 64.5zM351 725
q-12 0 -24.5 -5t-22 -14t-15.5 -21t-6 -27q0 -20 12.5 -32t32.5 -12q12 0 24 5t22 14t16 21.5t6 26.5q0 20 -12 32t-33 12z" />
    <glyph glyph-name="Uhungarumlaut" unicode="&#x170;" 
d="M96 207q-6 -30 -0.5 -57.5t21.5 -48t41 -33t57 -12.5q39 0 70 12.5t54 33t38 48t21 57.5l100 473q2 8 9.5 14t15.5 6h24q8 0 12.5 -6t2.5 -14l-100 -473q-9 -45 -30.5 -84t-53 -68t-72.5 -46t-91 -17q-45 0 -82.5 17t-63 46t-36 68t-1.5 84l100 473q2 8 9.5 14t15.5 6h24
q8 0 12.5 -6t2.5 -14zM413 895q10 0 11 -8t-5 -13l-131 -112q-6 -5 -12.5 -8.5t-20.5 -3.5h-19q-10 0 -12.5 7.5t2.5 12.5l100 109q5 5 11.5 10.5t17.5 5.5h58zM572 895q10 0 11 -8t-5 -13l-131 -112q-6 -5 -12.5 -8.5t-20.5 -3.5h-19q-10 0 -12.5 7.5t2.5 12.5l100 109
q5 5 11.5 10.5t17.5 5.5h58z" />
    <glyph glyph-name="uhungarumlaut" unicode="&#x171;" 
d="M320 23q-11 0 -20.5 -5t-21.5 -11.5t-28.5 -11.5t-40.5 -5q-39 0 -72 11t-55 33t-30.5 54.5t0.5 75.5l67 316q2 8 9.5 14t15.5 6h19q8 0 12.5 -6t2.5 -14l-67 -316q-7 -32 -2 -53.5t19.5 -35.5t36.5 -20t49 -6q54 0 95.5 25t54.5 85l68 321q2 8 9.5 14t15.5 6h19
q8 0 12.5 -6t2.5 -14l-97 -460q-2 -8 -9.5 -14t-15.5 -6h-16q-7 0 -12 7q-4 5 -8 10.5t-13 5.5zM400 730q10 0 11 -8t-5 -13l-131 -112q-6 -5 -12.5 -8.5t-20.5 -3.5h-19q-10 0 -12.5 7.5t2.5 12.5l100 109q5 5 11.5 10.5t17.5 5.5h58zM559 730q10 0 11 -8t-5 -13l-131 -112
q-6 -5 -12.5 -8.5t-20.5 -3.5h-19q-10 0 -12.5 7.5t2.5 12.5l100 109q5 5 11.5 10.5t17.5 5.5h58z" />
    <glyph glyph-name="Uogonek" unicode="&#x172;" 
d="M378 53q-18 -17 -41 -30t-44 -28.5t-35.5 -36.5t-14.5 -52q0 -32 24 -44t67 -12q8 0 12.5 -6t2.5 -14l-4 -20q-2 -8 -9 -14t-15 -6q-63 0 -102 29.5t-39 80.5q0 27 9.5 50t26.5 42h-1q-45 0 -82.5 17t-63 46t-36 68t-1.5 84l100 473q2 8 9.5 14t15.5 6h24q8 0 12.5 -6
t2.5 -14l-100 -473q-6 -30 -0.5 -57.5t21.5 -48t41 -33t57 -12.5q39 0 70 12.5t54 33t38 48t21 57.5l100 473q2 8 9.5 14t15.5 6h24q8 0 12.5 -6t2.5 -14l-100 -473q-20 -93 -84 -154z" />
    <glyph glyph-name="uogonek" unicode="&#x173;" 
d="M371 0q-23 0 -45 -5.5t-40 -17.5t-29 -29.5t-11 -41.5q0 -32 24 -44t67 -12q8 0 12.5 -6t2.5 -14l-4 -20q-2 -8 -9 -14t-15 -6q-63 0 -102 29.5t-39 80.5q0 29 11.5 51.5t31.5 39.5q-4 0 -8 -0.5t-9 -0.5q-39 0 -72 11t-55 33t-30.5 54.5t0.5 75.5l67 316q2 8 9.5 14
t15.5 6h19q8 0 12.5 -6t2.5 -14l-67 -316q-7 -32 -2 -53.5t19.5 -35.5t36.5 -20t49 -6q54 0 95.5 25t54.5 85l68 321q2 8 9.5 14t15.5 6h19q8 0 12.5 -6t2.5 -14l-97 -460q-2 -8 -8.5 -14t-14.5 -6z" />
    <glyph glyph-name="Wcircumflex" unicode="&#x174;" 
d="M320 111q0 -5 5 -5t7 5l184 574q3 8 9 11.5t13 3.5h25q12 0 15 -6t1 -14l-221 -665q-6 -15 -22 -15h-70q-7 0 -12 3.5t-4 11.5l35 362q0 4 -2 4t-4 -4l-132 -362q-6 -15 -22 -15h-68q-7 0 -12 3.5t-4 11.5l69 665q1 8 6.5 14t17.5 6h24q7 0 12 -3.5t4 -11.5l-63 -574
q-1 -5 4.5 -5t7.5 5l139 374q6 15 22 15h46q7 0 12 -3.5t4 -11.5zM280 766q-5 -5 -14 -10.5t-20 -5.5h-47q-10 0 -11 8t5 13l141 112q6 5 12.5 8.5t20.5 3.5h21q14 0 18.5 -4t8.5 -8l95 -112q4 -4 -1 -12.5t-15 -8.5h-39q-11 0 -17.5 5.5t-10.5 10.5l-53 65q-6 7 -14 0z" />
    <glyph glyph-name="wcircumflex" unicode="&#x175;" 
d="M305 390q16 0 16 -15l-4 -252q0 -6 6 -6t8 6l143 362q4 9 10 12t13 3h21q12 0 14.5 -7.5t-0.5 -15.5l-192 -462q-3 -8 -9.5 -11.5t-13.5 -3.5h-35q-15 0 -15 15l5 258q0 5 -5 5t-7 -5l-103 -258q-3 -8 -9.5 -11.5t-13.5 -3.5h-39q-15 0 -15 15l4 462q0 8 6 15.5t18 7.5
h21q15 0 15 -15l-9 -362q0 -6 6 -6t8 6l102 252q7 15 22 15h32zM250 601q-5 -5 -14 -10.5t-20 -5.5h-47q-10 0 -11 8t5 13l141 112q6 5 12.5 8.5t20.5 3.5h21q14 0 18.5 -4t8.5 -8l95 -112q4 -4 -1 -12.5t-15 -8.5h-39q-11 0 -17.5 5.5t-10.5 10.5l-53 65q-6 7 -14 0z" />
    <glyph glyph-name="Ycircumflex" unicode="&#x176;" 
d="M253 328q1 -4 3.5 -4t4.5 4l213 357q8 15 22 15h36q10 0 13.5 -8.5t-3.5 -19.5l-267 -431l-47 -221q-2 -8 -9 -14t-15 -6h-26q-8 0 -13 6t-3 14l47 220l-85 432q-2 11 5 19.5t17 8.5h28q13 0 16 -15zM290 766q-5 -5 -14 -10.5t-20 -5.5h-47q-10 0 -11 8t5 13l141 112
q6 5 12.5 8.5t20.5 3.5h21q14 0 18.5 -4t8.5 -8l95 -112q4 -4 -1 -12.5t-15 -8.5h-39q-11 0 -17.5 5.5t-10.5 10.5l-53 65q-6 7 -14 0z" />
    <glyph glyph-name="ycircumflex" unicode="&#x177;" 
d="M163 -119q-26 -45 -60.5 -63t-76.5 -18h-22q-8 0 -13 6t-3 14l4 18q2 8 9.5 14t15.5 6h22q21 0 41.5 13t41.5 49l61 104q4 7 3 13l-95 440q-2 8 5 15.5t19 7.5h23q13 0 16 -15l75 -368q1 -4 3.5 -4t4.5 4l213 368q8 15 22 15h33q12 0 15.5 -7.5t-1.5 -15.5zM255 601
q-5 -5 -14 -10.5t-20 -5.5h-47q-10 0 -11 8t5 13l141 112q6 5 12.5 8.5t20.5 3.5h21q14 0 18.5 -4t8.5 -8l95 -112q4 -4 -1 -12.5t-15 -8.5h-39q-11 0 -17.5 5.5t-10.5 10.5l-53 65q-6 7 -14 0z" />
    <glyph glyph-name="Ydieresis" unicode="&#x178;" 
d="M253 328q1 -4 3.5 -4t4.5 4l213 357q8 15 22 15h36q10 0 13.5 -8.5t-3.5 -19.5l-267 -431l-47 -221q-2 -8 -9 -14t-15 -6h-26q-8 0 -13 6t-3 14l47 220l-85 432q-2 11 5 19.5t17 8.5h28q13 0 16 -15zM305 778q-4 -16 -20 -16h-52q-16 0 -12 16l11 53q2 6 7.5 11t12.5 5
h52q7 0 10.5 -5t1.5 -11zM476 778q-4 -16 -20 -16h-52q-16 0 -12 16l11 53q2 6 7.5 11t12.5 5h52q7 0 10.5 -5t1.5 -11z" />
    <glyph glyph-name="Zacute" unicode="&#x179;" 
d="M114 75q-3 -4 -2 -7t6 -3h307q8 0 13 -6t3 -14l-6 -27q-2 -8 -9 -13t-15 -5h-381q-8 0 -13 6t-3 14l9 41q3 8 9 16l435 549q3 4 2 7t-6 3h-289q-8 0 -12.5 6t-2.5 14l5 24q2 8 9 14t15 6h352q8 0 13 -6t3 -14l-10 -44q-1 -8 -8 -16zM503 895q10 0 11 -8t-5 -13l-131 -112
q-6 -5 -12.5 -8.5t-20.5 -3.5h-19q-10 0 -12.5 7.5t2.5 12.5l100 109q5 5 11.5 10.5t17.5 5.5h58z" />
    <glyph glyph-name="zacute" unicode="&#x17a;" 
d="M404 432q4 4 3 7t-6 3h-266q-8 0 -12.5 6t-2.5 14l3 18q2 8 9.5 14t15.5 6h330q8 0 12.5 -6t2.5 -14l-6 -29q-3 -14 -11.5 -23.5t-16.5 -17.5l-343 -342q-4 -4 -3 -7t6 -3h275q8 0 12.5 -6t2.5 -14l-3 -18q-2 -8 -9.5 -14t-15.5 -6h-350q-8 0 -12 6t-2 14l6 25q2 10 5 15
t14 16zM464 730q10 0 11 -8t-5 -13l-131 -112q-6 -5 -12.5 -8.5t-20.5 -3.5h-19q-10 0 -12.5 7.5t2.5 12.5l100 109q5 5 11.5 10.5t17.5 5.5h58z" />
    <glyph glyph-name="Zdotaccent" unicode="&#x17b;" 
d="M114 75q-3 -4 -2 -7t6 -3h307q8 0 13 -6t3 -14l-6 -27q-2 -8 -9 -13t-15 -5h-381q-8 0 -13 6t-3 14l9 41q3 8 9 16l435 549q3 4 2 7t-6 3h-289q-8 0 -12.5 6t-2.5 14l5 24q2 8 9 14t15 6h352q8 0 13 -6t3 -14l-10 -44q-1 -8 -8 -16zM401 770q-4 -16 -19 -16h-58
q-7 0 -11 4.5t-2 11.5l13 59q1 6 6.5 11t12.5 5h58q7 0 11 -5t2 -11z" />
    <glyph glyph-name="zdotaccent" unicode="&#x17c;" 
d="M404 432q4 4 3 7t-6 3h-266q-8 0 -12.5 6t-2.5 14l3 18q2 8 9.5 14t15.5 6h330q8 0 12.5 -6t2.5 -14l-6 -29q-3 -14 -11.5 -23.5t-16.5 -17.5l-343 -342q-4 -4 -3 -7t6 -3h275q8 0 12.5 -6t2.5 -14l-3 -18q-2 -8 -9.5 -14t-15.5 -6h-350q-8 0 -12 6t-2 14l6 25q2 10 5 15
t14 16zM373 632q-4 -16 -19 -16h-58q-7 0 -11 4.5t-2 11.5l13 59q1 6 6.5 11t12.5 5h58q7 0 11 -5t2 -11z" />
    <glyph glyph-name="Zcaron" unicode="&#x17d;" 
d="M114 75q-3 -4 -2 -7t6 -3h307q8 0 13 -6t3 -14l-6 -27q-2 -8 -9 -13t-15 -5h-381q-8 0 -13 6t-3 14l9 41q3 8 9 16l435 549q3 4 2 7t-6 3h-289q-8 0 -12.5 6t-2.5 14l5 24q2 8 9 14t15 6h352q8 0 13 -6t3 -14l-10 -44q-1 -8 -8 -16zM374 814q6 -7 14 0l82 65q5 5 14 10.5
t20 5.5h45q10 0 11 -8t-5 -13l-141 -112q-6 -5 -12.5 -8.5t-19.5 -3.5h-22q-14 0 -18.5 4t-8.5 8l-95 112q-4 4 1 12.5t15 8.5h40q11 0 17.5 -5.5t10.5 -10.5z" />
    <glyph glyph-name="zcaron" unicode="&#x17e;" 
d="M404 432q4 4 3 7t-6 3h-266q-8 0 -12.5 6t-2.5 14l3 18q2 8 9.5 14t15.5 6h330q8 0 12.5 -6t2.5 -14l-6 -29q-3 -14 -11.5 -23.5t-16.5 -17.5l-343 -342q-4 -4 -3 -7t6 -3h275q8 0 12.5 -6t2.5 -14l-3 -18q-2 -8 -9.5 -14t-15.5 -6h-350q-8 0 -12 6t-2 14l6 25q2 10 5 15
t14 16zM321 649q6 -7 14 0l82 65q5 5 14 10.5t20 5.5h45q10 0 11 -8t-5 -13l-141 -112q-6 -5 -12.5 -8.5t-19.5 -3.5h-22q-14 0 -18.5 4t-8.5 8l-95 112q-4 4 1 12.5t15 8.5h40q11 0 17.5 -5.5t10.5 -10.5z" />
    <glyph glyph-name="longs" unicode="&#x17f;" 
d="M209 20q-2 -8 -9.5 -14t-15.5 -6h-20q-8 0 -12.5 6t-2.5 14l86 406q2 10 -8 10h-137q-8 0 -13 6t-3 14l4 19q2 8 9.5 14t15.5 6h137q9 0 12 10l3 15q13 54 32 89.5t44.5 57.5t59 31t74.5 9h45q8 0 12.5 -6t2.5 -14l-3 -16q-2 -8 -9 -14t-15 -6h-45q-32 0 -54.5 -6.5
t-38.5 -22t-26.5 -40.5t-18.5 -62z" />
    <glyph glyph-name="florin" unicode="&#x192;" 
d="M261 426q2 10 -8 10h-127q-8 0 -12.5 6t-2.5 14l4 19q2 8 9 14t15 6h127q10 0 12 10l3 15q20 90 72 138.5t138 48.5h55q8 0 13 -6t3 -14l-4 -16q-2 -8 -9 -14t-15 -6h-55q-32 0 -55 -10t-39.5 -27t-27 -41.5t-16.5 -52.5l-3 -15q-2 -10 8 -10h144q8 0 13 -6t3 -14l-4 -19
q-2 -8 -9.5 -14t-15.5 -6h-144q-10 0 -12 -10l-97 -456q-9 -41 -21.5 -73t-33.5 -53.5t-51.5 -32.5t-73.5 -11h-31q-8 0 -13 6t-3 14l5 20q2 8 8.5 14t14.5 6h34q24 0 41 5.5t29 18.5t20.5 34t14.5 52z" />
    <glyph glyph-name="Aringacute" unicode="&#x1fa;" 
d="M262 820q0 24 9 46.5t24.5 40t37 28.5t45.5 14l91 100q5 5 11.5 10.5t17.5 5.5h58q10 0 11 -8t-5 -13l-124 -105q22 -12 34.5 -34t12.5 -50q0 -24 -10.5 -47t-28.5 -40t-41 -27.5t-47 -10.5q-45 0 -70.5 25.5t-25.5 64.5zM385 895q-12 0 -24.5 -5t-22 -14t-15.5 -21
t-6 -27q0 -20 12.5 -32t32.5 -12q12 0 24 5t22 14t16 21.5t6 26.5q0 20 -12 32t-33 12zM35 15q-3 -6 -8.5 -10.5t-12.5 -4.5h-27q-12 0 -15.5 6.5t-0.5 13.5l332 665q7 15 22 15h50q14 0 16 -15l49 -665q1 -7 -5.5 -13.5t-18.5 -6.5h-25q-14 0 -16 15l-11 169q-2 14 -16 14
h-206q-14 0 -22 -14zM165 271q-6 -11 5 -11h176q11 0 11 11l-17 340q0 6 -3 6h-2q-2 0 -5 -6z" />
    <glyph glyph-name="aringacute" unicode="&#x1fb;" 
d="M223 650q0 24 9 46.5t24.5 40t37 28.5t45.5 14l91 100q5 5 11.5 10.5t17.5 5.5h58q10 0 11 -8t-5 -13l-124 -105q22 -12 34.5 -34t12.5 -50q0 -24 -10.5 -47t-28.5 -40t-41 -27.5t-47 -10.5q-45 0 -70.5 25.5t-25.5 64.5zM346 725q-12 0 -24.5 -5t-22 -14t-15.5 -21
t-6 -27q0 -20 12.5 -32t32.5 -12q12 0 24 5t22 14t16 21.5t6 26.5q0 20 -12 32t-33 12zM393 330q0 53 -27 87t-75 34q-41 0 -76 -20t-61 -55t-41 -83.5t-15 -106.5q0 -28 8 -53t23 -43.5t35.5 -29t44.5 -10.5q49 0 84 28t57 70t32.5 91t10.5 91zM201 -10q-34 0 -63.5 14
t-51.5 39.5t-35 61.5t-13 81q0 60 18.5 117.5t51.5 103.5t80 74t104 28q42 0 68 -14.5t39 -31.5q4 -5 7 -9t8 -4q6 0 10 8q4 9 7.5 17.5t5.5 14.5t7 8t10 2h21q8 0 13 -6t3 -14l-99 -460q-2 -8 -9 -14t-15 -6h-15q-9 0 -14 7q-2 3 -2 8.5v11t-1 9.5t-5 4q-6 0 -14.5 -8
t-23.5 -17t-37.5 -17t-54.5 -8z" />
    <glyph glyph-name="AEacute" unicode="&#x1fc;" 
d="M275 188q2 10 -8 10h-128q-14 0 -22 -14l-85 -169q-7 -15 -21 -15h-25q-12 0 -15.5 6.5t-0.5 13.5l332 665q7 15 22 15h278q8 0 13 -6t3 -14l-5 -24q-2 -8 -9.5 -14t-15.5 -6h-144q-10 0 -12 -10l-48 -227q-2 -10 8 -10h133q8 0 13 -6t3 -14l-5 -23q-2 -8 -9.5 -14
t-15.5 -6h-133q-9 0 -12 -10l-51 -242q-2 -10 8 -10h146q8 0 12.5 -6t2.5 -14l-5 -24q-2 -8 -9 -14t-15 -6h-200q-8 0 -13 6t-3 14zM280 260q10 0 12 10l72 337q2 10 -8 10h-21q-5 0 -7.5 -3.5t-4.5 -6.5l-161 -336q-6 -11 5 -11h113zM593 895q10 0 11 -8t-5 -13l-131 -112
q-6 -5 -12.5 -8.5t-20.5 -3.5h-19q-10 0 -12.5 7.5t2.5 12.5l100 109q5 5 11.5 10.5t17.5 5.5h58z" />
    <glyph glyph-name="aeacute" unicode="&#x1fd;" 
d="M243 38q-4 8 -18 8t-22 -9q-20 -22 -42 -34.5t-55 -12.5q-39 0 -65 14t-40.5 36.5t-18 51t2.5 58.5t21 56.5t37 46.5t51.5 31.5t65.5 11.5h77q10 0 12 10l9 39q11 49 -2 79.5t-50 30.5q-41 0 -67.5 -24t-34.5 -64q-2 -13 -10.5 -15t-15.5 -2h-14q-21 0 -16 20
q14 66 58 103t104 37q35 0 61 -12.5t37 -33.5q4 -7 13 -7t17 7q23 21 47.5 33.5t59.5 12.5q34 0 59 -15.5t40 -42.5t18.5 -63.5t-5.5 -78.5l-13 -64q-2 -8 -9.5 -14t-15.5 -6h-217q-9 0 -12 -10q-8 -36 -8.5 -66.5t7 -53t23 -35t40.5 -12.5q21 0 38 8.5t30 22t22.5 30.5
t16.5 33q5 10 12 13.5t14 3.5h17q8 0 12.5 -4.5t0.5 -15.5q-11 -29 -26.5 -56t-36.5 -48t-46.5 -33.5t-55.5 -12.5q-37 0 -65.5 12.5t-41.5 35.5zM159 241q-43 0 -75.5 -25t-40.5 -65q-11 -51 6 -78t60 -27q39 0 71.5 37.5t46.5 101.5l9 46q3 10 -7 10h-70zM308 292
q-2 -10 8 -10h170q10 0 12 10q15 70 2.5 114.5t-62.5 44.5q-45 0 -79.5 -42t-50.5 -117zM474 730q10 0 11 -8t-5 -13l-131 -112q-6 -5 -12.5 -8.5t-20.5 -3.5h-19q-10 0 -12.5 7.5t2.5 12.5l100 109q5 5 11.5 10.5t17.5 5.5h58z" />
    <glyph glyph-name="Oslashacute" unicode="&#x1fe;" 
d="M513 895q10 0 11 -8t-5 -13l-131 -112q-6 -5 -12.5 -8.5t-20.5 -3.5h-19q-10 0 -12.5 7.5t2.5 12.5l100 109q5 5 11.5 10.5t17.5 5.5h58zM74 15q-11 -15 -23 -15h-24q-10 0 -15 7.5t2 17.5l29 42q4 5 3 7l-2 4q-30 50 -24 122q3 30 9 69.5t14.5 81t18.5 80.5t21 69
q15 41 37 78.5t53 66.5t71.5 46t92.5 17q36 0 66.5 -10t53.5 -27l4 -2t6 5l7 11q10 15 22 15h26q10 0 14 -7t-3 -17l-30 -43q-4 -5 -3 -7l2 -4q16 -26 23 -57.5t4 -64.5q-2 -30 -8.5 -69t-15 -80.5t-19 -81t-20.5 -69.5q-34 -97 -96.5 -152.5t-157.5 -55.5q-74 0 -123 36
q-1 1 -3.5 1.5t-4.5 -3.5zM212 56q46 0 78 14.5t53.5 36t34.5 46.5t21 47q11 31 21.5 70t19 80t14.5 80t8 70q1 28 -5 55q-1 3 -3.5 3.5t-5.5 -4.5l-322 -463q-3 -4 -1.5 -5.5l2.5 -2.5q15 -12 35.5 -19.5t49.5 -7.5zM337 644q-40 0 -70.5 -12t-53 -32.5t-38 -46.5
t-25.5 -53q-11 -31 -22 -70t-20 -80t-15.5 -80t-8.5 -70q-2 -26 6 -55q2 -7 7 0l322 462q4 6 0 10q-27 27 -82 27z" />
    <glyph glyph-name="oslashacute" unicode="&#x1ff;" 
d="M464 730q10 0 11 -8t-5 -13l-131 -112q-6 -5 -12.5 -8.5t-20.5 -3.5h-19q-10 0 -12.5 7.5t2.5 12.5l100 109q5 5 11.5 10.5t17.5 5.5h58zM63 0q-10 0 -15 6t3 16l24 29q3 5 1 7q-17 25 -24.5 56t-2.5 66q4 30 12.5 70t16.5 70q12 39 32.5 74t49.5 60.5t66 40.5t82 15
q35 0 63.5 -9t50.5 -26q3 -3 6 1l7 9q12 15 23 15h27q10 0 13.5 -7.5t-4.5 -16.5l-31 -37q-3 -5 -1 -7q29 -48 20 -112q-4 -30 -12.5 -70t-16.5 -70q-12 -39 -32.5 -74t-49.5 -60.5t-66 -40.5t-82 -15q-30 0 -55.5 7t-45.5 18q-5 3 -7 0q-6 -8 -9.5 -11.5t-11.5 -3.5h-31z
M308 451q-40 0 -69 -13t-49 -32.5t-32.5 -42.5t-18.5 -43q-9 -31 -17 -70t-12 -70q-2 -17 -0.5 -34.5t8.5 -34.5q3 -5 6 -1l259 312q2 3 1 4.5t-2 2.5q-13 10 -31 16t-43 6zM223 49q40 0 69 13t49 32.5t32.5 42.5t18.5 43q9 31 17.5 70t11.5 70q3 28 -4 56q0 2 -1.5 2.5
t-3.5 -2.5l-253 -307q-2 -3 -1 -4l2 -2q25 -14 63 -14z" />
    <glyph glyph-name="Scommaaccent" unicode="&#x218;" 
d="M394 231q0 37 -26.5 65t-94.5 49q-25 8 -53.5 19t-53 29t-40.5 45t-16 67q0 46 20 83.5t53 64t75.5 41t86.5 14.5q49 0 83.5 -15t54.5 -40.5t25 -59.5t-4 -73l-3 -13q-2 -8 -9 -14t-15 -6h-24q-8 0 -13 6t-3 14l3 13q6 26 3.5 48.5t-15.5 39.5t-36 26.5t-57 9.5t-63 -10
t-50.5 -28t-33.5 -42.5t-12 -53.5q0 -27 10.5 -44t29.5 -28.5t43.5 -20t53.5 -19.5q32 -12 59 -26t47 -33.5t31 -45.5t11 -62q0 -47 -18 -90t-51 -76t-79 -53t-103 -20q-48 0 -86 16.5t-62.5 44.5t-34 66t-1.5 81l3 16q2 8 9 14t15 6h25q8 0 13 -6t3 -14l-3 -16
q-5 -26 -1 -52t18.5 -46.5t39.5 -33t62 -12.5q42 0 76 13t58 36.5t37 55.5t13 70zM144 -150q-8 0 -13 6t-3 14l14 65q2 8 9 14t15 6h60q8 0 13 -6t3 -14l-15 -70q-5 -21 -12 -31.5t-15 -19.5l-32 -36q-5 -5 -12 -11.5t-21 -6.5h-10q-9 0 -13 7.5t3 16.5l39 51q4 5 2.5 10
t-7.5 5h-5z" />
    <glyph glyph-name="scommaaccent" unicode="&#x219;" 
d="M40 163q2 8 9 14t15 6h19q8 0 12.5 -6t3.5 -14q-4 -29 3.5 -50.5t23.5 -36t39.5 -22t52.5 -7.5t55 8t45.5 22t31 34t11.5 44q0 26 -13.5 41.5t-34 24t-43 13t-40.5 8.5q-27 6 -51 14.5t-42 23t-28.5 35t-10.5 50.5q0 27 13.5 53.5t38.5 46.5t59 32.5t76 12.5
q34 0 66.5 -10t56.5 -29.5t35.5 -47.5t4.5 -63q-2 -8 -9 -14t-15 -6h-19q-8 0 -13 6t-3 15q4 18 -2 35t-20 30t-35 20.5t-47 7.5q-52 0 -88 -24t-36 -65q0 -22 13 -34.5t32 -20t40.5 -11.5t39.5 -7q27 -5 52 -15t44.5 -26t31 -38.5t11.5 -52.5q0 -40 -17.5 -71.5t-47 -53.5
t-66.5 -33.5t-76 -11.5q-40 0 -75 11t-60 33t-37 54.5t-6 74.5zM164 -150q-8 0 -13 6t-3 14l14 65q2 8 9 14t15 6h60q8 0 13 -6t3 -14l-15 -70q-5 -21 -12 -31.5t-15 -19.5l-32 -36q-5 -5 -12 -11.5t-21 -6.5h-10q-9 0 -13 7.5t3 16.5l39 51q4 5 2.5 10t-7.5 5h-5z" />
    <glyph glyph-name="uni021A" unicode="&#x21a;" 
d="M123 636q-8 0 -12.5 6t-2.5 14l5 24q2 8 9 14t15 6h410q8 0 13 -6t3 -14l-5 -24q-2 -8 -9.5 -14t-15.5 -6h-162q-10 0 -12 -10l-129 -606q-2 -8 -9 -14t-15 -6h-25q-8 0 -13 6t-3 14l129 606q2 10 -8 10h-163zM134 -150q-8 0 -13 6t-3 14l14 65q2 8 9 14t15 6h60
q8 0 13 -6t3 -14l-15 -70q-5 -21 -12 -31.5t-15 -19.5l-32 -36q-5 -5 -12 -11.5t-21 -6.5h-10q-9 0 -13 7.5t3 16.5l39 51q4 5 2.5 10t-7.5 5h-5z" />
    <glyph glyph-name="uni021B" unicode="&#x21b;" 
d="M214 153q-6 -26 -2.5 -45.5t14 -32.5t26.5 -19t35 -6q43 0 73.5 29t39.5 71q2 8 9 14t15 6h21q8 0 13 -6t3 -14q-7 -34 -23 -63t-39 -50.5t-52 -34t-62 -12.5q-38 0 -65.5 12.5t-45 34.5t-23 51t1.5 62l59 276q2 10 -8 10h-111q-8 0 -13 6t-3 14l4 19q2 8 9.5 14t15.5 6
h111q10 0 12 10l33 155q2 8 9 14t15 6h20q8 0 13 -6t3 -14l-33 -155q-2 -10 8 -10h166q8 0 12.5 -6t2.5 -14l-4 -19q-2 -8 -9 -14t-15 -6h-166q-10 0 -12 -10zM204 -150q-8 0 -13 6t-3 14l14 65q2 8 9 14t15 6h60q8 0 13 -6t3 -14l-15 -70q-5 -21 -12 -31.5t-15 -19.5
l-32 -36q-5 -5 -12 -11.5t-21 -6.5h-10q-9 0 -13 7.5t3 16.5l39 51q4 5 2.5 10t-7.5 5h-5z" />
    <glyph glyph-name="hsuperior" unicode="&#x2b0;" 
d="M161 350q-10 0 -8 10l72 334q2 10 11 10h38q10 0 8 -10l-21 -97q-1 -3 2 -6.5t8 -3.5q8 0 19 9t29 9q28 0 44.5 -8.5t25 -22.5t9 -32.5t-3.5 -38.5l-31 -143q-2 -10 -11 -10h-38q-11 0 -9 10l31 143q5 20 -4.5 32t-33.5 12q-20 0 -36 -12t-20 -29l-31 -146
q-2 -10 -12 -10h-38z" />
    <glyph glyph-name="jsuperior" unicode="&#x2b2;" 
d="M387 655q-2 -9 -11 -9h-40q-8 0 -6 9l9 41q2 8 9 8h41q4 0 6 -3t1 -6zM317 321q-8 -41 -33 -58.5t-58 -17.5q-17 0 -31 6.5t-24 17t-14.5 25t-0.5 31.5q2 10 12 10h37q10 0 8 -10q-2 -9 2.5 -16t15.5 -7q10 0 17 5.5t9 13.5l47 221q2 5 -4 5h-71q-10 0 -8 10l7 33
q2 10 12 10h126q10 0 8 -10z" />
    <glyph glyph-name="wsuperior" unicode="&#x2b7;" 
d="M280 545q7 0 8 -8l9 -77q0 -4 2.5 -4t4.5 3l41 134q3 7 12 7h36q6 0 7.5 -4t-0.5 -8l-88 -230q-3 -8 -11 -8h-36q-7 0 -8 7l-9 71q-2 7 -6 1l-40 -71q-5 -8 -11 -8h-35q-3 0 -5.5 2t-1.5 6l10 230q0 4 3 8t9 4h36q9 0 8 -8l-15 -132q0 -4 2.5 -4t4.5 3l42 78q4 8 11 8h20
z" />
    <glyph glyph-name="ysuperior" unicode="&#x2b8;" 
d="M267 336q-11 -17 -21 -32.5t-24 -27.5t-33.5 -19t-48.5 -7h-1q-10 0 -8 10l8 36q2 10 12 10h6q19 0 31.5 12t26.5 38l5 9q2 4 2 6l-31 217q-1 5 2.5 8.5t9.5 3.5h42q7 0 7 -8l19 -143q0 -7 4 -1l81 145q4 7 11 7h45q6 0 7 -3.5t-1 -8.5z" />
    <glyph glyph-name="apostrophemod" unicode="&#x2bc;" 
d="M241 590q-8 0 -13 6t-3 14l15 70q2 8 9 14t15 6h70q8 0 13 -6t3 -14l-16 -75q-5 -21 -12 -31.5t-15 -19.5l-52 -56q-5 -5 -12 -11.5t-21 -6.5h-10q-9 0 -12.5 7.5t2.5 16.5l53 71q5 5 3.5 10t-7.5 5h-10z" />
    <glyph glyph-name="circumflex" unicode="&#x2c6;" 
d="M205 601q-5 -5 -14 -10.5t-20 -5.5h-47q-10 0 -11 8t5 13l141 112q6 5 12.5 8.5t20.5 3.5h21q14 0 18.5 -4t8.5 -8l95 -112q4 -4 -1 -12.5t-15 -8.5h-39q-11 0 -17.5 5.5t-10.5 10.5l-53 65q-6 7 -14 0z" />
    <glyph glyph-name="caron" unicode="&#x2c7;" 
d="M250 649q6 -7 14 0l82 65q5 5 14 10.5t20 5.5h45q10 0 11 -8t-5 -13l-141 -112q-6 -5 -12.5 -8.5t-19.5 -3.5h-22q-14 0 -18.5 4t-8.5 8l-95 112q-4 4 1 12.5t15 8.5h40q11 0 17.5 -5.5t10.5 -10.5z" />
    <glyph glyph-name="breve" unicode="&#x2d8;" 
d="M367 713q2 7 7.5 12t13.5 5h23q7 0 11 -5t2 -12q-6 -27 -19.5 -50t-34 -40.5t-46.5 -27.5t-56 -10t-54.5 10t-41 27.5t-23 40.5t-0.5 50q2 7 8 12t13 5h23q8 0 11.5 -5t1.5 -12q-7 -35 11.5 -55.5t53.5 -20.5t62 20.5t34 55.5z" />
    <glyph glyph-name="dotaccent" unicode="&#x2d9;" 
d="M313 632q-4 -16 -19 -16h-58q-7 0 -11 4.5t-2 11.5l13 59q1 6 6.5 11t12.5 5h58q7 0 11 -5t2 -11z" />
    <glyph glyph-name="ring" unicode="&#x2da;" 
d="M163 650q0 26 10.5 49.5t28 41.5t41 28.5t50.5 10.5q42 0 67.5 -27t25.5 -68q0 -24 -10.5 -47t-28.5 -40t-41 -27.5t-47 -10.5q-45 0 -70.5 25.5t-25.5 64.5zM286 725q-12 0 -24.5 -5t-22 -14t-15.5 -21t-6 -27q0 -20 12.5 -32t32.5 -12q12 0 24 5t22 14t16 21.5t6 26.5
q0 20 -12 32t-33 12z" />
    <glyph glyph-name="ogonek" unicode="&#x2db;" 
d="M329 0q-21 0 -43 -5.5t-39.5 -17.5t-28.5 -29.5t-11 -41.5q0 -32 24 -44t67 -12q8 0 12.5 -6t2.5 -14l-4 -20q-2 -8 -9 -14t-15 -6q-63 0 -102 29.5t-39 80.5q0 37 18 67t46.5 50.5t63.5 31.5t70 11q8 0 13 -6t3 -14l-4 -20q-2 -8 -9.5 -14t-15.5 -6z" />
    <glyph glyph-name="tilde" unicode="&#x2dc;" 
d="M350 676q19 0 30.5 6.5t19.5 14.5t16.5 4t5.5 -18l-5 -24q-4 -20 -27.5 -35.5t-53.5 -15.5q-24 0 -38.5 4t-27.5 8.5t-28.5 8.5t-40.5 4q-17 0 -28.5 -5.5t-22.5 -15.5q-8 -7 -16.5 -3.5t-5.5 17.5l5 24q4 20 28 35.5t54 15.5q24 0 38.5 -4t27.5 -8.5t28 -8.5t41 -4z" />
    <glyph glyph-name="hungarumlaut" unicode="&#x2dd;" 
d="M298 730q10 0 11 -8t-5 -13l-131 -112q-6 -5 -12.5 -8.5t-20.5 -3.5h-19q-10 0 -12.5 7.5t2.5 12.5l100 109q5 5 11.5 10.5t17.5 5.5h58zM457 730q10 0 11 -8t-5 -13l-131 -112q-6 -5 -12.5 -8.5t-20.5 -3.5h-19q-10 0 -12.5 7.5t2.5 12.5l100 109q5 5 11.5 10.5
t17.5 5.5h58z" />
    <glyph glyph-name="xsuperior" unicode="&#x2e3;" 
d="M213 355q-2 -2 -4 -3.5t-8 -1.5h-46q-8 0 -9 4.5t4 11.5l93 115q3 5 2 7l-46 96q-3 5 -0.5 10.5t12.5 5.5h37q6 0 7.5 -1.5t2.5 -3.5l29 -59q2 -5 4 0l49 59q2 2 4 3.5t7 1.5h45q7 0 8 -5.5t-4 -11.5l-81 -99q-3 -4 -1 -7l55 -110q3 -6 -0.5 -11.5t-10.5 -5.5h-41
q-8 0 -10 5l-33 77q-2 4 -4 0z" />
    <glyph glyph-name="Delta" unicode="&#x394;" 
d="M33 0q-8 0 -13 6t-3 14l7 31q2 8 6.5 16.5t6.5 12.5l328 605q9 15 22 15h44q14 0 16 -15l71 -605q1 -4 2 -12.5t-1 -16.5l-7 -31q-2 -8 -9 -14t-15 -6h-455zM442 57q6 0 8 4t1 8l-52 553q0 6 -4 6h-2q-5 0 -8 -6l-286 -553q-2 -4 -2.5 -8t5.5 -4h340z" />
    <glyph glyph-name="Omega" unicode="&#x3a4;" 
d="M327 72q-9 -6 -9 -14t11 -8h87q8 0 13 -6t3 -14l-2 -10q-2 -8 -9 -14t-15 -6h-156q-8 0 -13 6t-3 14l6 29q2 7 8.5 20t26.5 26q47 30 86 71.5t66.5 90t42.5 103t15 111.5q0 40 -9.5 73t-28.5 57t-46 37t-63 13q-63 0 -110.5 -32t-79.5 -81t-48.5 -107.5t-16.5 -110.5
q0 -41 10.5 -78t25 -67t30.5 -50.5t27 -29.5q16 -12 16.5 -25.5t-1.5 -20.5l-6 -29q-2 -8 -9 -14t-15 -6h-156q-8 0 -13 6t-3 14l2 10q2 8 9 14t15 6h87q12 0 16 8t-3 13q-18 15 -34.5 41.5t-29.5 60.5t-20.5 71.5t-7.5 74.5q0 68 23 136.5t66 123.5t103 89.5t134 34.5
q47 0 83.5 -16.5t61 -47.5t37.5 -74t13 -95q0 -55 -17.5 -113.5t-47 -112t-69 -99t-83.5 -73.5z" />
    <glyph glyph-name="mu" unicode="&#x3bc;" 
d="M77 -180q-2 -8 -9 -14t-15 -6h-19q-8 0 -12.5 6t-2.5 14l140 660q2 8 9 14t15 6h19q8 0 13 -6t3 -14l-68 -316q-7 -32 -2 -53.5t19.5 -35.5t36.5 -20t49 -6t52 8.5t45 23.5t34 35t19 43l69 321q2 8 9 14t15 6h19q8 0 13 -6t3 -14l-98 -460q-2 -8 -9 -14t-15 -6h-16
q-8 0 -13 7q-3 5 -6 10.5t-14 5.5t-20 -5t-21 -11.5t-30.5 -11.5t-48.5 -5q-17 0 -32 4t-27.5 8.5t-22.5 8.5t-17 4q-14 0 -19.5 -7t-7.5 -14z" />
    <glyph glyph-name="pi" unicode="&#x3c0;" 
d="M436 440q-10 0 -12 -10l-56 -260q-7 -33 -8 -54.5t7 -33.5t27 -17t51 -5q8 0 13 -6t3 -14l-4 -20q-2 -8 -9.5 -14t-15.5 -6q-81 0 -112.5 40t-11.5 130l56 260q2 10 -6 10h-157q-10 0 -12 -10l-87 -410q-2 -8 -9.5 -14t-15.5 -6h-20q-8 0 -12.5 6t-2.5 14l87 410
q2 10 -8 10h-60q-8 0 -13 6t-3 14l4 20q2 8 9.5 14t15.5 6h460q8 0 12.5 -6t2.5 -14l-4 -20q-2 -8 -9 -14t-15 -6h-85z" />
    <glyph glyph-name="Wgrave" unicode="&#x1e80;" 
d="M320 111q0 -5 5 -5t7 5l184 574q3 8 9 11.5t13 3.5h25q12 0 15 -6t1 -14l-221 -665q-6 -15 -22 -15h-70q-7 0 -12 3.5t-4 11.5l35 362q0 4 -2 4t-4 -4l-132 -362q-6 -15 -22 -15h-68q-7 0 -12 3.5t-4 11.5l69 665q1 8 6.5 14t17.5 6h24q7 0 12 -3.5t4 -11.5l-63 -574
q-1 -5 4.5 -5t7.5 5l139 374q6 15 22 15h46q7 0 12 -3.5t4 -11.5zM318 895q11 0 15.5 -5.5t7.5 -10.5l52 -109q3 -5 -2.5 -12.5t-15.5 -7.5h-19q-14 0 -19 3.5t-8 8.5l-85 112q-3 5 1.5 13t14.5 8h58z" />
    <glyph glyph-name="wgrave" unicode="&#x1e81;" 
d="M305 390q16 0 16 -15l-4 -252q0 -6 6 -6t8 6l143 362q4 9 10 12t13 3h21q12 0 14.5 -7.5t-0.5 -15.5l-192 -462q-3 -8 -9.5 -11.5t-13.5 -3.5h-35q-15 0 -15 15l5 258q0 5 -5 5t-7 -5l-103 -258q-3 -8 -9.5 -11.5t-13.5 -3.5h-39q-15 0 -15 15l4 462q0 8 6 15.5t18 7.5
h21q15 0 15 -15l-9 -362q0 -6 6 -6t8 6l102 252q7 15 22 15h32zM270 730q11 0 15.5 -5.5t7.5 -10.5l52 -109q3 -5 -2.5 -12.5t-15.5 -7.5h-19q-14 0 -19 3.5t-8 8.5l-85 112q-3 5 1.5 13t14.5 8h58z" />
    <glyph glyph-name="Wacute" unicode="&#x1e82;" 
d="M320 111q0 -5 5 -5t7 5l184 574q3 8 9 11.5t13 3.5h25q12 0 15 -6t1 -14l-221 -665q-6 -15 -22 -15h-70q-7 0 -12 3.5t-4 11.5l35 362q0 4 -2 4t-4 -4l-132 -362q-6 -15 -22 -15h-68q-7 0 -12 3.5t-4 11.5l69 665q1 8 6.5 14t17.5 6h24q7 0 12 -3.5t4 -11.5l-63 -574
q-1 -5 4.5 -5t7.5 5l139 374q6 15 22 15h46q7 0 12 -3.5t4 -11.5zM503 895q10 0 11 -8t-5 -13l-131 -112q-6 -5 -12.5 -8.5t-20.5 -3.5h-19q-10 0 -12.5 7.5t2.5 12.5l100 109q5 5 11.5 10.5t17.5 5.5h58z" />
    <glyph glyph-name="wacute" unicode="&#x1e83;" 
d="M305 390q16 0 16 -15l-4 -252q0 -6 6 -6t8 6l143 362q4 9 10 12t13 3h21q12 0 14.5 -7.5t-0.5 -15.5l-192 -462q-3 -8 -9.5 -11.5t-13.5 -3.5h-35q-15 0 -15 15l5 258q0 5 -5 5t-7 -5l-103 -258q-3 -8 -9.5 -11.5t-13.5 -3.5h-39q-15 0 -15 15l4 462q0 8 6 15.5t18 7.5
h21q15 0 15 -15l-9 -362q0 -6 6 -6t8 6l102 252q7 15 22 15h32zM439 730q10 0 11 -8t-5 -13l-131 -112q-6 -5 -12.5 -8.5t-20.5 -3.5h-19q-10 0 -12.5 7.5t2.5 12.5l100 109q5 5 11.5 10.5t17.5 5.5h58z" />
    <glyph glyph-name="Wdieresis" unicode="&#x1e84;" 
d="M320 111q0 -5 5 -5t7 5l184 574q3 8 9 11.5t13 3.5h25q12 0 15 -6t1 -14l-221 -665q-6 -15 -22 -15h-70q-7 0 -12 3.5t-4 11.5l35 362q0 4 -2 4t-4 -4l-132 -362q-6 -15 -22 -15h-68q-7 0 -12 3.5t-4 11.5l69 665q1 8 6.5 14t17.5 6h24q7 0 12 -3.5t4 -11.5l-63 -574
q-1 -5 4.5 -5t7.5 5l139 374q6 15 22 15h46q7 0 12 -3.5t4 -11.5zM310 778q-4 -16 -20 -16h-52q-16 0 -12 16l11 53q2 6 7.5 11t12.5 5h52q7 0 10.5 -5t1.5 -11zM481 778q-4 -16 -20 -16h-52q-16 0 -12 16l11 53q2 6 7.5 11t12.5 5h52q7 0 10.5 -5t1.5 -11z" />
    <glyph glyph-name="wdieresis" unicode="&#x1e85;" 
d="M305 390q16 0 16 -15l-4 -252q0 -6 6 -6t8 6l143 362q4 9 10 12t13 3h21q12 0 14.5 -7.5t-0.5 -15.5l-192 -462q-3 -8 -9.5 -11.5t-13.5 -3.5h-35q-15 0 -15 15l5 258q0 5 -5 5t-7 -5l-103 -258q-3 -8 -9.5 -11.5t-13.5 -3.5h-39q-15 0 -15 15l4 462q0 8 6 15.5t18 7.5
h21q15 0 15 -15l-9 -362q0 -6 6 -6t8 6l102 252q7 15 22 15h32zM291 638q-4 -16 -20 -16h-52q-16 0 -12 16l11 53q2 6 7.5 11t12.5 5h52q7 0 10.5 -5t1.5 -11zM462 638q-4 -16 -20 -16h-52q-16 0 -12 16l11 53q2 6 7.5 11t12.5 5h52q7 0 10.5 -5t1.5 -11z" />
    <glyph glyph-name="Ygrave" unicode="&#x1ef2;" 
d="M253 328q1 -4 3.5 -4t4.5 4l213 357q8 15 22 15h36q10 0 13.5 -8.5t-3.5 -19.5l-267 -431l-47 -221q-2 -8 -9 -14t-15 -6h-26q-8 0 -13 6t-3 14l47 220l-85 432q-2 11 5 19.5t17 8.5h28q13 0 16 -15zM318 895q11 0 15.5 -5.5t7.5 -10.5l52 -109q3 -5 -2.5 -12.5
t-15.5 -7.5h-19q-14 0 -19 3.5t-8 8.5l-85 112q-3 5 1.5 13t14.5 8h58z" />
    <glyph glyph-name="ygrave" unicode="&#x1ef3;" 
d="M163 -119q-26 -45 -60.5 -63t-76.5 -18h-22q-8 0 -13 6t-3 14l4 18q2 8 9.5 14t15.5 6h22q21 0 41.5 13t41.5 49l61 104q4 7 3 13l-95 440q-2 8 5 15.5t19 7.5h23q13 0 16 -15l75 -368q1 -4 3.5 -4t4.5 4l213 368q8 15 22 15h33q12 0 15.5 -7.5t-1.5 -15.5zM255 730
q11 0 15.5 -5.5t7.5 -10.5l52 -109q3 -5 -2.5 -12.5t-15.5 -7.5h-19q-14 0 -19 3.5t-8 8.5l-85 112q-3 5 1.5 13t14.5 8h58z" />
    <glyph glyph-name="endash" unicode="&#x2013;" 
d="M472 296q8 0 13 -6t3 -14l-7 -30q-2 -8 -9 -14t-15 -6h-380q-8 0 -13 6t-3 14l7 30q2 8 9 14t15 6h380z" />
    <glyph glyph-name="emdash" unicode="&#x2014;" 
d="M548 296q8 0 13 -6t3 -14l-7 -30q-2 -8 -9 -14t-15 -6h-530q-8 0 -13 6t-3 14l7 30q2 8 9 14t15 6h530z" />
    <glyph glyph-name="quoteleft" unicode="&#x2018;" 
d="M308 590q8 0 13 -6t3 -14l-15 -70q-2 -8 -9 -14t-15 -6h-70q-8 0 -13 6t-3 14l16 75q5 21 12 31.5t15 19.5l52 56q5 5 12 11.5t21 6.5h10q9 0 12.5 -7.5t-2.5 -16.5l-53 -71q-5 -5 -3.5 -10t7.5 -5h10z" />
    <glyph glyph-name="quoteright" unicode="&#x2019;" 
d="M241 590q-8 0 -13 6t-3 14l15 70q2 8 9 14t15 6h70q8 0 13 -6t3 -14l-16 -75q-5 -21 -12 -31.5t-15 -19.5l-52 -56q-5 -5 -12 -11.5t-21 -6.5h-10q-9 0 -12.5 7.5t2.5 16.5l53 71q5 5 3.5 10t-7.5 5h-10z" />
    <glyph glyph-name="quotesinglbase" unicode="&#x201a;" 
d="M241 0q-8 0 -13 6t-3 14l15 70q2 8 9 14t15 6h70q8 0 13 -6t3 -14l-16 -75q-5 -21 -12 -31.5t-15 -19.5l-52 -56q-5 -5 -12 -11.5t-21 -6.5h-10q-9 0 -12.5 7.5t2.5 16.5l53 71q5 5 3.5 10t-7.5 5h-10z" />
    <glyph glyph-name="quotedblleft" unicode="&#x201c;" 
d="M226 590q8 0 13 -6t3 -14l-15 -70q-2 -8 -9 -14t-15 -6h-70q-8 0 -13 6t-3 14l16 75q5 21 12 31.5t15 19.5l52 56q5 5 12 11.5t21 6.5h10q9 0 12.5 -7.5t-2.5 -16.5l-53 -71q-5 -5 -3.5 -10t7.5 -5h10zM388 590q8 0 13 -6t3 -14l-15 -70q-2 -8 -9 -14t-15 -6h-70
q-8 0 -13 6t-3 14l16 75q5 21 12 31.5t15 19.5l52 56q5 5 12 11.5t21 6.5h10q9 0 12.5 -7.5t-2.5 -16.5l-53 -71q-5 -5 -3.5 -10t7.5 -5h10z" />
    <glyph glyph-name="quotedblright" unicode="&#x201d;" 
d="M322 590q-8 0 -13 6t-3 14l15 70q2 8 9 14t15 6h70q8 0 13 -6t3 -14l-16 -75q-5 -21 -12 -31.5t-15 -19.5l-52 -56q-5 -5 -12 -11.5t-21 -6.5h-10q-9 0 -12.5 7.5t2.5 16.5l53 71q5 5 3.5 10t-7.5 5h-10zM160 590q-8 0 -13 6t-3 14l15 70q2 8 9 14t15 6h70q8 0 13 -6
t3 -14l-16 -75q-5 -21 -12 -31.5t-15 -19.5l-52 -56q-5 -5 -12 -11.5t-21 -6.5h-10q-9 0 -12.5 7.5t2.5 16.5l53 71q5 5 3.5 10t-7.5 5h-10z" />
    <glyph glyph-name="quotedblbase" unicode="&#x201e;" 
d="M322 0q-8 0 -13 6t-3 14l15 70q2 8 9 14t15 6h70q8 0 13 -6t3 -14l-16 -75q-5 -21 -12 -31.5t-15 -19.5l-52 -56q-5 -5 -12 -11.5t-21 -6.5h-10q-9 0 -12.5 7.5t2.5 16.5l53 71q5 5 3.5 10t-7.5 5h-10zM160 0q-8 0 -13 6t-3 14l15 70q2 8 9 14t15 6h70q8 0 13 -6t3 -14
l-16 -75q-5 -21 -12 -31.5t-15 -19.5l-52 -56q-5 -5 -12 -11.5t-21 -6.5h-10q-9 0 -12.5 7.5t2.5 16.5l53 71q5 5 3.5 10t-7.5 5h-10z" />
    <glyph glyph-name="dagger" unicode="&#x2020;" 
d="M187 -100q-2 -8 -9.5 -14t-15.5 -6h-20q-8 0 -12.5 6t-2.5 14l110 518q2 10 -8 10h-142q-8 0 -13 6t-3 14l4 19q2 8 9 14t15 6h142q10 0 12 10l39 183q2 8 9.5 14t15.5 6h20q8 0 12.5 -6t2.5 -14l-39 -183q-2 -10 8 -10h142q8 0 13 -6t3 -14l-4 -19q-2 -8 -9 -14t-15 -6
h-142q-10 0 -12 -10z" />
    <glyph glyph-name="daggerdbl" unicode="&#x2021;" 
d="M48 179q-8 0 -13 6t-3 14l5 21q2 8 9 14t15 6h149q10 0 12 10l43 200q2 10 -8 10h-149q-8 0 -13 6t-3 14l5 21q2 8 9 14t15 6h149q10 0 12 10l32 149q2 8 9 14t15 6h22q8 0 13 -6t3 -14l-32 -149q-2 -10 8 -10h149q8 0 13 -6t3 -14l-5 -21q-2 -8 -9 -14t-15 -6h-149
q-10 0 -12 -10l-43 -200q-2 -10 8 -10h149q8 0 13 -6t3 -14l-5 -21q-2 -8 -9 -14t-15 -6h-149q-10 0 -12 -10l-32 -149q-2 -8 -9 -14t-15 -6h-22q-8 0 -13 6t-3 14l32 149q2 10 -8 10h-149z" />
    <glyph glyph-name="bullet" unicode="&#x2022;" 
d="M355 218q-2 -8 -9 -14t-15 -6h-154q-8 0 -13 6t-3 14l33 154q2 8 9 14t15 6h154q8 0 13 -6t3 -14z" />
    <glyph glyph-name="ellipsis" unicode="&#x2026;" 
d="M141 20q-2 -8 -9 -14t-15 -6h-76q-8 0 -13 6t-3 14l17 76q2 8 9 14t15 6h76q8 0 13 -6t3 -14zM323 20q-2 -8 -9 -14t-15 -6h-76q-8 0 -13 6t-3 14l17 76q2 8 9 14t15 6h76q8 0 13 -6t3 -14zM506 20q-2 -8 -9 -14t-15 -6h-76q-8 0 -13 6t-3 14l17 76q2 8 9 14t15 6h76
q8 0 13 -6t3 -14z" />
    <glyph glyph-name="perthousand" unicode="&#x2030;" 
d="M-12 15q-11 -15 -24 -15h-12q-10 0 -14 8.5t4 19.5l464 657q10 15 25 15h13q10 0 14 -8.5t-4 -19.5zM96 457q21 0 35.5 13.5t23.5 33t13.5 42t4.5 40.5q0 26 -7 41.5t-30 15.5q-21 0 -35.5 -13.5t-24 -33t-14 -42t-4.5 -40.5q0 -26 7.5 -41.5t30.5 -15.5zM140 690
q47 0 68 -26.5t21 -59.5q0 -34 -7.5 -68.5t-24 -62.5t-43 -45.5t-63.5 -17.5q-47 0 -68 26.5t-21 59.5q0 34 7.5 68.5t24 62.5t42.5 45.5t64 17.5zM265 57q21 0 35.5 13.5t23.5 33t13.5 42t4.5 40.5q0 26 -7 41.5t-30 15.5q-21 0 -35.5 -13.5t-24 -33t-14 -42t-4.5 -40.5
q0 -26 7.5 -41.5t30.5 -15.5zM309 290q47 0 68 -26.5t21 -59.5q0 -34 -7.5 -68.5t-24 -62.5t-43 -45.5t-63.5 -17.5q-47 0 -68 26.5t-21 59.5q0 34 7.5 68.5t24 62.5t42.5 45.5t64 17.5zM466 347q21 0 35.5 13.5t23.5 33t13.5 42t4.5 40.5q0 26 -7 41.5t-30 15.5
q-21 0 -35.5 -13.5t-24 -33t-14 -42t-4.5 -40.5q0 -26 7.5 -41.5t30.5 -15.5zM510 580q47 0 68 -26.5t21 -59.5q0 -34 -7.5 -68.5t-24 -62.5t-43 -45.5t-63.5 -17.5q-47 0 -68 26.5t-21 59.5q0 34 7.5 68.5t24 62.5t42.5 45.5t64 17.5z" />
    <glyph glyph-name="guilsinglleft" unicode="&#x2039;" 
d="M311 435q3 4 10 9.5t18 5.5h19q14 0 17.5 -9t-8.5 -24l-116 -145q-6 -7 -7 -11.5t2 -12.5l54 -145q6 -16 -1.5 -24.5t-21.5 -8.5h-19q-11 0 -15.5 5.5t-6.5 9.5l-61 161q-4 8 -3 14t8 14z" />
    <glyph glyph-name="guilsinglright" unicode="&#x203a;" 
d="M374 274q4 -8 3 -14t-8 -14l-131 -161q-3 -4 -10 -9.5t-18 -5.5h-19q-14 0 -17.5 9t8.5 24l116 145q6 8 7 12.5t-2 11.5l-54 145q-6 16 1.5 24.5t21.5 8.5h19q11 0 15.5 -5.5t6.5 -9.5z" />
    <glyph glyph-name="fraction" unicode="&#x2044;" horiz-adv-x="0" 
d="M-167 15q-9 -15 -21 -15h-15q-10 0 -16 8.5t0 19.5l387 657q9 15 22 15h13q10 0 16 -9t0 -19z" />
    <glyph glyph-name="zerosuperior" unicode="&#x2070;" 
d="M179 600q7 21 17 39.5t24 33t34 23t46 8.5q45 0 74.5 -27.5t25.5 -76.5q-2 -15 -5 -34.5t-7 -40.5t-8.5 -40.5t-9.5 -34.5q-7 -21 -17.5 -39.5t-25 -33t-34 -23t-44.5 -8.5q-23 0 -42 7t-32.5 20.5t-20.5 33t-5 43.5q1 15 4 34.5t7 40.5t9 40.5t10 34.5zM300 646
q-17 0 -35 -9t-27 -37q-5 -16 -10.5 -35.5t-10 -39.5t-7.5 -39.5t-4 -35.5q-3 -46 43 -46q18 0 35 9.5t27 36.5q11 32 20 75t11 75q3 46 -42 46z" />
    <glyph glyph-name="foursuperior" unicode="&#x2074;" 
d="M380 464q10 0 8 -9l-8 -34q-2 -10 -12 -10h-18q-4 0 -6 -5l-9 -46q-2 -10 -12 -10h-38q-10 0 -8 10l9 46q2 5 -4 5h-128q-10 0 -8 10l4 26q2 8 11 20t19 25l148 201q6 7 12 7h57q9 0 7 -10l-46 -221q-2 -5 4 -5h18zM232 468q-2 -4 2 -4h60q5 0 5 5l30 130q0 2 -2 2.5
t-3 -1.5z" />
    <glyph glyph-name="fivesuperior" unicode="&#x2075;" 
d="M271 642q-7 0 -7 -5l-13 -60q-1 -4 1.5 -6.5t8.5 2.5q11 6 20 8t13 2q21 0 35.5 -8.5t24 -22t13.5 -31.5t4 -37q0 -28 -8.5 -53t-24 -44t-37 -30t-46.5 -11q-48 0 -73.5 26.5t-25.5 64.5q0 5 4 8t8 3h38q8 0 8 -10q0 -18 11 -26t30 -8q17 0 28.5 7.5t18.5 19t10 25.5
t3 27q0 20 -7.5 31t-26.5 11q-8 0 -20 -3.5t-20 -13.5q-4 -5 -11 -5h-38q-10 0 -8 9l38 178q2 10 12 10h152q10 0 8 -10l-8 -38q-2 -10 -12 -10h-103z" />
    <glyph glyph-name="sixsuperior" unicode="&#x2076;" 
d="M287 576q25 0 41 -9t25 -23.5t12.5 -32t3.5 -34.5q0 -28 -8.5 -52t-23.5 -41.5t-36 -27.5t-47 -10q-46 0 -71 32.5t-25 84.5q0 51 8.5 95.5t26.5 76.5t45 50.5t64 18.5q25 0 43.5 -9t29.5 -23.5t15 -31.5t1 -32q-2 -9 -12 -9h-39q-10 0 -8 9q3 16 -5 29t-27 13
q-16 0 -28.5 -8.5t-21 -21.5t-13 -28.5t-4.5 -29.5q0 -3 2 -4.5t6 0.5q8 6 20.5 12t25.5 6zM255 405q18 0 29 8t17 19t8.5 23.5t2.5 21.5q0 40 -33 40q-16 0 -27 -6t-18 -15.5t-10.5 -21.5t-3.5 -23q0 -22 9.5 -34t25.5 -12z" />
    <glyph glyph-name="sevensuperior" unicode="&#x2077;" 
d="M312 636q2 5 -3 5h-120q-10 0 -8 10l7 39q2 10 13 10h180q10 0 8 -10l-10 -48q0 -2 -1 -4l-3 -6l-147 -274q-5 -8 -11 -8h-49q-7 0 -7.5 4t1.5 8z" />
    <glyph glyph-name="eightsuperior" unicode="&#x2078;" 
d="M256 400q18 0 30.5 5.5t20 13.5t10.5 18t3 19q0 20 -15 33t-35 13q-25 0 -44 -15t-19 -41q0 -20 14.5 -33t34.5 -13zM289 560q20 0 37.5 11.5t17.5 38.5q0 15 -10.5 27.5t-33.5 12.5q-21 0 -37 -13t-16 -40q0 -17 11.5 -27t30.5 -10zM201 531q5 2 4.5 6t-2.5 6
q-14 20 -14 52q0 22 9 41.5t24.5 34.5t36.5 24t45 9q46 0 73 -25.5t27 -62.5q0 -23 -10.5 -44t-30.5 -36q-10 -8 -5 -13q12 -12 17 -27.5t5 -32.5q0 -23 -7.5 -44t-23 -37.5t-39 -26t-54.5 -9.5q-49 0 -79.5 26t-30.5 64q0 34 15 58t40 37z" />
    <glyph glyph-name="ninesuperior" unicode="&#x2079;" 
d="M266 474q-25 0 -41 9t-25 23.5t-12.5 32t-3.5 34.5q0 28 8.5 52t23.5 41.5t36 27.5t47 10q46 0 71 -32.5t25 -84.5q0 -51 -8.5 -95.5t-26.5 -76.5t-45 -50.5t-64 -18.5q-25 0 -43.5 9t-29.5 23.5t-15 31.5t-1 32q2 9 12 9h39q10 0 8 -9q-3 -16 5 -29t27 -13
q16 0 28.5 8.5t21 21.5t13 28.5t4.5 29.5q0 3 -2 4.5t-6 -0.5q-8 -6 -20.5 -12t-25.5 -6zM298 645q-18 0 -29 -8t-17 -19t-8.5 -23.5t-2.5 -21.5q0 -40 33 -40q16 0 27 6t18 15.5t10.5 21.5t3.5 23q0 22 -9.5 34t-25.5 12z" />
    <glyph glyph-name="plussuperior" unicode="&#x207a;" 
d="M247 504q4 0 6 5l14 66q2 10 12 10h39q10 0 8 -10l-15 -66q0 -5 4 -5h66q10 0 8 -9l-8 -40q-2 -10 -12 -10h-66q-4 0 -6 -4l-14 -66q-2 -10 -12 -10h-39q-10 0 -8 10l15 65q0 5 -4 5h-66q-10 0 -8 10l8 39q2 10 12 10h66z" />
    <glyph glyph-name="minussuperior" unicode="&#x207b;" 
d="M376 510q10 0 8 -9l-9 -41q-2 -10 -12 -10h-190q-10 0 -8 9l9 41q2 10 12 10h190z" />
    <glyph glyph-name="equalsuperior" unicode="&#x207c;" 
d="M178 493q-10 0 -8 10l9 38q2 10 12 10h200q10 0 8 -10l-9 -38q-2 -10 -12 -10h-200zM158 399q-10 0 -8 10l8 37q2 10 13 10h200q9 0 7 -10l-8 -37q-2 -10 -12 -10h-200z" />
    <glyph glyph-name="parenleftsuperior" unicode="&#x207d;" 
d="M298 359q10 0 8 -10l-7 -34q-2 -10 -12 -10h-15q-52 0 -79 28.5t-22 76.5q1 15 6 42t11 56t12.5 55.5t11.5 41.5t15 33.5t25 34.5t35.5 26.5t46.5 10.5h36q10 0 8 -10l-8 -35q-2 -9 -12 -9h-20q-13 0 -24.5 -5t-20.5 -13t-15.5 -17t-9.5 -16q-6 -15 -13 -42t-13 -55.5
t-10.5 -55.5t-5.5 -42q-1 -22 12 -36.5t36 -14.5h24z" />
    <glyph glyph-name="parenrightsuperior" unicode="&#x207e;" 
d="M258 656q-10 0 -8 10l8 34q2 10 12 10h12q29 0 49 -10t31.5 -25.5t15.5 -34t3 -35.5q-2 -15 -6.5 -41.5t-10.5 -55.5t-13 -56t-12 -42q-8 -22 -20.5 -41t-28 -33.5t-34 -22.5t-37.5 -8h-43q-10 0 -8 10l7 35q2 9 12 9h27q16 0 28.5 7t21.5 16t14 17.5t6 10.5
q6 15 12.5 42t12.5 55.5t10.5 55.5t5.5 42q1 16 -4 26t-12.5 15.5t-16 7.5t-15.5 2h-19z" />
    <glyph glyph-name="nsuperior" unicode="&#x207f;" 
d="M263 584q11 0 26 10.5t34 10.5q23 0 39 -8.5t24.5 -22.5t10.5 -32.5t-2 -38.5l-30 -143q-2 -10 -13 -10h-38q-9 0 -7 10l29 143q1 7 1.5 14.5t-3 14t-11 11t-20.5 4.5q-32 0 -45.5 -13t-16.5 -28l-30 -146q-2 -10 -12 -10h-38q-10 0 -8 10l49 230q2 10 12 10h32q9 0 9 -6
q0 -10 8 -10z" />
    <glyph glyph-name="zeroinferior" unicode="&#x2080;" 
d="M179 68q7 21 17 39.5t24 33t34 23t46 8.5q45 0 74.5 -27.5t25.5 -76.5q-2 -15 -5 -34.5t-7 -40.5t-8.5 -40.5t-9.5 -34.5q-7 -21 -17.5 -39.5t-25 -33t-34 -23t-44.5 -8.5q-23 0 -42 7t-32.5 20.5t-20.5 33t-5 43.5q1 15 4 34.5t7 40.5t9 40.5t10 34.5zM300 114
q-17 0 -35 -9t-27 -37q-5 -16 -10.5 -35.5t-10 -39.5t-7.5 -39.5t-4 -35.5q-3 -46 43 -46q18 0 35 9.5t27 36.5q11 32 20 75t11 75q3 46 -42 46z" />
    <glyph glyph-name="oneinferior" unicode="&#x2081;" 
d="M300 73q0 2 -1.5 2.5t-2.5 -0.5l-88 -73q-3 -2 -7.5 -2t-2.5 6l12 54q2 7 6 12t8 8l91 83q5 5 11 5h44q10 0 8 -10l-59 -279q-2 -5 4 -5h59q10 0 8 -9l-8 -37q-2 -10 -12 -10h-202q-10 0 -8 10l8 36q2 10 12 10h72q6 0 6 5z" />
    <glyph glyph-name="twoinferior" unicode="&#x2082;" 
d="M340 84q0 11 -7 20.5t-21 9.5q-19 0 -31 -10.5t-16 -34.5q-2 -10 -11 -10h-39q-10 0 -8 10q8 48 36 75.5t69 27.5q25 0 42 -8.5t27 -21t14 -28t4 -30.5q0 -21 -5.5 -39t-17 -35t-27.5 -33.5t-37 -35.5l-65 -58q-3 -3 -2.5 -6t4.5 -3h111q10 0 8 -10l-8 -36
q-2 -10 -12 -10h-188q-10 0 -8 10l9 45q1 5 3.5 8t4.5 5l118 106q17 15 35 38.5t18 53.5z" />
    <glyph glyph-name="threeinferior" unicode="&#x2083;" 
d="M261 -125q22 0 34 14t12 39q0 22 -9 32.5t-23 10.5h-8q-10 0 -8 9l8 40q2 10 13 10h8q18 0 32 11.5t14 36.5q0 9 -7 23t-27 14t-32 -12t-12 -34q0 -5 -4 -7.5t-7 -2.5h-40q-8 0 -8 10q0 24 9.5 43.5t24.5 32.5t33.5 20t36.5 7q25 0 42.5 -8t29 -20.5t16.5 -29t5 -33.5
q0 -31 -17 -50t-32 -30q-8 -7 -3 -12q9 -10 17 -25t8 -39q0 -51 -31 -81t-79 -30q-21 0 -41.5 8t-35.5 22.5t-21.5 33.5t-0.5 42q2 11 12 11h40q8 0 8 -10q0 -17 8.5 -31.5t34.5 -14.5z" />
    <glyph glyph-name="fourinferior" unicode="&#x2084;" 
d="M380 -68q10 0 8 -9l-8 -34q-2 -10 -12 -10h-18q-4 0 -6 -5l-9 -46q-2 -10 -12 -10h-38q-10 0 -8 10l9 46q2 5 -4 5h-128q-10 0 -8 10l4 26q2 8 11 20t19 25l148 201q6 7 12 7h57q9 0 7 -10l-46 -221q-2 -5 4 -5h18zM232 -64q-2 -4 2 -4h60q5 0 5 5l30 130q0 2 -2 2.5
t-3 -1.5z" />
    <glyph glyph-name="fiveinferior" unicode="&#x2085;" 
d="M271 110q-7 0 -7 -5l-13 -60q-1 -4 1.5 -6t8.5 2q10 7 19.5 8.5t13.5 1.5q21 0 35.5 -8.5t24 -22t13.5 -31.5t4 -37q0 -28 -8.5 -53t-24 -44t-37 -30t-46.5 -11q-48 0 -73.5 26.5t-25.5 64.5q0 5 4 8t8 3h38q8 0 8 -10q0 -18 11 -26t30 -8q17 0 28.5 7.5t18.5 19t10 25.5
t3 27q0 20 -7.5 31t-26.5 11q-8 0 -20 -3.5t-20 -13.5q-4 -5 -11 -5h-38q-10 0 -8 9l38 178q2 10 12 10h152q10 0 8 -10l-8 -38q-2 -10 -12 -10h-103z" />
    <glyph glyph-name="sixinferior" unicode="&#x2086;" 
d="M287 44q25 0 41 -9t25 -23.5t12.5 -32t3.5 -34.5q0 -28 -8.5 -52t-23.5 -41.5t-36 -27.5t-47 -10q-46 0 -71 32.5t-25 84.5q0 51 8.5 95.5t26.5 76.5t45 50.5t64 18.5q25 0 43.5 -9t29.5 -23.5t15 -31.5t1 -32q-2 -9 -12 -9h-39q-10 0 -8 9q3 16 -5 29t-27 13
q-16 0 -28.5 -8.5t-21 -21.5t-13 -28.5t-4.5 -29.5q0 -3 2 -4.5t6 0.5q8 6 20.5 12t25.5 6zM255 -127q18 0 29 8t17 19t8.5 23.5t2.5 21.5q0 40 -33 40q-16 0 -27 -6t-18 -15.5t-10.5 -21.5t-3.5 -23q0 -22 9.5 -34t25.5 -12z" />
    <glyph glyph-name="seveninferior" unicode="&#x2087;" 
d="M312 104q2 5 -3 5h-120q-10 0 -8 10l7 39q2 10 13 10h180q10 0 8 -10l-10 -48q0 -2 -1 -4l-3 -6l-147 -274q-5 -8 -11 -8h-49q-7 0 -7.5 4t1.5 8z" />
    <glyph glyph-name="eightinferior" unicode="&#x2088;" 
d="M256 -132q18 0 30.5 5.5t20 13.5t10.5 18t3 19q0 20 -15 33t-35 13q-25 0 -44 -15t-19 -41q0 -20 14.5 -33t34.5 -13zM289 28q20 0 37.5 11.5t17.5 38.5q0 15 -10.5 27.5t-33.5 12.5q-21 0 -37 -13t-16 -40q0 -17 11.5 -27t30.5 -10zM201 -1q5 2 4.5 6t-2.5 6
q-14 20 -14 52q0 22 9 41.5t24.5 34.5t36.5 24t45 9q46 0 73 -25.5t27 -62.5q0 -23 -10.5 -44t-30.5 -36q-10 -8 -5 -13q12 -12 17 -27.5t5 -32.5q0 -23 -7.5 -44t-23 -37.5t-39 -26t-54.5 -9.5q-49 0 -79.5 26t-30.5 64q0 34 15 58t40 37z" />
    <glyph glyph-name="nineinferior" unicode="&#x2089;" 
d="M266 -58q-25 0 -41 9t-25 23.5t-12.5 32t-3.5 34.5q0 28 8.5 52t23.5 41.5t36 27.5t47 10q46 0 71 -32.5t25 -84.5q0 -51 -8.5 -95.5t-26.5 -76.5t-45 -50.5t-64 -18.5q-25 0 -43.5 9t-29.5 23.5t-15 31.5t-1 32q2 9 12 9h39q10 0 8 -9q-3 -16 5 -29t27 -13
q16 0 28.5 8.5t21 21.5t13 28.5t4.5 29.5q0 3 -2 4.5t-6 -0.5q-8 -6 -20.5 -12t-25.5 -6zM298 113q-18 0 -29 -8t-17 -19t-8.5 -23.5t-2.5 -21.5q0 -40 33 -40q16 0 27 6t18 15.5t10.5 21.5t3.5 23q0 22 -9.5 34t-25.5 12z" />
    <glyph glyph-name="parenleftinferior" unicode="&#x208d;" 
d="M298 -173q10 0 8 -10l-7 -34q-2 -10 -12 -10h-15q-52 0 -79 28.5t-22 76.5q1 15 6 42t11 56t12.5 55.5t11.5 41.5t15 33.5t25 34.5t35.5 26.5t46.5 10.5h36q10 0 8 -10l-8 -35q-2 -9 -12 -9h-20q-13 0 -24.5 -5t-20.5 -13t-15.5 -17t-9.5 -16q-6 -15 -13 -42t-13 -55.5
t-10.5 -55.5t-5.5 -42q-1 -22 12 -36.5t36 -14.5h24z" />
    <glyph glyph-name="parenrightinferior" unicode="&#x208e;" 
d="M258 124q-10 0 -8 10l8 34q2 10 12 10h12q29 0 49 -10t31.5 -25.5t15.5 -34t3 -35.5q-2 -15 -6.5 -41.5t-10.5 -55.5t-13 -56t-12 -42q-8 -22 -20.5 -41t-28 -33.5t-34 -22.5t-37.5 -8h-43q-10 0 -8 10l7 35q2 9 12 9h27q16 0 28.5 7t21.5 16t14 17.5t6 10.5
q6 15 12.5 42t12.5 55.5t10.5 55.5t5.5 42q1 16 -4 26t-12.5 15.5t-16 7.5t-15.5 2h-19z" />
    </font>
</defs>
</svg>
